<?xml version="1.0" encoding="UTF-8"?>
<svg xmlns="http://www.w3.org/2000/svg" xmlns:xlink="http://www.w3.org/1999/xlink" width="98px" height="85px" viewBox="0 0 85 85" version="1.1">
<g id="surface1">
<path style=" stroke:none;fill-rule:nonzero;fill:rgb(41.568628%,66.274512%,99.607843%);fill-opacity:1;" d="M 8.371094 45.40625 C 8.660156 45.40625 8.949219 45.402344 9.238281 45.402344 C 10.019531 45.398438 10.796875 45.402344 11.574219 45.40625 C 12.394531 45.40625 13.210938 45.40625 14.03125 45.40625 C 15.402344 45.40625 16.777344 45.40625 18.152344 45.410156 C 19.734375 45.414062 21.320312 45.414062 22.90625 45.414062 C 24.433594 45.410156 25.960938 45.414062 27.492188 45.414062 C 28.140625 45.417969 28.789062 45.417969 29.4375 45.414062 C 30.203125 45.414062 30.964844 45.417969 31.730469 45.417969 C 32.011719 45.421875 32.289062 45.421875 32.570312 45.421875 C 34.542969 45.414062 36.269531 45.484375 37.84375 46.800781 C 39.054688 48.039062 39.550781 49.507812 39.554688 51.21875 C 39.558594 51.339844 39.558594 51.460938 39.558594 51.585938 C 39.558594 51.984375 39.558594 52.386719 39.558594 52.785156 C 39.5625 53.074219 39.5625 53.363281 39.5625 53.652344 C 39.566406 54.433594 39.566406 55.214844 39.566406 55.996094 C 39.566406 56.484375 39.566406 56.972656 39.570312 57.460938 C 39.570312 59.167969 39.574219 60.875 39.574219 62.582031 C 39.574219 64.171875 39.578125 65.761719 39.582031 67.347656 C 39.585938 68.714844 39.589844 70.082031 39.585938 71.445312 C 39.585938 72.261719 39.589844 73.078125 39.59375 73.890625 C 39.59375 74.65625 39.59375 75.425781 39.59375 76.191406 C 39.59375 76.472656 39.59375 76.753906 39.59375 77.03125 C 39.609375 78.9375 39.527344 80.757812 38.171875 82.238281 C 38.0625 82.367188 37.949219 82.496094 37.835938 82.628906 C 36.203125 83.914062 34.542969 83.957031 32.558594 83.941406 C 32.261719 83.945312 31.964844 83.945312 31.667969 83.945312 C 30.863281 83.949219 30.0625 83.945312 29.261719 83.945312 C 28.421875 83.941406 27.578125 83.941406 26.738281 83.945312 C 25.324219 83.945312 23.914062 83.941406 22.5 83.9375 C 20.871094 83.933594 19.242188 83.933594 17.609375 83.933594 C 16.039062 83.9375 14.464844 83.9375 12.894531 83.933594 C 12.226562 83.933594 11.558594 83.933594 10.894531 83.933594 C 10.105469 83.933594 9.320312 83.933594 8.535156 83.929688 C 8.246094 83.925781 7.957031 83.925781 7.671875 83.929688 C 5.75 83.933594 4.054688 83.839844 2.578125 82.460938 C 1.558594 81.324219 1.113281 80.117188 1.117188 78.59375 C 1.113281 78.46875 1.113281 78.347656 1.113281 78.21875 C 1.109375 77.808594 1.109375 77.394531 1.109375 76.984375 C 1.105469 76.6875 1.105469 76.390625 1.105469 76.09375 C 1.097656 75.289062 1.097656 74.488281 1.09375 73.683594 C 1.09375 73.179688 1.09375 72.679688 1.09375 72.175781 C 1.085938 70.601562 1.085938 69.027344 1.082031 67.449219 C 1.082031 65.636719 1.074219 63.820312 1.066406 62.007812 C 1.058594 60.601562 1.054688 59.199219 1.054688 57.792969 C 1.054688 56.957031 1.050781 56.117188 1.046875 55.277344 C 1.042969 54.492188 1.039062 53.703125 1.042969 52.914062 C 1.042969 52.625 1.042969 52.335938 1.039062 52.046875 C 1.019531 50.128906 1.1875 48.582031 2.519531 47.070312 C 4.152344 45.421875 6.191406 45.390625 8.371094 45.40625 Z M 8.371094 45.40625 "/>
<path style=" stroke:none;fill-rule:nonzero;fill:rgb(100%,39.215687%,10.196079%);fill-opacity:1;" d="M 6.367188 1.136719 C 6.488281 1.132812 6.613281 1.132812 6.738281 1.132812 C 7.152344 1.128906 7.566406 1.128906 7.980469 1.128906 C 8.273438 1.125 8.570312 1.125 8.867188 1.121094 C 9.839844 1.117188 10.8125 1.113281 11.789062 1.109375 C 11.953125 1.109375 12.117188 1.109375 12.289062 1.109375 C 13.851562 1.105469 15.417969 1.101562 16.980469 1.097656 C 18.980469 1.09375 20.976562 1.085938 22.976562 1.074219 C 24.382812 1.066406 25.789062 1.0625 27.195312 1.0625 C 28.03125 1.0625 28.871094 1.058594 29.710938 1.050781 C 30.5 1.046875 31.292969 1.042969 32.082031 1.046875 C 32.371094 1.046875 32.660156 1.042969 32.949219 1.042969 C 34.871094 1.019531 36.414062 1.183594 37.929688 2.519531 C 39.242188 3.816406 39.578125 5.382812 39.597656 7.179688 C 39.601562 7.578125 39.597656 7.976562 39.59375 8.375 C 39.59375 8.664062 39.597656 8.953125 39.597656 9.242188 C 39.601562 10.023438 39.597656 10.800781 39.59375 11.582031 C 39.59375 12.398438 39.59375 13.21875 39.59375 14.039062 C 39.59375 15.410156 39.59375 16.785156 39.589844 18.160156 C 39.585938 19.746094 39.585938 21.332031 39.585938 22.917969 C 39.589844 24.449219 39.585938 25.976562 39.585938 27.507812 C 39.582031 28.15625 39.582031 28.804688 39.585938 29.453125 C 39.585938 30.21875 39.582031 30.984375 39.582031 31.75 C 39.578125 32.03125 39.578125 32.308594 39.578125 32.589844 C 39.585938 34.648438 39.425781 36.390625 38.015625 38.015625 C 36.265625 39.53125 34.371094 39.585938 32.175781 39.578125 C 31.886719 39.578125 31.597656 39.582031 31.3125 39.582031 C 30.53125 39.585938 29.75 39.585938 28.972656 39.585938 C 28.316406 39.582031 27.664062 39.585938 27.011719 39.585938 C 25.472656 39.589844 23.933594 39.585938 22.390625 39.585938 C 20.804688 39.582031 19.21875 39.585938 17.632812 39.589844 C 16.269531 39.59375 14.90625 39.59375 13.539062 39.59375 C 12.726562 39.59375 11.914062 39.59375 11.097656 39.597656 C 10.332031 39.601562 9.566406 39.597656 8.800781 39.597656 C 8.523438 39.59375 8.242188 39.597656 7.960938 39.597656 C 6.0625 39.609375 4.238281 39.523438 2.761719 38.171875 C 2.632812 38.0625 2.503906 37.949219 2.371094 37.835938 C 1.085938 36.203125 1.042969 34.542969 1.058594 32.558594 C 1.054688 32.261719 1.054688 31.964844 1.054688 31.667969 C 1.050781 30.863281 1.054688 30.0625 1.054688 29.261719 C 1.058594 28.421875 1.058594 27.578125 1.054688 26.738281 C 1.054688 25.324219 1.058594 23.914062 1.0625 22.5 C 1.066406 20.871094 1.066406 19.242188 1.066406 17.609375 C 1.0625 16.039062 1.0625 14.464844 1.066406 12.894531 C 1.066406 12.226562 1.066406 11.558594 1.066406 10.894531 C 1.066406 10.105469 1.066406 9.320312 1.070312 8.535156 C 1.074219 8.246094 1.074219 7.957031 1.070312 7.671875 C 1.066406 5.769531 1.15625 4.054688 2.515625 2.589844 C 3.714844 1.546875 4.804688 1.136719 6.367188 1.136719 Z M 6.367188 1.136719 "/>
<path style=" stroke:none;fill-rule:nonzero;fill:rgb(59.215689%,87.058824%,23.921569%);fill-opacity:1;" d="M 52.824219 45.421875 C 53.113281 45.421875 53.402344 45.417969 53.6875 45.417969 C 54.46875 45.414062 55.25 45.414062 56.027344 45.414062 C 56.683594 45.417969 57.335938 45.414062 57.988281 45.414062 C 59.527344 45.410156 61.066406 45.414062 62.609375 45.414062 C 64.195312 45.417969 65.78125 45.414062 67.367188 45.410156 C 68.730469 45.40625 70.09375 45.40625 71.460938 45.40625 C 72.273438 45.40625 73.085938 45.40625 73.902344 45.402344 C 74.667969 45.398438 75.433594 45.402344 76.199219 45.402344 C 76.476562 45.40625 76.757812 45.402344 77.039062 45.402344 C 78.9375 45.390625 80.761719 45.476562 82.238281 46.828125 C 82.367188 46.9375 82.496094 47.050781 82.628906 47.164062 C 83.914062 48.796875 83.957031 50.457031 83.941406 52.441406 C 83.945312 52.738281 83.945312 53.035156 83.945312 53.332031 C 83.949219 54.136719 83.945312 54.9375 83.945312 55.738281 C 83.941406 56.578125 83.941406 57.421875 83.945312 58.261719 C 83.945312 59.675781 83.941406 61.085938 83.9375 62.5 C 83.933594 64.128906 83.933594 65.757812 83.933594 67.390625 C 83.9375 68.960938 83.9375 70.535156 83.933594 72.105469 C 83.933594 72.773438 83.933594 73.441406 83.933594 74.105469 C 83.933594 74.894531 83.933594 75.679688 83.929688 76.464844 C 83.925781 76.753906 83.925781 77.042969 83.929688 77.328125 C 83.933594 79.25 83.839844 80.945312 82.460938 82.421875 C 81.324219 83.441406 80.117188 83.886719 78.59375 83.882812 C 78.46875 83.886719 78.347656 83.886719 78.21875 83.886719 C 77.808594 83.890625 77.394531 83.890625 76.984375 83.890625 C 76.6875 83.894531 76.390625 83.894531 76.09375 83.894531 C 75.289062 83.902344 74.488281 83.902344 73.683594 83.90625 C 73.179688 83.90625 72.679688 83.90625 72.175781 83.90625 C 70.601562 83.914062 69.027344 83.914062 67.449219 83.917969 C 65.636719 83.917969 63.820312 83.925781 62.007812 83.933594 C 60.601562 83.941406 59.199219 83.945312 57.792969 83.945312 C 56.957031 83.945312 56.117188 83.949219 55.277344 83.953125 C 54.492188 83.957031 53.703125 83.960938 52.914062 83.957031 C 52.625 83.957031 52.335938 83.957031 52.046875 83.960938 C 50.128906 83.980469 48.582031 83.8125 47.070312 82.480469 C 45.757812 81.183594 45.421875 79.617188 45.402344 77.820312 C 45.398438 77.421875 45.402344 77.023438 45.40625 76.625 C 45.40625 76.335938 45.402344 76.046875 45.402344 75.757812 C 45.398438 74.976562 45.402344 74.199219 45.40625 73.417969 C 45.40625 72.601562 45.40625 71.78125 45.40625 70.960938 C 45.40625 69.589844 45.40625 68.214844 45.410156 66.839844 C 45.414062 65.253906 45.414062 63.667969 45.414062 62.082031 C 45.410156 60.550781 45.414062 59.023438 45.414062 57.492188 C 45.417969 56.84375 45.417969 56.195312 45.414062 55.546875 C 45.414062 54.78125 45.417969 54.015625 45.417969 53.25 C 45.421875 52.96875 45.421875 52.691406 45.421875 52.410156 C 45.414062 50.351562 45.574219 48.609375 46.980469 46.980469 C 48.734375 45.46875 50.628906 45.414062 52.824219 45.421875 Z M 52.824219 45.421875 "/>
<path style=" stroke:none;fill-rule:nonzero;fill:rgb(99.607843%,84.705883%,26.274511%);fill-opacity:1;" d="M 52.441406 1.058594 C 52.738281 1.054688 53.035156 1.054688 53.332031 1.054688 C 54.136719 1.050781 54.9375 1.054688 55.738281 1.054688 C 56.578125 1.058594 57.421875 1.058594 58.261719 1.054688 C 59.675781 1.054688 61.085938 1.058594 62.5 1.0625 C 64.128906 1.066406 65.757812 1.066406 67.390625 1.066406 C 68.960938 1.0625 70.535156 1.0625 72.105469 1.066406 C 72.773438 1.066406 73.441406 1.066406 74.105469 1.066406 C 74.894531 1.066406 75.679688 1.066406 76.464844 1.070312 C 76.753906 1.074219 77.042969 1.074219 77.328125 1.070312 C 79.25 1.066406 80.945312 1.160156 82.421875 2.539062 C 83.441406 3.675781 83.886719 4.882812 83.882812 6.40625 C 83.886719 6.53125 83.886719 6.652344 83.886719 6.78125 C 83.890625 7.191406 83.890625 7.605469 83.890625 8.015625 C 83.894531 8.3125 83.894531 8.609375 83.894531 8.90625 C 83.902344 9.710938 83.902344 10.511719 83.90625 11.316406 C 83.90625 11.820312 83.90625 12.320312 83.90625 12.824219 C 83.914062 14.398438 83.914062 15.972656 83.917969 17.550781 C 83.917969 19.363281 83.925781 21.179688 83.933594 22.992188 C 83.941406 24.398438 83.945312 25.800781 83.945312 27.207031 C 83.945312 28.042969 83.949219 28.882812 83.953125 29.722656 C 83.957031 30.507812 83.960938 31.296875 83.957031 32.085938 C 83.957031 32.375 83.957031 32.664062 83.960938 32.953125 C 83.980469 34.871094 83.8125 36.417969 82.480469 37.929688 C 81.183594 39.242188 79.617188 39.578125 77.820312 39.597656 C 77.421875 39.601562 77.023438 39.597656 76.625 39.59375 C 76.335938 39.59375 76.046875 39.597656 75.757812 39.597656 C 74.976562 39.601562 74.199219 39.597656 73.417969 39.59375 C 72.601562 39.59375 71.78125 39.59375 70.960938 39.59375 C 69.589844 39.59375 68.214844 39.59375 66.839844 39.589844 C 65.253906 39.585938 63.667969 39.585938 62.082031 39.585938 C 60.550781 39.589844 59.023438 39.585938 57.492188 39.585938 C 56.84375 39.582031 56.195312 39.582031 55.546875 39.585938 C 54.78125 39.585938 54.015625 39.582031 53.25 39.582031 C 52.96875 39.578125 52.691406 39.578125 52.410156 39.578125 C 50.351562 39.585938 48.609375 39.425781 46.980469 38.019531 C 45.46875 36.265625 45.414062 34.371094 45.421875 32.175781 C 45.421875 31.886719 45.417969 31.597656 45.417969 31.3125 C 45.414062 30.53125 45.414062 29.75 45.414062 28.972656 C 45.417969 28.316406 45.414062 27.664062 45.414062 27.011719 C 45.410156 25.472656 45.414062 23.933594 45.414062 22.390625 C 45.417969 20.804688 45.414062 19.21875 45.410156 17.632812 C 45.40625 16.269531 45.40625 14.90625 45.40625 13.539062 C 45.40625 12.726562 45.40625 11.914062 45.402344 11.097656 C 45.398438 10.332031 45.402344 9.566406 45.402344 8.800781 C 45.40625 8.523438 45.402344 8.242188 45.402344 7.960938 C 45.390625 6.0625 45.476562 4.238281 46.828125 2.761719 C 46.9375 2.632812 47.050781 2.503906 47.164062 2.371094 C 48.796875 1.085938 50.457031 1.042969 52.441406 1.058594 Z M 52.441406 1.058594 "/>
<path style=" stroke:none;fill-rule:nonzero;fill:rgb(99.215686%,95.686275%,96.078432%);fill-opacity:1;" d="M 10.957031 51.464844 C 25.621094 51.464844 25.621094 51.464844 27.601562 53.308594 C 29.152344 54.972656 29.613281 56.621094 29.613281 58.871094 C 29.613281 59.199219 29.621094 59.53125 29.625 59.859375 C 29.628906 61.429688 29.449219 62.84375 28.609375 64.195312 C 28.339844 64.566406 28.339844 64.566406 28.480469 64.964844 C 28.5625 65.109375 28.640625 65.257812 28.71875 65.410156 C 28.835938 65.632812 28.949219 65.851562 29.0625 66.074219 C 29.121094 66.179688 29.175781 66.285156 29.234375 66.394531 C 29.710938 67.488281 29.59375 68.738281 29.601562 69.902344 C 29.609375 70.214844 29.609375 70.214844 29.617188 70.535156 C 29.628906 72.507812 29.261719 74.230469 27.890625 75.703125 C 27.785156 75.816406 27.679688 75.933594 27.570312 76.050781 C 23.613281 79.941406 14.511719 78.027344 10.957031 78.027344 C 10.957031 69.261719 10.957031 60.496094 10.957031 51.464844 Z M 10.957031 51.464844 "/>
<path style=" stroke:none;fill-rule:nonzero;fill:rgb(100%,95.294118%,95.294118%);fill-opacity:1;" d="M 19.742188 7.078125 C 20.105469 7.078125 20.46875 7.070312 20.828125 7.0625 C 23.421875 7.042969 25.433594 7.707031 27.339844 9.503906 C 29.117188 11.347656 29.578125 13.289062 29.570312 15.78125 C 29.570312 15.945312 29.570312 16.109375 29.570312 16.277344 C 29.570312 16.816406 29.566406 17.355469 29.566406 17.894531 C 29.566406 18.265625 29.566406 18.640625 29.566406 19.015625 C 29.566406 20 29.5625 20.980469 29.5625 21.964844 C 29.558594 22.96875 29.558594 23.972656 29.558594 24.976562 C 29.558594 26.941406 29.554688 28.910156 29.550781 30.878906 C 27.796875 30.878906 26.042969 30.878906 24.238281 30.878906 C 24.238281 29.015625 24.238281 27.152344 24.238281 25.234375 C 21.609375 25.234375 18.980469 25.234375 16.269531 25.234375 C 16.269531 27.097656 16.269531 28.960938 16.269531 30.878906 C 14.515625 30.878906 12.761719 30.878906 10.957031 30.878906 C 10.945312 28.699219 10.9375 26.519531 10.929688 24.339844 C 10.929688 23.328125 10.925781 22.316406 10.917969 21.304688 C 10.914062 20.328125 10.910156 19.351562 10.910156 18.375 C 10.910156 18 10.90625 17.628906 10.90625 17.257812 C 10.902344 16.734375 10.898438 16.210938 10.902344 15.6875 C 10.898438 15.535156 10.898438 15.382812 10.894531 15.226562 C 10.90625 12.90625 11.875 10.902344 13.453125 9.234375 C 15.3125 7.585938 17.300781 7.078125 19.742188 7.078125 Z M 19.742188 7.078125 "/>
<path style=" stroke:none;fill-rule:nonzero;fill:rgb(99.607843%,95.686275%,94.901961%);fill-opacity:1;" d="M 67.132812 6.929688 C 67.546875 6.933594 67.960938 6.9375 68.371094 6.941406 C 69.378906 6.945312 70.382812 6.960938 71.386719 6.972656 C 71.386719 8.78125 71.386719 10.589844 71.386719 12.453125 C 70.761719 12.457031 70.140625 12.460938 69.496094 12.464844 C 68.890625 12.46875 68.289062 12.476562 67.683594 12.484375 C 67.261719 12.492188 66.84375 12.492188 66.421875 12.496094 C 65.816406 12.5 65.214844 12.507812 64.609375 12.515625 C 64.328125 12.515625 64.328125 12.515625 64.042969 12.515625 C 63.039062 12.535156 62.355469 12.5625 61.59375 13.28125 C 61.007812 14.027344 60.84375 14.507812 60.84375 15.453125 C 60.839844 15.5625 60.839844 15.675781 60.839844 15.792969 C 60.835938 16.164062 60.835938 16.535156 60.839844 16.90625 C 60.839844 17.167969 60.839844 17.425781 60.835938 17.683594 C 60.835938 18.230469 60.839844 18.773438 60.839844 19.316406 C 60.84375 20.007812 60.84375 20.703125 60.839844 21.394531 C 60.835938 21.933594 60.835938 22.46875 60.839844 23.003906 C 60.839844 23.261719 60.839844 23.515625 60.835938 23.773438 C 60.769531 25.707031 60.769531 25.707031 61.59375 27.390625 C 62.566406 28.195312 63.53125 28.15625 64.753906 28.15625 C 64.945312 28.160156 65.136719 28.164062 65.332031 28.167969 C 65.933594 28.175781 66.539062 28.175781 67.144531 28.179688 C 67.554688 28.1875 67.964844 28.191406 68.375 28.195312 C 69.378906 28.207031 70.382812 28.214844 71.386719 28.222656 C 71.386719 29.976562 71.386719 31.730469 71.386719 33.535156 C 70.117188 33.546875 68.847656 33.554688 67.578125 33.5625 C 67.144531 33.566406 66.714844 33.570312 66.28125 33.574219 C 65.660156 33.578125 65.039062 33.582031 64.414062 33.582031 C 64.128906 33.585938 64.128906 33.585938 63.835938 33.589844 C 62.671875 33.59375 61.6875 33.445312 60.59375 33.039062 C 60.445312 32.980469 60.292969 32.921875 60.132812 32.867188 C 58.117188 31.90625 56.59375 30.304688 55.816406 28.203125 C 55.359375 26.746094 55.375 25.304688 55.378906 23.792969 C 55.375 23.511719 55.375 23.226562 55.375 22.945312 C 55.375 22.355469 55.375 21.765625 55.375 21.175781 C 55.378906 20.425781 55.375 19.675781 55.367188 18.925781 C 55.367188 18.34375 55.367188 17.761719 55.367188 17.179688 C 55.367188 16.902344 55.367188 16.625 55.363281 16.351562 C 55.34375 13.503906 55.917969 11.382812 57.910156 9.253906 C 60.554688 6.746094 63.710938 6.882812 67.132812 6.929688 Z M 67.132812 6.929688 "/>
<path style=" stroke:none;fill-rule:nonzero;fill:rgb(99.607843%,95.686275%,95.294118%);fill-opacity:1;" d="M 75.039062 54.617188 C 75.75 54.640625 76.109375 55.148438 76.574219 55.636719 C 77.226562 56.3125 77.890625 56.9375 78.632812 57.519531 C 78.859375 57.773438 78.859375 57.773438 78.859375 58.4375 C 78.644531 58.738281 78.644531 58.738281 78.347656 59.042969 C 78.238281 59.15625 78.128906 59.273438 78.015625 59.390625 C 77.894531 59.511719 77.777344 59.632812 77.652344 59.753906 C 77.40625 60.011719 77.160156 60.265625 76.914062 60.519531 C 76.792969 60.648438 76.671875 60.773438 76.546875 60.902344 C 76.085938 61.382812 75.632812 61.867188 75.183594 62.359375 C 74.476562 63.128906 73.761719 63.898438 73.046875 64.664062 C 72.324219 65.433594 71.605469 66.210938 70.890625 66.988281 C 70.074219 67.871094 69.253906 68.75 68.433594 69.628906 C 67.8125 70.296875 67.191406 70.964844 66.570312 71.636719 C 66.328125 71.898438 66.085938 72.164062 65.839844 72.425781 C 65.652344 72.632812 65.464844 72.835938 65.273438 73.042969 C 64.960938 73.382812 64.644531 73.722656 64.332031 74.0625 C 64.234375 74.171875 64.136719 74.277344 64.035156 74.386719 C 63.582031 74.875 63.144531 75.328125 62.585938 75.703125 C 62.507812 75.621094 62.425781 75.539062 62.34375 75.453125 C 61.792969 74.894531 61.238281 74.34375 60.636719 73.835938 C 60.039062 73.324219 59.488281 72.777344 58.9375 72.21875 C 58.398438 71.671875 57.859375 71.136719 57.273438 70.640625 C 56.597656 70.0625 55.980469 69.429688 55.355469 68.796875 C 54.800781 68.242188 54.234375 67.71875 53.636719 67.214844 C 53.019531 66.660156 52.445312 66.0625 51.867188 65.46875 C 51.472656 65.058594 51.472656 65.058594 50.96875 64.746094 C 51.1875 64.246094 51.429688 63.917969 51.828125 63.542969 C 52.367188 63.019531 52.859375 62.46875 53.351562 61.902344 C 53.703125 61.503906 54.070312 61.132812 54.453125 60.761719 C 55.175781 61.035156 55.628906 61.578125 56.15625 62.121094 C 56.835938 62.816406 57.523438 63.484375 58.269531 64.113281 C 58.703125 64.5 59.109375 64.914062 59.515625 65.328125 C 60.152344 65.96875 60.796875 66.582031 61.484375 67.164062 C 61.753906 67.398438 62.003906 67.644531 62.257812 67.898438 C 62.867188 67.644531 63.257812 67.273438 63.71875 66.800781 C 63.851562 66.664062 63.988281 66.527344 64.125 66.390625 C 64.472656 66.023438 64.804688 65.652344 65.136719 65.273438 C 65.746094 64.570312 66.378906 63.894531 67.019531 63.222656 C 67.820312 62.371094 68.625 61.519531 69.414062 60.65625 C 70.222656 59.78125 71.03125 58.910156 71.84375 58.042969 C 72.597656 57.238281 73.34375 56.429688 74.085938 55.621094 C 74.398438 55.28125 74.714844 54.945312 75.039062 54.617188 Z M 75.039062 54.617188 "/>
<path style=" stroke:none;fill-rule:nonzero;fill:rgb(100%,39.607844%,10.980392%);fill-opacity:1;" d="M 20.171875 12.378906 C 20.449219 12.375 20.449219 12.375 20.730469 12.375 C 21.828125 12.382812 22.679688 12.421875 23.515625 13.203125 C 24.160156 14.046875 24.261719 14.503906 24.253906 15.542969 C 24.253906 15.65625 24.253906 15.765625 24.253906 15.878906 C 24.253906 16.292969 24.25 16.707031 24.25 17.121094 C 24.246094 18.042969 24.242188 18.96875 24.238281 19.921875 C 21.609375 19.921875 18.980469 19.921875 16.269531 19.921875 C 16.253906 19.046875 16.234375 18.167969 16.21875 17.265625 C 16.210938 16.992188 16.203125 16.71875 16.195312 16.4375 C 16.160156 14.222656 16.160156 14.222656 16.859375 13.355469 C 17.886719 12.328125 18.777344 12.355469 20.171875 12.378906 Z M 20.171875 12.378906 "/>
<path style=" stroke:none;fill-rule:nonzero;fill:rgb(42.352942%,66.666669%,99.607843%);fill-opacity:1;" d="M 16.269531 56.777344 C 17.25 56.769531 18.230469 56.761719 19.210938 56.757812 C 19.546875 56.757812 19.878906 56.753906 20.214844 56.753906 C 20.691406 56.75 21.171875 56.746094 21.652344 56.746094 C 21.800781 56.742188 21.949219 56.742188 22.105469 56.738281 C 22.242188 56.738281 22.382812 56.738281 22.527344 56.738281 C 22.648438 56.738281 22.773438 56.738281 22.898438 56.738281 C 23.304688 56.785156 23.5625 56.890625 23.90625 57.109375 C 24.386719 57.832031 24.300781 58.480469 24.300781 59.328125 C 24.304688 59.488281 24.308594 59.644531 24.3125 59.804688 C 24.316406 60.539062 24.3125 60.972656 23.921875 61.609375 C 23.445312 62.042969 23.195312 62.109375 22.5625 62.109375 C 22.355469 62.109375 22.355469 62.109375 22.140625 62.109375 C 21.914062 62.105469 21.914062 62.105469 21.683594 62.105469 C 21.53125 62.105469 21.375 62.105469 21.21875 62.105469 C 20.722656 62.105469 20.230469 62.101562 19.734375 62.101562 C 19.402344 62.097656 19.066406 62.097656 18.730469 62.097656 C 17.910156 62.097656 17.089844 62.09375 16.269531 62.089844 C 16.269531 60.335938 16.269531 58.582031 16.269531 56.777344 Z M 16.269531 56.777344 "/>
<path style=" stroke:none;fill-rule:nonzero;fill:rgb(41.960785%,66.274512%,99.607843%);fill-opacity:1;" d="M 16.269531 67.402344 C 17.269531 67.382812 18.273438 67.367188 19.273438 67.355469 C 19.613281 67.351562 19.953125 67.347656 20.296875 67.339844 C 20.785156 67.328125 21.277344 67.324219 21.765625 67.320312 C 21.917969 67.316406 22.070312 67.3125 22.226562 67.308594 C 22.964844 67.308594 23.304688 67.328125 23.917969 67.773438 C 24.253906 68.253906 24.34375 68.46875 24.347656 69.046875 C 24.351562 69.273438 24.351562 69.273438 24.351562 69.503906 C 24.347656 69.660156 24.34375 69.816406 24.34375 69.976562 C 24.34375 70.132812 24.347656 70.285156 24.351562 70.445312 C 24.351562 70.597656 24.351562 70.75 24.347656 70.902344 C 24.347656 71.109375 24.347656 71.109375 24.34375 71.316406 C 24.179688 71.941406 23.929688 72.171875 23.40625 72.546875 C 22.859375 72.660156 22.324219 72.644531 21.765625 72.628906 C 21.609375 72.628906 21.449219 72.628906 21.289062 72.625 C 20.789062 72.621094 20.289062 72.609375 19.785156 72.601562 C 19.445312 72.597656 19.105469 72.59375 18.765625 72.589844 C 17.933594 72.582031 17.101562 72.566406 16.269531 72.546875 C 16.269531 70.851562 16.269531 69.152344 16.269531 67.402344 Z M 16.269531 67.402344 "/>
</g>
</svg>
