<?xml version="1.0" encoding="UTF-8"?>
<svg xmlns="http://www.w3.org/2000/svg" xmlns:xlink="http://www.w3.org/1999/xlink" width="98px" height="85px" viewBox="0 0 85 85" version="1.1">
<g id="surface1">
<path style=" stroke:none;fill-rule:nonzero;fill:rgb(94.509804%,94.509804%,94.509804%);fill-opacity:1;" d="M 47.5625 1.734375 C 48.832031 2.460938 49.671875 3.507812 50.0625 4.921875 C 50.289062 6.140625 50.164062 7.125 49.785156 8.300781 C 49.375 9.625 49.457031 10.605469 50.085938 11.839844 C 51.253906 13.199219 52.347656 13.726562 54.121094 13.945312 C 54.597656 13.96875 55.074219 13.976562 55.550781 13.980469 C 55.820312 13.984375 56.09375 13.988281 56.367188 13.996094 C 56.789062 14 57.214844 14.007812 57.640625 14.011719 C 58.054688 14.015625 58.464844 14.023438 58.878906 14.03125 C 59.007812 14.03125 59.132812 14.035156 59.261719 14.035156 C 60.015625 14.050781 60.503906 14.136719 61.09375 14.609375 C 61.179688 14.753906 61.269531 14.898438 61.359375 15.050781 C 61.917969 15.597656 62.34375 15.535156 63.101562 15.539062 C 63.28125 15.535156 63.460938 15.53125 63.644531 15.527344 C 63.921875 15.527344 63.921875 15.527344 64.207031 15.527344 C 64.996094 15.53125 65.789062 15.523438 66.582031 15.515625 C 67.160156 15.515625 67.738281 15.515625 68.316406 15.515625 C 68.492188 15.515625 68.671875 15.511719 68.855469 15.507812 C 69.023438 15.507812 69.191406 15.507812 69.363281 15.507812 C 69.582031 15.507812 69.582031 15.507812 69.808594 15.503906 C 70.425781 15.652344 70.660156 15.949219 71.054688 16.4375 C 71.136719 16.890625 71.167969 17.242188 71.160156 17.695312 C 71.164062 17.882812 71.164062 17.882812 71.164062 18.074219 C 71.167969 18.496094 71.167969 18.914062 71.164062 19.332031 C 71.164062 19.636719 71.167969 19.9375 71.167969 20.238281 C 71.175781 21.054688 71.171875 21.871094 71.171875 22.6875 C 71.171875 23.542969 71.175781 24.394531 71.179688 25.25 C 71.1875 26.867188 71.1875 28.484375 71.1875 30.101562 C 71.1875 31.941406 71.195312 33.78125 71.199219 35.621094 C 71.210938 39.410156 71.21875 43.195312 71.21875 46.984375 C 71.675781 46.074219 72.128906 45.167969 72.585938 44.261719 C 72.738281 43.953125 72.890625 43.644531 73.046875 43.335938 C 74.351562 40.730469 75.628906 38.117188 76.851562 35.476562 C 76.933594 35.300781 77.015625 35.125 77.101562 34.945312 C 77.257812 34.609375 77.410156 34.277344 77.5625 33.941406 C 78.308594 32.351562 78.308594 32.351562 79.023438 31.875 C 80.21875 31.828125 81.1875 32.378906 82.230469 32.914062 C 82.394531 32.992188 82.558594 33.070312 82.726562 33.152344 C 82.882812 33.230469 83.042969 33.3125 83.203125 33.390625 C 83.414062 33.5 83.414062 33.5 83.632812 33.609375 C 84.105469 33.9375 84.296875 34.15625 84.5 34.695312 C 84.359375 35.617188 84.046875 36.355469 83.621094 37.183594 C 83.566406 37.289062 83.511719 37.394531 83.457031 37.503906 C 83.34375 37.726562 83.230469 37.953125 83.113281 38.175781 C 82.808594 38.773438 82.507812 39.367188 82.207031 39.964844 C 82.144531 40.082031 82.085938 40.203125 82.023438 40.324219 C 81.523438 41.3125 81.042969 42.308594 80.570312 43.308594 C 79.84375 44.839844 79.09375 46.351562 78.332031 47.863281 C 77.664062 49.191406 77.019531 50.53125 76.382812 51.871094 C 75.757812 53.183594 75.109375 54.480469 74.457031 55.777344 C 73.785156 57.117188 73.132812 58.46875 72.492188 59.820312 C 72.421875 59.96875 72.351562 60.117188 72.277344 60.269531 C 72.21875 60.398438 72.160156 60.523438 72.097656 60.65625 C 71.882812 61.09375 71.882812 61.09375 71.722656 61.363281 C 71.171875 62.324219 71.128906 63.148438 71.140625 64.238281 C 71.140625 64.503906 71.140625 64.503906 71.136719 64.777344 C 71.136719 65.160156 71.136719 65.542969 71.140625 65.925781 C 71.144531 66.53125 71.140625 67.136719 71.140625 67.742188 C 71.136719 69.023438 71.136719 70.308594 71.136719 71.59375 C 71.140625 73.085938 71.140625 74.574219 71.132812 76.066406 C 71.132812 76.664062 71.136719 77.261719 71.136719 77.859375 C 71.136719 78.222656 71.136719 78.589844 71.136719 78.953125 C 71.136719 79.121094 71.136719 79.285156 71.140625 79.457031 C 71.140625 79.609375 71.136719 79.761719 71.136719 79.917969 C 71.136719 80.050781 71.136719 80.183594 71.136719 80.320312 C 71.011719 80.871094 70.867188 81.035156 70.390625 81.347656 C 69.796875 81.445312 69.210938 81.429688 68.609375 81.417969 C 68.425781 81.417969 68.242188 81.417969 68.054688 81.417969 C 67.4375 81.417969 66.820312 81.410156 66.203125 81.402344 C 65.761719 81.402344 65.320312 81.398438 64.878906 81.398438 C 63.925781 81.394531 62.972656 81.390625 62.019531 81.382812 C 60.503906 81.371094 58.992188 81.367188 57.480469 81.367188 C 56.964844 81.363281 56.445312 81.363281 55.925781 81.363281 C 55.796875 81.363281 55.667969 81.363281 55.535156 81.363281 C 54.058594 81.359375 52.582031 81.355469 51.109375 81.351562 C 50.972656 81.351562 50.839844 81.347656 50.699219 81.347656 C 48.527344 81.339844 46.351562 81.328125 44.175781 81.3125 C 41.9375 81.296875 39.699219 81.292969 37.460938 81.292969 C 36.207031 81.292969 34.953125 81.289062 33.699219 81.273438 C 26.613281 81.023438 26.613281 81.023438 20.121094 83.496094 C 19.757812 83.671875 19.757812 83.671875 19.394531 83.648438 C 18.859375 83.394531 18.722656 82.820312 18.507812 82.300781 C 18.453125 82.175781 18.402344 82.050781 18.34375 81.921875 C 18.167969 81.5 17.992188 81.082031 17.816406 80.664062 C 17.691406 80.367188 17.5625 80.074219 17.4375 79.777344 C 17.175781 79.164062 16.914062 78.550781 16.65625 77.9375 C 16.132812 76.707031 15.597656 75.484375 15.0625 74.257812 C 14.769531 73.589844 14.476562 72.921875 14.1875 72.253906 C 14.125 72.117188 14.066406 71.980469 14.007812 71.839844 C 13.195312 69.976562 12.382812 68.113281 11.574219 66.25 C 10.621094 64.058594 9.671875 61.871094 8.714844 59.683594 C 7.550781 57.011719 6.386719 54.335938 5.226562 51.664062 C 4.542969 50.089844 3.855469 48.515625 3.167969 46.945312 C 3.039062 46.644531 2.910156 46.347656 2.78125 46.050781 C 2.484375 45.371094 2.1875 44.691406 1.886719 44.011719 C 1.78125 43.769531 1.679688 43.527344 1.578125 43.285156 C 1.371094 42.796875 1.171875 42.347656 0.894531 41.898438 C 0.585938 41.367188 0.429688 40.976562 0.570312 40.363281 C 0.878906 39.398438 1.328125 38.492188 1.765625 37.582031 C 1.902344 37.28125 2.039062 36.984375 2.175781 36.683594 C 2.460938 36.058594 2.753906 35.4375 3.042969 34.816406 C 3.480469 33.878906 3.90625 32.9375 4.328125 31.996094 C 4.398438 31.84375 4.464844 31.695312 4.535156 31.539062 C 4.667969 31.242188 4.800781 30.945312 4.929688 30.648438 C 5.292969 29.84375 5.65625 29.039062 6.019531 28.234375 C 6.070312 28.125 6.121094 28.011719 6.171875 27.898438 C 6.222656 27.789062 6.269531 27.679688 6.324219 27.570312 C 6.433594 27.324219 6.535156 27.074219 6.636719 26.824219 C 6.691406 26.691406 6.746094 26.558594 6.800781 26.421875 C 6.851562 26.300781 6.898438 26.179688 6.949219 26.054688 C 7.332031 25.410156 8.023438 25.207031 8.695312 24.945312 C 8.933594 24.84375 8.933594 24.84375 9.175781 24.742188 C 9.523438 24.59375 9.871094 24.449219 10.222656 24.308594 C 10.824219 24.058594 11.421875 23.800781 12.015625 23.539062 C 12.230469 23.449219 12.441406 23.355469 12.652344 23.261719 C 12.808594 23.191406 12.808594 23.191406 12.972656 23.121094 C 15.0625 22.210938 17.160156 21.316406 19.257812 20.421875 C 19.257812 20.296875 19.257812 20.175781 19.261719 20.050781 C 19.265625 19.496094 19.277344 18.941406 19.289062 18.386719 C 19.289062 18.097656 19.289062 18.097656 19.292969 17.804688 C 19.296875 17.617188 19.300781 17.433594 19.304688 17.242188 C 19.308594 17.070312 19.3125 16.902344 19.3125 16.726562 C 19.421875 16.269531 19.421875 16.269531 19.726562 15.878906 C 20.523438 15.464844 21.265625 15.527344 22.152344 15.546875 C 22.53125 15.546875 22.910156 15.546875 23.289062 15.542969 C 23.882812 15.546875 24.476562 15.554688 25.074219 15.5625 C 25.648438 15.566406 26.226562 15.566406 26.800781 15.566406 C 26.976562 15.570312 27.15625 15.574219 27.339844 15.578125 C 28.257812 15.589844 28.257812 15.589844 29.042969 15.179688 C 29.308594 14.871094 29.308594 14.871094 29.519531 14.542969 C 29.71875 14.277344 29.71875 14.277344 30.214844 14.109375 C 30.488281 14.09375 30.765625 14.085938 31.039062 14.082031 C 31.203125 14.078125 31.367188 14.074219 31.535156 14.070312 C 31.875 14.0625 32.214844 14.058594 32.554688 14.054688 C 33.601562 14.023438 34.402344 13.859375 35.351562 13.40625 C 35.695312 13.28125 35.695312 13.28125 36.191406 13.445312 C 36.191406 13.613281 36.191406 13.777344 36.191406 13.945312 C 37.902344 13.730469 39.191406 13.28125 40.308594 11.925781 C 40.953125 10.933594 40.9375 9.945312 40.839844 8.796875 C 40.734375 8.371094 40.734375 8.371094 40.589844 7.96875 C 40.125 6.578125 40.175781 5.207031 40.785156 3.871094 C 42.167969 1.449219 45.011719 0.566406 47.5625 1.734375 Z M 47.5625 1.734375 "/>
<path style=" stroke:none;fill-rule:nonzero;fill:rgb(80.000001%,80.000001%,80.000001%);fill-opacity:1;" d="M 47.5625 1.734375 C 48.832031 2.460938 49.671875 3.507812 50.0625 4.921875 C 50.289062 6.140625 50.164062 7.125 49.785156 8.300781 C 49.375 9.625 49.457031 10.605469 50.085938 11.839844 C 51.253906 13.199219 52.347656 13.726562 54.121094 13.945312 C 54.597656 13.96875 55.074219 13.976562 55.550781 13.980469 C 55.820312 13.984375 56.09375 13.988281 56.367188 13.996094 C 56.789062 14 57.214844 14.007812 57.640625 14.011719 C 58.054688 14.015625 58.464844 14.023438 58.878906 14.03125 C 59.007812 14.03125 59.132812 14.035156 59.261719 14.035156 C 60.015625 14.050781 60.503906 14.136719 61.09375 14.609375 C 61.179688 14.753906 61.269531 14.898438 61.359375 15.050781 C 61.917969 15.597656 62.34375 15.535156 63.101562 15.539062 C 63.28125 15.535156 63.460938 15.53125 63.644531 15.527344 C 63.921875 15.527344 63.921875 15.527344 64.207031 15.527344 C 64.996094 15.53125 65.789062 15.523438 66.582031 15.515625 C 67.160156 15.515625 67.738281 15.515625 68.316406 15.515625 C 68.492188 15.515625 68.671875 15.511719 68.855469 15.507812 C 69.023438 15.507812 69.191406 15.507812 69.363281 15.507812 C 69.582031 15.507812 69.582031 15.507812 69.808594 15.503906 C 70.425781 15.652344 70.660156 15.949219 71.054688 16.4375 C 71.136719 16.890625 71.167969 17.242188 71.160156 17.695312 C 71.164062 17.882812 71.164062 17.882812 71.164062 18.074219 C 71.167969 18.496094 71.167969 18.914062 71.164062 19.332031 C 71.164062 19.636719 71.167969 19.9375 71.167969 20.238281 C 71.175781 21.054688 71.171875 21.871094 71.171875 22.6875 C 71.171875 23.542969 71.175781 24.394531 71.179688 25.25 C 71.1875 26.867188 71.1875 28.484375 71.1875 30.101562 C 71.1875 31.941406 71.195312 33.78125 71.199219 35.621094 C 71.210938 39.410156 71.21875 43.195312 71.21875 46.984375 C 71.675781 46.074219 72.128906 45.167969 72.585938 44.261719 C 72.738281 43.953125 72.890625 43.644531 73.046875 43.335938 C 74.351562 40.730469 75.628906 38.117188 76.851562 35.476562 C 76.933594 35.300781 77.015625 35.125 77.101562 34.945312 C 77.257812 34.609375 77.410156 34.277344 77.5625 33.941406 C 78.308594 32.351562 78.308594 32.351562 79.023438 31.875 C 80.21875 31.828125 81.1875 32.378906 82.230469 32.914062 C 82.394531 32.992188 82.558594 33.070312 82.726562 33.152344 C 82.882812 33.230469 83.042969 33.3125 83.203125 33.390625 C 83.414062 33.5 83.414062 33.5 83.632812 33.609375 C 84.105469 33.9375 84.296875 34.15625 84.5 34.695312 C 84.359375 35.617188 84.046875 36.355469 83.621094 37.183594 C 83.566406 37.289062 83.511719 37.394531 83.457031 37.503906 C 83.34375 37.726562 83.230469 37.953125 83.113281 38.175781 C 82.808594 38.773438 82.507812 39.367188 82.207031 39.964844 C 82.144531 40.082031 82.085938 40.203125 82.023438 40.324219 C 81.523438 41.3125 81.042969 42.308594 80.570312 43.308594 C 79.84375 44.839844 79.09375 46.351562 78.332031 47.863281 C 77.664062 49.191406 77.019531 50.53125 76.382812 51.871094 C 75.757812 53.183594 75.109375 54.480469 74.457031 55.777344 C 73.785156 57.117188 73.132812 58.46875 72.492188 59.820312 C 72.421875 59.96875 72.351562 60.117188 72.277344 60.269531 C 72.21875 60.398438 72.160156 60.523438 72.097656 60.65625 C 71.882812 61.09375 71.882812 61.09375 71.722656 61.363281 C 71.171875 62.324219 71.128906 63.148438 71.140625 64.238281 C 71.140625 64.503906 71.140625 64.503906 71.136719 64.777344 C 71.136719 65.160156 71.136719 65.542969 71.140625 65.925781 C 71.144531 66.53125 71.140625 67.136719 71.140625 67.742188 C 71.136719 69.023438 71.136719 70.308594 71.136719 71.59375 C 71.140625 73.085938 71.140625 74.574219 71.132812 76.066406 C 71.132812 76.664062 71.136719 77.261719 71.136719 77.859375 C 71.136719 78.222656 71.136719 78.589844 71.136719 78.953125 C 71.136719 79.121094 71.136719 79.285156 71.140625 79.457031 C 71.140625 79.609375 71.136719 79.761719 71.136719 79.917969 C 71.136719 80.050781 71.136719 80.183594 71.136719 80.320312 C 71.011719 80.871094 70.867188 81.035156 70.390625 81.347656 C 69.796875 81.445312 69.210938 81.429688 68.609375 81.417969 C 68.425781 81.417969 68.242188 81.417969 68.054688 81.417969 C 67.4375 81.417969 66.820312 81.410156 66.203125 81.402344 C 65.761719 81.402344 65.320312 81.398438 64.878906 81.398438 C 63.925781 81.394531 62.972656 81.390625 62.019531 81.382812 C 60.503906 81.371094 58.992188 81.367188 57.480469 81.367188 C 56.964844 81.363281 56.445312 81.363281 55.925781 81.363281 C 55.796875 81.363281 55.667969 81.363281 55.535156 81.363281 C 54.058594 81.359375 52.582031 81.355469 51.109375 81.351562 C 50.972656 81.351562 50.839844 81.347656 50.699219 81.347656 C 48.527344 81.339844 46.351562 81.328125 44.175781 81.3125 C 41.9375 81.296875 39.699219 81.292969 37.460938 81.292969 C 36.207031 81.292969 34.953125 81.289062 33.699219 81.273438 C 26.613281 81.023438 26.613281 81.023438 20.121094 83.496094 C 19.757812 83.671875 19.757812 83.671875 19.394531 83.648438 C 18.859375 83.394531 18.722656 82.820312 18.507812 82.300781 C 18.453125 82.175781 18.402344 82.050781 18.34375 81.921875 C 18.167969 81.5 17.992188 81.082031 17.816406 80.664062 C 17.691406 80.367188 17.5625 80.074219 17.4375 79.777344 C 17.175781 79.164062 16.914062 78.550781 16.65625 77.9375 C 16.132812 76.707031 15.597656 75.484375 15.0625 74.257812 C 14.769531 73.589844 14.476562 72.921875 14.1875 72.253906 C 14.125 72.117188 14.066406 71.980469 14.007812 71.839844 C 13.195312 69.976562 12.382812 68.113281 11.574219 66.25 C 10.621094 64.058594 9.671875 61.871094 8.714844 59.683594 C 7.550781 57.011719 6.386719 54.335938 5.226562 51.664062 C 4.542969 50.089844 3.855469 48.515625 3.167969 46.945312 C 3.039062 46.644531 2.910156 46.347656 2.78125 46.050781 C 2.484375 45.371094 2.1875 44.691406 1.886719 44.011719 C 1.78125 43.769531 1.679688 43.527344 1.578125 43.285156 C 1.371094 42.796875 1.171875 42.347656 0.894531 41.898438 C 0.585938 41.367188 0.429688 40.976562 0.570312 40.363281 C 0.878906 39.398438 1.328125 38.492188 1.765625 37.582031 C 1.902344 37.28125 2.039062 36.984375 2.175781 36.683594 C 2.460938 36.058594 2.753906 35.4375 3.042969 34.816406 C 3.480469 33.878906 3.90625 32.9375 4.328125 31.996094 C 4.398438 31.84375 4.464844 31.695312 4.535156 31.539062 C 4.667969 31.242188 4.800781 30.945312 4.929688 30.648438 C 5.292969 29.84375 5.65625 29.039062 6.019531 28.234375 C 6.070312 28.125 6.121094 28.011719 6.171875 27.898438 C 6.222656 27.789062 6.269531 27.679688 6.324219 27.570312 C 6.433594 27.324219 6.535156 27.074219 6.636719 26.824219 C 6.691406 26.691406 6.746094 26.558594 6.800781 26.421875 C 6.851562 26.300781 6.898438 26.179688 6.949219 26.054688 C 7.332031 25.410156 8.023438 25.207031 8.695312 24.945312 C 8.933594 24.84375 8.933594 24.84375 9.175781 24.742188 C 9.523438 24.59375 9.871094 24.449219 10.222656 24.308594 C 10.824219 24.058594 11.421875 23.800781 12.015625 23.539062 C 12.230469 23.449219 12.441406 23.355469 12.652344 23.261719 C 12.808594 23.191406 12.808594 23.191406 12.972656 23.121094 C 15.0625 22.210938 17.160156 21.316406 19.257812 20.421875 C 19.257812 20.296875 19.257812 20.175781 19.261719 20.050781 C 19.265625 19.496094 19.277344 18.941406 19.289062 18.386719 C 19.289062 18.097656 19.289062 18.097656 19.292969 17.804688 C 19.296875 17.617188 19.300781 17.433594 19.304688 17.242188 C 19.308594 17.070312 19.3125 16.902344 19.3125 16.726562 C 19.421875 16.269531 19.421875 16.269531 19.726562 15.878906 C 20.523438 15.464844 21.265625 15.527344 22.152344 15.546875 C 22.53125 15.546875 22.910156 15.546875 23.289062 15.542969 C 23.882812 15.546875 24.476562 15.554688 25.074219 15.5625 C 25.648438 15.566406 26.226562 15.566406 26.800781 15.566406 C 26.976562 15.570312 27.15625 15.574219 27.339844 15.578125 C 28.257812 15.589844 28.257812 15.589844 29.042969 15.179688 C 29.308594 14.871094 29.308594 14.871094 29.519531 14.542969 C 29.71875 14.277344 29.71875 14.277344 30.214844 14.109375 C 30.488281 14.09375 30.765625 14.085938 31.039062 14.082031 C 31.203125 14.078125 31.367188 14.074219 31.535156 14.070312 C 31.875 14.0625 32.214844 14.058594 32.554688 14.054688 C 33.601562 14.023438 34.402344 13.859375 35.351562 13.40625 C 35.695312 13.28125 35.695312 13.28125 36.191406 13.445312 C 36.191406 13.613281 36.191406 13.777344 36.191406 13.945312 C 37.902344 13.730469 39.191406 13.28125 40.308594 11.925781 C 40.953125 10.933594 40.9375 9.945312 40.839844 8.796875 C 40.734375 8.371094 40.734375 8.371094 40.589844 7.96875 C 40.125 6.578125 40.175781 5.207031 40.785156 3.871094 C 42.167969 1.449219 45.011719 0.566406 47.5625 1.734375 Z M 23.574219 19.589844 C 23.574219 38.710938 23.574219 57.828125 23.574219 77.53125 C 35.515625 77.53125 47.460938 77.53125 59.765625 77.53125 C 59.875 75.117188 59.984375 72.707031 60.097656 70.226562 C 61.566406 67.289062 61.566406 67.289062 62.109375 66.207031 C 64.035156 62.386719 64.035156 62.386719 65.867188 58.519531 C 66.074219 58.105469 66.074219 58.105469 66.289062 57.789062 C 67.230469 56.3125 67.015625 54.558594 67 52.875 C 67 52.511719 67 52.148438 67 51.785156 C 67 50.800781 66.996094 49.816406 66.988281 48.835938 C 66.984375 47.804688 66.984375 46.777344 66.980469 45.75 C 66.980469 43.804688 66.972656 41.855469 66.964844 39.910156 C 66.953125 37.695312 66.949219 35.480469 66.945312 33.261719 C 66.9375 28.703125 66.921875 24.148438 66.90625 19.589844 C 65.644531 19.589844 64.382812 19.589844 63.085938 19.589844 C 63.289062 20.679688 63.289062 20.679688 63.585938 21.75 C 51.476562 21.75 39.367188 21.75 26.894531 21.75 C 27.058594 21.199219 27.222656 20.652344 27.390625 20.085938 C 27.390625 19.921875 27.390625 19.757812 27.390625 19.589844 C 26.132812 19.589844 24.871094 19.589844 23.574219 19.589844 Z M 23.574219 19.589844 "/>
<path style=" stroke:none;fill-rule:nonzero;fill:rgb(19.607843%,67.058825%,49.019608%);fill-opacity:1;" d="M 47.5625 1.734375 C 48.832031 2.460938 49.671875 3.507812 50.0625 4.921875 C 50.289062 6.140625 50.164062 7.125 49.785156 8.300781 C 49.375 9.625 49.457031 10.605469 50.085938 11.839844 C 51.253906 13.199219 52.347656 13.726562 54.121094 13.945312 C 54.597656 13.96875 55.074219 13.976562 55.550781 13.980469 C 55.820312 13.984375 56.09375 13.988281 56.367188 13.996094 C 56.789062 14 57.214844 14.007812 57.640625 14.011719 C 58.054688 14.015625 58.464844 14.023438 58.878906 14.03125 C 59.007812 14.03125 59.132812 14.035156 59.261719 14.035156 C 60.015625 14.050781 60.503906 14.136719 61.09375 14.609375 C 61.179688 14.753906 61.269531 14.898438 61.359375 15.050781 C 61.917969 15.597656 62.34375 15.535156 63.101562 15.539062 C 63.28125 15.535156 63.460938 15.53125 63.644531 15.527344 C 63.921875 15.527344 63.921875 15.527344 64.207031 15.527344 C 64.996094 15.53125 65.789062 15.523438 66.582031 15.515625 C 67.160156 15.515625 67.738281 15.515625 68.316406 15.515625 C 68.492188 15.515625 68.671875 15.511719 68.855469 15.507812 C 69.023438 15.507812 69.191406 15.507812 69.363281 15.507812 C 69.582031 15.507812 69.582031 15.507812 69.808594 15.503906 C 70.425781 15.652344 70.660156 15.949219 71.054688 16.4375 C 71.136719 16.890625 71.167969 17.242188 71.160156 17.695312 C 71.164062 17.882812 71.164062 17.882812 71.164062 18.074219 C 71.167969 18.496094 71.167969 18.914062 71.164062 19.332031 C 71.164062 19.636719 71.167969 19.9375 71.167969 20.238281 C 71.175781 21.054688 71.171875 21.871094 71.171875 22.6875 C 71.171875 23.542969 71.175781 24.394531 71.179688 25.25 C 71.1875 26.867188 71.1875 28.484375 71.1875 30.101562 C 71.1875 31.941406 71.195312 33.78125 71.199219 35.621094 C 71.210938 39.410156 71.21875 43.195312 71.21875 46.984375 C 71.675781 46.074219 72.128906 45.167969 72.585938 44.261719 C 72.738281 43.953125 72.890625 43.644531 73.046875 43.335938 C 74.351562 40.730469 75.628906 38.117188 76.851562 35.476562 C 76.933594 35.300781 77.015625 35.125 77.101562 34.945312 C 77.257812 34.609375 77.410156 34.277344 77.5625 33.941406 C 78.308594 32.351562 78.308594 32.351562 79.023438 31.875 C 80.21875 31.828125 81.1875 32.378906 82.230469 32.914062 C 82.394531 32.992188 82.558594 33.070312 82.726562 33.152344 C 82.882812 33.230469 83.042969 33.3125 83.203125 33.390625 C 83.414062 33.5 83.414062 33.5 83.632812 33.609375 C 84.105469 33.9375 84.296875 34.15625 84.5 34.695312 C 84.359375 35.617188 84.046875 36.355469 83.621094 37.183594 C 83.566406 37.289062 83.511719 37.394531 83.457031 37.503906 C 83.34375 37.726562 83.230469 37.953125 83.113281 38.175781 C 82.808594 38.773438 82.507812 39.367188 82.207031 39.964844 C 82.144531 40.082031 82.085938 40.203125 82.023438 40.324219 C 81.523438 41.3125 81.042969 42.308594 80.570312 43.308594 C 79.84375 44.839844 79.09375 46.351562 78.332031 47.863281 C 77.664062 49.191406 77.019531 50.53125 76.382812 51.871094 C 75.757812 53.1875 75.109375 54.488281 74.453125 55.789062 C 73.902344 56.882812 73.371094 57.984375 72.851562 59.089844 C 72.066406 60.75 71.226562 62.378906 70.378906 64.007812 C 69.628906 65.445312 68.902344 66.894531 68.199219 68.355469 C 68.125 68.507812 68.054688 68.65625 67.980469 68.808594 C 67.628906 69.539062 67.277344 70.273438 66.929688 71.007812 C 66.804688 71.273438 66.675781 71.539062 66.546875 71.808594 C 66.488281 71.929688 66.433594 72.054688 66.375 72.179688 C 66.230469 72.476562 66.070312 72.761719 65.90625 73.046875 C 65.410156 73.210938 65.410156 73.210938 65.042969 73.078125 C 64.90625 73.003906 64.765625 72.933594 64.621094 72.859375 C 64.464844 72.78125 64.308594 72.699219 64.148438 72.617188 C 63.988281 72.535156 63.824219 72.449219 63.65625 72.363281 C 63.5 72.28125 63.339844 72.199219 63.175781 72.117188 C 62.859375 71.953125 62.546875 71.792969 62.230469 71.628906 C 61.523438 71.265625 60.808594 70.910156 60.097656 70.554688 C 60.195312 69.96875 60.351562 69.484375 60.609375 68.949219 C 60.679688 68.800781 60.753906 68.652344 60.828125 68.5 C 60.902344 68.339844 60.980469 68.179688 61.0625 68.015625 C 61.183594 67.761719 61.183594 67.761719 61.308594 67.503906 C 61.972656 66.136719 62.652344 64.777344 63.335938 63.421875 C 64.003906 62.089844 64.648438 60.75 65.289062 59.40625 C 65.355469 59.261719 65.425781 59.113281 65.496094 58.960938 C 65.558594 58.835938 65.617188 58.710938 65.679688 58.582031 C 65.90625 58.105469 65.90625 58.105469 66.109375 57.820312 C 67.054688 56.320312 66.855469 54.578125 66.847656 52.875 C 66.847656 52.511719 66.851562 52.148438 66.851562 51.785156 C 66.859375 50.800781 66.855469 49.816406 66.855469 48.835938 C 66.855469 47.804688 66.859375 46.777344 66.863281 45.75 C 66.871094 43.804688 66.871094 41.855469 66.871094 39.910156 C 66.871094 37.695312 66.878906 35.480469 66.882812 33.261719 C 66.894531 28.703125 66.902344 24.148438 66.90625 19.589844 C 65.644531 19.589844 64.382812 19.589844 63.085938 19.589844 C 63.25 20.136719 63.414062 20.6875 63.585938 21.25 C 63.585938 21.414062 63.585938 21.578125 63.585938 21.75 C 51.476562 21.75 39.367188 21.75 26.894531 21.75 C 27.011719 20.925781 27.128906 20.300781 27.386719 19.53125 C 27.449219 19.339844 27.515625 19.144531 27.582031 18.945312 C 27.648438 18.75 27.71875 18.550781 27.785156 18.34375 C 27.886719 18.046875 27.886719 18.046875 27.988281 17.742188 C 28.941406 14.90625 28.941406 14.90625 29.71875 14.277344 C 30.203125 14.113281 30.53125 14.089844 31.039062 14.082031 C 31.203125 14.078125 31.367188 14.074219 31.535156 14.070312 C 31.875 14.0625 32.214844 14.058594 32.554688 14.054688 C 33.601562 14.023438 34.402344 13.859375 35.351562 13.40625 C 35.695312 13.28125 35.695312 13.28125 36.191406 13.445312 C 36.191406 13.613281 36.191406 13.777344 36.191406 13.945312 C 37.902344 13.730469 39.191406 13.28125 40.308594 11.925781 C 40.953125 10.933594 40.9375 9.945312 40.839844 8.796875 C 40.734375 8.371094 40.734375 8.371094 40.589844 7.96875 C 40.125 6.578125 40.175781 5.207031 40.785156 3.871094 C 42.167969 1.449219 45.011719 0.566406 47.5625 1.734375 Z M 47.5625 1.734375 "/>
<path style=" stroke:none;fill-rule:nonzero;fill:rgb(90.980393%,69.803923%,53.333336%);fill-opacity:1;" d="M 21.125 15.53125 C 21.378906 15.53125 21.378906 15.53125 21.640625 15.53125 C 21.820312 15.535156 22 15.535156 22.1875 15.539062 C 22.375 15.542969 22.5625 15.542969 22.753906 15.542969 C 23.347656 15.546875 23.945312 15.554688 24.539062 15.5625 C 24.941406 15.566406 25.347656 15.570312 25.75 15.574219 C 26.742188 15.582031 27.730469 15.589844 28.71875 15.605469 C 28.671875 15.839844 28.621094 16.074219 28.566406 16.308594 C 28.527344 16.503906 28.527344 16.503906 28.480469 16.703125 C 28.335938 17.320312 28.148438 17.917969 27.953125 18.519531 C 27.824219 18.929688 27.691406 19.335938 27.558594 19.753906 C 26.242188 19.699219 24.929688 19.644531 23.574219 19.589844 C 23.574219 38.710938 23.574219 57.828125 23.574219 77.527344 C 35.515625 77.527344 47.460938 77.527344 59.765625 77.527344 C 59.765625 76.433594 59.765625 75.335938 59.765625 74.207031 C 59.789062 73.476562 59.8125 72.742188 59.847656 72.007812 C 59.855469 71.835938 59.863281 71.660156 59.871094 71.480469 C 59.890625 71.0625 59.910156 70.644531 59.929688 70.222656 C 60.199219 70.402344 60.199219 70.402344 60.472656 70.578125 C 61.351562 71.128906 62.277344 71.566406 63.210938 72.007812 C 63.382812 72.089844 63.550781 72.171875 63.726562 72.257812 C 64.707031 72.734375 64.707031 72.734375 65.742188 73.046875 C 66.761719 71.03125 67.757812 69.007812 68.730469 66.96875 C 69.429688 65.496094 70.152344 64.039062 70.886719 62.585938 C 70.945312 62.585938 71 62.585938 71.054688 62.585938 C 71.070312 64.9375 71.082031 67.285156 71.089844 69.632812 C 71.09375 70.722656 71.097656 71.8125 71.105469 72.902344 C 71.113281 73.953125 71.117188 75.003906 71.117188 76.058594 C 71.117188 76.457031 71.121094 76.859375 71.125 77.261719 C 71.128906 77.824219 71.128906 78.386719 71.128906 78.945312 C 71.132812 79.113281 71.136719 79.28125 71.136719 79.453125 C 71.136719 79.605469 71.136719 79.757812 71.132812 79.917969 C 71.136719 80.050781 71.136719 80.183594 71.136719 80.320312 C 71.023438 80.832031 70.792969 81.015625 70.390625 81.347656 C 69.988281 81.429688 69.988281 81.429688 69.527344 81.433594 C 69.265625 81.433594 69.265625 81.433594 68.996094 81.4375 C 68.707031 81.433594 68.707031 81.433594 68.414062 81.433594 C 68.207031 81.433594 68.003906 81.433594 67.792969 81.4375 C 67.222656 81.4375 66.65625 81.4375 66.085938 81.4375 C 65.472656 81.4375 64.859375 81.4375 64.246094 81.441406 C 63.046875 81.445312 61.847656 81.445312 60.644531 81.441406 C 59.667969 81.441406 58.691406 81.441406 57.714844 81.441406 C 57.578125 81.441406 57.4375 81.441406 57.296875 81.445312 C 57.015625 81.445312 56.730469 81.445312 56.449219 81.445312 C 53.804688 81.445312 51.160156 81.445312 48.511719 81.441406 C 46.089844 81.441406 43.671875 81.441406 41.25 81.449219 C 38.765625 81.453125 36.277344 81.453125 33.792969 81.453125 C 33.511719 81.453125 33.230469 81.453125 32.949219 81.453125 C 32.8125 81.453125 32.675781 81.453125 32.53125 81.453125 C 31.554688 81.453125 30.582031 81.453125 29.605469 81.457031 C 28.417969 81.457031 27.230469 81.457031 26.042969 81.453125 C 25.4375 81.453125 24.828125 81.453125 24.222656 81.457031 C 23.566406 81.457031 22.910156 81.457031 22.253906 81.453125 C 22.058594 81.453125 21.867188 81.457031 21.671875 81.457031 C 21.496094 81.457031 21.320312 81.453125 21.136719 81.453125 C 20.984375 81.453125 20.832031 81.453125 20.675781 81.453125 C 20.054688 81.300781 19.808594 81.019531 19.421875 80.515625 C 19.320312 80.003906 19.320312 80.003906 19.320312 79.414062 C 19.316406 79.304688 19.316406 79.195312 19.316406 79.082031 C 19.3125 78.714844 19.316406 78.351562 19.320312 77.984375 C 19.316406 77.71875 19.316406 77.453125 19.316406 77.1875 C 19.3125 76.457031 19.3125 75.730469 19.316406 75 C 19.316406 74.210938 19.3125 73.425781 19.3125 72.640625 C 19.308594 71.097656 19.308594 69.558594 19.3125 68.019531 C 19.3125 66.765625 19.3125 65.515625 19.3125 64.261719 C 19.3125 64.085938 19.3125 63.90625 19.3125 63.722656 C 19.3125 63.363281 19.3125 63 19.3125 62.636719 C 19.308594 59.246094 19.3125 55.855469 19.316406 52.460938 C 19.320312 49.550781 19.320312 46.636719 19.316406 43.722656 C 19.3125 40.34375 19.308594 36.964844 19.3125 33.582031 C 19.3125 33.222656 19.3125 32.863281 19.3125 32.503906 C 19.3125 32.324219 19.3125 32.148438 19.3125 31.964844 C 19.3125 30.714844 19.3125 29.464844 19.3125 28.210938 C 19.308594 26.6875 19.308594 25.164062 19.3125 23.640625 C 19.316406 22.863281 19.316406 22.085938 19.3125 21.308594 C 19.3125 20.597656 19.3125 19.886719 19.316406 19.175781 C 19.316406 18.917969 19.316406 18.660156 19.316406 18.402344 C 19.3125 18.050781 19.316406 17.703125 19.320312 17.351562 C 19.320312 17.15625 19.320312 16.964844 19.320312 16.761719 C 19.421875 16.269531 19.421875 16.269531 19.820312 15.875 C 20.304688 15.574219 20.558594 15.523438 21.125 15.53125 Z M 21.125 15.53125 "/>
<path style=" stroke:none;fill-rule:nonzero;fill:rgb(3.529412%,17.254902%,34.901962%);fill-opacity:1;" d="M 47.5625 1.734375 C 48.832031 2.460938 49.671875 3.507812 50.0625 4.921875 C 50.289062 6.140625 50.164062 7.125 49.785156 8.300781 C 49.375 9.625 49.457031 10.605469 50.085938 11.839844 C 51.253906 13.199219 52.347656 13.726562 54.121094 13.945312 C 54.597656 13.96875 55.074219 13.976562 55.550781 13.980469 C 55.820312 13.984375 56.09375 13.988281 56.367188 13.996094 C 56.789062 14 57.214844 14.007812 57.640625 14.011719 C 58.054688 14.015625 58.464844 14.023438 58.878906 14.03125 C 59.007812 14.03125 59.132812 14.035156 59.261719 14.035156 C 60.253906 14.058594 60.761719 14.269531 61.449219 14.972656 C 61.832031 15.550781 62.023438 16.113281 62.222656 16.773438 C 62.261719 16.902344 62.300781 17.027344 62.34375 17.15625 C 62.425781 17.425781 62.507812 17.691406 62.589844 17.957031 C 62.710938 18.367188 62.839844 18.773438 62.96875 19.179688 C 63.046875 19.441406 63.128906 19.699219 63.207031 19.960938 C 63.246094 20.082031 63.285156 20.203125 63.324219 20.328125 C 63.472656 20.820312 63.585938 21.230469 63.585938 21.75 C 51.476562 21.75 39.367188 21.75 26.894531 21.75 C 27.011719 20.925781 27.128906 20.300781 27.386719 19.53125 C 27.449219 19.339844 27.515625 19.144531 27.582031 18.945312 C 27.648438 18.75 27.71875 18.550781 27.785156 18.34375 C 27.886719 18.046875 27.886719 18.046875 27.988281 17.742188 C 28.941406 14.90625 28.941406 14.90625 29.71875 14.277344 C 30.203125 14.113281 30.53125 14.089844 31.039062 14.082031 C 31.203125 14.078125 31.367188 14.074219 31.535156 14.070312 C 31.875 14.0625 32.214844 14.058594 32.554688 14.054688 C 33.601562 14.023438 34.402344 13.859375 35.351562 13.40625 C 35.695312 13.28125 35.695312 13.28125 36.191406 13.445312 C 36.191406 13.613281 36.191406 13.777344 36.191406 13.945312 C 37.902344 13.730469 39.191406 13.28125 40.308594 11.925781 C 40.953125 10.933594 40.9375 9.945312 40.839844 8.796875 C 40.734375 8.371094 40.734375 8.371094 40.589844 7.96875 C 40.125 6.578125 40.175781 5.207031 40.785156 3.871094 C 42.167969 1.449219 45.011719 0.566406 47.5625 1.734375 Z M 47.5625 1.734375 "/>
<path style=" stroke:none;fill-rule:nonzero;fill:rgb(90.980393%,69.411767%,53.333336%);fill-opacity:1;" d="M 61.757812 15.605469 C 62.949219 15.585938 64.140625 15.570312 65.328125 15.558594 C 65.734375 15.554688 66.140625 15.550781 66.542969 15.542969 C 67.125 15.53125 67.710938 15.527344 68.292969 15.523438 C 68.472656 15.519531 68.652344 15.515625 68.839844 15.511719 C 69.007812 15.511719 69.179688 15.511719 69.351562 15.511719 C 69.5 15.507812 69.648438 15.507812 69.804688 15.503906 C 70.421875 15.652344 70.65625 15.945312 71.054688 16.4375 C 71.140625 16.890625 71.171875 17.246094 71.167969 17.699219 C 71.167969 17.828125 71.171875 17.953125 71.171875 18.082031 C 71.179688 18.503906 71.179688 18.925781 71.179688 19.347656 C 71.179688 19.652344 71.183594 19.957031 71.1875 20.257812 C 71.195312 21.082031 71.199219 21.90625 71.199219 22.730469 C 71.199219 23.246094 71.203125 23.761719 71.203125 24.277344 C 71.214844 26.082031 71.21875 27.890625 71.21875 29.695312 C 71.21875 31.367188 71.226562 33.042969 71.242188 34.71875 C 71.253906 36.160156 71.261719 37.601562 71.261719 39.046875 C 71.261719 39.90625 71.261719 40.765625 71.273438 41.625 C 71.347656 48.351562 71.347656 48.351562 69.449219 51.28125 C 69.105469 51.824219 68.84375 52.402344 68.578125 52.984375 C 68.398438 53.359375 68.214844 53.734375 68.035156 54.109375 C 67.941406 54.308594 67.847656 54.503906 67.75 54.707031 C 67.523438 55.175781 67.296875 55.644531 67.070312 56.113281 C 67.015625 56.113281 66.960938 56.113281 66.90625 56.113281 C 66.90625 44.0625 66.90625 32.007812 66.90625 19.589844 C 65.589844 19.644531 64.273438 19.699219 62.921875 19.757812 C 62.726562 19.164062 62.535156 18.570312 62.339844 17.960938 C 62.277344 17.773438 62.21875 17.589844 62.15625 17.398438 C 62.109375 17.25 62.0625 17.101562 62.011719 16.949219 C 61.964844 16.800781 61.914062 16.648438 61.863281 16.496094 C 61.757812 16.101562 61.757812 16.101562 61.757812 15.605469 Z M 61.757812 15.605469 "/>
<path style=" stroke:none;fill-rule:nonzero;fill:rgb(98.431373%,98.823529%,99.215686%);fill-opacity:1;" d="M 35.535156 57.257812 C 35.679688 57.257812 35.824219 57.257812 35.972656 57.257812 C 36.132812 57.257812 36.289062 57.261719 36.449219 57.261719 C 36.613281 57.261719 36.777344 57.261719 36.949219 57.265625 C 37.113281 57.265625 37.28125 57.265625 37.449219 57.265625 C 37.859375 57.269531 38.269531 57.273438 38.679688 57.273438 C 39.792969 59.390625 40.714844 61.570312 41.617188 63.78125 C 41.757812 64.117188 41.894531 64.457031 42.035156 64.792969 C 42.414062 65.71875 42.789062 66.640625 43.164062 67.566406 C 43.210938 67.6875 43.261719 67.808594 43.3125 67.933594 C 43.433594 68.234375 43.554688 68.539062 43.675781 68.84375 C 43.769531 69.082031 43.769531 69.082031 43.867188 69.324219 C 43.992188 69.726562 43.992188 69.726562 43.992188 70.390625 C 42.679688 70.390625 41.363281 70.390625 40.007812 70.390625 C 39.789062 69.84375 39.570312 69.292969 39.34375 68.730469 C 39.164062 68.511719 39.164062 68.511719 38.71875 68.546875 C 38.519531 68.546875 38.316406 68.546875 38.109375 68.546875 C 37.894531 68.546875 37.675781 68.550781 37.453125 68.550781 C 37.222656 68.550781 36.992188 68.550781 36.761719 68.554688 C 36.53125 68.554688 36.300781 68.554688 36.070312 68.554688 C 35.5 68.558594 34.933594 68.5625 34.363281 68.5625 C 34.320312 68.683594 34.273438 68.800781 34.226562 68.921875 C 34.164062 69.074219 34.105469 69.226562 34.042969 69.382812 C 33.984375 69.535156 33.925781 69.6875 33.863281 69.84375 C 33.699219 70.222656 33.699219 70.222656 33.535156 70.390625 C 33.292969 70.40625 33.046875 70.414062 32.804688 70.414062 C 32.65625 70.414062 32.507812 70.414062 32.355469 70.414062 C 32.125 70.414062 32.125 70.414062 31.886719 70.410156 C 31.730469 70.410156 31.574219 70.414062 31.417969 70.414062 C 31.269531 70.414062 31.121094 70.414062 30.96875 70.414062 C 30.832031 70.414062 30.695312 70.414062 30.554688 70.410156 C 30.214844 70.390625 30.214844 70.390625 29.882812 70.222656 C 29.984375 69.359375 30.261719 68.648438 30.605469 67.859375 C 30.664062 67.726562 30.71875 67.59375 30.777344 67.457031 C 30.964844 67.027344 31.148438 66.597656 31.335938 66.167969 C 31.527344 65.71875 31.71875 65.273438 31.910156 64.824219 C 32.042969 64.523438 32.171875 64.21875 32.300781 63.917969 C 32.71875 62.949219 33.128906 61.980469 33.53125 61.011719 C 33.609375 60.828125 33.609375 60.828125 33.683594 60.644531 C 33.875 60.1875 34.066406 59.730469 34.253906 59.273438 C 34.382812 58.964844 34.511719 58.65625 34.640625 58.351562 C 34.746094 58.089844 34.746094 58.089844 34.855469 57.828125 C 35.101562 57.28125 35.101562 57.28125 35.535156 57.257812 Z M 35.535156 57.257812 "/>
<path style=" stroke:none;fill-rule:nonzero;fill:rgb(93.333334%,21.176471%,35.294119%);fill-opacity:1;" d="M 49.96875 60.015625 C 50.191406 60.015625 50.191406 60.015625 50.417969 60.011719 C 51.226562 60.027344 51.8125 60.058594 52.460938 60.59375 C 52.851562 61.179688 52.828125 61.429688 52.8125 62.121094 C 52.8125 62.300781 52.808594 62.480469 52.804688 62.667969 C 52.800781 62.804688 52.796875 62.945312 52.792969 63.085938 C 52.9375 63.078125 53.085938 63.070312 53.234375 63.0625 C 53.523438 63.054688 53.523438 63.054688 53.820312 63.042969 C 54.011719 63.035156 54.203125 63.027344 54.398438 63.019531 C 55.082031 63.101562 55.335938 63.226562 55.78125 63.75 C 55.851562 64.222656 55.875 64.585938 55.855469 65.058594 C 55.851562 65.230469 55.851562 65.230469 55.851562 65.40625 C 55.832031 66.257812 55.710938 66.988281 55.253906 67.710938 C 54.769531 68.015625 54.320312 67.945312 53.757812 67.929688 C 53.546875 67.925781 53.335938 67.921875 53.117188 67.917969 C 52.875 67.910156 52.875 67.910156 52.625 67.898438 C 52.632812 68.035156 52.640625 68.167969 52.648438 68.308594 C 52.699219 69.753906 52.699219 69.753906 52.355469 70.410156 C 51.347656 71.207031 50.203125 71.132812 48.976562 71.054688 C 48.40625 70.976562 47.960938 70.867188 47.535156 70.453125 C 47.230469 69.90625 47.265625 69.476562 47.285156 68.855469 C 47.289062 68.644531 47.292969 68.433594 47.296875 68.21875 C 47.300781 68.058594 47.308594 67.898438 47.3125 67.734375 C 47.15625 67.742188 46.996094 67.753906 46.828125 67.761719 C 46.621094 67.769531 46.410156 67.777344 46.195312 67.785156 C 45.984375 67.796875 45.777344 67.804688 45.5625 67.816406 C 44.992188 67.734375 44.992188 67.734375 44.585938 67.359375 C 44.195312 66.675781 44.269531 66.171875 44.328125 65.410156 C 44.328125 65.265625 44.328125 65.121094 44.332031 64.972656 C 44.359375 64.226562 44.421875 63.84375 44.875 63.230469 C 45.632812 62.703125 46.605469 62.855469 47.480469 62.921875 C 47.472656 62.785156 47.460938 62.652344 47.453125 62.511719 C 47.445312 62.335938 47.4375 62.160156 47.429688 61.976562 C 47.417969 61.800781 47.410156 61.625 47.398438 61.445312 C 47.480469 60.929688 47.480469 60.929688 47.796875 60.453125 C 48.523438 59.953125 49.105469 59.988281 49.96875 60.015625 Z M 49.96875 60.015625 "/>
<path style=" stroke:none;fill-rule:nonzero;fill:rgb(89.803922%,89.803922%,89.803922%);fill-opacity:1;" d="M 7.140625 25.734375 C 7.566406 26.257812 7.828125 26.785156 8.09375 27.40625 C 8.15625 27.550781 8.15625 27.550781 8.222656 27.703125 C 8.359375 28.023438 8.496094 28.347656 8.632812 28.667969 C 8.824219 29.117188 9.019531 29.566406 9.210938 30.019531 C 9.257812 30.132812 9.308594 30.246094 9.359375 30.363281 C 9.679688 31.113281 10.007812 31.863281 10.34375 32.613281 C 10.425781 32.800781 10.511719 32.992188 10.597656 33.1875 C 10.757812 33.542969 10.917969 33.902344 11.082031 34.261719 C 11.1875 34.5 11.1875 34.5 11.296875 34.746094 C 11.359375 34.886719 11.421875 35.023438 11.488281 35.167969 C 11.621094 35.527344 11.621094 35.527344 11.621094 36.023438 C 11.496094 36.078125 11.375 36.132812 11.25 36.1875 C 10.765625 36.394531 10.28125 36.605469 9.796875 36.816406 C 9.574219 36.910156 9.351562 37.007812 9.128906 37.101562 C 7.800781 37.675781 6.476562 38.253906 5.148438 38.839844 C 4.90625 38.945312 4.664062 39.050781 4.421875 39.160156 C 4.070312 39.3125 3.71875 39.46875 3.363281 39.625 C 3.035156 39.769531 2.707031 39.914062 2.378906 40.058594 C 2.191406 40.140625 2.003906 40.222656 1.8125 40.308594 C 1.425781 40.46875 1.070312 40.589844 0.664062 40.671875 C 0.773438 39.90625 1.074219 39.246094 1.394531 38.550781 C 1.453125 38.421875 1.511719 38.292969 1.570312 38.160156 C 1.695312 37.886719 1.824219 37.609375 1.949219 37.332031 C 2.289062 36.589844 2.625 35.84375 2.960938 35.101562 C 3.03125 34.949219 3.101562 34.792969 3.171875 34.632812 C 4.089844 32.609375 4.976562 30.574219 5.867188 28.539062 C 5.925781 28.398438 5.988281 28.261719 6.050781 28.117188 C 6.164062 27.859375 6.277344 27.597656 6.390625 27.339844 C 6.625 26.796875 6.867188 26.257812 7.140625 25.734375 Z M 7.140625 25.734375 "/>
<path style=" stroke:none;fill-rule:nonzero;fill:rgb(14.509805%,43.137255%,66.666669%);fill-opacity:1;" d="M 35.53125 56.046875 C 35.726562 56.046875 35.925781 56.046875 36.128906 56.046875 C 36.4375 56.046875 36.4375 56.046875 36.75 56.050781 C 37.058594 56.046875 37.058594 56.046875 37.371094 56.046875 C 37.570312 56.046875 37.765625 56.046875 37.96875 56.046875 C 38.148438 56.046875 38.332031 56.046875 38.515625 56.050781 C 39.082031 56.121094 39.390625 56.265625 39.84375 56.609375 C 40.046875 56.894531 40.046875 56.894531 40.1875 57.21875 C 40.246094 57.347656 40.304688 57.476562 40.363281 57.609375 C 40.425781 57.75 40.484375 57.894531 40.550781 58.042969 C 40.652344 58.273438 40.652344 58.273438 40.753906 58.507812 C 41.007812 59.09375 41.257812 59.675781 41.503906 60.265625 C 41.558594 60.390625 41.609375 60.519531 41.667969 60.648438 C 42.097656 61.675781 42.527344 62.703125 42.957031 63.730469 C 43.015625 63.875 43.078125 64.019531 43.140625 64.167969 C 43.539062 65.132812 43.9375 66.101562 44.328125 67.070312 C 44.378906 67.199219 44.429688 67.324219 44.480469 67.457031 C 44.628906 67.8125 44.769531 68.175781 44.910156 68.535156 C 44.988281 68.738281 45.070312 68.941406 45.152344 69.148438 C 45.332031 69.765625 45.375 70.25 45.320312 70.890625 C 45.011719 71.28125 44.769531 71.496094 44.328125 71.71875 C 43.589844 71.765625 42.851562 71.757812 42.117188 71.761719 C 41.808594 71.765625 41.808594 71.765625 41.492188 71.769531 C 41.195312 71.773438 41.195312 71.773438 40.894531 71.773438 C 40.710938 71.773438 40.53125 71.777344 40.34375 71.777344 C 39.742188 71.707031 39.46875 71.628906 39.015625 71.21875 C 38.847656 70.726562 38.683594 70.234375 38.515625 69.726562 C 36.871094 69.808594 36.871094 69.808594 35.195312 69.890625 C 34.976562 70.332031 34.757812 70.769531 34.53125 71.21875 C 33.613281 71.679688 32.8125 71.609375 31.800781 71.605469 C 31.613281 71.605469 31.425781 71.609375 31.234375 71.613281 C 31.050781 71.613281 30.871094 71.613281 30.683594 71.613281 C 30.515625 71.613281 30.351562 71.613281 30.179688 71.613281 C 29.480469 71.519531 29.046875 71.214844 28.554688 70.722656 C 28.464844 69.808594 28.671875 69.121094 29.035156 68.300781 C 29.085938 68.179688 29.140625 68.058594 29.191406 67.933594 C 29.363281 67.539062 29.535156 67.144531 29.707031 66.75 C 29.824219 66.472656 29.945312 66.195312 30.0625 65.917969 C 30.3125 65.332031 30.566406 64.75 30.820312 64.164062 C 31.21875 63.238281 31.609375 62.308594 32 61.375 C 32.1875 60.921875 32.378906 60.464844 32.570312 60.011719 C 32.695312 59.71875 32.816406 59.421875 32.941406 59.128906 C 33.113281 58.714844 33.285156 58.300781 33.460938 57.890625 C 33.511719 57.769531 33.5625 57.644531 33.613281 57.519531 C 34.085938 56.40625 34.300781 56.050781 35.53125 56.046875 Z M 35.195312 57.273438 C 34.695312 58.25 34.25 59.234375 33.828125 60.246094 C 33.761719 60.402344 33.699219 60.554688 33.628906 60.714844 C 33.421875 61.210938 33.214844 61.707031 33.007812 62.203125 C 32.800781 62.691406 32.597656 63.175781 32.394531 63.664062 C 32.257812 63.984375 32.121094 64.304688 31.988281 64.628906 C 31.644531 65.445312 31.296875 66.257812 30.941406 67.070312 C 30.871094 67.230469 30.804688 67.390625 30.730469 67.554688 C 30.597656 67.855469 30.464844 68.15625 30.332031 68.460938 C 30.273438 68.59375 30.214844 68.730469 30.152344 68.867188 C 30.101562 68.988281 30.046875 69.105469 29.992188 69.226562 C 29.847656 69.605469 29.847656 69.605469 29.882812 70.226562 C 30.28125 70.425781 30.527344 70.410156 30.972656 70.40625 C 31.195312 70.40625 31.195312 70.40625 31.425781 70.40625 C 31.578125 70.402344 31.734375 70.402344 31.894531 70.402344 C 32.050781 70.398438 32.210938 70.398438 32.371094 70.398438 C 32.757812 70.398438 33.148438 70.394531 33.535156 70.390625 C 33.582031 70.285156 33.628906 70.183594 33.675781 70.074219 C 33.734375 69.941406 33.792969 69.804688 33.855469 69.664062 C 33.917969 69.53125 33.976562 69.394531 34.039062 69.253906 C 34.140625 69.023438 34.25 68.792969 34.367188 68.5625 C 35.953125 68.5625 37.542969 68.5625 39.179688 68.5625 C 39.679688 69.5625 39.679688 69.5625 40.007812 70.390625 C 41.324219 70.390625 42.640625 70.390625 43.992188 70.390625 C 43.875 69.433594 43.875 69.433594 43.597656 68.574219 C 43.550781 68.460938 43.503906 68.347656 43.457031 68.226562 C 43.402344 68.109375 43.351562 67.988281 43.300781 67.863281 C 43.222656 67.667969 43.222656 67.667969 43.140625 67.46875 C 42.964844 67.046875 42.789062 66.628906 42.613281 66.210938 C 42.492188 65.917969 42.375 65.628906 42.253906 65.339844 C 41.894531 64.476562 41.535156 63.613281 41.171875 62.753906 C 41.117188 62.628906 41.066406 62.503906 41.011719 62.371094 C 40.691406 61.605469 40.367188 60.839844 40.039062 60.078125 C 39.960938 59.886719 39.878906 59.699219 39.796875 59.503906 C 39.722656 59.328125 39.648438 59.15625 39.570312 58.976562 C 39.507812 58.828125 39.441406 58.675781 39.375 58.523438 C 39.074219 57.875 39.074219 57.875 38.679688 57.273438 C 38.300781 57.160156 38.300781 57.160156 37.871094 57.195312 C 37.714844 57.195312 37.558594 57.199219 37.398438 57.203125 C 37.238281 57.210938 37.074219 57.214844 36.90625 57.222656 C 36.660156 57.230469 36.660156 57.230469 36.410156 57.234375 C 36.003906 57.246094 35.601562 57.257812 35.195312 57.273438 Z M 35.195312 57.273438 "/>
<path style=" stroke:none;fill-rule:nonzero;fill:rgb(96.470588%,50.980395%,62.352943%);fill-opacity:1;" d="M 79.621094 31.851562 C 80.554688 32.039062 81.386719 32.484375 82.230469 32.914062 C 82.476562 33.03125 82.476562 33.03125 82.726562 33.152344 C 82.882812 33.230469 83.042969 33.3125 83.203125 33.390625 C 83.34375 33.464844 83.488281 33.535156 83.632812 33.609375 C 84.082031 33.921875 84.273438 34.203125 84.5 34.695312 C 84.347656 35.808594 83.859375 36.761719 83.359375 37.757812 C 83.289062 37.910156 83.214844 38.058594 83.140625 38.214844 C 83.070312 38.359375 83 38.503906 82.925781 38.648438 C 82.863281 38.78125 82.796875 38.910156 82.730469 39.042969 C 82.507812 39.34375 82.507812 39.34375 82.210938 39.5 C 81.675781 39.515625 81.347656 39.316406 80.871094 39.074219 C 80.683594 38.976562 80.496094 38.882812 80.300781 38.785156 C 80.105469 38.679688 79.90625 38.578125 79.707031 38.472656 C 79.515625 38.375 79.320312 38.273438 79.117188 38.171875 C 78.753906 37.984375 78.390625 37.800781 78.027344 37.609375 C 77.53125 37.355469 77.03125 37.105469 76.53125 36.855469 C 76.625 35.898438 76.996094 35.128906 77.40625 34.273438 C 77.46875 34.132812 77.53125 33.992188 77.597656 33.851562 C 78.523438 31.894531 78.523438 31.894531 79.621094 31.851562 Z M 79.621094 31.851562 "/>
<path style=" stroke:none;fill-rule:nonzero;fill:rgb(99.607843%,98.823529%,98.823529%);fill-opacity:1;" d="M 48.808594 61.425781 C 49.683594 61.425781 50.5625 61.425781 51.464844 61.425781 C 51.464844 62.410156 51.464844 63.398438 51.464844 64.414062 C 52.503906 64.414062 53.546875 64.414062 54.617188 64.414062 C 54.5625 65.125 54.507812 65.839844 54.453125 66.570312 C 53.414062 66.570312 52.371094 66.570312 51.296875 66.570312 C 51.296875 67.613281 51.296875 68.652344 51.296875 69.726562 C 50.421875 69.726562 49.546875 69.726562 48.640625 69.726562 C 48.640625 68.6875 48.640625 67.644531 48.640625 66.570312 C 47.65625 66.570312 46.671875 66.570312 45.65625 66.570312 C 45.710938 65.804688 45.765625 65.039062 45.820312 64.25 C 48.0625 64.226562 48.0625 64.226562 48.808594 64.414062 C 48.808594 63.429688 48.808594 62.441406 48.808594 61.425781 Z M 48.808594 61.425781 "/>
<path style=" stroke:none;fill-rule:nonzero;fill:rgb(80.784315%,80.784315%,80.784315%);fill-opacity:1;" d="M 31.375 48.601562 C 31.554688 48.601562 31.554688 48.601562 31.738281 48.597656 C 32.148438 48.597656 32.554688 48.597656 32.960938 48.601562 C 33.25 48.597656 33.542969 48.597656 33.832031 48.597656 C 34.621094 48.597656 35.414062 48.597656 36.203125 48.597656 C 37.03125 48.597656 37.855469 48.597656 38.683594 48.597656 C 40.070312 48.597656 41.460938 48.597656 42.847656 48.597656 C 44.453125 48.601562 46.058594 48.601562 47.667969 48.597656 C 49.042969 48.597656 50.421875 48.597656 51.796875 48.597656 C 52.621094 48.597656 53.445312 48.597656 54.269531 48.597656 C 55.042969 48.597656 55.816406 48.597656 56.589844 48.597656 C 56.875 48.597656 57.160156 48.597656 57.445312 48.597656 C 57.832031 48.597656 58.21875 48.597656 58.605469 48.601562 C 58.824219 48.601562 59.039062 48.601562 59.265625 48.601562 C 59.765625 48.644531 59.765625 48.644531 60.097656 48.976562 C 60.042969 49.25 59.988281 49.523438 59.933594 49.804688 C 50.070312 49.804688 40.210938 49.804688 30.050781 49.804688 C 29.992188 49.53125 29.9375 49.257812 29.882812 48.976562 C 30.363281 48.496094 30.703125 48.601562 31.375 48.601562 Z M 31.375 48.601562 "/>
<path style=" stroke:none;fill-rule:nonzero;fill:rgb(80.000001%,80.000001%,80.000001%);fill-opacity:1;" d="M 30.851562 39.324219 C 31.027344 39.324219 31.027344 39.324219 31.203125 39.324219 C 31.324219 39.324219 31.449219 39.324219 31.574219 39.324219 C 31.984375 39.324219 32.398438 39.324219 32.8125 39.328125 C 33.105469 39.328125 33.398438 39.328125 33.695312 39.328125 C 34.496094 39.328125 35.296875 39.328125 36.101562 39.328125 C 36.9375 39.328125 37.773438 39.328125 38.609375 39.332031 C 40.199219 39.332031 41.785156 39.332031 43.371094 39.332031 C 45.175781 39.335938 46.980469 39.335938 48.785156 39.335938 C 52.5 39.339844 56.214844 39.34375 59.929688 39.347656 C 59.996094 39.621094 60.050781 39.898438 60.097656 40.175781 C 59.824219 40.449219 59.496094 40.363281 59.128906 40.363281 C 59.011719 40.363281 58.898438 40.363281 58.777344 40.363281 C 58.65625 40.363281 58.53125 40.363281 58.40625 40.363281 C 57.996094 40.363281 57.582031 40.363281 57.167969 40.359375 C 56.875 40.359375 56.582031 40.359375 56.285156 40.359375 C 55.484375 40.359375 54.683594 40.359375 53.878906 40.359375 C 53.042969 40.359375 52.207031 40.359375 51.371094 40.355469 C 49.78125 40.355469 48.195312 40.355469 46.609375 40.355469 C 44.804688 40.351562 43 40.351562 41.195312 40.351562 C 37.480469 40.347656 33.765625 40.34375 30.046875 40.34375 C 29.984375 40.066406 29.929688 39.789062 29.882812 39.511719 C 30.15625 39.238281 30.484375 39.324219 30.851562 39.324219 Z M 30.851562 39.324219 "/>
<path style=" stroke:none;fill-rule:nonzero;fill:rgb(80.000001%,80.000001%,80.000001%);fill-opacity:1;" d="M 30.851562 29.863281 C 31.027344 29.863281 31.027344 29.863281 31.203125 29.863281 C 31.324219 29.863281 31.449219 29.863281 31.574219 29.863281 C 31.984375 29.863281 32.398438 29.863281 32.8125 29.863281 C 33.105469 29.863281 33.398438 29.863281 33.695312 29.863281 C 34.496094 29.863281 35.296875 29.863281 36.101562 29.867188 C 36.9375 29.867188 37.773438 29.867188 38.609375 29.867188 C 40.199219 29.867188 41.785156 29.871094 43.371094 29.871094 C 45.175781 29.871094 46.980469 29.875 48.785156 29.875 C 52.5 29.875 56.214844 29.878906 59.929688 29.882812 C 59.996094 30.15625 60.050781 30.433594 60.097656 30.714844 C 59.824219 30.988281 59.496094 30.898438 59.128906 30.898438 C 59.011719 30.898438 58.898438 30.898438 58.777344 30.898438 C 58.65625 30.898438 58.53125 30.898438 58.40625 30.898438 C 57.996094 30.898438 57.582031 30.898438 57.167969 30.898438 C 56.875 30.898438 56.582031 30.898438 56.285156 30.898438 C 55.484375 30.898438 54.683594 30.898438 53.878906 30.894531 C 53.042969 30.894531 52.207031 30.894531 51.371094 30.894531 C 49.78125 30.894531 48.195312 30.890625 46.609375 30.890625 C 44.804688 30.890625 43 30.886719 41.195312 30.886719 C 37.480469 30.886719 33.765625 30.882812 30.046875 30.878906 C 29.984375 30.605469 29.929688 30.328125 29.882812 30.050781 C 30.15625 29.773438 30.484375 29.863281 30.851562 29.863281 Z M 30.851562 29.863281 "/>
<path style=" stroke:none;fill-rule:nonzero;fill:rgb(94.509804%,97.647059%,96.470588%);fill-opacity:1;" d="M 79.355469 40.671875 C 79.519531 40.730469 79.683594 40.785156 79.851562 40.839844 C 79.753906 41.429688 79.597656 41.910156 79.332031 42.449219 C 79.222656 42.675781 79.222656 42.675781 79.109375 42.90625 C 79.027344 43.070312 78.945312 43.234375 78.859375 43.402344 C 78.777344 43.574219 78.691406 43.746094 78.601562 43.925781 C 78.324219 44.496094 78.039062 45.0625 77.757812 45.632812 C 77.558594 46.03125 77.363281 46.433594 77.167969 46.832031 C 76.863281 47.445312 76.5625 48.058594 76.257812 48.671875 C 75.394531 50.417969 74.539062 52.167969 73.683594 53.917969 C 73.292969 54.710938 72.90625 55.503906 72.519531 56.296875 C 72.402344 56.535156 72.402344 56.535156 72.285156 56.777344 C 71.675781 58.019531 71.066406 59.261719 70.457031 60.507812 C 70.269531 60.886719 70.085938 61.265625 69.898438 61.644531 C 69.628906 62.1875 69.363281 62.734375 69.09375 63.277344 C 68.929688 63.617188 68.761719 63.953125 68.597656 64.292969 C 68.4375 64.621094 68.277344 64.945312 68.117188 65.273438 C 67.699219 66.117188 67.292969 66.96875 66.898438 67.824219 C 66.816406 68 66.734375 68.175781 66.648438 68.359375 C 66.492188 68.695312 66.335938 69.035156 66.183594 69.371094 C 66.113281 69.523438 66.042969 69.675781 65.972656 69.828125 C 65.882812 70.027344 65.882812 70.027344 65.789062 70.230469 C 65.539062 70.609375 65.328125 70.726562 64.914062 70.890625 C 64.78125 70.507812 64.722656 70.292969 64.847656 69.90625 C 64.902344 69.792969 64.960938 69.683594 65.019531 69.570312 C 65.082031 69.441406 65.144531 69.316406 65.210938 69.183594 C 65.285156 69.046875 65.355469 68.910156 65.429688 68.769531 C 65.5 68.625 65.574219 68.480469 65.648438 68.332031 C 65.886719 67.867188 66.125 67.402344 66.363281 66.933594 C 66.609375 66.453125 66.851562 65.972656 67.097656 65.492188 C 67.257812 65.175781 67.417969 64.859375 67.578125 64.546875 C 68.144531 63.429688 68.695312 62.308594 69.226562 61.175781 C 69.933594 59.679688 70.671875 58.203125 71.414062 56.726562 C 72 55.558594 72.570312 54.386719 73.128906 53.207031 C 73.863281 51.660156 74.625 50.125 75.398438 48.59375 C 76 47.390625 76.589844 46.179688 77.167969 44.960938 C 77.855469 43.507812 78.578125 42.082031 79.355469 40.671875 Z M 79.355469 40.671875 "/>
<path style=" stroke:none;fill-rule:nonzero;fill:rgb(89.803922%,69.411767%,53.333336%);fill-opacity:1;" d="M 59.929688 70.226562 C 60.109375 70.34375 60.289062 70.460938 60.472656 70.582031 C 61.347656 71.128906 62.273438 71.554688 63.210938 71.988281 C 63.550781 72.144531 63.886719 72.304688 64.226562 72.460938 C 64.371094 72.53125 64.519531 72.597656 64.671875 72.667969 C 65.066406 72.875 65.398438 73.101562 65.742188 73.378906 C 65.636719 73.464844 65.527344 73.550781 65.417969 73.640625 C 64.546875 74.351562 63.683594 75.066406 62.828125 75.796875 C 62.160156 76.363281 61.492188 76.925781 60.8125 77.476562 C 60.617188 77.636719 60.617188 77.636719 60.417969 77.800781 C 60.097656 78.027344 60.097656 78.027344 59.765625 78.027344 C 59.742188 75.421875 59.800781 72.828125 59.929688 70.226562 Z M 59.929688 70.226562 "/>
<path style=" stroke:none;fill-rule:nonzero;fill:rgb(94.901961%,97.647059%,96.862745%);fill-opacity:1;" d="M 76.699219 39.511719 C 76.863281 39.511719 77.027344 39.511719 77.195312 39.511719 C 77.113281 40.535156 76.65625 41.351562 76.203125 42.253906 C 76.121094 42.429688 76.035156 42.601562 75.945312 42.777344 C 75.667969 43.347656 75.382812 43.914062 75.101562 44.480469 C 74.902344 44.878906 74.707031 45.28125 74.511719 45.679688 C 74.15625 46.394531 73.804688 47.105469 73.449219 47.820312 C 72.636719 49.464844 71.828125 51.109375 71.027344 52.757812 C 70.636719 53.550781 70.25 54.34375 69.863281 55.132812 C 69.785156 55.292969 69.707031 55.449219 69.628906 55.613281 C 69.019531 56.859375 68.410156 58.101562 67.800781 59.34375 C 67.613281 59.722656 67.429688 60.101562 67.242188 60.480469 C 66.972656 61.027344 66.707031 61.570312 66.4375 62.117188 C 66.273438 62.453125 66.105469 62.792969 65.941406 63.128906 C 65.78125 63.457031 65.621094 63.785156 65.460938 64.109375 C 65.042969 64.957031 64.636719 65.808594 64.242188 66.667969 C 64.160156 66.84375 64.078125 67.023438 63.992188 67.203125 C 63.835938 67.542969 63.679688 67.882812 63.527344 68.226562 C 63.457031 68.375 63.386719 68.527344 63.316406 68.683594 C 63.253906 68.816406 63.195312 68.949219 63.132812 69.089844 C 62.921875 69.394531 62.921875 69.394531 62.5625 69.523438 C 62.460938 69.535156 62.359375 69.546875 62.257812 69.5625 C 62.339844 68.597656 62.621094 67.894531 63.0625 67.039062 C 63.128906 66.910156 63.195312 66.78125 63.261719 66.652344 C 63.46875 66.238281 63.683594 65.824219 63.894531 65.410156 C 64.113281 64.980469 64.332031 64.546875 64.550781 64.117188 C 64.695312 63.832031 64.839844 63.546875 64.984375 63.265625 C 65.519531 62.207031 66.035156 61.148438 66.542969 60.078125 C 67.242188 58.589844 67.976562 57.117188 68.714844 55.648438 C 69.449219 54.183594 70.167969 52.710938 70.871094 51.230469 C 71.527344 49.84375 72.214844 48.472656 72.90625 47.101562 C 73.515625 45.890625 74.105469 44.671875 74.6875 43.445312 C 75.320312 42.109375 75.976562 40.796875 76.699219 39.511719 Z M 76.699219 39.511719 "/>
<path style=" stroke:none;fill-rule:nonzero;fill:rgb(94.117647%,93.333334%,92.156863%);fill-opacity:1;" d="M 66.738281 71.054688 C 66.792969 71.054688 66.847656 71.054688 66.90625 71.054688 C 66.90625 73.191406 66.90625 75.328125 66.90625 77.53125 C 64.878906 77.53125 62.851562 77.53125 60.761719 77.53125 C 61.261719 76.90625 61.628906 76.496094 62.234375 76.015625 C 62.394531 75.882812 62.554688 75.753906 62.71875 75.621094 C 63.085938 75.328125 63.460938 75.054688 63.847656 74.785156 C 65.324219 73.726562 66.074219 72.761719 66.738281 71.054688 Z M 66.738281 71.054688 "/>
<path style=" stroke:none;fill-rule:nonzero;fill:rgb(15.294118%,43.921569%,67.058825%);fill-opacity:1;" d="M 36.855469 61.59375 C 36.964844 61.59375 37.074219 61.59375 37.1875 61.59375 C 38.4375 64.496094 38.4375 64.496094 38.183594 65.578125 C 37.773438 65.582031 37.359375 65.582031 36.949219 65.585938 C 36.832031 65.589844 36.714844 65.589844 36.59375 65.589844 C 36.292969 65.59375 35.992188 65.585938 35.695312 65.578125 C 35.636719 65.519531 35.582031 65.464844 35.527344 65.410156 C 35.589844 64.402344 35.835938 63.648438 36.285156 62.753906 C 36.339844 62.640625 36.394531 62.527344 36.449219 62.414062 C 36.582031 62.136719 36.71875 61.863281 36.855469 61.59375 Z M 36.855469 61.59375 "/>
<path style=" stroke:none;fill-rule:nonzero;fill:rgb(7.843138%,20%,36.470589%);fill-opacity:1;" d="M 59.765625 74.210938 C 60.507812 74.457031 61.128906 74.707031 61.820312 75.058594 C 61.996094 75.148438 62.171875 75.238281 62.351562 75.332031 C 62.484375 75.398438 62.617188 75.46875 62.753906 75.539062 C 62.753906 75.648438 62.753906 75.757812 62.753906 75.867188 C 62.386719 76.1875 62.019531 76.488281 61.632812 76.78125 C 61.476562 76.90625 61.476562 76.90625 61.3125 77.03125 C 60.800781 77.429688 60.351562 77.734375 59.765625 78.027344 C 59.765625 76.765625 59.765625 75.507812 59.765625 74.210938 Z M 59.765625 74.210938 "/>
<path style=" stroke:none;fill-rule:nonzero;fill:rgb(80.784315%,80.784315%,80.784315%);fill-opacity:1;" d="M 36.191406 13.445312 C 36.246094 13.667969 36.300781 13.886719 36.359375 14.109375 C 35.589844 14.109375 34.824219 14.109375 34.03125 14.109375 C 35.417969 13.1875 35.417969 13.1875 36.191406 13.445312 Z M 36.191406 13.445312 "/>
</g>
</svg>
