<svg width="160px" height="134px" viewBox="0 0 160 134" version="1.1" xmlns="http://www.w3.org/2000/svg" xmlns:xlink="http://www.w3.org/1999/xlink">
    <g id="Home" stroke="none" stroke-width="1" fill="none" fill-rule="evenodd">
        <g id="Home-Default-5" transform="translate(-34, -274)" fill-rule="nonzero">
            <g id="Student-3" transform="translate(114, 341) scale(-1, -1) translate(-114, -341)translate(34, 274)">
                <path d="M73.2591211,109 C73.2213944,109 73.1858869,109.007245 73.1481601,109.022413 C72.9994724,109.085124 72.9262382,109.259673 72.9883763,109.412261 C74.2377969,112.522672 74.268866,116.207894 73.0749259,119.788976 C72.2826645,122.162252 70.5272619,126.578497 67.6644687,129.489682 C67.5490693,129.606048 67.5490693,129.795086 67.6622495,129.912131 C67.7776489,130.028949 67.9618441,130.029402 68.0772436,129.91281 C71.0243671,126.916048 72.8219349,122.404266 73.6297308,119.981636 C74.8680553,116.263587 74.834767,112.429625 73.5298659,109.185642 C73.4832623,109.070182 73.3745205,109 73.2591211,109" id="path242" fill="#172C4B"></path>
                <path d="M103.338883,12.9974645 C103.494783,14.9516964 102.430872,16.8639732 100.928756,18.032096 C99.4266397,19.2002189 97.5432011,19.7125147 95.6829368,19.909042 C92.548086,20.2373971 89.2720827,19.6948493 86.5754368,17.9857244 C83.8808977,16.2765995 81.8373457,13.3220657 81.5107988,10.0363062 C81.4855177,9.79119909 81.4728772,9.53725934 81.5424001,9.30098497 C81.6645919,8.88584868 82.0269536,8.59878635 82.3829952,8.37355284 C84.959556,6.74392209 88.1934243,6.81458359 91.1639483,7.3136304 C94.136579,7.81488539 97.0944624,8.69594591 100.098694,8.51045948 C100.737041,8.47071239 100.749682,8.39563455 101.259516,8.91013857 C101.634519,9.28994411 101.982133,9.71612125 102.281292,10.1643801 C102.843796,11.0056935 103.25672,11.9662483 103.338883,12.9974645" id="path244" fill="#172C4B"></path>
                <polyline id="path246" fill="#B3A98E" points="81.2925178 2 116.273292 9.62957117 28.765618 10 18.8819876 2 81.2925178 2"></polyline>
                <polyline id="path248" fill="#B3A98E" points="80.3571724 2 79.5031056 3.57300178 107.189633 8 118.26087 3.41953819 80.3571724 2"></polyline>
                <path d="M159.788857,17.5354758 C157.317569,5.92771676 141.333316,0.831408972 131.565379,0.0409886514 C124.718055,-0.514320809 102.50772,4.68722708 97.6257047,8.70650321 C95.4298724,10.5157373 98.3778358,12.8444544 98.2313168,15.6948936 C98.0926121,18.3908315 97.377599,21.1711854 95.3400073,22.7694914 C93.2008291,24.4470633 90.3700809,24.2224765 87.803067,23.8230119 C82.8800266,23.0581179 78.005826,21.8982377 73.2234439,20.3543431 C70.7697381,19.5619075 68.2339816,18.6595296 65.7158074,19.1185556 C61.138552,19.9492806 58.1104915,24.8881761 55.8287013,29.5104556 C51.4448511,38.3889134 47.7857818,47.708484 44.1325733,57.0123805 C43.90205,57.6059795 43.6637123,58.2383157 43.7418558,58.8827434 C43.778974,59.1830136 43.8825141,59.4606683 44.0134045,59.7255599 C44.1052231,59.9123051 44.2107168,60.0932285 44.3162105,60.2694497 C45.1796962,61.7069846 46.1115574,63.0865256 47.1039798,64.4047138 C55.4692412,75.4999312 68.2046778,82.2088756 81.0182578,81.9950366 C84.3764746,81.9381622 87.7151556,81.4406228 91.0303934,80.8340368 C96.2347504,79.8823976 101.401989,78.6434753 106.477409,77.0131495 C115.799929,74.0198523 124.870435,69.6799298 132.864515,63.359702 C136.677918,60.3437895 140.092788,56.7654022 143.574081,53.2743418 C148.231434,48.6045923 161.851845,27.2289846 159.788857,17.5354758" id="path250" fill="#D45B4F"></path>
                <path d="M73.5403727,30.3481849 L67.8983753,24 L53.4014601,40.9019663 L44.7204969,60.2889655 C44.8190013,60.4769831 44.9321766,60.6591391 45.0453519,60.836561 C45.9717125,62.2838903 46.9714275,63.6728305 48.0361135,65 L58.504827,54.6364906 C59.5716088,53.5803009 60.477011,52.3514236 61.191692,50.9938196 L73.5403727,30.3481849" id="path252" fill="#172C4B"></path>
                <path d="M109.574348,22.114443 C109.080124,19.4688928 108.397926,17.0408372 107.616461,15.0137244 C106.123229,11.1274916 104.27517,8.70615577 102.739697,9.0287019 C101.330948,9.32212927 100.50513,11.8599401 100.386854,15.5177028 C100.310819,17.9278391 100.538923,20.8229146 101.109181,23.8871027 C101.827284,27.7388411 102.948792,31.1257994 104.182239,33.4933775 C105.419911,35.8692433 106.771634,37.2163214 107.943831,36.9714999 C109.168831,36.7148069 109.95452,34.761163 110.214304,31.8461524 C110.450856,29.2075459 110.256545,25.7816132 109.574348,22.114443" id="path254" fill="#172C4B"></path>
                <path d="M108.597435,22.1124429 C108.114541,19.5025769 107.447981,17.1072718 106.68443,15.1075015 C104.697134,15.1936794 102.761429,15.0014363 99.620551,15.6046819 C98.3844237,15.8433286 97.1648056,15.8963612 96.114407,16.0886043 C94.8720887,16.3184121 91.8447119,17.9491641 90.594139,17.8011148 C88.7182797,17.577936 87.5791441,16.8023345 86.1634791,15.4676811 C85.6207387,14.9528231 80.5709834,7.89727971 79.9890336,8.00113519 C79.4029566,8.10499067 78.6270236,8.46958969 78.0925378,9.61199994 C77.4032782,8.06300654 74.840223,10.7566199 73.9961895,11.6161897 C73.2016836,12.4271463 67.9331812,21.9082675 66.5876804,25.3836695 C66.4143336,25.8340045 72.1822397,31.4863941 72.4959148,31.7420554 C74.5967121,33.4581014 78.8271978,34.7558529 81.0064138,36.0003509 C85.3731006,38.4946501 90.096799,38.6287784 94.645087,36.5521107 C96.386809,35.7577268 100.107573,34.4007556 103.328933,33.3378942 C105.811506,32.5200876 107.998976,31.8761836 108.754273,31.8003912 C108.923492,31.7827137 109.08033,31.7537667 109.222722,31.7128874 C109.453851,29.1098714 109.263995,25.730149 108.597435,22.1124429" id="path256" fill="#F1A351"></path>
                <path d="M25.2670538,44.0663352 C25.4692579,43.8502227 55.1849349,44.1748398 54.6512826,44.8554598 C52.8918977,47.1062583 42.5794843,67.5304612 42.1417226,72 C37.6807231,70.3206443 33.009181,70.7728216 28.298032,71.1673839 C25.9862336,71.3610781 18.8819876,71.487069 18.8819876,71.487069 C18.8819876,71.487069 19.3947941,69.4093399 19.8784164,67.6609358 C21.2500696,62.7161287 24.9814664,44.3698792 25.2670538,44.0663352" id="path258" fill="#D45B4F"></path>
                <path d="M42.7329193,71.5 C42.7329193,70.582561 41.5289725,69.7460935 39.5579091,69.1224718 C37.3801505,68.4323209 34.2669359,68 30.8085189,68 C28.3068666,68 25.9842082,68.2261043 24.0685477,68.6124941 C20.9361552,69.2436921 18.8819876,70.301292 18.8819876,71.5 C18.8819876,72.5111953 20.3437708,73.4212947 22.6792144,74.0612528 C24.8100937,74.6424948 27.6676028,75 30.8085189,75 C33.3677049,75 35.7415044,74.7625313 37.6848663,74.3588581 C40.7384163,73.7262396 42.7329193,72.6811879 42.7329193,71.5" id="path260" fill="#172C4B"></path>
                <path d="M85.1845739,72.3621435 C85.0235576,72.9113658 84.6499173,73.3508327 84.3010488,73.7847339 C80.6038679,78.3828846 75.0405498,92.3211542 72.3548812,98.5458222 C72.6810424,98.8067418 73.0072035,99.0710008 73.3271717,99.3403802 C73.6842975,99.6384786 74.039359,99.9457047 74.3159766,100.328847 C75.0797717,101.382543 75.1355081,102.836079 75.0199067,104.166947 C74.9146268,105.363793 74.6875526,106.577336 74.1074812,107.603872 C73.5170883,108.651335 72.5716339,109.341703 71.6839802,109.467488 C71.0956515,109.55075 70.534159,109.385561 70.1130395,108.911809 C69.3884664,110.732235 68.0487286,113.032424 67.7225674,113.645763 C65.9885462,116.91594 63.1583759,119.074982 59.9174077,120 C55.332573,112.070895 48.169414,110.432578 43.7476599,110.030513 C43.7249524,109.347714 43.7228881,108.664247 43.7311454,107.984788 C43.8364252,100.671471 45.1451984,93.3799711 47.5831496,86.5546538 C48.3428161,84.4314542 49.2345984,82.3102583 50.6734232,80.6463396 C52.1122479,78.9824208 54.1930734,77.8249798 56.2924776,78.072987 C58.5797342,78.3432569 60.4768359,79.4218877 62.0725483,80.9602445 C65.0864423,83.8637538 67.022766,88.4049119 68.4574621,92.2434571 C68.6287999,92.7038511 68.7939448,93.1682523 68.9487681,93.6357702 C69.3616303,92.5985482 69.3987879,90.6904069 69.4008522,90.017181 C69.4132381,87.4959233 68.9508324,84.9804539 68.1829088,82.6036815 C67.1383674,79.3831505 65.5529766,76.4081777 63.8086338,73.5532012 C64.4712777,70.7273889 65.1339215,67.9017992 65.7965653,65.075987 C65.8688162,64.7749944 65.9390028,64.4717756 66.0649257,64.1943816 C67.4500784,61.1483906 71.2525392,59.9611176 74.1652819,60.0009679 C77.239041,60.0428219 80.2508707,61.3919452 82.4885838,63.6554002 C83.6569838,64.8353265 84.6168884,66.3509753 85.1102587,67.9973065 C85.5293138,69.3998605 85.6077576,70.8968085 85.1845739,72.3621435" id="path262" fill="#F0A258"></path>
                <path d="M68.9487681,93.6357702 C68.0914697,91.3803557 67.6008624,90.0998148 67.4769462,89.7941474 C65.9205285,85.9713842 64.9368392,84.5948182 62.7072314,81.5347033 C62.7385837,81.408549 62.6885161,81.1400193 62.7072314,80.9799461 C62.9946805,78.5213787 63.2129402,75.8802933 63.8086338,73.5532012 C65.700969,76.3964395 68.1043058,79.8059796 69.2374675,83.0132695 C70.0705428,85.3802698 69.821506,87.4891084 69.8080693,90 C69.5733019,91.3740809 69.3966581,92.6028127 68.9487681,93.6357702 Z" id="path264" fill="#172C4B"></path>
                <path d="M60.621118,120.468399 C59.4695445,120.798398 58.2713143,120.977436 57.047635,120.997687 C51.2494731,121.093879 47.0864184,118.184635 43.6825962,113.245226 C43.1121114,112.415164 41.9287265,110.425271 40.7453416,110.09228 C40.7856361,110.027845 40.8704665,109.994707 41.0146783,110.00069 C41.7251334,110.030836 42.760065,110.048786 44.0091935,110.163158 C48.5518645,110.578765 55.9109068,112.272257 60.621118,120.468399" id="path266" fill="#518D51"></path>
                <path d="M57.7796702,120.575419 C58.9947699,120.555042 60.1078261,119.547742 61.2513256,119.215686 C64.5575762,118.253558 65.8086904,116.461826 67.5776398,113.060455 C67.9103707,112.42251 69.4509014,110.393458 70.1900695,108.5 C70.6196715,108.992758 72.6589419,109.086603 73.2591211,109 C73.9435361,112.264288 72.8852342,116.099383 71.8449235,119.105251 C70.4739878,123.066068 68.4965551,127.324902 65.0660569,129.56292 C64.0973465,130.194613 62.9201528,130.384028 61.8608891,129.910953 C61.1975331,129.615947 60.574189,128.643862 59.8139619,128.734865 C58.7441688,128.862685 58.4682969,130.460674 57.9312944,131.229913 C57.3584918,132.047317 56.280275,132.422905 55.4147533,132.022771 C54.483949,131.591377 54.0648765,130.456506 53.060366,130.102915 C51.556759,129.572645 51.1987573,131.034477 50.6364842,132.14295 C50.0468344,133.303293 48.8380523,134.460393 47.5703052,133.814344 C46.9574906,133.502665 46.5068297,132.909179 46.1235574,132.298095 C45.7423909,131.686779 45.4054482,131.033088 44.9274107,130.510228 C44.2240427,129.740525 43.2279557,129.303805 42.2339747,129.32974 C40.3470953,129.379062 39.241502,131.524919 37.270387,131.175034 C35.6656972,130.890216 34.8275521,129.212108 34.7875402,127.542799 C34.7685871,126.682325 34.8043873,125.79638 34.8928348,124.898163 C35.2613659,121.113331 36.5164776,117.114306 38.0327199,113.930601 C38.5254987,112.894143 39.8732696,109.860719 41.0251926,109.581228 C41.212617,109.53561 41.4021473,109.547883 41.5916776,109.602068 C42.7667654,109.937134 43.9418531,111.939425 44.5083381,112.774658 C47.888295,117.744841 52.0221612,120.672211 57.7796702,120.575419 Z" id="path268" fill="#518D51"></path>
                <path d="M51.4229191,90 C51.0060745,90 50.5871965,90.0663943 50.1866189,90.2041177 C49.5806692,90.4116 49.2146592,90.791573 49.155691,91.2736049 C49.108923,91.6562695 49.2736275,91.9929516 49.4057978,92.2634636 C50.6298976,94.7709713 51.4371529,97.5321682 51.8011294,100.470342 C52.1122378,102.981214 52.3196435,105.606706 51.1667122,107.68467 C50.6583651,108.601629 49.9629462,109.197159 49.2044923,109.361127 C48.5192404,109.508944 47.805521,109.300116 47.1365362,108.756848 C47.0165663,108.659724 46.847795,108.687987 46.7603593,108.819654 C46.6729236,108.951321 46.6973243,109.136597 46.8172942,109.233497 C47.6103157,109.877926 48.4724724,110.123091 49.3081951,109.942077 C50.2150864,109.74581 51.0386087,109.053828 51.626258,107.993538 C52.8686584,105.749364 52.657186,103.006785 52.3318438,100.390041 C51.9597337,97.3814351 51.134178,94.5529467 49.8775439,91.9826336 C49.7738411,91.7673006 49.6640381,91.5443412 49.6884388,91.3525603 C49.7291065,91.0156539 50.1622183,90.8326209 50.3452232,90.7695911 C51.6831929,90.3106627 53.2306015,90.7554599 54.1944277,91.8763129 C54.2981305,91.9949703 54.4669017,91.9999051 54.5746713,91.8870795 C54.6824409,91.7747026 54.6865077,91.5871835 54.5848383,91.4685261 C53.7714829,90.5242012 52.5961843,90 51.4229191,90" id="path270" fill="#172C4B"></path>
                <path d="M48.0163945,92.2798294 C47.9068033,92.1372351 47.8034154,91.9870891 47.6855533,91.8544898 C45.1153307,89.0070464 42.8490685,86.4989863 40.3429464,83.8321179 C38.8169414,82.2078313 36.9828405,80.4016371 36.730574,78.1099116 C36.3769875,74.9139785 39.1105629,72.2220117 39.4310653,69.0225248 C34.7848142,67.8902108 29.9421262,67.6956429 25.2276391,68.4521477 C25.0353376,68.4834652 24.8326974,68.5201132 24.6755478,68.647604 C24.4791109,68.8070786 24.3964006,69.0749427 24.3219613,69.3263706 C23.5672298,71.9179439 22.8104306,74.509295 22.0536313,77.1008683 C20.7674862,81.5059654 20.0603131,85.6476407 22.440302,89.7913149 C24.2247767,92.8997369 26.9397423,95.4837585 29.2184111,98.1666188 C31.7720916,101.171094 34.3237043,104.17579 36.8753171,107.180265 C38.4406095,109.023107 40.0100374,110.871947 41.352012,112.908246 C41.7324794,113.48462 44.780354,117.213394 45.4048167,116.990396 C46.0272117,116.767398 45.5164756,113.956159 45.2311251,113.320704 C46.09338,113.587235 45.7852841,115.313026 47.0962424,115.239952 C47.6979598,115.206413 47.9812426,114.429474 48.0101912,113.781803 C48.0618851,112.612174 47.8096187,111.428775 47.2906116,110.399298 C47.6152495,111.134702 48.1487309,111.997153 48.8972591,111.871217 C49.6499229,111.744837 49.9125281,110.726909 49.9187313,109.90888 C49.9435444,106.613664 48.5085207,103.533894 47.1107167,100.601161 C45.4771882,97.1762326 43.8374566,93.7437529 41.8772224,90.5229435 C43.8974215,92.8153353 46.025144,94.9993377 48.250051,97.0640674 C48.6119086,97.4016737 49.000647,97.7479424 49.4720957,97.8536665 C49.9414767,97.9591685 50.5142455,97.7317284 50.6507175,97.2366464 C50.7458343,96.8954863 50.6155656,96.5330036 50.4749581,96.2107228 C49.8484276,94.7774504 48.9572241,93.5018757 48.0163945,92.2798294" id="path272" fill="#F1A351"></path>
                <path d="M61.6149068,101.499871 C61.6149068,100.671545 60.9478197,100 60.1242236,100 C59.3006275,100 58.6335404,100.671545 58.6335404,101.499871 C58.6335404,102.328455 59.3006275,103 60.1242236,103 C60.9478197,103 61.6149068,102.328455 61.6149068,101.499871" id="path274" fill="#172C4B"></path>
                <path d="M50.6832298,101.499871 C50.6832298,100.671545 50.0161427,100 49.1925466,100 C48.3689505,100 47.7018634,100.671545 47.7018634,101.499871 C47.7018634,102.328455 48.3689505,103 49.1925466,103 C50.0161427,103 50.6832298,102.328455 50.6832298,101.499871" id="path276" fill="#172C4B"></path>
                <path d="M65.2795457,107 C65.1623575,107 65.0475131,107.06974 64.998294,107.186524 C64.3186024,108.745149 61.9162442,109.502358 60.4912357,109.359568 C59.792794,109.289356 58.7920067,109.12269 58.1685655,108.489121 C58.0490335,108.3669 57.8521573,108.365954 57.7302816,108.487467 C57.6107496,108.608743 57.6084058,108.806378 57.7302816,108.928837 C58.4920049,109.704958 59.6357618,109.900938 60.4302978,109.980371 C62.0053073,110.140417 64.7428237,109.324344 65.5631412,107.437588 C65.6334541,107.279905 65.5607974,107.095744 65.406109,107.026477 C65.3639212,107.008511 65.3217335,107 65.2795457,107" id="path278" fill="#172C4B"></path>
                <path d="M57.8272479,87.8590862 C58.1665969,88.2011189 58.7200318,87.8719124 58.6220989,87.3914039 C58.1460993,85.035891 56.9390189,84.4380463 56.9390189,84.4380463 C56.9390189,84.4380463 54.5339682,83.2053034 52.8212806,84.8758007 C52.5206492,85.1686662 52.698295,85.6959667 53.1082468,85.7315951 C54.5635758,85.8577197 56.5586747,86.5757509 57.8272479,87.8590862 Z" id="path178" fill="#172C4B"></path>
                <path d="M72.128787,102 C71.9041499,102 71.7174796,102.125554 71.7111518,102.284783 L71.5529566,105.695928 C71.5466288,105.858279 71.7269713,105.994314 71.9579362,105.999667 C72.1920651,106.007472 72.3818993,105.877235 72.3882271,105.714661 L72.5464223,102.303961 C72.5527501,102.141388 72.3724076,102.005352 72.1414426,102.000223 C72.1351148,102 72.1319509,102 72.128787,102" id="path284" fill="#172C4B"></path>
                <path d="M122.045702,35 C121.152538,35 120.570566,35.0156976 120.546318,35.0165578 C116.015833,35.1879417 112.433072,35.4367386 108.569429,36.1474335 C108.40777,36.1771085 108.300671,36.340106 108.326941,36.5114899 C108.355231,36.6830888 108.508807,36.7979182 108.670466,36.7684582 C112.499756,36.0637844 116.062309,35.8167077 120.566525,35.646399 C123.819906,35.5229682 130.639882,35.7715501 131.664394,36.903501 C131.777555,37.0288671 131.965484,37.0325227 132.082686,36.9118874 C132.20191,36.7912521 132.20393,36.5916984 132.090769,36.4665473 C130.90864,35.1595569 124.892916,35 122.045702,35" id="path286" fill="#172C4B"></path>
                <path d="M80.0191317,8 C79.1564869,8 78.7790798,8.51326827 78.6194905,8.87212109 C78.3089384,9.57677753 78.705755,10.9860904 79.178053,12.4932722 C79.2513778,12.7216331 79.311763,12.9195459 79.3527386,13.0674368 C80.2369495,16.2318661 83.836335,20.5518016 84.2762838,20.9519769 C85.887273,22.4171838 90.7914087,23.1122708 92.818624,22.9852587 C92.9933096,22.9746018 93.1248629,22.8232312 93.1140799,22.6477195 C93.1032968,22.4722079 92.9566472,22.3373662 92.779805,22.349328 C90.7978786,22.4713379 86.1352834,21.7836454 84.6989798,20.4785086 C84.2913801,20.1074766 80.7933554,15.8773631 79.9609032,12.8934475 C79.917771,12.7368572 79.8552292,12.5367696 79.7819044,12.3018841 C79.5144845,11.4493368 78.955922,9.67247161 79.1953059,9.13310496 C79.2751006,8.95476598 79.5123279,8.41757419 80.6445492,8.73510456 C81.045679,8.84819757 81.6754097,9.79208922 82.0916359,10.4162756 C82.3590558,10.8164509 82.5898132,11.1622545 82.7903782,11.3775662 C83.2346402,11.849512 83.6789023,12.3627803 84.1102247,12.8564748 C86.0123565,15.0422147 87.9791867,17.3019 90.8194447,17.7673212 C92.7388294,18.0826767 94.6517442,17.4693646 96.3382148,16.929998 L100.151105,15.7098984 C100.319321,15.6555268 100.409898,15.4771878 100.35814,15.3097231 C100.304224,15.1422585 100.127382,15.0487393 99.961323,15.100936 L96.148433,16.3232105 C94.5266607,16.8408285 92.6913839,17.4280422 90.9208054,17.1387851 C88.3048351,16.7103366 86.4134863,14.5376459 84.5846794,12.4367257 C84.1512003,11.9386815 83.7004684,11.4210635 83.2518931,10.9404182 C83.085834,10.7620793 82.8572331,10.4206254 82.6156926,10.0595977 C82.0377206,9.19400119 81.440339,8.29795658 80.8149216,8.12179247 C80.5108393,8.03697271 80.2477326,8 80.0191317,8" id="path288" fill="#172C4B"></path>
                <path d="M76.9394005,9 C76.4464943,9 75.9301163,9.22894923 75.5417659,9.64905995 C75.0467259,10.1892023 74.8269452,10.9027237 74.6775796,11.5317784 C74.5943617,11.8807592 74.4855382,12.3075384 74.3703134,12.7587684 C74.0459768,14.0124322 73.6810982,15.4350293 73.5637396,16.4019508 C73.2607409,18.9048327 75.9663908,24.9615401 78.0873813,26.5272861 C78.8150048,27.0647611 80.4814973,27.3657293 82.5918188,27.7467186 C84.3479307,28.0639133 86.3387598,28.4233414 88.039393,28.9848227 C88.2036951,29.0388369 88.3808,28.9441453 88.432011,28.7727668 C88.4853558,28.601166 88.3936027,28.4182289 88.2293006,28.3637701 C86.4859915,27.788952 84.4738245,27.4257451 82.6985085,27.1052162 C80.8271718,26.7673494 79.060391,26.4481541 78.4479923,25.996035 C76.5446487,24.589442 73.9136817,18.7225624 74.1846734,16.4841947 C74.2956306,15.5595066 74.6711783,14.1013445 74.9741769,12.9277018 C75.0894017,12.4720262 75.200359,12.0430242 75.2857107,11.6873749 C75.4137383,11.142787 75.5993783,10.5292919 75.9941301,10.10029 C76.2800584,9.79131967 76.7473591,9.56903886 77.1591812,9.67573365 C77.1890543,10.3581357 77.1421109,11.0694343 77.0973012,11.7585048 C77.0226184,12.8610176 76.9479357,14.0035409 77.1741178,15.1016081 C77.4643136,16.5242053 79.555431,20.4519071 80.0910131,20.9209196 C80.5945884,21.3612579 81.2027194,21.6437768 81.8535264,21.7386907 L87.3267061,22.9807958 C87.493142,23.0201395 87.6617116,22.9078877 87.6979861,22.7320636 C87.7342606,22.5562395 87.6275709,22.3828605 87.4590013,22.3446282 L81.9495471,21.0949655 C81.4118312,21.0187232 80.908256,20.7859952 80.4943001,20.4230106 C80.1486256,20.1207087 78.0809799,16.4086193 77.7843826,14.9660168 C77.5774047,13.956862 77.6478199,12.9099194 77.7203688,11.802961 C77.7715799,11.0205325 77.8270585,10.2114304 77.7715799,9.42233353 L77.7587771,9.23561765 L77.5966088,9.15337376 C77.3938985,9.04890178 77.1677164,9 76.9394005,9" id="path290" fill="#172C4B"></path>
                <path d="M70.8594273,21 C70.8079986,21 70.7565699,21.0143457 70.7092555,21.0448588 C70.5652551,21.1370812 70.5158836,21.3411091 70.6002267,21.5005059 C71.6925723,23.5929301 72.8466324,25.6860374 74.0294926,27.7219896 C74.3360077,28.2516423 74.7186373,28.9106341 75.2349814,29.4084075 C75.9632119,30.1115749 76.9012714,30.4570105 77.728245,30.7619138 L79.2793347,31.3341482 C79.8265361,31.5361267 81.0073392,32.1015298 82.1490564,32.6482607 C83.3566023,33.2259602 84.4962624,33.7717803 85.0681496,33.9828671 C85.22655,34.0409331 85.3972933,33.9466613 85.4507792,33.7717803 C85.5022079,33.5968992 85.4178648,33.4081279 85.2594644,33.3498342 C84.712263,33.1478557 83.5314599,32.5826803 82.3897427,32.0357217 C81.1821967,31.4580222 80.0425367,30.9124299 79.4706495,30.7011153 L77.9175026,30.1288809 C77.1440149,29.8437884 76.2676698,29.5206683 75.632011,28.9056245 C75.1794384,28.4700159 74.8379519,27.880931 74.5355511,27.3610698 C73.3588623,25.3339982 72.2089165,23.2497716 71.1206851,21.1666835 C71.0651421,21.0596599 70.9643419,21 70.8594273,21" id="path292" fill="#172C4B"></path>
                <path d="M82.4558424,20.4554909 C82.0593393,20.3333124 81.6539757,20.2079544 81.3062047,19.9731354 C80.9407129,19.726053 80.6616101,19.3715535 80.3935828,19.017281 C79.3192586,17.5842943 78.3667649,16.0241329 77.8661519,14.2936482 C77.3677541,12.5608925 77.3588936,10.6328327 78.1120282,9 C78.3889159,9.89249409 78.6658036,10.7849882 78.9404762,11.6774823 C79.1398353,12.3224398 79.3414096,12.9696684 79.6293728,13.5782903 C80.0015099,14.3595065 80.5131983,15.0612385 81.0226717,15.7584285 C81.944154,17.018821 82.8634211,18.2814844 83.7849034,19.5418768 C83.9776172,19.8068998 84.8082803,20.6180929 84.320958,20.9632815 C84.0529307,21.1533623 82.7593114,20.5481468 82.4558424,20.4554909" id="path294" fill="#172C4B"></path>
                <path d="M73.0236019,18.4004868 C72.8224104,17.8917929 72.7120795,17.3502094 72.603912,16.8130112 C72.5692984,16.6310216 72.5325215,16.4446467 72.5519916,16.2582718 C72.5801152,16.0083101 72.7120795,15.7824676 72.8440439,15.5675883 C73.3935348,14.6751814 73.9992729,13.8156643 74.6526046,13 C74.7175051,14.4822286 74.0468666,15.9381455 74.2004644,17.4137961 C74.3735324,19.080207 76.2188701,21.4565966 76.5217391,23 C75.4876578,22.1569277 73.5449693,19.6976561 73.0236019,18.4004868" id="path296" fill="#172C4B"></path>
                <path d="M69.8410809,23.637053 C69.7419947,23.5627522 69.6361527,23.4828162 69.5888616,23.3709475 C69.514547,23.1841519 69.6293968,22.9812857 69.7397428,22.8101433 C70.1293315,22.2067622 70.5211722,21.6033811 70.910761,21 C71.3994359,22.1069987 71.9759371,23.179769 72.6380128,24.2059969 C73.1739788,25.0366634 74.3742725,26.1179908 74.5341615,27 C72.8789723,26.2882983 71.2913419,24.702101 69.8410809,23.637053" id="path298" fill="#172C4B"></path>
                <path d="M80.4968944,2 L18.4852466,2 L0.154693746,45.4210945 C0.0501985182,45.6678116 0,45.9203977 0,46.1671148 C-0.00622890468,47.1311853 0.710608356,48 1.68868369,48 L55.2403979,48 C55.8485601,48 56.4065646,47.6485465 56.7075109,47.0799458 L80.4968944,2" id="path300" fill="#F9EBD1"></path>
                <path d="M78.5093168,2 L18.5118071,2 L0.154875492,45.1740588 C0.0502298892,45.4193723 0,45.6705213 0,45.9158348 C0.159061316,45.9703738 0.330680104,46 0.512763452,46 L54.1415418,46 C54.7484863,46 55.3093867,45.6514438 55.610766,45.0851803 L78.5093168,2" id="path302" fill="#ADD9E6"></path>
                <path d="M33.0626821,94 C32.9998176,94 32.9349251,94.0244581 32.8842279,94.074486 C32.7747219,94.1823239 32.7645824,94.3677607 32.8619211,94.4887171 C37.0190942,99.5957886 40.7646057,106.017594 43.7760213,111.177584 C44.2241848,111.947346 44.6885715,112.743346 44.9217788,113.617834 C45.1854044,114.607942 45.3314124,115.897773 44.9501692,116.547691 C44.8690536,116.683989 44.9055556,116.865646 45.0292569,116.95325 C45.154986,117.041077 45.3192451,117.001499 45.4003606,116.865201 C46.0026438,115.838406 45.5788149,113.994266 45.4348348,113.45352 C45.1813486,112.498098 44.696683,111.666078 44.2262127,110.861407 C41.2066856,105.683852 37.4469788,99.2400346 33.2614153,94.0980547 C33.2086902,94.0331296 33.1356861,94 33.0626821,94" id="path304" fill="#172C4B"></path>
                <path d="M37.051408,91 C36.9960283,91 36.9406486,91.016779 36.8937889,91.0516793 C36.7638597,91.1440755 36.7319098,91.3279732 36.8192393,91.4624287 C37.1919872,92.0297821 37.7734738,92.9009468 38.44655,93.9094755 C39.662773,95.729212 41.040875,97.7916845 41.7565509,98.9339976 C42.9173942,100.787516 44.0228578,102.713072 45.0431219,104.65742 C45.1347114,104.833488 45.2284309,105.010003 45.3221503,105.187412 C46.5554132,107.528863 47.8312759,109.949959 48.1188242,112.576205 C48.1720739,113.078232 48.0762245,113.755655 47.6438369,114.151863 C47.4436181,114.334642 47.1475498,114.43196 46.8706514,114.405114 C46.6491327,114.38386 46.4595638,114.285871 46.3402845,114.129267 C46.244435,114.001747 46.067646,113.980494 45.9462367,114.08251 C45.8248274,114.184302 45.8056575,114.36999 45.901507,114.49751 C46.1166357,114.78141 46.4425239,114.957478 46.8195317,114.993273 C47.2497892,115.034214 47.6970866,114.886559 48.0123248,114.597289 C48.5213919,114.133071 48.7684705,113.352289 48.676881,112.508865 C48.3765527,109.766285 47.0751302,107.293063 45.8141775,104.901498 C45.720458,104.724312 45.6267386,104.548021 45.5351491,104.372625 C44.508495,102.41463 43.3945114,100.47565 42.2251482,98.6091565 C41.5052123,97.4594606 40.1249803,95.3931849 38.9066273,93.5703163 C38.2335512,92.56313 37.6520645,91.6930838 37.2835767,91.1281914 C37.228197,91.044744 37.1408675,91 37.051408,91" id="path306" fill="#172C4B"></path>
                <path d="M38.4577311,71 C38.3438453,71 38.2383955,71.0728057 38.1962156,71.1905862 C38.0506948,71.6027065 37.6310046,72.3732892 37.2239684,73.1184901 C36.7895152,73.9193529 36.376152,74.6756861 36.2137593,75.1327813 C36.0619115,75.5578152 35.9058458,75.9973212 35.829922,76.4662166 C35.6274584,77.6932265 36.0049687,79.0972411 36.867548,80.3177942 C38.5631809,82.7188239 40.5835991,84.8448841 42.5365295,86.9010329 C43.6036815,88.0233985 44.7066864,89.1840595 45.7443125,90.3761137 C46.0986238,90.7840038 46.4698072,91.1858824 46.8620804,91.6113616 C47.9714124,92.8156614 49.1187062,94.0609284 49.8716178,95.4224174 C50.0825174,95.8029218 50.3440329,96.6213737 49.8294379,96.9958666 C49.4793445,97.249462 48.9584225,97.0869294 48.4459365,96.8736332 C47.5643761,96.5058197 45.5102139,94.2864703 43.6964773,92.3280636 C41.9839725,90.4783089 40.5034573,88.8805911 39.7969436,88.5414991 C39.6830578,88.4873957 39.550191,88.5190117 39.4700492,88.6196483 C39.3899073,88.7200623 39.3814714,88.8645605 39.4510682,88.9736577 C39.9234834,89.7099527 40.4486234,90.3367051 41.0053983,91.0004171 C41.8215798,91.972273 42.6651782,92.9773035 43.5129947,94.5082271 C46.6237639,100.13564 48.182312,103.439728 49.0470004,109.40423 C49.1229242,109.925002 49.1819761,110.518135 48.9478775,110.969664 C48.8318828,111.188303 48.5956752,111.362636 48.3552496,111.403381 C48.2434729,111.422306 48.0831891,111.419411 47.9587584,111.298068 C47.8448726,111.187413 47.6698259,111.194537 47.5643761,111.313431 C47.4610353,111.432325 47.4673623,111.618235 47.5791391,111.728669 C47.8048017,111.949312 48.1106061,112.040152 48.4438275,111.9836 C48.8487547,111.914802 49.238919,111.628255 49.4350556,111.253539 C49.755623,110.640591 49.6860262,109.931681 49.5974483,109.315393 C48.720106,103.251146 47.1404679,99.9052004 43.9938458,94.212106 C43.4033269,93.1438437 42.800154,92.3073574 42.2243981,91.5848665 C42.5766004,91.9600274 42.9393477,92.3509963 43.2978771,92.7390707 C45.2402624,94.8368547 47.2501357,97.006331 48.2413639,97.4202326 C48.6526181,97.5910032 49.5025435,97.9463484 50.1457873,97.4796794 C50.8839359,96.9419859 50.7700501,95.8828522 50.3524689,95.1265189 C49.5658134,93.7026887 48.3932116,92.4311494 47.2606807,91.2014677 C46.8705164,90.7791056 46.5035511,90.3801214 46.1534577,89.9784655 C45.1073957,88.7768374 44.0001728,87.6117235 42.9309117,86.4846823 C40.9906354,84.4436734 38.9849801,82.332976 37.3146552,79.9664566 C36.5427627,78.8745937 36.2011053,77.6355608 36.378261,76.5666306 C36.4457488,76.1522838 36.5933786,75.7390502 36.7346813,75.3393981 C36.882311,74.9272777 37.3020012,74.156695 37.7069285,73.4114941 C38.1434907,72.6106314 38.5547449,71.8542981 38.7171376,71.397203 C38.7719715,71.2453574 38.6981566,71.0757001 38.5547449,71.0187024 C38.52311,71.0060115 38.489366,71 38.4577311,71" id="path308" fill="#172C4B"></path>
                <path d="M55.2541277,85.059908 C54.9604657,85.3222488 54.2814892,85.476885 53.9504181,85.4161119 C53.8157451,85.3897264 53.6885539,85.4967823 53.6679789,85.6524998 C53.6455334,85.8080011 53.7371858,85.9544188 53.8718588,85.9795067 C54.3263802,86.0642862 55.1437706,85.8817507 55.5571419,85.5110564 C55.6637581,85.4143817 55.6843331,85.2350903 55.6001625,85.1105162 C55.5515306,85.0380643 55.4785827,85 55.4056348,85 C55.3513915,85 55.2990187,85.0194647 55.2541277,85.059908 Z" id="path310" fill="#172C4B"></path>
                <path d="M74.7075604,57 C74.4075319,57 74.1116134,57.0100656 73.8177499,57.0306346 C70.9818645,57.228884 68.5302621,58.3660832 66.7239264,60.3190372 C64.7203117,62.4864333 63.6702121,66.2085339 65.6697168,68.8376368 C65.7745212,68.9750547 65.9635803,68.9962801 66.0930446,68.8846827 C66.2225089,68.7733042 66.2430588,68.5715536 66.1382544,68.4339168 C64.3565785,66.0940919 65.3326985,62.7382932 67.1534192,60.7689278 C70.9510397,56.6606127 76.9392789,57.0538293 81.1869421,59.2654267 C84.7502938,61.1214442 88.4944845,64.9632385 88.8212279,69.3619256 C88.9404172,70.9785558 88.4163949,72.6295405 87.42178,73.778337 C86.5381346,74.7969365 85.3421307,75.3584245 84.0577623,75.359081 C83.8913082,75.359081 83.7577339,75.5026258 83.7577339,75.6796499 C83.7577339,75.856674 83.8913082,76 84.0577623,76 L84.0577623,76 C85.5126949,75.9995624 86.8648779,75.3649891 87.8636028,74.2133479 C88.987682,72.9164114 89.5569141,71.1297593 89.4212848,69.3113786 C89.2609956,67.1452954 88.3157005,64.9461707 86.6922588,62.9516411 C85.294866,61.2352298 83.4330455,59.7214442 81.4520357,58.6894967 C79.3353966,57.587965 76.9721587,57 74.7075604,57" id="path312" fill="#172C4B"></path>
                <path d="M54.9269182,112 C54.8337318,112 54.744597,112.052415 54.6939522,112.146363 C54.6210237,112.286507 54.6635654,112.465963 54.7911902,112.546807 C56.7177176,113.767905 58.3018862,115.543583 59.3735297,117.68217 C59.5315414,117.997549 59.68145,118.328032 59.8252811,118.64741 C60.0764792,119.200657 60.3378063,119.772561 60.6538297,120.305598 C61.2980313,121.390993 62.1792504,122.308927 63.2002491,122.960342 C63.327874,123.041408 63.4919631,122.994323 63.5669173,122.854401 C63.6398458,122.714479 63.5973042,122.535023 63.4696794,122.453513 C62.5195833,121.848072 61.7011637,120.994547 61.1015295,119.985776 C60.8017125,119.480946 60.5484886,118.924367 60.3053936,118.386222 C60.1575109,118.061514 60.0055765,117.725701 59.8414875,117.400104 C58.7252766,115.16757 57.0702052,113.313713 55.0606204,112.039311 C55.0180788,112.01266 54.9714856,112 54.9269182,112" id="path314" fill="#172C4B"></path>
                <path d="M36.4984716,115 C36.4138915,115 36.3334373,115.039815 36.2798012,115.115335 C33.5319807,118.996039 32.3231048,123.967122 32.9626125,128.753843 C32.9832418,128.910291 33.121458,129.019567 33.2699888,128.997063 C33.4185197,128.975208 33.523729,128.830877 33.5030997,128.674644 C32.8821583,124.035284 34.0539016,119.217187 36.717142,115.455713 C36.8058479,115.329126 36.7810928,115.15039 36.65938,115.056261 C36.6119326,115.018177 36.5541706,115 36.4984716,115" id="path316" fill="#172C4B"></path>
                <path d="M29.4480919,61 C28.7152999,61 27.9825079,61.0183703 27.2455522,61.0549068 C24.4850914,61.1930924 22.4928131,61.7911483 20.9772659,62.9366395 C20.8565218,63.0274705 20.833622,63.1966815 20.9273028,63.3144557 C21.0189018,63.4324339 21.1916909,63.4544783 21.312435,63.3636473 C22.7363831,62.2879633 24.6308171,61.7254234 27.2746974,61.5931571 C32.3730146,61.3378097 37.398469,61.9821996 41.8056301,63.4559071 C42.7112112,63.758405 43.5127024,64.2395031 44.2579852,64.9267571 C44.3683204,65.0286103 44.5411094,65.0237115 44.6451992,64.9153266 C44.749289,64.8071459 44.7451254,64.6365061 44.6347902,64.5344488 C43.8437079,63.8037184 42.9506176,63.2693463 41.9825827,62.9458247 C38.1479154,61.6635766 33.8531712,61 29.4480919,61" id="path318" fill="#172C4B"></path>
                <path d="M111.587612,5 C111.527404,5 111.467197,5.02011133 111.415591,5.06256859 C111.290875,5.16089066 111.267223,5.34636184 111.363984,5.4759682 C113.894844,8.89936391 116.045108,14.398696 117.113788,20.1862906 C118.148065,25.7794756 117.793272,30.9652944 116.06231,35.5980516 C116.004253,35.7497804 116.077361,35.9207268 116.223579,35.97972 C116.369797,36.0391602 116.535368,35.9634075 116.591274,35.8116786 C118.363091,31.0738956 118.726486,25.7790287 117.672857,20.074561 C116.586974,14.2020519 114.398006,8.60886688 111.813389,5.11619881 C111.757483,5.04022266 111.673622,5 111.587612,5" id="path320" fill="#172C4B"></path>
                <path d="M134.094921,40.7628461 C134.040003,41.0594197 133.948473,41.3662601 133.816263,41.6833675 C132.764687,44.2045927 129.854037,44.2696942 127.813938,43.7225148 C124.602257,42.8612615 121.559398,41.3550599 118.416872,40.2296671 C116.848661,39.667554 109.558816,35.8799995 109.31677,35.9861686 C110.7365,35.3626874 112.290474,35.298286 113.811903,35.241118 C114.814664,35.2033171 115.819458,35.1657495 116.824253,35.1279487 C119.663713,35.0213129 122.50724,34.9177105 125.3467,35.0983146 C127.165093,35.2140507 129.900819,35.0378799 131.489371,36.062937 C133.098262,37.1015278 134.485448,38.6777311 134.094921,40.7628461" id="path322" fill="#172C4B"></path>
            </g>
        </g>
    </g>
</svg>