<svg width="148px" height="142px" viewBox="0 0 148 142" version="1.1" xmlns="http://www.w3.org/2000/svg" xmlns:xlink="http://www.w3.org/1999/xlink">
    <g id="Home" stroke="none" stroke-width="1" fill="none" fill-rule="evenodd">
        <g id="Home-Default-3" transform="translate(-34, -267)" fill-rule="nonzero">
            <g id="Find-Student" transform="translate(108, 338) scale(-1, -1) translate(-108, -338)translate(34, 267)">
                <path d="M127.146196,2.26786289 C127.146196,2.26786289 125.632505,4.01603579 125.078334,5.0519901 C123.394279,8.2030178 119.344715,15.7450791 114.145686,25.2285737 C99.1497665,52.5789448 74.5821502,96.0807853 69.5299862,97.0182455 C60.3675538,98.7183485 51.1346261,96.8865929 42.4597863,93.4481272 C42.3560015,93.406532 42.2561332,93.3674875 42.158223,93.3294241 C36.123041,93.2073855 28.3940133,87.8488726 24.5108965,83.190806 C17.525986,74.8111521 -7.83861893,11.5914517 2.40474157,3.07622118 C7.92491616,-1.5110159 24.6225141,2.77406784 24.6225141,2.77406784 L127.146196,2.26786289" id="path148" fill="#B3A98E"></path>
                <path d="M44.0420144,85.5213108 C44.0420144,85.5213108 48.8709433,41.709665 48.7025378,27.7692124 C48.5321742,13.8281712 48.7025378,2.77799191 48.7025378,2.77799191 L77.8660569,3.0997656 C77.8660569,3.0997656 62.9543401,63.9803283 60.4086761,75.200616 C57.863012,86.4209037 57.863012,87.9510946 57.863012,87.9510946 L44.0420144,85.5213108" id="path150" fill="#ADD9E6"></path>
                <polyline id="path152" fill="#F9EBD1" points="79.7557229 9.74910113 68.3413569 61.5976334 26.7393317 60.3268235 41.1987035 10.7654351 79.7557229 9.74910113"></polyline>
                <path d="M94.6067353,8.67586816 C90.6335412,7.2749754 85.7556572,16.2512841 84.00894,18.3394776 C82.726317,19.8737887 81.6375561,21.420853 80.7955287,22.8637333 C78.9039045,26.0950083 78.2322408,28.8090908 79.313169,29.7155508 C80.4273865,30.6504604 83.0983756,29.4153595 86.0454713,26.8315561 C87.2360588,25.7873612 88.4736431,24.5218488 89.6701052,23.0907407 C91.2092529,21.2493712 92.4683775,19.3913244 93.3613181,17.7149619 C94.8828419,14.8660876 95.8169048,9.10359172 94.6067353,8.67586816" id="path154" fill="#172C4B"></path>
                <path d="M18.9672235,0.117472883 C15.366088,-0.0198695445 8.90597592,-0.322022885 5.66123335,1.24760486 C4.57834703,1.77343015 6.21540484,3.01932217 5.8805521,4.17692264 C5.42037437,5.76813276 6.52871733,7.34757068 7.57048139,8.63270339 C8.97059662,10.3573319 10.3687536,12.0819604 11.7669107,13.8085509 C13.7446958,16.245398 15.7498958,18.7126566 18.277936,20.5714882 C20.4554579,22.1730971 22.9893727,23.2861594 25.6388215,23.8060986 C25.9443012,23.8659407 26.2771958,23.9144029 26.5533024,23.7686237 C26.9175282,23.5745785 27.040895,23.1201713 27.1309723,22.7159921 C28.4782161,16.6750835 30.4403356,10.7713212 32.9742504,5.12654742 C33.7046602,3.4960966 36.3462762,3.13900629 34.8874149,2.45621822 C31.3391508,0.794374848 22.0709755,0.237156999 18.9672235,0.117472883" id="path156" fill="#B3A98E"></path>
                <path d="M47.5824457,102.933388 C47.1770976,100.65625 46.4897683,98.4181572 45.3833836,96.3792108 C44.5589801,94.8629504 43.63275,93.4791273 42.5537801,92.3058306 L41.3259867,97.8999838 L41.010716,99.3428641 C41.0851277,99.36582 41.1595394,99.3885796 41.2339512,99.4142822 C43.8226957,100.298179 45.9963011,102.741893 46.8774925,105.25624 C47.4179566,106.798988 47.7802242,108.349584 48.0622054,109.912345 C48.1131187,109.638053 48.1248679,109.359051 48.1327007,109.128512 C48.1914468,107.082895 47.9407968,104.943885 47.5824457,102.933388" id="path158" fill="#172C4B"></path>
                <path d="M53.1535335,80.3221151 C52.1333097,79.9316702 51.0915456,79.805119 50.0928621,79.9079296 C47.2436765,80.2022348 44.7352183,82.3536059 44.0420144,85.5211146 L42.5537801,92.3058306 C43.63275,93.4791273 44.5589801,94.8629504 45.3833836,96.3792108 C46.4897683,98.4181572 47.1770976,100.65625 47.5824457,102.933388 C47.9407968,104.943885 48.1914468,107.082895 48.1327007,109.128512 C48.1248679,109.359051 48.1131187,109.638053 48.0622054,109.912345 C47.7802242,108.349584 47.4179566,106.798988 46.8774925,105.25624 C45.9963011,102.741893 43.8226957,100.298179 41.2339512,99.4142822 C41.1595394,99.3885796 41.0851277,99.36582 41.010716,99.3428641 C39.2072109,98.8038932 37.2725063,99.1352809 35.6178246,99.9981837 C29.1537961,103.368567 26.4906399,111.644625 25.5350368,118.475057 C25.450834,119.071319 25.3842551,119.67229 25.3431329,120.274046 C25.9247192,120.88934 26.424061,121.708294 26.5963829,122.242752 C26.7784958,122.814096 26.6825438,123.514935 27.1055157,123.939716 C27.3581239,124.193995 27.7301825,124.273065 28.0611188,124.409231 C29.1949184,124.875999 29.9057461,126.19684 29.6688036,127.401726 C29.547395,128.029185 29.2027512,128.686466 29.461234,129.272134 C29.7079676,129.831117 30.3737567,130.03203 30.9044297,130.335949 C31.2823629,130.552165 31.6074246,130.85216 31.8659075,131.201598 C32.237966,130.706381 32.7431824,130.309265 33.3541418,130.115808 C34.3704492,129.792073 35.4631266,130.081669 36.5166399,130.244518 C37.5701531,130.406386 38.7842391,130.387354 39.5283562,129.622553 C40.3175121,128.813017 40.3880074,127.348359 41.4121476,126.87492 C42.2130527,126.505468 43.1588648,126.968312 44.0263488,126.818805 C45.3500941,126.590228 46.1059605,125.04748 47.4081656,124.719821 C47.8233046,124.615048 48.2462765,124.65782 48.6398753,124.805562 C48.7221199,124.574042 48.7945734,124.339775 48.8611523,124.102565 C49.6855558,124.496934 50.7312363,124.534016 51.538016,124.147495 C51.8023734,124.021729 52.0510652,123.854956 52.2390527,123.630303 C52.4622878,123.365428 52.589571,123.033059 52.6816066,122.697944 C53.1202441,121.082601 52.7423109,119.294206 51.8004152,117.912345 C51.1405007,116.943689 50.2221035,116.173198 49.1803394,115.632265 L53.4883863,101.959041 L57.3284226,89.7697045 C58.634544,85.7783374 56.7076722,81.6849444 53.1535335,80.3221151" id="path160" fill="#F1A351"></path>
                <path d="M66.5026042,112.757099 C65.9308089,111.996026 65.1534022,111.39427 64.6697261,110.57512 C64.2154229,109.807572 64.0528921,108.908568 63.7513288,108.070387 C62.9210507,105.752439 60.9354327,103.882816 58.5777562,103.192376 C56.8995761,102.701868 55.0059937,102.748564 53.4883863,101.959041 L49.1803394,115.632265 C50.2221035,116.173198 51.1405007,116.943689 51.8004152,117.912345 C52.7423109,119.294206 53.1202441,121.082601 52.6816066,122.697944 C52.589571,123.033059 52.4622878,123.365428 52.2390527,123.630303 C52.0510652,123.854956 51.8023734,124.021729 51.538016,124.147495 C50.7312363,124.534016 49.6855558,124.496934 48.8611523,124.102565 C48.7945734,124.339775 48.7221199,124.574042 48.6398753,124.805562 C48.2462765,124.65782 47.8233046,124.615048 47.4081656,124.719821 C46.1059605,125.04748 45.3500941,126.590228 44.0263488,126.818805 C43.1588648,126.968312 42.2130527,126.505468 41.4121476,126.87492 C40.3880074,127.348359 40.3175121,128.813017 39.5283562,129.622553 C38.7842391,130.387354 37.5701531,130.406386 36.5166399,130.244518 C35.4631266,130.081669 34.3704492,129.792073 33.3541418,130.115808 C32.7431824,130.309265 32.237966,130.706381 31.8659075,131.201598 C31.6074246,130.85216 31.2823629,130.552165 30.9044297,130.335949 C30.3737567,130.03203 29.7079676,129.831117 29.461234,129.272134 C29.2027512,128.686466 29.547395,128.029185 29.6688036,127.401726 C29.9057461,126.19684 29.1949184,124.875999 28.0611188,124.409231 C27.7301825,124.273065 27.3581239,124.193995 27.1055157,123.939716 C26.6825438,123.514935 26.7784958,122.814096 26.5963829,122.242752 C26.424061,121.708294 25.9247192,120.88934 25.3431329,120.274046 C25.3842551,119.67229 25.450834,119.071319 25.5350368,118.475057 C26.4906399,111.644625 29.1537961,103.368567 35.6178246,99.9981837 C37.2725063,99.1352809 39.2072109,98.8038932 41.010716,99.3428641 L41.3259867,97.8999838 C40.8481851,97.7791225 40.3782164,97.6229445 39.9258715,97.4296841 C38.5335891,96.8363648 37.3038375,95.9220567 35.9448445,95.2573193 C34.5858516,94.593563 32.9918742,94.1868332 31.5663024,94.6934306 C30.4266282,95.0981983 29.4024879,96.0696017 28.2040676,95.9077338 C27.7125586,95.8410246 27.2719629,95.5857639 26.8117852,95.4019213 C24.0722591,94.3059287 20.5690337,96.2353936 20.0246532,99.1409708 C19.9247849,99.674448 19.89737,100.254425 19.5664337,100.681953 C19.2962017,101.027663 18.8732298,101.208563 18.4913802,101.423798 C16.6702513,102.452493 15.5638665,104.626624 15.8027673,106.706577 C16.0436263,108.796143 17.5005294,110.762887 17.0677665,112.820865 C16.9502743,113.377102 16.6976661,113.899984 16.619338,114.462696 C16.4450579,115.715063 17.1637185,116.934075 18.0723247,117.812281 C18.914352,118.626526 19.9972384,119.352282 20.2380973,120.498895 C20.5827411,122.137979 20.4476251,123.547309 21.0507516,125.181684 C21.3895208,126.100701 21.546177,127.072104 21.8771134,127.988374 C22.2648376,129.053955 22.9834981,129.874086 23.8196508,130.623583 C24.9671579,131.655025 25.045486,132.585422 25.7954778,133.909206 C26.8509493,135.767253 29.3417836,136.994898 31.4742668,136.905429 C32.2634227,136.872075 33.0897844,136.682542 33.8260688,136.978613 C34.6739707,137.320596 35.1498141,138.203315 35.7588152,138.889047 C37.6132336,140.977632 41.2437422,141.113798 43.2489422,139.17001 C43.5622547,138.867268 43.8520687,138.512924 44.2613332,138.362436 C44.8017972,138.163486 45.3931746,138.369107 45.9493043,138.513906 C48.7691168,139.247314 51.962946,138.259626 53.8780687,136.062539 C54.3421628,135.532986 54.7631765,134.916711 55.4113417,134.645362 C55.7638183,134.497817 56.1535007,134.466228 56.5177265,134.353019 C59.0516413,133.562515 58.9400237,129.694952 61.0039698,128.024476 C61.9184507,127.284592 63.2108647,127.03306 63.9393163,126.108353 C65.0006624,124.760827 64.3446643,122.719723 65.016328,121.139892 C65.3903448,120.260704 66.1403366,119.606562 66.6710096,118.813115 C67.8674717,117.02374 67.7969764,114.477019 66.5026042,112.757099" id="path162" fill="#D45B4F"></path>
                <path d="M31.5290965,115.811398 C31.4253118,115.229263 30.8691821,114.842546 30.2875957,114.947711 C29.7060094,115.052876 29.3202434,115.610094 29.4259864,116.192229 C29.5297711,116.774561 30.0859008,117.161278 30.6674871,117.056113 C31.2490735,116.950948 31.6348395,116.39373 31.5290965,115.811398" id="path164" fill="#172C4B"></path>
                <path d="M40.5720785,117.558198 C40.4663355,116.976062 39.9102059,116.589345 39.3305777,116.69451 C38.7489914,116.799675 38.3632254,117.356893 38.4670102,117.939225 C38.5727531,118.521361 39.1288828,118.908078 39.7104691,118.802913 C40.2900973,118.697748 40.6778215,118.14053 40.5720785,117.558198" id="path166" fill="#172C4B"></path>
                <path d="M34.4566102,107.279491 C34.2314168,107.279491 34.0062235,107.297934 33.7849465,107.335801 C33.7203258,107.346592 33.6654961,107.384263 33.6322067,107.4392 C33.5989172,107.493941 33.5910844,107.56065 33.6087082,107.622062 C34.4429028,110.293372 34.965743,113.063765 35.1615633,115.855937 C35.2379332,116.93172 35.2673063,118.074802 34.9774922,119.143522 C34.6680961,120.286015 33.9983906,121.200519 33.1406977,121.651983 C32.3711239,122.057732 31.4429356,122.095403 30.8123942,122.090106 C29.3124106,122.074998 27.8437583,121.790111 26.4456012,121.243488 C26.3320254,121.198753 26.202784,121.25526 26.1577454,121.370039 C26.1127067,121.484622 26.1694946,121.61392 26.2850286,121.65885 C27.7321407,122.22529 29.2536645,122.52038 30.8084778,122.53588 C31.4879743,122.542355 32.4905742,122.49919 33.3482672,122.046745 C34.3136613,121.537597 35.0656113,120.522244 35.4063387,119.260459 C35.7137766,118.127777 35.6844035,116.939765 35.6060754,115.824544 C35.4122133,113.085936 34.9109133,110.367733 34.1119664,107.741746 C35.6041172,107.597536 37.1687215,108.390395 37.9128387,109.695148 C37.9755012,109.802275 38.1106172,109.839357 38.2163602,109.778142 C38.3240613,109.716926 38.3612672,109.580957 38.3005629,109.474026 C37.5368637,108.134742 35.9937996,107.279491 34.4566102,107.279491" id="path168" fill="#172C4B"></path>
                <path d="M37.9852922,123.020895 C37.9089223,123.020895 37.8345106,123.059547 37.7933883,123.129199 C37.7307258,123.234757 37.7640152,123.371707 37.8697582,123.43508 C39.7496332,124.563643 42.1699722,124.732182 44.1869215,123.875361 C44.3004972,123.827291 44.3533687,123.696423 44.3044136,123.583018 C44.2574168,123.469808 44.1262172,123.416833 44.0126414,123.464903 C42.1249336,124.267375 39.8573344,124.109236 38.098868,123.05268 C38.0636203,123.031097 38.0244563,123.020895 37.9852922,123.020895" id="path170" fill="#172C4B"></path>
                <path d="M48.9943101,118.957521 C48.9845191,118.957521 48.9747281,118.957913 48.9649371,118.959287 C48.8435285,118.975376 48.7573675,119.087212 48.7730332,119.20925 C48.8689851,119.946975 48.9101074,120.698042 48.8964,121.441849 C48.8924835,121.564869 48.9903937,121.666699 49.1137605,121.669053 C49.2390855,121.671211 49.3389539,121.573698 49.3409121,121.450482 C49.3565777,120.6847 49.3134972,119.91107 49.2136289,119.15137 C49.1999214,119.039142 49.1039695,118.957521 48.9943101,118.957521" id="path176" fill="#172C4B"></path>
                <path d="M35.737275,105.007454 C36.9885668,105.111639 38.7039527,105.704762 39.7946719,106.764849 C40.0864441,107.047382 40.5622875,106.775444 40.4780848,106.378524 C40.0688203,104.432775 39.0309727,103.93893 39.0309727,103.93893 C39.0309727,103.93893 36.9631102,102.920634 35.4905414,104.300533 C35.2320586,104.542452 35.3847985,104.978024 35.737275,105.007454" id="path178" fill="#172C4B"></path>
                <path d="M29.6570543,120.492813 C27.3737895,120.492813 25.5154547,118.630646 25.5154547,116.341933 C25.5154547,114.053023 27.3737895,112.191052 29.6570543,112.191052 C31.9422774,112.191052 33.8006121,114.053023 33.8006121,116.341933 C33.8006121,118.630646 31.9422774,120.492813 29.6570543,120.492813 Z M29.6570543,111.425859 C26.9527758,111.425859 24.7517555,113.631185 24.7517555,116.341933 C24.7517555,119.052484 26.9527758,121.258007 29.6570543,121.258007 C32.363291,121.258007 34.5643113,119.052484 34.5643113,116.341933 C34.5643113,113.631185 32.363291,111.425859 29.6570543,111.425859" id="path180" fill="#172C4B"></path>
                <path d="M40.6288664,122.532937 C38.3456016,122.532937 36.4872668,120.67077 36.4872668,118.38186 C36.4872668,116.093147 38.3456016,114.23098 40.6288664,114.23098 C42.9140894,114.23098 44.7724242,116.093147 44.7724242,118.38186 C44.7724242,120.67077 42.9140894,122.532937 40.6288664,122.532937 Z M40.6288664,113.465982 C37.9245879,113.465982 35.7235676,115.671309 35.7235676,118.38186 C35.7235676,121.092607 37.9245879,123.297934 40.6288664,123.297934 C43.3351031,123.297934 45.5361234,121.092607 45.5361234,118.38186 C45.5361234,115.671309 43.3351031,113.465982 40.6288664,113.465982" id="path182" fill="#172C4B"></path>
                <path d="M33.4403028,118.902388 C33.3423926,118.902388 33.2444824,118.939863 33.1700707,119.015009 C33.0212473,119.164516 33.0232055,119.406827 33.1720289,119.555942 C33.3815567,119.766076 33.5989172,119.983469 33.8711074,120.159267 C34.7013856,120.700789 35.7000692,120.680187 36.4735594,120.106096 C36.6439231,119.98033 36.6791707,119.740765 36.5538457,119.571049 C36.4285207,119.401333 36.1876617,119.365624 36.0192563,119.491194 C35.5003324,119.876342 34.8521672,119.886152 34.2862465,119.517682 C34.0825934,119.385245 33.9024387,119.204934 33.7105348,119.014028 C33.6361231,118.939667 33.5382129,118.902388 33.4403028,118.902388" id="path184" fill="#172C4B"></path>
                <path d="M44.4767355,120.549516 C44.3572851,120.549516 44.2397929,120.605042 44.1653812,120.709422 C44.0420144,120.8811 44.0811785,121.120076 44.2535004,121.243095 L48.8337375,124.529896 C49.0060593,124.652719 49.2449601,124.613282 49.3663687,124.441408 C49.4897355,124.26973 49.4505714,124.030754 49.2782496,123.907735 L44.6980125,120.620934 C44.6314336,120.572668 44.5531054,120.549516 44.4767355,120.549516" id="path186" fill="#172C4B"></path>
                <path d="M34.8874149,2.45621822 C33.8593582,1.7930505 32.3162942,2.85451126 30.7575645,5.04806603 C30.7536481,5.0519901 30.7516899,5.05395214 30.7497317,5.05787621 C30.6616125,5.18148439 30.5734934,5.30901665 30.4873325,5.43851094 C30.4462102,5.49737198 30.4070461,5.55623302 30.3698403,5.61509406 C29.3750731,7.12782279 28.3920551,9.0800473 27.5461114,11.3167668 C26.8881551,13.0531675 26.3868551,14.7738719 26.0461278,16.3690061 C25.922761,16.9517304 25.8189762,17.5187585 25.7386899,18.0620459 C25.2726376,21.202871 25.5428696,23.6171547 26.6179231,24.3095567 C27.6479379,24.974294 29.191002,23.9094978 30.7516899,21.7133924 C31.0454203,21.3009727 31.3391508,20.8477427 31.6309231,20.3591961 C32.4533684,18.9800819 33.2542735,17.3147069 33.9592266,15.4507739 C34.9187461,12.9158251 35.5473293,10.420117 35.823436,8.29130936 C35.8312688,8.23244832 35.8391016,8.17358728 35.8449762,8.11472624 C35.852809,8.05978927 35.8606418,8.00289026 35.8665164,7.94795329 C35.8782656,7.83219324 35.8919731,7.7164332 35.9017641,7.60459722 C36.1563305,5.00882534 35.833227,3.06641101 34.8874149,2.45621822" id="path188" fill="#172C4B"></path>
                <path d="M50.9642624,30.3192689 C50.8526449,29.3384478 50.5334578,25.8065892 49.6620574,23.1221333 C47.5844039,16.7084381 41.4454371,11.4776537 35.8665164,7.94795329 C34.0473457,6.79820097 32.2888793,5.8269938 30.7497317,5.05787621 C30.6224485,5.23642136 30.4951653,5.42281466 30.3698403,5.61509406 C29.3750731,7.12978483 28.3920551,9.0800473 27.5461114,11.3167668 C26.8881551,13.0531675 26.3868551,14.7738719 26.0461278,16.3690061 C25.922761,16.9517304 25.8189762,17.5187585 25.7386899,18.0620459 C27.7575973,18.7768151 29.8391672,19.7491995 30.2719301,20.1751572 C30.42467,20.3264301 30.6009082,20.965661 30.7516899,21.7135886 C30.9377192,22.6326057 31.0865426,23.7146678 31.1119993,24.2552083 C31.2373243,26.8868854 32.8587164,28.2997466 33.8965641,29.6741519 C34.4624848,30.4238454 35.6628633,29.9351025 35.5355801,29.0035285 C35.3045121,27.3077419 33.7869047,24.4661271 35.2124766,23.4340968 C36.3639,24.3250568 40.2920555,27.1258613 40.6425738,34.4071682 C40.6974035,35.5596673 40.2176437,37.2436817 41.3612344,37.371214 C41.9369461,37.4365497 42.5655293,37.0873075 42.794639,36.5526531 C43.0570383,35.9389286 43.2704824,35.3736665 43.3488105,35.1203678 C44.1085933,35.9583528 43.9950176,38.7132457 45.1229425,38.7296133 C45.6516574,38.7371825 46.0354652,38.2127306 46.1803722,37.7026016 C46.3233211,37.1926688 46.3291957,36.638394 46.5680964,36.1667209 C47.0439398,36.7855466 49.4662371,36.9258321 48.9277312,30.3763641 C50.0360742,33.5536831 51.07588,31.3020521 50.9642624,30.3192689" id="path190" fill="#F1A351"></path>
                <path d="M85.859442,25.5591766 C83.1962857,25.5252334 79.2700885,27.5212113 78.2498647,29.9447165 C77.4137119,31.9249981 76.0997576,32.596995 75.5671264,32.3026898 C73.9261522,31.3960335 77.0377369,25.3325616 77.1493545,25.1059466 C74.0965159,24.6525204 66.5828905,30.6632136 65.0476593,32.4160954 C64.2467542,33.3284415 63.3440225,34.4703457 62.3198823,33.8244439 C61.8009585,33.4993347 61.6012218,32.8167429 61.6736753,32.2089045 C61.7461288,31.60087 61.8714538,31.8208141 62.1632261,31.2826279 C61.3133659,32.2461832 59.5392339,33.4269356 58.5992964,32.6994132 C58.1587007,32.358804 58.1861155,31.6736615 58.3995597,31.1590198 C58.614962,30.6455553 58.9733132,30.1854582 59.0829726,29.6390315 C58.2879421,29.8366084 57.6574007,26.5980739 60.6730335,24.4068736 C58.8636538,25.2758588 59.1475933,22.9520249 59.8819194,22.2156733 C60.6142874,21.4810875 64.9536655,17.2538838 67.3661717,15.5292553 C73.8576151,10.8851192 85.0839935,10.6437889 93.553222,11.4442991 C92.5388728,16.3356515 90.140074,21.8205195 86.7445498,25.6360883 C86.3098287,25.5888033 85.9906416,25.5609424 85.859442,25.5591766" id="path192" fill="#F1A351"></path>
                <path d="M94.0036087,8.50124707 L94.0036087,8.50124707 C102.402342,3.03305642 123.443234,1.24760486 126.921003,2.43855991 C126.21605,3.75704721 124.774812,6.29984416 122.9576,9.50777086 C111.639186,8.1068781 99.1869724,8.04605503 94.0036087,8.50124707" id="path194" fill="#172C4B"></path>
                <path d="M80.3177272,30.0359511 C79.7459318,29.8501464 80.7720303,29.6203922 81.9821998,29.384948 C81.4397775,29.647272 80.8856061,29.8670199 80.3177272,30.0359511 L80.3177272,30.0359511" id="path196" fill="#172C4B"></path>
                <path d="M107.568082,36.6064128 C107.793275,41.5391642 102.866436,48.8885537 84.8411764,57.3502207 C82.8594748,58.2808138 80.7583229,59.3093123 78.6650037,60.4284569 C83.4253955,55.3895594 88.3326525,51.042083 90.2438587,49.4465564 C92.8149794,47.3014639 96.3240794,43.6301046 97.2855572,40.3495826 C97.959179,38.0483121 97.8495197,36.1561259 94.6831052,34.456219 C91.8202123,32.9195535 84.5024072,31.3960335 80.3177272,30.0359511 C81.8979971,29.56624 107.313515,30.9889114 107.568082,36.6064128" id="path198" fill="#172C4B"></path>
                <path d="M105.555049,83.019128 C94.8534689,89.6511976 72.1167725,100.021336 66.8570389,97.4712793 C60.870812,94.8058552 57.9393819,85.6009695 59.5470667,79.8904675 C60.514419,76.4547486 62.3884194,73.3537528 64.7480542,70.6598792 C65.8211495,69.4345885 66.9960714,68.2932729 68.2316975,67.243192 C71.2199155,64.7056925 74.9326686,62.422669 78.6650037,60.4284569 C80.7583229,59.3093123 82.8594748,58.2808138 84.8411764,57.3502207 C102.866436,48.8885537 107.793275,41.5391642 107.568082,36.6064128 C107.313515,30.9889114 81.8979971,29.56624 80.3177272,30.0359511 L80.3177272,30.0359511 L80.3177272,30.0359511 C80.8856061,29.8670199 81.4397775,29.647272 81.9821998,29.384948 C83.7250006,28.5391149 85.3228943,27.2349504 86.7445498,25.6360883 C89.6975201,22.3171105 91.8965822,17.7349747 93.0871697,13.3788653 C93.2653662,12.7274698 93.4220224,12.0799983 93.553222,11.4442991 C93.764708,10.4318892 93.9154896,9.44302372 94.0036087,8.50124707 L94.0036087,8.50124707 L94.0036087,8.50124707 C99.1869724,8.04605503 111.639186,8.1068781 122.9576,9.50777086 C132.527339,10.6908778 141.286381,12.8314576 144.157107,16.4278672 C159.903018,36.1492588 123.317909,72.0117211 105.555049,83.019128" id="path200" fill="#B3A98E"></path>
                <path d="M47.4375386,124.399028 C46.9068656,124.399028 46.3761925,124.49968 45.8690179,124.735517 C45.5889949,124.865796 45.3285539,125.032569 45.0739875,125.194044 C44.664723,125.455976 44.2769988,125.703389 43.8364031,125.788737 C43.401682,125.873105 42.9180058,125.792661 42.4499953,125.714768 C41.7685406,125.601559 41.0655457,125.484033 40.4330461,125.839358 C39.8220867,126.183106 39.5342309,126.830185 39.256166,127.456074 C38.9839758,128.065678 38.7294094,128.641339 38.2026527,128.879923 C37.9774594,128.982537 37.6915617,129.020405 37.3312523,128.995094 C36.835827,128.960562 36.3266942,128.827537 35.8351852,128.699023 C35.0186145,128.48575 34.1746289,128.265021 33.3228106,128.463187 C31.6485469,128.852258 30.7791047,130.735027 30.9318446,132.256388 C30.965134,132.591111 31.0375875,132.919948 31.1061246,133.23819 C31.2001184,133.665522 31.2862793,134.069112 31.2901957,134.481728 C31.2901957,134.604944 31.3900641,134.706773 31.5134309,134.703331 C31.6367977,134.702653 31.7347078,134.602197 31.7347078,134.479177 C31.7327496,134.019669 31.6348395,133.573895 31.5408457,133.143032 C31.4742668,132.837151 31.4057297,132.521067 31.3743985,132.21185 C31.2392825,130.878059 31.9853578,129.231716 33.4226789,128.897581 C34.1687543,128.724333 34.9226625,128.921714 35.7235676,129.130475 C36.2346586,129.264285 36.7633734,129.402413 37.2999211,129.439888 C37.7366004,129.470495 38.0910352,129.419875 38.3867238,129.286064 C39.0662203,128.977632 39.3697418,128.296414 39.6615141,127.637366 C39.9219551,127.052288 40.1667305,126.499582 40.6504066,126.228429 C41.1477902,125.949624 41.7450422,126.049295 42.3775418,126.15446 C42.8827582,126.238828 43.4075566,126.326335 43.9206058,126.226467 C44.4434461,126.12503 44.886,125.842889 45.3128883,125.570167 C45.5654965,125.409476 45.8043972,125.257811 46.0570054,125.139892 C47.6020277,124.421395 49.4309894,125.126747 50.6254933,126.026536 C51.1287515,126.405405 52.2880077,127.421739 52.174432,128.671555 C52.164641,128.793986 52.2547183,128.902486 52.3761269,128.913474 C52.4975355,128.925834 52.6071949,128.834207 52.6189441,128.71158 C52.7462273,127.29146 51.5928456,126.196448 50.8937671,125.67023 C49.9753699,124.980183 48.7084125,124.399224 47.4375386,124.399028" id="path202" fill="#172C4B"></path>
                <path d="M69.4046612,108.757491 C69.3087092,108.757491 69.2088409,108.76789 69.1089725,108.788492 C68.6115889,108.891695 68.149453,109.232892 67.9046776,109.679255 C67.4934549,110.427183 67.5600339,111.322459 67.6109471,112.041741 C67.6344456,112.350762 67.8263495,112.699415 68.0280444,113.06867 C68.1984081,113.379849 68.3746463,113.701623 68.390312,113.913718 C68.3942284,113.963947 68.4157686,114.011624 68.4490581,114.048706 C69.537819,115.22887 69.5906905,117.269583 68.5645921,118.50488 C68.3374405,118.779368 68.0691667,119.016774 67.783269,119.267915 C67.3681299,119.635993 66.9373253,120.016824 66.6494694,120.522047 C66.1892917,121.333741 66.1990827,122.26767 66.2088737,123.170794 C66.2127901,123.6046 66.2167065,124.053121 66.1677514,124.474763 C66.0267608,125.679059 65.4099268,126.810761 64.4739057,127.579486 C64.1801753,127.819443 63.8472807,128.034286 63.5241772,128.242065 C62.885803,128.653112 62.2258886,129.078285 61.7970421,129.741845 C61.3897358,130.374601 61.266369,131.113307 61.1469186,131.827488 C61.0666323,132.309952 60.9824296,132.808701 60.8120659,133.255849 C60.369512,134.409329 59.2650855,135.307941 57.9961698,135.545543 C57.6613171,135.608525 57.3010077,135.631088 56.9524476,135.652867 C56.2651183,135.695639 55.5542905,135.740177 54.9276656,136.089812 C54.2011722,136.494972 53.7684093,137.203266 53.351312,137.888213 C53.1417843,138.231765 52.926382,138.587089 52.6776902,138.891205 C51.7906242,139.978761 50.3219718,140.547358 48.935564,140.339971 C48.4714699,140.270515 48.028916,140.124344 47.5609054,139.969539 C47.2456347,139.864963 46.9186148,139.757051 46.5876785,139.675822 C45.8592269,139.497277 44.8252957,139.406435 44.0361398,139.988571 C43.8266121,140.143375 43.6542902,140.332123 43.4898011,140.514396 C43.3703508,140.644675 43.2587332,140.767695 43.1353664,140.87698 C42.283548,141.632756 41.0244234,141.62118 40.1177754,141.478344 C37.2548824,141.026683 34.6994274,138.99637 33.6106664,136.305832 C33.5636696,136.191837 33.4344281,136.136704 33.3208524,136.183205 C33.2053184,136.229509 33.1504887,136.359395 33.1974856,136.473586 C34.3449926,139.305979 37.0355637,141.443419 40.0492383,141.91882 C41.0498801,142.076372 42.4499953,142.081866 43.4310551,141.210722 C43.5720457,141.085741 43.6973707,140.94781 43.8187793,140.814784 C43.9754355,140.640751 44.1262172,140.476529 44.3004972,140.347623 C44.9506207,139.867709 45.8455195,139.953058 46.4819355,140.108844 C46.7972062,140.185951 47.1144351,140.291117 47.421873,140.39275 C47.8859671,140.54677 48.3676851,140.705891 48.8689851,140.781037 C50.4081328,141.010791 52.0373578,140.379997 53.0223339,139.173345 C53.2906077,138.845489 53.5138429,138.476823 53.7312034,138.120518 C54.1365515,137.455584 54.5184011,136.827537 55.1430679,136.479472 C55.683532,136.178888 56.3140734,136.139451 56.9798624,136.097856 C57.34213,136.075293 57.7161468,136.051944 58.0784144,135.983862 C59.4941952,135.718399 60.7298214,134.710501 61.227205,133.415755 C61.4132343,132.926619 61.5013534,132.405307 61.5855561,131.90126 C61.7030483,131.200814 61.8127077,130.539216 62.1710589,129.983764 C62.5470339,129.401235 63.1384112,129.020405 63.7650362,128.617206 C64.0979307,128.40256 64.4425745,128.180654 64.755887,127.924412 C65.7800272,127.083091 66.4556073,125.844655 66.6103053,124.52656 C66.6631768,124.076862 66.6573022,123.613822 66.6533858,123.166085 C66.6435948,122.283366 66.635762,121.449697 67.0371936,120.74258 C67.2878436,120.301907 67.6716514,119.962083 68.0789577,119.602246 C68.3628971,119.350909 68.6566276,119.091136 68.9072776,118.790159 C70.0724085,117.38652 70.029328,115.164712 68.8250331,113.800509 C68.7780362,113.511894 68.6037561,113.191494 68.4177268,112.854024 C68.2473631,112.543041 68.0711249,112.221267 68.0554592,112.009171 C68.0065042,111.348554 67.9477581,110.526462 68.29436,109.894098 C68.4764729,109.564084 68.8309077,109.301564 69.1990499,109.22524 C69.383121,109.187373 69.6494366,109.179721 69.8785463,109.358463 C69.9764565,109.434001 70.1154889,109.416146 70.1918588,109.319026 C70.2662706,109.221709 70.2486467,109.081619 70.1526948,109.006081 C69.9412088,108.842251 69.682726,108.757491 69.4046612,108.757491" id="path204" fill="#172C4B"></path>
                <path d="M18.2955599,96.3329067 C18.1761095,96.3329067 18.0781993,96.425711 18.0723247,96.5448065 C17.997913,98.0422314 17.2733778,99.5161118 16.1337036,100.487319 C15.896761,100.68882 15.6343618,100.877371 15.3817536,101.059841 C14.8608716,101.433608 14.3243239,101.819933 13.9365997,102.359885 C13.4529236,103.02992 13.2101064,103.927551 13.2120528,105.02786 C13.2140228,106.353803 13.5449591,107.672682 14.1696259,108.841859 C14.2851599,109.05729 14.4104849,109.269386 14.5318935,109.474811 C14.8197493,109.958453 15.0899814,110.415411 15.240763,110.924166 C15.5266607,111.887918 15.346506,112.889929 15.1585185,113.950801 C15.0801903,114.378721 15.0018622,114.821356 14.9568235,115.258693 C14.6963825,117.792465 15.6676513,120.468484 17.4926966,122.242556 C17.6826423,122.428164 17.8862954,122.609849 18.0840739,122.785843 C18.7811942,123.408201 19.4411087,123.996222 19.6800095,124.816745 C19.7877106,125.190513 19.7975016,125.584489 19.8072927,126.001422 C19.8131673,126.194682 19.8170837,126.394417 19.8327493,126.592387 C19.9600325,128.200078 20.8216419,129.716534 22.1355962,130.648697 C22.3294583,130.786824 22.538986,130.918281 22.7426391,131.045224 C23.426052,131.474125 24.0703008,131.879285 24.2719958,132.560504 C24.3346583,132.772207 24.3483657,132.999803 24.3620731,133.240545 C24.3718641,133.393191 24.3816551,133.550939 24.4031954,133.708883 C24.5774755,134.917692 25.4762907,135.80826 26.1988676,136.342718 C28.0199965,137.689262 30.4187953,138.162113 32.613941,137.608623 C32.7333914,137.578407 32.8058449,137.457154 32.7764719,137.337862 C32.7451407,137.218374 32.6237321,137.146171 32.5062399,137.175994 C30.4383774,137.697895 28.178611,137.252121 26.4632251,135.983862 C25.8091852,135.500024 24.9965309,134.701672 24.8437911,133.645313 C24.824209,133.506008 24.8163762,133.364349 24.8065852,133.21445 C24.7928778,132.958993 24.7772122,132.694707 24.698884,132.43356 C24.4501923,131.59067 23.7021587,131.121351 22.9776235,130.667336 C22.7720122,130.537842 22.5761919,130.415804 22.3921208,130.284936 C21.1839095,129.428312 20.3947536,128.034678 20.2772614,126.55707 C20.263554,126.371069 20.2576794,126.177612 20.253763,125.990434 C20.2420138,125.563103 20.2322227,125.121449 20.1068977,124.69196 C19.8327493,123.748221 19.0945067,123.089762 18.3797626,122.45269 C18.1859005,122.280031 17.9861638,122.101485 17.8020927,121.922548 C16.0729993,120.241477 15.1526439,117.705547 15.3993774,115.304409 C15.4424579,114.883748 15.520786,114.449354 15.5951978,114.029479 C15.7871017,112.964094 15.982922,111.862411 15.6676513,110.797026 C15.501204,110.2351 15.2035571,109.732819 14.9157013,109.247019 C14.7962509,109.046107 14.6728841,108.838131 14.5612665,108.631529 C13.9718474,107.526511 13.6585349,106.28003 13.6565767,105.027075 C13.6546185,104.022709 13.8700208,103.213174 14.2969091,102.620835 C14.643511,102.139745 15.1271872,101.791091 15.6402364,101.422032 C15.9006774,101.234266 16.1709095,101.04022 16.4215595,100.827143 C17.6532692,99.777651 18.4365505,98.1850675 18.5168368,96.5669775 C18.5227114,96.4439579 18.4287177,96.3393815 18.3053509,96.3329067 C18.3014345,96.3329067 18.2975181,96.3329067 18.2955599,96.3329067" id="path206" fill="#172C4B"></path>
                <path d="M40.5348726,23.8104151 C40.4780848,23.8104151 40.4193387,23.8310164 40.3743,23.8732002 C40.278348,23.9616879 40.2744316,24.1109988 40.3625508,24.2063537 C41.7156691,25.6702277 42.6164426,27.5639836 42.9023402,29.5387715 C43.0394144,30.4952634 43.035498,31.478439 43.0139578,32.3140696 C42.9924176,33.1281178 42.9473789,33.9517799 42.8827582,34.7622964 C42.8298867,35.3952488 42.7593914,36.0034796 42.4499953,36.4865325 C42.1719305,36.9215156 41.5923023,37.2538843 41.106668,37.058858 C40.9852594,37.0100034 40.8481851,37.0690606 40.7992301,37.1897258 C40.7522332,37.3107833 40.8109793,37.4481257 40.9304297,37.496588 C41.6706305,37.7940324 42.4695773,37.3294226 42.8455523,36.7412046 C43.2136945,36.1667209 43.295939,35.4955088 43.3507687,34.8007523 C43.4173476,33.9816028 43.4623863,33.1491115 43.4839265,32.3266266 C43.507425,31.4711795 43.5113414,30.4626937 43.3683926,29.4712775 C43.0707457,27.4027044 42.1249336,25.4190873 40.7071945,23.8859534 C40.6601976,23.8357253 40.5975351,23.8104151 40.5348726,23.8104151" id="path208" fill="#172C4B"></path>
                <path d="M43.2646078,22.2700216 C43.2234855,22.2700216 43.1823633,22.2804204 43.1451574,22.302199 C43.0335398,22.367731 42.9943758,22.5121367 43.0609547,22.6247575 L44.7685078,25.56055 C45.3598851,26.577865 45.9728027,27.6301042 46.1803722,28.7945718 C46.303739,29.4873662 46.2782824,30.2143001 46.2547839,30.9171009 L46.0785457,36.0676381 C46.0472144,36.9607563 45.9767191,37.8089439 45.4636699,38.3689086 C45.3520523,38.490751 45.1895215,38.5772767 45.0700711,38.5794349 C45.011325,38.5782577 44.9819519,38.5598146 44.9623699,38.5413714 C44.8722925,38.4489596 44.7234691,38.4481748 44.6294754,38.5398018 C44.5374398,38.6314288 44.5374398,38.7807397 44.6294754,38.8733477 C44.7469675,38.9930318 44.9016656,39.0554245 45.0779039,39.0511081 C45.377509,39.0456144 45.6516574,38.8600059 45.8102718,38.6883278 C46.4329804,38.00966 46.515225,37.0690606 46.5485144,36.083923 L46.7247527,30.9331896 C46.7502093,30.2058633 46.775666,29.4538154 46.6425082,28.7117739 C46.4212312,27.4647047 45.7593586,26.3269207 45.175814,25.3229476 L43.4682609,22.3871551 C43.4232222,22.3120092 43.3448941,22.2700216 43.2646078,22.2700216" id="path210" fill="#172C4B"></path>
                <path d="M45.3285539,20.25305 C45.2756824,20.25305 45.2228109,20.2709045 45.1777722,20.3077908 C45.0779039,20.3911772 45.0641965,20.5398995 45.1483992,20.6399632 C48.6770812,24.8767809 49.7129707,30.9549682 47.788057,36.1251257 C47.7430183,36.2471643 47.8037226,36.3829371 47.9270894,36.4286525 C48.048498,36.4743679 48.183614,36.4123676 48.2286527,36.2901329 C49.1979632,33.6910255 49.4505714,30.8089928 48.9649371,27.9552133 C48.4793027,25.1016301 47.2828406,22.4675985 45.5106668,20.3376137 C45.4636699,20.2818919 45.397091,20.25305 45.3285539,20.25305" id="path212" fill="#172C4B"></path>
                <path d="M48.9610207,20.4837853 C47.7077707,18.0897106 45.9120984,16.0452704 44.173214,14.0695015 C42.1543066,11.7699968 39.3775746,9.60194853 35.9017641,7.60459722 C35.3201777,7.26908929 34.7170512,6.93750543 34.0963008,6.61376971 C33.5029653,6.30376823 32.8802567,6.0251593 32.2810465,5.75636055 C31.7758301,5.53072657 31.2588645,5.30116851 30.7575645,5.04806603 C30.7536481,5.0519901 30.7516899,5.05395214 30.7497317,5.05787621 C30.6616125,5.18148439 30.5734934,5.30901665 30.4873325,5.43851094 C31.0160473,5.70730969 31.5584696,5.95060199 32.0891426,6.18604615 C32.6824782,6.45288286 33.2973539,6.72756772 33.8789403,7.0316831 C34.5584367,7.38681137 35.2144348,7.74782575 35.8449762,8.11472624 C39.1935035,10.0591026 41.8664508,12.1584797 43.8148629,14.3755789 C45.5400398,16.3356515 47.3180882,18.3581169 48.5439234,20.7029445 C50.3611359,24.1761383 50.9485968,27.6895538 50.3905089,31.760972 C50.3728851,31.8894853 50.4629624,32.0085808 50.5922039,32.0266315 C50.7214453,32.0446822 50.8408956,31.9532514 50.8585195,31.8247381 C51.4283566,27.6514904 50.82523,24.0486061 48.9610207,20.4837853" id="path214" fill="#172C4B"></path>
                <path d="M35.0754024,23.0393354 C34.9970742,23.0393354 34.9207043,23.0783799 34.8776238,23.149798 C34.2803719,24.1002076 34.2216258,25.3594414 34.695511,26.9995062 C34.8071285,27.3860271 34.9363699,27.7727441 35.081277,28.1488662 L35.1126082,28.2302906 C35.2222676,28.5149818 35.3260524,28.7839768 35.3358434,29.0576806 C35.3436762,29.2997957 35.2535988,29.5950819 35.0303637,29.7094685 C34.9148297,29.7689182 34.869791,29.9109695 34.9285371,30.0269257 C34.9892414,30.142882 35.130232,30.1887936 35.245766,30.1291478 C35.6041172,29.9453051 35.823436,29.517974 35.8058121,29.0404147 C35.7921047,28.6878371 35.6706961,28.368614 35.5512457,28.0601822 L35.5199145,27.979935 C35.380882,27.6161737 35.255557,27.2420137 35.1478559,26.8682461 C34.7131348,25.3649351 34.754257,24.2308791 35.2751391,23.4007422 C35.3436762,23.2904759 35.3123449,23.1448929 35.2007274,23.0756331 C35.1615633,23.0511076 35.1184828,23.0393354 35.0754024,23.0393354" id="path216" fill="#172C4B"></path>
                <path d="M69.0619756,76.8465669 C68.9953967,76.8465669 68.930776,76.8752126 68.8876956,76.9303458 C66.6122635,79.7831442 65.2082319,83.3104902 64.8263823,87.1309641 C64.4425745,90.9512418 65.1201128,94.6877407 66.7826272,97.9366739 C66.8394151,98.0461554 66.9725729,98.0895164 67.0822323,98.033206 C67.1918917,97.9770918 67.2349721,97.8426924 67.1781842,97.7332109 C63.8844866,91.2989144 64.7304303,82.8588298 69.2342975,77.2087585 C69.3106674,77.1124226 69.2950018,76.9721371 69.1990499,76.8954216 C69.1579276,76.8624594 69.1089725,76.8465669 69.0619756,76.8465669" id="path218" fill="#172C4B"></path>
                <path d="M34.10805,73.277822 C34.1060918,73.277822 34.1041336,73.277822 34.1021754,73.277822 C33.9788086,73.2813537 33.8808985,73.3839681 33.8848149,73.5071839 C34.0434293,78.9614441 33.2699391,84.3582167 31.5858844,89.5476022 C31.5486785,89.6645395 31.611341,89.7903059 31.7288332,89.8285656 C31.8463254,89.866629 31.9716504,89.8022743 32.0088563,89.685337 C33.7085766,84.4472931 34.4898996,78.9997038 34.329327,73.4942345 C34.3273688,73.3733731 34.2275004,73.277822 34.10805,73.277822" id="path220" fill="#172C4B"></path>
                <path d="M26.6022575,0.47260116 C26.5826754,0.47260116 26.5630934,0.474563195 26.5435114,0.480449299 C24.9417012,0.923869137 22.8307583,4.12590973 21.285736,8.44827213 C19.4234849,13.6633603 18.383679,20.5887541 21.0507516,24.384114 C21.1232052,24.4849626 21.2602794,24.5088994 21.3621059,24.43807 C21.4619743,24.3670443 21.4854727,24.2281323 21.4149774,24.1274799 C20.2792196,22.5103709 19.7602958,20.0639098 19.9149938,17.0517942 C20.0481516,14.4599464 20.6826095,11.4580333 21.7047915,8.59738677 C23.1793184,4.47122784 25.2178079,1.31038997 26.6610036,0.910134894 C26.780454,0.876780304 26.8489911,0.755134154 26.8176598,0.635450039 C26.790245,0.537348305 26.7001676,0.47260116 26.6022575,0.47260116" id="path222" fill="#172C4B"></path>
                <path d="M92.7072783,10.7948656 C92.7053201,10.7948656 92.7014037,10.7948656 92.6994455,10.7948656 L82.8947225,11.0656264 C81.0305131,11.1166393 79.101683,11.1696142 77.2198498,11.4599954 C76.1545873,11.6267683 75.0403698,11.8641745 73.8145346,12.1879102 C71.0847995,12.907977 67.9125104,14.9739995 65.7291139,16.5809059 C63.1579932,18.4744656 61.0803397,20.3790126 60.4302163,21.2099343 C60.1169038,21.6096008 59.7644272,22.0810777 59.5411921,22.6188714 C59.3649538,23.0477722 59.2690019,23.5200339 59.2690019,23.9844475 C59.2690019,24.1149229 59.3747448,24.2204803 59.5039862,24.2206765 L59.5039862,24.2206765 C59.6351858,24.2206765 59.7409288,24.1151191 59.7409288,23.9850362 C59.7409288,23.581838 59.8231733,23.1721652 59.9759132,22.7999672 C60.1776081,22.3169143 60.5065862,21.8762413 60.8003167,21.5011003 C61.9399909,20.0464477 68.9640655,13.9557035 73.933985,12.6431023 C75.1441545,12.3232906 76.2427065,12.0898085 77.2923033,11.9269596 C79.1447635,11.6405026 81.0579279,11.5875276 82.9064717,11.5365147 L92.7131529,11.267716 C92.8423943,11.2637919 92.946179,11.15588 92.94237,11.0244237 C92.9383462,10.8968914 92.8345615,10.7948656 92.7072783,10.7948656" id="path224" fill="#172C4B"></path>
                <path d="M72.3987538,15.8588771 C72.3635061,15.8588771 72.3263002,15.8686873 72.2930108,15.8863456 C65.9347253,19.1288041 59.3218733,25.6335377 58.6952483,26.5613839 C58.2311542,27.2498619 57.7494362,28.1449421 58.1371605,28.9629143 C58.1919901,29.0806364 58.3329808,29.1310607 58.450473,29.0749465 C58.5679651,29.0190285 58.6169202,28.8781544 58.5620905,28.7606286 C58.2761929,28.1582839 58.6913319,27.4101601 59.086889,26.8254738 C59.6782663,25.9470708 66.3381151,19.4521474 72.5064549,16.306221 C72.6219889,16.24736 72.6689858,16.1041315 72.6082815,15.9883714 C72.5671592,15.905966 72.4849147,15.8588771 72.3987538,15.8588771" id="path226" fill="#172C4B"></path>
                <path d="M73.0782502,18.976354 C73.0430026,18.976354 73.0077549,18.9843984 72.9725073,19.0010757 C70.1409456,20.410209 59.7154722,28.4892792 58.8205733,29.7734309 C58.7442034,29.8842858 58.6619589,29.9908243 58.5738398,30.1034451 C58.3623538,30.3726363 58.1449933,30.6512452 58.0157519,30.991462 C57.8042659,31.5463254 57.833639,32.1329738 58.0979964,32.5606973 C58.2252796,32.7680844 58.4308909,32.8500974 58.6090874,32.7647489 C58.7265796,32.708831 58.7755347,32.5679569 58.7187468,32.450431 C58.6776245,32.3633166 58.5934218,32.3109303 58.499428,32.3162278 C58.499428,32.3152468 58.499428,32.3142658 58.4974698,32.3132848 C58.3114405,32.009758 58.2957749,31.578699 58.4563476,31.160197 C58.5601323,30.8861007 58.7461616,30.6469287 58.9439401,30.3940224 C59.0320593,30.2814016 59.1221366,30.1648568 59.2082976,30.0434068 C59.9484983,28.979984 70.2506049,20.8820783 73.182035,19.4236979 C73.2995272,19.3658179 73.3465241,19.224159 73.2897362,19.1074179 C73.2486139,19.0244239 73.1644112,18.976354 73.0782502,18.976354" id="path228" fill="#172C4B"></path>
                <path d="M73.5305952,22.3198573 C73.4933893,22.3198573 73.4561834,22.3282941 73.422894,22.3461486 C70.0821995,24.0745049 66.6710096,26.5042887 64.0646413,29.0125538 C63.2010737,29.8432793 62.3081331,30.7024543 61.6619261,31.7574403 C61.4915624,32.0364417 61.3153241,32.3725382 61.3034676,32.7490527 C61.2996585,32.8793318 61.4034433,32.9880285 61.5326847,32.9917564 C61.5346429,32.9919526 61.5366011,32.9919526 61.5385593,32.9919526 C61.6658425,32.9919526 61.7715854,32.8909078 61.7755018,32.7629831 C61.7833347,32.4973236 61.9243253,32.2304869 62.0633577,32.0042643 C62.6782335,31.0008798 63.5496339,30.1628948 64.3916612,29.3527706 C66.9666983,26.8745246 70.3367659,24.4735828 73.6382963,22.7652392 C73.7538303,22.7055933 73.798869,22.5633458 73.7401229,22.4475858 C73.6970424,22.3663575 73.6147979,22.3198573 73.5305952,22.3198573" id="path230" fill="#172C4B"></path>
                <path d="M76.8987045,24.8037932 C76.8849971,24.8037932 76.8732479,24.8049704 76.8595405,24.8069325 C75.2910198,25.0633704 73.7440393,25.6356959 72.3830881,26.4621049 C72.2734288,26.5295989 72.2381811,26.6747895 72.30476,26.7860369 C72.3713389,26.8974804 72.5162459,26.9329933 72.6278635,26.8653031 C73.8811135,26.1032488 75.302769,25.5656513 76.7479229,25.3050931 C76.8105854,25.6382466 76.5481862,26.0439953 76.2466229,26.4646556 C75.3673897,27.6928893 74.8425912,29.1391051 74.7309737,30.6471249 C74.6683112,31.487072 74.8778389,32.0843153 75.3360584,32.374304 C75.4457178,32.4437601 75.592583,32.4106289 75.6611201,32.3005315 C75.7296573,32.1902652 75.698326,32.0446822 75.5867084,31.97503 C75.2048588,31.7338959 75.1656948,31.1388108 75.1989842,30.6822453 C75.3047272,29.2607512 75.8001526,27.8973333 76.6304307,26.7397328 C76.9633252,26.2753192 77.4646252,25.5738918 77.1043158,24.9246546 C77.0612354,24.8493124 76.9829072,24.8037932 76.8987045,24.8037932" id="path232" fill="#172C4B"></path>
                <path d="M99.9996267,7.94010515 C99.9976685,7.94010515 99.9937521,7.94010515 99.9917939,7.94010515 C99.8684271,7.94402922 99.7724751,8.04605503 99.7763915,8.16966321 C100.079913,17.1812885 96.2594587,24.8181161 88.7282095,30.2517749 C88.6283412,30.3237816 88.6048427,30.4630861 88.6772963,30.5629536 C88.7477916,30.6628212 88.886824,30.6855808 88.9866923,30.6135741 C90.0225818,29.8674123 93.1713724,27.596161 95.8423615,23.6948512 C98.942197,19.1666714 100.416724,13.9380452 100.220904,8.15396693 C100.216987,8.03428282 100.119077,7.94010515 99.9996267,7.94010515" id="path234" fill="#172C4B"></path>
                <path d="M23.5729173,23.8233645 C23.0030801,23.8233645 22.4567415,23.8557381 21.9593579,23.9214662 C20.3262165,24.1368976 17.9078356,25.0796553 16.9816056,25.8615261 C16.8876118,25.9407923 16.8758626,26.0816664 16.9561489,26.1756479 C17.0344771,26.2698255 17.1754677,26.2815977 17.2694614,26.2025278 C18.1447782,25.4638217 20.4515415,24.5701149 22.0161458,24.3635126 C23.4985055,24.1678978 25.4155864,24.2795376 27.1427215,24.6623305 C27.2641301,24.6896028 27.3816223,24.6130835 27.4090372,24.4928107 C27.4344938,24.372538 27.3581239,24.2536387 27.2386735,24.2271512 C26.0422114,23.9616879 24.7537137,23.8233645 23.5729173,23.8233645" id="path236" fill="#172C4B"></path>
                <path d="M33.5225473,30.5921879 C33.4207207,30.5921879 33.326727,30.6579161 33.2953957,30.7601381 L23.7902778,61.6170575 C23.7687376,61.6882794 23.7804868,61.7657798 23.8235673,61.8264066 C23.8686059,61.8868373 23.937143,61.9235273 24.0115548,61.925097 L67.1018143,62.9411076 C67.2349721,62.9441778 67.3407151,62.8399937 67.3446588,62.7087336 C67.3465897,62.5772773 67.2428049,62.4681882 67.1116053,62.4650489 L24.3366165,61.4565631 L33.7496989,30.9006198 C33.7869047,30.7750496 33.7183676,30.6416312 33.5930426,30.6029791 C33.5695442,30.5957196 33.5460457,30.5921879 33.5225473,30.5921879" id="path394" fill="#172C4B"></path>
                <path d="M31.8737403,27.9255866 C31.7777883,27.9255866 31.6857528,27.9858211 31.6505051,28.0827456 L18.3445149,64.9075859 C18.3190583,64.9792001 18.3288493,65.0588588 18.3699716,65.1218401 C18.413052,65.1850176 18.4835474,65.2238659 18.5579591,65.2266127 L56.0712562,66.6236038 C56.1809155,66.6280941 56.2788257,66.5562836 56.310157,66.4509224 L57.322548,62.8953231 C57.3597538,62.7689681 57.2853421,62.6373156 57.1600171,62.6010179 C57.0346921,62.5651127 56.9015343,62.6381004 56.8662866,62.7646516 L55.9028507,66.1405285 L18.9026028,64.7629839 L32.0989336,28.2448096 C32.1420141,28.1212015 32.0793516,27.9846439 31.9559848,27.9399095 C31.92857,27.9302955 31.9011551,27.9255866 31.8737403,27.9255866" id="path396" fill="#172C4B"></path>
            </g>
        </g>
    </g>
</svg>