
<svg width="196px" height="258px" viewBox="0 0 196 258" version="1.1" xmlns="http://www.w3.org/2000/svg" xmlns:xlink="http://www.w3.org/1999/xlink">
    <g id="Splash-Screens" stroke="none" stroke-width="1" fill="none" fill-rule="evenodd">
        <g id="Reslocate-Splash-Screen-1" transform="translate(-97, -308)" fill-rule="nonzero">
            <g id="Student" transform="translate(97, 308)">
                <g id="Books" transform="translate(59.4181, 198.4219) scale(1, -1) translate(-59.4181, -198.4219)translate(0, 160.1545)">
                    <polyline id="path156" fill="#273542" points="108.566968 13.9245276 118.73697 24.4675887 118.73697 25.5613521 108.645108 15.414908 108.566968 13.9245276"></polyline>
                    <path d="M108.097517,26.8534239 C108.070383,26.8534239 108.043248,26.8656904 108.023662,26.8861346 C107.987142,26.927023 107.990611,26.9903999 108.031211,27.0271994 L118.670868,36.5746292 C118.711468,36.6114287 118.774102,36.6093843 118.810826,36.5684959 C118.847345,36.5276076 118.843877,36.4642306 118.803073,36.4274311 L108.16362,26.8800014 C108.144646,26.8616016 108.12098,26.8534239 108.097517,26.8534239" id="path158" fill="#273542"></path>
                    <path d="M108.252981,23.8706188 C108.219522,23.8706188 108.186266,23.8869741 108.167292,23.915596 C108.150767,23.940129 108.137505,23.9605732 108.215237,24.0607496 L108.215237,24.0607496 C108.215441,24.0607496 108.215441,24.0607496 108.215645,24.0607496 C108.44374,24.3551457 109.44854,25.3344217 113.406533,29.1411271 C116.034518,31.6680272 118.668623,34.1867495 118.668623,34.1867495 C118.707999,34.223549 118.770838,34.223549 118.808581,34.1826607 C118.846529,34.1438168 118.845101,34.0804398 118.805317,34.0415959 C115.99759,31.3593201 108.72692,24.3899008 108.347238,23.9360402 C108.338261,23.9115071 108.319083,23.8890186 108.292561,23.8787965 C108.279912,23.8726632 108.266446,23.8706188 108.252981,23.8706188" id="path160" fill="#273542"></path>
                    <path d="M108.488624,20.6874607 C108.463122,20.6874607 108.437619,20.6976828 108.418237,20.7160826 C108.379677,20.7569709 108.380086,20.8183035 108.419053,20.8571474 L118.667399,31.0015471 C118.706367,31.040391 118.769001,31.040391 118.807561,31.0015471 C118.845917,30.9627031 118.845713,30.8993262 118.806541,30.8604823 L108.558399,20.7160826 C108.539017,20.6976828 108.513719,20.6874607 108.488624,20.6874607" id="path162" fill="#273542"></path>
                    <path d="M108.175657,17.0075092 C108.150359,17.0075092 108.124856,17.0177313 108.105474,17.0361311 C108.066914,17.074975 108.066914,17.138352 108.105882,17.1771959 L118.666991,27.720257 C118.705755,27.7591009 118.768593,27.7591009 118.807153,27.720257 C118.845713,27.681413 118.845713,27.6180361 118.806949,27.5791922 L108.245636,17.0361311 C108.226458,17.0177313 108.200956,17.0075092 108.175657,17.0075092" id="path164" fill="#273542"></path>
                    <polyline id="path166" fill="#172C4B" points="107.628067 18.798419 12.2249263 12.2337944 1.31167832 29.8382735 87.092407 34.0150185 107.628067 18.798419"></polyline>
                    <polyline id="path168" fill="#273542" points="108.566968 29.738097 118.73697 38.1917634 25.2503962 39.8824967 10.2300162 34.9104733 108.566968 29.738097"></polyline>
                    <polyline id="path170" fill="#FFFFFF" points="109.049272 37.4128404 107.23696 34.0988396 106.963165 44.0612861 109.192698 44.9056305 109.049272 37.4128404"></polyline>
                    <path d="M107.289189,43.5890256 C107.255118,43.5890256 107.222883,43.6094698 107.209009,43.6421805 C107.190239,43.6871577 107.211253,43.7382681 107.255526,43.7566679 L108.943998,44.4640363 C108.98827,44.4824361 109.039275,44.4619919 109.057841,44.4170147 C109.076407,44.3720375 109.055393,44.3209271 109.01112,44.3025274 L107.322648,43.5951589 C107.311835,43.5910701 107.30041,43.5890256 107.289189,43.5890256" id="path172" fill="#273542"></path>
                    <path d="M107.302246,41.8369598 C107.270827,41.8369598 107.240428,41.8533152 107.224923,41.8839814 C107.202889,41.9269142 107.219414,41.9800691 107.262054,42.0025577 L108.904826,42.8571242 C108.94767,42.8796128 108.999899,42.8632574 109.022137,42.8203247 C109.044376,42.7773919 109.027646,42.724237 108.98521,42.7017484 L107.342234,41.8471819 C107.329381,41.8410487 107.315712,41.8369598 107.302246,41.8369598" id="path174" fill="#273542"></path>
                    <path d="M107.197992,39.9949397 C107.168613,39.9949397 107.139846,40.0092506 107.123525,40.035828 C107.09843,40.0787608 107.111488,40.1319156 107.152496,40.1564487 L108.886668,41.2175013 C108.92788,41.2420343 108.981333,41.2297678 109.006224,41.1888795 C109.031318,41.1479911 109.018261,41.0927919 108.977253,41.0682589 L107.243081,40.0072062 C107.229003,39.9990285 107.213294,39.9949397 107.197992,39.9949397" id="path176" fill="#273542"></path>
                    <path d="M107.23696,37.905545 C107.213498,37.905545 107.190239,37.9157671 107.173102,37.9341668 C107.140458,37.9689219 107.142499,38.0241212 107.177794,38.0568319 L108.925024,39.6821438 C108.960319,39.7148545 109.015201,39.7128101 109.048048,39.678055 C109.080487,39.6412554 109.078447,39.5860562 109.043355,39.5533455 L107.296126,37.930078 C107.279396,37.9137226 107.258178,37.905545 107.23696,37.905545" id="path178" fill="#273542"></path>
                    <path d="M107.288985,35.8509054 C107.271235,35.8509054 107.253282,35.8570386 107.237776,35.8672607 C107.199012,35.8958826 107.190647,35.9510818 107.219006,35.9899258 L108.900745,38.2939843 C108.929104,38.3328282 108.983373,38.3410059 109.022545,38.3123841 C109.061105,38.2837622 109.069674,38.2285629 109.041315,38.189719 L107.359372,35.8856605 C107.342234,35.8631719 107.315916,35.8509054 107.288985,35.8509054" id="path180" fill="#273542"></path>
                    <polyline id="path182" fill="#273542" points="107.3151 44.8770087 109.173112 46.1997468 9.09566351 46.9439148 7.33537666 44.8770087 107.3151 44.8770087"></polyline>
                    <polyline id="path184" fill="#002081" points="7.33537666 35.452244 107.243489 34.0150185 107.3151 44.8770087 7.33537666 44.8770087 7.33537666 35.452244"></polyline>
                    <polyline id="path186" fill="#172C4B" points="12.2261505 0 1.25944913 22.5110812 1.2551647 23.5026236 12.2249263 2.38583523 12.2261505 0"></polyline>
                    <path d="M12.8508605,10.2445761 C12.8178092,10.2445761 12.785574,10.2609315 12.7668042,10.2895533 L1.26679386,28.6402448 C1.23761896,28.6872664 1.25158191,28.748599 1.29800896,28.7772208 C1.34432156,28.8058427 1.40573166,28.7935762 1.43470254,28.7465546 L12.9347128,10.395863 C12.9638877,10.3488414 12.9499248,10.2875089 12.9034977,10.258887 C12.8871761,10.248665 12.8688143,10.2445761 12.8508605,10.2445761" id="path188" fill="#273542"></path>
                    <path d="M12.6162372,9.15081276 C12.5827779,9.15081276 12.5503387,9.1671681 12.5315688,9.19783436 L0.875074948,28.2947383 C0.846512111,28.3397155 0.86120157,28.401048 0.907922211,28.4296698 C0.954438832,28.4603361 1.01564491,28.4439808 1.04420775,28.3969592 L12.7007016,9.30209965 C12.7292644,9.25507805 12.714575,9.19374552 12.6678543,9.16512368 C12.6517367,9.15490159 12.633783,9.15081276 12.6162372,9.15081276" id="path190" fill="#273542"></path>
                    <path d="M12.7335489,6.81199913 C12.6996815,6.81199913 12.6664262,6.83039889 12.6480644,6.86106515 L0.482947998,27.5996363 C0.455201242,27.6466579 0.471114823,27.7079905 0.518243504,27.7345679 C0.565576206,27.7631897 0.626170224,27.7468344 0.653916981,27.6998128 L12.8190334,6.96328603 C12.8467801,6.91422 12.8308665,6.8549319 12.7837378,6.82631005 C12.7678243,6.81608796 12.7506866,6.81199913 12.7335489,6.81199913" id="path192" fill="#273542"></path>
                    <path d="M12.8116886,4.12767894 C12.7770052,4.12767894 12.7431378,4.1460787 12.72498,4.17878938 L0.0124772658,27.0537769 C-0.0140453688,27.1028429 0.00309233354,27.162131 0.0508330757,27.1887084 C0.0985738178,27.2152858 0.158963816,27.1989305 0.185690471,27.1519089 L12.8981932,4.274877 C12.9249199,4.2278554 12.9077822,4.16652288 12.8598374,4.13994545 C12.8447399,4.13176778 12.8280102,4.12767894 12.8116886,4.12767894" id="path194" fill="#273542"></path>
                    <polyline id="path196" fill="#008E5D" points="107.628067 18.798419 107.628067 8.20424745 12.2261505 0 11.990303 13.8734172 107.038448 18.798419 107.628067 18.798419"></polyline>
                    <polyline id="path198" fill="#339FA3" points="10.2300162 19.0969039 108.566968 13.9245276 108.566968 29.738097 10.2300162 34.9104733 10.2300162 19.0969039"></polyline>
                    <path d="M106.063639,20.9859457 C106.060987,20.9859457 106.058539,20.9859457 106.055887,20.9859457 L51.4504747,25.1626907 C51.3957972,25.1667795 51.3549932,25.2158455 51.3587924,25.2710448 C51.363358,25.3241996 51.4102827,25.3630436 51.4655722,25.3609992 L106.070984,21.1842542 C106.125662,21.1801654 106.166466,21.1331438 106.162666,21.0779445 C106.158305,21.0247896 106.114849,20.9859457 106.063639,20.9859457" id="path218" fill="#273542"></path>
                    <path d="M6.8465441,71.7529212 C6.81757322,71.7529212 6.78921441,71.7672321 6.77248474,71.7938096 L4.73860672,75.017856 C4.71290016,75.0587443 4.72514732,75.1118992 4.76574141,75.1384766 C4.80674949,75.165054 4.86061084,75.1527875 4.88652141,75.1118992 L6.92039944,71.8878528 C6.94631001,71.8469644 6.93406879,71.7938096 6.89326474,71.7672321 C6.8787793,71.75701 6.8626617,71.7529212 6.8465441,71.7529212" id="path222" fill="#273542"></path>
                    <path d="M6.89877329,69.8454797 C6.86796623,69.8454797 6.83797525,69.861835 6.82206167,69.8904569 L4.69678256,73.7462283 C4.67352425,73.7871166 4.68882577,73.8423159 4.73105797,73.8648045 C4.77349418,73.8893375 4.82653945,73.8729822 4.84979776,73.8300494 L6.97528089,69.9763224 C6.9985392,69.9333896 6.98323768,69.8802348 6.94100548,69.8557018 C6.92754015,69.8495685 6.91305471,69.8454797 6.89877329,69.8454797" id="path224" fill="#273542"></path>
                    <path d="M6.92488788,67.5761762 C6.89142856,67.5761762 6.85980542,67.594576 6.84511596,67.6272867 L4.65455037,72.4746006 C4.6347604,72.5195778 4.65434635,72.5706882 4.6982107,72.5911324 C4.7424831,72.6115766 4.79410023,72.5911324 4.81389019,72.5481996 L7.00445579,67.7008857 C7.02424575,67.6559085 7.00486383,67.6047981 6.96079545,67.5843539 C6.94916629,67.5782207 6.93692508,67.5761762 6.92488788,67.5761762" id="path226" fill="#273542"></path>
                    <path d="M6.97691305,63.7592488 C6.93957734,63.7592488 6.90509792,63.7837818 6.89346876,63.8205813 L4.650878,71.0148865 C4.63639256,71.0619081 4.66209912,71.1109741 4.7082077,71.125285 C4.75431628,71.139596 4.80328114,71.1150629 4.81776658,71.0680413 L7.06035734,63.8737361 C7.07484278,63.8267145 7.04913622,63.7776485 7.00302764,63.7633376 C6.99425477,63.7612932 6.9854819,63.7592488 6.97691305,63.7592488" id="path228" fill="#273542"></path>
                    <polyline id="path230" fill="#273542" points="110.972571 73.4600098 108.339077 75.0362557 4.65597851 76.5348138 6.53357701 73.5172535 56.9928892 72.9305057 110.972571 73.3945885 110.972571 73.4600098"></polyline>
                    <polyline id="path232" fill="#273542" points="4.65638655 69.8045913 6.53337299 61.2180378 6.5384735 63.0559691 4.87978874 69.8250355 4.65638655 69.8045913"></polyline>
                    <polyline id="path234" fill="#1289AC" points="6.53357701 61.2180378 110.972571 61.2180378 110.972571 73.4600098 6.53357701 73.5172535 6.53357701 61.2180378"></polyline>
                    <polyline id="path236" fill="#C5C635" points="13.8091437 46.0995703 108.156071 46.0995703 108.156071 61.4163463 13.8091437 61.4163463 13.8091437 46.0995703"></polyline>
                    <polyline id="path238" fill="#273542" points="24.4161573 45.9237504 24.2180536 45.9237504 24.2180536 61.4449681 24.4161573 61.4449681 24.4161573 45.9237504"></polyline>
                    <polyline id="path240" fill="#273542" points="25.4778788 45.9237504 25.2797751 45.9237504 25.2797751 61.4449681 25.4778788 61.4449681 25.4778788 45.9237504"></polyline>
                    <polyline id="path242" fill="#273542" points="26.5393962 45.9237504 26.3412925 45.9237504 26.3412925 61.4449681 26.5393962 61.4449681 26.5393962 45.9237504"></polyline>
                    <polyline id="path244" fill="#273542" points="27.6011177 45.9237504 27.403014 45.9237504 27.403014 61.4449681 27.6011177 61.4449681 27.6011177 45.9237504"></polyline>
                    <polyline id="path246" fill="#273542" points="28.6626351 45.9237504 28.4645314 45.9237504 28.4645314 61.4449681 28.6626351 61.4449681 28.6626351 45.9237504"></polyline>
                    <polyline id="path248" fill="#273542" points="29.7241526 45.9237504 29.5262529 45.9237504 29.5262529 61.4449681 29.7241526 61.4449681 29.7241526 45.9237504"></polyline>
                    <polyline id="path250" fill="#273542" points="30.785874 45.9237504 30.5877703 45.9237504 30.5877703 61.4449681 30.785874 61.4449681 30.785874 45.9237504"></polyline>
                    <polyline id="path252" fill="#273542" points="31.8475955 45.9237504 31.6494918 45.9237504 31.6494918 61.4449681 31.8475955 61.4449681 31.8475955 45.9237504"></polyline>
                    <polyline id="path254" fill="#273542" points="32.9091129 45.9237504 32.7110092 45.9237504 32.7110092 61.4449681 32.9091129 61.4449681 32.9091129 45.9237504"></polyline>
                    <polyline id="path256" fill="#273542" points="33.9706304 45.9237504 33.7727307 45.9237504 33.7727307 61.4449681 33.9706304 61.4449681 33.9706304 45.9237504"></polyline>
                    <polyline id="path258" fill="#273542" points="35.0323518 45.9237504 34.8342481 45.9237504 34.8342481 61.4449681 35.0323518 61.4449681 35.0323518 45.9237504"></polyline>
                    <polyline id="path260" fill="#273542" points="36.0938693 45.9237504 35.8957656 45.9237504 35.8957656 61.4449681 36.0938693 61.4449681 36.0938693 45.9237504"></polyline>
                    <polyline id="path262" fill="#273542" points="37.1555907 45.9237504 36.957487 45.9237504 36.957487 61.4449681 37.1555907 61.4449681 37.1555907 45.9237504"></polyline>
                    <polyline id="path264" fill="#273542" points="38.2171082 45.9237504 38.0192085 45.9237504 38.0192085 61.4449681 38.2171082 61.4449681 38.2171082 45.9237504"></polyline>
                    <polyline id="path266" fill="#273542" points="39.2788296 45.9237504 39.080726 45.9237504 39.080726 61.4449681 39.2788296 61.4449681 39.2788296 45.9237504"></polyline>
                    <polyline id="path268" fill="#273542" points="40.3403471 45.9237504 40.1422434 45.9237504 40.1422434 61.4449681 40.3403471 61.4449681 40.3403471 45.9237504"></polyline>
                    <polyline id="path270" fill="#273542" points="41.4020685 45.9237504 41.2039649 45.9237504 41.2039649 61.4449681 41.4020685 61.4449681 41.4020685 45.9237504"></polyline>
                    <polyline id="path272" fill="#273542" points="104.362722 53.6516486 44.7424923 53.6516486 44.7424923 53.8499571 104.362722 53.8499571 104.362722 53.6516486"></polyline>
                </g>
                <g id="Student-1" transform="translate(109.9923, 129) scale(1, -1) translate(-109.9923, -129)translate(23.9847, 0)">
                    <path d="M61.5347563,116.224797 C58.3012391,110.14061 54.6280583,103.968514 48.8006274,99.9614557 C47.2106975,98.8697368 45.4881544,97.959971 43.7235831,97.142204 C36.6167412,93.8506918 28.4985708,92.0413823 20.7629384,93.4765634 C17.6830485,94.0490003 14.4513675,94.6786809 11.5828425,95.8746651 C6.99871119,97.7861955 1.89412415,99.9594113 0,104.761748 C8.35054947,105.512049 16.6447893,108.347656 24.7723447,110.340963 C30.7574832,111.808855 36.7581272,113.654964 41.829867,117.015987 C47.5002022,120.771581 51.9268299,126.35693 58.359997,128.761165 C60.6507365,129.615732 63.0804138,130.022571 65.4645947,130.560253 C66.6452599,130.828071 67.8253132,131.110201 68.9676226,131.504773 C69.8965269,131.825747 71.005173,132.610803 71.9524391,132.53516 C67.7804287,127.366872 64.6215829,122.035032 61.5347563,116.224797" id="path274" fill="#172C4B"></path>
                    <path d="M40.7738581,198.073052 C40.8342481,197.991275 40.8844371,197.927898 40.9178964,197.889054 C43.339617,195.174068 46.3274938,192.925209 49.6650613,191.473672 L48.1730611,196.55405 C45.5324268,196.813691 42.927088,197.46586 40.8823969,198.042386 C40.8462853,198.052608 40.8101737,198.06283 40.7738581,198.073052" id="path276" fill="#172C4B"></path>
                    <path d="M58.9398225,207.520305 C58.5270896,208.646779 57.9872519,209.728276 57.333571,210.734129 C56.8133193,211.535541 56.226557,212.310375 55.5979706,213.052499 C54.4762672,214.379326 53.2209305,215.608021 51.9719184,216.709962 C48.8757069,219.441304 45.2092587,221.741273 41.3194083,223.36863 C40.5626971,222.330066 39.6572552,221.442788 38.6873429,220.84173 C36.2454243,219.330905 33.1755314,219.038553 31.1290041,216.873515 C29.8100131,215.477178 29.8612221,213.261029 30.4069764,211.419009 C30.9633396,209.54019 32.2613165,207.209554 33.645594,205.614908 C33.3467044,205.516776 33.0157835,205.316423 32.6334495,204.989316 C32.0281214,204.472079 31.5890698,203.711555 31.5294959,202.893788 C31.4819591,202.23753 31.6461954,201.632383 31.9579384,201.088568 C32.8566477,199.526633 35.0021248,198.506468 36.9931586,198.404247 L39.1100728,178.467088 C39.4895505,174.891402 42.5231279,172.192771 46.1110283,172.239792 C50.0225048,172.290903 52.974678,175.508816 52.974678,179.190812 C52.974678,179.840936 52.8832769,180.505372 52.6886416,181.167763 L49.6650613,191.473672 C46.3274938,192.925209 43.339617,195.174068 40.9178964,197.889054 C40.8844371,197.927898 40.8342481,197.991275 40.7738581,198.073052 C40.8101737,198.06283 40.8462853,198.052608 40.8823969,198.042386 C42.927088,197.46586 45.5324268,196.813691 48.1730611,196.55405 C51.696083,196.206499 55.2819432,196.55405 57.6834658,198.71091 C58.8549501,199.761741 59.5074069,201.315498 59.6557297,202.885611 C59.8040524,204.455723 59.4812923,206.040147 58.9398225,207.520305" id="path278" fill="#F0A258"></path>
                    <path d="M31.5294959,202.893788 C31.5890698,203.711555 32.0281214,204.472079 32.6334495,204.989316 C33.0157835,205.316423 33.3467044,205.516776 33.645594,205.614908 C32.2613165,207.209554 30.9633396,209.54019 30.4069764,211.419009 C29.8612221,213.261029 29.8100131,215.477178 31.1290041,216.873515 C33.1755314,219.038553 36.2454243,219.330905 38.6873429,220.84173 C39.6572552,221.442788 40.5626971,222.330066 41.3194083,223.36863 C42.7349009,225.312871 43.6285097,227.794794 43.4412191,229.945521 C43.330028,231.223282 42.7377572,232.539887 41.608097,233.140945 C40.4786408,233.742004 38.8066947,233.302454 38.4106914,232.083981 C38.4355818,233.206367 37.5358525,234.308308 36.4200656,234.390084 C35.3044828,234.471861 34.2148106,233.396497 34.3861876,232.288423 C34.2417413,233.306543 32.8654206,233.80947 31.9758922,233.296321 C31.0863638,232.785217 30.7552389,231.591277 31.0035316,230.593601 C30.6985213,231.337769 30.0381077,231.944961 29.2520176,232.108514 C28.4710281,232.267979 27.6123068,231.963361 27.1073566,231.343902 C26.6024064,230.726488 26.4734656,229.822856 26.7854126,229.086865 C26.1088814,229.450772 25.3148345,229.8249 24.604844,229.530504 C23.8079409,229.201353 23.5394502,228.191411 23.5867829,227.328666 C23.6339116,226.465922 23.8879168,225.595 23.7055227,224.750656 C23.6049407,224.284529 23.376642,223.857245 23.1534439,223.436095 C21.4455902,220.214093 19.8442351,216.599563 20.6072709,213.03001 C20.8055786,212.103889 21.1591458,211.216612 21.5608617,210.357957 C22.8082416,207.694081 24.5668963,205.224424 26.9084368,203.447825 C28.3977848,202.315218 30.1364455,201.48314 31.9579384,201.088568 C31.6461954,201.632383 31.4819591,202.23753 31.5294959,202.893788" id="path280" fill="#00E4BA"></path>
                    <path d="M44.1501895,216.352189 C44.1501895,215.80224 44.5947496,215.356557 45.1433601,215.356557 C45.6919706,215.356557 46.1367348,215.80224 46.1367348,216.352189 C46.1367348,216.902137 45.6919706,217.34782 45.1433601,217.34782 C44.5947496,217.34782 44.1501895,216.902137 44.1501895,216.352189" id="path282" fill="#172C4B"></path>
                    <path d="M38.9850084,209.583122 C38.9850084,209.033174 39.4295686,208.587491 39.9781791,208.587491 C40.5267896,208.587491 40.9715537,209.033174 40.9715537,209.583122 C40.9715537,210.133071 40.5267896,210.578754 39.9781791,210.578754 C39.4295686,210.578754 38.9850084,210.133071 38.9850084,209.583122" id="path284" fill="#172C4B"></path>
                    <path d="M49.9286555,208.875754 C49.7738041,208.875754 49.6328261,208.982064 49.5936542,209.139484 C49.5475456,209.325526 49.6603688,209.511568 49.8456192,209.558589 C50.7373918,209.781431 51.665684,210.047205 52.3552725,210.652353 C52.9526438,211.177768 53.3763939,212.110022 53.0307836,212.880768 C52.6804808,213.659691 51.7122006,213.947954 50.9893568,213.958176 C50.3995342,213.968398 49.8082835,213.845733 49.1878579,213.716935 C48.8838677,213.655602 48.5696765,213.590181 48.2544652,213.541115 C47.2425246,213.387783 46.2185469,213.40005 45.2110949,213.584047 C44.5810803,213.698535 44.0908196,213.857999 43.6678856,214.086974 C42.6904245,214.616478 41.9769656,215.628465 41.8057926,216.730406 C41.6348236,217.830303 42.0071606,219.011976 42.7775411,219.813388 C42.9099503,219.952408 43.128864,219.956497 43.2661697,219.82361 C43.4036793,219.690723 43.4077597,219.47197 43.2755546,219.334994 C42.6516606,218.684869 42.3501187,217.728082 42.4886484,216.836716 C42.6271782,215.94535 43.2049636,215.125538 43.9965622,214.696211 C44.3531896,214.501991 44.7783679,214.365015 45.3341191,214.264838 C46.2662877,214.095152 47.2135538,214.082885 48.1502108,214.225995 C48.4474683,214.270972 48.7528867,214.334349 49.048104,214.395681 C49.6777105,214.526524 50.3297593,214.659411 50.9991498,214.651233 C51.9247897,214.638967 53.1772701,214.240305 53.6610022,213.164942 C54.1669725,212.036423 53.5747016,210.801595 52.8104417,210.133071 C52.0047657,209.425702 50.9436563,209.11904 50.0125078,208.885976 C49.984353,208.879843 49.9564022,208.875754 49.9286555,208.875754" id="path286" fill="#172C4B"></path>
                    <path d="M38.1611746,206.600317 C38.0775263,206.600317 37.9936739,206.628939 37.9271633,206.690272 C36.8183132,207.714525 36.2650102,209.337792 36.5175873,210.828173 C36.6510166,211.615273 37.0119284,212.199977 37.5338123,212.475973 C37.702741,212.565928 37.9118618,212.500506 38.0006106,212.330819 C38.0895635,212.161133 38.024889,211.952602 37.8561643,211.862648 C37.4146644,211.629584 37.2549166,211.040792 37.199015,210.711641 C36.9845897,209.448191 37.4542444,208.068209 38.3953899,207.201376 C38.5357558,207.070533 38.5447327,206.851781 38.4153838,206.710716 C38.3472411,206.637117 38.2544118,206.600317 38.1611746,206.600317" id="path288" fill="#172C4B"></path>
                    <path d="M56.1504575,206.610539 C56.9695988,203.938486 53.800348,201.777536 51.5657141,203.456003 C51.0574996,203.838309 50.819816,204.64381 51.2378535,205.124248 C52.3071237,204.858474 53.5216564,205.57402 53.809733,206.639161 C53.9262285,207.070533 53.9521391,207.606171 54.3418178,207.822879 C55.1442295,208.272651 55.9460292,207.274975 56.1504575,206.610539" id="path290" fill="#172C4B"></path>
                    <path d="M37.6223571,201.642605 C37.5782887,201.642605 37.5332002,201.650782 37.4899479,201.669182 C36.7471101,201.977889 36.1001619,202.48286 35.6192861,203.128896 C35.5052388,203.282228 35.5366579,203.498936 35.6896731,203.613423 C35.8422802,203.727911 36.0591538,203.6952 36.1732011,203.541869 C36.5798135,202.996009 37.1267918,202.57077 37.7547662,202.309085 C37.9310397,202.235486 38.014688,202.033089 37.9416488,201.857269 C37.8863593,201.722337 37.7578265,201.642605 37.6223571,201.642605" id="path294" fill="#172C4B"></path>
                    <path d="M29.658018,215.258425 C29.6045646,215.258425 29.5504993,215.270692 29.4999023,215.297269 C29.3303614,215.385179 29.2636468,215.59371 29.3511715,215.763396 C30.0456565,217.114756 31.4140204,218.22692 33.2038902,218.899533 C34.3635414,219.334994 35.5435946,219.570102 36.6846799,219.797032 C39.1914769,220.297915 41.5591321,220.768131 43.1704842,223.321608 C44.5961778,225.578645 45.1878366,228.383586 44.7147136,230.642667 C44.6755417,230.828709 44.7950975,231.012707 44.9817761,231.051551 C45.1678426,231.092439 45.3518688,230.971818 45.3910407,230.785776 C45.907416,228.320209 45.2955593,225.390559 43.7543902,222.949524 C41.9847184,220.148672 39.4756772,219.64779 36.8197413,219.118286 C35.7053827,218.895444 34.5534842,218.666469 33.4462662,218.249408 C31.8173684,217.640172 30.5812097,216.642496 29.9652725,215.446512 C29.9040664,215.327936 29.7832864,215.258425 29.658018,215.258425" id="path296" fill="#172C4B"></path>
                    <path d="M21.8103784,217.640172 C21.6312487,217.640172 21.4796616,217.779192 21.4664003,217.961145 C21.3919329,218.973132 21.5249541,220.01374 21.8509785,220.972572 C21.916265,221.164748 21.9893042,221.352834 22.0623435,221.542965 C22.148644,221.765806 22.2300481,221.976381 22.299415,222.19309 C22.8417009,223.889956 22.5301619,225.838286 21.4861902,227.2796 C21.3739791,227.432932 21.4082545,227.64964 21.5626978,227.762083 C21.7171412,227.874526 21.9331986,227.841815 22.0452058,227.686439 C23.2162821,226.069305 23.5657688,223.883823 22.9573804,221.982515 C22.8818929,221.747407 22.79294,221.516387 22.7068435,221.293546 C22.6372726,221.113637 22.5672936,220.931684 22.5052715,220.749731 C22.20883,219.876765 22.087846,218.930199 22.1553767,218.012256 C22.1694541,217.822125 22.0266399,217.656527 21.836289,217.642216 C21.8277202,217.642216 21.8189473,217.640172 21.8103784,217.640172" id="path298" fill="#172C4B"></path>
                    <path d="M24.655033,208.550692 C24.5709767,208.550692 24.4869203,208.581358 24.4204097,208.64269 C22.1637415,210.734129 20.2506435,212.680415 19.6955044,215.319758 C19.3988589,216.728362 19.5541183,218.167631 19.7042772,219.555791 C19.8177125,220.606622 19.9350242,221.690163 19.8495397,222.73486 C19.8340341,222.924991 19.9754202,223.092633 20.1657711,223.108989 C20.3544898,223.1233 20.5226025,222.982235 20.5383121,222.792104 C20.6291011,221.681985 20.5083211,220.563689 20.3914175,219.482192 C20.2404425,218.08381 20.0976283,216.765161 20.3716275,215.462867 C20.8849425,213.021833 22.7213289,211.161413 24.8896563,209.15175 C25.0298182,209.020908 25.0383871,208.802155 24.9086302,208.66109 C24.8406914,208.587491 24.7478622,208.550692 24.655033,208.550692" id="path300" fill="#172C4B"></path>
                    <path d="M171.856063,9.28131723 C171.83158,9.52460291 171.796897,9.76584418 171.762213,10.005041 C171.448022,12.1414573 171.042022,14.2656071 170.548293,16.3693127 C170.434041,16.8558841 170.305509,17.354722 170.125971,17.8269824 C168.369356,2.84753534 122.872225,16.0708278 114.930736,18.7674145 C111.247762,20.018598 105.467664,20.7750324 103.424809,24.3057415 C102.571597,25.7797665 102.555683,27.5522765 102.876199,29.2573207 C99.8860778,24.7187138 96.9206432,17.7349836 101.494778,13.2965532 C102.664222,12.1619015 104.122355,11.3768452 105.5862,10.6633435 C114.163008,6.47842083 123.421856,3.70414627 132.771492,1.89892561 C144.735445,-0.413310586 156.564744,-1.58885065 167.638964,4.23365041 C168.695789,4.78768755 171.254203,6.29442325 171.682645,7.40863079 C171.911148,8.00151187 171.917269,8.64345897 171.856063,9.28131723" id="path302" fill="#F9EDED"></path>
                    <path d="M103.424809,24.3057415 C105.467664,20.7750324 111.247762,20.018598 114.930736,18.7674145 C122.872225,16.0708278 168.369356,2.84753534 170.125971,17.8269824 C170.197378,18.4382632 170.195338,19.0945213 170.11577,19.8018897 C169.699568,23.524774 164.411363,25.3851939 160.767561,26.2234051 C157.125799,27.0616163 153.288178,26.8346859 149.68314,27.8221396 C142.453274,29.8011357 136.918204,36.4209596 129.563682,37.563789 C129.387204,37.5924108 129.210727,37.6189883 129.032005,37.6394325 C126.921619,37.8888514 124.778998,37.6496545 122.664736,37.862274 C119.82049,38.146448 116.756514,39.8494478 114.267466,41.0392988 C113.789243,41.2682735 113.287965,41.4134272 112.781791,41.4808929 C111.209611,41.6914679 109.59071,41.1476529 108.473087,39.9373577 C106.027496,37.2877926 103.960975,33.2582457 103.220177,30.6925018 C103.085116,30.2243302 102.9676,29.743892 102.876199,29.2573207 C102.555683,27.5522765 102.571597,25.7797665 103.424809,24.3057415" id="path304" fill="#00E4BA"></path>
                    <path d="M68.9321231,53.2076718 C68.9566055,53.2526489 68.9794558,53.2955817 69.0047543,53.3385145 C69.8128786,54.7368961 64.5779226,62.1581316 59.8552615,65.5661756 C58.2045335,66.7560266 56.6162357,67.4593062 55.370692,67.2405535 C51.0554594,66.484119 42.3586875,64.4458348 39.3446961,61.009169 C45.3989975,63.9142862 53.2656109,58.1183626 55.7695516,52.8049215 C58.0417253,47.9800962 58.5399428,42.4969684 60.5683123,37.5658334 C63.414395,30.6454802 69.1310429,21.7747526 76.1805551,19.3030518 C85.603027,15.9972287 87.1372594,18.8757686 86.7241184,17.6797843 C87.072585,18.0661793 87.3871843,18.5241288 87.6619996,19.063855 C95.4649586,34.3928975 60.4379434,38.1321371 68.9321231,53.2076718" id="path306" fill="#00E4BA"></path>
                    <path d="M54.0831201,37.9828946 C52.2812131,46.8311336 45.0858264,55.6793725 35.6101052,55.7611492 C35.5499192,52.9562084 37.2259457,49.7689615 38.8662686,47.1071299 C41.5927955,42.680966 42.5021138,41.9592866 45.5636419,37.7580087 C47.9317051,34.5094293 53.407201,24.7902684 56.105369,21.8095077 C61.43091,15.929763 67.2226373,11.6487527 76.5306539,12.2825221 C65.4054288,15.6926105 56.4428185,25.2155073 54.0831201,37.9828946" id="path308" fill="#172C4B"></path>
                    <path d="M76.1805551,19.3030518 C69.1310429,21.7747526 63.414395,30.6454802 60.5683123,37.5658334 C58.5399428,42.4969684 58.0417253,47.9800962 55.7695516,52.8049215 C53.2656109,58.1183626 45.3989975,63.9142862 39.3446961,61.009169 C39.3446961,61.009169 39.3446961,61.009169 39.3444921,61.009169 C36.6567291,59.7191415 35.6547856,57.8444107 35.6101052,55.7611492 C45.0858264,55.6793725 52.2812131,46.8311336 54.0831201,37.9828946 C56.4428185,25.2155073 65.4054288,15.6926105 76.5306539,12.2825221 C76.8095496,12.3009219 77.0910975,12.3234105 77.3765219,12.3520323 C84.998311,13.0962003 86.2189642,16.2589142 86.7051445,17.6245851 C86.7124892,17.6450292 86.7177938,17.6613846 86.7241184,17.6797843 C87.1372594,18.8757686 85.603027,15.9972287 76.1805551,19.3030518" id="path310" fill="#F9EDED"></path>
                    <path d="M70.9117317,72.8708793 C67.8483674,75.2219595 64.9300616,76.2605236 63.0706209,75.4672896 C62.8559915,75.3752908 62.6554396,75.258759 62.4705973,75.1176942 C60.7860019,73.8297111 60.7760049,70.7426407 62.1388603,67.0463339 L62.1388603,67.0463339 C63.6814575,68.0501429 65.2685312,69.0866625 66.7068741,70.0373167 C68.4416584,71.1821905 69.9591611,72.2003104 70.9117317,72.8708793" id="path312" fill="#172C4B"></path>
                    <path d="M81.1090726,58.9586182 L77.2124896,57.1186424 L71.2057249,54.2809909 L71.2057249,54.2809909 L71.2057249,54.2809909 C74.9843843,51.058989 78.6973491,49.7158067 80.660024,51.2143647 C80.6632884,51.2164091 80.6659406,51.2184535 80.6692049,51.2225424 C80.7867206,51.3124967 80.8952594,51.4126732 80.9976776,51.5210273 C82.2950424,52.9030536 82.2611751,55.6691504 81.1090726,58.9586182" id="path314" fill="#172C4B"></path>
                    <path d="M66.7068741,70.0373167 C71.1971561,66.5802067 74.850955,62.1479095 77.2124896,57.1186424 L81.1090726,58.9586182 C80.2330096,61.4712073 78.7032657,64.2904591 76.6212389,67.0279341 C74.8134153,69.4055917 72.8327866,71.3948099 70.9117317,72.8708793 C69.9591611,72.2003104 68.4416584,71.1821905 66.7068741,70.0373167" id="path316" fill="#087C51"></path>
                    <path d="M77.2124896,57.1186424 C74.850955,62.1479095 71.1971561,66.5802067 66.7068741,70.0373167 C65.2685312,69.0866625 63.6814575,68.0501429 62.1388603,67.0463339 L62.1388603,67.0463339 C61.3572587,66.5372739 60.5878983,66.0404804 59.8552615,65.5661756 C64.5779226,62.1581316 69.8128786,54.7368961 69.0047543,53.3385145 C68.9794558,53.2955817 68.9566055,53.2526489 68.9321231,53.2076718 L71.2057249,54.2809909 L71.2057249,54.2809909 L77.2124896,57.1186424" id="path318" fill="#008E5D"></path>
                    <path d="M114.456797,46.3936282 L115.640319,49.8650491 C112.057723,49.7853169 109.264481,49.2721681 107.838584,48.3848909 C107.776562,48.3460469 107.717192,48.307203 107.660474,48.2663146 C107.546835,48.1865824 107.443804,48.1048057 107.351791,48.0189401 C107.075548,47.7613435 106.897438,47.4792139 106.827663,47.1745957 C106.825623,47.1643736 106.824603,47.1582404 106.822971,47.1500627 C106.81481,47.1071299 106.80971,47.0785081 106.80971,47.0785081 C106.581411,45.5595059 109.034755,43.8033512 113.057626,42.2904823 L114.456797,46.3936282 L114.456797,46.3936282" id="path320" fill="#172C4B"></path>
                    <path d="M143.308527,41.7364451 C143.315668,42.2127944 143.069211,42.7095879 142.602617,43.214559 C142.544267,43.2779359 142.482449,43.3413129 142.417366,43.4026454 C140.98392,44.7948937 137.915863,46.2218971 133.903193,47.3851707 C133.392122,46.1994085 132.779653,44.7887605 132.129441,43.3065578 L132.129441,43.3065578 C131.488409,41.8468437 130.81045,40.3176194 130.156565,38.8701718 C137.155276,38.4347109 142.470004,39.3424322 143.215494,41.2784956 C143.250789,41.36845 143.279352,41.4624932 143.293838,41.5585808 C143.302814,41.6178689 143.307711,41.677157 143.308527,41.7364451" id="path322" fill="#172C4B"></path>
                    <path d="M121.160903,45.6617267 C123.385336,45.3284867 125.596304,44.9073367 127.784829,44.4064544 C129.243982,44.0752588 130.692934,43.7072636 132.129441,43.3065578 L132.129441,43.3065578 L132.129441,43.3065578 C132.779653,44.7887605 133.392122,46.1994085 133.903193,47.3851707 C132.695393,47.7368105 131.401496,48.0639173 130.040885,48.3603579 C128.680478,48.654754 127.252948,48.9184838 125.777882,49.1413253 C124.622107,49.3171452 123.486734,49.4582101 122.382168,49.570653 C122.161214,49.5931416 121.941485,49.6135858 121.723183,49.63403 C120.849568,49.7137622 119.996763,49.7730503 119.169869,49.8118943 C118.963197,49.8221164 118.757952,49.8323385 118.554544,49.8384717 C117.537503,49.8773156 116.562694,49.8854933 115.640319,49.8650491 L114.456797,46.3936282 C116.698776,46.2423413 118.93647,45.9949668 121.160903,45.6617267" id="path324" fill="#087C51"></path>
                    <path d="M132.129441,43.3065578 C130.692934,43.7072636 129.243982,44.0752588 127.784829,44.4064544 C125.596304,44.9073367 123.385336,45.3284867 121.160903,45.6617267 C118.93647,45.9949668 116.698776,46.2423413 114.456797,46.3936282 L114.456797,46.3936282 L113.057626,42.2904823 L112.781791,41.4808929 C113.287965,41.4134272 113.789243,41.2682735 114.267466,41.0392988 C116.756514,39.8494478 119.82049,38.146448 122.664736,37.862274 C124.778998,37.6496545 126.921619,37.8888514 129.032005,37.6394325 C129.210727,37.6189883 129.387204,37.5924108 129.563682,37.563789 C129.757909,37.9890278 129.956013,38.4244888 130.156565,38.8701718 C130.81045,40.3176194 131.488409,41.8468437 132.129441,43.3065578 L132.129441,43.3065578" id="path326" fill="#008E5D"></path>
                    <path d="M153.669696,18.5997722 C153.616651,18.5997722 153.561565,18.6018166 153.50648,18.6079499 C152.60471,18.7122152 152.076298,19.6751358 152.104861,20.5092582 C152.127303,21.2023157 152.423132,21.8115521 152.710801,22.4023888 L152.80669,22.6027417 C153.41059,23.8600585 153.855355,25.2052852 154.293998,26.585267 C154.420491,26.9839284 154.565345,27.4357447 154.542903,27.8589391 C154.520461,28.2616894 154.328682,28.6071959 154.051214,28.7380386 C153.428952,29.0324348 152.694479,28.2514673 152.359886,27.7424073 C151.812092,26.9103294 151.357739,25.9862527 150.918483,25.0928422 C150.296221,23.8273478 149.652945,22.5168762 148.720573,21.4067575 C147.808602,20.3211718 146.359446,19.5320266 145.178373,20.2209953 C144.506738,20.6135235 144.091761,21.4333349 144.039736,22.4698546 C143.954251,24.1708099 144.689948,25.7143451 145.401367,27.2067699 C145.902645,28.2576005 146.420856,29.3431862 146.633445,30.4614826 C146.72199,30.9276098 146.637934,31.4509807 146.433301,31.7044884 C146.348429,31.8087537 146.250907,31.8598642 146.126659,31.8619086 C145.927535,31.8700863 145.704133,31.7106217 145.51623,31.5572904 C144.231311,30.5044154 143.371977,29.087634 142.462455,27.589076 C142.096443,26.9859728 141.717985,26.3603811 141.312597,25.7695444 C140.767455,24.9763104 140.073582,24.1094774 139.062457,23.7046827 C138.071531,23.3080657 136.649918,23.5268184 136.082537,24.5735602 C135.809558,25.0744425 135.755493,25.7061675 135.917281,26.5034903 C136.158841,27.6953857 136.71296,28.7932379 137.248717,29.8542906 C137.916883,31.1770287 138.547918,32.4282122 138.603208,33.8163717 C138.610756,34.0065025 138.773565,34.1598339 138.962079,34.1475674 C139.152838,34.1393897 139.301365,33.9799251 139.293612,33.7877499 C139.232406,32.2503479 138.537513,30.8724105 137.86547,29.5414947 C137.350319,28.5213304 136.817622,27.4643665 136.594424,26.3665143 C136.466503,25.7347893 136.497514,25.2563956 136.689497,24.9027114 C137.063467,24.2137427 138.086424,24.0604114 138.806412,24.3486742 C139.645955,24.6839587 140.256588,25.4526597 140.743176,26.1620726 C141.137547,26.7365539 141.5107,27.3519236 141.871816,27.9488935 C142.77175,29.4310962 143.702082,30.9664537 145.079015,32.0929278 C145.364847,32.3280358 145.714946,32.5651882 146.143185,32.5549661 C146.471657,32.5467884 146.757898,32.4036792 146.970895,32.1379049 C147.353841,31.6636001 147.418311,30.8887658 147.312221,30.3306399 C147.083106,29.126478 146.545104,27.9979595 146.024853,26.908285 C145.319555,25.4281267 144.653225,24.0317895 144.729936,22.5046097 C144.74891,22.1263924 144.864386,21.2064045 145.526023,20.8200096 C146.355978,20.3354827 147.489718,21.0162737 148.191752,21.8524405 C149.070059,22.8991822 149.666819,24.1135662 150.298465,25.3995048 C150.74731,26.3113151 151.211252,27.2558359 151.782917,28.1247134 C152.349685,28.9874576 153.361626,29.8297576 154.347043,29.3636304 C154.857094,29.1223891 155.195768,28.5601743 155.232491,27.8957386 C155.263094,27.3478347 155.097838,26.8305971 154.952984,26.374692 C154.504139,24.9701772 154.051214,23.6004174 153.430992,22.3042567 L153.331023,22.099815 C153.065796,21.5498667 152.812811,21.0305846 152.794449,20.4847252 C152.778128,19.9572654 153.090279,19.3541623 153.586048,19.2969186 C153.847194,19.2662523 154.140983,19.3786953 154.540863,19.6567361 C156.809568,21.2411596 157.921478,24.0931221 158.786524,26.6425107 C158.84773,26.8224194 159.04359,26.9205515 159.225168,26.8571745 C159.404706,26.795842 159.502636,26.5995779 159.441429,26.4196692 C158.5417,23.7660153 157.376744,20.7934322 154.936662,19.088388 C154.604109,18.8573688 154.167506,18.5997722 153.669696,18.5997722" id="path328" fill="#172C4B"></path>
                    <path d="M77.2077971,33.2030465 C76.8603506,33.2030465 76.5149443,33.337978 76.2662436,33.5383309 C75.817195,33.9022373 75.6097064,34.4378746 75.4923947,34.8099586 C75.2930669,35.4416836 75.1959533,36.114297 75.1018999,36.7623773 C74.9319511,37.9379174 74.7711831,39.0480361 74.0477272,39.8453589 C73.9102176,39.9966458 73.8555401,39.9946014 73.8504396,39.9966458 C73.8188165,39.9946014 73.722927,39.8923805 73.6451952,39.5979844 C73.6056153,39.4466975 73.5756243,39.2361225 73.5440012,39.013281 C73.45158,38.3652007 73.3465096,37.6292104 72.897665,37.2428155 C72.3992435,36.8155322 71.9532552,36.7051337 71.5713292,36.9177531 C70.2284679,37.661921 70.9553921,42.6523442 70.9629408,42.7014102 L70.9702855,42.7504762 C71.0114976,43.0244282 71.0502615,43.2840692 70.9943599,43.5069107 C70.9480473,43.6909083 70.8062533,43.8442396 70.6783325,43.8483284 C70.4377927,43.8585505 70.2513181,43.4190007 70.1060557,42.9937619 C69.9030555,42.3988364 69.6276282,41.9776864 69.26386,41.7078233 C68.8178717,41.3786721 68.1001285,41.2580514 67.5904858,41.6628461 C67.0457517,42.0962626 67.0441196,42.8506527 67.0902281,43.3822012 C67.1950946,44.5884076 67.4391028,45.7823474 67.8153162,46.9333544 C67.8748901,47.1153076 68.0699335,47.2134396 68.2515115,47.1541515 C68.4326815,47.0948634 68.5316313,46.8985993 68.4720574,46.7166462 C68.1121656,45.6167496 67.8789705,44.4739202 67.7785925,43.3208687 C67.7273834,42.7320765 67.803891,42.3763478 68.0199485,42.2046167 C68.246615,42.024708 68.6218083,42.0942182 68.8533713,42.2659493 C69.1002358,42.4479024 69.2960952,42.7586539 69.4521708,43.2166034 C69.6104905,43.6806862 69.9034636,44.5393415 70.6691516,44.5393415 C70.6781285,44.5393415 70.6871054,44.5393415 70.6962863,44.5393415 C71.1414585,44.5291194 71.5397061,44.1733908 71.6645665,43.6765973 C71.7543354,43.3188243 71.7008821,42.9610512 71.6535494,42.6482553 L71.6464087,42.5991893 C71.4158658,41.0536097 71.2985542,37.8602295 71.9059225,37.5229007 C72.0030361,37.4697458 72.2058323,37.5617446 72.4478003,37.7682308 C72.6993573,37.984939 72.7921865,38.6371082 72.8599212,39.1114131 C72.8946047,39.3546987 72.9272479,39.5836735 72.9770289,39.7738043 C73.1704401,40.5097946 73.5437972,40.6774369 73.8228969,40.687659 C74.2007424,40.7019699 74.4708653,40.4096182 74.558798,40.3114861 C75.424864,39.3587876 75.6084823,38.0892043 75.7859799,36.8625538 C75.8759528,36.2410509 75.9689861,35.5970594 76.1515842,35.0184892 C76.2946024,34.5625841 76.4688357,34.2640991 76.6997867,34.0780572 C76.9140079,33.9063261 77.2694112,33.8204606 77.4934255,33.9799251 C77.7972117,34.194589 77.7676287,34.7363596 77.6501131,35.1329766 C77.6170618,35.2454196 77.57891,35.3578625 77.5407582,35.4703055 C77.3934556,35.9057664 77.226567,36.4005154 77.3257208,36.9177531 C77.3616284,37.1037951 77.5425944,37.2285045 77.730089,37.191705 C77.9173796,37.1549055 78.0401998,36.9749968 78.0042922,36.7869104 C77.9396178,36.4495815 78.0638662,36.0815863 78.1952552,35.693147 C78.2362633,35.5725264 78.2770673,35.4498613 78.3127709,35.3292407 C78.5039379,34.6832047 78.4939409,33.8409047 77.8924891,33.4136215 C77.6835724,33.2664234 77.4452767,33.2030465 77.2077971,33.2030465" id="path330" fill="#172C4B"></path>
                    <path d="M21.3337871,94.5805488 C21.1797518,94.7257025 21.0285728,94.8749449 20.880046,95.0262318 C21.0285728,94.8749449 21.1797518,94.7257025 21.3337871,94.5805488" id="path334" fill="#B08A37"></path>
                    <path d="M27.3195377,90.659356 C27.0553314,90.7738434 26.7976538,90.8944641 26.5432406,91.0150847 C26.7976538,90.8944641 27.0553314,90.7738434 27.3195377,90.659356" id="path336" fill="#B08A37"></path>
                    <path d="M22.661959,93.4234085 C22.4530423,93.5890063 22.24841,93.7566486 22.0484701,93.9283796 C22.24841,93.7566486 22.4530423,93.5890063 22.661959,93.4234085" id="path338" fill="#B08A37"></path>
                    <path d="M23.2921776,92.9450148 C23.1203926,93.0697243 22.9516678,93.1985226 22.7855953,93.3273209 C22.9516678,93.1985226 23.1203926,93.0697243 23.2921776,92.9450148" id="path340" fill="#B08A37"></path>
                    <path d="M21.9888962,93.9815345 C21.8118066,94.1348658 21.6383894,94.292286 21.4682365,94.4517505 C21.6383894,94.292286 21.8118066,94.1348658 21.9888962,93.9815345" id="path342" fill="#B08A37"></path>
                    <path d="M18.2041162,98.4158761 C18.0694629,98.6284955 17.9382778,98.8431593 17.8097451,99.061912 C17.9382778,98.8431593 18.0694629,98.6284955 18.2041162,98.4158761" id="path344" fill="#B08A37"></path>
                    <path d="M20.7766078,95.1325416 C20.4103914,95.5107588 20.0607006,95.903287 19.7269235,96.310126 C20.0607006,95.903287 20.4103914,95.5107588 20.7766078,95.1325416" id="path346" fill="#B08A37"></path>
                    <path d="M19.6465395,96.4103025 C19.5041334,96.584078 19.3645835,96.7619423 19.2278899,96.9438955 C19.3645835,96.7619423 19.5041334,96.584078 19.6465395,96.4103025" id="path348" fill="#B08A37"></path>
                    <path d="M19.1493421,97.0461163 C18.8282142,97.475444 18.5217758,97.9190826 18.2306389,98.3749877 C18.5217758,97.9190826 18.8280102,97.475444 19.1493421,97.0461163" id="path350" fill="#B08A37"></path>
                    <path d="M26.3167781,91.1275277 C26.1341799,91.217482 25.953826,91.3094808 25.7763284,91.4014796 C25.953826,91.3094808 26.1341799,91.217482 26.3167781,91.1275277" id="path352" fill="#B08A37"></path>
                    <path d="M25.5472136,91.5241447 C25.3442135,91.6345432 25.1446816,91.7469862 24.9484141,91.8614735 C25.1446816,91.7469862 25.3442135,91.6345432 25.5472136,91.5241447" id="path354" fill="#B08A37"></path>
                    <path d="M24.8339588,91.9268949 C24.5999475,92.0679597 24.3712408,92.2110689 24.1464105,92.3562226 C24.3712408,92.2110689 24.5999475,92.0679597 24.8339588,91.9268949" id="path356" fill="#B08A37"></path>
                    <path d="M17.3594723,99.855146 C17.487189,99.6179936 17.6187821,99.3869744 17.7530274,99.1559552 C17.6187821,99.3869744 17.487189,99.6179936 17.3594723,99.855146 L17.3594723,99.855146" id="path358" fill="#B08A37"></path>
                    <path d="M23.9891109,92.4604879 C23.8158977,92.5770197 23.6453367,92.6935515 23.477428,92.8121277 C23.6453367,92.6935515 23.8158977,92.5770197 23.9891109,92.4604879" id="path360" fill="#B08A37"></path>
                    <path d="M126.783089,216.139569 C126.788802,216.117081 126.792678,216.096637 126.800431,216.078237 C127.131148,214.933363 129.057507,214.301638 131.807701,214.252572 C133.818932,214.211684 136.272072,214.485636 138.862109,215.092828 C141.114085,215.622332 143.159592,216.333789 144.82807,217.12089 C146.581828,217.946834 147.918977,218.860689 148.644065,219.737744 C149.129021,220.322448 149.34059,220.89284 149.219606,221.412122 C148.959684,222.520196 147.239793,223.164188 144.726264,223.284808 C142.621999,223.384985 139.963003,223.121255 137.140586,222.456819 C134.624608,221.865983 132.364064,221.05026 130.600309,220.150716 C128.020676,218.836156 126.500929,217.34782 126.783089,216.139569" id="path362" fill="#172C4B"></path>
                    <path d="M120.721443,257.723021 C121.024617,257.631023 121.259037,257.395915 121.478563,257.168984 C125.592019,252.902285 128.775143,247.218804 130.430768,241.521013 C131.092202,242.853973 133.348054,243.021615 133.739364,241.586434 C133.982353,242.441001 134.845154,243.07477 135.729378,243.050237 C136.614622,243.025704 137.441924,242.344913 137.637988,241.480124 L137.795491,241.610967 C138.544042,242.236559 139.671662,242.099583 140.234554,241.30226 C141.10674,240.067432 141.667592,238.587274 142.138267,237.133693 C143.599256,232.621663 144.42717,227.980836 144.726264,223.284808 C144.783593,222.389354 144.818685,221.48981 144.838475,220.590266 C141.598837,218.374118 137.632683,217.34782 133.8122,217.666749 C133.007544,217.734215 132.185138,217.78737 131.35804,217.844614 C131.179726,218.633759 130.938574,219.406548 130.600309,220.150716 C130.556852,220.248848 130.51054,220.346981 130.463207,220.445113 C129.583064,222.229889 128.197358,223.705958 127.087896,225.357848 C124.953436,228.534873 126.243252,234.416662 125.915391,237.70613 C125.696478,243.696273 121.731344,249.064913 119.540574,254.644129 C119.288405,255.286076 119.059494,255.985266 119.216182,256.65788 C119.370013,257.330493 120.06205,257.925419 120.721443,257.723021" id="path364" fill="#F0A258"></path>
                    <path d="M144.838475,220.590266 C144.864181,219.437215 144.862549,218.280074 144.82807,217.12089 C143.159592,216.333789 141.114085,215.622332 138.862109,215.092828 C136.272072,214.485636 133.818932,214.211684 131.807701,214.252572 C131.744046,215.473089 131.621634,216.679296 131.35804,217.844614 C132.185138,217.78737 133.007544,217.734215 133.8122,217.666749 C137.632683,217.34782 141.598837,218.374118 144.838475,220.590266" id="path366" fill="#D17F49"></path>
                    <path d="M123.759917,233.204322 C123.9874,231.916339 125.678932,227.727328 126.368316,226.615165 C126.781865,225.948685 126.325676,227.52493 126.740041,226.860495 C126.876531,226.639698 126.932432,227.081292 127.190518,227.075159 C127.429426,227.07107 127.6159,227.275511 127.750146,227.47382 C128.717406,228.898779 128.782284,230.751021 128.589281,232.464243 C128.294064,235.079053 127.471454,237.634575 126.185514,239.9325 C126.111251,240.063343 126.029439,240.202363 125.897233,240.275962 C125.365761,240.576492 124.464399,243.483653 124.308732,243.25059 C122.53804,240.596936 123.170707,236.542856 123.759917,233.204322" id="path368" fill="#F0A258"></path>
                    <path d="M125.813177,232.732062 C125.808077,232.732062 125.80318,232.732062 125.797876,232.732062 C125.607321,232.740239 125.459406,232.901748 125.467567,233.091879 C125.668527,237.755196 125.206421,241.124396 123.969446,244.021335 C123.929662,244.113334 123.86968,244.256443 123.790112,244.44453 C123.211511,245.822467 121.450816,250.015567 119.051742,255.018257 C118.595756,255.968911 118.610242,256.882766 119.090097,257.461336 C119.509359,257.966307 120.30259,258.140083 121.018905,257.880442 C121.63219,257.659644 122.098376,257.205784 122.487035,256.794856 C125.339646,253.791607 127.161751,250.042145 128.923874,246.415348 C129.659571,244.902479 130.87696,241.185728 131.015898,240.658268 C131.064659,240.472226 130.954692,240.28414 130.770054,240.235074 C130.585619,240.186008 130.396492,240.296407 130.347732,240.480404 C130.216138,240.979242 129.005482,244.665327 128.302428,246.112774 C126.563564,249.692549 124.765329,253.392945 121.986369,256.318507 C121.652184,256.670146 121.256385,257.058586 120.784894,257.230317 C120.407048,257.365248 119.88598,257.336626 119.621366,257.017697 C119.265555,256.58837 119.41551,255.858513 119.674615,255.318786 C122.081238,250.299741 123.84683,246.096419 124.427063,244.714393 C124.505815,244.526306 124.565389,244.385242 124.604765,244.293243 C125.88438,241.298171 126.363624,237.834928 126.158175,233.063257 C126.150015,232.877215 125.996999,232.732062 125.813177,232.732062" id="path370" fill="#172C4B"></path>
                    <path d="M137.566377,240.997642 C137.533937,240.997642 137.501498,241.001731 137.469263,241.011953 C137.319308,241.054885 137.217502,241.193906 137.220766,241.351326 C137.226479,241.608923 137.111615,241.864475 136.870259,242.134338 C136.503839,242.545266 136.0299,242.794685 135.569834,242.819218 C135.176279,242.839662 134.800474,242.698597 134.481386,242.410334 C134.250843,242.201804 134.077222,241.82972 134.190657,241.521013 C134.253292,241.351326 134.174132,241.161195 134.009283,241.085552 C133.844435,241.011953 133.6498,241.077374 133.563091,241.234794 C133.350706,241.625278 133.217889,241.835853 132.918183,242.079139 C132.804544,242.171137 132.710082,242.234514 132.621129,242.277447 C132.546662,242.312202 132.460973,242.340824 132.359167,242.363313 C131.728541,242.504377 131.008553,242.281536 130.568481,241.807231 C130.438521,241.666166 130.219811,241.657989 130.080057,241.788831 C129.940303,241.91763 129.932142,242.138427 130.061899,242.277447 C130.673348,242.937794 131.634487,243.236279 132.510958,243.03797 C132.662954,243.003215 132.795567,242.960283 132.916347,242.903039 C133.056305,242.835573 133.195242,242.745619 133.35295,242.618865 C133.451288,242.539133 133.536772,242.4594 133.613076,242.379668 C133.707129,242.580021 133.843823,242.766063 134.018872,242.925527 C134.47751,243.3385 135.0251,243.540897 135.606762,243.510231 C136.258403,243.475476 136.889845,243.150413 137.384799,242.596376 C137.536794,242.42669 137.655125,242.257003 137.741018,242.083227 C137.944222,242.259047 138.172317,242.387846 138.414081,242.463489 C138.962691,242.633176 139.559247,242.498244 139.933216,242.122071 C140.067665,241.985095 140.066849,241.766343 139.93138,241.631411 C139.796114,241.49648 139.5772,241.498524 139.442751,241.633456 C139.250768,241.827675 138.919439,241.895141 138.617897,241.801098 C138.325332,241.711143 138.056637,241.484213 137.861186,241.16324 C137.797328,241.058974 137.684504,240.997642 137.566377,240.997642" id="path372" fill="#172C4B"></path>
                    <path d="M134.331227,208.329894 C131.979894,208.329894 129.385572,208.644735 126.630278,209.476813 C126.447476,209.532012 126.344038,209.726232 126.399123,209.908185 C126.454209,210.092182 126.646192,210.196448 126.829606,210.139204 C133.272974,208.192918 138.816613,209.147661 142.332698,210.292535 C146.542044,211.662295 149.114128,213.651513 149.572561,214.109463 C149.707827,214.244394 149.926536,214.24235 150.06119,214.107418 C150.195843,213.972487 150.195435,213.753734 150.060374,213.618803 C149.466879,213.025921 146.812779,211.022392 142.546103,209.634233 C140.440002,208.949353 137.624318,208.329894 134.331227,208.329894" id="path374" fill="#172C4B"></path>
                    <path d="M145.1747,0.171392821 C136.948603,0.171392821 128.641102,1.56772998 120.480699,4.32156036 C119.760508,4.56484604 119.005429,4.81222056 118.226276,5.06572833 C111.584192,7.23689972 103.317903,9.93757525 99.6594113,15.8030091 C99.5584212,15.9645181 99.6069444,16.1791819 99.7693782,16.2793584 C99.9311663,16.3815792 100.144367,16.3326738 100.245561,16.1689598 C103.770828,10.5181898 111.904708,7.86044706 118.440701,5.72403077 C119.221894,5.46847858 119.979218,5.22110406 120.701245,4.97781838 C128.790037,2.24852101 137.024295,0.864450356 145.174496,0.864450356 C145.210608,0.864450356 145.245087,0.864450356 145.280995,0.864450356 C149.221442,0.868539191 153.337143,1.18337949 157.513438,1.79670474 C162.350758,2.50611761 168.2041,4.91444143 171.488826,6.92614826 C171.652042,7.0242803 171.864223,6.97316986 171.964193,6.80961646 C172.064163,6.64810748 172.013158,6.43344364 171.849942,6.3353116 C168.50605,4.28680526 162.542538,1.83554867 157.613408,1.11182487 C153.40447,0.49236637 149.255718,0.177526074 145.282015,0.171392821 C145.246311,0.171392821 145.210404,0.171392821 145.1747,0.171392821" id="path552" fill="#172C4B"></path>
                    <path d="M77.1741338,140.105638 C75.5034118,140.357101 73.8345261,140.680119 72.1717609,141.062425 C72.0966814,141.080825 72.02201,141.099225 71.9469306,141.117625 L74.8889028,130.92007 L74.8886988,130.92007 C76.6181786,131.529306 78.3482704,132.101743 80.0820346,132.602626 C90.2414278,135.542498 100.645237,137.748424 111.192269,138.647968 C114.175453,138.90352 117.397341,139.091607 120.694921,139.09774 C119.330025,140.954071 117.723774,142.736803 115.852908,144.429581 C115.024381,145.177838 114.160764,145.885206 113.269399,146.553731 C105.534787,142.996444 97.1350685,140.69443 88.632932,139.756042 C84.8503963,139.341026 81.0082866,139.529112 77.1741338,140.105638" id="path558" fill="#846927"></path>
                    <path d="M84.3007048,96.7619423 C84.3167264,96.7953984 84.3347506,96.8288544 84.3507721,96.8623105 C84.3347506,96.8288544 84.3167264,96.7953984 84.3007048,96.7619423" id="path560" fill="#846927"></path>
                    <path d="M99.9062758,95.5005367 C94.4034412,95.5700469 88.8965262,95.3288056 83.4193981,94.7768129 C81.4726368,90.6798002 78.6336948,86.9242053 75.2783775,83.7022033 C74.3502893,82.8108372 73.3818051,81.962404 72.3829219,81.1589479 C71.649469,81.6986741 70.9121398,82.1770678 70.1748105,82.5757292 C69.6641478,82.2322671 64.5207969,76.9597143 63.0706209,75.4672896 C64.9300616,76.2605236 67.8483674,75.2219595 70.9117317,72.8708793 C72.8327866,71.3948099 74.8134153,69.4055917 76.6212389,67.0279341 C78.7032657,64.2904591 80.2330096,61.4712073 81.1090726,58.9586182 C82.2611751,55.6691504 82.2950424,52.9030536 80.9976776,51.5210273 C80.8952594,51.4126732 80.7867206,51.3124967 80.6692049,51.2225424 C80.8071226,51.2838749 80.9444283,51.3492962 81.0817339,51.4126732 L81.1011159,51.3881402 C84.7661359,52.2406623 88.0649396,53.7187761 90.8355348,56.0984781 C90.8355348,56.0984781 90.7125106,56.347897 90.4803355,56.7976689 C96.1137431,60.6677512 101.191807,65.3719559 105.661483,70.5259325 C110.510841,76.1174143 115.374072,83.0295899 119.235972,90.5264689 C116.91769,92.1620029 114.507802,93.4131864 111.736595,94.1737097 C107.900402,95.232718 103.885487,95.4494263 99.9062758,95.5005367" id="path562" fill="#846927"></path>
                    <path d="M121.487948,95.232718 C121.717878,95.7540445 121.942097,96.2753709 122.160602,96.7987418 L122.160602,96.7987418 C121.942097,96.2753709 121.717674,95.7540445 121.487948,95.232718" id="path564" fill="#846927"></path>
                    <path d="M121.467545,95.1877408 C121.243123,94.6807253 121.0136,94.1757542 120.778977,93.6728275 C121.0136,94.1757542 121.243123,94.6807253 121.467545,95.1877408" id="path566" fill="#846927"></path>
                    <path d="M83.4193981,94.7768129 C83.5777179,95.1080085 83.729713,95.443293 83.8757915,95.7806219 C83.7295089,95.443293 83.5777179,95.1080085 83.4193981,94.7768129" id="path568" fill="#846927"></path>
                    <path d="M119.978402,92.0025384 C119.735209,91.5077893 119.488141,91.0150847 119.235972,90.5264689 C119.488141,91.0150847 119.735209,91.5077893 119.978402,92.0025384" id="path570" fill="#846927"></path>
                    <path d="M120.735113,93.5787842 C120.504366,93.0860796 120.269334,92.593375 120.029611,92.1047592 C120.269538,92.593375 120.504366,93.0860796 120.735113,93.5787842" id="path572" fill="#846927"></path>
                    <path d="M148.844413,130.153413 C142.008714,137.34363 130.982031,139.11614 120.694921,139.097881 C117.397341,139.091607 114.175453,138.90352 111.192269,138.647968 C100.645237,137.748424 90.2414278,135.542498 80.0820346,132.602626 C78.3482704,132.101743 76.6181786,131.529306 74.8886988,130.92007 C74.8860465,130.915981 74.29704,130.202479 73.2428673,129.108716 C72.3657842,127.99042 71.5462348,126.833279 70.7727939,125.604584 C62.3832766,112.297471 54.4130209,98.4342758 38.7008082,93.0186139 C35.0317077,91.7551638 31.1934745,90.6614005 27.3195377,90.659356 C28.2910822,90.238206 29.3299534,89.8661221 30.4424759,89.5431041 C40.9158562,86.5091885 57.3352032,87.6745065 67.5564144,90.6164233 C73.8069833,92.4155107 79.2788068,95.9421309 85.0115723,98.8411149 C87.8458218,100.276296 90.7435216,101.558146 93.8313684,102.400446 C102.894357,104.874191 117.287782,106.129463 122.160602,96.7987418 L122.160602,96.7987418 C122.790617,95.5925355 123.263536,94.2105093 123.543044,92.6301745 C125.126241,83.6797147 120.747966,74.3387711 117.291047,66.3512319 C116.278086,64.0124183 115.19433,61.7042709 114.042636,59.4288342 C112.567161,59.4574561 111.177171,59.4145233 109.906941,59.2836806 C108.035871,53.1483837 107.099622,48.5750217 106.868263,47.3851707 C106.821339,47.303394 106.77217,47.2195729 106.728305,47.141885 C106.760133,47.1439294 106.791144,47.1459739 106.822971,47.1500627 C106.824603,47.1582404 106.825623,47.1643736 106.827663,47.1745957 C106.897438,47.4792139 107.075548,47.7613435 107.351791,48.0189401 C107.443804,48.1048057 107.546835,48.1865824 107.660474,48.2663146 C107.717192,48.307203 107.776562,48.3460469 107.838584,48.3848909 C109.264481,49.2721681 112.057723,49.7853169 115.640319,49.8650491 C116.562694,49.8854933 117.537503,49.8773156 118.554544,49.8384717 C118.757952,49.8323385 118.963197,49.8221164 119.169869,49.8118943 C119.996763,49.7730503 120.849568,49.7137622 121.723183,49.63403 C121.941485,49.6135858 122.161214,49.5931416 122.382168,49.570653 C123.486734,49.4582101 124.622107,49.3171452 125.777882,49.1413253 C127.252948,48.9184838 128.680478,48.654754 130.040885,48.3603579 C131.401496,48.0639173 132.695393,47.7368105 133.903193,47.3851707 C137.915863,46.2218971 140.98392,44.7948937 142.417366,43.4026454 C142.482449,43.3413129 142.544267,43.2779359 142.602617,43.214559 C143.069211,42.7095879 143.315668,42.2127944 143.308527,41.7364451 C143.307711,41.677157 143.302814,41.6178689 143.293838,41.5585808 C143.279352,41.4624932 143.250789,41.36845 143.215494,41.2784956 C143.30057,41.36845 143.406049,41.505426 143.517648,41.6648905 C144.92804,42.7586539 151.113322,51.9585327 150.433731,52.1179972 C150.433731,52.1179972 149.82473,52.3101725 148.750155,52.631146 C153.683978,64.2393486 157.050312,75.7126197 157.982685,87.5518414 C159.104796,101.797343 159.380223,119.070626 148.844413,130.153413" id="path574" fill="#B08A37"></path>
                    <path d="M70.7727939,125.604584 C71.5462348,126.833279 72.3657842,127.99042 73.2428673,129.108716 C71.9428502,127.761445 69.9348827,125.837648 67.4391028,123.956784 C61.3266556,119.348667 45.7395073,98.7000501 31.0386231,98.3013887 C25.6804389,98.156235 21.1601659,98.9188028 17.3594723,99.855146 C17.487189,99.6179936 17.6187821,99.3869744 17.7530274,99.1559552 C17.7717973,99.1252889 17.7907712,99.0925783 17.8097451,99.061912 C17.9382778,98.8431593 18.0694629,98.6284955 18.2041162,98.4158761 C18.2130931,98.4036096 18.221662,98.3892986 18.2306389,98.3749877 C18.5217758,97.9190826 18.8282142,97.475444 19.1493421,97.0461163 C19.1754567,97.0113612 19.2017753,96.9786506 19.2278899,96.9438955 C19.3645835,96.7619423 19.5041334,96.584078 19.6465395,96.4103025 C19.6734702,96.3755474 19.6997888,96.3428367 19.7269235,96.310126 C20.0607006,95.903287 20.4103914,95.5107588 20.7766078,95.1325416 C20.8106791,95.0977865 20.8455666,95.0630314 20.880046,95.0262318 C21.0285728,94.8749449 21.1797518,94.7257025 21.3337871,94.5805488 C21.3784675,94.5376161 21.423148,94.4946833 21.4682365,94.4517505 C21.6383894,94.292286 21.8118066,94.1348658 21.9888962,93.9815345 C22.0088902,93.9651792 22.0282721,93.9467794 22.0484701,93.9283796 C22.24841,93.7566486 22.4530423,93.5890063 22.661959,93.4234085 C22.7025591,93.3906978 22.7445872,93.3600316 22.7855953,93.3273209 C22.9516678,93.1985226 23.1203926,93.0697243 23.2921776,92.9450148 C23.3535877,92.9000376 23.4154059,92.8571049 23.477428,92.8121277 C23.6453367,92.6935515 23.8158977,92.5770197 23.9891109,92.4604879 C24.0417481,92.4257328 24.0933652,92.3909777 24.1464105,92.3562226 C24.3712408,92.2110689 24.5999475,92.0679597 24.8339588,91.9268949 C24.8714985,91.9064507 24.9106704,91.8839621 24.9484141,91.8614735 C25.1446816,91.7469862 25.3442135,91.6345432 25.5472136,91.5241447 C25.6229051,91.4832563 25.6996168,91.442368 25.7763284,91.4014796 C25.953826,91.3094808 26.1341799,91.217482 26.3167781,91.1275277 C26.3922656,91.0886837 26.466937,91.0518842 26.5432406,91.0150847 C26.7976538,90.8944641 27.0553314,90.7738434 27.3195377,90.659356 C31.1934745,90.6614005 35.0317077,91.7551638 38.7008082,93.0186139 C54.4130209,98.4342758 62.3832766,112.297471 70.7727939,125.604584" id="path576" fill="#846927"></path>
                    <path d="M31.0386231,98.3013887 C45.7395073,98.7000501 61.3266556,119.348667 67.4391028,123.956784 C69.9348827,125.837648 71.9428502,127.761445 73.2428673,129.108716 C74.29704,130.202479 74.8860465,130.915981 74.8886988,130.92007 L74.8889028,130.92007 L71.9469306,141.117625 C72.02201,141.099225 72.0966814,141.080825 72.1717609,141.062425 C73.8345261,140.680119 75.5034118,140.357101 77.1741338,140.105638 C81.0082866,139.529112 84.8503963,139.341026 88.632932,139.756042 C97.1350685,140.69443 105.534787,142.996444 113.269399,146.553731 C129.799121,154.161008 143.287717,167.515143 148.219295,185.606194 C149.842276,191.557493 150.414349,197.715279 150.385661,203.868975 C150.362732,207.579593 150.436383,211.484431 149.915723,215.158249 C149.657434,216.994136 149.494625,219.312505 149.121064,221.129992 C149.029867,221.567498 148.862979,220.921462 148.525121,222.125624 C147.48625,220.160939 143.3579,218.922022 139.058989,216.922581 C133.347442,214.268927 127.83053,214.125818 126.871022,215.953527 C127.051784,209.977695 120.351147,165.096597 79.9235109,173.887593 C79.139461,174.057279 78.3666322,174.257632 77.6031884,174.480474 C69.8236917,176.757955 63.0726611,181.611402 56.3861009,185.579616 C55.9033889,185.865835 55.3127503,186.107076 54.6700864,186.325829 L54.5668522,186.63658 L54.0831201,188.084028 C54.0831201,188.084028 34.812998,191.26923 32.6277369,193.258449 C32.2772301,191.712869 31.9763002,190.2184 31.7333121,188.928372 C28.9221169,188.807752 26.3175942,185.00718 25.2748466,183.009784 C21.8232317,176.402226 19.520863,169.330586 17.0664992,162.308012 C15.1505449,156.824884 13.2633575,151.309046 11.6393561,145.731875 C9.03707766,136.791637 6.71981549,127.771667 4.13610284,118.82734 C2.77324747,114.108825 1.4103921,109.390309 0.0473327016,104.671794 C0.0473327016,104.671794 2.46905325,103.749761 8.24405089,102.396357 C10.6761765,101.828009 13.6807829,100.758779 17.3594723,99.855146 L17.3594723,99.855146 C21.1601659,98.9188028 25.6804389,98.156235 31.0386231,98.3013887" id="path578" fill="#002081"></path>
                    <path d="M93.8313684,102.400446 C90.7435216,101.558146 87.8458218,100.276296 85.0115723,98.8411149 C84.797147,98.1501018 84.5566071,97.4631775 84.2909727,96.7864753 C84.2877084,96.7782976 84.284036,96.77012 84.2807717,96.7619423 C84.1514228,96.4327911 84.0167695,96.1056843 83.8757915,95.7806219 C83.729713,95.443293 83.5777179,95.1080085 83.4193981,94.7768129 C88.8965262,95.3288056 94.4034412,95.5700469 99.9062758,95.5005367 C103.885487,95.4494263 107.900402,95.232718 111.736595,94.1737097 C114.507802,93.4131864 116.91769,92.1620029 119.235972,90.5264689 C119.488141,91.0150847 119.735209,91.5077893 119.978402,92.0025384 C119.995335,92.0372934 120.012677,92.0700041 120.029611,92.1047592 C120.269334,92.593375 120.504366,93.0860796 120.735113,93.5787842 C120.749598,93.6094505 120.764492,93.6401168 120.778977,93.6728275 C121.0136,94.1757542 121.243123,94.6807253 121.467545,95.1877408 C121.474278,95.2020517 121.481215,95.2184071 121.487948,95.232718 C121.717674,95.7540445 121.942097,96.2753709 122.160602,96.7987418 C117.287782,106.129463 102.894357,104.874191 93.8313684,102.400446" id="path580" fill="#172C4B"></path>
                    <path d="M150.433527,51.7704463 C150.381502,51.7704463 150.328864,51.7827128 150.279287,51.8072458 C150.089549,51.9033334 131.047725,61.2892542 109.945093,58.9402184 C109.755966,58.9177299 109.584589,59.0567502 109.563575,59.2468811 C109.542357,59.4370119 109.679051,59.6066986 109.868789,59.6291871 C121.007072,60.8681042 131.482696,58.8461752 138.309214,56.930556 C145.705357,54.8554723 150.540229,52.4512373 150.588378,52.4267043 C150.758939,52.3408387 150.828102,52.1343526 150.742821,51.9626215 C150.682227,51.8420009 150.560223,51.7704463 150.433527,51.7704463" id="path582" fill="#172C4B"></path>
                    <path d="M90.8355348,55.7529716 C90.6914965,55.7529716 90.5572511,55.8429259 90.5082863,55.9880796 C86.7424802,67.1035775 81.3816437,73.6538912 77.5476949,77.1886891 C73.3958825,81.0178831 70.0907542,82.2384003 70.0579069,82.2506668 C69.8783691,82.3140438 69.7851318,82.5123523 69.8496022,82.692261 C69.9140726,82.8721698 70.1113602,82.966213 70.2913061,82.9007916 C70.4298359,82.8517256 73.733332,81.639386 77.9822581,77.7284153 C81.8863899,74.1384182 87.3420958,67.487928 91.1625793,56.2109211 C91.2239894,56.0289679 91.1272838,55.8327038 90.9465218,55.7713713 C90.9097982,55.7591048 90.8722584,55.7529716 90.8355348,55.7529716" id="path584" fill="#172C4B"></path>
                    <path d="M77.1741338,140.105638 C75.5034118,140.357101 73.8345261,140.680119 72.1717609,141.062425 L71.9075546,141.168735 L67.3285238,156.696086 L77.1741338,140.105638" id="path586" fill="#172C4B"></path>
                    <polygon id="path588" fill="#172C4B" points="55.672438 184.301855 30.8399074 186.890088 30.2437601 183.903194"></polygon>
                </g>
            </g>
        </g>
    </g>
</svg>