<?xml version="1.0" encoding="UTF-8"?>
<svg xmlns="http://www.w3.org/2000/svg" xmlns:xlink="http://www.w3.org/1999/xlink" width="98px" height="85px" viewBox="0 0 85 85" version="1.1">
<g id="surface1">
<path style=" stroke:none;fill-rule:nonzero;fill:rgb(94.901961%,69.411767%,62.7451%);fill-opacity:1;" d="M 42.8125 13.863281 C 43.019531 13.902344 43.230469 13.945312 43.441406 13.988281 C 44.007812 14.105469 44.574219 14.21875 45.140625 14.335938 C 45.742188 14.460938 46.339844 14.582031 46.941406 14.703125 C 48.078125 14.933594 49.21875 15.167969 50.355469 15.398438 C 51.632812 15.660156 52.910156 15.921875 54.1875 16.179688 C 58.648438 17.089844 63.109375 18 67.570312 18.925781 C 67.570312 19.582031 67.570312 20.242188 67.570312 20.917969 C 66.304688 21.4375 65.023438 21.898438 63.730469 22.335938 C 63.527344 22.40625 63.324219 22.476562 63.117188 22.546875 C 62.691406 22.691406 62.265625 22.835938 61.839844 22.980469 C 61.292969 23.164062 60.746094 23.351562 60.203125 23.535156 C 59.679688 23.714844 59.15625 23.890625 58.636719 24.070312 C 58.34375 24.171875 58.34375 24.171875 58.042969 24.273438 C 57.863281 24.332031 57.679688 24.394531 57.496094 24.457031 C 57.335938 24.511719 57.175781 24.566406 57.011719 24.621094 C 56.613281 24.738281 56.613281 24.738281 56.113281 24.738281 C 56.113281 24.855469 56.117188 24.976562 56.117188 25.101562 C 56.132812 26.242188 56.140625 27.382812 56.148438 28.523438 C 56.152344 29.109375 56.15625 29.699219 56.164062 30.285156 C 56.171875 30.957031 56.175781 31.632812 56.179688 32.308594 C 56.179688 32.515625 56.183594 32.726562 56.1875 32.945312 C 56.1875 33.140625 56.1875 33.335938 56.1875 33.539062 C 56.191406 33.710938 56.191406 33.882812 56.191406 34.058594 C 56.074219 34.761719 55.699219 35.171875 55.144531 35.59375 C 52.835938 36.796875 50.046875 37.140625 47.480469 37.355469 C 47.273438 37.371094 47.066406 37.390625 46.855469 37.410156 C 41.914062 37.785156 34.003906 38.351562 29.882812 35.03125 C 29.667969 34.597656 29.695312 34.289062 29.699219 33.804688 C 29.699219 33.621094 29.699219 33.433594 29.699219 33.242188 C 29.699219 33.039062 29.699219 32.839844 29.699219 32.632812 C 29.699219 32.324219 29.699219 32.324219 29.703125 32.007812 C 29.703125 31.460938 29.703125 30.914062 29.707031 30.363281 C 29.707031 29.804688 29.707031 29.246094 29.707031 28.6875 C 29.710938 27.59375 29.714844 26.496094 29.71875 25.402344 C 29.511719 25.355469 29.308594 25.3125 29.097656 25.265625 C 28.828125 25.207031 28.554688 25.148438 28.285156 25.089844 C 28.152344 25.058594 28.015625 25.03125 27.878906 25 C 27.144531 24.839844 26.441406 24.660156 25.734375 24.40625 C 25.734375 24.523438 25.734375 24.640625 25.738281 24.761719 C 25.746094 25.660156 25.722656 26.507812 25.566406 27.394531 C 25.730469 27.449219 25.894531 27.503906 26.066406 27.558594 C 26.53125 28.261719 26.53125 28.890625 26.398438 29.71875 C 26.121094 30.050781 25.84375 30.382812 25.566406 30.714844 C 25.511719 31.132812 25.527344 31.527344 25.546875 31.949219 C 25.566406 32.335938 25.539062 32.667969 25.484375 33.046875 C 25.289062 34.679688 25.113281 36.414062 25.914062 37.898438 C 26.121094 38.292969 26.152344 38.578125 26.066406 39.015625 C 25.816406 39.398438 25.816406 39.398438 25.566406 39.679688 C 25.679688 39.71875 25.789062 39.761719 25.90625 39.804688 C 26.496094 40.050781 27.050781 40.355469 27.609375 40.664062 C 28.792969 41.304688 30.003906 41.867188 31.230469 42.417969 C 33.386719 43.386719 35.367188 44.464844 37.1875 45.988281 C 37.285156 46.058594 37.382812 46.132812 37.484375 46.210938 C 40.304688 48.417969 41.414062 52.113281 41.890625 55.519531 C 42.222656 58.421875 41.964844 61.382812 41.746094 64.28125 C 41.699219 64.886719 41.660156 65.496094 41.617188 66.101562 C 41.589844 66.492188 41.5625 66.882812 41.53125 67.269531 C 41.519531 67.449219 41.507812 67.628906 41.496094 67.816406 C 41.410156 68.878906 41.328125 69.890625 40.546875 70.691406 C 40.058594 70.949219 39.578125 71.09375 39.042969 71.242188 C 38.75 71.324219 38.75 71.324219 38.449219 71.410156 C 36.199219 71.949219 33.824219 71.867188 31.5625 71.4375 C 31.359375 71.402344 31.359375 71.402344 31.148438 71.363281 C 30.238281 71.171875 29.707031 70.890625 29.054688 70.226562 C 28.683594 69.117188 28.910156 67.90625 29.054688 66.769531 C 29.5625 62.269531 28.992188 58.339844 26.230469 54.621094 C 25.757812 54.039062 25.257812 53.496094 24.738281 52.960938 C 24.648438 52.863281 24.5625 52.765625 24.472656 52.664062 C 22.257812 50.269531 19.15625 48.765625 16.160156 47.617188 C 15.09375 47.195312 14.429688 46.601562 13.78125 45.65625 C 13.628906 45.269531 13.628906 45.269531 13.5 44.839844 C 13.449219 44.679688 13.398438 44.519531 13.347656 44.355469 C 13.296875 44.1875 13.242188 44.015625 13.1875 43.839844 C 12.21875 40.828125 10.796875 38.128906 9.222656 35.398438 C 8.800781 34.664062 8.390625 33.929688 7.984375 33.1875 C 7.929688 33.085938 7.875 32.984375 7.820312 32.882812 C 7.765625 32.78125 7.710938 32.679688 7.652344 32.574219 C 6.441406 30.359375 5.179688 28.1875 3.84375 26.042969 C 3.363281 25.257812 3.386719 24.480469 3.488281 23.574219 C 3.800781 23.132812 4.007812 22.980469 4.484375 22.746094 C 5.351562 22.640625 5.890625 22.769531 6.59375 23.257812 C 8.296875 24.683594 9.636719 26.503906 10.792969 28.390625 C 10.792969 28.5 10.792969 28.609375 10.792969 28.722656 C 10.902344 28.722656 11.011719 28.722656 11.125 28.722656 C 10.984375 26.050781 10.410156 23.636719 9.628906 21.085938 C 9.316406 20.058594 9.058594 19.160156 9.492188 18.125 C 9.855469 17.691406 10.097656 17.476562 10.625 17.265625 C 11.515625 17.238281 11.972656 17.382812 12.660156 17.949219 C 13.234375 18.496094 13.597656 19.046875 13.945312 19.757812 C 14.0625 19.742188 14.179688 19.730469 14.296875 19.714844 C 15.164062 19.65625 15.792969 19.65625 16.488281 20.210938 C 18.277344 22.046875 18.902344 25.09375 19.257812 27.558594 C 19.40625 27.519531 19.550781 27.484375 19.703125 27.445312 C 20.253906 27.394531 20.253906 27.394531 20.691406 27.558594 C 21.621094 28.34375 21.867188 29.363281 22.144531 30.503906 C 22.210938 30.871094 22.210938 30.871094 22.414062 31.046875 C 22.617188 30.300781 22.757812 29.628906 22.796875 28.855469 C 22.847656 28.214844 22.898438 28.074219 23.316406 27.539062 C 23.742188 27.226562 23.742188 27.226562 24.074219 27.226562 C 24.183594 26.1875 24.292969 25.144531 24.40625 24.074219 C 23.976562 23.980469 23.546875 23.886719 23.105469 23.792969 C 21.953125 23.539062 20.804688 23.261719 19.664062 22.960938 C 19.523438 22.925781 19.386719 22.890625 19.246094 22.855469 C 18.28125 22.597656 18.28125 22.597656 18.097656 22.414062 C 18.070312 21.804688 18.089844 21.195312 18.097656 20.585938 C 19.878906 19.777344 21.738281 19.179688 23.589844 18.558594 C 24.574219 18.230469 25.554688 17.898438 26.535156 17.566406 C 26.734375 17.5 26.929688 17.429688 27.136719 17.363281 C 29.457031 16.578125 31.769531 15.765625 34.082031 14.953125 C 34.472656 14.816406 34.867188 14.679688 35.257812 14.546875 C 35.785156 14.363281 36.308594 14.175781 36.828125 13.980469 C 37.09375 13.886719 37.355469 13.792969 37.617188 13.699219 C 37.734375 13.652344 37.847656 13.609375 37.96875 13.5625 C 39.550781 13.007812 41.222656 13.535156 42.8125 13.863281 Z M 42.8125 13.863281 "/>
<path style=" stroke:none;fill-rule:nonzero;fill:rgb(94.901961%,69.411767%,62.7451%);fill-opacity:1;" d="M 75.265625 17.742188 C 75.765625 18.394531 75.75 18.960938 75.703125 19.757812 C 75.578125 20.324219 75.40625 20.878906 75.234375 21.4375 C 75.144531 21.746094 75.050781 22.058594 74.960938 22.367188 C 74.917969 22.519531 74.875 22.667969 74.828125 22.824219 C 74.257812 24.804688 74.011719 26.660156 74.042969 28.71875 C 74.113281 28.609375 74.179688 28.496094 74.25 28.378906 C 75.195312 26.859375 76.277344 25.5 77.46875 24.164062 C 77.539062 24.082031 77.613281 23.996094 77.691406 23.910156 C 78.351562 23.179688 78.96875 22.777344 79.957031 22.691406 C 80.476562 22.742188 80.761719 22.78125 81.179688 23.078125 C 81.691406 23.839844 81.671875 24.507812 81.515625 25.398438 C 81.195312 26.117188 80.796875 26.769531 80.375 27.425781 C 80.078125 27.890625 79.796875 28.363281 79.511719 28.835938 C 79.449219 28.933594 79.390625 29.035156 79.328125 29.136719 C 78.410156 30.664062 77.5625 32.234375 76.699219 33.796875 C 76.3125 34.5 75.921875 35.199219 75.527344 35.894531 C 73.941406 38.71875 72.578125 41.414062 71.597656 44.503906 C 71.078125 46.097656 70.355469 46.855469 68.898438 47.648438 C 68.386719 47.882812 67.871094 48.09375 67.351562 48.300781 C 64.617188 49.425781 62.421875 50.933594 60.265625 52.960938 C 60.160156 53.046875 60.058594 53.136719 59.953125 53.230469 C 57.515625 55.464844 55.886719 59.117188 55.730469 62.398438 C 55.691406 64.066406 55.847656 65.707031 56.035156 67.363281 C 56.304688 69.746094 56.304688 69.746094 55.792969 70.472656 C 55.144531 71 54.59375 71.199219 53.789062 71.386719 C 53.648438 71.421875 53.511719 71.453125 53.367188 71.488281 C 50.925781 71.988281 48.382812 71.851562 45.984375 71.21875 C 45.757812 71.164062 45.757812 71.164062 45.523438 71.105469 C 44.722656 70.878906 44.265625 70.644531 43.828125 69.890625 C 43.675781 69.390625 43.621094 68.90625 43.582031 68.386719 C 43.570312 68.21875 43.554688 68.050781 43.542969 67.875 C 43.527344 67.695312 43.515625 67.511719 43.5 67.324219 C 43.484375 67.136719 43.472656 66.945312 43.457031 66.75 C 43.425781 66.347656 43.394531 65.941406 43.367188 65.539062 C 43.320312 64.933594 43.273438 64.328125 43.226562 63.722656 C 42.761719 57.640625 42.761719 57.640625 43.195312 54.980469 C 43.21875 54.839844 43.238281 54.695312 43.261719 54.550781 C 43.894531 50.746094 45.566406 47.566406 48.703125 45.246094 C 51.003906 43.605469 53.683594 42.402344 56.246094 41.226562 C 56.480469 41.117188 56.480469 41.117188 56.71875 41.007812 C 57.011719 40.871094 57.304688 40.738281 57.597656 40.609375 C 58.902344 40.007812 60.03125 39.253906 60.621094 37.902344 C 60.914062 37.101562 61.152344 36.285156 61.382812 35.464844 C 61.5 35.066406 61.617188 34.667969 61.730469 34.269531 C 61.789062 34.066406 61.847656 33.863281 61.910156 33.65625 C 62.199219 32.65625 62.496094 31.65625 62.796875 30.660156 C 62.847656 30.480469 62.902344 30.300781 62.953125 30.117188 C 63.554688 28.128906 63.554688 28.128906 64.394531 27.484375 C 64.875 27.359375 65.257812 27.46875 65.742188 27.558594 C 65.777344 27.363281 65.816406 27.164062 65.851562 26.960938 C 66.785156 22.113281 66.785156 22.113281 68.398438 20.421875 C 68.519531 20.28125 68.636719 20.144531 68.761719 20.003906 C 69.304688 19.714844 69.527344 19.757812 70.132812 19.808594 C 70.609375 19.84375 70.609375 19.84375 71.054688 19.757812 C 71.398438 19.414062 71.597656 19.074219 71.828125 18.648438 C 72.195312 18.007812 72.691406 17.59375 73.367188 17.285156 C 74.105469 17.242188 74.679688 17.277344 75.265625 17.742188 Z M 75.265625 17.742188 "/>
<path style=" stroke:none;fill-rule:nonzero;fill:rgb(16.078432%,18.82353%,20%);fill-opacity:1;" d="M 42.8125 13.863281 C 43.019531 13.902344 43.230469 13.945312 43.441406 13.988281 C 44.007812 14.105469 44.574219 14.21875 45.140625 14.335938 C 45.742188 14.460938 46.339844 14.582031 46.941406 14.703125 C 48.078125 14.933594 49.21875 15.167969 50.355469 15.398438 C 51.632812 15.660156 52.910156 15.921875 54.1875 16.179688 C 58.648438 17.089844 63.109375 18 67.570312 18.925781 C 67.570312 19.582031 67.570312 20.242188 67.570312 20.917969 C 66.304688 21.4375 65.023438 21.898438 63.730469 22.335938 C 63.527344 22.40625 63.324219 22.476562 63.117188 22.546875 C 62.691406 22.691406 62.265625 22.835938 61.839844 22.980469 C 61.292969 23.164062 60.746094 23.351562 60.203125 23.535156 C 59.679688 23.714844 59.15625 23.890625 58.636719 24.070312 C 58.441406 24.136719 58.242188 24.203125 58.042969 24.273438 C 57.863281 24.332031 57.679688 24.394531 57.496094 24.457031 C 57.257812 24.539062 57.257812 24.539062 57.011719 24.621094 C 56.613281 24.738281 56.613281 24.738281 56.113281 24.738281 C 56.113281 24.855469 56.117188 24.976562 56.117188 25.101562 C 56.132812 26.242188 56.140625 27.382812 56.148438 28.523438 C 56.152344 29.109375 56.15625 29.699219 56.164062 30.285156 C 56.171875 30.957031 56.175781 31.632812 56.179688 32.308594 C 56.179688 32.515625 56.183594 32.726562 56.1875 32.945312 C 56.1875 33.140625 56.1875 33.335938 56.1875 33.539062 C 56.191406 33.710938 56.191406 33.882812 56.191406 34.058594 C 56.074219 34.761719 55.699219 35.171875 55.144531 35.59375 C 52.835938 36.796875 50.046875 37.140625 47.480469 37.355469 C 47.273438 37.371094 47.066406 37.390625 46.855469 37.410156 C 41.914062 37.785156 34.003906 38.351562 29.882812 35.03125 C 29.667969 34.597656 29.695312 34.289062 29.699219 33.804688 C 29.699219 33.527344 29.699219 33.527344 29.699219 33.242188 C 29.699219 33.039062 29.699219 32.839844 29.699219 32.632812 C 29.699219 32.425781 29.699219 32.21875 29.703125 32.007812 C 29.703125 31.460938 29.703125 30.914062 29.707031 30.363281 C 29.707031 29.804688 29.707031 29.246094 29.707031 28.6875 C 29.710938 27.59375 29.714844 26.496094 29.71875 25.402344 C 29.53125 25.359375 29.347656 25.320312 29.15625 25.277344 C 27.570312 24.929688 25.992188 24.5625 24.417969 24.160156 C 24.054688 24.066406 23.6875 23.976562 23.324219 23.882812 C 22.679688 23.71875 22.039062 23.558594 21.398438 23.394531 C 21.136719 23.324219 20.875 23.257812 20.609375 23.191406 C 20.226562 23.09375 19.839844 22.996094 19.457031 22.898438 C 19.335938 22.867188 19.21875 22.839844 19.097656 22.808594 C 18.28125 22.597656 18.28125 22.597656 18.097656 22.414062 C 18.070312 21.804688 18.089844 21.195312 18.097656 20.585938 C 19.878906 19.777344 21.738281 19.179688 23.589844 18.558594 C 24.574219 18.230469 25.554688 17.898438 26.535156 17.566406 C 26.832031 17.464844 26.832031 17.464844 27.136719 17.363281 C 29.457031 16.578125 31.769531 15.765625 34.082031 14.953125 C 34.472656 14.816406 34.867188 14.679688 35.257812 14.546875 C 35.785156 14.363281 36.308594 14.175781 36.828125 13.980469 C 37.09375 13.886719 37.355469 13.792969 37.617188 13.699219 C 37.789062 13.632812 37.789062 13.632812 37.96875 13.5625 C 39.550781 13.007812 41.222656 13.535156 42.8125 13.863281 Z M 42.8125 13.863281 "/>
<path style=" stroke:none;fill-rule:nonzero;fill:rgb(30.980393%,34.117648%,36.862746%);fill-opacity:1;" d="M 55.28125 29.21875 C 55.429688 29.3125 55.574219 29.410156 55.722656 29.507812 C 56.113281 29.882812 56.113281 29.882812 56.21875 30.371094 C 56.21875 30.558594 56.21875 30.742188 56.21875 30.933594 C 56.21875 31.140625 56.21875 31.34375 56.21875 31.554688 C 56.214844 31.765625 56.210938 31.976562 56.207031 32.195312 C 56.207031 32.410156 56.210938 32.621094 56.210938 32.839844 C 56.199219 34.574219 56.199219 34.574219 55.449219 35.359375 C 53.390625 36.933594 49.988281 37.148438 47.480469 37.351562 C 47.273438 37.371094 47.066406 37.390625 46.855469 37.410156 C 41.914062 37.785156 34.003906 38.351562 29.882812 35.03125 C 29.675781 34.613281 29.695312 34.332031 29.699219 33.867188 C 29.699219 33.695312 29.699219 33.523438 29.699219 33.34375 C 29.699219 33.15625 29.699219 32.96875 29.699219 32.777344 C 29.699219 32.585938 29.699219 32.394531 29.703125 32.195312 C 29.703125 31.585938 29.703125 30.972656 29.707031 30.359375 C 29.707031 29.945312 29.707031 29.53125 29.707031 29.117188 C 29.710938 28.097656 29.714844 27.082031 29.71875 26.0625 C 32.46875 24.929688 32.46875 24.929688 33.761719 24.613281 C 33.964844 24.5625 33.964844 24.5625 34.171875 24.511719 C 41.582031 22.804688 49.296875 24.632812 55.28125 29.21875 Z M 55.28125 29.21875 "/>
<path style=" stroke:none;fill-rule:nonzero;fill:rgb(9.411765%,11.764706%,11.764706%);fill-opacity:1;" d="M 55.8125 33.617188 C 56.113281 34.03125 56.113281 34.03125 56.164062 34.4375 C 55.65625 35.429688 54.742188 35.847656 53.71875 36.199219 C 47.148438 38.28125 37.207031 38.75 30.878906 35.695312 C 30.765625 35.640625 30.652344 35.585938 30.535156 35.527344 C 30.058594 35.261719 29.890625 35.054688 29.695312 34.542969 C 29.71875 34.03125 29.71875 34.03125 29.933594 33.609375 C 34.691406 29.292969 51.015625 29.5 55.8125 33.617188 Z M 55.8125 33.617188 "/>
<path style=" stroke:none;fill-rule:nonzero;fill:rgb(23.921569%,26.666668%,28.627452%);fill-opacity:1;" d="M 55.664062 22.574219 C 56.230469 23.246094 56.132812 23.886719 56.128906 24.726562 C 56.128906 24.949219 56.128906 24.949219 56.128906 25.171875 C 56.128906 25.644531 56.125 26.113281 56.125 26.582031 C 56.121094 26.902344 56.121094 27.21875 56.121094 27.539062 C 56.121094 28.320312 56.117188 29.101562 56.113281 29.882812 C 55.59375 29.539062 55.074219 29.191406 54.5625 28.835938 C 48.738281 24.84375 42.058594 23.261719 35.046875 24.488281 C 33.460938 24.816406 31.933594 25.285156 30.4375 25.910156 C 30.046875 26.0625 30.046875 26.0625 29.71875 26.0625 C 29.699219 25.582031 29.6875 25.101562 29.675781 24.621094 C 29.667969 24.488281 29.664062 24.351562 29.660156 24.210938 C 29.648438 23.574219 29.671875 23.164062 29.960938 22.585938 C 30.546875 22.109375 31.078125 22.015625 31.8125 21.894531 C 31.957031 21.867188 32.101562 21.839844 32.25 21.8125 C 37.710938 20.859375 51.148438 18.703125 55.664062 22.574219 Z M 55.664062 22.574219 "/>
<path style=" stroke:none;fill-rule:nonzero;fill:rgb(9.019608%,11.372549%,11.372549%);fill-opacity:1;" d="M 42.8125 13.863281 C 43.019531 13.902344 43.230469 13.945312 43.441406 13.988281 C 44.007812 14.105469 44.574219 14.21875 45.140625 14.335938 C 45.742188 14.460938 46.339844 14.582031 46.941406 14.703125 C 48.078125 14.933594 49.21875 15.167969 50.355469 15.398438 C 51.632812 15.660156 52.910156 15.921875 54.1875 16.179688 C 58.648438 17.089844 63.109375 18 67.570312 18.925781 C 67.570312 19.582031 67.570312 20.242188 67.570312 20.917969 C 67.414062 20.886719 67.261719 20.855469 67.105469 20.824219 C 65.644531 20.523438 64.179688 20.222656 62.71875 19.921875 C 61.96875 19.769531 61.214844 19.613281 60.464844 19.460938 C 59.59375 19.28125 58.726562 19.101562 57.855469 18.925781 C 57.714844 18.894531 57.570312 18.863281 57.425781 18.835938 C 55.613281 18.464844 53.800781 18.097656 51.984375 17.738281 C 50.699219 17.480469 49.417969 17.214844 48.136719 16.945312 C 47.4375 16.800781 46.738281 16.65625 46.042969 16.511719 C 45.445312 16.386719 44.851562 16.261719 44.253906 16.136719 C 43.667969 16.011719 43.078125 15.890625 42.488281 15.769531 C 42.160156 15.703125 41.835938 15.632812 41.507812 15.5625 C 39.722656 15.199219 38.527344 15.390625 36.820312 15.984375 C 36.65625 16.042969 36.496094 16.097656 36.328125 16.152344 C 35.792969 16.335938 35.261719 16.519531 34.726562 16.707031 C 34.355469 16.832031 33.984375 16.960938 33.609375 17.089844 C 30.921875 18.011719 28.242188 18.949219 25.558594 19.886719 C 23.082031 20.753906 20.589844 21.59375 18.097656 22.414062 C 18.097656 21.808594 18.097656 21.207031 18.097656 20.585938 C 19.886719 19.792969 21.734375 19.179688 23.589844 18.558594 C 24.574219 18.230469 25.554688 17.898438 26.535156 17.566406 C 26.832031 17.464844 26.832031 17.464844 27.136719 17.363281 C 29.457031 16.578125 31.769531 15.765625 34.082031 14.953125 C 34.472656 14.816406 34.867188 14.679688 35.257812 14.546875 C 35.785156 14.363281 36.308594 14.175781 36.828125 13.980469 C 37.09375 13.886719 37.355469 13.792969 37.617188 13.699219 C 37.789062 13.632812 37.789062 13.632812 37.96875 13.5625 C 39.550781 13.007812 41.222656 13.535156 42.8125 13.863281 Z M 42.8125 13.863281 "/>
<path style=" stroke:none;fill-rule:nonzero;fill:rgb(92.54902%,63.921571%,57.254905%);fill-opacity:1;" d="M 41.671875 56.609375 C 42.097656 57.039062 42.042969 57.332031 42.046875 57.917969 C 42.042969 58.054688 42.042969 58.195312 42.042969 58.335938 C 42.039062 58.480469 42.039062 58.628906 42.039062 58.777344 C 42.015625 60.617188 41.882812 62.449219 41.746094 64.28125 C 41.699219 64.886719 41.660156 65.496094 41.617188 66.101562 C 41.589844 66.492188 41.5625 66.882812 41.53125 67.269531 C 41.515625 67.539062 41.515625 67.539062 41.496094 67.816406 C 41.410156 68.878906 41.328125 69.890625 40.546875 70.691406 C 40.058594 70.949219 39.578125 71.09375 39.042969 71.242188 C 38.847656 71.296875 38.652344 71.351562 38.449219 71.410156 C 36.199219 71.949219 33.824219 71.867188 31.5625 71.4375 C 31.359375 71.402344 31.359375 71.402344 31.148438 71.363281 C 30.238281 71.171875 29.707031 70.890625 29.054688 70.226562 C 28.898438 69.761719 28.863281 69.476562 28.867188 69 C 28.867188 68.875 28.863281 68.75 28.863281 68.621094 C 28.886719 68.203125 28.960938 67.8125 29.054688 67.402344 C 29.25 67.410156 29.445312 67.421875 29.648438 67.429688 C 32.652344 67.535156 35.058594 66.863281 37.375 64.871094 C 39.851562 62.535156 40.933594 59.871094 41.671875 56.609375 Z M 41.671875 56.609375 "/>
<path style=" stroke:none;fill-rule:nonzero;fill:rgb(92.54902%,63.921571%,57.254905%);fill-opacity:1;" d="M 43.328125 54.453125 C 43.386719 54.453125 43.441406 54.453125 43.496094 54.453125 C 43.5 54.550781 43.507812 54.652344 43.511719 54.753906 C 43.78125 59.070312 44.542969 62.871094 47.8125 65.90625 C 49.679688 67.488281 51.929688 68.296875 54.359375 68.253906 C 54.511719 68.25 54.664062 68.25 54.824219 68.25 C 55.199219 68.246094 55.574219 68.238281 55.945312 68.234375 C 56.101562 70.015625 56.101562 70.015625 55.574219 70.734375 C 53.34375 72.15625 49.617188 71.984375 47.117188 71.5 C 46.738281 71.414062 46.363281 71.320312 45.984375 71.21875 C 45.832031 71.183594 45.679688 71.144531 45.523438 71.105469 C 44.722656 70.878906 44.265625 70.644531 43.828125 69.890625 C 43.675781 69.390625 43.621094 68.90625 43.582031 68.386719 C 43.570312 68.21875 43.554688 68.050781 43.542969 67.875 C 43.527344 67.695312 43.515625 67.511719 43.5 67.324219 C 43.484375 67.136719 43.472656 66.945312 43.457031 66.75 C 43.425781 66.347656 43.394531 65.941406 43.367188 65.539062 C 43.320312 64.933594 43.273438 64.328125 43.226562 63.722656 C 43.089844 61.921875 42.96875 60.125 42.96875 58.316406 C 42.96875 58.179688 42.96875 58.042969 42.96875 57.902344 C 42.976562 56.734375 43.113281 55.601562 43.328125 54.453125 Z M 43.328125 54.453125 "/>
<path style=" stroke:none;fill-rule:nonzero;fill:rgb(99.607843%,78.823531%,42.352942%);fill-opacity:1;" d="M 24.40625 24.070312 C 24.84375 24.128906 25.28125 24.183594 25.734375 24.238281 C 25.75 25.304688 25.757812 26.339844 25.566406 27.390625 C 25.730469 27.449219 25.894531 27.503906 26.0625 27.558594 C 26.53125 28.261719 26.53125 28.890625 26.398438 29.71875 C 26.121094 30.046875 25.84375 30.382812 25.566406 30.710938 C 25.511719 31.132812 25.527344 31.527344 25.546875 31.949219 C 25.566406 32.335938 25.539062 32.667969 25.484375 33.046875 C 25.289062 34.675781 25.113281 36.417969 25.914062 37.898438 C 26.121094 38.289062 26.152344 38.578125 26.0625 39.015625 C 25.8125 39.386719 25.628906 39.492188 25.203125 39.625 C 25.050781 39.644531 24.894531 39.660156 24.734375 39.679688 C 24.523438 39.703125 24.3125 39.726562 24.09375 39.75 C 23.355469 39.746094 22.980469 39.417969 22.453125 38.933594 C 22.246094 38.679688 22.246094 38.679688 22.246094 38.351562 C 22.164062 38.433594 22.082031 38.515625 21.996094 38.597656 C 21.417969 38.945312 20.902344 38.996094 20.253906 38.847656 C 19.53125 38.417969 18.921875 37.800781 18.59375 37.023438 C 18.628906 36.285156 19.1875 35.902344 19.695312 35.433594 C 21.714844 33.46875 22.691406 31.191406 22.847656 28.382812 C 22.953125 27.820312 23.296875 27.550781 23.742188 27.226562 C 23.851562 27.226562 23.960938 27.226562 24.070312 27.226562 C 24.183594 26.1875 24.292969 25.144531 24.40625 24.070312 Z M 24.40625 24.070312 "/>
<path style=" stroke:none;fill-rule:nonzero;fill:rgb(16.078432%,18.82353%,20%);fill-opacity:1;" d="M 31.542969 32.703125 C 31.605469 32.828125 31.667969 32.953125 31.730469 33.078125 C 32.40625 34.074219 33.734375 34.347656 34.851562 34.636719 C 34.972656 34.667969 35.09375 34.703125 35.21875 34.738281 C 37.671875 35.382812 40.207031 35.429688 42.726562 35.421875 C 42.878906 35.421875 43.03125 35.421875 43.1875 35.421875 C 46.664062 35.417969 50.566406 35.378906 53.625 33.535156 C 53.734375 33.535156 53.84375 33.535156 53.953125 33.535156 C 54.066406 33.261719 54.175781 32.988281 54.289062 32.703125 C 55.039062 33.039062 55.601562 33.378906 56.113281 34.03125 C 56.164062 34.4375 56.164062 34.4375 55.945312 34.863281 C 53.832031 37.25 48.839844 37.273438 45.933594 37.460938 C 41.109375 37.734375 35.328125 37.84375 30.878906 35.695312 C 30.765625 35.640625 30.652344 35.585938 30.535156 35.527344 C 30.058594 35.261719 29.890625 35.054688 29.695312 34.542969 C 29.722656 33.875 29.90625 33.664062 30.382812 33.203125 C 31.101562 32.703125 31.101562 32.703125 31.542969 32.703125 Z M 31.542969 32.703125 "/>
<path style=" stroke:none;fill-rule:nonzero;fill:rgb(96.862745%,81.568629%,77.64706%);fill-opacity:1;" d="M 26.5625 49.472656 C 26.953125 49.699219 27.265625 49.90625 27.609375 50.1875 C 27.75 50.300781 27.75 50.300781 27.894531 50.414062 C 29.308594 51.574219 30.863281 53.214844 31.136719 55.085938 C 31.046875 55.617188 31.046875 55.617188 30.785156 56.03125 C 30.382812 56.28125 30.382812 56.28125 29.816406 56.28125 C 29.21875 56.113281 29.21875 56.113281 28.84375 55.625 C 28.738281 55.417969 28.632812 55.210938 28.535156 55.003906 C 27.921875 53.78125 27.253906 52.875 26.105469 52.085938 C 25.25 51.496094 25.25 51.496094 25.070312 51.132812 C 24.992188 50.101562 24.992188 50.101562 25.253906 49.648438 C 25.71875 49.386719 26.03125 49.417969 26.5625 49.472656 Z M 26.5625 49.472656 "/>
<path style=" stroke:none;fill-rule:nonzero;fill:rgb(57.647061%,59.607846%,61.56863%);fill-opacity:1;" d="M 37.582031 27.652344 C 37.75 27.648438 37.914062 27.648438 38.085938 27.648438 C 38.242188 27.648438 38.398438 27.652344 38.5625 27.652344 C 38.699219 27.652344 38.839844 27.65625 38.984375 27.65625 C 39.425781 27.738281 39.578125 27.863281 39.84375 28.222656 C 39.929688 28.808594 39.933594 29.09375 39.582031 29.578125 C 39.035156 29.992188 38.660156 29.964844 37.976562 29.976562 C 36.773438 30.015625 35.644531 30.1875 34.46875 30.425781 C 33.277344 30.664062 33.277344 30.664062 32.703125 30.710938 C 32.25 30.316406 32.074219 30.046875 31.957031 29.457031 C 32.070312 28.90625 32.269531 28.746094 32.703125 28.390625 C 33.121094 28.230469 33.488281 28.113281 33.917969 28.015625 C 34.039062 27.988281 34.160156 27.960938 34.28125 27.929688 C 35.378906 27.707031 36.464844 27.660156 37.582031 27.652344 Z M 37.582031 27.652344 "/>
<path style=" stroke:none;fill-rule:nonzero;fill:rgb(100%,38.039216%,37.64706%);fill-opacity:1;" d="M 24.40625 24.070312 C 24.84375 24.128906 25.28125 24.183594 25.734375 24.238281 C 25.75 25.304688 25.757812 26.339844 25.566406 27.390625 C 25.730469 27.449219 25.894531 27.503906 26.0625 27.558594 C 26.535156 28.265625 26.519531 28.886719 26.398438 29.71875 C 26.183594 30.222656 26.019531 30.355469 25.566406 30.710938 C 24.90625 30.828125 24.527344 30.875 23.941406 30.546875 C 23.214844 29.976562 22.953125 29.542969 22.835938 28.648438 C 22.929688 27.90625 23.160156 27.679688 23.742188 27.226562 C 23.851562 27.226562 23.960938 27.226562 24.070312 27.226562 C 24.183594 26.1875 24.292969 25.144531 24.40625 24.070312 Z M 24.40625 24.070312 "/>
<path style=" stroke:none;fill-rule:nonzero;fill:rgb(96.862745%,81.568629%,77.64706%);fill-opacity:1;" d="M 59.929688 48.144531 C 60.398438 48.46875 60.558594 48.664062 60.699219 49.214844 C 60.542969 49.851562 60.109375 50.101562 59.601562 50.46875 C 58.8125 51.050781 58.109375 51.597656 57.492188 52.367188 C 57.011719 52.945312 57.011719 52.945312 56.414062 53.074219 C 55.894531 52.945312 55.632812 52.867188 55.28125 52.460938 C 55.167969 52.023438 55.167969 52.023438 55.28125 51.464844 C 56.207031 49.917969 57.992188 47.898438 59.929688 48.144531 Z M 59.929688 48.144531 "/>
<path style=" stroke:none;fill-rule:nonzero;fill:rgb(90.980393%,60.000002%,52.941179%);fill-opacity:1;" d="M 73.875 29.054688 C 74.042969 29.382812 74.042969 29.382812 73.914062 29.792969 C 73.851562 29.953125 73.785156 30.113281 73.722656 30.277344 C 73.480469 30.878906 73.378906 31.214844 73.378906 31.875 C 73.777344 32.234375 73.777344 32.234375 74.210938 32.539062 C 74.503906 33.132812 74.355469 33.746094 74.210938 34.367188 C 73.414062 36.226562 72.082031 37.710938 70.660156 39.117188 C 70.484375 39.292969 70.484375 39.292969 70.304688 39.476562 C 69.5 40.28125 68.648438 40.992188 67.734375 41.671875 C 67.875 41.691406 68.019531 41.710938 68.164062 41.730469 C 68.347656 41.757812 68.53125 41.785156 68.71875 41.816406 C 68.902344 41.84375 69.085938 41.867188 69.273438 41.898438 C 69.5 41.949219 69.5 41.949219 69.726562 42 C 69.78125 42.113281 69.835938 42.222656 69.890625 42.335938 C 69.730469 42.296875 69.566406 42.257812 69.398438 42.214844 C 68.53125 42.058594 67.683594 41.917969 66.886719 42.363281 C 65.605469 43.339844 64.484375 44.660156 63.585938 45.984375 C 63.417969 45.902344 63.417969 45.902344 63.25 45.820312 C 64.707031 43.980469 66.296875 42.402344 68.09375 40.898438 C 71.628906 37.96875 71.628906 37.96875 73.875 34.03125 C 73.957031 33.261719 73.957031 33.261719 73.691406 32.558594 C 73.234375 32.285156 72.917969 32.226562 72.382812 32.207031 C 70.039062 32.855469 68.09375 34.550781 66.222656 36.03125 C 60.140625 40.839844 60.140625 40.839844 57.609375 40.839844 C 57.609375 40.730469 57.609375 40.621094 57.609375 40.507812 C 57.699219 40.492188 57.789062 40.476562 57.882812 40.460938 C 58.882812 40.265625 59.710938 39.929688 60.605469 39.449219 C 60.742188 39.375 60.878906 39.304688 61.019531 39.230469 C 62.421875 38.460938 63.664062 37.519531 64.914062 36.523438 C 65.113281 36.367188 65.3125 36.207031 65.511719 36.050781 C 65.65625 35.933594 65.65625 35.933594 65.804688 35.816406 C 65.902344 35.742188 65.996094 35.667969 66.09375 35.589844 C 66.191406 35.515625 66.285156 35.441406 66.382812 35.363281 C 70.960938 31.765625 70.960938 31.765625 72.882812 31.875 C 72.898438 31.78125 72.914062 31.691406 72.929688 31.59375 C 73.117188 30.648438 73.414062 29.898438 73.875 29.054688 Z M 73.875 29.054688 "/>
<path style=" stroke:none;fill-rule:nonzero;fill:rgb(90.980393%,60.000002%,52.941179%);fill-opacity:1;" d="M 10.957031 29.054688 C 11.441406 29.460938 11.609375 29.871094 11.816406 30.464844 C 11.875 30.625 11.933594 30.78125 11.992188 30.945312 C 12.117188 31.375 12.117188 31.375 12.117188 31.875 C 12.316406 31.875 12.515625 31.875 12.722656 31.875 C 14.65625 32.09375 16.453125 33.707031 17.929688 34.863281 C 18.191406 35.0625 18.453125 35.257812 18.71875 35.453125 C 18.898438 35.589844 19.078125 35.722656 19.257812 35.859375 C 19.09375 35.914062 18.929688 35.96875 18.757812 36.023438 C 18.394531 35.765625 18.394531 35.765625 17.960938 35.382812 C 16.90625 34.488281 15.789062 33.753906 14.609375 33.039062 C 14.484375 32.957031 14.355469 32.878906 14.226562 32.796875 C 13.40625 32.328125 12.554688 32.1875 11.621094 32.375 C 11.199219 32.695312 11.132812 32.824219 11.03125 33.359375 C 11.152344 35.921875 13.84375 38.21875 15.605469 39.84375 C 16.039062 40.210938 16.484375 40.566406 16.929688 40.921875 C 20.960938 44.265625 20.960938 44.265625 21.75 45.984375 C 21.125 45.777344 20.992188 45.53125 20.597656 45.011719 C 20.316406 44.671875 20.039062 44.332031 19.757812 43.992188 C 19.683594 43.90625 19.609375 43.816406 19.535156 43.726562 C 18.644531 42.660156 18.644531 42.660156 17.414062 42.105469 C 16.628906 42.074219 15.878906 42.183594 15.109375 42.335938 C 15.164062 42.222656 15.21875 42.113281 15.273438 42 C 15.726562 41.898438 15.726562 41.898438 16.28125 41.816406 C 16.464844 41.789062 16.648438 41.757812 16.835938 41.730469 C 16.976562 41.710938 17.121094 41.691406 17.265625 41.671875 C 17.121094 41.558594 17.121094 41.558594 16.972656 41.449219 C 14.832031 39.769531 12.546875 37.808594 11.289062 35.359375 C 11.21875 35.242188 11.148438 35.121094 11.074219 34.996094 C 10.671875 34.273438 10.496094 33.714844 10.625 32.871094 C 10.921875 32.414062 11.132812 32.121094 11.621094 31.875 C 11.515625 30.894531 11.257812 29.992188 10.957031 29.054688 Z M 10.957031 29.054688 "/>
<path style=" stroke:none;fill-rule:nonzero;fill:rgb(90.196079%,58.039218%,50.980395%);fill-opacity:1;" d="M 72.882812 32.703125 C 73.296875 32.953125 73.296875 32.953125 73.546875 33.203125 C 73.460938 34.269531 73.15625 34.90625 72.414062 35.671875 C 71.867188 35.953125 71.492188 35.945312 70.890625 35.859375 C 70.410156 35.453125 70.410156 35.453125 70.058594 35.03125 C 70.003906 34.972656 69.949219 34.917969 69.890625 34.863281 C 69.929688 34.238281 69.964844 33.824219 70.347656 33.316406 C 71.179688 32.695312 71.867188 32.625 72.882812 32.703125 Z M 72.882812 32.703125 "/>
<path style=" stroke:none;fill-rule:nonzero;fill:rgb(90.196079%,58.039218%,50.980395%);fill-opacity:1;" d="M 13.894531 32.902344 C 14.484375 33.222656 14.78125 33.449219 15.109375 34.03125 C 15.121094 34.691406 14.980469 34.972656 14.597656 35.507812 C 14.058594 35.898438 13.769531 36.003906 13.113281 35.964844 C 12.363281 35.726562 11.960938 35.011719 11.597656 34.351562 C 11.410156 33.933594 11.386719 33.65625 11.453125 33.203125 C 12.125 32.429688 13.003906 32.617188 13.894531 32.902344 Z M 13.894531 32.902344 "/>
<path style=" stroke:none;fill-rule:nonzero;fill:rgb(99.607843%,71.764708%,24.705882%);fill-opacity:1;" d="M 23.90625 32.539062 C 24.519531 33.5625 24.328125 34.894531 24.070312 36.015625 C 23.808594 37.167969 23.597656 38.628906 24.238281 39.679688 C 23.488281 39.664062 23.019531 39.546875 22.484375 39.023438 C 22.222656 38.671875 22.089844 38.445312 22.046875 38.007812 C 22.210938 36.875 22.777344 35.808594 23.269531 34.78125 C 23.628906 34.019531 23.832031 33.378906 23.90625 32.539062 Z M 23.90625 32.539062 "/>
<path style=" stroke:none;fill-rule:nonzero;fill:rgb(96.862745%,81.568629%,77.64706%);fill-opacity:1;" d="M 54.753906 53.738281 C 55.28125 53.789062 55.28125 53.789062 55.6875 54.046875 C 55.945312 54.453125 55.945312 54.453125 55.9375 55.011719 C 55.742188 55.769531 55.507812 56.386719 54.953125 56.945312 C 54.378906 57.003906 54.378906 57.003906 53.789062 56.945312 C 53.371094 56.59375 53.304688 56.355469 53.207031 55.824219 C 53.339844 54.972656 53.828125 53.839844 54.753906 53.738281 Z M 54.753906 53.738281 "/>
<path style=" stroke:none;fill-rule:nonzero;fill:rgb(57.647061%,59.607846%,61.56863%);fill-opacity:1;" d="M 42.820312 27.652344 C 42.996094 27.648438 43.167969 27.644531 43.34375 27.640625 C 43.9375 27.742188 44.128906 27.921875 44.492188 28.390625 C 44.574219 28.804688 44.574219 28.804688 44.492188 29.21875 C 44.128906 29.683594 43.933594 29.863281 43.34375 29.972656 C 43.171875 29.96875 43 29.96875 42.820312 29.964844 C 42.5625 29.96875 42.5625 29.96875 42.296875 29.972656 C 41.835938 29.882812 41.835938 29.882812 41.527344 29.578125 C 41.269531 29.09375 41.269531 28.765625 41.335938 28.222656 C 41.742188 27.644531 42.144531 27.652344 42.820312 27.652344 Z M 42.820312 27.652344 "/>
<path style=" stroke:none;fill-rule:nonzero;fill:rgb(96.862745%,81.568629%,77.254903%);fill-opacity:1;" d="M 31.875 57.441406 C 32.421875 57.902344 32.589844 58.34375 32.703125 59.027344 C 32.742188 59.5625 32.734375 59.71875 32.445312 60.191406 C 31.929688 60.496094 31.632812 60.515625 31.046875 60.429688 C 30.496094 60.074219 30.359375 59.554688 30.214844 58.9375 C 30.246094 58.3125 30.246094 58.3125 30.382812 57.773438 C 30.960938 57.386719 31.191406 57.34375 31.875 57.441406 Z M 31.875 57.441406 "/>
<path style=" stroke:none;fill-rule:nonzero;fill:rgb(91.37255%,60.784316%,53.725493%);fill-opacity:1;" d="M 71.054688 19.921875 C 71.277344 20.644531 71.101562 21.222656 70.910156 21.933594 C 70.878906 22.054688 70.847656 22.175781 70.816406 22.300781 C 70.585938 23.1875 70.585938 23.1875 70.390625 23.574219 C 70.773438 23.574219 71.15625 23.574219 71.554688 23.574219 C 71.554688 23.683594 71.554688 23.792969 71.554688 23.90625 C 71.113281 23.90625 70.675781 23.90625 70.226562 23.90625 C 70.207031 24.015625 70.1875 24.121094 70.167969 24.230469 C 69.960938 25.441406 69.6875 26.628906 69.382812 27.816406 C 69.339844 27.996094 69.292969 28.175781 69.25 28.359375 C 68.917969 29.671875 68.917969 29.671875 68.730469 30.046875 C 69.167969 30.046875 69.605469 30.046875 70.058594 30.046875 C 70.058594 30.105469 70.058594 30.160156 70.058594 30.214844 C 69.320312 30.296875 69.320312 30.296875 68.5625 30.382812 C 68.539062 30.683594 68.539062 30.683594 68.511719 30.992188 C 68.398438 32.027344 68.148438 33.027344 67.898438 34.03125 C 67.789062 34.03125 67.679688 34.03125 67.570312 34.03125 C 67.671875 32.753906 67.953125 31.550781 68.265625 30.308594 C 68.320312 30.09375 68.375 29.878906 68.425781 29.664062 C 68.539062 29.214844 68.652344 28.765625 68.765625 28.316406 C 68.910156 27.75 69.050781 27.183594 69.191406 26.613281 C 69.75 24.363281 70.3125 22.121094 71.054688 19.921875 Z M 71.054688 19.921875 "/>
<path style=" stroke:none;fill-rule:nonzero;fill:rgb(91.37255%,60.392159%,53.725493%);fill-opacity:1;" d="M 14.609375 22.910156 C 14.96875 23.269531 15.015625 23.410156 15.136719 23.886719 C 15.1875 24.085938 15.1875 24.085938 15.242188 24.292969 C 15.277344 24.4375 15.3125 24.582031 15.351562 24.730469 C 15.386719 24.882812 15.425781 25.03125 15.464844 25.1875 C 15.546875 25.511719 15.628906 25.832031 15.710938 26.152344 C 15.832031 26.632812 15.953125 27.117188 16.078125 27.597656 C 16.453125 29.082031 16.820312 30.570312 17.15625 32.066406 C 17.199219 32.25 17.199219 32.25 17.242188 32.4375 C 17.367188 32.988281 17.429688 33.464844 17.429688 34.03125 C 17.320312 34.03125 17.210938 34.03125 17.101562 34.03125 C 16.6875 32.308594 16.6875 32.308594 16.269531 30.546875 C 15.832031 30.4375 15.394531 30.328125 14.941406 30.214844 C 14.941406 30.160156 14.941406 30.105469 14.941406 30.046875 C 15.378906 30.046875 15.816406 30.046875 16.269531 30.046875 C 16.21875 29.863281 16.164062 29.679688 16.109375 29.488281 C 15.746094 28.1875 15.386719 26.886719 15.054688 25.578125 C 15.027344 25.464844 15 25.355469 14.96875 25.242188 C 14.855469 24.78125 14.773438 24.382812 14.773438 23.90625 C 14.335938 23.90625 13.898438 23.90625 13.445312 23.90625 C 13.445312 23.796875 13.445312 23.6875 13.445312 23.574219 C 13.832031 23.574219 14.214844 23.574219 14.609375 23.574219 C 14.609375 23.355469 14.609375 23.136719 14.609375 22.910156 Z M 14.609375 22.910156 "/>
<path style=" stroke:none;fill-rule:nonzero;fill:rgb(99.607843%,86.274511%,60.000002%);fill-opacity:1;" d="M 24.40625 24.070312 C 24.84375 24.128906 25.28125 24.183594 25.734375 24.238281 C 25.761719 26.339844 25.761719 26.339844 25.566406 27.226562 C 25.074219 27.226562 24.582031 27.226562 24.070312 27.226562 C 24.183594 26.1875 24.292969 25.144531 24.40625 24.070312 Z M 24.40625 24.070312 "/>
<path style=" stroke:none;fill-rule:nonzero;fill:rgb(90.588236%,59.607846%,52.549022%);fill-opacity:1;" d="M 75.703125 18.59375 C 75.738281 19.464844 75.621094 20.21875 75.382812 21.054688 C 75.351562 21.164062 75.320312 21.273438 75.289062 21.386719 C 75.175781 21.800781 75.066406 22.195312 74.875 22.578125 C 74.230469 22.433594 74.230469 22.433594 74.042969 22.246094 C 74.113281 21.117188 74.21875 19.710938 74.941406 18.792969 C 75.203125 18.59375 75.203125 18.59375 75.703125 18.59375 Z M 75.703125 18.59375 "/>
<path style=" stroke:none;fill-rule:nonzero;fill:rgb(91.37255%,60.784316%,53.725493%);fill-opacity:1;" d="M 65.90625 27.890625 C 66.097656 28.449219 66.046875 28.785156 65.871094 29.347656 C 65.828125 29.492188 65.78125 29.640625 65.734375 29.792969 C 65.6875 29.945312 65.636719 30.097656 65.585938 30.257812 C 65.539062 30.410156 65.488281 30.566406 65.441406 30.726562 C 65.320312 31.109375 65.199219 31.492188 65.078125 31.875 C 65.1875 31.820312 65.296875 31.765625 65.410156 31.710938 C 65.992188 31.679688 65.992188 31.679688 66.570312 31.710938 C 66.683594 31.820312 66.792969 31.929688 66.90625 32.039062 C 66.246094 32.097656 65.589844 32.152344 64.914062 32.207031 C 64.867188 32.441406 64.820312 32.679688 64.773438 32.921875 C 64.585938 33.859375 64.367188 34.785156 64.144531 35.714844 C 64.105469 35.871094 64.066406 36.03125 64.027344 36.195312 C 63.9375 36.582031 63.84375 36.96875 63.75 37.351562 C 63.640625 37.351562 63.53125 37.351562 63.417969 37.351562 C 63.625 35.917969 63.9375 34.523438 64.304688 33.121094 C 64.394531 32.789062 64.480469 32.457031 64.5625 32.121094 C 65.386719 28.929688 65.386719 28.929688 65.90625 27.890625 Z M 65.90625 27.890625 "/>
<path style=" stroke:none;fill-rule:nonzero;fill:rgb(91.37255%,60.784316%,53.725493%);fill-opacity:1;" d="M 18.925781 27.890625 C 19.035156 27.890625 19.144531 27.890625 19.257812 27.890625 C 19.445312 28.539062 19.628906 29.183594 19.816406 29.832031 C 19.878906 30.050781 19.941406 30.269531 20.007812 30.492188 C 20.097656 30.808594 20.1875 31.125 20.277344 31.441406 C 20.363281 31.726562 20.363281 31.726562 20.445312 32.019531 C 20.679688 32.882812 20.769531 33.632812 20.75 34.53125 C 20.261719 33.796875 20.230469 33.074219 20.085938 32.207031 C 19.429688 32.152344 18.773438 32.097656 18.09375 32.039062 C 18.09375 31.984375 18.09375 31.929688 18.09375 31.875 C 18.699219 31.875 19.300781 31.875 19.921875 31.875 C 19.851562 31.628906 19.777344 31.382812 19.703125 31.128906 C 19.609375 30.808594 19.515625 30.484375 19.421875 30.164062 C 19.375 30 19.328125 29.839844 19.28125 29.671875 C 19.234375 29.515625 19.191406 29.359375 19.144531 29.199219 C 19.101562 29.054688 19.058594 28.914062 19.015625 28.765625 C 18.925781 28.390625 18.925781 28.390625 18.925781 27.890625 Z M 18.925781 27.890625 "/>
<path style=" stroke:none;fill-rule:nonzero;fill:rgb(90.588236%,59.215689%,52.156866%);fill-opacity:1;" d="M 9.460938 19.257812 C 9.949219 19.425781 10.121094 19.582031 10.417969 20.015625 C 10.671875 20.71875 10.703125 21.335938 10.625 22.078125 C 10.570312 22.191406 10.515625 22.300781 10.460938 22.414062 C 10.292969 22.355469 10.128906 22.300781 9.960938 22.246094 C 9.761719 21.746094 9.761719 21.746094 9.585938 21.113281 C 9.527344 20.910156 9.46875 20.703125 9.410156 20.488281 C 9.308594 19.980469 9.277344 19.730469 9.460938 19.257812 Z M 9.460938 19.257812 "/>
<path style=" stroke:none;fill-rule:nonzero;fill:rgb(90.588236%,59.607846%,52.549022%);fill-opacity:1;" d="M 25.898438 39.679688 C 26.4375 40.007812 26.4375 40.007812 26.894531 40.34375 C 27.058594 40.398438 27.222656 40.453125 27.390625 40.507812 C 27.390625 40.617188 27.390625 40.726562 27.390625 40.839844 C 26.3125 40.746094 25.1875 40.460938 24.40625 39.679688 C 24.933594 39.414062 25.332031 39.554688 25.898438 39.679688 Z M 25.898438 39.679688 "/>
<path style=" stroke:none;fill-rule:nonzero;fill:rgb(95.294118%,67.843139%,60.784316%);fill-opacity:1;" d="M 24.734375 39.511719 C 25.671875 39.585938 26.167969 39.792969 26.894531 40.34375 C 26.398438 40.507812 26.398438 40.507812 25.984375 40.34375 C 25.835938 40.261719 25.6875 40.183594 25.535156 40.101562 C 25.386719 40.023438 25.234375 39.945312 25.082031 39.863281 C 24.96875 39.804688 24.855469 39.742188 24.734375 39.679688 C 24.734375 39.621094 24.734375 39.566406 24.734375 39.511719 Z M 24.734375 39.511719 "/>
</g>
</svg>
