<?xml version="1.0" encoding="UTF-8"?>
<svg xmlns="http://www.w3.org/2000/svg" xmlns:xlink="http://www.w3.org/1999/xlink" width="98px" height="98px" viewBox="0 0 98 98" version="1.1">
<g id="surface1">
<path style=" stroke:none;fill-rule:nonzero;fill:rgb(16.470589%,19.215687%,20.392157%);fill-opacity:1;" d="M 85.945312 50.941406 C 86.71875 51.183594 87.492188 51.417969 88.269531 51.644531 C 88.78125 51.792969 89.289062 51.945312 89.796875 52.097656 C 90.15625 52.203125 90.515625 52.308594 90.875 52.410156 C 92.910156 53.027344 92.910156 53.027344 93.597656 53.976562 C 95.140625 56.898438 94.820312 60.972656 94.050781 64.058594 C 93.746094 64.800781 93.460938 65.160156 92.832031 65.652344 C 91.921875 65.992188 90.992188 66.128906 90.03125 66.261719 C 88.734375 66.453125 87.445312 66.6875 86.15625 66.945312 C 85.847656 67.003906 85.539062 67.066406 85.230469 67.128906 C 84.765625 67.21875 84.300781 67.3125 83.839844 67.410156 C 80.835938 68.035156 77.769531 68.539062 74.988281 66.9375 C 74.25 66.441406 73.8125 65.953125 73.378906 65.179688 C 72.71875 64.164062 72.011719 63.917969 70.878906 63.582031 C 69.191406 63.019531 67.800781 62.269531 66.324219 61.28125 C 65.25 60.570312 64.214844 60.070312 62.972656 59.71875 C 62.976562 59.828125 62.984375 59.9375 62.988281 60.050781 C 63.113281 62.765625 63.222656 65.484375 63.292969 68.203125 C 63.300781 68.597656 63.3125 68.992188 63.328125 69.386719 C 63.347656 69.96875 63.363281 70.550781 63.375 71.136719 C 63.386719 71.398438 63.386719 71.398438 63.394531 71.664062 C 63.421875 73.035156 63.222656 74.25 62.386719 75.367188 C 60.929688 76.480469 59.183594 77.050781 57.457031 77.613281 C 57.230469 77.691406 57.003906 77.765625 56.773438 77.839844 C 52.382812 79.261719 47.804688 80.214844 43.179688 80.238281 C 42.902344 80.238281 42.902344 80.238281 42.621094 80.242188 C 42.027344 80.246094 41.433594 80.246094 40.839844 80.246094 C 40.539062 80.246094 40.539062 80.246094 40.226562 80.246094 C 37.304688 80.246094 34.460938 80.175781 31.582031 79.625 C 31.390625 79.589844 31.199219 79.554688 31.003906 79.519531 C 24.019531 78.230469 24.019531 78.230469 22.957031 76.707031 C 22.761719 76.34375 22.574219 75.976562 22.394531 75.605469 C 22.359375 75.761719 22.320312 75.917969 22.28125 76.082031 C 22.234375 76.289062 22.183594 76.492188 22.132812 76.707031 C 22.082031 76.910156 22.035156 77.113281 21.984375 77.324219 C 21.648438 78.507812 21.648438 78.507812 21.128906 78.902344 C 21.007812 78.964844 20.886719 79.027344 20.765625 79.09375 C 20.566406 79.199219 20.566406 79.199219 20.363281 79.308594 C 20.222656 79.382812 20.085938 79.453125 19.941406 79.527344 C 16.878906 81.152344 15.855469 83.621094 14.546875 86.707031 C 14.003906 86.738281 14.003906 86.738281 13.398438 86.707031 C 13.136719 86.457031 12.875 86.210938 12.617188 85.960938 C 11.949219 85.578125 11.214844 85.714844 10.472656 85.773438 C 9.953125 85.75 9.953125 85.75 9.613281 85.535156 C 9.300781 85.054688 9.222656 84.613281 9.117188 84.050781 C 8.773438 82.578125 8.019531 82 6.804688 81.195312 C 6.507812 80.964844 6.507812 80.964844 6.125 80.390625 C 6.125 79.734375 6.125 79.734375 6.316406 79.050781 C 7.019531 78.367188 7.679688 78.222656 8.625 78.011719 C 9.839844 77.726562 10.304688 77.3125 11.046875 76.3125 C 12.554688 74.347656 13.90625 73.480469 16.328125 72.921875 C 17.003906 72.742188 17.5625 72.507812 18.183594 72.195312 C 19.066406 71.769531 19.539062 71.675781 20.480469 71.96875 C 20.765625 72.160156 20.765625 72.160156 21.054688 72.351562 C 21.507812 71.421875 21.703125 70.816406 21.617188 69.765625 C 21.605469 69.644531 21.597656 69.523438 21.585938 69.394531 C 21.429688 67.597656 21.175781 65.808594 20.933594 64.019531 C 20.917969 63.894531 20.898438 63.765625 20.882812 63.632812 C 20.835938 63.28125 20.789062 62.929688 20.738281 62.578125 C 20.671875 62.015625 20.671875 62.015625 20.671875 61.441406 C 20.53125 61.433594 20.394531 61.425781 20.25 61.414062 C 18.394531 61.285156 16.558594 61.054688 14.714844 60.8125 C 14.390625 60.769531 14.0625 60.726562 13.734375 60.683594 C 12.882812 60.574219 12.03125 60.460938 11.179688 60.347656 C 10.308594 60.234375 9.433594 60.121094 8.5625 60.007812 C 6.855469 59.785156 5.152344 59.558594 3.445312 59.335938 C 3.445312 58.578125 3.445312 57.820312 3.445312 57.039062 C 12.652344 53.8125 23.269531 52.757812 32.914062 51.269531 C 33.316406 51.207031 33.71875 51.144531 34.121094 51.082031 C 34.386719 51.039062 34.652344 51 34.914062 50.957031 C 36.394531 50.730469 37.855469 50.46875 39.316406 50.128906 C 47.046875 48.332031 54.488281 50.175781 62.121094 51.757812 C 62.257812 51.785156 62.394531 51.8125 62.539062 51.839844 C 63.078125 51.957031 63.597656 52.078125 64.121094 52.253906 C 64.164062 52.136719 64.203125 52.019531 64.246094 51.898438 C 64.601562 51.332031 64.933594 51.269531 65.566406 51.0625 C 65.894531 50.957031 65.894531 50.957031 66.230469 50.847656 C 66.464844 50.773438 66.703125 50.703125 66.945312 50.625 C 67.125 50.570312 67.125 50.570312 67.308594 50.511719 C 73.984375 48.433594 79.351562 48.871094 85.945312 50.941406 Z M 85.945312 50.941406 "/>
<path style=" stroke:none;fill-rule:nonzero;fill:rgb(30.980393%,34.117648%,37.254903%);fill-opacity:1;" d="M 32.125 13.226562 C 32.296875 13.28125 32.46875 13.339844 32.648438 13.394531 C 33.132812 13.597656 33.488281 13.8125 33.878906 14.164062 C 33.878906 14.289062 33.878906 14.417969 33.878906 14.546875 C 34.09375 14.496094 34.09375 14.496094 34.308594 14.441406 C 36.066406 14.027344 37.835938 13.6875 39.613281 13.367188 C 39.765625 13.339844 39.914062 13.3125 40.070312 13.285156 C 40.867188 13.140625 41.664062 12.996094 42.460938 12.855469 C 43.109375 12.738281 43.761719 12.621094 44.414062 12.5 C 45.210938 12.355469 46.003906 12.210938 46.800781 12.070312 C 47.101562 12.019531 47.402344 11.964844 47.699219 11.90625 C 49.578125 11.558594 51.300781 11.429688 53.210938 11.675781 C 53.433594 11.703125 53.65625 11.730469 53.882812 11.761719 C 54.601562 11.859375 55.316406 11.964844 56.03125 12.074219 C 56.300781 12.113281 56.570312 12.15625 56.835938 12.195312 C 57.558594 12.304688 58.28125 12.414062 59.003906 12.527344 C 59.460938 12.597656 59.914062 12.667969 60.371094 12.738281 C 71.8125 14.496094 83.304688 16.390625 94.554688 19.140625 C 94.554688 19.898438 94.554688 20.65625 94.554688 21.4375 C 92.800781 21.820312 91.03125 22.046875 89.25 22.277344 C 88.921875 22.320312 88.597656 22.359375 88.269531 22.402344 C 87.589844 22.492188 86.910156 22.578125 86.230469 22.667969 C 85.359375 22.777344 84.488281 22.890625 83.613281 23.003906 C 82.941406 23.09375 82.269531 23.179688 81.597656 23.265625 C 81.277344 23.308594 80.957031 23.351562 80.632812 23.390625 C 80.1875 23.449219 79.738281 23.507812 79.289062 23.566406 C 79.15625 23.582031 79.023438 23.597656 78.886719 23.617188 C 78.363281 23.683594 77.859375 23.734375 77.328125 23.734375 C 77.191406 24.824219 77.054688 25.914062 76.917969 27.003906 C 76.875 27.375 76.828125 27.742188 76.78125 28.113281 C 76.710938 28.648438 76.644531 29.183594 76.582031 29.714844 C 76.558594 29.878906 76.539062 30.042969 76.515625 30.210938 C 76.257812 32.125 76.257812 32.125 76.65625 33.976562 C 76.753906 34.195312 76.847656 34.417969 76.945312 34.644531 C 77.074219 34.550781 77.207031 34.453125 77.339844 34.359375 C 78.042969 34 78.457031 34.007812 79.242188 34.070312 C 79.875 34.324219 79.875 34.324219 80.535156 34.667969 C 81.816406 35.316406 83.117188 35.757812 84.5 36.132812 C 85.515625 36.425781 86.160156 36.753906 86.898438 37.515625 C 87.152344 38.03125 87.152344 38.03125 87.328125 38.582031 C 87.796875 39.820312 88.476562 40.640625 89.347656 41.613281 C 89.859375 42.214844 90.109375 42.640625 90.25 43.414062 C 90.144531 44.082031 90.054688 44.171875 89.601562 44.632812 C 88.910156 45.359375 88.816406 46.042969 88.703125 47.019531 C 88.621094 47.46875 88.621094 47.46875 88.238281 47.851562 C 87.773438 47.867188 87.773438 47.867188 87.222656 47.839844 C 86.121094 47.820312 85.617188 48.039062 84.792969 48.761719 C 84.410156 49 84.410156 49 83.929688 49.035156 C 83.378906 48.773438 83.335938 48.660156 83.085938 48.125 C 83.019531 47.988281 82.953125 47.847656 82.886719 47.707031 C 82.820312 47.566406 82.753906 47.421875 82.6875 47.277344 C 81.488281 44.738281 80.589844 42.941406 77.964844 41.703125 C 77.160156 41.3125 76.652344 40.957031 76.179688 40.195312 C 75.980469 39.597656 75.980469 39.597656 75.84375 38.988281 C 75.796875 38.78125 75.753906 38.578125 75.703125 38.367188 C 75.671875 38.210938 75.640625 38.058594 75.605469 37.898438 C 75.539062 38.015625 75.472656 38.128906 75.402344 38.25 C 75.257812 38.476562 75.257812 38.476562 75.113281 38.710938 C 75.023438 38.863281 74.933594 39.015625 74.839844 39.167969 C 73.835938 40.355469 72.414062 40.625 70.964844 40.960938 C 70.757812 41.007812 70.550781 41.058594 70.335938 41.109375 C 67.96875 41.644531 65.574219 42.007812 63.164062 42.300781 C 63 42.320312 62.835938 42.339844 62.667969 42.363281 C 60.984375 42.539062 59.292969 42.539062 57.601562 42.539062 C 57.359375 42.539062 57.359375 42.539062 57.113281 42.539062 C 50.914062 42.53125 45.113281 41.378906 39.238281 39.429688 C 39.09375 39.382812 38.949219 39.335938 38.804688 39.289062 C 37.445312 38.847656 36.074219 38.335938 35.21875 37.132812 C 34.660156 35.875 34.574219 34.742188 34.625 33.378906 C 34.628906 33.09375 34.628906 33.09375 34.636719 32.800781 C 34.652344 32.191406 34.671875 31.582031 34.691406 30.972656 C 34.703125 30.574219 34.714844 30.171875 34.722656 29.773438 C 34.789062 27.183594 34.902344 24.597656 35.027344 22.011719 C 33.542969 22.4375 32.347656 23.101562 31.042969 23.914062 C 29.707031 24.746094 28.464844 25.371094 26.960938 25.851562 C 25.667969 26.273438 25.054688 26.804688 24.308594 27.945312 C 22.792969 29.539062 21.308594 30.203125 19.105469 30.289062 C 16.320312 30.25 13.527344 29.503906 10.820312 28.925781 C 9.316406 28.609375 7.839844 28.363281 6.308594 28.234375 C 5.445312 28.085938 4.761719 27.675781 4.210938 26.988281 C 4.035156 26.5625 4.035156 26.5625 3.898438 26.078125 C 3.855469 25.921875 3.808594 25.765625 3.761719 25.605469 C 3.042969 22.539062 3.140625 18.71875 4.59375 15.886719 C 5.429688 14.929688 6.703125 14.730469 7.882812 14.402344 C 8.351562 14.269531 8.816406 14.136719 9.285156 14.003906 C 9.523438 13.933594 9.761719 13.867188 10.007812 13.796875 C 10.902344 13.535156 11.789062 13.257812 12.675781 12.976562 C 19.558594 10.796875 25.273438 10.980469 32.125 13.226562 Z M 32.125 13.226562 "/>
<path style=" stroke:none;fill-rule:nonzero;fill:rgb(30.980393%,34.117648%,37.254903%);fill-opacity:1;" d="M 38.664062 54.359375 C 38.804688 54.453125 38.949219 54.550781 39.09375 54.648438 C 39.824219 55.042969 40.527344 55.074219 41.34375 55.125 C 40.753906 56.308594 37.957031 56.757812 36.695312 57.1875 C 33.910156 58.101562 31.03125 58.65625 28.128906 59.054688 C 26.722656 59.261719 25.519531 59.542969 24.609375 60.6875 C 24.125 61.597656 24.085938 62.347656 24.09375 63.355469 C 24.09375 63.5 24.09375 63.644531 24.09375 63.792969 C 24.101562 64.929688 24.171875 66.054688 24.308594 67.183594 C 25.273438 67.070312 26.179688 66.863281 27.117188 66.617188 C 29.113281 66.085938 31.113281 65.65625 33.148438 65.304688 C 33.375 65.265625 33.601562 65.226562 33.832031 65.1875 C 36.550781 64.730469 39.242188 64.648438 41.988281 64.648438 C 42.160156 64.648438 42.328125 64.648438 42.503906 64.648438 C 45.152344 64.648438 47.734375 64.753906 50.339844 65.269531 C 50.507812 65.300781 50.671875 65.332031 50.84375 65.367188 C 54.929688 66.171875 59.957031 67.664062 63.164062 70.4375 C 63.511719 71.910156 63.519531 73.488281 62.78125 74.839844 C 61.578125 76.441406 59.285156 77.015625 57.457031 77.617188 C 57.230469 77.691406 57.003906 77.765625 56.773438 77.839844 C 52.382812 79.261719 47.804688 80.214844 43.179688 80.238281 C 42.902344 80.238281 42.902344 80.238281 42.617188 80.242188 C 42.027344 80.246094 41.433594 80.246094 40.839844 80.246094 C 40.539062 80.246094 40.539062 80.246094 40.226562 80.246094 C 37.304688 80.246094 34.460938 80.175781 31.582031 79.625 C 31.390625 79.589844 31.199219 79.554688 31.003906 79.519531 C 24.019531 78.230469 24.019531 78.230469 22.957031 76.707031 C 22.761719 76.34375 22.574219 75.976562 22.394531 75.605469 C 22.359375 75.761719 22.320312 75.917969 22.28125 76.082031 C 22.234375 76.289062 22.183594 76.492188 22.132812 76.707031 C 22.082031 76.910156 22.035156 77.113281 21.984375 77.324219 C 21.648438 78.507812 21.648438 78.507812 21.128906 78.902344 C 21.007812 78.964844 20.886719 79.027344 20.765625 79.09375 C 20.566406 79.199219 20.566406 79.199219 20.363281 79.308594 C 20.222656 79.382812 20.085938 79.453125 19.941406 79.53125 C 16.878906 81.152344 15.855469 83.621094 14.546875 86.707031 C 14.003906 86.738281 14.003906 86.738281 13.398438 86.707031 C 13.136719 86.457031 12.875 86.210938 12.617188 85.960938 C 11.949219 85.578125 11.214844 85.714844 10.472656 85.773438 C 9.953125 85.75 9.953125 85.75 9.613281 85.535156 C 9.300781 85.054688 9.222656 84.613281 9.117188 84.050781 C 8.773438 82.578125 8.019531 82 6.804688 81.195312 C 6.507812 80.964844 6.507812 80.964844 6.125 80.390625 C 6.125 79.734375 6.125 79.734375 6.316406 79.050781 C 7.019531 78.367188 7.679688 78.222656 8.625 78.011719 C 9.839844 77.726562 10.304688 77.3125 11.046875 76.3125 C 12.554688 74.347656 13.90625 73.480469 16.328125 72.921875 C 17.003906 72.742188 17.5625 72.507812 18.183594 72.195312 C 19.066406 71.769531 19.539062 71.675781 20.480469 71.96875 C 20.765625 72.160156 20.765625 72.160156 21.054688 72.351562 C 21.144531 72.144531 21.234375 71.941406 21.328125 71.730469 C 21.382812 71.613281 21.433594 71.5 21.484375 71.378906 C 22.085938 69.84375 21.902344 67.984375 21.726562 66.371094 C 21.246094 61.609375 21.246094 61.609375 22.394531 59.71875 C 22.519531 59.511719 22.519531 59.511719 22.648438 59.296875 C 23.667969 57.785156 24.945312 57.179688 26.695312 56.785156 C 27.777344 56.578125 28.867188 56.398438 29.953125 56.222656 C 30.101562 56.199219 30.246094 56.175781 30.398438 56.152344 C 30.777344 56.089844 31.15625 56.027344 31.535156 55.964844 C 33.199219 55.664062 34.75 55.179688 36.339844 54.597656 C 36.503906 54.539062 36.667969 54.480469 36.835938 54.421875 C 36.980469 54.367188 37.125 54.316406 37.273438 54.261719 C 37.800781 54.148438 38.152344 54.210938 38.664062 54.359375 Z M 38.664062 54.359375 "/>
<path style=" stroke:none;fill-rule:nonzero;fill:rgb(16.470589%,19.215687%,20.392157%);fill-opacity:1;" d="M 56.03125 12.074219 C 56.300781 12.113281 56.570312 12.15625 56.835938 12.195312 C 57.558594 12.304688 58.28125 12.414062 59.003906 12.527344 C 59.460938 12.597656 59.914062 12.667969 60.371094 12.738281 C 71.8125 14.496094 83.304688 16.390625 94.554688 19.140625 C 94.554688 19.898438 94.554688 20.65625 94.554688 21.4375 C 92.800781 21.820312 91.03125 22.046875 89.25 22.277344 C 88.921875 22.320312 88.597656 22.359375 88.269531 22.402344 C 87.589844 22.492188 86.910156 22.578125 86.230469 22.667969 C 85.359375 22.777344 84.488281 22.890625 83.613281 23.003906 C 82.941406 23.09375 82.269531 23.179688 81.597656 23.265625 C 81.277344 23.308594 80.957031 23.351562 80.632812 23.390625 C 80.1875 23.449219 79.738281 23.507812 79.289062 23.566406 C 79.15625 23.582031 79.023438 23.597656 78.886719 23.617188 C 78.363281 23.683594 77.859375 23.734375 77.328125 23.734375 C 77.300781 23.96875 77.273438 24.203125 77.246094 24.441406 C 77.144531 25.308594 77.042969 26.179688 76.941406 27.046875 C 76.894531 27.421875 76.851562 27.796875 76.808594 28.171875 C 76.746094 28.710938 76.683594 29.25 76.617188 29.789062 C 76.597656 29.957031 76.578125 30.125 76.558594 30.296875 C 76.542969 30.457031 76.523438 30.613281 76.503906 30.773438 C 76.484375 30.914062 76.46875 31.050781 76.453125 31.191406 C 76.363281 31.625 76.199219 31.960938 75.988281 32.347656 C 75.984375 31.824219 75.980469 31.304688 75.976562 30.78125 C 75.976562 30.632812 75.972656 30.484375 75.972656 30.335938 C 75.96875 30.117188 75.96875 30.117188 75.96875 29.898438 C 75.96875 29.703125 75.96875 29.703125 75.964844 29.5 C 75.988281 29.09375 75.988281 29.09375 76.082031 28.625 C 76.253906 27.757812 76.230469 26.878906 76.238281 25.996094 C 76.246094 25.710938 76.246094 25.710938 76.257812 25.421875 C 76.273438 23.558594 75.777344 21.992188 74.472656 20.625 C 72.632812 19.082031 70.042969 18.859375 67.746094 18.601562 C 64.96875 18.25 60.757812 17.570312 58.761719 15.503906 C 58.101562 15.285156 57.570312 15.28125 56.871094 15.277344 C 56.523438 15.273438 56.523438 15.273438 56.167969 15.269531 C 55.53125 15.3125 55.109375 15.390625 54.550781 15.695312 C 54.378906 16.183594 54.378906 16.183594 54.359375 16.652344 C 55.085938 16.984375 55.792969 17.261719 56.5625 17.476562 C 57.398438 17.71875 58.195312 18.03125 59 18.363281 C 60.363281 18.921875 61.738281 19.34375 63.164062 19.714844 C 63.390625 19.777344 63.617188 19.839844 63.851562 19.90625 C 65.609375 20.371094 67.371094 20.691406 69.175781 20.945312 C 70.625 21.164062 72.296875 21.429688 73.320312 22.574219 C 73.675781 23.132812 73.777344 23.476562 73.882812 24.117188 C 72.472656 24.308594 71.0625 24.5 69.652344 24.691406 C 69.175781 24.753906 68.695312 24.820312 68.21875 24.882812 C 67.527344 24.980469 66.835938 25.070312 66.144531 25.164062 C 65.933594 25.191406 65.71875 25.222656 65.5 25.253906 C 63.851562 25.472656 62.257812 25.640625 60.632812 25.199219 C 60.421875 25.140625 60.210938 25.085938 59.992188 25.03125 C 59.773438 24.96875 59.550781 24.910156 59.324219 24.847656 C 56.992188 24.238281 54.65625 23.738281 52.289062 23.28125 C 51.667969 23.15625 51.050781 23.027344 50.429688 22.894531 C 43.316406 21.363281 36.105469 20.355469 28.902344 19.332031 C 28.894531 19.183594 28.882812 19.035156 28.875 18.886719 C 28.859375 18.691406 28.84375 18.5 28.832031 18.304688 C 28.816406 18.113281 28.804688 17.921875 28.789062 17.722656 C 28.757812 17.195312 28.757812 17.195312 28.328125 16.84375 C 27.867188 16.730469 27.867188 16.730469 27.371094 16.84375 C 26.675781 17.519531 26.542969 17.992188 26.222656 18.949219 C 25.085938 18.886719 23.949219 18.824219 22.777344 18.757812 C 22.777344 18 22.777344 17.242188 22.777344 16.460938 C 25.363281 15.917969 27.945312 15.429688 30.558594 15.046875 C 32.140625 14.8125 33.707031 14.519531 35.277344 14.210938 C 35.800781 14.109375 36.324219 14.003906 36.851562 13.902344 C 36.984375 13.878906 37.117188 13.851562 37.253906 13.824219 C 39.347656 13.417969 41.441406 13.035156 43.539062 12.664062 C 44.191406 12.546875 44.847656 12.425781 45.503906 12.304688 C 46.15625 12.183594 46.8125 12.066406 47.46875 11.953125 C 47.824219 11.886719 48.183594 11.820312 48.542969 11.753906 C 51.089844 11.3125 53.496094 11.6875 56.03125 12.074219 Z M 56.03125 12.074219 "/>
<path style=" stroke:none;fill-rule:nonzero;fill:rgb(92.156863%,63.529414%,56.862748%);fill-opacity:1;" d="M 85.945312 50.941406 C 86.71875 51.183594 87.492188 51.417969 88.269531 51.644531 C 88.78125 51.792969 89.289062 51.945312 89.796875 52.097656 C 90.15625 52.203125 90.515625 52.308594 90.875 52.410156 C 92.910156 53.027344 92.910156 53.027344 93.597656 53.976562 C 95.140625 56.898438 94.820312 60.972656 94.050781 64.058594 C 93.746094 64.800781 93.460938 65.160156 92.832031 65.652344 C 91.921875 65.992188 90.992188 66.128906 90.03125 66.261719 C 88.734375 66.453125 87.445312 66.6875 86.15625 66.945312 C 85.847656 67.003906 85.539062 67.066406 85.230469 67.128906 C 84.765625 67.21875 84.300781 67.3125 83.839844 67.410156 C 80.835938 68.035156 77.769531 68.539062 74.988281 66.9375 C 74.25 66.441406 73.8125 65.953125 73.378906 65.179688 C 72.71875 64.164062 72.011719 63.917969 70.878906 63.582031 C 69.191406 63.019531 67.800781 62.269531 66.324219 61.28125 C 65.242188 60.566406 64.222656 60.082031 62.972656 59.71875 C 62.972656 59.085938 62.972656 58.457031 62.972656 57.804688 C 63.753906 57.695312 64.53125 57.585938 65.3125 57.476562 C 65.578125 57.441406 65.84375 57.402344 66.109375 57.367188 C 66.488281 57.3125 66.871094 57.257812 67.253906 57.207031 C 67.484375 57.175781 67.710938 57.140625 67.949219 57.109375 C 68.523438 57.039062 68.523438 57.039062 69.097656 57.039062 C 69.085938 56.84375 69.085938 56.84375 69.078125 56.648438 C 69.074219 56.476562 69.066406 56.304688 69.0625 56.128906 C 69.054688 55.960938 69.046875 55.792969 69.042969 55.617188 C 69.105469 55.039062 69.289062 54.789062 69.671875 54.359375 C 70.1875 54.359375 70.1875 54.359375 70.820312 54.550781 C 71.375 55.191406 71.777344 55.796875 71.777344 56.65625 C 72.152344 56.609375 72.152344 56.609375 72.53125 56.558594 C 73.433594 56.457031 74.316406 56.449219 75.222656 56.464844 C 75.128906 55.421875 75.128906 55.421875 75.03125 54.359375 C 72.949219 53.792969 70.886719 53.460938 68.742188 53.226562 C 67.175781 53.050781 65.65625 52.796875 64.121094 52.445312 C 64.132812 52.097656 64.132812 52.097656 64.3125 51.679688 C 64.765625 51.4375 65.167969 51.269531 65.652344 51.105469 C 65.824219 51.046875 65.996094 50.988281 66.171875 50.925781 C 73.304688 48.554688 78.8125 48.703125 85.945312 50.941406 Z M 85.945312 50.941406 "/>
<path style=" stroke:none;fill-rule:nonzero;fill:rgb(94.901961%,69.411767%,62.7451%);fill-opacity:1;" d="M 32.125 13.226562 C 32.296875 13.28125 32.46875 13.339844 32.648438 13.394531 C 33.125 13.59375 33.480469 13.835938 33.878906 14.164062 C 33.816406 14.355469 33.753906 14.542969 33.6875 14.738281 C 31.464844 15.144531 29.257812 15.53125 27.007812 15.75 C 25.976562 15.855469 25 16.0625 24 16.347656 C 23.542969 16.460938 23.542969 16.460938 22.777344 16.460938 C 22.777344 17.21875 22.777344 17.976562 22.777344 18.757812 C 23.132812 18.753906 23.488281 18.75 23.855469 18.746094 C 24.664062 18.746094 25.425781 18.773438 26.222656 18.949219 C 26.242188 18.699219 26.242188 18.699219 26.257812 18.445312 C 26.464844 17.589844 26.734375 17.261719 27.371094 16.652344 C 27.875 16.542969 27.875 16.542969 28.328125 16.652344 C 28.640625 16.878906 28.640625 16.878906 28.902344 17.226562 C 28.957031 17.742188 28.957031 17.742188 28.9375 18.316406 C 28.929688 18.601562 28.929688 18.601562 28.921875 18.890625 C 28.914062 19.035156 28.910156 19.183594 28.902344 19.332031 C 29.023438 19.339844 29.144531 19.347656 29.269531 19.355469 C 31.207031 19.488281 33.113281 19.796875 35.027344 20.097656 C 35.027344 20.730469 35.027344 21.359375 35.027344 22.011719 C 34.757812 22.089844 34.492188 22.167969 34.214844 22.25 C 33.0625 22.664062 32.078125 23.269531 31.042969 23.914062 C 29.707031 24.746094 28.464844 25.371094 26.960938 25.851562 C 25.667969 26.273438 25.054688 26.804688 24.308594 27.945312 C 22.792969 29.539062 21.308594 30.203125 19.105469 30.289062 C 16.320312 30.25 13.527344 29.503906 10.820312 28.925781 C 9.316406 28.609375 7.839844 28.363281 6.308594 28.234375 C 5.445312 28.085938 4.761719 27.675781 4.210938 26.988281 C 4.035156 26.5625 4.035156 26.5625 3.898438 26.078125 C 3.855469 25.921875 3.808594 25.765625 3.761719 25.605469 C 3.042969 22.539062 3.140625 18.71875 4.59375 15.886719 C 5.429688 14.929688 6.703125 14.730469 7.882812 14.402344 C 8.351562 14.269531 8.816406 14.136719 9.285156 14.003906 C 9.523438 13.933594 9.761719 13.867188 10.007812 13.796875 C 10.902344 13.535156 11.789062 13.257812 12.675781 12.976562 C 19.558594 10.796875 25.273438 10.980469 32.125 13.226562 Z M 32.125 13.226562 "/>
<path style=" stroke:none;fill-rule:nonzero;fill:rgb(99.607843%,37.64706%,37.64706%);fill-opacity:1;" d="M 56.824219 15.074219 C 57.050781 15.066406 57.28125 15.0625 57.515625 15.058594 C 58.257812 15.128906 58.710938 15.296875 59.335938 15.695312 C 59.398438 15.886719 59.460938 16.074219 59.527344 16.269531 C 59.863281 16.433594 59.863281 16.433594 60.292969 16.53125 C 60.550781 16.601562 60.550781 16.601562 60.816406 16.675781 C 61.023438 16.730469 61.230469 16.785156 61.441406 16.84375 C 61.695312 16.917969 61.945312 16.996094 62.199219 17.074219 C 64.519531 17.78125 66.839844 18.300781 69.242188 18.664062 C 71.574219 19.019531 73.808594 19.449219 75.335938 21.421875 C 76.3125 22.863281 76.480469 24.289062 76.429688 25.996094 C 76.429688 26.1875 76.425781 26.382812 76.425781 26.582031 C 76.414062 27.449219 76.355469 28.242188 76.179688 29.09375 C 76.082031 30.964844 76.105469 32.671875 76.753906 34.453125 C 77.144531 34.484375 77.144531 34.484375 77.460938 34.261719 C 78.085938 33.992188 78.5625 34.023438 79.242188 34.070312 C 79.875 34.324219 79.875 34.324219 80.535156 34.667969 C 81.816406 35.316406 83.117188 35.757812 84.5 36.132812 C 85.515625 36.425781 86.160156 36.753906 86.898438 37.515625 C 87.152344 38.03125 87.152344 38.03125 87.328125 38.582031 C 87.796875 39.820312 88.476562 40.640625 89.347656 41.613281 C 89.859375 42.214844 90.109375 42.640625 90.25 43.414062 C 90.144531 44.082031 90.054688 44.171875 89.601562 44.632812 C 88.910156 45.359375 88.816406 46.042969 88.703125 47.019531 C 88.621094 47.46875 88.621094 47.46875 88.238281 47.851562 C 87.773438 47.867188 87.773438 47.867188 87.222656 47.839844 C 86.121094 47.820312 85.617188 48.039062 84.792969 48.761719 C 84.410156 49 84.410156 49 83.929688 49.035156 C 83.378906 48.773438 83.335938 48.660156 83.085938 48.125 C 82.988281 47.917969 82.988281 47.917969 82.886719 47.707031 C 82.820312 47.566406 82.753906 47.421875 82.6875 47.277344 C 81.488281 44.738281 80.589844 42.941406 77.964844 41.703125 C 77.160156 41.3125 76.65625 40.957031 76.179688 40.195312 C 75.976562 39.601562 75.976562 39.601562 75.820312 38.953125 C 75.503906 37.753906 75.070312 36.683594 74.527344 35.570312 C 73.769531 34 73.660156 32.625 73.667969 30.898438 C 73.667969 30.722656 73.664062 30.542969 73.664062 30.359375 C 73.664062 30.1875 73.664062 30.011719 73.664062 29.835938 C 73.667969 29.679688 73.667969 29.523438 73.667969 29.363281 C 73.691406 28.875 73.785156 28.421875 73.882812 27.945312 C 73.929688 27.320312 73.9375 26.695312 73.941406 26.066406 C 73.949219 25.902344 73.953125 25.734375 73.960938 25.566406 C 73.972656 24.417969 73.785156 23.535156 73.117188 22.585938 C 71.816406 21.511719 70.320312 21.335938 68.703125 21.089844 C 64.84375 20.46875 61.050781 19.597656 57.476562 17.96875 C 56.835938 17.679688 56.210938 17.460938 55.519531 17.296875 C 54.59375 17.078125 54.59375 17.078125 54.167969 16.652344 C 54.230469 16.019531 54.289062 15.765625 54.742188 15.3125 C 55.421875 15.070312 56.109375 15.082031 56.824219 15.074219 Z M 56.824219 15.074219 "/>
<path style=" stroke:none;fill-rule:nonzero;fill:rgb(30.588236%,56.862748%,99.607843%);fill-opacity:1;" d="M 38.664062 54.359375 C 38.804688 54.453125 38.949219 54.550781 39.09375 54.648438 C 39.824219 55.042969 40.527344 55.074219 41.34375 55.125 C 40.753906 56.308594 37.957031 56.757812 36.695312 57.1875 C 33.910156 58.101562 31.03125 58.65625 28.128906 59.054688 C 26.722656 59.261719 25.519531 59.542969 24.609375 60.6875 C 24.125 61.597656 24.085938 62.347656 24.09375 63.355469 C 24.09375 63.503906 24.09375 63.648438 24.09375 63.800781 C 24.101562 64.578125 24.128906 65.34375 24.210938 66.117188 C 24.535156 69.164062 24.398438 71.726562 22.960938 74.449219 C 22.460938 75.417969 22.144531 76.355469 21.929688 77.433594 C 21.789062 78.042969 21.640625 78.515625 21.128906 78.902344 C 21.007812 78.964844 20.886719 79.027344 20.765625 79.09375 C 20.566406 79.199219 20.566406 79.199219 20.363281 79.308594 C 20.222656 79.382812 20.085938 79.453125 19.941406 79.53125 C 16.878906 81.152344 15.855469 83.621094 14.546875 86.707031 C 14.003906 86.738281 14.003906 86.738281 13.398438 86.707031 C 13.136719 86.457031 12.875 86.210938 12.617188 85.960938 C 11.949219 85.578125 11.214844 85.714844 10.472656 85.773438 C 9.953125 85.75 9.953125 85.75 9.613281 85.535156 C 9.300781 85.054688 9.222656 84.613281 9.117188 84.050781 C 8.773438 82.578125 8.019531 82 6.804688 81.195312 C 6.507812 80.964844 6.507812 80.964844 6.125 80.390625 C 6.125 79.734375 6.125 79.734375 6.316406 79.050781 C 7.019531 78.367188 7.679688 78.222656 8.625 78.011719 C 9.839844 77.726562 10.304688 77.3125 11.046875 76.3125 C 12.554688 74.347656 13.90625 73.480469 16.328125 72.921875 C 17.003906 72.742188 17.5625 72.507812 18.183594 72.195312 C 19.066406 71.769531 19.539062 71.675781 20.480469 71.96875 C 20.765625 72.160156 20.765625 72.160156 21.054688 72.351562 C 21.144531 72.144531 21.234375 71.941406 21.328125 71.730469 C 21.382812 71.613281 21.433594 71.5 21.484375 71.378906 C 22.085938 69.84375 21.902344 67.984375 21.726562 66.371094 C 21.246094 61.609375 21.246094 61.609375 22.394531 59.71875 C 22.519531 59.511719 22.519531 59.511719 22.648438 59.296875 C 23.667969 57.785156 24.945312 57.179688 26.695312 56.785156 C 27.777344 56.578125 28.867188 56.398438 29.953125 56.222656 C 30.101562 56.199219 30.246094 56.175781 30.398438 56.152344 C 30.777344 56.089844 31.15625 56.027344 31.535156 55.964844 C 33.199219 55.664062 34.75 55.179688 36.339844 54.597656 C 36.503906 54.539062 36.667969 54.480469 36.835938 54.421875 C 36.980469 54.367188 37.125 54.316406 37.273438 54.261719 C 37.800781 54.148438 38.152344 54.210938 38.664062 54.359375 Z M 38.664062 54.359375 "/>
<path style=" stroke:none;fill-rule:nonzero;fill:rgb(23.921569%,26.666668%,28.627452%);fill-opacity:1;" d="M 62.972656 57.804688 C 63.128906 62.015625 63.191406 66.222656 63.164062 70.4375 C 62.96875 70.328125 62.96875 70.328125 62.769531 70.21875 C 56.371094 66.703125 49.933594 64.800781 42.609375 64.835938 C 42.121094 64.839844 41.632812 64.835938 41.148438 64.835938 C 39.019531 64.832031 36.941406 64.980469 34.835938 65.269531 C 34.628906 65.296875 34.421875 65.324219 34.210938 65.355469 C 33.675781 65.429688 33.144531 65.515625 32.609375 65.605469 C 32.421875 65.636719 32.230469 65.667969 32.035156 65.699219 C 30.390625 65.984375 28.78125 66.371094 27.167969 66.796875 C 26.214844 67.046875 25.289062 67.285156 24.308594 67.375 C 23.621094 66.6875 23.914062 64.707031 23.914062 63.765625 C 23.914062 63.121094 23.917969 62.472656 23.925781 61.824219 C 26.109375 62.039062 28.289062 62.289062 30.46875 62.550781 C 30.757812 62.585938 31.042969 62.617188 31.328125 62.652344 C 31.734375 62.703125 32.144531 62.75 32.550781 62.800781 C 32.789062 62.828125 33.023438 62.855469 33.269531 62.886719 C 33.746094 62.953125 34.183594 63.046875 34.644531 63.164062 C 35.617188 63.214844 36.433594 63.089844 37.371094 62.839844 C 37.496094 62.808594 37.621094 62.773438 37.75 62.742188 C 38.453125 62.558594 39.152344 62.371094 39.851562 62.179688 C 42.25 61.523438 44.671875 61 47.109375 60.507812 C 47.3125 60.46875 47.511719 60.425781 47.71875 60.382812 C 51.769531 59.5625 55.832031 58.839844 59.910156 58.1875 C 60.15625 58.148438 60.40625 58.109375 60.660156 58.066406 C 62.324219 57.804688 62.324219 57.804688 62.972656 57.804688 Z M 62.972656 57.804688 "/>
<path style=" stroke:none;fill-rule:nonzero;fill:rgb(23.921569%,26.666668%,28.627452%);fill-opacity:1;" d="M 35.027344 20.097656 C 37.347656 20.367188 39.648438 20.714844 41.953125 21.101562 C 42.214844 21.144531 42.214844 21.144531 42.484375 21.191406 C 45.355469 21.671875 48.203125 22.222656 51.050781 22.839844 C 51.746094 22.980469 52.441406 23.109375 53.140625 23.234375 C 54.277344 23.441406 55.402344 23.691406 56.523438 23.976562 C 56.671875 24.011719 56.824219 24.050781 56.976562 24.089844 C 57.59375 24.246094 58.207031 24.402344 58.824219 24.5625 C 59.28125 24.679688 59.738281 24.792969 60.195312 24.910156 C 60.332031 24.945312 60.464844 24.980469 60.605469 25.019531 C 62.351562 25.449219 64.039062 25.261719 65.796875 25.015625 C 65.988281 24.988281 66.175781 24.964844 66.371094 24.9375 C 66.96875 24.855469 67.566406 24.773438 68.164062 24.691406 C 68.765625 24.609375 69.363281 24.527344 69.960938 24.445312 C 70.335938 24.394531 70.707031 24.34375 71.074219 24.292969 C 72.085938 24.15625 73.054688 24.09375 74.074219 24.117188 C 74.085938 24.730469 74.09375 25.34375 74.097656 25.960938 C 74.101562 26.132812 74.105469 26.304688 74.109375 26.484375 C 74.113281 27.433594 74.066406 28.203125 73.691406 29.09375 C 73.484375 29.023438 73.277344 28.949219 73.0625 28.875 C 64.78125 26.085938 55.980469 25.644531 47.46875 27.5625 C 47.3125 27.597656 47.15625 27.632812 46.992188 27.667969 C 42.679688 28.617188 38.769531 30.378906 34.835938 32.347656 C 34.808594 28.257812 34.871094 24.183594 35.027344 20.097656 Z M 35.027344 20.097656 "/>
<path style=" stroke:none;fill-rule:nonzero;fill:rgb(9.803922%,12.156863%,12.156863%);fill-opacity:1;" d="M 29.09375 17.417969 C 31.515625 17.335938 33.839844 17.714844 36.207031 18.148438 C 37.503906 18.382812 38.804688 18.558594 40.109375 18.722656 C 42.84375 19.078125 45.550781 19.621094 48.257812 20.144531 C 48.40625 20.175781 48.550781 20.203125 48.703125 20.230469 C 52.132812 20.898438 55.566406 21.605469 58.945312 22.5 C 59.113281 22.546875 59.285156 22.589844 59.464844 22.636719 C 59.765625 22.71875 60.070312 22.800781 60.371094 22.886719 C 62.753906 23.53125 65.207031 23.023438 67.601562 22.679688 C 68.085938 22.613281 68.574219 22.542969 69.058594 22.476562 C 69.359375 22.433594 69.660156 22.394531 69.957031 22.347656 C 70.929688 22.214844 71.949219 22.074219 72.925781 22.203125 C 73.589844 22.785156 73.734375 23.269531 73.882812 24.117188 C 72.472656 24.308594 71.0625 24.5 69.652344 24.691406 C 69.175781 24.753906 68.695312 24.820312 68.21875 24.882812 C 67.527344 24.980469 66.835938 25.070312 66.144531 25.164062 C 65.933594 25.191406 65.71875 25.222656 65.5 25.253906 C 63.851562 25.472656 62.257812 25.640625 60.632812 25.199219 C 60.421875 25.140625 60.210938 25.085938 59.992188 25.03125 C 59.664062 24.9375 59.664062 24.9375 59.324219 24.847656 C 56.992188 24.238281 54.65625 23.738281 52.289062 23.28125 C 51.667969 23.15625 51.050781 23.027344 50.429688 22.894531 C 43.316406 21.363281 36.105469 20.355469 28.902344 19.332031 C 28.964844 18.699219 29.027344 18.070312 29.09375 17.417969 Z M 29.09375 17.417969 "/>
<path style=" stroke:none;fill-rule:nonzero;fill:rgb(9.803922%,12.156863%,12.156863%);fill-opacity:1;" d="M 69.097656 55.125 C 69.097656 55.757812 69.097656 56.386719 69.097656 57.039062 C 67.402344 57.371094 65.703125 57.636719 63.988281 57.839844 C 59.34375 58.394531 54.746094 59.25 50.148438 60.101562 C 49.992188 60.128906 49.835938 60.160156 49.671875 60.191406 C 45.765625 60.914062 41.921875 61.832031 38.078125 62.84375 C 37.9375 62.882812 37.796875 62.917969 37.652344 62.957031 C 37.300781 63.046875 36.949219 63.140625 36.597656 63.234375 C 35.34375 63.480469 34.167969 63.308594 32.921875 63.117188 C 31.636719 62.921875 30.351562 62.742188 29.0625 62.578125 C 28.929688 62.5625 28.792969 62.546875 28.65625 62.527344 C 28.117188 62.460938 27.578125 62.390625 27.042969 62.324219 C 26.664062 62.277344 26.285156 62.230469 25.902344 62.179688 C 25.683594 62.152344 25.464844 62.125 25.238281 62.097656 C 24.691406 62.015625 24.691406 62.015625 24.117188 61.824219 C 24.214844 60.972656 24.425781 60.480469 25.074219 59.910156 C 25.738281 59.832031 26.375 59.929688 27.035156 60.019531 C 27.222656 60.039062 27.410156 60.0625 27.605469 60.082031 C 28.167969 60.148438 28.726562 60.21875 29.285156 60.292969 C 29.578125 60.328125 29.875 60.359375 30.167969 60.394531 C 31.441406 60.539062 32.699219 60.71875 33.949219 60.988281 C 35.175781 61.160156 36.238281 61.042969 37.433594 60.742188 C 37.566406 60.710938 37.699219 60.679688 37.835938 60.644531 C 38.257812 60.542969 38.675781 60.433594 39.09375 60.328125 C 39.371094 60.261719 39.652344 60.191406 39.929688 60.121094 C 40.9375 59.871094 41.945312 59.617188 42.953125 59.359375 C 44.050781 59.078125 45.144531 58.835938 46.261719 58.652344 C 47.21875 58.492188 48.167969 58.324219 49.113281 58.101562 C 51.332031 57.589844 53.554688 57.195312 55.808594 56.847656 C 56.132812 56.796875 56.457031 56.746094 56.785156 56.695312 C 59.035156 56.34375 61.289062 56.003906 63.546875 55.699219 C 63.734375 55.671875 63.925781 55.648438 64.117188 55.621094 C 64.722656 55.539062 65.324219 55.457031 65.925781 55.375 C 66.113281 55.351562 66.296875 55.324219 66.488281 55.300781 C 67.363281 55.183594 68.210938 55.09375 69.097656 55.125 Z M 69.097656 55.125 "/>
<path style=" stroke:none;fill-rule:nonzero;fill:rgb(90.588236%,92.941177%,98.039216%);fill-opacity:1;" d="M 56.824219 15.074219 C 57.050781 15.066406 57.28125 15.0625 57.515625 15.058594 C 58.257812 15.128906 58.710938 15.296875 59.335938 15.695312 C 59.398438 15.886719 59.460938 16.074219 59.527344 16.269531 C 59.863281 16.433594 59.863281 16.433594 60.292969 16.53125 C 60.550781 16.601562 60.550781 16.601562 60.816406 16.675781 C 61.023438 16.730469 61.230469 16.785156 61.441406 16.84375 C 61.695312 16.917969 61.945312 16.996094 62.199219 17.074219 C 64.519531 17.78125 66.839844 18.300781 69.242188 18.664062 C 71.574219 19.019531 73.808594 19.449219 75.335938 21.421875 C 76.3125 22.863281 76.480469 24.289062 76.429688 25.996094 C 76.429688 26.1875 76.425781 26.382812 76.425781 26.582031 C 76.414062 27.449219 76.355469 28.242188 76.179688 29.09375 C 76.152344 29.613281 76.132812 30.128906 76.132812 30.648438 C 76.132812 30.792969 76.128906 30.9375 76.128906 31.085938 C 76.140625 32.125 76.292969 33.027344 76.648438 34.011719 C 76.8125 34.699219 76.644531 35.21875 76.371094 35.851562 C 76.117188 36.535156 76.0625 37.175781 75.988281 37.898438 C 75.863281 37.898438 75.734375 37.898438 75.605469 37.898438 C 75.390625 37.441406 75.175781 36.980469 74.960938 36.523438 C 74.898438 36.394531 74.839844 36.265625 74.777344 36.132812 C 73.9375 34.339844 73.660156 32.882812 73.667969 30.898438 C 73.667969 30.722656 73.664062 30.542969 73.664062 30.359375 C 73.664062 30.1875 73.664062 30.011719 73.664062 29.835938 C 73.667969 29.679688 73.667969 29.523438 73.667969 29.363281 C 73.691406 28.875 73.785156 28.421875 73.882812 27.945312 C 73.929688 27.320312 73.9375 26.695312 73.941406 26.066406 C 73.949219 25.902344 73.953125 25.734375 73.960938 25.566406 C 73.972656 24.417969 73.785156 23.535156 73.117188 22.585938 C 71.816406 21.511719 70.320312 21.335938 68.703125 21.089844 C 64.84375 20.46875 61.050781 19.597656 57.476562 17.96875 C 56.835938 17.679688 56.210938 17.460938 55.519531 17.296875 C 54.59375 17.078125 54.59375 17.078125 54.167969 16.652344 C 54.230469 16.019531 54.289062 15.765625 54.742188 15.3125 C 55.421875 15.070312 56.109375 15.082031 56.824219 15.074219 Z M 56.824219 15.074219 "/>
<path style=" stroke:none;fill-rule:nonzero;fill:rgb(90.588236%,92.941177%,98.039216%);fill-opacity:1;" d="M 38.664062 54.359375 C 38.804688 54.453125 38.949219 54.550781 39.09375 54.648438 C 39.824219 55.042969 40.527344 55.074219 41.34375 55.125 C 40.753906 56.308594 37.957031 56.757812 36.695312 57.1875 C 33.910156 58.101562 31.03125 58.65625 28.128906 59.054688 C 26.722656 59.261719 25.519531 59.542969 24.609375 60.6875 C 24.125 61.597656 24.085938 62.347656 24.09375 63.355469 C 24.09375 63.578125 24.09375 63.578125 24.09375 63.800781 C 24.101562 64.578125 24.128906 65.34375 24.210938 66.117188 C 24.589844 69.6875 24.195312 72.484375 22.394531 75.605469 C 22.203125 75.699219 22.203125 75.699219 22.011719 75.796875 C 21.988281 75.652344 21.964844 75.511719 21.941406 75.363281 C 21.910156 75.175781 21.878906 74.984375 21.84375 74.792969 C 21.8125 74.605469 21.78125 74.417969 21.75 74.226562 C 21.652344 73.699219 21.652344 73.699219 21.421875 73.28125 C 21.058594 72.542969 21.402344 71.703125 21.636719 70.957031 C 21.824219 70.226562 21.863281 69.613281 21.855469 68.859375 C 21.855469 68.730469 21.855469 68.605469 21.851562 68.476562 C 21.839844 67.769531 21.800781 67.074219 21.726562 66.371094 C 21.246094 61.609375 21.246094 61.609375 22.394531 59.71875 C 22.476562 59.582031 22.5625 59.441406 22.648438 59.296875 C 23.667969 57.785156 24.945312 57.179688 26.695312 56.785156 C 27.777344 56.578125 28.867188 56.398438 29.953125 56.222656 C 30.101562 56.199219 30.246094 56.175781 30.398438 56.152344 C 30.777344 56.089844 31.15625 56.027344 31.535156 55.964844 C 33.199219 55.664062 34.75 55.179688 36.339844 54.597656 C 36.503906 54.539062 36.667969 54.480469 36.835938 54.421875 C 36.980469 54.367188 37.125 54.316406 37.273438 54.261719 C 37.800781 54.148438 38.152344 54.210938 38.664062 54.359375 Z M 38.664062 54.359375 "/>
<path style=" stroke:none;fill-rule:nonzero;fill:rgb(9.411765%,11.764706%,11.764706%);fill-opacity:1;" d="M 94.554688 19.332031 C 94.554688 20.027344 94.554688 20.722656 94.554688 21.4375 C 92.800781 21.820312 91.03125 22.046875 89.25 22.277344 C 88.921875 22.320312 88.597656 22.359375 88.269531 22.402344 C 87.589844 22.492188 86.910156 22.578125 86.230469 22.667969 C 85.359375 22.777344 84.488281 22.890625 83.613281 23.003906 C 82.941406 23.09375 82.269531 23.179688 81.597656 23.265625 C 81.277344 23.308594 80.957031 23.351562 80.632812 23.390625 C 80.1875 23.449219 79.738281 23.507812 79.289062 23.566406 C 79.15625 23.582031 79.023438 23.597656 78.886719 23.617188 C 78.363281 23.683594 77.859375 23.734375 77.328125 23.734375 C 77.300781 23.96875 77.273438 24.203125 77.246094 24.441406 C 77.144531 25.308594 77.042969 26.179688 76.941406 27.046875 C 76.894531 27.421875 76.851562 27.796875 76.808594 28.171875 C 76.746094 28.710938 76.683594 29.25 76.617188 29.789062 C 76.597656 29.957031 76.578125 30.125 76.558594 30.296875 C 76.542969 30.457031 76.523438 30.613281 76.503906 30.773438 C 76.484375 30.914062 76.46875 31.050781 76.453125 31.191406 C 76.363281 31.625 76.199219 31.960938 75.988281 32.347656 C 75.984375 31.824219 75.980469 31.304688 75.976562 30.78125 C 75.972656 30.558594 75.972656 30.558594 75.972656 30.335938 C 75.972656 30.191406 75.96875 30.046875 75.96875 29.898438 C 75.96875 29.769531 75.96875 29.636719 75.964844 29.5 C 75.988281 29.09375 75.988281 29.09375 76.082031 28.628906 C 76.257812 27.75 76.222656 26.863281 76.226562 25.972656 C 76.230469 25.777344 76.234375 25.585938 76.238281 25.386719 C 76.246094 24.175781 76.082031 23.3125 75.605469 22.203125 C 75.605469 22.011719 75.605469 21.824219 75.605469 21.628906 C 75.9375 21.597656 75.9375 21.597656 76.273438 21.566406 C 77.84375 21.410156 79.40625 21.234375 80.964844 20.972656 C 82.644531 20.691406 84.328125 20.507812 86.023438 20.328125 C 87.863281 20.128906 89.691406 19.867188 91.523438 19.574219 C 92.546875 19.414062 93.519531 19.289062 94.554688 19.332031 Z M 94.554688 19.332031 "/>
<path style=" stroke:none;fill-rule:nonzero;fill:rgb(9.411765%,11.764706%,11.764706%);fill-opacity:1;" d="M 3.445312 57.039062 C 3.625 57.0625 3.804688 57.085938 3.988281 57.109375 C 5.449219 57.296875 6.910156 57.464844 8.375 57.613281 C 9.535156 57.730469 10.679688 57.886719 11.828125 58.09375 C 12.625 58.214844 13.421875 58.296875 14.222656 58.378906 C 16.964844 58.65625 19.679688 59.0625 22.394531 59.527344 C 22.351562 59.636719 22.3125 59.746094 22.269531 59.859375 C 21.535156 62.097656 21.710938 64.527344 21.96875 66.84375 C 22.058594 67.972656 22.027344 69.113281 22.011719 70.246094 C 21.53125 69.488281 21.488281 68.664062 21.382812 67.792969 C 21.363281 67.628906 21.339844 67.464844 21.320312 67.296875 C 21.277344 66.953125 21.234375 66.609375 21.191406 66.265625 C 21.125 65.738281 21.058594 65.210938 20.992188 64.683594 C 20.953125 64.347656 20.910156 64.011719 20.867188 63.675781 C 20.839844 63.441406 20.839844 63.441406 20.808594 63.199219 C 20.734375 62.609375 20.671875 62.035156 20.671875 61.441406 C 20.53125 61.433594 20.394531 61.425781 20.25 61.414062 C 18.394531 61.285156 16.558594 61.054688 14.714844 60.8125 C 14.390625 60.769531 14.0625 60.726562 13.734375 60.683594 C 12.882812 60.574219 12.03125 60.460938 11.179688 60.347656 C 10.308594 60.234375 9.433594 60.121094 8.5625 60.007812 C 6.855469 59.785156 5.152344 59.558594 3.445312 59.335938 C 3.445312 58.578125 3.445312 57.820312 3.445312 57.039062 Z M 3.445312 57.039062 "/>
<path style=" stroke:none;fill-rule:nonzero;fill:rgb(57.647061%,59.607846%,61.56863%);fill-opacity:1;" d="M 53 37.578125 C 54.160156 37.6875 55.300781 37.71875 56.46875 37.707031 C 56.632812 37.703125 56.800781 37.703125 56.972656 37.699219 C 57.660156 37.695312 58.351562 37.6875 59.039062 37.675781 C 59.550781 37.667969 60.058594 37.660156 60.570312 37.65625 C 60.726562 37.652344 60.882812 37.652344 61.042969 37.648438 C 62.125 37.640625 62.125 37.640625 62.535156 37.964844 C 62.78125 38.28125 62.78125 38.28125 62.875 38.832031 C 62.746094 39.652344 62.484375 39.882812 61.824219 40.386719 C 61.226562 40.519531 60.644531 40.503906 60.03125 40.488281 C 59.773438 40.484375 59.773438 40.484375 59.507812 40.484375 C 58.957031 40.480469 58.40625 40.46875 57.851562 40.457031 C 57.484375 40.457031 57.117188 40.453125 56.746094 40.449219 C 52.3125 40.40625 52.3125 40.40625 51.570312 39.777344 C 51.25 39.148438 51.191406 38.789062 51.296875 38.089844 C 51.777344 37.386719 52.203125 37.480469 53 37.578125 Z M 53 37.578125 "/>
<path style=" stroke:none;fill-rule:nonzero;fill:rgb(57.254905%,59.215689%,61.176473%);fill-opacity:1;" d="M 31.964844 74.347656 C 33.488281 74.585938 34.972656 74.71875 36.511719 74.742188 C 37.253906 74.859375 37.574219 75.066406 38.089844 75.605469 C 38.179688 76.25 38.242188 76.703125 37.886719 77.269531 C 37.3125 77.65625 36.726562 77.613281 36.054688 77.601562 C 35.910156 77.601562 35.761719 77.601562 35.609375 77.601562 C 34.238281 77.566406 32.898438 77.382812 31.546875 77.171875 C 31.34375 77.140625 31.140625 77.109375 30.929688 77.078125 C 29.855469 76.894531 28.925781 76.664062 27.945312 76.179688 C 27.875 74.785156 27.875 74.785156 28.136719 74.265625 C 29.226562 73.71875 30.808594 74.164062 31.964844 74.347656 Z M 31.964844 74.347656 "/>
<path style=" stroke:none;fill-rule:nonzero;fill:rgb(98.039216%,38.039216%,38.039216%);fill-opacity:1;" d="M 43.113281 53.054688 C 43.640625 53.402344 43.640625 53.402344 43.855469 53.882812 C 43.832031 54.359375 43.832031 54.359375 43.597656 54.660156 C 42.800781 55.300781 41.726562 55.335938 40.742188 55.289062 C 39.066406 55.070312 39.066406 55.070312 38.425781 54.429688 C 38.3125 54.28125 38.203125 54.132812 38.089844 53.976562 C 38.214844 53.976562 38.34375 53.976562 38.472656 53.976562 C 38.515625 53.859375 38.558594 53.738281 38.605469 53.617188 C 39.394531 52.335938 41.875 52.605469 43.113281 53.054688 Z M 43.113281 53.054688 "/>
<path style=" stroke:none;fill-rule:nonzero;fill:rgb(98.823529%,86.274511%,60.392159%);fill-opacity:1;" d="M 56.824219 15.074219 C 57.050781 15.066406 57.28125 15.0625 57.515625 15.058594 C 58.253906 15.128906 58.710938 15.300781 59.335938 15.695312 C 59.503906 16.210938 59.503906 16.210938 59.527344 16.652344 C 58.65625 17.292969 57.726562 17.550781 56.65625 17.609375 C 55.742188 17.464844 54.835938 17.320312 54.167969 16.652344 C 54.230469 16.019531 54.289062 15.765625 54.742188 15.3125 C 55.421875 15.070312 56.109375 15.082031 56.824219 15.074219 Z M 56.824219 15.074219 "/>
<path style=" stroke:none;fill-rule:nonzero;fill:rgb(95.294118%,77.64706%,73.725492%);fill-opacity:1;" d="M 83.210938 52.207031 C 83.875 52.257812 84.421875 52.394531 85.054688 52.601562 C 85.273438 52.671875 85.488281 52.738281 85.707031 52.8125 C 86.433594 53.054688 87.144531 53.316406 87.855469 53.59375 C 87.878906 54.046875 87.878906 54.046875 87.855469 54.550781 C 87.472656 54.933594 87.472656 54.933594 86.730469 55.003906 C 85.175781 54.972656 83.652344 54.34375 82.304688 53.59375 C 82.28125 53.140625 82.28125 53.140625 82.304688 52.636719 C 82.6875 52.253906 82.6875 52.253906 83.210938 52.207031 Z M 83.210938 52.207031 "/>
<path style=" stroke:none;fill-rule:nonzero;fill:rgb(96.862745%,81.568629%,77.254903%);fill-opacity:1;" d="M 11.484375 15.503906 C 11.546875 15.945312 11.609375 16.386719 11.675781 16.84375 C 11.160156 17.1875 10.910156 17.300781 10.332031 17.429688 C 10.183594 17.464844 10.035156 17.496094 9.882812 17.53125 C 9.726562 17.566406 9.574219 17.597656 9.414062 17.632812 C 9.261719 17.667969 9.109375 17.703125 8.953125 17.738281 C 8.128906 17.917969 7.355469 18.074219 6.507812 17.992188 C 6.125 17.609375 6.125 17.609375 6.101562 17.105469 C 6.109375 16.957031 6.117188 16.808594 6.125 16.652344 C 7.792969 15.835938 9.625 15.394531 11.484375 15.503906 Z M 11.484375 15.503906 "/>
<path style=" stroke:none;fill-rule:nonzero;fill:rgb(10.196079%,12.156863%,12.156863%);fill-opacity:1;" d="M 75.222656 54.359375 C 75.222656 55.054688 75.222656 55.75 75.222656 56.464844 C 74.0625 56.613281 72.949219 56.675781 71.777344 56.65625 C 71.203125 55.386719 71.203125 55.386719 71.203125 54.742188 C 72.554688 54.511719 73.851562 54.304688 75.222656 54.359375 Z M 75.222656 54.359375 "/>
<path style=" stroke:none;fill-rule:nonzero;fill:rgb(10.980392%,12.54902%,12.54902%);fill-opacity:1;" d="M 22.777344 16.652344 C 25.941406 16.609375 25.941406 16.609375 26.796875 17.035156 C 26.605469 17.667969 26.417969 18.296875 26.222656 18.949219 C 25.085938 18.886719 23.949219 18.824219 22.777344 18.757812 C 22.777344 18.0625 22.777344 17.367188 22.777344 16.652344 Z M 22.777344 16.652344 "/>
<path style=" stroke:none;fill-rule:nonzero;fill:rgb(57.647061%,59.607846%,61.56863%);fill-opacity:1;" d="M 43.222656 75.257812 C 43.570312 75.789062 43.550781 76.132812 43.449219 76.753906 C 43.023438 77.289062 42.699219 77.488281 42.023438 77.59375 C 41.074219 77.632812 41.074219 77.632812 40.578125 77.519531 C 40.125 77.050781 40.011719 76.824219 39.933594 76.167969 C 40.003906 75.605469 40.003906 75.605469 40.207031 75.257812 C 41.121094 74.699219 42.324219 74.671875 43.222656 75.257812 Z M 43.222656 75.257812 "/>
<path style=" stroke:none;fill-rule:nonzero;fill:rgb(23.921569%,47.058824%,94.117647%);fill-opacity:1;" d="M 13.589844 77.902344 C 13.589844 78.542969 13.511719 78.65625 13.148438 79.15625 C 13.054688 79.289062 12.957031 79.421875 12.859375 79.558594 C 12.757812 79.699219 12.65625 79.839844 12.550781 79.984375 C 12.339844 80.277344 12.128906 80.570312 11.917969 80.859375 C 11.757812 81.078125 11.757812 81.078125 11.597656 81.300781 C 11.316406 81.699219 11.042969 82.097656 10.769531 82.5 C 10.691406 82.613281 10.613281 82.730469 10.535156 82.847656 C 10.324219 83.160156 10.113281 83.476562 9.902344 83.789062 C 9.738281 84 9.738281 84 9.570312 84.21875 C 9.445312 84.21875 9.316406 84.21875 9.1875 84.21875 C 9.132812 84.015625 9.078125 83.816406 9.019531 83.609375 C 8.847656 83.027344 8.660156 82.480469 8.421875 81.921875 C 8.628906 81.839844 8.832031 81.757812 9.042969 81.671875 C 10.082031 81.15625 10.871094 80.359375 11.703125 79.570312 C 12.316406 78.988281 12.945312 78.445312 13.589844 77.902344 Z M 13.589844 77.902344 "/>
<path style=" stroke:none;fill-rule:nonzero;fill:rgb(57.647061%,59.607846%,61.56863%);fill-opacity:1;" d="M 65.269531 37.445312 C 65.433594 37.441406 65.601562 37.441406 65.773438 37.4375 C 66.3125 37.53125 66.484375 37.648438 66.800781 38.089844 C 66.945312 39.238281 66.945312 39.238281 66.527344 39.800781 C 65.804688 40.097656 65.078125 40.148438 64.3125 40.003906 C 63.976562 39.753906 63.976562 39.753906 63.738281 39.429688 C 63.613281 38.265625 63.613281 38.265625 63.96875 37.765625 C 64.421875 37.4375 64.714844 37.4375 65.269531 37.445312 Z M 65.269531 37.445312 "/>
<path style=" stroke:none;fill-rule:nonzero;fill:rgb(94.117647%,27.058825%,27.058825%);fill-opacity:1;" d="M 84.984375 40.386719 C 86.109375 41.179688 87.085938 42.058594 88.046875 43.042969 C 88.175781 43.175781 88.308594 43.304688 88.441406 43.441406 C 88.757812 43.761719 89.074219 44.082031 89.386719 44.40625 C 89.148438 45.070312 88.875 45.582031 88.429688 46.128906 C 87.816406 45.183594 87.207031 44.238281 86.59375 43.292969 C 86.359375 42.929688 86.121094 42.566406 85.886719 42.203125 C 85.765625 42.019531 85.644531 41.832031 85.523438 41.644531 C 85.417969 41.480469 85.3125 41.320312 85.203125 41.152344 C 84.984375 40.769531 84.984375 40.769531 84.984375 40.386719 Z M 84.984375 40.386719 "/>
<path style=" stroke:none;fill-rule:nonzero;fill:rgb(24.313726%,46.666667%,94.117647%);fill-opacity:1;" d="M 15.503906 79.242188 C 15.566406 79.367188 15.628906 79.496094 15.695312 79.625 C 15.484375 80.085938 15.265625 80.53125 15.023438 80.976562 C 14.1875 82.59375 13.492188 84.25 12.824219 85.941406 C 12.382812 85.816406 11.941406 85.6875 11.484375 85.558594 C 12.398438 83.597656 13.367188 81.882812 14.738281 80.199219 C 14.882812 80.019531 15.023438 79.839844 15.171875 79.65625 C 15.28125 79.519531 15.390625 79.382812 15.503906 79.242188 Z M 15.503906 79.242188 "/>
<path style=" stroke:none;fill-rule:nonzero;fill:rgb(87.058824%,56.862748%,49.803922%);fill-opacity:1;" d="M 27.863281 16.570312 C 28.421875 16.667969 28.5625 16.777344 28.902344 17.226562 C 28.972656 17.714844 28.972656 17.714844 28.960938 18.265625 C 28.960938 18.449219 28.960938 18.628906 28.960938 18.816406 C 28.902344 19.332031 28.78125 19.65625 28.519531 20.097656 C 28.050781 19.132812 27.988281 18.246094 28.328125 17.226562 C 28.011719 17.226562 27.695312 17.226562 27.371094 17.226562 C 27.316406 17.332031 27.265625 17.441406 27.207031 17.550781 C 27.09375 17.78125 27.09375 17.78125 26.976562 18.015625 C 26.890625 18.1875 26.804688 18.363281 26.71875 18.539062 C 26.496094 18.976562 26.269531 19.40625 26.039062 19.835938 C 25.976562 19.957031 25.914062 20.074219 25.847656 20.195312 C 25.722656 20.429688 25.597656 20.664062 25.46875 20.898438 C 25.269531 21.261719 25.269531 21.261719 25.074219 21.820312 C 25.191406 22.261719 25.191406 22.261719 25.457031 22.585938 C 25.519531 22.710938 25.582031 22.839844 25.648438 22.96875 C 25.457031 22.96875 25.269531 22.96875 25.074219 22.96875 C 25.011719 22.84375 24.949219 22.714844 24.882812 22.585938 C 24.125 22.941406 23.476562 23.410156 22.800781 23.898438 C 22.667969 23.96875 22.53125 24.042969 22.394531 24.117188 C 22.203125 24.054688 22.015625 23.992188 21.820312 23.925781 C 22.023438 23.8125 22.023438 23.8125 22.234375 23.699219 C 24.40625 22.429688 25.277344 20.839844 26.128906 18.546875 C 26.8125 16.746094 26.8125 16.746094 27.863281 16.570312 Z M 27.863281 16.570312 "/>
<path style=" stroke:none;fill-rule:nonzero;fill:rgb(29.803923%,32.549021%,35.294119%);fill-opacity:1;" d="M 20.671875 61.441406 C 21.050781 61.441406 21.429688 61.441406 21.820312 61.441406 C 21.816406 61.691406 21.816406 61.945312 21.8125 62.203125 C 21.796875 64.53125 21.796875 64.53125 21.96875 66.851562 C 22.0625 67.976562 22.027344 69.117188 22.011719 70.246094 C 21.53125 69.488281 21.488281 68.664062 21.382812 67.792969 C 21.351562 67.546875 21.351562 67.546875 21.320312 67.296875 C 21.277344 66.953125 21.234375 66.609375 21.191406 66.265625 C 21.125 65.738281 21.058594 65.210938 20.992188 64.683594 C 20.953125 64.347656 20.910156 64.011719 20.867188 63.675781 C 20.847656 63.519531 20.828125 63.363281 20.808594 63.199219 C 20.734375 62.609375 20.671875 62.035156 20.671875 61.441406 Z M 20.671875 61.441406 "/>
<path style=" stroke:none;fill-rule:nonzero;fill:rgb(27.843139%,30.980393%,32.941177%);fill-opacity:1;" d="M 77.328125 23.542969 C 77.019531 26.492188 76.679688 29.425781 76.179688 32.347656 C 76.117188 32.347656 76.054688 32.347656 75.988281 32.347656 C 75.984375 31.824219 75.980469 31.304688 75.976562 30.78125 C 75.976562 30.632812 75.972656 30.484375 75.972656 30.335938 C 75.972656 30.191406 75.96875 30.046875 75.96875 29.898438 C 75.96875 29.769531 75.96875 29.636719 75.964844 29.5 C 75.988281 29.09375 75.988281 29.09375 76.082031 28.632812 C 76.183594 28.109375 76.21875 27.613281 76.242188 27.082031 C 76.25 26.882812 76.257812 26.6875 76.265625 26.488281 C 76.273438 26.285156 76.28125 26.082031 76.289062 25.875 C 76.296875 25.671875 76.304688 25.464844 76.3125 25.253906 C 76.332031 24.746094 76.351562 24.242188 76.371094 23.734375 C 76.945312 23.542969 76.945312 23.542969 77.328125 23.542969 Z M 77.328125 23.542969 "/>
<path style=" stroke:none;fill-rule:nonzero;fill:rgb(88.235295%,53.725493%,47.058824%);fill-opacity:1;" d="M 67.757812 57.421875 C 67.632812 57.421875 67.503906 57.421875 67.375 57.421875 C 67.375 57.546875 67.375 57.675781 67.375 57.804688 C 67.546875 57.828125 67.722656 57.851562 67.902344 57.875 C 68.445312 57.980469 68.816406 58.105469 69.289062 58.378906 C 69.289062 58 69.289062 57.621094 69.289062 57.230469 C 69.804688 57.746094 69.898438 58.320312 70.089844 59 C 70.492188 60.359375 71.027344 61.570312 71.691406 62.820312 C 71.96875 63.355469 71.96875 63.355469 72.160156 63.929688 C 72.035156 63.929688 71.90625 63.929688 71.777344 63.929688 C 71.5 63.425781 71.226562 62.917969 70.953125 62.410156 C 70.875 62.269531 70.796875 62.128906 70.71875 61.984375 C 70.320312 61.242188 70.007812 60.554688 69.785156 59.742188 C 69.578125 59.082031 69.535156 58.988281 68.921875 58.589844 C 68.707031 58.523438 68.492188 58.457031 68.273438 58.390625 C 68.058594 58.320312 67.847656 58.253906 67.628906 58.183594 C 67.417969 58.121094 67.207031 58.058594 66.992188 57.996094 C 66.609375 57.871094 66.226562 57.742188 65.84375 57.613281 C 65.84375 57.550781 65.84375 57.488281 65.84375 57.421875 C 66.542969 57.277344 67.074219 57.183594 67.757812 57.421875 Z M 67.757812 57.421875 "/>
<path style=" stroke:none;fill-rule:nonzero;fill:rgb(96.862745%,81.176472%,77.254903%);fill-opacity:1;" d="M 14.355469 14.546875 C 14.738281 14.929688 14.738281 14.929688 14.785156 15.40625 C 14.738281 15.886719 14.738281 15.886719 14.355469 16.269531 C 13.847656 16.378906 13.34375 16.410156 12.824219 16.460938 C 12.441406 15.886719 12.441406 15.886719 12.464844 15.394531 C 12.632812 14.929688 12.632812 14.929688 12.96875 14.679688 C 13.460938 14.527344 13.839844 14.492188 14.355469 14.546875 Z M 14.355469 14.546875 "/>
<path style=" stroke:none;fill-rule:nonzero;fill:rgb(89.803922%,59.607846%,52.941179%);fill-opacity:1;" d="M 30.816406 19.523438 C 31.449219 19.585938 32.078125 19.648438 32.730469 19.714844 C 32.730469 19.777344 32.730469 19.839844 32.730469 19.90625 C 32.539062 19.929688 32.539062 19.929688 32.34375 19.957031 C 30.296875 20.261719 30.296875 20.261719 28.519531 21.246094 C 28.074219 22.054688 27.792969 22.878906 27.503906 23.75 C 27.1875 24.625 26.691406 25.421875 26.222656 26.222656 C 26.097656 26.222656 25.96875 26.222656 25.839844 26.222656 C 26.097656 25.554688 26.386719 24.910156 26.695312 24.265625 C 27.316406 22.964844 27.871094 21.660156 28.328125 20.289062 C 28.390625 20.414062 28.453125 20.542969 28.519531 20.671875 C 28.652344 20.617188 28.785156 20.5625 28.925781 20.503906 C 29.097656 20.433594 29.273438 20.363281 29.453125 20.289062 C 29.710938 20.183594 29.710938 20.183594 29.976562 20.074219 C 30.433594 19.90625 30.433594 19.90625 30.816406 19.90625 C 30.816406 19.78125 30.816406 19.652344 30.816406 19.523438 Z M 30.816406 19.523438 "/>
<path style=" stroke:none;fill-rule:nonzero;fill:rgb(95.294118%,77.254903%,73.333335%);fill-opacity:1;" d="M 89.867188 53.738281 C 90.535156 53.785156 90.535156 53.785156 90.917969 54.167969 C 90.847656 54.765625 90.847656 54.765625 90.726562 55.316406 C 89.457031 55.554688 89.457031 55.554688 88.8125 55.125 C 88.753906 54.648438 88.753906 54.648438 88.8125 54.167969 C 89.195312 53.785156 89.195312 53.785156 89.867188 53.738281 Z M 89.867188 53.738281 "/>
<path style=" stroke:none;fill-rule:nonzero;fill:rgb(86.274511%,55.29412%,48.627451%);fill-opacity:1;" d="M 69.097656 55.125 C 69.351562 55.25 69.601562 55.378906 69.863281 55.507812 C 69.863281 56.011719 69.863281 56.519531 69.863281 57.039062 C 69.671875 57.132812 69.671875 57.132812 69.480469 57.230469 C 69.355469 57.808594 69.355469 57.808594 69.289062 58.378906 C 68.65625 58.1875 68.027344 58 67.375 57.804688 C 67.375 57.679688 67.375 57.550781 67.375 57.421875 C 67.945312 57.296875 68.511719 57.167969 69.097656 57.039062 C 69.097656 56.40625 69.097656 55.777344 69.097656 55.125 Z M 69.097656 55.125 "/>
<path style=" stroke:none;fill-rule:nonzero;fill:rgb(90.980393%,60.000002%,52.941179%);fill-opacity:1;" d="M 26.222656 18.757812 C 26.285156 18.882812 26.347656 19.011719 26.414062 19.140625 C 26.136719 19.714844 25.839844 20.265625 25.527344 20.820312 C 25.308594 21.214844 25.308594 21.214844 25.074219 21.820312 C 25.1875 22.265625 25.1875 22.265625 25.457031 22.585938 C 25.519531 22.710938 25.582031 22.839844 25.648438 22.96875 C 25.457031 22.96875 25.269531 22.96875 25.074219 22.96875 C 25.011719 22.84375 24.949219 22.714844 24.882812 22.585938 C 24.125 22.941406 23.476562 23.410156 22.800781 23.898438 C 22.667969 23.96875 22.53125 24.042969 22.394531 24.117188 C 22.203125 24.054688 22.015625 23.992188 21.820312 23.925781 C 22.023438 23.8125 22.023438 23.8125 22.234375 23.699219 C 24.300781 22.492188 25.238281 20.890625 26.222656 18.757812 Z M 26.222656 18.757812 "/>
<path style=" stroke:none;fill-rule:nonzero;fill:rgb(91.37255%,60.784316%,53.725493%);fill-opacity:1;" d="M 22.96875 19.714844 C 22.96875 19.839844 22.96875 19.96875 22.96875 20.097656 C 18.714844 22.066406 18.714844 22.066406 16.460938 22.011719 C 16.460938 21.886719 16.460938 21.757812 16.460938 21.628906 C 16.683594 21.585938 16.90625 21.539062 17.132812 21.496094 C 18.898438 21.132812 21.304688 19.714844 22.96875 19.714844 Z M 22.96875 19.714844 "/>
<path style=" stroke:none;fill-rule:nonzero;fill:rgb(94.509804%,27.450982%,27.450982%);fill-opacity:1;" d="M 84.21875 44.789062 C 84.792969 45.324219 85.207031 45.859375 85.605469 46.535156 C 85.757812 46.785156 85.757812 46.785156 85.910156 47.039062 C 86.132812 47.46875 86.132812 47.46875 86.132812 47.851562 C 85.878906 47.914062 85.628906 47.976562 85.367188 48.042969 C 84.21875 45.484375 84.21875 45.484375 84.21875 44.789062 Z M 84.21875 44.789062 "/>
<path style=" stroke:none;fill-rule:nonzero;fill:rgb(91.764706%,66.274512%,60.000002%);fill-opacity:1;" d="M 29.355469 19.296875 C 29.886719 19.324219 30.316406 19.363281 30.816406 19.523438 C 30.816406 19.648438 30.816406 19.777344 30.816406 19.90625 C 30.503906 20.035156 30.195312 20.160156 29.882812 20.289062 C 29.625 20.394531 29.625 20.394531 29.359375 20.503906 C 28.902344 20.671875 28.902344 20.671875 28.519531 20.671875 C 28.398438 20.21875 28.398438 20.21875 28.328125 19.714844 C 28.710938 19.332031 28.710938 19.332031 29.355469 19.296875 Z M 29.355469 19.296875 "/>
<path style=" stroke:none;fill-rule:nonzero;fill:rgb(23.921569%,26.666668%,28.627452%);fill-opacity:1;" d="M 20.671875 61.441406 C 21.050781 61.441406 21.429688 61.441406 21.820312 61.441406 C 21.695312 62.453125 21.566406 63.460938 21.4375 64.503906 C 21.058594 63.9375 20.960938 63.625 20.839844 62.972656 C 20.808594 62.808594 20.773438 62.640625 20.742188 62.46875 C 20.671875 62.015625 20.671875 62.015625 20.671875 61.441406 Z M 20.671875 61.441406 "/>
<path style=" stroke:none;fill-rule:nonzero;fill:rgb(90.980393%,60.000002%,52.941179%);fill-opacity:1;" d="M 22.011719 21.054688 C 22.203125 21.117188 22.390625 21.179688 22.585938 21.246094 C 22.324219 21.40625 22.324219 21.40625 22.058594 21.570312 C 20.773438 22.484375 20.328125 23.519531 20.074219 25.039062 C 20.042969 25.226562 20.007812 25.410156 19.976562 25.605469 C 19.953125 25.746094 19.929688 25.886719 19.90625 26.03125 C 19.84375 26.03125 19.78125 26.03125 19.714844 26.03125 C 19.609375 24.648438 19.75 23.589844 20.480469 22.394531 C 20.964844 21.835938 21.398438 21.464844 22.011719 21.054688 Z M 22.011719 21.054688 "/>
<path style=" stroke:none;fill-rule:nonzero;fill:rgb(91.764706%,63.137257%,56.078434%);fill-opacity:1;" d="M 69.289062 57.230469 C 69.289062 57.609375 69.289062 57.988281 69.289062 58.378906 C 68.65625 58.1875 68.027344 58 67.375 57.804688 C 67.375 57.679688 67.375 57.550781 67.375 57.421875 C 67.992188 57.113281 68.605469 57.21875 69.289062 57.230469 Z M 69.289062 57.230469 "/>
<path style=" stroke:none;fill-rule:nonzero;fill:rgb(82.745099%,52.549022%,45.882353%);fill-opacity:1;" d="M 67.757812 57.421875 C 67.632812 57.421875 67.503906 57.421875 67.375 57.421875 C 67.375 57.546875 67.375 57.675781 67.375 57.804688 C 67.945312 57.898438 67.945312 57.898438 68.523438 57.996094 C 68.523438 58.121094 68.523438 58.25 68.523438 58.378906 C 68.148438 58.292969 67.773438 58.203125 67.398438 58.117188 C 67.191406 58.066406 66.980469 58.019531 66.765625 57.96875 C 66.226562 57.804688 66.226562 57.804688 65.84375 57.421875 C 66.542969 57.277344 67.074219 57.183594 67.757812 57.421875 Z M 67.757812 57.421875 "/>
</g>
</svg>
