<?xml version="1.0" encoding="UTF-8"?>
<svg xmlns="http://www.w3.org/2000/svg" xmlns:xlink="http://www.w3.org/1999/xlink" width="98px" height="85px" viewBox="0 0 85 85" version="1.1">
<g id="surface1">
<path style=" stroke:none;fill-rule:nonzero;fill:rgb(98.431373%,91.764706%,20.784314%);fill-opacity:1;" d="M 11.488281 0.414062 C 11.765625 0.414062 12.046875 0.410156 12.328125 0.410156 C 13.089844 0.40625 13.851562 0.410156 14.613281 0.410156 C 15.4375 0.414062 16.261719 0.410156 17.085938 0.410156 C 18.695312 0.40625 20.308594 0.40625 21.921875 0.410156 C 23.230469 0.410156 24.542969 0.410156 25.851562 0.410156 C 26.039062 0.410156 26.226562 0.410156 26.421875 0.410156 C 26.800781 0.410156 27.179688 0.410156 27.558594 0.410156 C 31.117188 0.40625 34.671875 0.410156 38.230469 0.410156 C 41.28125 0.414062 44.328125 0.414062 47.375 0.410156 C 50.921875 0.40625 54.464844 0.40625 58.011719 0.410156 C 58.390625 0.410156 58.769531 0.410156 59.148438 0.410156 C 59.425781 0.410156 59.425781 0.410156 59.710938 0.410156 C 61.019531 0.410156 62.328125 0.410156 63.636719 0.40625 C 65.230469 0.40625 66.828125 0.40625 68.421875 0.410156 C 69.234375 0.410156 70.050781 0.414062 70.863281 0.410156 C 71.609375 0.40625 72.355469 0.410156 73.101562 0.414062 C 73.367188 0.414062 73.636719 0.414062 73.90625 0.410156 C 76.941406 0.394531 79.535156 1.035156 81.816406 3.183594 C 84.097656 5.605469 84.605469 8.304688 84.585938 11.496094 C 84.585938 11.777344 84.585938 12.058594 84.589844 12.339844 C 84.589844 13.105469 84.589844 13.867188 84.585938 14.632812 C 84.585938 15.460938 84.585938 16.289062 84.589844 17.113281 C 84.589844 18.734375 84.589844 20.351562 84.585938 21.96875 C 84.582031 23.855469 84.585938 25.742188 84.585938 27.625 C 84.585938 30.992188 84.582031 34.355469 84.578125 37.722656 C 84.574219 40.984375 84.574219 44.246094 84.574219 47.507812 C 84.578125 51.066406 84.578125 54.621094 84.574219 58.179688 C 84.574219 58.558594 84.574219 58.9375 84.574219 59.316406 C 84.574219 59.503906 84.574219 59.691406 84.574219 59.882812 C 84.574219 61.195312 84.574219 62.511719 84.574219 63.824219 C 84.574219 65.425781 84.574219 67.027344 84.570312 68.625 C 84.570312 69.441406 84.570312 70.257812 84.570312 71.074219 C 84.570312 71.824219 84.570312 72.570312 84.566406 73.320312 C 84.566406 73.589844 84.566406 73.859375 84.566406 74.128906 C 84.578125 77.171875 83.914062 79.714844 81.753906 81.976562 C 79.40625 84.101562 76.847656 84.554688 73.792969 84.546875 C 73.511719 84.546875 73.234375 84.546875 72.953125 84.546875 C 72.1875 84.550781 71.421875 84.550781 70.65625 84.550781 C 69.828125 84.550781 69 84.550781 68.175781 84.554688 C 66.554688 84.554688 64.933594 84.558594 63.316406 84.558594 C 62 84.558594 60.683594 84.558594 59.363281 84.558594 C 55.628906 84.5625 51.894531 84.5625 48.15625 84.5625 C 47.855469 84.5625 47.855469 84.5625 47.546875 84.5625 C 47.34375 84.5625 47.144531 84.5625 46.9375 84.5625 C 43.671875 84.5625 40.40625 84.566406 37.140625 84.570312 C 33.785156 84.574219 30.429688 84.578125 27.074219 84.578125 C 25.191406 84.578125 23.308594 84.578125 21.425781 84.582031 C 19.820312 84.585938 18.21875 84.585938 16.617188 84.582031 C 15.796875 84.582031 14.980469 84.582031 14.164062 84.585938 C 13.414062 84.589844 12.664062 84.585938 11.914062 84.585938 C 11.644531 84.585938 11.375 84.585938 11.105469 84.585938 C 8.0625 84.605469 5.46875 83.96875 3.183594 81.816406 C 0.90625 79.398438 0.394531 76.699219 0.414062 73.511719 C 0.414062 73.234375 0.410156 72.953125 0.410156 72.671875 C 0.40625 71.910156 0.410156 71.148438 0.410156 70.386719 C 0.414062 69.5625 0.410156 68.738281 0.410156 67.914062 C 0.40625 66.304688 0.40625 64.691406 0.410156 63.078125 C 0.410156 61.769531 0.410156 60.457031 0.410156 59.148438 C 0.410156 58.960938 0.410156 58.773438 0.410156 58.578125 C 0.410156 58.199219 0.410156 57.820312 0.410156 57.441406 C 0.40625 53.882812 0.410156 50.328125 0.410156 46.769531 C 0.414062 43.71875 0.414062 40.671875 0.410156 37.625 C 0.40625 34.078125 0.40625 30.535156 0.410156 26.988281 C 0.410156 26.609375 0.410156 26.230469 0.410156 25.851562 C 0.410156 25.667969 0.410156 25.480469 0.410156 25.289062 C 0.410156 23.980469 0.410156 22.671875 0.40625 21.363281 C 0.40625 19.769531 0.40625 18.171875 0.410156 16.578125 C 0.410156 15.765625 0.414062 14.949219 0.410156 14.136719 C 0.40625 13.390625 0.410156 12.644531 0.414062 11.898438 C 0.414062 11.632812 0.414062 11.363281 0.410156 11.09375 C 0.394531 8.058594 1.035156 5.464844 3.183594 3.183594 C 5.601562 0.90625 8.300781 0.394531 11.488281 0.414062 Z M 11.488281 0.414062 "/>
<path style=" stroke:none;fill-rule:nonzero;fill:rgb(49.411765%,73.333335%,90.196079%);fill-opacity:1;" d="M 62.753906 30.046875 C 62.890625 30.167969 63.027344 30.285156 63.171875 30.40625 C 67.398438 34.101562 70.1875 39.410156 70.890625 44.992188 C 70.941406 45.8125 70.953125 46.632812 70.949219 47.460938 C 70.949219 47.570312 70.949219 47.683594 70.949219 47.800781 C 70.921875 54.175781 68.367188 59.851562 63.957031 64.425781 C 59.449219 68.808594 53.539062 70.921875 47.3125 70.941406 C 47.113281 70.941406 46.914062 70.941406 46.707031 70.941406 C 44.875 70.929688 43.152344 70.65625 41.398438 70.121094 C 41.257812 70.078125 41.117188 70.035156 40.972656 69.992188 C 37.878906 69.015625 35.164062 67.53125 32.703125 65.410156 C 32.464844 65.203125 32.464844 65.203125 32.21875 64.992188 C 28.515625 61.734375 26.265625 57.53125 25.070312 52.792969 C 25.039062 52.679688 25.007812 52.566406 24.980469 52.449219 C 23.628906 47.066406 24.816406 40.8125 27.609375 36.085938 C 30.933594 30.652344 35.980469 26.703125 42.199219 25.121094 C 49.433594 23.574219 57.113281 25.15625 62.753906 30.046875 Z M 62.753906 30.046875 "/>
<path style=" stroke:none;fill-rule:nonzero;fill:rgb(97.647059%,78.431374%,0%);fill-opacity:1;" d="M 12.363281 0.410156 C 12.734375 0.410156 13.105469 0.40625 13.476562 0.40625 C 14.476562 0.402344 15.476562 0.402344 16.476562 0.402344 C 17.3125 0.402344 18.148438 0.402344 18.988281 0.402344 C 21.078125 0.398438 23.167969 0.398438 25.253906 0.402344 C 27.0625 0.40625 28.871094 0.402344 30.679688 0.398438 C 32.546875 0.394531 34.410156 0.390625 36.273438 0.394531 C 37.316406 0.394531 38.359375 0.394531 39.40625 0.390625 C 40.386719 0.386719 41.367188 0.386719 42.351562 0.390625 C 42.707031 0.394531 43.066406 0.390625 43.425781 0.390625 C 46.753906 0.371094 49.566406 0.902344 52.070312 3.257812 C 54.027344 5.238281 54.96875 7.625 54.957031 10.417969 C 54.957031 10.609375 54.953125 10.804688 54.953125 11.007812 C 54.953125 11.152344 54.953125 11.300781 54.953125 11.457031 C 55.058594 11.453125 55.167969 11.453125 55.277344 11.453125 C 57.90625 11.441406 60.539062 11.433594 63.167969 11.429688 C 64.441406 11.425781 65.710938 11.421875 66.984375 11.417969 C 68.09375 11.414062 69.203125 11.410156 70.3125 11.410156 C 70.898438 11.40625 71.484375 11.40625 72.074219 11.402344 C 72.730469 11.398438 73.386719 11.398438 74.042969 11.398438 C 74.234375 11.398438 74.425781 11.394531 74.625 11.394531 C 75.832031 11.398438 76.878906 11.574219 78.027344 11.953125 C 78.300781 12.042969 78.300781 12.042969 78.582031 12.136719 C 81.074219 13.128906 82.597656 14.832031 83.757812 17.1875 C 84.347656 18.566406 84.378906 19.722656 84.367188 21.21875 C 84.367188 21.441406 84.367188 21.660156 84.367188 21.882812 C 84.367188 22.464844 84.363281 23.042969 84.359375 23.625 C 84.355469 24.214844 84.355469 24.808594 84.351562 25.402344 C 84.347656 26.5625 84.34375 27.726562 84.335938 28.886719 C 84.28125 28.886719 84.226562 28.886719 84.171875 28.886719 C 84.132812 28.75 84.097656 28.613281 84.058594 28.472656 C 83.355469 25.992188 82.101562 24.019531 79.855469 22.671875 C 78.28125 21.851562 76.804688 21.394531 75.03125 21.394531 C 74.859375 21.394531 74.859375 21.394531 74.683594 21.394531 C 74.300781 21.390625 73.917969 21.390625 73.535156 21.394531 C 73.257812 21.390625 72.980469 21.390625 72.703125 21.390625 C 71.941406 21.390625 71.179688 21.390625 70.417969 21.390625 C 69.59375 21.390625 68.773438 21.386719 67.949219 21.386719 C 66.152344 21.382812 64.351562 21.382812 62.554688 21.382812 C 61.433594 21.382812 60.308594 21.382812 59.1875 21.382812 C 56.078125 21.378906 52.96875 21.378906 49.859375 21.375 C 49.558594 21.375 49.558594 21.375 49.253906 21.375 C 49.054688 21.375 48.855469 21.375 48.652344 21.375 C 48.246094 21.375 47.84375 21.375 47.4375 21.375 C 47.238281 21.375 47.035156 21.375 46.832031 21.375 C 43.582031 21.375 40.335938 21.371094 37.085938 21.367188 C 33.75 21.363281 30.414062 21.363281 27.078125 21.363281 C 25.207031 21.363281 23.335938 21.359375 21.460938 21.359375 C 19.867188 21.355469 18.273438 21.355469 16.679688 21.355469 C 15.863281 21.355469 15.050781 21.355469 14.238281 21.355469 C 13.492188 21.351562 12.746094 21.351562 12.003906 21.355469 C 11.734375 21.355469 11.464844 21.355469 11.195312 21.351562 C 8.226562 21.335938 5.722656 21.980469 3.421875 23.960938 C 1.578125 25.851562 0.726562 28.144531 0.742188 30.769531 C 0.742188 30.964844 0.742188 31.160156 0.738281 31.363281 C 0.738281 31.902344 0.738281 32.441406 0.738281 32.980469 C 0.738281 33.5625 0.738281 34.148438 0.734375 34.730469 C 0.730469 35.738281 0.730469 36.746094 0.730469 37.753906 C 0.730469 39.214844 0.726562 40.671875 0.722656 42.128906 C 0.714844 44.496094 0.710938 46.863281 0.710938 49.226562 C 0.707031 51.523438 0.703125 53.824219 0.699219 56.121094 C 0.699219 56.261719 0.699219 56.402344 0.699219 56.550781 C 0.695312 57.261719 0.695312 57.972656 0.691406 58.683594 C 0.679688 64.578125 0.667969 70.472656 0.664062 76.367188 C 0.609375 76.367188 0.554688 76.367188 0.5 76.367188 C 0.484375 67.78125 0.472656 59.195312 0.464844 50.609375 C 0.464844 49.59375 0.460938 48.578125 0.460938 47.566406 C 0.460938 47.363281 0.460938 47.160156 0.460938 46.953125 C 0.457031 43.6875 0.453125 40.417969 0.445312 37.152344 C 0.441406 33.796875 0.4375 30.445312 0.4375 27.089844 C 0.433594 25.019531 0.433594 22.953125 0.425781 20.882812 C 0.421875 19.464844 0.421875 18.046875 0.421875 16.625 C 0.421875 15.808594 0.421875 14.988281 0.417969 14.171875 C 0.414062 13.421875 0.414062 12.667969 0.417969 11.917969 C 0.417969 11.648438 0.417969 11.378906 0.414062 11.109375 C 0.394531 8.066406 1.03125 5.46875 3.183594 3.183594 C 5.886719 0.632812 8.835938 0.398438 12.363281 0.410156 Z M 12.363281 0.410156 "/>
<path style=" stroke:none;fill-rule:nonzero;fill:rgb(92.941177%,93.333334%,93.725491%);fill-opacity:1;" d="M 62.753906 30.046875 C 62.890625 30.167969 63.027344 30.285156 63.171875 30.40625 C 67.398438 34.101562 70.1875 39.410156 70.890625 44.992188 C 70.941406 45.8125 70.953125 46.632812 70.949219 47.460938 C 70.949219 47.570312 70.949219 47.683594 70.949219 47.800781 C 70.921875 54.175781 68.367188 59.851562 63.957031 64.425781 C 59.449219 68.808594 53.539062 70.921875 47.3125 70.941406 C 47.113281 70.941406 46.914062 70.941406 46.707031 70.941406 C 44.875 70.929688 43.152344 70.65625 41.398438 70.121094 C 41.257812 70.078125 41.117188 70.035156 40.972656 69.992188 C 37.878906 69.015625 35.164062 67.53125 32.703125 65.410156 C 32.464844 65.203125 32.464844 65.203125 32.21875 64.992188 C 28.515625 61.734375 26.265625 57.53125 25.070312 52.792969 C 25.039062 52.679688 25.007812 52.566406 24.980469 52.449219 C 23.628906 47.066406 24.816406 40.8125 27.609375 36.085938 C 30.933594 30.652344 35.980469 26.703125 42.199219 25.121094 C 49.433594 23.574219 57.113281 25.15625 62.753906 30.046875 Z M 34.8125 36.253906 C 31.914062 39.683594 30.238281 44.136719 30.546875 48.640625 C 30.902344 52.660156 32.285156 56.269531 35.03125 59.265625 C 35.164062 59.417969 35.300781 59.570312 35.441406 59.726562 C 38.550781 63.019531 42.773438 64.675781 47.257812 64.949219 C 51.925781 65.0625 56.378906 63.1875 59.757812 60.015625 C 62.980469 56.882812 64.636719 52.75 64.914062 48.3125 C 64.925781 48.101562 64.941406 47.894531 64.953125 47.679688 C 65.097656 43.339844 63.25 39.089844 60.332031 35.941406 C 58.296875 33.800781 56.007812 32.457031 53.289062 31.375 C 53.082031 31.292969 53.082031 31.292969 52.871094 31.207031 C 46.53125 28.839844 39.242188 31.550781 34.8125 36.253906 Z M 34.8125 36.253906 "/>
<path style=" stroke:none;fill-rule:nonzero;fill:rgb(17.647059%,32.941177%,44.705883%);fill-opacity:1;" d="M 46.648438 0.5 C 50.480469 0.484375 54.3125 0.472656 58.144531 0.464844 C 59.925781 0.460938 61.703125 0.457031 63.484375 0.449219 C 65.035156 0.441406 66.585938 0.4375 68.136719 0.4375 C 68.957031 0.433594 69.78125 0.433594 70.601562 0.429688 C 71.375 0.421875 72.148438 0.421875 72.921875 0.421875 C 73.207031 0.421875 73.488281 0.421875 73.769531 0.417969 C 76.867188 0.390625 79.488281 0.988281 81.816406 3.183594 C 84.035156 5.535156 84.613281 8.171875 84.566406 11.308594 C 84.566406 11.554688 84.566406 11.800781 84.5625 12.046875 C 84.5625 12.683594 84.554688 13.320312 84.546875 13.960938 C 84.539062 14.613281 84.539062 15.269531 84.535156 15.921875 C 84.527344 17.199219 84.515625 18.476562 84.5 19.757812 C 84.445312 19.757812 84.390625 19.757812 84.335938 19.757812 C 84.300781 19.597656 84.265625 19.441406 84.230469 19.28125 C 83.648438 16.792969 82.488281 14.628906 80.332031 13.15625 C 78.816406 12.246094 77.070312 11.605469 75.292969 11.59375 C 75.113281 11.59375 74.933594 11.589844 74.75 11.589844 C 74.554688 11.589844 74.359375 11.589844 74.15625 11.585938 C 73.949219 11.585938 73.742188 11.582031 73.527344 11.582031 C 72.960938 11.578125 72.394531 11.574219 71.824219 11.570312 C 71.234375 11.566406 70.640625 11.5625 70.046875 11.558594 C 68.921875 11.550781 67.800781 11.542969 66.675781 11.535156 C 65.398438 11.527344 64.121094 11.519531 62.839844 11.507812 C 60.210938 11.488281 57.582031 11.472656 54.953125 11.453125 C 54.929688 11.242188 54.910156 11.027344 54.886719 10.804688 C 54.859375 10.519531 54.832031 10.234375 54.800781 9.949219 C 54.78125 9.738281 54.78125 9.738281 54.761719 9.523438 C 54.484375 6.804688 53.433594 4.421875 51.296875 2.65625 C 49.894531 1.640625 48.308594 1.105469 46.648438 0.664062 C 46.648438 0.609375 46.648438 0.554688 46.648438 0.5 Z M 46.648438 0.5 "/>
<path style=" stroke:none;fill-rule:nonzero;fill:rgb(92.54902%,45.882353%,28.627452%);fill-opacity:1;" d="M 65.90625 61.921875 C 66.550781 62.1875 66.953125 62.597656 67.4375 63.085938 C 67.515625 63.167969 67.597656 63.25 67.679688 63.332031 C 67.933594 63.585938 68.1875 63.84375 68.441406 64.101562 C 68.613281 64.277344 68.785156 64.453125 68.957031 64.625 C 69.382812 65.050781 69.804688 65.480469 70.226562 65.90625 C 71.117188 65.15625 71.117188 65.15625 71.957031 64.351562 C 72.097656 64.207031 72.238281 64.0625 72.382812 63.914062 C 72.847656 64.128906 73.191406 64.351562 73.554688 64.710938 C 73.648438 64.804688 73.746094 64.898438 73.84375 64.996094 C 73.945312 65.097656 74.050781 65.199219 74.15625 65.304688 C 74.320312 65.46875 74.320312 65.46875 74.488281 65.636719 C 74.851562 65.996094 75.214844 66.355469 75.574219 66.714844 C 75.828125 66.964844 76.078125 67.214844 76.332031 67.464844 C 76.859375 67.992188 77.382812 68.515625 77.910156 69.042969 C 78.585938 69.714844 79.261719 70.386719 79.941406 71.058594 C 80.460938 71.574219 80.980469 72.089844 81.5 72.609375 C 81.75 72.855469 81.996094 73.105469 82.246094 73.351562 C 82.597656 73.695312 82.945312 74.042969 83.292969 74.394531 C 83.394531 74.496094 83.5 74.597656 83.605469 74.699219 C 84.183594 75.285156 84.476562 75.675781 84.5 76.53125 C 84.246094 78.773438 83 80.851562 81.347656 82.34375 C 79.855469 83.464844 78.105469 84.425781 76.203125 84.5 C 75.335938 84.277344 74.832031 83.699219 74.226562 83.082031 C 74.113281 82.96875 74 82.855469 73.886719 82.742188 C 73.519531 82.375 73.152344 82.003906 72.785156 81.632812 C 72.527344 81.375 72.273438 81.117188 72.015625 80.863281 C 71.34375 80.1875 70.675781 79.511719 70.003906 78.835938 C 69.320312 78.148438 68.632812 77.457031 67.949219 76.769531 C 66.601562 75.421875 65.257812 74.066406 63.914062 72.714844 C 64.210938 72.074219 64.59375 71.671875 65.097656 71.179688 C 65.25 71.03125 65.402344 70.882812 65.558594 70.730469 C 65.671875 70.617188 65.789062 70.507812 65.90625 70.390625 C 65.648438 69.765625 65.257812 69.371094 64.78125 68.898438 C 64.664062 68.785156 64.664062 68.785156 64.546875 68.667969 C 64.304688 68.425781 64.058594 68.183594 63.8125 67.941406 C 63.644531 67.777344 63.480469 67.613281 63.3125 67.445312 C 62.90625 67.042969 62.5 66.640625 62.089844 66.242188 C 62.390625 65.582031 62.816406 65.183594 63.355469 64.714844 C 64.8125 63.464844 64.8125 63.464844 65.90625 61.921875 Z M 65.90625 61.921875 "/>
<path style=" stroke:none;fill-rule:nonzero;fill:rgb(36.862746%,62.7451%,83.92157%);fill-opacity:1;" d="M 58.429688 34.175781 C 61.632812 36.847656 64.191406 40.601562 64.746094 44.824219 C 64.8125 45.875 64.789062 46.925781 64.746094 47.980469 C 64.691406 47.980469 64.636719 47.980469 64.578125 47.980469 C 64.5625 47.882812 64.542969 47.785156 64.523438 47.6875 C 63.578125 42.835938 61.429688 38.878906 57.273438 36.027344 C 54.898438 34.425781 52.007812 33.375 49.140625 33.203125 C 49.019531 33.195312 48.902344 33.1875 48.777344 33.179688 C 45.550781 32.992188 42.519531 33.648438 39.675781 35.195312 C 39.503906 35.285156 39.332031 35.371094 39.152344 35.464844 C 37.808594 36.1875 36.777344 37.128906 35.691406 38.183594 C 35.585938 38.277344 35.480469 38.375 35.367188 38.472656 C 32.582031 41.003906 31.242188 45 30.878906 48.644531 C 30.769531 48.644531 30.660156 48.644531 30.546875 48.644531 C 30.296875 44.078125 31.851562 39.714844 34.839844 36.273438 C 36.761719 34.128906 39.011719 32.636719 41.667969 31.542969 C 41.851562 31.46875 41.851562 31.46875 42.039062 31.390625 C 47.460938 29.359375 53.96875 30.582031 58.429688 34.175781 Z M 58.429688 34.175781 "/>
<path style=" stroke:none;fill-rule:nonzero;fill:rgb(19.215687%,20%,20.392157%);fill-opacity:1;" d="M 65.90625 61.921875 C 66.550781 62.1875 66.953125 62.597656 67.4375 63.085938 C 67.515625 63.167969 67.597656 63.25 67.679688 63.332031 C 67.933594 63.585938 68.1875 63.84375 68.441406 64.101562 C 68.613281 64.277344 68.785156 64.453125 68.957031 64.625 C 69.382812 65.050781 69.804688 65.480469 70.226562 65.90625 C 69.425781 66.871094 68.5625 67.757812 67.671875 68.636719 C 67.535156 68.773438 67.394531 68.910156 67.253906 69.054688 C 66.917969 69.386719 66.578125 69.722656 66.242188 70.058594 C 65.613281 69.800781 65.222656 69.410156 64.75 68.929688 C 64.671875 68.855469 64.597656 68.777344 64.515625 68.699219 C 64.273438 68.453125 64.03125 68.207031 63.792969 67.960938 C 63.625 67.796875 63.460938 67.628906 63.296875 67.464844 C 62.894531 67.054688 62.492188 66.648438 62.089844 66.242188 C 62.390625 65.582031 62.816406 65.183594 63.355469 64.714844 C 64.8125 63.464844 64.8125 63.464844 65.90625 61.921875 Z M 65.90625 61.921875 "/>
</g>
</svg>
