<?xml version="1.0" encoding="UTF-8"?>
<svg version="1.1" xmlns="http://www.w3.org/2000/svg" width="150" height="150">
<path d="M0 0 C1.79062866 0.01135986 1.79062866 0.01135986 3.61743164 0.02294922 C11.99516271 0.18009978 18.95588586 0.86892377 26.625 4.4375 C27.64078125 4.87320312 28.6565625 5.30890625 29.703125 5.7578125 C36.84862247 9.04330506 42.7548252 13.23439052 48.625 18.4375 C49.23859375 18.95699219 49.8521875 19.47648437 50.484375 20.01171875 C60.26431094 28.91684391 65.94003301 40.96783493 69.625 53.4375 C69.89328613 54.34411377 69.89328613 54.34411377 70.16699219 55.26904297 C71.17840535 60.05762064 70.85319208 65.06343021 70.875 69.9375 C70.9059375 71.61972656 70.9059375 71.61972656 70.9375 73.3359375 C71.0200762 91.21368584 64.56686593 106.18465078 52.625 119.4375 C52.07199219 120.07171875 51.51898438 120.7059375 50.94921875 121.359375 C41.0557588 132.03203347 24.66679411 140.71136166 9.95288086 141.59863281 C6.82264531 141.644544 3.69304402 141.67277669 0.5625 141.6875 C-0.50677734 141.708125 -1.57605469 141.72875 -2.67773438 141.75 C-20.37243839 141.83553331 -35.27360409 135.21456708 -48.375 123.4375 C-48.98601563 122.91929688 -49.59703125 122.40109375 -50.2265625 121.8671875 C-60.8523247 112.21181455 -69.53104943 96.1587983 -70.56787109 81.75878906 C-71.18357475 58.40682872 -68.79925261 41.46441514 -53 23.125 C-38.35410361 7.70564059 -21.26798255 -0.18870261 0 0 Z " fill="#00E4BB" transform="translate(75.375,4.5625)"/>
<path d="M0 0 C4.83392596 -0.10057784 9.66721348 -0.17225269 14.50195312 -0.21972656 C16.13878007 -0.23956301 17.77553895 -0.26664112 19.41210938 -0.30175781 C33.6429871 -0.59896288 49.94667808 -0.27558285 61 10 C67.65721454 17.22040622 69.49709046 23.99252328 69.30859375 33.75 C68.53745214 41.87139014 64.22346008 48.7949243 58 54 C54.43873051 55.97741648 50.81020148 57.56686816 47 59 C54.93077096 72.99055018 63.53861318 86.61185202 72.671875 99.84765625 C74 102 74 102 74 104 C67.38610314 105.07396856 60.51960632 105.91521634 54 104 C49.2407884 100.51690156 46.90208024 94.80789541 44.36425781 89.64111328 C41.87418359 84.82049358 38.85628732 80.3188324 35.9375 75.75 C34.83591704 73.99888312 33.74045303 72.24389583 32.65234375 70.484375 C32.18820068 69.73897461 31.72405762 68.99357422 31.24584961 68.22558594 C30 66 30 66 28 61 C24.37 61 20.74 61 17 61 C17 75.19 17 89.38 17 104 C11.39 104 5.78 104 0 104 C0 83.87 0 63.74 0 43 C4.95 42.67 9.9 42.34 15 42 C13.9171875 40.56011719 12.834375 39.12023438 11.71875 37.63671875 C2.31770864 24.58027545 -2.00827038 16.00923571 0 0 Z " fill="#F9FEFD" transform="translate(44,23)"/>
<path d="M0 0 C3.00099588 -0.10890711 5.99796378 -0.18773555 9 -0.25 C9.83917969 -0.28351562 10.67835937 -0.31703125 11.54296875 -0.3515625 C18.49407579 -0.4593316 23.65112736 1.17438871 29 5.6875 C30.62750557 9.45110664 30.75194126 12.98268421 30 17 C28.31356024 20.16542066 25.98972868 22.2976119 23.0625 24.375 C19.93074672 25.32401615 18.29162433 25.61569951 15 25 C12.45681695 22.25630056 10.67953168 19.10266946 8.8125 15.875 C8.29236328 15.0190625 7.77222656 14.163125 7.23632812 13.28125 C4.62388585 8.94386181 2.17999218 4.56974307 0 0 Z " fill="#03E4BB" transform="translate(65,41)"/>
</svg>
