<?xml version="1.0" encoding="UTF-8"?>
<svg xmlns="http://www.w3.org/2000/svg" xmlns:xlink="http://www.w3.org/1999/xlink" width="98px" height="85px" viewBox="0 0 85 85" version="1.1">
<g id="surface1">
<path style=" stroke:none;fill-rule:nonzero;fill:rgb(99.607843%,55.29412%,57.647061%);fill-opacity:1;" d="M 33.210938 19.234375 C 33.785156 19.410156 34.355469 19.585938 34.925781 19.765625 C 36.875 20.367188 38.839844 20.902344 40.820312 21.394531 C 40.941406 21.425781 41.066406 21.457031 41.191406 21.488281 C 42.496094 21.816406 43.800781 22.125 45.117188 22.390625 C 45.328125 22.433594 45.542969 22.476562 45.757812 22.523438 C 46.472656 22.59375 46.851562 22.429688 47.457031 22.082031 C 48.148438 21.757812 48.894531 21.816406 49.640625 21.914062 C 50.234375 22.136719 50.753906 22.382812 51.132812 22.910156 C 51.132812 23.128906 51.132812 23.347656 51.132812 23.574219 C 51.238281 23.585938 51.347656 23.601562 51.457031 23.613281 C 51.949219 23.675781 52.445312 23.738281 52.9375 23.800781 C 53.105469 23.824219 53.273438 23.84375 53.449219 23.867188 C 54.511719 24.003906 55.5625 24.175781 56.613281 24.402344 C 56.613281 24.625 56.613281 24.84375 56.613281 25.066406 C 56.28125 25.378906 56.28125 25.378906 55.824219 25.691406 C 55.65625 25.804688 55.488281 25.921875 55.316406 26.039062 C 55.140625 26.15625 54.964844 26.273438 54.785156 26.394531 C 54.53125 26.566406 54.53125 26.566406 54.273438 26.742188 C 54.105469 26.855469 53.941406 26.964844 53.769531 27.082031 C 53.605469 27.191406 53.441406 27.300781 53.273438 27.414062 C 52.792969 27.722656 52.792969 27.722656 52.335938 27.972656 C 51.933594 28.195312 51.613281 28.386719 51.300781 28.71875 C 51.015625 29.734375 51.324219 30.640625 51.796875 31.542969 C 51.898438 31.519531 51.996094 31.5 52.101562 31.476562 C 52.234375 31.453125 52.367188 31.433594 52.503906 31.40625 C 52.632812 31.382812 52.765625 31.359375 52.898438 31.332031 C 53.292969 31.375 53.292969 31.375 53.617188 31.683594 C 54.082031 32.40625 54.457031 33.164062 54.828125 33.941406 C 54.902344 34.09375 54.980469 34.25 55.058594 34.40625 C 55.777344 35.914062 55.777344 35.914062 55.617188 36.6875 C 55.285156 37.082031 55.285156 37.082031 54.953125 37.351562 C 55.039062 37.394531 55.125 37.4375 55.214844 37.480469 C 58.5 39.050781 61.296875 40.863281 63.894531 43.433594 C 64 43.535156 64.105469 43.640625 64.210938 43.746094 C 64.855469 44.394531 65.394531 45.0625 65.910156 45.820312 C 65.945312 45.722656 65.984375 45.625 66.023438 45.523438 C 66.40625 44.597656 66.792969 43.800781 67.734375 43.328125 C 68.019531 43.347656 68.300781 43.371094 68.585938 43.390625 C 69.367188 43.40625 69.730469 43.289062 70.308594 42.757812 C 70.410156 42.652344 70.507812 42.546875 70.613281 42.4375 C 71.125 41.933594 71.679688 41.976562 72.363281 41.972656 C 72.617188 41.96875 72.617188 41.96875 72.878906 41.964844 C 73.394531 42.003906 73.753906 42.09375 74.210938 42.332031 C 74.355469 42.757812 74.355469 42.757812 74.375 43.164062 C 74.320312 43.21875 74.265625 43.273438 74.210938 43.328125 C 73.660156 43.316406 73.109375 43.300781 72.5625 43.265625 C 71.863281 43.246094 71.597656 43.292969 71.050781 43.746094 C 70.945312 43.882812 70.835938 44.019531 70.722656 44.160156 C 70.789062 44.253906 70.855469 44.347656 70.921875 44.445312 C 71.914062 45.886719 72.613281 47.28125 72.308594 49.074219 C 72.132812 49.691406 71.976562 50.050781 71.5 50.488281 C 70.929688 50.675781 70.628906 50.664062 70.058594 50.46875 C 69.269531 49.792969 69.058594 48.804688 68.898438 47.8125 C 68.773438 45.59375 68.773438 45.59375 69.0625 44.65625 C 68.496094 44.675781 68.496094 44.675781 67.902344 44.824219 C 67.269531 45.601562 67.160156 46.5 67.167969 47.476562 C 67.269531 48.207031 67.550781 48.839844 67.839844 49.511719 C 68.375 50.765625 68.777344 52.082031 68.730469 53.457031 C 68.871094 53.492188 68.871094 53.492188 69.019531 53.523438 C 71 54.050781 72.6875 55.089844 74.210938 56.445312 C 74.335938 56.554688 74.460938 56.667969 74.589844 56.78125 C 77.1875 59.203125 78.507812 62.609375 78.691406 66.121094 C 78.695312 69.914062 77.5 73.363281 74.828125 76.085938 C 74.675781 76.234375 74.527344 76.382812 74.375 76.53125 C 74.1875 76.71875 74.1875 76.71875 73.996094 76.910156 C 71.246094 79.507812 67.742188 80.28125 64.078125 80.230469 C 61.65625 80.152344 59.707031 79.351562 57.609375 78.191406 C 57.132812 77.957031 56.714844 78 56.183594 77.992188 C 55.960938 77.988281 55.738281 77.984375 55.515625 77.976562 C 55.167969 77.972656 54.816406 77.964844 54.46875 77.960938 C 54.128906 77.957031 53.792969 77.949219 53.453125 77.941406 C 53.25 77.9375 53.050781 77.933594 52.839844 77.929688 C 52.242188 77.855469 51.929688 77.742188 51.464844 77.363281 C 51.308594 77 51.308594 77 51.238281 76.589844 C 51.199219 76.367188 51.199219 76.367188 51.15625 76.140625 C 51.132812 75.984375 51.105469 75.832031 51.082031 75.671875 C 51.054688 75.515625 51.023438 75.359375 50.996094 75.199219 C 50.929688 74.8125 50.863281 74.429688 50.800781 74.042969 C 50.714844 74.074219 50.628906 74.105469 50.542969 74.140625 C 49.503906 74.507812 48.472656 74.714844 47.386719 74.894531 C 47.222656 74.921875 47.058594 74.949219 46.890625 74.980469 C 41.210938 75.9375 35.074219 75.789062 29.550781 74.042969 C 29.523438 74.304688 29.523438 74.304688 29.5 74.570312 C 29.414062 75.222656 29.304688 75.867188 29.175781 76.511719 C 29.140625 76.695312 29.105469 76.882812 29.070312 77.070312 C 28.886719 77.527344 28.886719 77.527344 28.539062 77.722656 C 27.945312 77.894531 27.382812 77.910156 26.769531 77.90625 C 26.648438 77.90625 26.527344 77.90625 26.398438 77.90625 C 26.144531 77.90625 25.886719 77.90625 25.628906 77.90625 C 25.234375 77.902344 24.84375 77.90625 24.449219 77.90625 C 24.199219 77.90625 23.949219 77.90625 23.699219 77.90625 C 23.582031 77.90625 23.464844 77.90625 23.34375 77.90625 C 22.6875 77.902344 22.160156 77.847656 21.582031 77.527344 C 21.390625 77.085938 21.390625 77.085938 21.261719 76.480469 C 21.234375 76.371094 21.210938 76.257812 21.183594 76.144531 C 21.128906 75.878906 21.070312 75.617188 21.015625 75.351562 C 20.898438 74.785156 20.777344 74.222656 20.65625 73.65625 C 20.5625 73.222656 20.46875 72.785156 20.378906 72.351562 C 20.332031 72.140625 20.289062 71.925781 20.242188 71.710938 C 20.199219 71.507812 20.160156 71.308594 20.117188 71.097656 C 20.078125 70.917969 20.042969 70.738281 20.003906 70.550781 C 19.929688 70.101562 19.90625 69.6875 19.921875 69.226562 C 19.828125 69.1875 19.734375 69.144531 19.636719 69.097656 C 16.28125 67.308594 13.558594 63.316406 12.453125 59.765625 C 12.453125 59.601562 12.453125 59.4375 12.453125 59.265625 C 12.300781 59.25 12.300781 59.25 12.148438 59.230469 C 11.691406 59.171875 11.238281 59.109375 10.78125 59.050781 C 10.625 59.03125 10.46875 59.011719 10.304688 58.992188 C 8.171875 58.699219 8.171875 58.699219 7.417969 57.824219 C 6.386719 55.796875 6.4375 53.167969 7.109375 51.035156 C 7.441406 50.285156 7.871094 49.8125 8.632812 49.472656 C 9.332031 49.304688 10.035156 49.207031 10.75 49.109375 C 11.125 49.054688 11.5 49 11.878906 48.945312 C 12.042969 48.925781 12.210938 48.902344 12.378906 48.878906 C 12.785156 48.828125 12.785156 48.828125 13.117188 48.640625 C 13.265625 48.351562 13.40625 48.058594 13.539062 47.761719 C 15.046875 44.675781 17.714844 42.019531 20.585938 40.175781 C 20.480469 39.574219 20.371094 38.972656 20.265625 38.371094 C 20.234375 38.199219 20.203125 38.027344 20.171875 37.851562 C 20.144531 37.6875 20.113281 37.523438 20.082031 37.355469 C 20.054688 37.203125 20.03125 37.050781 20 36.894531 C 19.9375 36.519531 19.9375 36.519531 19.757812 36.191406 C 19.335938 36.117188 19.335938 36.117188 18.824219 36.09375 C 18.625 36.078125 18.421875 36.066406 18.21875 36.050781 C 17.894531 36.035156 17.894531 36.035156 17.5625 36.015625 C 17.335938 36 17.113281 35.984375 16.890625 35.96875 C 16.304688 35.933594 15.714844 35.894531 15.125 35.859375 C 14.527344 35.824219 13.925781 35.785156 13.328125 35.746094 C 12.148438 35.671875 10.972656 35.597656 9.796875 35.527344 C 9.738281 35.363281 9.683594 35.199219 9.628906 35.027344 C 10.035156 34.574219 10.480469 34.300781 11.011719 34 C 11.191406 33.898438 11.367188 33.792969 11.554688 33.6875 C 11.648438 33.632812 11.746094 33.578125 11.84375 33.519531 C 16.410156 30.878906 20.707031 27.8125 24.738281 24.402344 C 24.894531 24.273438 24.894531 24.273438 25.050781 24.136719 C 26.648438 22.789062 28.238281 21.421875 29.707031 19.933594 C 29.796875 19.84375 29.886719 19.753906 29.976562 19.664062 C 30.191406 19.449219 30.394531 19.222656 30.597656 19 C 31.417969 18.5625 32.355469 18.992188 33.210938 19.234375 Z M 47.980469 22.742188 C 47.921875 22.855469 47.867188 22.964844 47.8125 23.074219 C 48.070312 23.132812 48.332031 23.1875 48.589844 23.242188 C 48.808594 23.289062 48.808594 23.289062 49.027344 23.335938 C 49.460938 23.40625 49.863281 23.421875 50.304688 23.40625 C 49.804688 22.882812 49.804688 22.882812 49.113281 22.726562 C 48.980469 22.730469 48.84375 22.730469 48.703125 22.734375 C 48.570312 22.734375 48.433594 22.738281 48.292969 22.738281 C 48.191406 22.738281 48.085938 22.742188 47.980469 22.742188 Z M 49.378906 29.882812 C 49.242188 29.976562 49.105469 30.066406 48.964844 30.164062 C 48.859375 30.234375 48.75 30.308594 48.644531 30.378906 C 49.007812 33.046875 49.007812 33.046875 49.472656 35.691406 C 49.824219 35.804688 50.179688 35.914062 50.53125 36.023438 C 50.726562 36.085938 50.925781 36.148438 51.125 36.210938 C 51.597656 36.371094 51.597656 36.371094 51.964844 36.355469 C 51.6875 35.457031 51.28125 34.6875 50.824219 33.867188 C 50.539062 33.121094 50.722656 32.609375 50.96875 31.875 C 50.847656 31.550781 50.726562 31.222656 50.597656 30.902344 C 50.414062 30.398438 50.359375 29.917969 50.304688 29.382812 C 49.964844 29.382812 49.648438 29.703125 49.378906 29.882812 Z M 70.058594 45.488281 C 70.003906 46.773438 69.96875 47.964844 70.558594 49.140625 C 70.667969 49.25 70.777344 49.359375 70.890625 49.472656 C 71.238281 48.769531 71.140625 47.910156 71.054688 47.148438 C 70.835938 46.554688 70.558594 46.023438 70.226562 45.488281 C 70.167969 45.488281 70.113281 45.488281 70.058594 45.488281 Z M 70.058594 45.488281 "/>
<path style=" stroke:none;fill-rule:nonzero;fill:rgb(100%,72.156864%,20.392157%);fill-opacity:1;" d="M 64.703125 53.0625 C 64.910156 53.066406 65.117188 53.066406 65.328125 53.070312 C 69.136719 53.136719 72.109375 54.433594 74.894531 57.046875 C 77.414062 59.660156 78.6875 63.125 78.691406 66.738281 C 78.535156 70.625 77.132812 73.8125 74.375 76.53125 C 74.1875 76.71875 74.1875 76.71875 73.996094 76.910156 C 71.246094 79.507812 67.742188 80.28125 64.078125 80.230469 C 61.515625 80.148438 59.234375 79.277344 57.109375 77.859375 C 57.109375 77.75 57.109375 77.640625 57.109375 77.53125 C 57.015625 77.488281 56.925781 77.449219 56.832031 77.40625 C 54.097656 75.914062 52.5625 72.726562 51.6875 69.871094 C 51.40625 68.792969 51.375 67.742188 51.382812 66.632812 C 51.382812 66.429688 51.382812 66.226562 51.386719 66.015625 C 51.417969 64.367188 51.632812 62.9375 52.296875 61.425781 C 52.339844 61.320312 52.386719 61.210938 52.433594 61.101562 C 53.984375 57.660156 56.742188 55.164062 60.226562 53.757812 C 61.734375 53.203125 63.101562 53.042969 64.703125 53.0625 Z M 64.703125 53.0625 "/>
<path style=" stroke:none;fill-rule:nonzero;fill:rgb(22.745098%,20.784314%,20.784314%);fill-opacity:1;" d="M 33.210938 19.234375 C 33.785156 19.410156 34.355469 19.585938 34.925781 19.765625 C 37.351562 20.515625 39.804688 21.136719 42.269531 21.742188 C 42.386719 21.769531 42.5 21.796875 42.617188 21.824219 C 43.21875 21.972656 43.820312 22.117188 44.425781 22.257812 C 44.667969 22.316406 44.914062 22.375 45.15625 22.433594 C 45.273438 22.460938 45.386719 22.488281 45.503906 22.515625 C 45.777344 22.582031 46.046875 22.660156 46.320312 22.742188 C 46.375 22.855469 46.429688 22.964844 46.484375 23.074219 C 46.734375 23.019531 46.734375 23.019531 46.992188 22.960938 C 48.097656 22.816406 49.234375 23.136719 50.304688 23.40625 C 50.46875 23.574219 50.46875 23.574219 50.492188 24.0625 C 50.488281 24.648438 50.484375 25.238281 50.472656 25.828125 C 50.46875 26.242188 50.476562 26.65625 50.484375 27.074219 C 50.488281 29.15625 50.488281 29.15625 49.960938 29.804688 C 49.578125 30.058594 49.230469 30.214844 48.808594 30.378906 C 48.824219 30.476562 48.835938 30.574219 48.851562 30.671875 C 49.355469 34.089844 49.355469 34.089844 49.472656 35.691406 C 49.378906 35.679688 49.289062 35.667969 49.191406 35.652344 C 48.757812 35.589844 48.320312 35.527344 47.886719 35.464844 C 47.667969 35.433594 47.667969 35.433594 47.445312 35.402344 C 47.132812 35.355469 46.820312 35.3125 46.507812 35.269531 C 46.144531 35.21875 45.78125 35.164062 45.417969 35.105469 C 43.777344 34.863281 42.179688 34.804688 40.527344 34.8125 C 40.328125 34.8125 40.328125 34.8125 40.125 34.8125 C 37.257812 34.820312 34.4375 34.996094 31.664062 35.761719 C 31.214844 35.859375 30.839844 35.902344 30.382812 35.859375 C 30.015625 35.53125 30.015625 35.53125 29.65625 35.089844 C 28.71875 33.996094 27.921875 33.203125 26.5625 32.703125 C 27.144531 32.125 27.980469 31.984375 28.75 31.738281 C 29.027344 31.652344 29.027344 31.652344 29.308594 31.5625 C 31.136719 30.992188 32.984375 30.578125 34.863281 30.214844 C 31.769531 30.652344 28.816406 31.609375 25.898438 32.703125 C 26.007812 32.761719 26.117188 32.816406 26.230469 32.871094 C 26.1875 32.980469 26.140625 33.09375 26.09375 33.207031 C 25.863281 33.792969 25.636719 34.378906 25.410156 34.96875 C 25.363281 35.085938 25.320312 35.203125 25.273438 35.324219 C 25.011719 36.003906 24.855469 36.621094 24.757812 37.34375 C 24.601562 37.988281 24.355469 38.253906 23.820312 38.609375 C 23.148438 39.007812 22.453125 39.347656 21.75 39.675781 C 21.414062 39.84375 21.082031 40.007812 20.753906 40.175781 C 20.421875 38.847656 20.089844 37.519531 19.757812 36.191406 C 16.46875 35.972656 13.183594 35.753906 9.796875 35.527344 C 9.738281 35.363281 9.683594 35.199219 9.628906 35.027344 C 10.035156 34.574219 10.480469 34.300781 11.011719 34 C 11.191406 33.898438 11.367188 33.792969 11.554688 33.6875 C 11.695312 33.605469 11.695312 33.605469 11.84375 33.519531 C 16.410156 30.878906 20.707031 27.8125 24.738281 24.402344 C 24.894531 24.273438 24.894531 24.273438 25.050781 24.136719 C 26.648438 22.789062 28.238281 21.421875 29.707031 19.933594 C 29.796875 19.84375 29.886719 19.753906 29.976562 19.664062 C 30.191406 19.449219 30.394531 19.222656 30.597656 19 C 31.417969 18.5625 32.355469 18.992188 33.210938 19.234375 Z M 33.210938 19.234375 "/>
<path style=" stroke:none;fill-rule:nonzero;fill:rgb(66.666669%,93.333334%,91.764706%);fill-opacity:1;" d="M 74.570312 8.1875 C 77.042969 10.546875 78.320312 13.476562 78.421875 16.871094 C 78.40625 20.058594 77.238281 22.886719 74.992188 25.136719 C 73.628906 26.4375 71.929688 27.796875 69.992188 27.984375 C 68.539062 28.113281 68.539062 28.113281 67.386719 28.9375 C 66.726562 29.863281 66.179688 30.847656 65.671875 31.863281 C 65.410156 32.207031 65.410156 32.207031 64.996094 32.371094 C 64.578125 32.375 64.578125 32.375 64.304688 32.191406 C 64.027344 31.800781 63.851562 31.410156 63.671875 30.964844 C 63.558594 30.703125 63.558594 30.703125 63.449219 30.429688 C 63.375 30.246094 63.296875 30.0625 63.222656 29.871094 C 63.144531 29.6875 63.066406 29.503906 62.988281 29.3125 C 62.421875 27.9375 62.421875 27.9375 62.421875 27.558594 C 62.277344 27.515625 62.128906 27.46875 61.980469 27.425781 C 59.433594 26.511719 57.46875 24.363281 56.308594 21.976562 C 55.082031 19.222656 54.796875 16.105469 55.71875 13.199219 C 56.96875 10.011719 59.027344 7.613281 62.1875 6.210938 C 66.664062 4.511719 70.773438 5.429688 74.570312 8.1875 Z M 74.570312 8.1875 "/>
<path style=" stroke:none;fill-rule:nonzero;fill:rgb(0.392157%,80.000001%,75.686276%);fill-opacity:1;" d="M 71.113281 12.40625 C 71.914062 12.734375 72.484375 13.105469 73.046875 13.78125 C 73.171875 13.917969 73.300781 14.054688 73.429688 14.195312 C 73.855469 15.078125 73.839844 15.96875 73.710938 16.933594 C 72.929688 18.710938 71.289062 20.046875 69.929688 21.398438 C 69.660156 21.667969 69.390625 21.9375 69.121094 22.210938 C 68.949219 22.382812 68.773438 22.554688 68.601562 22.730469 C 68.445312 22.882812 68.292969 23.039062 68.132812 23.195312 C 67.675781 23.632812 67.390625 23.886719 66.753906 23.964844 C 66.121094 23.890625 65.929688 23.722656 65.476562 23.28125 C 65.332031 23.144531 65.191406 23.007812 65.042969 22.867188 C 64.890625 22.71875 64.738281 22.566406 64.578125 22.414062 C 64.414062 22.253906 64.25 22.097656 64.085938 21.941406 C 63.652344 21.527344 63.222656 21.109375 62.796875 20.6875 C 62.621094 20.515625 62.445312 20.34375 62.269531 20.171875 C 61.042969 18.988281 59.804688 17.792969 59.671875 16 C 59.738281 14.980469 60.175781 14.230469 60.84375 13.476562 C 61.882812 12.570312 62.566406 12.390625 63.945312 12.402344 C 64.863281 12.496094 65.503906 12.917969 66.199219 13.5 C 66.535156 13.820312 66.535156 13.820312 66.882812 13.746094 C 67.300781 13.589844 67.617188 13.382812 67.984375 13.125 C 69.015625 12.40625 69.847656 12.015625 71.113281 12.40625 Z M 71.113281 12.40625 "/>
<path style=" stroke:none;fill-rule:nonzero;fill:rgb(100%,85.09804%,58.431375%);fill-opacity:1;" d="M 67.402344 54.289062 C 68.015625 54.402344 68.015625 54.402344 68.234375 54.617188 C 68.238281 54.949219 68.238281 55.285156 68.234375 55.617188 C 68.34375 55.617188 68.453125 55.617188 68.5625 55.617188 C 68.585938 56.714844 68.585938 56.714844 68.398438 57.273438 C 68.515625 57.304688 68.632812 57.332031 68.75 57.359375 C 69.585938 57.792969 70.070312 58.554688 70.414062 59.414062 C 70.867188 61.074219 70.507812 62.679688 69.890625 64.25 C 69.726562 64.414062 69.726562 64.414062 69.320312 64.445312 C 68.898438 64.414062 68.898438 64.414062 68.5625 64.082031 C 68.613281 63.566406 68.710938 63.132812 68.90625 62.648438 C 69.195312 61.609375 69.214844 60.527344 68.855469 59.507812 C 68.566406 59.105469 68.296875 58.886719 67.898438 58.601562 C 67.886719 58.699219 67.875 58.792969 67.863281 58.890625 C 67.652344 60.257812 67.238281 61.535156 66.8125 62.84375 C 66.386719 64.101562 66.386719 64.101562 66.242188 65.410156 C 66.386719 65.5 66.535156 65.589844 66.6875 65.679688 C 67.464844 66.160156 67.800781 66.882812 68.066406 67.734375 C 68.335938 70 67.761719 72.582031 66.425781 74.449219 C 65.757812 75.261719 64.964844 76.105469 63.914062 76.367188 C 63.527344 76.378906 63.140625 76.382812 62.753906 76.367188 C 62.644531 76.75 62.535156 77.132812 62.421875 77.53125 C 62.027344 77.632812 62.027344 77.632812 61.59375 77.695312 C 61.480469 77.585938 61.371094 77.476562 61.257812 77.363281 C 61.289062 77.097656 61.289062 77.097656 61.320312 76.824219 C 61.332031 76.210938 61.332031 76.210938 60.996094 75.960938 C 60.824219 75.847656 60.824219 75.847656 60.648438 75.734375 C 59.800781 75.167969 59.410156 74.507812 59.101562 73.546875 C 58.878906 72.304688 59.230469 71.179688 59.765625 70.058594 C 60.097656 69.726562 60.097656 69.726562 60.523438 69.695312 C 60.929688 69.726562 60.929688 69.726562 61.09375 69.890625 C 61.035156 70.476562 60.949219 70.996094 60.75 71.554688 C 60.425781 72.589844 60.582031 73.316406 61.050781 74.257812 C 61.300781 74.597656 61.539062 74.714844 61.921875 74.875 C 61.949219 74.644531 61.949219 74.644531 61.972656 74.410156 C 62.101562 73.53125 62.367188 72.691406 62.617188 71.84375 C 62.695312 71.582031 62.695312 71.582031 62.773438 71.316406 C 63.246094 69.730469 63.742188 68.148438 64.25 66.570312 C 63.976562 66.542969 63.976562 66.542969 63.703125 66.515625 C 62.890625 66.371094 62.660156 66.148438 62.089844 65.578125 C 61.535156 63.910156 61.917969 62.011719 62.636719 60.46875 C 63.382812 59.011719 64.34375 57.59375 65.90625 56.945312 C 66.324219 56.882812 66.648438 56.898438 67.070312 56.945312 C 67.128906 56.699219 67.1875 56.453125 67.246094 56.207031 C 67.28125 56.070312 67.3125 55.933594 67.347656 55.792969 C 67.363281 55.679688 67.382812 55.566406 67.402344 55.449219 C 67.320312 55.367188 67.320312 55.367188 67.234375 55.28125 C 67.214844 54.867188 67.214844 54.867188 67.234375 54.453125 C 67.292969 54.398438 67.347656 54.34375 67.402344 54.289062 Z M 67.402344 54.289062 "/>
<path style=" stroke:none;fill-rule:nonzero;fill:rgb(22.352941%,20%,20%);fill-opacity:1;" d="M 48.640625 30.546875 C 48.890625 31.492188 49.085938 32.433594 49.246094 33.398438 C 49.277344 33.59375 49.277344 33.59375 49.3125 33.792969 C 49.417969 34.433594 49.5 35.042969 49.472656 35.695312 C 49.378906 35.679688 49.289062 35.667969 49.191406 35.652344 C 48.757812 35.589844 48.320312 35.527344 47.886719 35.464844 C 47.667969 35.433594 47.667969 35.433594 47.445312 35.402344 C 47.132812 35.355469 46.820312 35.3125 46.507812 35.269531 C 46.144531 35.21875 45.78125 35.164062 45.417969 35.105469 C 43.777344 34.863281 42.179688 34.804688 40.527344 34.8125 C 40.328125 34.8125 40.328125 34.8125 40.125 34.8125 C 37.257812 34.820312 34.4375 34.996094 31.664062 35.761719 C 31.214844 35.859375 30.839844 35.902344 30.382812 35.859375 C 30.015625 35.53125 30.015625 35.53125 29.65625 35.089844 C 28.71875 33.996094 27.921875 33.203125 26.5625 32.703125 C 30.800781 28.46875 43.269531 29.050781 48.640625 30.546875 Z M 48.640625 30.546875 "/>
<path style=" stroke:none;fill-rule:nonzero;fill:rgb(100%,32.549021%,36.078432%);fill-opacity:1;" d="M 38.773438 36.96875 C 38.929688 36.96875 39.082031 36.96875 39.238281 36.96875 C 42.175781 36.976562 45.0625 37.164062 47.976562 37.519531 C 48.140625 37.539062 48.304688 37.558594 48.472656 37.574219 C 50.648438 37.832031 50.648438 37.832031 51.195312 38.496094 C 51.523438 39.128906 51.578125 39.472656 51.464844 40.175781 C 51.164062 40.667969 50.828125 41.074219 50.304688 41.335938 C 49.425781 41.375 48.671875 41.300781 47.8125 41.109375 C 45.285156 40.59375 42.695312 40.472656 40.121094 40.511719 C 39.9375 40.511719 39.757812 40.515625 39.570312 40.519531 C 38.820312 40.53125 38.074219 40.542969 37.328125 40.566406 C 36.773438 40.578125 36.214844 40.585938 35.660156 40.59375 C 35.492188 40.597656 35.324219 40.605469 35.148438 40.613281 C 34.019531 40.621094 34.019531 40.621094 33.574219 40.292969 C 33.191406 39.847656 32.921875 39.433594 32.933594 38.835938 C 33.039062 38.183594 33.039062 38.183594 33.347656 37.707031 C 34.855469 36.683594 37.027344 36.960938 38.773438 36.96875 Z M 38.773438 36.96875 "/>
<path style=" stroke:none;fill-rule:nonzero;fill:rgb(99.215686%,71.372551%,20%);fill-opacity:1;" d="M 50.21875 22.132812 C 50.90625 22.59375 50.90625 22.59375 51.132812 22.910156 C 51.132812 23.128906 51.132812 23.347656 51.132812 23.574219 C 51.292969 23.59375 51.292969 23.59375 51.457031 23.613281 C 51.949219 23.675781 52.445312 23.738281 52.9375 23.800781 C 53.105469 23.824219 53.273438 23.84375 53.449219 23.867188 C 54.511719 24.003906 55.5625 24.175781 56.609375 24.40625 C 56.609375 24.625 56.609375 24.84375 56.609375 25.070312 C 56.28125 25.378906 56.28125 25.378906 55.824219 25.691406 C 55.65625 25.804688 55.488281 25.921875 55.316406 26.039062 C 55.140625 26.15625 54.964844 26.273438 54.785156 26.398438 C 54.617188 26.511719 54.445312 26.625 54.273438 26.742188 C 54.105469 26.855469 53.941406 26.964844 53.769531 27.082031 C 53.605469 27.191406 53.441406 27.300781 53.273438 27.414062 C 52.792969 27.726562 52.792969 27.726562 52.335938 27.972656 C 51.933594 28.195312 51.613281 28.386719 51.296875 28.71875 C 51.015625 29.734375 51.324219 30.640625 51.796875 31.542969 C 51.898438 31.519531 51.996094 31.5 52.101562 31.476562 C 52.234375 31.453125 52.367188 31.433594 52.503906 31.40625 C 52.632812 31.382812 52.765625 31.359375 52.898438 31.332031 C 53.289062 31.375 53.289062 31.375 53.617188 31.683594 C 54.082031 32.40625 54.457031 33.164062 54.828125 33.941406 C 54.941406 34.171875 54.941406 34.171875 55.058594 34.40625 C 55.757812 35.867188 55.757812 35.867188 55.617188 36.6875 C 55.261719 37.09375 55.261719 37.09375 54.785156 37.351562 C 54.339844 37.351562 54.339844 37.351562 53.789062 37.1875 C 53.664062 37.171875 53.542969 37.152344 53.414062 37.136719 C 52.742188 36.984375 52.308594 36.765625 51.890625 36.199219 C 51.636719 35.796875 51.40625 35.386719 51.183594 34.96875 C 51.109375 34.828125 51.035156 34.6875 50.960938 34.546875 C 50.453125 33.519531 50.4375 32.964844 50.800781 31.875 C 50.675781 31.558594 50.546875 31.242188 50.421875 30.925781 C 50.210938 30.257812 50.25 29.601562 50.273438 28.910156 C 50.273438 28.757812 50.273438 28.605469 50.277344 28.449219 C 50.285156 27.96875 50.292969 27.488281 50.304688 27.007812 C 50.316406 26.371094 50.324219 25.738281 50.332031 25.101562 C 50.339844 24.957031 50.34375 24.808594 50.347656 24.660156 C 50.347656 24.523438 50.351562 24.390625 50.351562 24.25 C 50.355469 24.132812 50.355469 24.011719 50.359375 23.890625 C 50.285156 23.476562 50.125 23.335938 49.804688 23.078125 C 48.816406 22.582031 47.496094 22.976562 46.484375 23.242188 C 46.429688 23.023438 46.375 22.804688 46.320312 22.578125 C 47.59375 21.871094 48.820312 21.609375 50.21875 22.132812 Z M 50.21875 22.132812 "/>
<path style=" stroke:none;fill-rule:nonzero;fill:rgb(94.117647%,52.941179%,54.901963%);fill-opacity:1;" d="M 8.300781 49.640625 C 9.3125 50.039062 9.671875 51.054688 10.136719 51.980469 C 10.730469 53.441406 10.675781 55.324219 10.167969 56.796875 C 9.890625 57.457031 9.5625 58.035156 9.132812 58.601562 C 8.488281 58.566406 8.089844 58.542969 7.59375 58.117188 C 6.433594 56.085938 6.5 53.691406 6.972656 51.464844 C 7.234375 50.6875 7.566406 50.058594 8.300781 49.640625 Z M 8.300781 49.640625 "/>
<path style=" stroke:none;fill-rule:nonzero;fill:rgb(25.490198%,23.137255%,23.137255%);fill-opacity:1;" d="M 26.230469 32.871094 C 26.1875 32.980469 26.140625 33.09375 26.09375 33.207031 C 25.863281 33.792969 25.636719 34.378906 25.410156 34.96875 C 25.363281 35.085938 25.320312 35.203125 25.273438 35.324219 C 25.011719 36.003906 24.855469 36.621094 24.757812 37.34375 C 24.601562 37.988281 24.355469 38.253906 23.820312 38.609375 C 23.148438 39.007812 22.453125 39.347656 21.75 39.679688 C 21.414062 39.84375 21.082031 40.007812 20.75 40.175781 C 20.339844 38.636719 20.035156 37.09375 19.757812 35.527344 C 20.421875 35.175781 21.089844 34.828125 21.757812 34.480469 C 21.945312 34.378906 22.136719 34.28125 22.328125 34.179688 C 24.984375 32.792969 24.984375 32.792969 26.230469 32.871094 Z M 26.230469 32.871094 "/>
<path style=" stroke:none;fill-rule:nonzero;fill:rgb(100%,97.254902%,97.647059%);fill-opacity:1;" d="M 48.144531 36.6875 C 49.320312 36.761719 50.355469 36.976562 51.464844 37.363281 C 51.617188 37.414062 51.765625 37.46875 51.921875 37.519531 C 56.722656 39.203125 61.3125 41.871094 64.351562 46.046875 C 64.457031 46.195312 64.457031 46.195312 64.566406 46.34375 C 64.941406 46.878906 65.171875 47.324219 65.242188 47.976562 C 65.023438 48.035156 64.804688 48.089844 64.578125 48.144531 C 64.511719 48.042969 64.441406 47.945312 64.371094 47.839844 C 62.007812 44.410156 59.300781 42.085938 55.617188 40.175781 C 55.421875 40.074219 55.230469 39.976562 55.035156 39.871094 C 53.277344 39.003906 51.425781 38.417969 49.5625 37.828125 C 49.421875 37.78125 49.285156 37.734375 49.140625 37.6875 C 48.988281 37.636719 48.835938 37.589844 48.683594 37.542969 C 48.3125 37.351562 48.3125 37.351562 48.175781 37 C 48.164062 36.898438 48.15625 36.796875 48.144531 36.6875 Z M 48.144531 36.6875 "/>
<path style=" stroke:none;fill-rule:nonzero;fill:rgb(22.745098%,20.392157%,19.607843%);fill-opacity:1;" d="M 51.132812 23.574219 C 51.734375 23.648438 52.335938 23.726562 52.9375 23.800781 C 53.105469 23.824219 53.273438 23.84375 53.449219 23.867188 C 54.511719 24.003906 55.5625 24.175781 56.609375 24.40625 C 56.609375 24.625 56.609375 24.84375 56.609375 25.070312 C 56.28125 25.378906 56.28125 25.378906 55.824219 25.691406 C 55.65625 25.804688 55.488281 25.921875 55.316406 26.039062 C 55.140625 26.15625 54.964844 26.277344 54.785156 26.398438 C 54.539062 26.566406 54.539062 26.566406 54.285156 26.738281 C 53.191406 27.472656 52.082031 28.183594 50.96875 28.886719 C 50.945312 27.109375 51 25.347656 51.132812 23.574219 Z M 51.132812 23.574219 "/>
<path style=" stroke:none;fill-rule:nonzero;fill:rgb(100%,72.549021%,21.176471%);fill-opacity:1;" d="M 65.578125 66.738281 C 66.21875 66.980469 66.433594 67.292969 66.738281 67.898438 C 67.046875 69.917969 66.441406 72.011719 65.339844 73.699219 C 64.753906 74.46875 64.222656 74.878906 63.25 75.039062 C 63.527344 73.566406 63.90625 72.167969 64.367188 70.746094 C 64.710938 69.683594 65.007812 68.617188 65.285156 67.535156 C 65.410156 67.070312 65.410156 67.070312 65.578125 66.738281 Z M 65.578125 66.738281 "/>
<path style=" stroke:none;fill-rule:nonzero;fill:rgb(95.686275%,95.686275%,95.686275%);fill-opacity:1;" d="M 27.726562 22.910156 C 27.945312 23.019531 28.164062 23.128906 28.390625 23.242188 C 27.679688 24.941406 25.65625 26.226562 24.230469 27.308594 C 23.894531 27.566406 23.5625 27.832031 23.234375 28.097656 C 21.34375 29.605469 19.363281 30.953125 17.339844 32.273438 C 16.871094 32.578125 16.402344 32.890625 15.9375 33.203125 C 15.71875 33.09375 15.5 32.984375 15.273438 32.871094 C 15.472656 32.277344 15.621094 32.207031 16.136719 31.875 C 16.355469 31.730469 16.355469 31.730469 16.574219 31.585938 C 16.730469 31.488281 16.886719 31.386719 17.046875 31.285156 C 17.367188 31.074219 17.6875 30.863281 18.007812 30.652344 C 18.167969 30.550781 18.324219 30.445312 18.484375 30.339844 C 21.761719 28.171875 24.96875 25.71875 27.726562 22.910156 Z M 27.726562 22.910156 "/>
<path style=" stroke:none;fill-rule:nonzero;fill:rgb(100%,98.431373%,95.686275%);fill-opacity:1;" d="M 65.078125 54.121094 C 65.160156 54.449219 65.160156 54.449219 65.242188 54.785156 C 65.152344 54.808594 65.058594 54.832031 64.960938 54.859375 C 60.445312 56.039062 57.027344 58.007812 54.617188 62.089844 C 54.378906 62.527344 54.164062 62.964844 53.953125 63.417969 C 53.734375 63.417969 53.515625 63.417969 53.289062 63.417969 C 53.371094 61.589844 54.617188 60.09375 55.78125 58.769531 C 55.890625 58.644531 56 58.519531 56.109375 58.390625 C 58.246094 56.101562 61.859375 53.90625 65.078125 54.121094 Z M 65.078125 54.121094 "/>
<path style=" stroke:none;fill-rule:nonzero;fill:rgb(100%,98.039216%,95.294118%);fill-opacity:1;" d="M 75.867188 67.570312 C 76.089844 67.570312 76.308594 67.570312 76.53125 67.570312 C 76.578125 68.652344 76.46875 69.503906 76.109375 70.527344 C 76.039062 70.71875 76.039062 70.71875 75.972656 70.917969 C 74.9375 73.792969 73.078125 76.03125 70.308594 77.347656 C 69.175781 77.84375 68.140625 78.09375 66.90625 78.195312 C 66.847656 77.917969 66.792969 77.644531 66.738281 77.363281 C 66.890625 77.328125 67.042969 77.292969 67.203125 77.257812 C 69.800781 76.625 72.136719 75.632812 73.667969 73.328125 C 74.71875 71.570312 75.445312 69.765625 75.703125 67.734375 C 75.757812 67.679688 75.8125 67.625 75.867188 67.570312 Z M 75.867188 67.570312 "/>
<path style=" stroke:none;fill-rule:nonzero;fill:rgb(100%,72.156864%,19.607843%);fill-opacity:1;" d="M 43.578125 10.273438 C 43.992188 10.292969 43.992188 10.292969 44.160156 10.460938 C 44.183594 11.234375 44.167969 12.007812 44.160156 12.78125 C 44.925781 12.78125 45.695312 12.78125 46.484375 12.78125 C 46.59375 13.003906 46.703125 13.222656 46.816406 13.445312 C 46.734375 13.695312 46.734375 13.695312 46.648438 13.945312 C 45.828125 13.945312 45.007812 13.945312 44.160156 13.945312 C 44.160156 14.710938 44.160156 15.480469 44.160156 16.269531 C 43.941406 16.378906 43.722656 16.488281 43.496094 16.601562 C 43.332031 16.492188 43.167969 16.382812 43 16.269531 C 42.949219 15.730469 42.949219 15.730469 42.96875 15.085938 C 42.972656 14.875 42.976562 14.660156 42.980469 14.441406 C 42.984375 14.277344 42.992188 14.113281 43 13.945312 C 42.832031 13.945312 42.667969 13.949219 42.496094 13.949219 C 42.28125 13.953125 42.066406 13.953125 41.847656 13.957031 C 41.632812 13.957031 41.417969 13.960938 41.199219 13.960938 C 40.671875 13.945312 40.671875 13.945312 40.507812 13.78125 C 40.488281 13.363281 40.488281 13.363281 40.507812 12.949219 C 40.671875 12.78125 40.671875 12.78125 41.199219 12.765625 C 41.519531 12.769531 41.519531 12.769531 41.847656 12.773438 C 42.058594 12.773438 42.273438 12.777344 42.496094 12.777344 C 42.660156 12.777344 42.828125 12.78125 43 12.78125 C 42.996094 12.617188 42.996094 12.453125 42.992188 12.28125 C 42.992188 12.066406 42.988281 11.851562 42.988281 11.632812 C 42.984375 11.417969 42.984375 11.203125 42.980469 10.984375 C 43.003906 10.300781 43.003906 10.300781 43.578125 10.273438 Z M 43.578125 10.273438 "/>
<path style=" stroke:none;fill-rule:nonzero;fill:rgb(100%,72.156864%,20.784314%);fill-opacity:1;" d="M 66.570312 58.273438 C 66.460938 59.347656 66.15625 60.347656 65.847656 61.382812 C 65.746094 61.726562 65.644531 62.066406 65.542969 62.410156 C 65.46875 62.65625 65.46875 62.65625 65.390625 62.914062 C 65.164062 63.6875 64.953125 64.464844 64.746094 65.242188 C 63.839844 65.304688 63.839844 65.304688 63.472656 65.054688 C 62.976562 64.363281 63.15625 63.394531 63.25 62.585938 C 63.609375 61.324219 64.929688 58.273438 66.570312 58.273438 Z M 66.570312 58.273438 "/>
<path style=" stroke:none;fill-rule:nonzero;fill:rgb(98.039216%,99.607843%,99.215686%);fill-opacity:1;" d="M 67.570312 6.640625 C 67.570312 6.859375 67.570312 7.078125 67.570312 7.304688 C 67.273438 7.601562 66.816406 7.511719 66.417969 7.53125 C 63.585938 7.742188 61.082031 9.152344 59.183594 11.25 C 58.628906 11.917969 58.113281 12.597656 57.628906 13.3125 C 57.511719 13.464844 57.394531 13.621094 57.273438 13.78125 C 57.109375 13.78125 56.945312 13.78125 56.777344 13.78125 C 56.84375 12.828125 57.117188 12.257812 57.710938 11.539062 C 57.785156 11.445312 57.863281 11.351562 57.941406 11.253906 C 60.429688 8.191406 63.609375 6.5 67.570312 6.640625 Z M 67.570312 6.640625 "/>
<path style=" stroke:none;fill-rule:nonzero;fill:rgb(23.137255%,20.392157%,20.392157%);fill-opacity:1;" d="M 22.1875 44.894531 C 22.773438 45.039062 23.050781 45.351562 23.40625 45.820312 C 23.464844 45.875 23.519531 45.929688 23.574219 45.984375 C 23.667969 46.613281 23.710938 47.226562 23.40625 47.796875 C 23.050781 48.234375 22.785156 48.460938 22.246094 48.640625 C 21.566406 48.707031 21.203125 48.71875 20.617188 48.351562 C 20.09375 47.8125 19.953125 47.511719 19.839844 46.765625 C 19.933594 46.058594 20.105469 45.722656 20.589844 45.210938 C 21.113281 44.859375 21.570312 44.851562 22.1875 44.894531 Z M 22.1875 44.894531 "/>
<path style=" stroke:none;fill-rule:nonzero;fill:rgb(100%,72.156864%,19.607843%);fill-opacity:1;" d="M 11.289062 69.226562 C 12.070312 69.34375 12.070312 69.34375 12.285156 69.5625 C 12.296875 69.867188 12.300781 70.175781 12.296875 70.484375 C 12.292969 70.652344 12.292969 70.820312 12.289062 70.992188 C 12.289062 71.121094 12.289062 71.253906 12.285156 71.386719 C 12.476562 71.382812 12.476562 71.382812 12.671875 71.375 C 12.839844 71.371094 13.007812 71.367188 13.175781 71.367188 C 13.34375 71.363281 13.507812 71.359375 13.679688 71.355469 C 14.109375 71.386719 14.109375 71.386719 14.445312 71.71875 C 14.355469 72.304688 14.355469 72.304688 14.109375 72.546875 C 13.503906 72.574219 12.894531 72.554688 12.285156 72.546875 C 12.285156 73.152344 12.285156 73.753906 12.285156 74.375 C 12.011719 74.484375 11.738281 74.59375 11.453125 74.707031 C 11.125 74.375 11.125 74.375 11.089844 73.941406 C 11.09375 73.777344 11.097656 73.613281 11.101562 73.441406 C 11.105469 73.273438 11.109375 73.109375 11.113281 72.9375 C 11.113281 72.808594 11.117188 72.679688 11.125 72.546875 C 10.996094 72.550781 10.867188 72.554688 10.734375 72.558594 C 10.570312 72.5625 10.402344 72.566406 10.230469 72.570312 C 10.066406 72.574219 9.898438 72.578125 9.730469 72.582031 C 9.296875 72.546875 9.296875 72.546875 8.964844 72.21875 C 9.019531 71.941406 9.074219 71.667969 9.132812 71.386719 C 9.789062 71.386719 10.445312 71.386719 11.125 71.386719 C 11.121094 71.0625 11.117188 70.734375 11.113281 70.402344 C 11.109375 70.066406 11.109375 69.730469 11.125 69.394531 C 11.179688 69.339844 11.234375 69.285156 11.289062 69.226562 Z M 11.289062 69.226562 "/>
<path style=" stroke:none;fill-rule:nonzero;fill:rgb(100%,96.862745%,96.862745%);fill-opacity:1;" d="M 33.867188 73.046875 C 34.597656 73.011719 35.246094 73.078125 35.964844 73.210938 C 37.246094 73.414062 38.503906 73.429688 39.792969 73.421875 C 40.1875 73.421875 40.578125 73.421875 40.96875 73.425781 C 42.253906 73.425781 43.480469 73.378906 44.742188 73.117188 C 45.167969 73.046875 45.558594 73.035156 45.984375 73.046875 C 46.070312 73.375 46.070312 73.375 46.152344 73.710938 C 44.824219 74.253906 43.601562 74.398438 42.167969 74.402344 C 42.046875 74.402344 41.925781 74.402344 41.800781 74.40625 C 41.40625 74.40625 41.015625 74.40625 40.621094 74.40625 C 40.488281 74.40625 40.355469 74.40625 40.21875 74.40625 C 34.835938 74.398438 34.835938 74.398438 33.703125 73.710938 C 33.757812 73.492188 33.8125 73.273438 33.867188 73.046875 Z M 33.867188 73.046875 "/>
<path style=" stroke:none;fill-rule:nonzero;fill:rgb(100%,71.764708%,19.607843%);fill-opacity:1;" d="M 69.226562 34.199219 C 69.503906 34.199219 69.777344 34.199219 70.058594 34.199219 C 70.226562 34.367188 70.226562 34.367188 70.242188 34.816406 C 70.234375 35.332031 70.230469 35.84375 70.226562 36.359375 C 70.882812 36.359375 71.539062 36.359375 72.21875 36.359375 C 72.273438 36.632812 72.328125 36.90625 72.382812 37.1875 C 72.21875 37.351562 72.21875 37.351562 71.765625 37.371094 C 71.25 37.363281 70.738281 37.359375 70.226562 37.351562 C 70.226562 38.011719 70.226562 38.667969 70.226562 39.34375 C 69.949219 39.402344 69.675781 39.457031 69.394531 39.511719 C 69.226562 39.34375 69.226562 39.34375 69.210938 38.894531 C 69.214844 38.710938 69.214844 38.527344 69.21875 38.339844 C 69.21875 38.15625 69.222656 37.972656 69.222656 37.785156 C 69.222656 37.640625 69.226562 37.5 69.226562 37.351562 C 69.085938 37.355469 68.945312 37.355469 68.796875 37.359375 C 68.613281 37.359375 68.433594 37.363281 68.242188 37.363281 C 68.058594 37.367188 67.875 37.367188 67.6875 37.371094 C 67.234375 37.351562 67.234375 37.351562 67.070312 37.1875 C 67.070312 36.914062 67.070312 36.640625 67.070312 36.359375 C 67.78125 36.359375 68.496094 36.359375 69.226562 36.359375 C 69.226562 35.644531 69.226562 34.933594 69.226562 34.199219 Z M 69.226562 34.199219 "/>
<path style=" stroke:none;fill-rule:nonzero;fill:rgb(98.039216%,99.607843%,99.215686%);fill-opacity:1;" d="M 75.539062 20.75 C 75.757812 20.75 75.976562 20.75 76.203125 20.75 C 76.296875 21.71875 75.828125 22.195312 75.261719 22.9375 C 73.617188 24.9375 71.691406 26.320312 69.125 26.851562 C 68.4375 26.902344 67.757812 26.910156 67.070312 26.894531 C 66.976562 26.574219 66.976562 26.574219 66.90625 26.230469 C 67.210938 25.921875 67.660156 25.96875 68.070312 25.90625 C 69.3125 25.726562 70.460938 25.550781 71.554688 24.902344 C 71.675781 24.832031 71.800781 24.757812 71.925781 24.683594 C 73.417969 23.753906 74.410156 22.632812 75.265625 21.105469 C 75.355469 20.988281 75.445312 20.871094 75.539062 20.75 Z M 75.539062 20.75 "/>
<path style=" stroke:none;fill-rule:nonzero;fill:rgb(100%,97.254902%,97.254902%);fill-opacity:1;" d="M 22.246094 41.007812 C 22.207031 41.316406 22.207031 41.316406 22.078125 41.671875 C 21.769531 41.859375 21.769531 41.859375 21.363281 42.023438 C 18.695312 43.28125 17.089844 45.695312 15.605469 48.144531 C 15.386719 48.089844 15.167969 48.035156 14.941406 47.976562 C 15.277344 45.6875 17.722656 43.34375 19.484375 41.984375 C 21.242188 40.730469 21.242188 40.730469 22.246094 41.007812 Z M 22.246094 41.007812 "/>
<path style=" stroke:none;fill-rule:nonzero;fill:rgb(94.901961%,94.901961%,94.901961%);fill-opacity:1;" d="M 36.359375 21.414062 C 37.777344 21.488281 39.101562 21.835938 40.464844 22.214844 C 40.675781 22.273438 40.886719 22.328125 41.105469 22.386719 C 42.515625 22.769531 43.917969 23.167969 45.320312 23.574219 C 45.320312 23.792969 45.320312 24.011719 45.320312 24.238281 C 44.457031 24.273438 43.707031 24.160156 42.882812 23.929688 C 42.761719 23.898438 42.644531 23.863281 42.523438 23.832031 C 42.144531 23.730469 41.765625 23.625 41.390625 23.523438 C 41.015625 23.421875 40.644531 23.320312 40.269531 23.21875 C 40.027344 23.152344 39.785156 23.085938 39.542969 23.019531 C 38.539062 22.75 37.535156 22.492188 36.523438 22.246094 C 36.46875 21.972656 36.414062 21.699219 36.359375 21.414062 Z M 36.359375 21.414062 "/>
<path style=" stroke:none;fill-rule:nonzero;fill:rgb(100%,97.647059%,97.647059%);fill-opacity:1;" d="M 14.773438 60.59375 C 15.5 60.847656 15.8125 61.398438 16.21875 62.007812 C 17.441406 63.777344 18.882812 65.707031 20.917969 66.570312 C 20.863281 66.847656 20.808594 67.121094 20.75 67.402344 C 18.199219 66.765625 16.246094 63.925781 14.824219 61.878906 C 14.578125 61.355469 14.597656 61.136719 14.773438 60.59375 Z M 14.773438 60.59375 "/>
<path style=" stroke:none;fill-rule:nonzero;fill:rgb(100%,96.078432%,96.078432%);fill-opacity:1;" d="M 21.914062 70.890625 C 22.234375 71.007812 22.234375 71.007812 22.578125 71.21875 C 22.699219 71.558594 22.699219 71.558594 22.75 71.976562 C 22.773438 72.125 22.792969 72.277344 22.8125 72.433594 C 22.832031 72.589844 22.851562 72.75 22.867188 72.910156 C 22.890625 73.066406 22.910156 73.222656 22.929688 73.382812 C 23.039062 74.21875 23.097656 75.027344 23.078125 75.867188 C 22.855469 75.925781 22.636719 75.980469 22.414062 76.035156 C 21.578125 74.785156 21.636719 72.515625 21.75 71.054688 C 21.804688 71 21.859375 70.945312 21.914062 70.890625 Z M 21.914062 70.890625 "/>
<path style=" stroke:none;fill-rule:nonzero;fill:rgb(27.058825%,21.960784%,22.352941%);fill-opacity:1;" d="M 8.964844 52.960938 C 9.183594 53.070312 9.402344 53.179688 9.628906 53.289062 C 9.648438 54.578125 9.648438 54.578125 9.460938 54.953125 C 9.242188 54.953125 9.023438 54.953125 8.796875 54.953125 C 8.613281 54.582031 8.605469 54.363281 8.601562 53.953125 C 8.597656 53.839844 8.597656 53.722656 8.59375 53.601562 C 8.632812 53.289062 8.632812 53.289062 8.964844 52.960938 Z M 8.964844 52.960938 "/>
<path style=" stroke:none;fill-rule:nonzero;fill:rgb(26.666668%,21.960784%,21.960784%);fill-opacity:1;" d="M 7.46875 52.960938 C 7.691406 53.070312 7.910156 53.179688 8.132812 53.289062 C 8.132812 53.785156 8.132812 54.277344 8.132812 54.785156 C 7.914062 54.839844 7.695312 54.894531 7.46875 54.953125 C 7.085938 54.375 7.082031 54.132812 7.140625 53.457031 C 7.25 53.292969 7.359375 53.128906 7.46875 52.960938 Z M 7.46875 52.960938 "/>
<path style=" stroke:none;fill-rule:nonzero;fill:rgb(100%,93.725491%,94.117647%);fill-opacity:1;" d="M 30.046875 71.71875 C 30.328125 71.765625 30.605469 71.820312 30.878906 71.882812 C 30.941406 72.160156 30.996094 72.4375 31.046875 72.714844 C 30.878906 72.882812 30.878906 72.882812 30.464844 72.902344 C 30.046875 72.882812 30.046875 72.882812 29.882812 72.714844 C 29.863281 72.300781 29.863281 72.300781 29.882812 71.882812 C 29.9375 71.828125 29.992188 71.773438 30.046875 71.71875 Z M 30.046875 71.71875 "/>
<path style=" stroke:none;fill-rule:nonzero;fill:rgb(100%,94.509804%,94.901961%);fill-opacity:1;" d="M 22.246094 68.234375 C 22.519531 68.289062 22.792969 68.34375 23.078125 68.398438 C 23.132812 68.671875 23.1875 68.945312 23.242188 69.226562 C 22.847656 69.332031 22.847656 69.332031 22.414062 69.394531 C 22.300781 69.285156 22.191406 69.175781 22.078125 69.0625 C 22.140625 68.625 22.140625 68.625 22.246094 68.234375 Z M 22.246094 68.234375 "/>
<path style=" stroke:none;fill-rule:nonzero;fill:rgb(95.686275%,98.823529%,98.823529%);fill-opacity:1;" d="M 64.082031 25.734375 C 64.355469 25.789062 64.628906 25.84375 64.914062 25.898438 C 64.96875 26.171875 65.023438 26.445312 65.078125 26.726562 C 64.683594 26.832031 64.683594 26.832031 64.25 26.894531 C 64.136719 26.785156 64.027344 26.675781 63.914062 26.5625 C 63.976562 26.125 63.976562 26.125 64.082031 25.734375 Z M 64.082031 25.734375 "/>
<path style=" stroke:none;fill-rule:nonzero;fill:rgb(100%,95.294118%,95.294118%);fill-opacity:1;" d="M 44.992188 35.359375 C 45.269531 35.410156 45.546875 35.464844 45.820312 35.527344 C 45.925781 35.839844 45.925781 35.839844 45.984375 36.191406 C 45.875 36.300781 45.765625 36.410156 45.65625 36.523438 C 45.21875 36.460938 45.21875 36.460938 44.824219 36.359375 C 44.816406 36.082031 44.816406 35.804688 44.824219 35.527344 C 44.878906 35.472656 44.933594 35.417969 44.992188 35.359375 Z M 44.992188 35.359375 "/>
<path style=" stroke:none;fill-rule:nonzero;fill:rgb(100%,97.647059%,92.941177%);fill-opacity:1;" d="M 63.75 77.363281 C 64.09375 77.4375 64.09375 77.4375 64.414062 77.53125 C 64.46875 77.804688 64.523438 78.078125 64.578125 78.359375 C 64.1875 78.464844 64.1875 78.464844 63.75 78.523438 C 63.640625 78.414062 63.53125 78.304688 63.417969 78.195312 C 63.507812 77.605469 63.507812 77.605469 63.75 77.363281 Z M 63.75 77.363281 "/>
<path style=" stroke:none;fill-rule:nonzero;fill:rgb(100%,95.686275%,96.078432%);fill-opacity:1;" d="M 48.3125 71.882812 C 48.652344 71.957031 48.652344 71.957031 48.976562 72.050781 C 49.03125 72.324219 49.085938 72.597656 49.140625 72.882812 C 48.746094 72.984375 48.746094 72.984375 48.3125 73.046875 C 48.199219 72.9375 48.089844 72.828125 47.976562 72.714844 C 48.066406 72.128906 48.066406 72.128906 48.3125 71.882812 Z M 48.3125 71.882812 "/>
<path style=" stroke:none;fill-rule:nonzero;fill:rgb(100%,96.078432%,96.078432%);fill-opacity:1;" d="M 13.613281 49.472656 C 13.890625 49.519531 14.167969 49.574219 14.445312 49.640625 C 14.546875 49.949219 14.546875 49.949219 14.609375 50.304688 C 14.5 50.414062 14.390625 50.523438 14.277344 50.632812 C 13.925781 50.574219 13.925781 50.574219 13.613281 50.46875 C 13.550781 50.195312 13.496094 49.917969 13.445312 49.640625 C 13.503906 49.582031 13.558594 49.527344 13.613281 49.472656 Z M 13.613281 49.472656 "/>
<path style=" stroke:none;fill-rule:nonzero;fill:rgb(93.333334%,92.941177%,92.941177%);fill-opacity:1;" d="M 46.984375 24.238281 C 47.261719 24.285156 47.539062 24.339844 47.8125 24.40625 C 47.917969 24.714844 47.917969 24.714844 47.976562 25.070312 C 47.867188 25.179688 47.757812 25.289062 47.648438 25.398438 C 47.292969 25.339844 47.292969 25.339844 46.984375 25.234375 C 46.917969 24.960938 46.863281 24.683594 46.816406 24.40625 C 46.871094 24.347656 46.925781 24.292969 46.984375 24.238281 Z M 46.984375 24.238281 "/>
<path style=" stroke:none;fill-rule:nonzero;fill:rgb(92.941177%,92.54902%,92.54902%);fill-opacity:1;" d="M 29.71875 21.085938 C 30.058594 21.15625 30.058594 21.15625 30.382812 21.25 C 30.4375 21.523438 30.492188 21.796875 30.546875 22.078125 C 30.152344 22.183594 30.152344 22.183594 29.71875 22.246094 C 29.605469 22.136719 29.496094 22.027344 29.382812 21.914062 C 29.472656 21.328125 29.472656 21.328125 29.71875 21.085938 Z M 29.71875 21.085938 "/>
<path style=" stroke:none;fill-rule:nonzero;fill:rgb(96.470588%,99.215686%,98.823529%);fill-opacity:1;" d="M 76.367188 17.929688 C 76.71875 17.992188 76.71875 17.992188 77.03125 18.09375 C 77.09375 18.371094 77.148438 18.648438 77.195312 18.925781 C 77.03125 19.09375 77.03125 19.09375 76.605469 19.101562 C 76.40625 19.097656 76.40625 19.097656 76.203125 19.09375 C 76.097656 18.699219 76.097656 18.699219 76.035156 18.261719 C 76.144531 18.152344 76.253906 18.042969 76.367188 17.929688 Z M 76.367188 17.929688 "/>
<path style=" stroke:none;fill-rule:nonzero;fill:rgb(100%,96.078432%,96.470588%);fill-opacity:1;" d="M 23.742188 39.511719 C 24.019531 39.558594 24.296875 39.613281 24.570312 39.679688 C 24.570312 39.953125 24.570312 40.226562 24.570312 40.507812 C 24.296875 40.570312 24.019531 40.625 23.742188 40.671875 C 23.574219 40.507812 23.574219 40.507812 23.554688 40.09375 C 23.574219 39.679688 23.574219 39.679688 23.742188 39.511719 Z M 23.742188 39.511719 "/>
<path style=" stroke:none;fill-rule:nonzero;fill:rgb(96.862745%,99.215686%,99.215686%);fill-opacity:1;" d="M 56.609375 15.605469 C 56.890625 15.652344 57.167969 15.707031 57.441406 15.773438 C 57.441406 16.101562 57.441406 16.429688 57.441406 16.765625 C 57.164062 16.773438 56.886719 16.773438 56.609375 16.765625 C 56.445312 16.601562 56.445312 16.601562 56.425781 16.1875 C 56.445312 15.773438 56.445312 15.773438 56.609375 15.605469 Z M 56.609375 15.605469 "/>
<path style=" stroke:none;fill-rule:nonzero;fill:rgb(100%,97.647059%,94.117647%);fill-opacity:1;" d="M 76.035156 63.914062 C 76.648438 64.03125 76.648438 64.03125 76.867188 64.25 C 76.871094 64.523438 76.871094 64.800781 76.867188 65.078125 C 76.589844 65.085938 76.3125 65.085938 76.035156 65.078125 C 75.867188 64.914062 75.867188 64.914062 75.847656 64.496094 C 75.867188 64.082031 75.867188 64.082031 76.035156 63.914062 Z M 76.035156 63.914062 "/>
<path style=" stroke:none;fill-rule:nonzero;fill:rgb(100%,98.431373%,95.294118%);fill-opacity:1;" d="M 67.402344 54.289062 C 67.746094 54.359375 67.746094 54.359375 68.066406 54.453125 C 68.121094 54.726562 68.175781 55 68.234375 55.28125 C 67.957031 55.347656 67.679688 55.402344 67.402344 55.449219 C 67.234375 55.28125 67.234375 55.28125 67.214844 54.867188 C 67.234375 54.453125 67.234375 54.453125 67.402344 54.289062 Z M 67.402344 54.289062 "/>
<path style=" stroke:none;fill-rule:nonzero;fill:rgb(95.686275%,95.686275%,95.686275%);fill-opacity:1;" d="M 12.78125 33.867188 C 13.058594 33.921875 13.332031 33.976562 13.613281 34.03125 C 13.613281 34.308594 13.613281 34.582031 13.613281 34.863281 C 13.300781 34.96875 13.300781 34.96875 12.949219 35.03125 C 12.839844 34.917969 12.730469 34.808594 12.617188 34.695312 C 12.679688 34.261719 12.679688 34.261719 12.78125 33.867188 Z M 12.78125 33.867188 "/>
<path style=" stroke:none;fill-rule:nonzero;fill:rgb(98.039216%,99.607843%,99.215686%);fill-opacity:1;" d="M 69.394531 7.304688 C 69.667969 7.359375 69.941406 7.414062 70.226562 7.46875 C 70.226562 7.746094 70.226562 8.019531 70.226562 8.300781 C 69.914062 8.40625 69.914062 8.40625 69.5625 8.46875 C 69.449219 8.355469 69.339844 8.246094 69.226562 8.132812 C 69.289062 7.699219 69.289062 7.699219 69.394531 7.304688 Z M 69.394531 7.304688 "/>
<path style=" stroke:none;fill-rule:nonzero;fill:rgb(100%,98.823529%,96.862745%);fill-opacity:1;" d="M 52.792969 66.074219 C 53.070312 66.066406 53.347656 66.066406 53.625 66.074219 C 53.789062 66.242188 53.789062 66.242188 53.800781 66.664062 C 53.796875 66.800781 53.792969 66.933594 53.789062 67.070312 C 53.511719 67.078125 53.234375 67.078125 52.960938 67.070312 C 52.792969 66.90625 52.792969 66.90625 52.78125 66.480469 C 52.785156 66.34375 52.789062 66.210938 52.792969 66.074219 Z M 52.792969 66.074219 "/>
<path style=" stroke:none;fill-rule:nonzero;fill:rgb(100%,98.039216%,98.039216%);fill-opacity:1;" d="M 65.742188 49.96875 C 66.019531 49.964844 66.296875 49.964844 66.570312 49.96875 C 66.738281 50.136719 66.738281 50.136719 66.75 50.5625 C 66.746094 50.695312 66.742188 50.828125 66.738281 50.96875 C 66.460938 50.972656 66.183594 50.972656 65.90625 50.96875 C 65.742188 50.800781 65.742188 50.800781 65.730469 50.375 C 65.734375 50.242188 65.738281 50.109375 65.742188 49.96875 Z M 65.742188 49.96875 "/>
<path style=" stroke:none;fill-rule:nonzero;fill:rgb(100%,98.823529%,98.823529%);fill-opacity:1;" d="M 13.78125 58.105469 C 14.054688 58.105469 14.328125 58.105469 14.609375 58.105469 C 14.664062 58.378906 14.71875 58.652344 14.773438 58.9375 C 14.5 59 14.222656 59.054688 13.945312 59.101562 C 13.78125 58.9375 13.78125 58.9375 13.769531 58.511719 C 13.773438 58.375 13.777344 58.242188 13.78125 58.105469 Z M 13.78125 58.105469 "/>
</g>
</svg>
