
<svg width="183.421875px" height="258px" viewBox="0 0 183.421875 258" version="1.1" xmlns="http://www.w3.org/2000/svg" xmlns:xlink="http://www.w3.org/1999/xlink">
    <g id="Splash-Screens" stroke="none" stroke-width="1" fill="none" fill-rule="evenodd">
        <g id="Reslocate-Splash-Screen-2" transform="translate(-103, -308)" fill-rule="nonzero">
            <g id="Student-2" transform="translate(194.7109, 437) scale(1, -1) translate(-194.7109, -437)translate(103, 308)">
                <path d="M3.08009738,126.81843 C2.55752272,126.81843 2.13262556,127.242597 2.13262556,127.764275 L2.13262556,252.658088 C2.13262556,253.18139 2.55752272,253.603933 3.08009738,253.603933 C3.6043,253.603933 4.02756919,253.18139 4.02756919,252.658088 L4.02756919,127.764275 C4.02756919,127.242597 3.6043,126.81843 3.08009738,126.81843" id="path72" fill="#172C4B"></path>
                <polyline id="path74" fill="#172C4B" points="3.08009738 258 0 250.472243 3.08009738 252.258297 6.16019475 250.472243 3.08009738 258"></polyline>
                <path d="M33.8013012,127.855284 L32.9889499,127.855284 C32.8896445,127.855284 32.8098745,127.936542 32.8098745,128.034052 C32.8098745,128.133187 32.8896445,128.21282 32.9889499,128.21282 L33.6222258,128.21282 L33.6222258,128.845009 C33.6222258,128.944144 33.7019957,129.023777 33.8013012,129.023777 C33.9006066,129.023777 33.9803766,128.944144 33.9803766,128.845009 L33.9803766,128.034052 C33.9803766,127.936542 33.9006066,127.855284 33.8013012,127.855284" id="path118" fill="#172C4B"></path>
                <path d="M24.8686932,127.855284 L23.2456186,127.855284 C23.1463132,127.855284 23.0665432,128.084332 23.0665432,128.35919 C23.0665432,128.638629 23.1463132,128.863097 23.2456186,128.863097 L24.8686932,128.863097 C24.9679987,128.863097 25.0477686,128.638629 25.0477686,128.35919 C25.0477686,128.084332 24.9679987,127.855284 24.8686932,127.855284 Z M28.1164703,127.855284 L26.4933957,127.855284 C26.3940903,127.855284 26.3143203,128.084332 26.3143203,128.35919 C26.3143203,128.638629 26.3940903,128.863097 26.4933957,128.863097 L28.1164703,128.863097 C28.2157758,128.863097 28.2955457,128.638629 28.2955457,128.35919 C28.2955457,128.084332 28.2157758,127.855284 28.1164703,127.855284 Z M31.3642474,127.855284 L29.7411728,127.855284 C29.6418674,127.855284 29.5620974,128.084332 29.5620974,128.35919 C29.5620974,128.638629 29.6418674,128.863097 29.7411728,128.863097 L31.3642474,128.863097 C31.4635529,128.863097 31.5433228,128.638629 31.5433228,128.35919 C31.5433228,128.084332 31.4635529,127.855284 31.3642474,127.855284" id="path120" fill="#172C4B"></path>
                <path d="M21.6209161,127.855284 L20.8085648,127.855284 C20.7108873,127.855284 20.6294894,127.936542 20.6294894,128.034052 L20.6294894,128.845009 C20.6294894,128.944144 20.7108873,129.023777 20.8085648,129.023777 C20.9078703,129.023777 20.9876403,128.944144 20.9876403,128.845009 L20.9876403,128.21282 L21.6209161,128.21282 C21.7202216,128.21282 21.7999915,128.133187 21.7999915,128.034052 C21.7999915,127.936542 21.7202216,127.855284 21.6209161,127.855284" id="path122" fill="#172C4B"></path>
                <path d="M21.134182,165.953991 C20.8588951,165.953991 20.6294894,166.033624 20.6294894,166.132759 L20.6294894,167.753047 C20.6294894,167.852182 20.8588951,167.931815 21.134182,167.931815 C21.4140569,167.931815 21.6388745,167.852182 21.6388745,167.753047 L21.6388745,166.132759 C21.6388745,166.033624 21.4140569,165.953991 21.134182,165.953991 Z M21.134182,162.71179 C20.8588951,162.71179 20.6294894,162.791423 20.6294894,162.890558 L20.6294894,164.510846 C20.6294894,164.609981 20.8588951,164.689614 21.134182,164.689614 C21.4140569,164.689614 21.6388745,164.609981 21.6388745,164.510846 L21.6388745,162.890558 C21.6388745,162.791423 21.4140569,162.71179 21.134182,162.71179 Z M21.134182,159.469589 C20.8588951,159.469589 20.6294894,159.549222 20.6294894,159.648357 L20.6294894,161.268645 C20.6294894,161.36778 20.8588951,161.447413 21.134182,161.447413 C21.4140569,161.447413 21.6388745,161.36778 21.6388745,161.268645 L21.6388745,159.648357 C21.6388745,159.549222 21.4140569,159.469589 21.134182,159.469589 Z M21.134182,156.227388 C20.8588951,156.227388 20.6294894,156.307021 20.6294894,156.406156 L20.6294894,158.026444 C20.6294894,158.125579 20.8588951,158.205212 21.134182,158.205212 C21.4140569,158.205212 21.6388745,158.125579 21.6388745,158.026444 L21.6388745,156.406156 C21.6388745,156.307021 21.4140569,156.227388 21.134182,156.227388 Z M21.134182,152.983562 C20.8588951,152.983562 20.6294894,153.06482 20.6294894,153.16233 L20.6294894,154.784243 C20.6294894,154.883378 20.8588951,154.963011 21.134182,154.963011 C21.4140569,154.963011 21.6388745,154.883378 21.6388745,154.784243 L21.6388745,153.16233 C21.6388745,153.06482 21.4140569,152.983562 21.134182,152.983562 Z M21.134182,149.741361 C20.8588951,149.741361 20.6294894,149.822619 20.6294894,149.920129 L20.6294894,151.542042 C20.6294894,151.641177 20.8588951,151.72081 21.134182,151.72081 C21.4140569,151.72081 21.6388745,151.641177 21.6388745,151.542042 L21.6388745,149.920129 C21.6388745,149.822619 21.4140569,149.741361 21.134182,149.741361 Z M21.134182,146.499159 C20.8588951,146.499159 20.6294894,146.578792 20.6294894,146.677927 L20.6294894,148.299841 C20.6294894,148.39735 20.8588951,148.478609 21.134182,148.478609 C21.4140569,148.478609 21.6388745,148.39735 21.6388745,148.299841 L21.6388745,146.677927 C21.6388745,146.578792 21.4140569,146.499159 21.134182,146.499159 Z M21.134182,143.256958 C20.8588951,143.256958 20.6294894,143.336591 20.6294894,143.435726 L20.6294894,145.057639 C20.6294894,145.155149 20.8588951,145.236407 21.134182,145.236407 C21.4140569,145.236407 21.6388745,145.155149 21.6388745,145.057639 L21.6388745,143.435726 C21.6388745,143.336591 21.4140569,143.256958 21.134182,143.256958 Z M21.134182,140.014757 C20.8588951,140.014757 20.6294894,140.09439 20.6294894,140.193525 L20.6294894,141.815438 C20.6294894,141.912948 20.8588951,141.992581 21.134182,141.992581 C21.4140569,141.992581 21.6388745,141.912948 21.6388745,141.815438 L21.6388745,140.193525 C21.6388745,140.09439 21.4140569,140.014757 21.134182,140.014757 Z M21.134182,136.772556 C20.8588951,136.772556 20.6294894,136.852189 20.6294894,136.951324 L20.6294894,138.571612 C20.6294894,138.670747 20.8588951,138.75038 21.134182,138.75038 C21.4140569,138.75038 21.6388745,138.670747 21.6388745,138.571612 L21.6388745,136.951324 C21.6388745,136.852189 21.4140569,136.772556 21.134182,136.772556 Z M21.134182,133.530355 C20.8588951,133.530355 20.6294894,133.609988 20.6294894,133.709123 L20.6294894,135.329411 C20.6294894,135.428546 20.8588951,135.508179 21.134182,135.508179 C21.4140569,135.508179 21.6388745,135.428546 21.6388745,135.329411 L21.6388745,133.709123 C21.6388745,133.609988 21.4140569,133.530355 21.134182,133.530355 Z M21.134182,130.288154 C20.8588951,130.288154 20.6294894,130.367787 20.6294894,130.466922 L20.6294894,132.08721 C20.6294894,132.186345 20.8588951,132.265978 21.134182,132.265978 C21.4140569,132.265978 21.6388745,132.186345 21.6388745,132.08721 L21.6388745,130.466922 C21.6388745,130.367787 21.4140569,130.288154 21.134182,130.288154" id="path124" fill="#172C4B"></path>
                <path d="M20.8085648,169.196192 C20.7108873,169.196192 20.6294894,169.275825 20.6294894,169.37496 L20.6294894,170.185917 C20.6294894,170.283427 20.7108873,170.364685 20.8085648,170.364685 L21.6209161,170.364685 C21.7202216,170.364685 21.7999915,170.283427 21.7999915,170.185917 C21.7999915,170.086782 21.7202216,170.007149 21.6209161,170.007149 L20.9876403,170.007149 L20.9876403,169.37496 C20.9876403,169.275825 20.9078703,169.196192 20.8085648,169.196192" id="path126" fill="#172C4B"></path>
                <path d="M24.8686932,170.007149 L23.2456186,170.007149 C23.1463132,170.007149 23.0665432,170.231616 23.0665432,170.511055 C23.0665432,170.785913 23.1463132,171.014962 23.2456186,171.014962 L24.8686932,171.014962 C24.9679987,171.014962 25.0477686,170.785913 25.0477686,170.511055 C25.0477686,170.231616 24.9679987,170.007149 24.8686932,170.007149 Z M28.1164703,170.007149 L26.4933957,170.007149 C26.3940903,170.007149 26.3143203,170.231616 26.3143203,170.511055 C26.3143203,170.785913 26.3940903,171.014962 26.4933957,171.014962 L28.1164703,171.014962 C28.2157758,171.014962 28.2955457,170.785913 28.2955457,170.511055 C28.2955457,170.231616 28.2157758,170.007149 28.1164703,170.007149 Z M31.3642474,170.007149 L29.7411728,170.007149 C29.6418674,170.007149 29.5620974,170.231616 29.5620974,170.511055 C29.5620974,170.785913 29.6418674,171.014962 29.7411728,171.014962 L31.3642474,171.014962 C31.4635529,171.014962 31.5433228,170.785913 31.5433228,170.511055 C31.5433228,170.231616 31.4635529,170.007149 31.3642474,170.007149" id="path128" fill="#172C4B"></path>
                <path d="M33.8013012,169.196192 C33.7019957,169.196192 33.6222258,169.275825 33.6222258,169.37496 L33.6222258,170.007149 L32.9889499,170.007149 C32.8896445,170.007149 32.8098745,170.086782 32.8098745,170.185917 C32.8098745,170.283427 32.8896445,170.364685 32.9889499,170.364685 L33.8013012,170.364685 C33.9006066,170.364685 33.9803766,170.283427 33.9803766,170.185917 L33.9803766,169.37496 C33.9803766,169.275825 33.9006066,169.196192 33.8013012,169.196192" id="path130" fill="#172C4B"></path>
                <path d="M34.1269183,165.953991 C33.8470433,165.953991 33.6222258,166.033624 33.6222258,166.132759 L33.6222258,167.753047 C33.6222258,167.852182 33.8470433,167.931815 34.1269183,167.931815 C34.4067933,167.931815 34.6316109,167.852182 34.6316109,167.753047 L34.6316109,166.132759 C34.6316109,166.033624 34.4067933,165.953991 34.1269183,165.953991 Z M34.1269183,162.71179 C33.8470433,162.71179 33.6222258,162.791423 33.6222258,162.890558 L33.6222258,164.510846 C33.6222258,164.609981 33.8470433,164.689614 34.1269183,164.689614 C34.4067933,164.689614 34.6316109,164.609981 34.6316109,164.510846 L34.6316109,162.890558 C34.6316109,162.791423 34.4067933,162.71179 34.1269183,162.71179 Z M34.1269183,159.469589 C33.8470433,159.469589 33.6222258,159.549222 33.6222258,159.648357 L33.6222258,161.268645 C33.6222258,161.36778 33.8470433,161.447413 34.1269183,161.447413 C34.4067933,161.447413 34.6316109,161.36778 34.6316109,161.268645 L34.6316109,159.648357 C34.6316109,159.549222 34.4067933,159.469589 34.1269183,159.469589 Z M34.1269183,156.227388 C33.8470433,156.227388 33.6222258,156.307021 33.6222258,156.406156 L33.6222258,158.026444 C33.6222258,158.125579 33.8470433,158.205212 34.1269183,158.205212 C34.4067933,158.205212 34.6316109,158.125579 34.6316109,158.026444 L34.6316109,156.406156 C34.6316109,156.307021 34.4067933,156.227388 34.1269183,156.227388 Z M34.1269183,152.983562 C33.8470433,152.983562 33.6222258,153.06482 33.6222258,153.16233 L33.6222258,154.784243 C33.6222258,154.883378 33.8470433,154.963011 34.1269183,154.963011 C34.4067933,154.963011 34.6316109,154.883378 34.6316109,154.784243 L34.6316109,153.16233 C34.6316109,153.06482 34.4067933,152.983562 34.1269183,152.983562 Z M34.1269183,149.741361 C33.8470433,149.741361 33.6222258,149.822619 33.6222258,149.920129 L33.6222258,151.542042 C33.6222258,151.641177 33.8470433,151.72081 34.1269183,151.72081 C34.4067933,151.72081 34.6316109,151.641177 34.6316109,151.542042 L34.6316109,149.920129 C34.6316109,149.822619 34.4067933,149.741361 34.1269183,149.741361 Z M34.1269183,146.499159 C33.8470433,146.499159 33.6222258,146.578792 33.6222258,146.677927 L33.6222258,148.299841 C33.6222258,148.39735 33.8470433,148.478609 34.1269183,148.478609 C34.4067933,148.478609 34.6316109,148.39735 34.6316109,148.299841 L34.6316109,146.677927 C34.6316109,146.578792 34.4067933,146.499159 34.1269183,146.499159 Z M34.1269183,143.256958 C33.8470433,143.256958 33.6222258,143.336591 33.6222258,143.435726 L33.6222258,145.057639 C33.6222258,145.155149 33.8470433,145.236407 34.1269183,145.236407 C34.4067933,145.236407 34.6316109,145.155149 34.6316109,145.057639 L34.6316109,143.435726 C34.6316109,143.336591 34.4067933,143.256958 34.1269183,143.256958 Z M34.1269183,140.014757 C33.8470433,140.014757 33.6222258,140.09439 33.6222258,140.193525 L33.6222258,141.815438 C33.6222258,141.912948 33.8470433,141.992581 34.1269183,141.992581 C34.4067933,141.992581 34.6316109,141.912948 34.6316109,141.815438 L34.6316109,140.193525 C34.6316109,140.09439 34.4067933,140.014757 34.1269183,140.014757 Z M34.1269183,136.772556 C33.8470433,136.772556 33.6222258,136.852189 33.6222258,136.951324 L33.6222258,138.571612 C33.6222258,138.670747 33.8470433,138.75038 34.1269183,138.75038 C34.4067933,138.75038 34.6316109,138.670747 34.6316109,138.571612 L34.6316109,136.951324 C34.6316109,136.852189 34.4067933,136.772556 34.1269183,136.772556 Z M34.1269183,133.530355 C33.8470433,133.530355 33.6222258,133.609988 33.6222258,133.709123 L33.6222258,135.329411 C33.6222258,135.428546 33.8470433,135.508179 34.1269183,135.508179 C34.4067933,135.508179 34.6316109,135.428546 34.6316109,135.329411 L34.6316109,133.709123 C34.6316109,133.609988 34.4067933,133.530355 34.1269183,133.530355 Z M34.1269183,130.288154 C33.8470433,130.288154 33.6222258,130.367787 33.6222258,130.466922 L33.6222258,132.08721 C33.6222258,132.186345 33.8470433,132.265978 34.1269183,132.265978 C34.4067933,132.265978 34.6316109,132.186345 34.6316109,132.08721 L34.6316109,130.466922 C34.6316109,130.367787 34.4067933,130.288154 34.1269183,130.288154" id="path132" fill="#172C4B"></path>
                <path d="M88.2695348,152.330246 C88.4095392,152.125475 88.5821028,151.917454 88.7904815,151.707808 C90.4868142,150.006262 93.4936535,149.213182 95.6718619,148.353471 C98.3010147,147.316617 100.964355,146.370772 103.668394,145.548439 C109.042285,143.916775 114.578971,142.77266 120.188916,142.410248 C121.128248,142.348492 122.074092,142.311113 123.003656,142.450877 C124.063457,142.611768 125.074419,142.998557 126.098405,143.321965 C129.025474,144.243433 135.048921,143.729881 133.157233,148.598871 C131.473924,152.933182 127.586359,156.019367 123.378087,157.628279 C119.169814,159.237191 114.621298,159.554098 110.141157,159.739366 C104.812849,159.958763 99.4129104,160.002643 94.2278627,158.700887 C91.7566218,158.080074 86.1531888,155.460311 88.2695348,152.330246" id="path458" fill="#172C4B"></path>
                <path d="M62.1066147,186.166149 C68.7096141,185.165049 75.6414612,185.884996 81.6876988,188.719281 C88.5397759,191.932229 94.0146002,197.683683 101.044125,200.493591 C103.209309,201.358178 105.913348,201.845727 107.691079,200.337575 C108.661342,199.511992 109.136706,198.250865 109.450902,197.015741 C110.076038,194.558494 110.214415,192.003737 110.214415,189.468482 C110.214415,186.496058 109.979989,183.365993 108.340634,180.885993 C106.922683,178.740778 104.633773,177.356138 102.41975,176.043006 C100.515038,174.911892 98.605443,173.779153 96.6128218,172.810556 C88.7514105,168.991422 79.7276369,167.847307 71.0441065,168.859784 C62.3605762,169.87226 54.0058934,172.973072 46.3740242,177.229376 C45.0439822,177.972075 43.7269638,178.753779 42.5711133,179.745129 C39.2956609,182.558287 36.2871937,189.120697 38.8496003,193.264863 C40.467791,195.881377 42.6834425,193.979935 44.6109453,192.801692 C47.1212572,191.265912 49.7504101,189.921902 52.4837523,188.826542 C55.5785013,187.586542 58.8067429,186.6667 62.1066147,186.166149" id="path460" fill="#172C4B"></path>
                <path d="M120.071703,53.044134 C119.578432,53.9526004 116.511358,54.7310537 112.159825,55.1503459 C109.952313,55.3632423 107.414326,55.4851296 104.715171,55.4851296 C101.501581,55.4851296 98.5175332,55.3144874 96.0479203,55.0170825 C92.4566439,54.5912897 89.9512159,53.9054707 89.4009659,53.1140161 C83.4751972,69.9848381 72.3090302,103.859745 74.943067,113.849625 C78.2608463,126.444642 85.715268,142.068964 90.7554274,151.904453 L90.963806,152.310744 C91.5856862,153.521491 92.1684953,154.637978 92.6975818,155.643954 C98.2668276,155.793469 105.701714,155.164531 112.872871,153.91153 C113.14474,152.738162 113.255441,151.52579 113.221254,150.305292 C113.164275,148.252711 112.697051,146.185503 111.887956,144.246683 C110.888389,141.854442 109.734167,139.441074 108.513198,137.017956 C108.102953,136.203749 107.686195,135.389542 107.264554,134.572085 C104.599586,129.415441 101.775078,124.236045 99.6522203,119.150909 C99.193136,118.050673 98.3433417,112.128577 98.2196168,111.010465 C98.2147329,110.96821 98.211477,110.922706 98.211477,110.870701 L98.211477,110.869075 C98.2163609,106.224358 116.959046,64.5974212 120.071703,53.044134" id="path462" fill="#B08A37"></path>
                <path d="M177.006294,41.4193397 C176.97699,41.4372165 176.946059,41.4550933 176.9135,41.471345 C176.766984,41.6549884 176.543953,41.8305061 176.249293,42.0011483 C175.104838,42.664215 172.890815,43.2297718 170.022352,43.6084349 C167.601578,43.9334676 164.713579,44.1236118 161.609063,44.1366131 C161.501617,44.1382382 161.392544,44.1382382 161.283471,44.1382382 C161.146723,44.1382382 161.011602,44.1382382 160.874853,44.1366131 C160.739733,44.1366131 160.604612,44.1349879 160.469492,44.1333627 C160.199251,44.1301124 159.930638,44.1268621 159.66528,44.1203614 C159.531788,44.1171111 159.399923,44.1154859 159.268058,44.1122356 C159.002701,44.105735 158.742228,44.0976091 158.480127,44.0878582 C158.424776,44.086233 158.367797,44.0846078 158.310819,44.0813575 C158.141511,44.0748568 157.972204,44.0683562 157.806152,44.0618555 C157.475676,44.0456039 157.146829,44.0293523 156.822865,44.0098503 C156.741467,44.0049748 156.658441,44.0000993 156.577043,43.9935987 C156.534716,43.9935987 156.494017,43.9903483 156.453318,43.987098 C156.323082,43.9789722 156.192845,43.9692212 156.064236,43.9610954 C155.881905,43.9480941 155.701202,43.9350928 155.523754,43.9204663 C155.028855,43.8830876 154.545351,43.8392081 154.074871,43.7904532 C153.985333,43.7807023 153.895796,43.7725764 153.80463,43.7628255 C153.444851,43.7254467 153.093212,43.6831925 152.751341,43.6376879 C152.534822,43.6100601 152.324816,43.5808072 152.118065,43.5531794 L152.116437,43.5531794 C152.012248,43.5369277 151.911314,43.5223013 151.810381,43.5076748 C151.724099,43.4946735 151.637817,43.4816722 151.551535,43.4670457 C150.338706,43.2785267 149.265882,43.052629 148.375389,42.8007287 C148.313526,42.7828519 148.251664,42.7649751 148.191429,42.7487235 C148.178406,42.7454731 148.16701,42.7405976 148.153986,42.7373473 C146.162993,42.1685401 144.901325,41.4745953 145.060865,40.8099034 C145.093424,40.67664 145.187846,40.5417515 145.337618,40.4101132 C145.290407,40.4166139 145.222033,40.4718694 145.127611,40.5905064 C141.503776,45.1295879 130.130858,68.8846024 125.284426,82.3702089 C122.093627,91.2501021 118.647239,99.2085276 115.467837,107.491986 C112.290062,115.777069 109.3809,124.38881 107.264554,134.572085 C106.571044,137.905295 105.963815,141.405897 105.459148,145.121021 C105.431473,145.325791 105.392402,145.532187 105.350075,145.738583 C105.063554,147.118347 104.536096,148.511112 105.087974,149.775489 C105.39403,150.482435 105.924744,151.020364 106.544996,151.467284 C107.005709,151.800443 107.513632,152.083221 108.013415,152.338372 C109.546952,153.129826 111.124443,153.841648 112.72961,154.472211 C115.477604,155.546444 118.313508,156.378528 121.193366,156.931084 C121.421281,156.976588 121.642683,157.026968 121.85269,157.091975 C122.648761,156.79457 123.439949,156.484164 124.226253,156.160756 C125.676764,155.564321 127.137043,154.907755 128.434526,154.033417 C128.997799,151.139001 129.736892,148.072318 130.578547,144.969881 C132.934203,136.275256 136.09407,127.312479 138.412283,121.144984 C145.658326,101.867295 171.481003,51.4449732 177.006294,41.4193397" id="path464" fill="#B08A37"></path>
                <path d="M107.264554,134.572085 C104.599586,129.415441 101.775078,124.236045 99.6522203,119.150909 C99.193136,118.050673 98.3433417,112.128577 98.2196168,111.010465 C98.2147329,110.96821 98.211477,110.922706 98.211477,110.870701 C97.2640052,113.721237 97.3567988,119.958615 97.6498314,122.714892 C98.2000813,127.894288 99.7319902,132.911168 101.584607,137.760655 C102.41975,139.953001 103.16861,143.274835 104.620749,145.112895 C104.882851,145.444428 105.125417,145.644323 105.350075,145.738583 C105.392402,145.532187 105.431473,145.325791 105.459148,145.121021 C105.709854,143.263459 105.989862,141.459528 106.291035,139.702726 C106.592207,137.949174 106.917799,136.239502 107.264554,134.572085" id="path466" fill="#172C4B"></path>
                <path d="M130.578547,144.969881 C129.097105,145.322541 127.693804,145.944979 126.282364,146.515411 C124.161135,147.371872 121.994322,148.117822 119.79495,148.74351 C119.039577,148.958032 118.279321,149.159552 117.517436,149.348071 C117.330221,149.395201 117.13975,149.44233 116.952535,149.48621 C115.715286,149.78524 114.469898,150.055017 113.221254,150.305292 C112.789845,150.393051 112.358436,150.479185 111.927027,150.560443 C110.141157,150.901727 108.345518,151.215384 106.544996,151.467284 C106.198241,151.517664 105.851486,151.563169 105.506359,151.607048 C102.816971,151.948333 100.112932,152.143352 97.4040096,152.193732 C96.0772235,152.219735 94.7504374,152.209984 93.4236512,152.164479 C92.8913088,152.146602 91.6182453,151.8687 90.7554274,151.904453 L90.963806,152.310744 L92.6666506,155.642329 C92.6780463,155.642329 92.687814,155.642329 92.6975818,155.643954 C98.2668276,155.793469 105.701714,155.164531 112.872871,153.91153 C113.577777,153.789643 114.279427,153.65963 114.976193,153.523116 C115.11457,153.497113 115.252946,153.471111 115.389695,153.441858 C120.511252,152.432631 125.429314,151.090246 129.429208,149.461832 C129.784103,147.982934 130.168301,146.479657 130.578547,144.969881" id="path468" fill="#93742C"></path>
                <path d="M129.399905,165.754096 C128.983148,168.017949 128.698255,170.054279 128.668952,171.536428 C128.63802,173.054331 128.589182,174.980149 128.519179,177.047357 C128.302661,183.572389 127.889159,191.49506 127.220069,192.345021 C124.735804,195.499463 120.214963,197.587798 117.165797,199.232464 C114.465014,200.686985 108.098069,202.339776 105.120533,202.068374 C102.688363,201.848977 98.0144941,188.863921 94.2734456,176.637816 C93.4594663,173.979049 92.689442,171.356035 91.9959317,168.906913 C89.8258631,161.234517 87.7713795,154.689983 88.0888314,154.813496 C89.0379312,155.185658 91.3219569,155.572447 92.8180507,155.613076 C103.062793,155.894229 119.23656,153.61575 129.430836,149.461832 C130.944837,148.84427 132.328602,148.186079 133.539803,147.488884 C133.889814,147.287364 130.843904,157.898056 129.399905,165.754096" id="path470" fill="#00E4BA"></path>
                <path d="M167.189704,43.2752764 C167.162029,43.2622751 167.134354,43.2541493 167.10505,43.2541493 C167.035048,43.2541493 166.968302,43.2915281 166.935743,43.3597849 C150.809186,75.4242602 134.135636,108.57922 126.191199,144.305189 C123.592977,144.474206 121.014291,145.56144 118.914225,147.376748 C118.176759,148.015437 117.519064,148.725633 116.952535,149.48621 C116.037622,150.721334 115.362019,152.091347 114.976193,153.523116 C115.11457,153.497113 115.252946,153.471111 115.389695,153.441858 C115.819476,151.946707 116.553685,150.558818 117.517436,149.348071 C119.648434,146.666551 122.889699,144.852869 126.353995,144.674101 C126.438648,144.670851 126.510279,144.610719 126.528186,144.526211 C134.45146,108.793742 151.138034,75.6144043 167.274358,43.5288019 C167.321569,43.4345424 167.282498,43.320781 167.189704,43.2752764" id="path472" fill="#172C4B"></path>
                <polyline id="path474" fill="#01B4AD" points="53.4247123 127.494498 40.702217 127.494498 40.702217 204.784022 53.4247123 204.784022 53.4247123 127.494498"></polyline>
                <polyline id="path476" fill="#01B4AD" points="70.7022352 127.494498 57.97974 127.494498 57.97974 193.692281 70.7022352 193.692281 70.7022352 127.494498"></polyline>
                <polyline id="path478" fill="#01B4AD" points="87.9781303 232.688079 87.9781303 127.494498 75.257263 127.494498 75.257263 232.688079 87.9781303 232.688079"></polyline>
                <path d="M121.649195,207.288399 C121.82827,207.533799 122.160374,207.957966 122.45015,208.406512 C121.615008,207.7922 120.734282,207.239644 119.834021,206.75372 C118.7905,206.189789 117.393711,205.75912 116.084833,205.599854 L114.823165,202.531546 C116.519498,203.006093 118.106757,203.849553 119.462847,204.969291 C120.284966,205.648609 121.022431,206.427062 121.649195,207.288399" id="path480" fill="#172C4B"></path>
                <path d="M127.592871,212.5198 C127.413796,212.849708 127.17937,213.043103 126.912384,213.137362 C126.967735,213.226746 127.01983,213.317756 127.073552,213.408765 C126.220502,214.374112 125.696299,215.570232 125.422802,216.823233 C125.320241,217.294531 125.253495,217.773954 125.216052,218.251752 C125.136282,219.311358 125.012557,220.315709 124.849761,221.323311 C124.761851,221.315185 124.672314,221.308684 124.57952,221.300559 C122.663413,221.147793 120.708235,221.76373 119.153534,222.873717 C118.959807,223.011856 118.770964,223.161371 118.590261,223.320637 C117.870703,222.794084 117.243939,222.144018 116.65299,221.474451 C114.595251,219.135841 112.579838,216.519328 111.507014,213.537153 C111.48585,213.473771 111.463059,213.41039 111.441895,213.347008 C110.523727,210.668739 110.1786,207.455791 113.14474,205.902135 C113.856158,205.529972 114.935494,205.46009 116.084833,205.599854 C117.393711,205.75912 118.7905,206.189789 119.834021,206.75372 C120.734282,207.239644 121.615008,207.7922 122.45015,208.406512 C122.160374,207.957966 121.82827,207.533799 121.649195,207.288399 C121.022431,206.427062 120.284966,205.648609 119.462847,204.969291 C118.106757,203.849553 116.519498,203.006093 114.823165,202.531546 L113.426377,199.134954 C113.191951,198.567772 113.104041,197.985963 113.138228,197.423657 C113.252185,195.509214 114.780838,193.846672 116.783227,193.903553 C118.298856,193.945807 119.70704,194.865649 120.143333,196.394928 C120.98336,199.3446 122.328053,204.236342 123.202267,207.319277 C123.467624,208.248871 123.687399,209.014323 123.840427,209.511623 C125.486293,209.079329 128.480108,210.886511 127.592871,212.5198" id="path482" fill="#F0A258"></path>
                <path d="M164.957773,183.276609 C164.93661,183.38387 164.915446,183.492756 164.895911,183.598391 C162.276526,197.693434 164.876375,221.450074 147.939096,227.289286 C147.538618,227.427425 147.128372,227.554188 146.705103,227.672824 C141.080507,229.237857 134.772168,227.962104 130.111323,224.476128 C129.425952,224.973428 128.636392,225.394345 127.731248,225.709627 C127.472402,225.800636 127.207045,225.878644 126.938432,225.9404 C126.515163,226.452327 125.828164,226.938251 124.743944,227.333165 C122.043161,228.313139 119.777043,226.312563 116.902068,226.33694 C116.960674,225.152196 117.680232,224.113716 118.590261,223.320637 C118.770964,223.161371 118.959807,223.011856 119.153534,222.873717 C120.708235,221.76373 122.663413,221.147793 124.57952,221.300559 C124.672314,221.308684 124.761851,221.315185 124.849761,221.323311 C125.012557,220.315709 125.136282,219.311358 125.216052,218.251752 C125.253495,217.773954 125.320241,217.294531 125.422802,216.823233 C125.696299,215.570232 126.220502,214.374112 127.073552,213.408765 C127.01983,213.317756 126.967735,213.226746 126.912384,213.137362 C127.17937,213.043103 127.413796,212.849708 127.592871,212.5198 C128.480108,210.886511 125.486293,209.079329 123.840427,209.511623 C123.687399,209.014323 123.467624,208.248871 123.202267,207.319277 C124.660918,207.173012 126.274225,207.69469 127.752411,208.572278 C128.955472,209.28735 130.068996,210.23482 130.936698,211.250548 C133.062811,213.735423 133.858883,216.949996 133.214212,219.77778 C136.066395,219.044832 138.68578,217.63419 140.282807,215.220822 C141.705643,213.072356 142.119144,210.390836 141.998675,207.816577 C141.876578,205.242318 141.26121,202.723315 140.777706,200.19131 C140.076056,196.513565 139.654415,192.722059 140.282807,189.031313 C141.560754,181.527933 147.248841,177.588537 154.621865,176.964474 C158.859441,176.605313 166.128275,177.284631 164.957773,183.276609" id="path484" fill="#172C4B"></path>
                <polyline id="path486" fill="#01B4AD" points="105.255653 127.494498 92.5347859 127.494498 92.5347859 246.516595 105.255653 246.516595 105.255653 127.494498"></polyline>
                <path d="M177.116995,40.9626688 C177.116995,40.0623282 175.251354,39.2497465 172.252655,38.6744386 C169.408612,38.1267585 165.54221,37.7887245 161.283471,37.7887245 C159.21108,37.7887245 157.229855,37.8667324 155.413053,38.0129971 C151.681772,38.3120272 146.591146,39.2968762 145.337618,40.4101132 C145.187846,40.5417515 145.093424,40.67664 145.060865,40.8099034 C144.901325,41.4745953 146.162993,42.1685401 148.153986,42.7373473 C148.16701,42.7405976 148.178406,42.7454731 148.191429,42.7487235 C148.251664,42.7649751 148.313526,42.7828519 148.375389,42.8007287 C149.309837,43.0542542 150.389173,43.2817771 151.551535,43.4670457 C151.637817,43.4816722 151.724099,43.4946735 151.810381,43.5076748 C151.911314,43.5223013 152.012248,43.5369277 152.116437,43.5531794 L152.118065,43.5531794 C152.324816,43.5808072 152.534822,43.6100601 152.751341,43.6376879 C153.093212,43.6831925 153.444851,43.7254467 153.80463,43.7628255 C153.895796,43.7725764 153.985333,43.7807023 154.074871,43.7904532 C154.545351,43.8392081 155.028855,43.8830876 155.523754,43.9204663 C155.701202,43.9350928 155.881905,43.9480941 156.064236,43.9610954 C156.192845,43.9692212 156.323082,43.9789722 156.453318,43.987098 C156.494017,43.9903483 156.534716,43.9935987 156.577043,43.9935987 C156.658441,44.0000993 156.741467,44.0049748 156.822865,44.0098503 C157.146829,44.0293523 157.475676,44.0456039 157.806152,44.0618555 C157.972204,44.0683562 158.141511,44.0748568 158.310819,44.0813575 C158.367797,44.0846078 158.424776,44.086233 158.480127,44.0878582 C158.742228,44.0976091 159.002701,44.105735 159.268058,44.1122356 C159.399923,44.1154859 159.531788,44.1171111 159.66528,44.1203614 C159.930638,44.1268621 160.199251,44.1301124 160.469492,44.1333627 C160.604612,44.1349879 160.739733,44.1366131 160.874853,44.1366131 C161.011602,44.1382382 161.146723,44.1382382 161.283471,44.1382382 C161.392544,44.1382382 161.501617,44.1382382 161.609063,44.1366131 C164.713579,44.1236118 167.601578,43.9334676 170.022352,43.6084349 C172.890815,43.2297718 175.104838,42.664215 176.249293,42.0011483 C176.543953,41.8305061 176.766984,41.6549884 176.9135,41.471345 C177.048621,41.3072035 177.116995,41.1349361 177.116995,40.9626688" id="path488" fill="#172C4B"></path>
                <path d="M152.751341,43.6539606 C152.534822,43.6210129 152.324816,43.5861271 152.118065,43.5531794 C152.243418,43.5744985 152.370399,43.5958176 152.497379,43.6151986 C152.580405,43.6287653 152.665059,43.6442701 152.751341,43.6539606" id="path490" fill="#172C4B"></path>
                <path d="M161.283471,44.1382382 C158.032438,44.1382382 155.010947,43.9415934 152.497379,43.6051846 L154.872571,39.7372955 C159.943661,40.1387109 165.027775,40.2670988 170.216079,39.6787897 C170.702839,39.6251593 171.178202,39.5552772 171.648682,39.4740191 L170.022352,43.6100601 C167.518552,43.9448438 164.513341,44.1382382 161.283471,44.1382382" id="path492" fill="#002081"></path>
                <path d="M86.2183072,216.182919 C82.8191299,215.20457 79.8595015,215.087559 79.5387937,215.908266 C79.5387937,215.909891 79.5387937,215.909891 79.5387937,215.909891 C79.5339098,215.922893 79.5290259,215.932644 79.527398,215.945645 C79.2783203,216.805356 81.8700302,218.307007 85.3196741,219.298357 C88.6455932,220.253953 91.553127,220.388842 91.9731403,219.621765 C91.9894199,219.595762 92.0024435,219.566509 92.0105833,219.535631 C92.259661,218.675919 89.6663232,217.174268 86.2183072,216.182919" id="path494" fill="#172C4B"></path>
                <path d="M89.3749186,227.009758 C89.3537551,228.857569 88.8230407,230.854895 87.3302028,231.94863 C87.1364757,232.090019 86.8401873,232.20378 86.6806474,232.025012 C86.6106452,231.943754 86.5959935,231.828367 86.5911097,231.719482 C86.5162236,230.014685 87.7827752,228.345642 87.2960157,226.709103 C86.8613508,227.380295 86.735998,228.201003 86.4266859,228.937202 C86.2101674,229.450753 85.9057392,229.920426 85.5899152,230.380347 C84.1231247,232.522312 82.4040005,234.49201 80.4781257,236.235811 C80.3055621,236.391826 80.115091,236.552718 79.8822929,236.577095 C79.4313484,236.6226 79.1041288,236.105798 79.1090126,235.652377 C78.4643411,236.026165 77.7398996,236.338196 77.0382495,236.590096 C76.7354492,236.698982 76.4163694,236.796492 76.0956616,236.755863 C75.7765817,236.713609 75.4591298,236.494212 75.4037792,236.177305 C75.3305211,235.754762 75.7163472,235.408603 76.0631024,235.155077 C76.4342769,234.88205 76.8054514,234.609022 77.1782539,234.335995 C76.6345158,234.114972 75.8498398,234.617148 75.5014567,234.145851 C75.2751705,233.84032 75.4998288,233.401526 75.7798376,233.143125 C76.0582185,232.884724 76.4147414,232.658826 76.509163,232.289914 C76.5693975,232.04939 76.5026512,231.797489 76.5026512,231.548839 C76.5059071,230.887398 76.978015,230.336467 77.3898885,229.81804 C78.8843544,227.934476 79.879037,225.708002 80.7467388,223.466901 C81.0495391,222.680322 81.3409437,221.885617 81.5281589,221.063285 C81.7218859,220.214949 81.8032839,219.343862 81.9823593,218.492276 C82.0670131,218.079485 82.1777143,217.673194 82.3014392,217.271778 C84.8850092,217.146641 87.4164846,218.115238 89.3570111,219.763154 C89.2463099,220.328711 89.161656,220.899143 89.125841,221.474451 C89.0135118,223.319012 89.39771,225.161947 89.3749186,227.009758" id="path496" fill="#F0A258"></path>
                <path d="M82.3014392,217.271778 C82.6319147,216.19917 83.0747194,215.159066 83.5175241,214.125462 C84.6652348,214.40824 85.8145735,214.691019 86.9639121,214.973797 C87.6118396,215.133063 88.2711628,215.297205 88.8376923,215.64824 C89.4058498,215.99765 90.1074999,216.759852 89.9333083,217.401791 C89.7233017,218.183495 89.5132951,218.968449 89.3570111,219.763154 C87.4164846,218.115238 84.8850092,217.146641 82.3014392,217.271778" id="path498" fill="#D17F49"></path>
                <path d="M117.733955,218.898567 C117.75349,218.58166 117.510924,218.308633 117.193472,218.290756 C116.876021,218.271254 116.602524,218.513403 116.582988,218.83031 C116.565081,219.147217 116.807646,219.420244 117.125098,219.438121 C117.44255,219.457623 117.716047,219.215474 117.733955,218.898567" id="path500" fill="#172C4B"></path>
                <path d="M122.362241,215.685619 C122.381776,215.368712 122.13921,215.095684 121.821758,215.077808 C121.504306,215.058306 121.230809,215.300455 121.212902,215.617362 C121.193366,215.934269 121.435932,216.207296 121.753384,216.225173 C122.070836,216.244675 122.344333,216.002526 122.362241,215.685619" id="path502" fill="#172C4B"></path>
                <path d="M116.558569,212.680691 C116.242745,212.680691 115.917153,212.721321 115.617609,212.861085 C115.303413,213.008974 115.039683,213.301504 114.928982,213.624911 C114.841073,213.886563 114.854096,214.141713 114.971309,214.364361 C115.293645,214.986798 116.185766,215.212696 116.97207,215.410966 C117.286266,215.490599 117.582555,215.565357 117.794189,215.656366 C119.177954,216.2463 119.871464,217.333534 119.746111,218.716549 C119.690761,219.33086 119.243072,220.005303 118.679799,220.317335 C118.372114,220.489602 117.883727,220.635867 117.313941,220.349838 C117.224404,220.305958 117.116958,220.341712 117.073004,220.429471 C117.029049,220.518855 117.064864,220.626116 117.152774,220.669995 C117.862563,221.024281 118.469792,220.843888 118.85399,220.629366 C119.523081,220.258829 120.035888,219.483626 120.102634,218.749052 C120.242639,217.198646 119.472614,215.983024 117.935822,215.326458 C117.69814,215.225697 117.3872,215.14769 117.05998,215.064806 C116.345306,214.884413 115.537839,214.679643 115.288761,214.200219 C115.200851,214.031202 115.228527,213.855685 115.267598,213.740298 C115.348996,213.504649 115.541095,213.291753 115.770637,213.184492 C116.205302,212.981347 116.731132,213.033352 117.196728,213.080482 C117.296034,213.090233 117.382316,213.018725 117.392083,212.91959 C117.401851,212.822081 117.330221,212.734322 117.232543,212.724571 C117.024165,212.703444 116.794623,212.680691 116.558569,212.680691" id="path504" fill="#172C4B"></path>
                <path d="M124.815574,214.601635 C124.804178,214.601635 124.792783,214.60326 124.781387,214.604885 C124.685337,214.622762 124.620219,214.717021 124.639754,214.812906 C124.753712,215.420717 124.470447,216.722473 123.519719,217.045881 C123.425297,217.078384 123.376459,217.179144 123.40739,217.273403 C123.439949,217.366038 123.540882,217.416418 123.635304,217.38554 C124.714641,217.016628 125.152561,215.60111 124.991393,214.747899 C124.975114,214.661766 124.900228,214.601635 124.815574,214.601635" id="path506" fill="#172C4B"></path>
                <path d="M116.019714,210.558228 C116.345306,210.493221 116.679038,210.498097 117.012769,210.52735 C117.273242,210.551727 117.419759,210.238071 117.240683,210.049552 C116.552057,209.319853 115.464581,208.905437 114.398268,209.405987 C113.734061,209.718018 113.222882,210.457468 113.361258,211.200168 C113.70313,213.033352 113.83825,210.997022 116.019714,210.558228" id="path508" fill="#172C4B"></path>
                <path d="M121.364302,212.250023 C121.219414,212.887087 120.617069,213.444518 119.959374,213.51115 C118.52677,213.65579 119.322842,211.603208 119.974026,211.167664 C120.75219,210.647612 121.564541,211.372435 121.364302,212.250023" id="path510" fill="#D45B4F"></path>
                <path d="M114.521993,217.005251 C115.047823,216.984124 115.578538,216.590835 115.72831,216.080533 C116.05553,214.968922 114.310358,215.295579 113.869181,215.74575 C113.341723,216.283679 113.795923,217.032879 114.521993,217.005251" id="path512" fill="#D45B4F"></path>
                <path d="M124.848133,210.946642 C124.812318,210.946642 124.776503,210.958018 124.745572,210.979145 C124.664174,211.036026 124.644638,211.146537 124.701617,211.227795 L125.351172,212.160639 C125.408151,212.241897 125.518852,212.261399 125.60025,212.204519 C125.681648,212.149263 125.701183,212.037127 125.645833,211.955869 L124.994649,211.023025 C124.960462,210.97427 124.905112,210.946642 124.848133,210.946642" id="path514" fill="#172C4B"></path>
                <path d="M82.7230804,215.458096 C82.6367986,215.458096 82.5586566,215.518227 82.5391211,215.605986 C81.6697913,219.555133 80.2143964,226.163048 77.2873271,229.545013 L77.2710476,229.564515 C76.5449781,230.401474 76.0224034,231.006035 76.315436,232.174527 C76.3398553,232.275287 76.4424167,232.337044 76.5433501,232.311041 C76.6459115,232.286664 76.7077739,232.184278 76.6817266,232.081893 C76.4375328,231.10517 76.8347547,230.645248 77.5575682,229.81154 L77.5722199,229.792038 C80.5627795,226.338565 82.0311981,219.67052 82.9086677,215.687244 C82.9314591,215.584859 82.8663407,215.484098 82.7637794,215.461346 C82.7507557,215.459721 82.7361041,215.458096 82.7230804,215.458096" id="path516" fill="#172C4B"></path>
                <path d="M82.4788866,223.561161 C82.3974887,223.561161 82.3226026,223.613166 82.2981832,223.694424 C81.2351264,227.159273 79.0683137,230.274711 76.1982229,232.467057 C76.1884552,232.475183 75.2654028,233.193505 75.2084242,233.773688 C75.1921446,233.921578 75.2328436,234.053216 75.3240093,234.157227 C75.9084463,234.826794 77.1505786,234.405877 77.725248,234.090595 C78.5424831,233.64205 79.1773869,232.928603 79.6380991,232.358171 C81.5118793,230.039062 83.0226247,227.459928 84.1280085,224.692275 C84.1654516,224.59639 84.1182408,224.485879 84.0221912,224.446875 C83.9245137,224.409496 83.8154405,224.455001 83.7763695,224.552511 C82.6840094,227.28441 81.1927995,229.831042 79.3434387,232.120897 C78.9038899,232.665327 78.3031732,233.34302 77.5429166,233.760687 C77.0024344,234.056467 76.00124,234.357122 75.608902,233.908577 C75.5926224,233.8907 75.5779708,233.866322 75.5844826,233.811067 C75.6137859,233.508786 76.157524,232.974108 76.4277651,232.767712 C79.3613462,230.526612 81.5737417,227.344541 82.65959,223.804935 C82.6905212,223.704175 82.6335427,223.59854 82.5342372,223.569287 C82.5163297,223.562786 82.4967942,223.561161 82.4788866,223.561161" id="path518" fill="#172C4B"></path>
                <path d="M85.5882873,224.888919 C85.5085173,224.888919 85.4352592,224.9393 85.4075839,225.017307 C84.2191742,228.57154 82.229809,231.893374 79.6560067,234.622023 C79.1415718,235.166453 78.5734143,235.717384 77.8978116,236.053792 C77.5364048,236.23256 76.8966171,236.48121 76.2845047,236.586846 C76.0028679,236.637226 75.7896054,236.486086 75.685416,236.33007 C75.5519234,236.12855 75.5486675,235.889651 75.6789042,235.688131 C75.8612355,235.405352 76.4896275,235.03319 77.0447613,234.704907 C77.5364048,234.412377 78.0003729,234.137725 78.2559624,233.882574 C78.3292206,233.809442 78.3292206,233.690805 78.2559624,233.616047 C78.1827043,233.542915 78.0622354,233.542915 77.9889772,233.616047 C77.7675749,233.83707 77.3019788,234.113347 76.8510343,234.379874 C76.2031068,234.763413 75.5909944,235.125824 75.3598243,235.48336 C75.1498177,235.810018 75.1530736,236.214684 75.3695921,236.538091 C75.5877385,236.866374 75.962169,237.027265 76.3496231,236.959009 C77.0008065,236.845247 77.6633855,236.591722 78.0654913,236.391826 C78.7948167,236.029415 79.3939054,235.450857 79.9327596,234.880424 C82.542377,232.112771 84.5594175,228.742182 85.7673627,225.137569 C85.7999219,225.038434 85.7461992,224.931174 85.6468938,224.89867 C85.6273583,224.89217 85.6078228,224.888919 85.5882873,224.888919" id="path520" fill="#172C4B"></path>
                <path d="M37.0230309,188.584393 C37.0425664,186.442427 37.3502506,184.277709 38.1837653,182.303136 C38.468658,181.625443 38.8137852,180.975377 39.1589124,180.326937 C39.7498613,179.212075 40.350578,178.085837 41.1873486,177.139992 C41.7327147,176.524055 42.4197132,175.971499 43.2353204,175.860988 C43.3053226,175.852862 43.3834646,175.847987 43.443699,175.885365 C43.5006776,175.921119 43.5316088,175.987751 43.5527723,176.051132 C43.7530112,176.610188 43.6341702,177.27163 43.2516,177.726676 C43.603239,177.229376 44.1860481,176.823085 44.7883927,176.917344 C45.3793416,177.009978 45.8302861,177.637292 45.7309807,178.225601 C45.639815,178.760279 45.1921264,179.147068 44.8583949,179.574486 C45.130264,179.447724 45.4412041,179.407095 45.7374925,179.46235 C46.2975102,179.910895 46.2144843,180.811236 45.8514496,181.430423 C45.4884149,182.04961 44.9153735,182.527408 44.5653624,183.153096 C44.5279194,183.219728 44.4937322,183.294486 44.5132677,183.365993 C44.5344312,183.439125 44.6044334,183.48463 44.6646679,183.530134 C45.288176,183.986805 45.3386427,184.935901 45.0179349,185.637971 C44.697227,186.340042 44.0997663,186.869845 43.5674239,187.428901 C42.5418101,188.506385 41.7115513,189.769137 41.1287421,191.135899 C40.9040839,191.662452 40.7119848,192.239385 40.8308257,192.800067 C40.897572,193.115348 41.0587399,193.399752 41.2247917,193.67603 C41.5373597,194.199332 41.8889987,194.71776 42.3855261,195.072045 C42.6964661,195.293067 43.052989,195.442583 43.3704409,195.657104 C43.7790585,195.931757 44.1274416,196.336422 44.2186073,196.820721 C44.3097729,197.303395 44.0867426,197.862451 43.6341702,198.055845 C43.3167183,198.192359 42.9520556,198.138729 42.6199521,198.046094 C41.7929492,197.816946 41.0310646,197.35865 40.4417437,196.737838 C40.0249863,196.300669 39.6928828,195.783867 39.2517061,195.36945 C38.7795981,194.92253 38.2765589,194.933906 37.7588682,194.657629 C37.2623408,194.394352 37.3567624,193.62565 37.3014118,193.129975 C37.1353601,191.621823 37.0083793,190.103921 37.0230309,188.584393" id="path522" fill="#F0A258"></path>
                <path d="M87.3253189,226.265433 C87.243921,226.265433 87.1690349,226.317438 87.1446155,226.398696 C86.3876149,228.847818 84.7157015,231.231932 83.7877652,232.436179 C82.9640182,233.503911 81.993755,234.729284 80.9095347,235.771014 C80.5676634,236.099297 79.8969445,236.494212 79.527398,236.38045 C79.4753033,236.365824 79.3206472,236.318694 79.2539009,236.006663 C79.1904106,235.707633 79.5501894,235.142076 79.8318262,234.999061 C79.9246198,234.951932 79.9620629,234.83817 79.9148521,234.745536 C79.8676413,234.651276 79.7536842,234.615523 79.6608906,234.662653 C79.2359934,234.877174 78.781793,235.606873 78.8843544,236.086296 C78.977148,236.52184 79.2245977,236.684356 79.4166968,236.742862 C79.9848543,236.916754 80.7939496,236.404828 81.171636,236.042416 C82.2753918,234.98281 83.2554228,233.744435 84.0873096,232.666952 C85.0315255,231.443204 86.7311141,229.015209 87.5060223,226.510833 C87.5369535,226.410072 87.479975,226.304437 87.3806695,226.273559 C87.361134,226.268683 87.3432265,226.265433 87.3253189,226.265433" id="path524" fill="#172C4B"></path>
                <path d="M90.0309858,217.619563 C89.9528438,217.619563 89.8795857,217.668318 89.8519104,217.746326 C89.6435317,218.350887 88.9581612,220.383966 88.9223461,221.172171 C88.8783913,222.174896 88.9630451,223.182498 89.044443,224.155971 C89.1453765,225.355341 89.2495658,226.595341 89.1079334,227.814214 C88.8621117,229.923676 88.1686014,231.344069 87.046938,232.036388 C87.0143789,232.05589 86.9362368,232.033138 86.8939099,231.977883 C86.8287916,231.894999 86.810884,231.766611 86.8027443,231.65285 C86.7555335,230.986533 86.9736799,230.195078 87.1853145,229.431251 C87.4571835,228.444777 87.7388204,227.422549 87.5076503,226.541711 C87.4816029,226.440951 87.3774136,226.38082 87.2764802,226.406822 C87.1755467,226.432825 87.1153123,226.536835 87.1413596,226.637595 C87.3464824,227.420924 87.0794972,228.391147 86.8206518,229.330491 C86.6008774,230.126821 86.3745912,230.947529 86.4250579,231.680478 C86.4364536,231.841369 86.4673848,232.046139 86.5943656,232.210281 C86.7376259,232.392299 87.0192627,232.497935 87.245549,232.358171 C88.4714017,231.600845 89.2251464,230.087817 89.4839918,227.856468 C89.6305081,226.601842 89.5246908,225.34234 89.4221294,224.125093 C89.3407315,223.162996 89.2577056,222.166771 89.3000325,221.188422 C89.3342196,220.432721 90.063545,218.290756 90.2100613,217.869838 C90.2442484,217.770703 90.1921537,217.663443 90.0928483,217.629314 C90.0733128,217.622814 90.0521493,217.619563 90.0309858,217.619563" id="path526" fill="#172C4B"></path>
                <path d="M119.899139,186.946228 C118.619564,186.603318 117.315569,186.346543 117.009513,186.304288 C112.382855,185.665599 107.663404,186.637447 103.836073,189.369347 C103.269544,189.774012 102.733946,190.217682 102.227651,190.69223 C99.7775731,192.991836 98.0047263,196.021141 96.4809572,198.967562 C96.370256,199.180459 96.2042043,199.617627 96.0055933,200.080799 C97.2119105,195.631101 98.6900968,191.631574 100.459688,189.601745 C107.59503,181.422297 115.635516,183.730029 119.899139,186.946228" id="path528" fill="#172C4B"></path>
                <path d="M107.827828,164.10618 C101.722983,165.092655 96.4418862,167.928565 92.3833858,172.036978 C92.1831469,170.437817 92.0594221,169.129561 91.9959317,168.906913 C91.0093889,165.429064 101.109243,161.827701 103.386757,160.963114 C109.441134,158.665133 116.44624,157.636405 122.578759,160.246417 C125.295822,161.401908 127.732875,163.340728 129.399905,165.754096 C129.010823,167.863558 128.737326,169.776376 128.678719,171.226022 C128.323824,170.735222 127.929858,170.252549 127.49031,169.776376 C122.080604,163.906285 115.606213,162.848304 107.827828,164.10618" id="path530" fill="#172C4B"></path>
                <path d="M80.4846375,203.974691 C80.3674245,204.863655 79.7341487,211.531701 79.5729808,214.596759 C78.9152856,212.878961 78.897378,209.08258 78.8794705,208.201741 C78.8306318,205.955765 79.0634298,203.71629 79.3141354,201.483315 C79.8806649,196.438808 80.5318483,191.379674 81.9611958,186.507434 C83.3205411,181.878968 84.8817533,176.151892 87.9781303,172.379888 L89.4091057,175.579835 C87.7795193,177.86644 86.459245,180.411446 85.4971216,183.154722 C83.0844872,190.035664 81.4402491,196.741088 80.4846375,203.974691" id="path532" fill="#172C4B"></path>
                <path d="M80.3430051,215.509715 C80.4130074,215.470438 80.4862655,215.435526 80.5644075,215.409341 C80.4862655,215.483531 80.4130074,215.514079 80.3430051,215.509715" id="path534" fill="#172C4B"></path>
                <path d="M127.044249,192.206882 C124.877436,193.354247 122.619458,189.302715 120.732654,187.627171 C120.473809,187.398023 120.195428,187.168875 119.899139,186.946228 C115.635516,183.730029 107.59503,181.422297 100.459688,189.601745 C98.6900968,191.631574 97.2119105,195.631101 96.0055933,200.080799 C93.8159892,208.152986 92.5201343,217.702447 91.9943037,219.631516 C91.9861639,219.62989 91.9796521,219.625015 91.9731403,219.621765 C91.9894199,219.595762 92.0024435,219.566509 92.0105833,219.535631 C92.259661,218.675919 89.6663232,217.174268 86.2183072,216.182919 C83.8919546,215.513351 81.7739806,215.246825 80.5644075,215.409341 C80.4862655,215.419092 80.4130074,215.432093 80.3430051,215.44672 C79.9099682,215.532853 79.6267034,215.685619 79.5387937,215.908266 C79.527398,215.654741 79.5420496,215.193194 79.5729808,214.596759 C79.7341487,211.531701 80.3674245,204.863655 80.4846375,203.974691 C81.4402491,196.741088 83.0844872,190.035664 85.4971216,183.154722 C86.459245,180.411446 87.7795193,177.86644 89.4091057,175.579835 C90.3077388,174.317083 91.3007934,173.130713 92.3833858,172.036978 C96.4418862,167.928565 101.722983,165.092655 107.827828,164.10618 C115.606213,162.848304 122.080604,163.906285 127.49031,169.776376 C127.929858,170.252549 128.323824,170.735222 128.678719,171.226022 C130.257839,173.413492 131.024607,175.781355 131.239498,178.696898 C131.503227,182.265757 130.147138,190.563842 127.044249,192.206882" id="path536" fill="#00E4BA"></path>
                <path d="M43.3443936,175.714723 C43.2922989,175.714723 43.2418322,175.719599 43.1929934,175.726099 C42.3155238,175.841486 41.6464329,176.38429 41.2410713,176.819834 C40.7510558,177.346387 40.3994168,177.955824 40.0201024,178.640017 C39.9696357,178.731027 40.0038229,178.846413 40.0949885,178.896793 C40.1861542,178.945548 40.3017392,178.913045 40.352206,178.822036 C40.7184966,178.160594 41.0587399,177.572285 41.5194522,177.078235 C42.0322591,176.52568 42.6443715,176.17952 43.2434602,176.099887 C43.3085785,176.091761 43.3899764,176.08526 43.4388152,176.109638 C43.5185851,176.148642 43.5462604,176.290031 43.5462604,176.398917 C43.5430045,176.896217 43.2141569,177.341512 42.8494942,177.791682 L42.8006555,177.851813 C41.8173686,179.06256 40.8015225,180.315561 40.5166298,181.861091 C40.4970943,181.963477 40.5654685,182.060986 40.6680299,182.080488 C40.7705913,182.09999 40.8698967,182.031734 40.8878043,181.929348 C41.1564174,180.478077 42.1413323,179.26408 43.0953159,178.090712 L43.1441547,178.028956 C43.5364927,177.544657 43.9206909,177.019729 43.9239633,176.400542 C43.9255747,176.106388 43.8067338,175.870739 43.6064949,175.769979 C43.5202131,175.727724 43.4306754,175.714723 43.3443936,175.714723" id="path538" fill="#172C4B"></path>
                <path d="M44.7135066,176.72395 C44.5328032,176.72395 44.345588,176.758078 44.1616287,176.826335 C43.7546391,176.9791 43.4209076,177.266754 43.1262471,177.521905 C43.0464772,177.588537 43.0367094,177.708799 43.1050837,177.786807 C43.1734579,177.86644 43.2922989,177.876191 43.3720689,177.807934 C43.6569616,177.562534 43.9516221,177.309009 44.2951213,177.180621 C44.6435044,177.050608 45.011423,177.086361 45.2344533,177.273255 C45.5633009,177.547908 45.5421375,178.087462 45.3565502,178.454749 C45.1644511,178.833412 44.8209519,179.134067 44.4888484,179.424971 L44.3700074,179.527357 C42.4734358,181.204525 41.0278087,183.352991 40.192666,185.740357 C40.1568509,185.837866 40.2089456,185.946752 40.3082511,185.980881 C40.4059286,186.015009 40.5150018,185.963004 40.5491889,185.865494 C41.3647961,183.53826 42.7729802,181.44505 44.622341,179.810135 L44.737926,179.70775 C45.0977048,179.394093 45.4688794,179.069061 45.6935376,178.625391 C45.952383,178.116715 45.9605228,177.388642 45.4770191,176.983976 C45.2735243,176.813334 45.0032832,176.72395 44.7135066,176.72395" id="path540" fill="#172C4B"></path>
                <path d="M45.5519052,179.155194 C45.2995717,179.155194 45.0016553,179.270581 44.6744356,179.498104 C44.5897818,179.558235 44.5686183,179.676872 44.6288528,179.76138 C44.6890873,179.847514 44.8063003,179.868641 44.8925821,179.80851 C45.0765414,179.678497 45.5323697,179.400594 45.757028,179.608615 C45.8107506,179.65737 45.8498216,179.735378 45.8921485,179.826387 C45.9963379,180.044159 46.0972713,180.278182 46.108667,180.512206 C46.1282025,180.977002 45.8026108,181.394669 45.4379481,181.818837 C43.4160238,184.163948 41.6252695,186.304288 40.2073177,188.75991 C40.155223,188.850919 40.1861542,188.966306 40.2773199,189.018311 C40.3668576,189.070317 40.4824426,189.039438 40.5345373,188.950054 C41.9378375,186.52206 43.7139401,184.394721 45.7244688,182.064237 C46.1249466,181.601065 46.5124007,181.09889 46.4863534,180.495954 C46.4733297,180.190423 46.3544887,179.917396 46.2340198,179.665496 C46.1770413,179.543608 46.1168068,179.424971 46.0126175,179.330712 C45.8856367,179.2137 45.7309807,179.155194 45.5519052,179.155194" id="path542" fill="#172C4B"></path>
                <path d="M44.5637345,183.151471 C44.4807086,183.151471 44.4041945,183.205102 44.3814031,183.28961 C44.3537278,183.39037 44.4123343,183.494381 44.5132677,183.522008 C44.8665347,183.619518 45.0749134,184.011183 45.1237522,184.357342 C45.1970103,184.864393 45.0277026,185.449452 44.6500163,186.008509 C44.386287,186.395297 44.0476716,186.744708 43.720452,187.084367 C43.6178906,187.190002 43.5153292,187.297263 43.4127678,187.406149 C42.8413544,188.015585 42.3204077,188.683528 41.8629514,189.388849 C41.7896933,189.50261 41.7115513,189.622872 41.6301533,189.743134 C41.2964219,190.24531 40.9187355,190.812492 40.7136127,191.348796 C40.2284811,192.622924 41.1678131,194.633251 42.2764528,195.385702 C42.4766917,195.52059 42.6883263,195.631101 42.8950771,195.738362 C43.132759,195.861875 43.3557893,195.977261 43.5592841,196.126776 C43.8685962,196.355924 44.1974438,196.775217 44.1079061,197.201009 C44.0492996,197.477287 43.8034779,197.727562 43.48277,197.838073 C43.2043892,197.933958 42.8722856,197.942084 42.465296,197.860826 C41.6464329,197.698309 40.8910602,197.264391 40.3375543,196.641953 C40.1763864,196.45831 40.0266143,196.255164 39.8833539,196.058519 C39.6896269,195.795243 39.489388,195.522216 39.2500781,195.283316 C38.7177357,194.753513 38.0681803,194.527615 37.5114185,194.675505 C37.4104851,194.701508 37.3502506,194.805518 37.3762979,194.906279 C37.4039732,195.007039 37.5081626,195.06717 37.607468,195.041167 C38.0339931,194.927406 38.5468,195.11755 38.981465,195.549843 C39.2012393,195.76924 39.3851986,196.01789 39.5772977,196.281167 C39.7270699,196.485937 39.881726,196.697209 40.0542896,196.892228 C40.663146,197.576422 41.4917769,198.052595 42.3920379,198.231363 C42.8657738,198.325623 43.2629957,198.314246 43.6064949,198.195609 C44.0574394,198.039594 44.3911709,197.688558 44.4774527,197.279017 C44.6044334,196.677707 44.2023277,196.133277 43.7839424,195.824496 C43.5576561,195.657104 43.3085785,195.527091 43.0692686,195.403579 C42.8641458,195.296318 42.6704188,195.195558 42.4897154,195.07367 C41.5129403,194.410604 40.6468664,192.588795 41.0668797,191.483684 C41.2573509,190.986384 41.6220135,190.437079 41.9443493,189.95278 C42.0273752,189.829268 42.1071452,189.710631 42.1820313,189.593619 C42.6264639,188.9078 43.132759,188.257735 43.6895208,187.662925 C43.7904542,187.557289 43.8913876,187.451654 43.993949,187.346018 C44.3309364,186.996608 44.6809475,186.634197 44.9625843,186.21978 C45.2686405,185.76961 45.6088838,185.072414 45.4998106,184.303712 C45.4363202,183.871419 45.167707,183.310737 44.6142012,183.157972 C44.5979216,183.153096 44.580014,183.151471 44.5637345,183.151471" id="path544" fill="#172C4B"></path>
                <path d="M147.812115,126.81843 L3.35196644,126.81843 C2.82776382,126.81843 2.40449462,127.242597 2.40449462,127.764275 C2.40449462,128.285952 2.82776382,128.71012 3.35196644,128.71012 L147.812115,128.71012 C148.336318,128.71012 148.759587,128.285952 148.759587,127.764275 C148.759587,127.242597 148.336318,126.81843 147.812115,126.81843" id="path546" fill="#172C4B"></path>
                <polyline id="path548" fill="#172C4B" points="153.163214 127.764275 145.624139 124.68784 147.413265 127.764275 145.624139 130.839084 153.163214 127.764275"></polyline>
                <path d="M127.340537,222.912721 C127.317746,222.912721 127.294955,222.915971 127.273791,222.924097 C127.182626,222.961476 127.137043,223.063861 127.172858,223.156495 C127.7052,224.500505 127.571708,226.408447 126.288876,227.451802 C125.629553,227.986481 124.699989,228.262759 123.674375,228.22538 C122.682948,228.189626 121.715941,227.882471 120.901962,227.586691 C120.80754,227.552562 120.711491,227.516809 120.617069,227.481055 C119.889372,227.212903 119.135627,226.933375 118.337927,226.905747 C117.535344,226.87812 116.433216,227.175524 115.965992,228.109993 C115.922037,228.197752 115.957852,228.305013 116.045762,228.350518 C116.1353,228.392772 116.242745,228.358643 116.2867,228.269259 C116.65299,227.537936 117.577671,227.235655 118.324904,227.263283 C119.063997,227.289286 119.790066,227.557438 120.493344,227.817464 C120.587766,227.851592 120.683815,227.887346 120.778237,227.921474 C121.619892,228.22863 122.619458,228.545537 123.661351,228.582916 C124.774875,228.620295 125.789093,228.318014 126.515163,227.72808 C127.765435,226.712353 128.182192,224.732904 127.506589,223.024857 C127.478914,222.954975 127.41054,222.912721 127.340537,222.912721" id="path550" fill="#172C4B"></path>
                <path d="M167.305289,180.882743 C167.235287,180.882743 167.166913,180.924997 167.139238,180.994879 C165.338716,185.483581 165.039171,190.513462 164.751023,195.375951 C164.720091,195.879751 164.690788,196.378677 164.659857,196.872726 C164.304962,202.508793 163.378654,207.7987 161.908607,212.596183 C160.173203,218.256627 157.571726,222.590938 154.177432,225.480479 C150.649646,228.482156 145.366921,229.858669 140.046753,229.158224 C135.827085,228.604043 132.032314,226.076914 128.807328,223.751305 C128.727558,223.694424 128.615229,223.712301 128.55825,223.791934 C128.499644,223.871567 128.517551,223.983703 128.598949,224.042209 C131.858122,226.392196 135.698476,228.946953 140.00117,229.51251 C145.419016,230.225956 150.80593,228.818565 154.41023,225.751881 C157.856619,222.818461 160.495539,218.427269 162.250478,212.700193 C163.730293,207.875083 164.659857,202.559173 165.018008,196.895479 C165.048939,196.401429 165.078242,195.900879 165.107545,195.397078 C165.395694,190.562217 165.691983,185.563214 167.471341,181.128143 C167.508784,181.035508 167.464829,180.931498 167.372036,180.895744 C167.350872,180.885993 167.328081,180.882743 167.305289,180.882743" id="path552" fill="#172C4B"></path>
                <path d="M117.030677,220.357964 C115.957852,220.357964 115.085266,219.486876 115.085266,218.415893 C115.085266,217.344911 115.957852,216.473823 117.030677,216.473823 C118.101873,216.473823 118.974459,217.344911 118.974459,218.415893 C118.974459,219.486876 118.101873,220.357964 117.030677,220.357964 Z M117.030677,215.898515 C115.6404,215.898515 114.508969,217.028004 114.508969,218.415893 C114.508969,219.803783 115.6404,220.933272 117.030677,220.933272 C118.420953,220.933272 119.550756,219.803783 119.550756,218.415893 C119.550756,217.028004 118.420953,215.898515 117.030677,215.898515" id="path554" fill="#F9EDED"></path>
                <path d="M122.173397,217.03938 C121.068014,217.03938 120.169381,216.14229 120.169381,215.038804 C120.169381,213.935318 121.068014,213.038227 122.173397,213.038227 C123.277153,213.038227 124.175786,213.935318 124.175786,215.038804 C124.175786,216.14229 123.277153,217.03938 122.173397,217.03938 Z M122.173397,212.445043 C120.740794,212.445043 119.575176,213.60866 119.575176,215.038804 C119.575176,216.468948 120.740794,217.630939 122.173397,217.630939 C123.604373,217.630939 124.769991,216.468948 124.769991,215.038804 C124.769991,213.60866 123.604373,212.445043 122.173397,212.445043" id="path556" fill="#F9EDED"></path>
                <path d="M120.4966,216.280429 L119.957746,216.335684 C119.974026,216.485199 119.902395,216.644465 119.781926,216.732224 C119.602851,216.863862 119.334238,216.860612 119.028182,216.845985 L119.000506,217.38554 C119.300051,217.400166 119.752623,217.422918 120.101006,217.169393 C120.376131,216.969498 120.532415,216.620088 120.4966,216.280429" id="path558" fill="#F9EDED"></path>
                <path d="M127.327514,212.86596 C127.304722,212.86596 127.281931,212.86921 127.25914,212.875711 L124.133459,213.696419 C123.988571,213.733797 123.902289,213.881687 123.94136,214.026327 C123.978803,214.170966 124.126948,214.2571 124.271836,214.219721 L127.395888,213.397389 C127.540776,213.36001 127.627058,213.21212 127.589615,213.06748 C127.557056,212.945593 127.447983,212.86596 127.327514,212.86596" id="path560" fill="#F9EDED"></path>
                <path d="M120.141705,52.7841079 C120.141705,51.9065196 117.758374,51.1264411 114.062908,50.6356418 C111.469571,50.2878568 108.229933,50.081461 104.715171,50.081461 C102.439285,50.081461 100.277356,50.1692199 98.331946,50.3236104 C92.9971261,50.7477781 89.2870088,51.6887477 89.2870088,52.7841079 C89.2870088,52.8962442 89.3244519,53.0051301 89.4009659,53.1140161 C89.9512159,53.9054707 92.4566439,54.5912897 96.0479203,55.0170825 C98.5175332,55.3144874 101.501581,55.4851296 104.715171,55.4851296 C107.414326,55.4851296 109.952313,55.3632423 112.159825,55.1503459 C116.511358,54.7310537 119.578432,53.9526004 120.071703,53.044134 L120.071703,53.0425089 C120.118914,52.9563752 120.141705,52.8718667 120.141705,52.7841079" id="path562" fill="#172C4B"></path>
                <path d="M113.325443,52.3160608 L112.159825,55.1503459 C109.952313,55.3648675 107.414326,55.4867547 104.715171,55.4867547 C101.501581,55.4867547 98.5175332,55.3144874 96.0479203,55.0187077 L98.2000813,51.8772667 C103.04977,53.2862834 108.347146,52.6914736 113.325443,52.3160608" id="path564" fill="#002081"></path>
                <path d="M116.465775,190.381823 C115.025032,190.381823 113.572893,190.8905 112.503324,191.846096 C111.287239,192.931705 110.507447,194.582871 110.364187,196.373801 C110.237206,197.943709 110.582333,199.648506 111.363753,201.301297 C111.503758,201.598702 111.710508,201.574324 111.772371,201.559698 C111.883072,201.533695 111.954702,201.437811 111.953074,201.322424 C111.949818,201.211913 111.878188,201.083525 111.751207,201.057522 C111.721904,201.052647 111.694229,201.052647 111.666554,201.057522 C110.942112,199.48924 110.621404,197.883578 110.740245,196.404679 C110.876994,194.708009 111.611203,193.149477 112.755658,192.127249 C114.30873,190.739359 116.72462,190.360696 118.63096,191.204156 C120.535671,192.047616 121.875481,194.092072 121.886877,196.172281 C121.886877,196.276291 121.968275,196.35755 122.077348,196.3608 C122.181537,196.359175 122.266191,196.274666 122.264586,196.170656 C122.253167,193.945807 120.820564,191.761587 118.783988,190.859622 C118.057918,190.537839 117.263475,190.381823 116.465775,190.381823" id="path566" fill="#172C4B"></path>
                <path d="M83.522408,210.615109 C82.2721359,210.615109 80.9616294,210.828005 79.6918218,211.396812 C79.5957722,211.439067 79.5534453,211.551203 79.5974002,211.645462 C79.6397271,211.741347 79.7520562,211.783601 79.8464778,211.741347 C83.2423991,210.220194 86.9671681,211.356183 88.8865311,212.17039 C90.8335694,212.994348 92.0675619,214.001949 92.6552549,215.245199 C92.6992097,215.339459 92.8131668,215.380088 92.9075884,215.336209 C93.00201,215.290704 93.041081,215.178568 92.9971261,215.084308 C92.3671062,213.753299 91.0712513,212.685567 89.0346753,211.822605 C87.7697516,211.286301 85.7429433,210.615109 83.522408,210.615109" id="path568" fill="#172C4B"></path>
                <path d="M113.916392,50.3967427 C113.98151,50.3983679 114.048257,50.3967427 114.115003,50.3951176 L113.325443,52.3160608 C108.347146,52.6914736 103.04977,53.2862834 98.2000813,51.8772667 L104.497025,42.6885924 C108.874605,43.5255516 112.190756,47.0326544 113.916392,50.3967427" id="path570" fill="#002081"></path>
                <path d="M128.57453,42.0043986 C128.540343,42.3603094 128.296149,42.7032189 128.025908,43.0753813 C127.208673,44.1999944 124.721152,45.8999154 122.958073,46.0965602 C123.509951,45.5212523 123.980431,44.9166915 124.333698,44.3007546 C124.766735,43.5450536 124.903484,42.7259712 124.478587,41.8938875 C123.428553,39.8348054 122.121303,37.9057363 120.597534,36.1668114 C119.921931,35.3948587 119.200745,34.6570345 118.634216,33.8021985 C116.879277,31.1596827 116.05553,27.9938643 114.292451,25.3123446 C111.034906,20.355596 106.32685,15.9026481 100.321311,14.7325304 C96.8391081,14.0548372 92.0984931,15.0526876 89.7021382,17.9487289 C90.8319414,14.7894111 93.5148169,12.1273933 96.7153832,11.218927 C99.1784843,10.5184815 101.825545,10.672872 104.316321,11.2709322 C109.633233,12.5499358 114.383616,15.9270255 117.437666,20.4433548 C120.67242,25.2294612 119.399356,29.1347291 123.25599,33.4641645 C124.338582,34.681412 129.074313,36.7079908 128.57453,42.0043986" id="path572" fill="#172C4B"></path>
                <path d="M100.321311,14.7325304 C106.32685,15.9026481 111.034906,20.355596 114.292451,25.3123446 C116.05553,27.9938643 116.879277,31.1596827 118.634216,33.8021985 C119.200745,34.6570345 119.921931,35.3948587 120.597534,36.1668114 C122.121303,37.9057363 123.428553,39.8348054 124.478587,41.8938875 C124.903484,42.7259712 124.766735,43.5450536 124.333698,44.3007546 C123.980431,44.9166915 123.509951,45.5212523 122.958073,46.0965602 C120.665908,48.4823002 116.946023,50.3528633 114.115003,50.3951176 C114.048257,50.3967427 113.98151,50.3983679 113.916392,50.3967427 C112.190756,47.0326544 108.874605,43.5255516 104.497025,42.6885924 C104.265854,42.6430878 104.033056,42.6040839 103.795374,42.5764561 C101.522745,38.6760638 103.321639,34.8683058 100.187819,31.3725792 C99.3917469,30.4852399 98.3449696,29.9115572 97.2460977,29.482514 C95.0141666,28.6130516 92.3671062,28.4375339 90.415184,26.9456339 C88.4746576,25.4618596 87.7827752,22.5950713 88.4502382,20.2970901 C88.7074556,19.4081257 89.1404926,18.6264221 89.7021382,17.9487289 C92.0984931,15.0526876 96.8391081,14.0548372 100.321311,14.7325304" id="path574" fill="#00E4BA"></path>
                <path d="M95.7597716,25.9705358 C95.6913974,25.9705358 95.626279,26.0079145 95.5920919,26.0712959 C95.0939366,27.0155159 94.8122998,28.0767476 94.7781127,29.1428549 C94.7716008,29.3281235 94.7602051,29.671033 95.116728,29.8579268 C95.4146444,30.0139425 95.7923308,29.9570618 96.057688,29.7181627 C96.4158389,29.3947552 96.6795681,29.0014657 96.9351576,28.6211774 C97.0930696,28.3839035 97.2574934,28.140129 97.4398247,27.9223571 L97.4512204,27.9077306 C97.7507648,27.553445 98.1593824,27.5891986 98.4182278,27.7273375 C98.681957,27.8703519 98.9424304,28.1970097 98.8073098,28.6536807 C98.7877743,28.7203124 98.7666109,28.7885692 98.7421915,28.8552009 C98.6787011,29.0388444 98.603815,29.2257382 98.5305569,29.4077565 C98.3172943,29.9375598 98.0975199,30.4852399 98.0861242,31.0881756 C98.0812404,31.3270746 98.1675222,31.5513471 98.3221782,31.7057377 C98.4703224,31.8520024 98.6542817,31.9235096 98.8577765,31.9121334 C99.3559318,31.8845057 99.7824569,31.3937063 99.9029259,31.2441912 L99.9875797,31.1385556 C100.241541,30.8167733 100.50527,30.4852399 100.830862,30.2544667 C101.145058,30.0350696 101.469022,30.1098271 101.672517,30.2495912 C101.884151,30.3942308 102.07625,30.685135 101.981829,31.0605478 C101.915082,31.3205739 101.802753,31.5952266 101.646469,31.8731295 C101.552048,32.0388962 101.447858,32.206288 101.346925,32.3688044 C101.016449,32.8986077 100.674578,33.4479129 100.599692,34.104479 C100.576901,34.2897476 100.602948,34.4652652 100.671322,34.61153 C100.773884,34.830927 100.946447,34.9788169 101.174361,35.0373228 C101.574839,35.1429584 102.043691,34.9446885 102.3237,34.7431682 C102.390446,34.6944133 102.457193,34.6424081 102.525567,34.5904028 C102.883718,34.3157502 103.220705,34.0573492 103.613043,34.1857371 C103.89468,34.2783714 104.091663,34.5530241 104.114454,34.8845574 C104.156781,35.5102454 103.774211,35.9961692 103.186518,36.5324732 L103.067677,36.6413591 C102.663943,37.0070209 102.247186,37.3840588 102.0209,37.9008608 C101.978573,37.9967455 102.022528,38.1088817 102.118577,38.1495108 C102.214627,38.1917651 102.325328,38.1478857 102.367655,38.052001 C102.561382,37.6099566 102.947208,37.2589213 103.321639,36.9208872 L103.442108,36.8120013 C104.020033,36.2838232 104.547491,35.6808875 104.492141,34.8585548 C104.459582,34.3726309 104.160037,33.9679652 103.731884,33.8282012 C103.149075,33.6364319 102.694875,33.9842169 102.296025,34.2897476 C102.230906,34.3401277 102.165788,34.3905077 102.10067,34.4360123 C101.872756,34.601779 101.526,34.7382927 101.268783,34.671661 C101.15157,34.6424081 101.068544,34.5709009 101.014821,34.4522639 C100.97575,34.3693806 100.961099,34.263745 100.974123,34.1467332 C101.040869,33.5746757 101.345297,33.0855015 101.667633,32.5686995 C101.771822,32.4029328 101.877639,32.2306655 101.975317,32.0583981 C102.149509,31.7496171 102.274861,31.4457115 102.348119,31.1531821 C102.465332,30.6883853 102.284629,30.2122124 101.887407,29.9375598 C101.495069,29.6677827 101.011566,29.6677827 100.625739,29.9375598 C100.624111,29.9375598 100.612716,29.9456856 100.612716,29.9456856 C100.241541,30.2089621 99.9615324,30.5616226 99.6896633,30.9029069 L99.6066374,31.0085425 C99.4063985,31.2604429 99.0905746,31.520469 98.8366131,31.5350955 C98.7405635,31.539971 98.6607936,31.5107181 98.5907913,31.4392109 C98.5077655,31.3563275 98.4621826,31.2311899 98.4654385,31.0963014 C98.4752063,30.5616226 98.6721893,30.0691981 98.8821959,29.5475206 C98.955454,29.3622519 99.0319681,29.1721078 99.1003423,28.9787134 C99.1247617,28.9072062 99.1491811,28.8340738 99.1703446,28.7609415 C99.3575598,28.130378 99.0173165,27.6217019 98.5973032,27.3958041 C98.1838017,27.1731568 97.5798292,27.1699064 97.1614438,27.6655813 L97.1500481,27.6802078 C96.9546931,27.9142313 96.7853854,28.1661316 96.6209616,28.4099062 C96.3670001,28.7885692 96.1276902,29.1461052 95.8037265,29.4386346 C95.6555823,29.571898 95.4504595,29.6060265 95.2925475,29.5231431 C95.1688227,29.4581366 95.1492872,29.3703778 95.155799,29.1558562 C95.1899862,28.1466297 95.4553434,27.1406535 95.9274513,26.2468136 C95.9762901,26.1558044 95.940475,26.0404178 95.8476814,25.9916629 C95.8200061,25.9770364 95.7890749,25.9705358 95.7597716,25.9705358" id="path576" fill="#172C4B"></path>
                <path d="M173.77968,33.4934175 C173.872474,33.4462877 173.966895,33.3942825 174.059689,33.3406521 L171.648682,39.4740191 C171.178202,39.5552772 170.702839,39.6251593 170.216079,39.6787897 C165.027775,40.2670988 159.943661,40.1387109 154.872571,39.7372955 L160.179715,31.0963014 C164.978937,29.3346242 170.245382,31.0459213 173.77968,33.4934175" id="path578" fill="#002081"></path>
                <path d="M182.17669,23.1167487 C181.629696,24.0122138 180.688736,25.7820168 179.591492,26.5864727 C180.229651,25.1205753 180.628501,23.6205494 180.667572,22.2684134 C180.695248,21.3160676 180.405471,20.4579813 179.567072,19.8761728 C177.493053,18.4314024 175.239959,17.2466583 172.874535,16.3544435 C171.82613,15.9579036 170.750049,15.6166193 169.763507,15.0851909 C166.711084,13.4421506 164.285426,10.8175116 161.203701,9.14034288 C155.51073,6.03953098 148.678189,4.17221815 142.291708,6.13216529 C138.588102,7.26815456 134.537742,10.6647462 133.722135,14.6854006 C133.180024,11.0612861 134.392853,7.12026468 137.005727,4.59963614 C139.017883,2.65919096 141.647036,1.44681901 144.354331,0.743123225 C150.135212,-0.758527822 156.45169,0.0540539136 161.721392,2.83308345 C167.306917,5.78112998 168.855106,9.87491677 174.546448,12.6588218 C176.726285,13.7265542 179.309855,13.4307744 181.341547,14.9356758 C182.440419,15.7498827 183.057415,16.7802364 183.299981,17.8950985 C183.669528,19.5917692 183.171372,21.4850846 182.17669,23.1167487" id="path580" fill="#172C4B"></path>
                <path d="M142.291708,6.13216529 C148.678189,4.17221815 155.51073,6.03953098 161.203701,9.14034288 C164.285426,10.8175116 166.711084,13.4421506 169.763507,15.0851909 C170.750049,15.6166193 171.82613,15.9579036 172.874535,16.3544435 C175.239959,17.2466583 177.493053,18.4314024 179.567072,19.8761728 C180.405471,20.4579813 180.695248,21.3160676 180.667572,22.2684134 C180.628501,23.6205494 180.229651,25.1205753 179.591492,26.5864727 C178.365639,29.4045062 176.246037,32.0909014 174.059689,33.3406521 C173.966895,33.3942825 173.872474,33.4462877 173.77968,33.4934175 C170.245382,31.0459213 164.978937,29.3346242 160.179715,31.0963014 C160.117853,31.1190537 160.057618,31.1385556 159.997384,31.1629331 C155.797251,28.5740477 155.564453,23.9813357 150.744068,22.2261591 C149.521471,21.7808644 148.215849,21.7662379 146.936273,21.9173781 C144.338052,22.2277843 141.699131,23.4190291 139.048815,22.9851105 C136.414778,22.552817 134.269129,20.1492002 133.727018,17.5911929 C133.517012,16.6030935 133.530035,15.6263703 133.722135,14.6854006 C134.537742,10.6647462 138.588102,7.26815456 142.291708,6.13216529" id="path582" fill="#00E4BA"></path>
                <path d="M148.201197,18.2802622 C148.147474,18.2802622 148.093752,18.3030145 148.056309,18.3485191 C147.147908,19.4373786 146.690452,21.2169326 147.633039,22.374049 C147.810487,22.5918209 147.994446,22.7234592 148.194685,22.7754644 C148.839357,22.9412311 149.290301,22.304167 149.619149,21.8409954 L149.630544,21.8263689 C150.058698,21.2234333 150.639879,20.7358842 151.30897,20.4173522 C151.698052,20.2320836 152.201091,20.1654519 152.389934,20.4579813 C152.446913,20.5457401 152.47296,20.6725029 152.469704,20.8301437 C152.455052,21.3160676 152.204347,21.7499862 151.93899,22.2099075 C151.781078,22.4845601 151.616654,22.7673386 151.501069,23.069619 C151.310598,23.5701693 151.258503,24.1129739 151.348041,24.6411521 C151.374088,24.7939174 151.422927,24.9856867 151.566187,25.1254508 C151.696424,25.2505884 151.885267,25.3155949 152.127833,25.3155949 C152.129461,25.3155949 152.131089,25.3155949 152.132717,25.3139697 C152.995535,25.3123446 153.604391,24.6980328 154.193712,24.1048481 C154.626749,23.6676791 155.07281,23.2158837 155.611664,23.0241144 C155.776088,22.9656085 155.904696,22.9558575 155.995862,22.9948615 C156.194473,23.07937 156.233544,23.3865259 156.240056,23.4791602 C156.288895,24.1162243 155.964931,24.7467877 155.658875,25.286342 L155.595384,25.3984782 C155.269793,25.9705358 154.934433,26.5637204 154.879083,27.2397885 C154.820476,27.9922391 155.23235,28.8617016 156.025165,29.0160921 C156.629138,29.1331039 157.285205,28.7901944 157.827315,28.0767476 C157.920109,27.9532352 158.009647,27.8248473 158.097556,27.7013349 C158.380821,27.2966692 158.647806,26.9147558 159.040144,26.688858 C159.316897,26.5312172 159.712491,26.5133404 160.002268,26.6466038 C160.132504,26.70836 160.298556,26.8269969 160.337627,27.046394 C160.357163,27.1504045 160.45484,27.2186613 160.557402,27.1991594 C160.661591,27.1796574 160.728337,27.0821476 160.71043,26.9797623 C160.656707,26.6839825 160.461352,26.4434584 160.161808,26.3053195 C159.76133,26.1200508 159.235499,26.1428031 158.852929,26.3622002 C158.387333,26.628727 158.081277,27.0642708 157.786616,27.4851881 C157.701962,27.6070754 157.615681,27.7305878 157.526143,27.8475996 C157.311252,28.1287529 156.744723,28.7690673 156.096795,28.6439297 C155.51887,28.5334186 155.211186,27.8443493 155.256769,27.2706666 C155.30398,26.6774819 155.619804,26.121676 155.92586,25.585372 L155.98935,25.4732358 C156.323082,24.8833014 156.673093,24.1926069 156.617742,23.4515324 C156.588439,23.0549925 156.415875,22.7624631 156.144006,22.6470765 C155.960047,22.5690686 155.745156,22.5755693 155.484683,22.6682036 C154.864431,22.8892258 154.387439,23.3718994 153.923471,23.8383213 C153.365081,24.402253 152.837623,24.9336815 152.131089,24.9369318 C152.129461,24.9369318 152.127833,24.9369318 152.127833,24.9369318 C152.030155,24.9369318 151.899919,24.9223053 151.829916,24.8540485 C151.764798,24.7922923 151.738751,24.6785308 151.720843,24.5777707 C151.642701,24.1162243 151.688284,23.6416765 151.855964,23.2028824 C151.960153,22.9298549 152.116437,22.6600778 152.266209,22.3984265 C152.54459,21.9190032 152.831111,21.4217032 152.84739,20.8415199 C152.853902,20.6058712 152.806691,20.4076012 152.707386,20.2532107 C152.394818,19.7656617 151.698052,19.8127914 151.146174,20.0760679 C150.418476,20.4222277 149.788456,20.952031 149.321232,21.608597 L149.311465,21.6215983 C149.029828,22.0181382 148.681445,22.5105628 148.289107,22.4098026 C148.168638,22.3789245 148.049797,22.2895405 147.926072,22.1367752 C147.112093,21.1356745 147.535362,19.5625162 148.347713,18.5906685 C148.41446,18.5094103 148.403064,18.3907734 148.323294,18.3241417 C148.287479,18.2948887 148.245152,18.2802622 148.201197,18.2802622" id="path584" fill="#172C4B"></path>
            </g>
        </g>
    </g>
</svg>