<?xml version="1.0" encoding="UTF-8"?>
<svg version="1.1" xmlns="http://www.w3.org/2000/svg" width="512" height="512">
<path d="M0 0 C3.50611147 2.83652327 6.78474365 5.83914731 10 9 C10.62777344 9.61488281 11.25554687 10.22976562 11.90234375 10.86328125 C26.11606206 25.91499656 31.83474545 46.03357675 31.3046875 66.3125 C30.22608547 87.8845406 19.77431919 106.5849192 4 121 C2.79444833 121.98258943 1.58613009 122.96179476 0.375 123.9375 C-8.18940435 131.31665197 -10.19062147 141.47977402 -13 152 C-12.45005371 152.1846582 -11.90010742 152.36931641 -11.33349609 152.55957031 C-10.61242676 152.81319336 -9.89135742 153.06681641 -9.1484375 153.328125 C-8.43349121 153.5746582 -7.71854492 153.82119141 -6.98193359 154.07519531 C-3.71026232 155.60181403 -2.57876609 157.84246782 -1 161 C-0.79375 162.155 -0.5875 163.31 -0.375 164.5 C1.72402737 169.84297877 6.03489402 171.49912558 11 174 C17.45522252 166.37734362 23.67866899 158.62655672 29.72363281 150.67626953 C31.93129704 147.77691556 34.15354923 144.88879508 36.375 142 C37.16648437 140.96875 37.95796875 139.9375 38.7734375 138.875 C41 136 41 136 43.36328125 133.41015625 C45.26603545 131.16221413 45.26603545 131.16221413 44.76953125 128.68359375 C44.45371094 127.94238281 44.13789063 127.20117188 43.8125 126.4375 C43.35810547 125.32181641 43.35810547 125.32181641 42.89453125 124.18359375 C42.59933594 123.46300781 42.30414063 122.74242187 42 122 C39.53482209 113.59893317 40.98224146 105.69502907 45 98 C49.62166299 91.63190215 55.35287506 87.81265184 63 86 C72.26059695 84.72815836 79.60845423 87.0999226 87.3125 92.1875 C94.02514429 99.2123603 96.37445192 106.50499442 96.28515625 116.046875 C95.64557086 122.67052641 92.85747023 129.39818609 88 134 C81.64158859 138.40446834 76.39739588 141.15293189 68.5625 141.125 C67.48162109 141.12886719 67.48162109 141.12886719 66.37890625 141.1328125 C63.537019 140.97415213 60.79864831 140.50738085 58 140 C57.51273437 140.65742188 57.02546875 141.31484375 56.5234375 141.9921875 C50.60910092 149.92815186 44.5512365 157.74626782 38.46484375 165.55078125 C33.94747673 171.34487711 29.47055444 177.16973775 25 183 C26.59171971 186.72567362 28.95268446 189.3552007 31.625 192.375 C41.23429029 203.62706779 48.55667768 217.5572302 52 232 C52.95498383 232.01617371 53.90996765 232.03234741 54.89389038 232.04901123 C63.92693857 232.20448953 72.95940475 232.38010264 81.99168968 232.57505417 C86.63447672 232.67462627 91.27718051 232.76728534 95.92041016 232.84375 C100.40773607 232.91790832 104.89433373 233.01074248 109.38103104 233.11612701 C111.08636222 233.15297671 112.79184881 233.18327917 114.49741745 233.20668793 C125.52811292 233.36339937 136.78917972 233.55458485 145 242 C150.86078098 250.08153275 152.00039499 257.00754894 151 267 C148.92473485 273.82138723 145.10225784 279.24746213 139 283 C132 286 132 286 108 286 C108 351.01 108 416.02 108 483 C111.3 483 114.6 483 118 483 C120.625 484.625 120.625 484.625 122 487 C122.5625 489.9375 122.5625 489.9375 122 493 C119.32479185 496.44741084 117.84471797 497.84909161 113.49819702 498.62559515 C112.12174473 498.65135205 110.74461298 498.64973729 109.36811733 498.62641239 C108.60377834 498.63338 107.83943935 498.64034761 107.05193856 498.64752635 C104.48141995 498.66482141 101.91239839 498.6463793 99.34190369 498.62818909 C97.48427204 498.6332324 95.62664525 498.64045956 93.76902968 498.64968723 C88.65717792 498.66866682 83.54580266 498.6563436 78.4339627 498.6389643 C72.92401245 498.62562385 67.41413345 498.64101539 61.90419006 498.65278625 C51.10766352 498.67119168 40.31131763 498.66263129 29.51479667 498.64469803 C20.74300637 498.63068869 11.97126521 498.62677564 3.1994648 498.6301403 C1.32884447 498.63085647 1.32884447 498.63085647 -0.57956616 498.6315871 C-3.11274558 498.6326134 -5.64592499 498.63366875 -8.17910438 498.63475286 C-31.26969485 498.64358486 -54.36020066 498.62490928 -77.45076363 498.59422263 C-98.53792946 498.56635798 -119.62497999 498.56139964 -140.7121582 498.57641602 C-146.11223628 498.58023833 -151.51231436 498.58403309 -156.91239262 498.5875864 C-157.57716894 498.58802422 -158.24194526 498.58846203 -158.92686631 498.58891311 C-176.53863712 498.60014759 -194.15039974 498.59273522 -211.76216787 498.57970566 C-214.28587209 498.57786121 -216.80957633 498.57602648 -219.33328056 498.57420158 C-220.5750924 498.57328949 -221.81690423 498.5723774 -223.09634672 498.57143768 C-231.86148831 498.56582373 -240.62660078 498.56914741 -249.3917408 498.57574654 C-260.06786576 498.58346509 -270.74386664 498.57678044 -281.41996653 498.5515715 C-286.87055102 498.5390425 -292.32094201 498.53297106 -297.77153397 498.54411316 C-302.75611101 498.55411052 -307.74030109 498.54579256 -312.7248308 498.52253198 C-314.53294398 498.51734741 -316.34109148 498.51897962 -318.14918996 498.52792663 C-320.59791588 498.5390404 -323.04531468 498.52578001 -325.49395847 498.50615788 C-326.55898571 498.5197761 -326.55898571 498.5197761 -327.64552864 498.53366944 C-330.8025289 498.48399722 -332.76019839 498.15359595 -335.43766731 496.4386434 C-337.54941058 493.14242562 -337.55324767 490.26769652 -337.50336456 486.47554779 C-337.51208521 485.32823751 -337.51208521 485.32823751 -337.52098203 484.15774924 C-337.53564869 481.57958156 -337.52166623 479.00235601 -337.50793457 476.42419434 C-337.51254086 474.56330295 -337.51889194 472.70241519 -337.52684355 470.84153509 C-337.54359737 465.71608676 -337.53526307 460.59093496 -337.52289867 455.46548533 C-337.5138752 449.94257101 -337.52780445 444.41970888 -337.53881836 438.89680481 C-337.55663712 428.07276221 -337.55274866 417.24883035 -337.5411678 406.42478335 C-337.53214694 397.63056631 -337.53090363 388.83638037 -337.53526306 380.04216003 C-337.53587599 378.79216897 -337.53648893 377.5421779 -337.53712043 376.25430831 C-337.53839929 373.71525036 -337.53969614 371.17619242 -337.5410108 368.63713449 C-337.55210078 345.48874678 -337.54058552 322.34041705 -337.51964041 299.19204267 C-337.50065736 278.05133589 -337.50235584 256.91072547 -337.52148438 235.77001953 C-337.54289365 212.02918003 -337.5513277 188.2883872 -337.53903532 164.54753542 C-337.53776108 162.01763694 -337.5365036 159.48773846 -337.53526306 156.95783997 C-337.53464596 155.71296903 -337.53402886 154.4680981 -337.53339306 153.18550381 C-337.52993434 144.39832954 -337.53577971 135.61118938 -337.54518127 126.82402039 C-337.55638114 116.12042892 -337.55340364 105.41695484 -337.5320583 94.71337688 C-337.52152077 89.24861873 -337.51747199 83.78405655 -337.53065491 78.3192997 C-337.54252877 73.32173684 -337.53609932 68.32455254 -337.5147447 63.32702428 C-337.51025731 61.5141679 -337.51259242 59.70127987 -337.52224785 57.88844365 C-337.53432635 55.43331836 -337.52202531 52.97950761 -337.50336456 50.52445221 C-337.51272923 49.81254386 -337.52209389 49.10063551 -337.53174233 48.36715418 C-337.48079881 45.03791468 -337.198219 43.26627943 -335.18728971 40.56487799 C-331.96185051 38.2572647 -329.8610421 38.37947538 -326 39 C-323.07996488 41.76017187 -322.081987 43.43297031 -321.50320601 47.43587333 C-321.48432966 48.78087225 -321.48736071 50.12628889 -321.50780869 51.47126484 C-321.50319331 52.21823011 -321.49857793 52.96519538 -321.49382269 53.73479596 C-321.48320715 56.2460245 -321.50120118 58.75623391 -321.51898193 61.26741028 C-321.51723809 63.08251536 -321.51373663 64.89761947 -321.50862527 66.71271819 C-321.49966468 71.70684084 -321.51570386 76.70062153 -321.53573751 81.6947006 C-321.55298249 87.07775777 -321.54716791 92.46079505 -321.54412842 97.84387207 C-321.54202919 107.17251481 -321.55459831 116.50104579 -321.57707977 125.82966042 C-321.60956318 139.3173173 -321.62000305 152.80492004 -321.62503174 166.2926118 C-321.63379013 188.17451599 -321.6604205 210.05636059 -321.69824219 231.93823242 C-321.73494818 253.19669293 -321.76326686 274.45513726 -321.78027344 295.71362305 C-321.78132433 297.02360049 -321.78237523 298.33357793 -321.78345796 299.68325166 C-321.78867805 306.25490566 -321.79373289 312.82655978 -321.79870558 319.39821398 C-321.84018456 373.93218423 -321.9109448 428.46608829 -322 483 C-312.76 483 -303.52 483 -294 483 C-294 441.75 -294 400.5 -294 358 C-267.27 358 -240.54 358 -213 358 C-213 399.25 -213 440.5 -213 483 C-204.42 483 -195.84 483 -187 483 C-187 416.34 -187 349.68 -187 281 C-172.15 281 -157.3 281 -142 281 C-142.99 276.05 -142.99 276.05 -144 271 C-146.49564215 240.69787101 -140.17350186 214.79450399 -120.5625 191.3125 C-119.05229913 189.5319729 -117.52983241 187.76377056 -116 186 C-119.06400971 183.41122445 -122.16547894 180.87586684 -125.30126953 178.37451172 C-126.45684042 177.43949245 -127.60075635 176.48992385 -128.73388672 175.52783203 C-132.63220898 172.22576189 -136.4015551 169.26426351 -141 167 C-144.02579224 167.30212829 -145.74217118 168.22381466 -148.3515625 169.75390625 C-154.29453104 172.55008171 -162.76058403 171.89026642 -169 170 C-169.99966797 171.28970703 -169.99966797 171.28970703 -171.01953125 172.60546875 C-175.73823609 178.66644447 -180.50258892 184.66577533 -185.5 190.5 C-189.69077348 195.39640832 -193.70836289 200.40074852 -197.6640625 205.48828125 C-201.3615864 210.22736117 -205.16501424 214.87171232 -209 219.5 C-213.78257132 225.27296403 -218.50829607 231.07977461 -223.06689453 237.03198242 C-225.26866578 239.88816671 -227.5222527 242.60371731 -230.0078125 245.21875 C-235.04307255 250.06125454 -235.04307255 250.06125454 -236.98828125 256.359375 C-236.22527604 258.59310046 -236.22527604 258.59310046 -235.09765625 260.7265625 C-232.38120252 266.35281185 -232.48448775 273.06826478 -233.875 279.0625 C-236.32362966 286.00951718 -241.19739999 291.5892013 -247.390625 295.515625 C-254.37649204 298.7156028 -262.0942352 299.3559412 -269.515625 297.3046875 C-277.68137428 293.99950327 -283.20052969 288.89120757 -287 281 C-289.44895924 273.16999427 -288.90859616 264.96164776 -285.5 257.5625 C-281.43447064 250.36233352 -276.72968643 246.71451264 -268.9375 244.125 C-263.53718559 242.72124855 -258.95376519 242.39610894 -253.5625 244.0625 C-250.07736464 244.36098716 -250.07736464 244.36098716 -248.16796875 242.5546875 C-245.97016858 240.12860259 -243.98392271 237.6043367 -242 235 C-240.74363543 233.40661064 -239.48721457 231.81326507 -238.22949219 230.22094727 C-237.31270043 229.05611938 -236.39938189 227.88855086 -235.48925781 226.71850586 C-231.74484699 221.9067213 -227.89088046 217.19382776 -224 212.5 C-219.69572826 207.30569241 -215.4532911 202.07558393 -211.3125 196.75 C-207.80730397 192.24331939 -204.21189245 187.83798687 -200.5 183.5 C-196.55434418 178.88300015 -192.70478559 174.20142199 -188.9375 169.4375 C-188.47214844 168.85355469 -188.00679687 168.26960937 -187.52734375 167.66796875 C-184.25393259 163.62597171 -184.25393259 163.62597171 -182 159 C-182.69891147 157.33592507 -183.40827859 155.67489116 -184.1875 154.046875 C-186.85611849 147.32400918 -186.53639528 139.69326532 -184 133 C-180.54545979 125.97421214 -175.87349002 121.66586134 -169 118 C-162.16665285 115.72221762 -152.71442368 115.84420391 -146 118.5625 C-139.42535359 122.10364665 -134.53826511 127.31911811 -131.56640625 134.171875 C-130.94367274 137.28124785 -131.32837756 139.8231108 -131.75146484 142.93896484 C-132.20014823 146.8854393 -132.45039607 150.23478843 -131 154 C-126.19832067 159.65249648 -119.69123929 163.57911889 -113.43701172 167.45117188 C-111.21842509 168.86118125 -109.17194264 170.37368746 -107.09765625 171.984375 C-104.31783962 174.2849496 -104.31783962 174.2849496 -101.94506836 173.67626953 C-97.88570625 172.26489347 -94.30501485 170.81447461 -91 168 C-89.67201543 165.22480004 -88.82673406 162.48550759 -87.953125 159.5390625 C-87 157 -87 157 -84.0625 154.3125 C-80.9894414 152.99547489 -79.26802958 152.88387712 -76 153 C-80.68048159 137.61416158 -85.34560268 128.28257653 -97.31787109 117.43261719 C-112.04305001 103.86641485 -119.87301813 85.93427143 -121.28125 66.0234375 C-122.00725906 45.20443203 -115.28490666 26.52026254 -101.6875 10.8125 C-90.41138424 -1.16364308 -76.2831435 -9.83237884 -60 -13 C-58.62714844 -13.27263672 -58.62714844 -13.27263672 -57.2265625 -13.55078125 C-37.00940906 -16.36551811 -16.73208681 -11.83293179 0 0 Z M26 326 C24.9264196 327.13545823 23.8668856 328.28419549 22.8125 329.4375 C17.28320327 335.07738267 10.68998238 338.90270456 4 343 C3.01 343.66 2.02 344.32 1 345 C0.55180179 347.50346102 0.55180179 347.50346102 0.63923645 350.47952271 C0.63511246 351.64342529 0.63098846 352.80732788 0.6267395 354.00650024 C0.63752533 355.28971161 0.64831116 356.57292297 0.65942383 357.89501953 C0.66026971 359.25490297 0.65979572 360.61478777 0.65809631 361.97467041 C0.6572334 365.67290043 0.67490669 369.37084023 0.69581819 373.06900263 C0.7145359 376.93139339 0.71633154 380.79379036 0.71989441 384.65621948 C0.72922935 391.97315609 0.75386262 399.28995868 0.78394288 406.6068362 C0.81744193 414.93560485 0.83396156 423.2643798 0.84902918 431.59319901 C0.88041102 448.72889023 0.93544104 465.86439679 1 483 C9.58 483 18.16 483 27 483 C27 431.19 27 379.38 27 326 C26.67 326 26.34 326 26 326 Z M-106 336 C-106 384.51 -106 433.02 -106 483 C-97.42 483 -88.84 483 -80 483 C-80 439.11 -80 395.22 -80 350 C-86.93 346.37 -93.86 342.74 -101 339 C-102.65 338.01 -104.3 337.02 -106 336 Z " fill="#FD646F" transform="translate(349,14)"/>
<path d="M0 0 C2.92003512 2.76017187 3.918013 4.43297031 4.49679399 8.43587333 C4.51567034 9.78087225 4.51263929 11.12628889 4.49219131 12.47126484 C4.49680669 13.21823011 4.50142207 13.96519538 4.50617731 14.73479596 C4.51679285 17.2460245 4.49879882 19.75623391 4.48101807 22.26741028 C4.48276191 24.08251536 4.48626337 25.89761947 4.49137473 27.71271819 C4.50033532 32.70684084 4.48429614 37.70062153 4.46426249 42.6947006 C4.44701751 48.07775777 4.45283209 53.46079505 4.45587158 58.84387207 C4.45797081 68.17251481 4.44540169 77.50104579 4.42292023 86.82966042 C4.39043682 100.3173173 4.37999695 113.80492004 4.37496826 127.2926118 C4.36620987 149.17451599 4.3395795 171.05636059 4.30175781 192.93823242 C4.26505182 214.19669293 4.23673314 235.45513726 4.21972656 256.71362305 C4.21867567 258.02360049 4.21762477 259.33357793 4.21654204 260.68325166 C4.21132195 267.25490566 4.20626711 273.82655978 4.20129442 280.39821398 C4.15981544 334.93218423 4.0890552 389.46608829 4 444 C13.24 444 22.48 444 32 444 C32 402.75 32 361.5 32 319 C58.73 319 85.46 319 113 319 C113 360.25 113 401.5 113 444 C176.03 444 239.06 444 304 444 C304 401.1 304 358.2 304 314 C321 308 321 308 327 306 C327 351.54 327 397.08 327 444 C335.58 444 344.16 444 353 444 C352.98223511 442.02802139 352.96447021 440.05604279 352.94616699 438.02430725 C352.78259258 419.44077023 352.6635895 400.85732824 352.58550262 382.27323246 C352.54428823 372.71889346 352.48811995 363.16508342 352.39648438 353.61108398 C352.31663302 345.28173109 352.26510751 336.95276135 352.24729204 328.62303632 C352.23688107 324.21411566 352.21249476 319.8062909 352.15415955 315.39772224 C352.09963601 311.24334187 352.08315082 307.09050285 352.09513855 302.93579865 C352.09294739 301.41562697 352.07716211 299.89540087 352.0463562 298.37553978 C351.9071888 291.1518469 351.85497619 285.4254799 356.89807129 279.76463318 C358.26266153 278.50679892 359.62973115 277.25164566 361 276 C362.74518681 273.55557748 364.20358207 271.0185938 365.625 268.375 C365.99834473 267.69187744 366.37168945 267.00875488 366.75634766 266.30493164 C375.20486419 250.50442364 379.22014943 235.2108675 379.3125 217.25 C379.31813965 216.20859863 379.3237793 215.16719727 379.32958984 214.09423828 C379.26516576 207.20959687 378.4524443 200.72763552 377 194 C422.54668337 193.81012478 422.54668337 193.81012478 440.32177734 194.20852661 C442.25596879 194.24882227 444.19051032 194.27104584 446.125 194.29272461 C455.29890032 194.54566287 464.34376706 196.15358897 471 203 C476.86078098 211.08153275 478.00039499 218.00754894 477 228 C474.92473485 234.82138723 471.10225784 240.24746213 465 244 C458 247 458 247 434 247 C434 312.01 434 377.02 434 444 C437.3 444 440.6 444 444 444 C446.625 445.625 446.625 445.625 448 448 C448.5625 450.9375 448.5625 450.9375 448 454 C445.32479185 457.44741084 443.84471797 458.84909161 439.49819702 459.62559515 C438.12174473 459.65135205 436.74461298 459.64973729 435.36811733 459.62641239 C434.60377834 459.63338 433.83943935 459.64034761 433.05193856 459.64752635 C430.48141995 459.66482141 427.91239839 459.6463793 425.34190369 459.62818909 C423.48427204 459.6332324 421.62664525 459.64045956 419.76902968 459.64968723 C414.65717792 459.66866682 409.54580266 459.6563436 404.4339627 459.6389643 C398.92401245 459.62562385 393.41413345 459.64101539 387.90419006 459.65278625 C377.10766352 459.67119168 366.31131763 459.66263129 355.51479667 459.64469803 C346.74300637 459.63068869 337.97126521 459.62677564 329.1994648 459.6301403 C327.32884447 459.63085647 327.32884447 459.63085647 325.42043384 459.6315871 C322.88725442 459.6326134 320.35407501 459.63366875 317.82089562 459.63475286 C294.73030515 459.64358486 271.63979934 459.62490928 248.54923637 459.59422263 C227.46207054 459.56635798 206.37502001 459.56139964 185.2878418 459.57641602 C179.88776372 459.58023833 174.48768564 459.58403309 169.08760738 459.5875864 C168.42283106 459.58802422 167.75805474 459.58846203 167.07313369 459.58891311 C149.46136288 459.60014759 131.84960026 459.59273522 114.23783213 459.57970566 C111.71412791 459.57786121 109.19042367 459.57602648 106.66671944 459.57420158 C105.4249076 459.57328949 104.18309577 459.5723774 102.90365328 459.57143768 C94.13851169 459.56582373 85.37339922 459.56914741 76.6082592 459.57574654 C65.93213424 459.58346509 55.25613336 459.57678044 44.58003347 459.5515715 C39.12944898 459.5390425 33.67905799 459.53297106 28.22846603 459.54411316 C23.24388899 459.55411052 18.25969891 459.54579256 13.2751692 459.52253198 C11.46705602 459.51734741 9.65890852 459.51897962 7.85081004 459.52792663 C5.40208412 459.5390404 2.95468532 459.52578001 0.50604153 459.50615788 C-0.20397663 459.51523669 -0.91399479 459.52431551 -1.64552864 459.53366944 C-4.8025289 459.48399722 -6.76019839 459.15359595 -9.43766731 457.4386434 C-11.54941058 454.14242562 -11.55324767 451.26769652 -11.50336456 447.47554779 C-11.51208521 446.32823751 -11.51208521 446.32823751 -11.52098203 445.15774924 C-11.53564869 442.57958156 -11.52166623 440.00235601 -11.50793457 437.42419434 C-11.51254086 435.56330295 -11.51889194 433.70241519 -11.52684355 431.84153509 C-11.54359737 426.71608676 -11.53526307 421.59093496 -11.52289867 416.46548533 C-11.5138752 410.94257101 -11.52780445 405.41970888 -11.53881836 399.89680481 C-11.55663712 389.07276221 -11.55274866 378.24883035 -11.5411678 367.42478335 C-11.53214694 358.63056631 -11.53090363 349.83638037 -11.53526306 341.04216003 C-11.53587599 339.79216897 -11.53648893 338.5421779 -11.53712043 337.25430831 C-11.53839929 334.71525036 -11.53969614 332.17619242 -11.5410108 329.63713449 C-11.55210078 306.48874678 -11.54058552 283.34041705 -11.51964041 260.19204267 C-11.50065736 239.05133589 -11.50235584 217.91072547 -11.52148438 196.77001953 C-11.54289365 173.02918003 -11.5513277 149.2883872 -11.53903532 125.54753542 C-11.53776108 123.01763694 -11.5365036 120.48773846 -11.53526306 117.95783997 C-11.53464596 116.71296903 -11.53402886 115.4680981 -11.53339306 114.18550381 C-11.52993434 105.39832954 -11.53577971 96.61118938 -11.54518127 87.82402039 C-11.55638114 77.12042892 -11.55340364 66.41695484 -11.5320583 55.71337688 C-11.52152077 50.24861873 -11.51747199 44.78405655 -11.53065491 39.3192997 C-11.54252877 34.32173684 -11.53609932 29.32455254 -11.5147447 24.32702428 C-11.51025731 22.5141679 -11.51259242 20.70127987 -11.52224785 18.88844365 C-11.53432635 16.43331836 -11.52202531 13.97950761 -11.50336456 11.52445221 C-11.51272923 10.81254386 -11.52209389 10.10063551 -11.53174233 9.36715418 C-11.48079881 6.03791468 -11.198219 4.26627943 -9.18728971 1.56487799 C-5.96185051 -0.7427353 -3.8610421 -0.62052462 0 0 Z " fill="#365E7D" transform="translate(23,53)"/>
<path d="M0 0 C45.54668337 -0.18987522 45.54668337 -0.18987522 63.32177734 0.20852661 C65.25596879 0.24882227 67.19051032 0.27104584 69.125 0.29272461 C78.29890032 0.54566287 87.34376706 2.15358897 94 9 C99.86078098 17.08153275 101.00039499 24.00754894 100 34 C97.92473485 40.82138723 94.10225784 46.24746213 88 50 C81 53 81 53 57 53 C57 118.01 57 183.02 57 250 C30.27 250 3.54 250 -24 250 C-24.32242427 210.48959212 -24.32242427 210.48959212 -24.390625 193.91992188 C-24.43807618 182.48335032 -24.49382756 171.04725062 -24.60351562 159.61108398 C-24.68336698 151.28173109 -24.73489249 142.95276135 -24.75270796 134.62303632 C-24.76311893 130.21411566 -24.78750524 125.8062909 -24.84584045 121.39772224 C-24.90036399 117.24334187 -24.91684918 113.09050285 -24.90486145 108.93579865 C-24.90705261 107.41562697 -24.92283789 105.89540087 -24.9536438 104.37553978 C-25.0928112 97.1518469 -25.14502381 91.4254799 -20.10192871 85.76463318 C-18.73733847 84.50679892 -17.37026885 83.25164566 -16 82 C-14.25481319 79.55557748 -12.79641793 77.0185938 -11.375 74.375 C-11.00165527 73.69187744 -10.62831055 73.00875488 -10.24365234 72.30493164 C-1.79513581 56.50442364 2.22014943 41.2108675 2.3125 23.25 C2.31813965 22.20859863 2.3237793 21.16719727 2.32958984 20.09423828 C2.26516576 13.20959687 1.4524443 6.72763552 0 0 Z " fill="#6BA6FE" transform="translate(400,247)"/>
<path d="M0 0 C3.50611147 2.83652327 6.78474365 5.83914731 10 9 C10.94166016 9.92232422 10.94166016 9.92232422 11.90234375 10.86328125 C26.11606206 25.91499656 31.83474545 46.03357675 31.3046875 66.3125 C30.22608547 87.8845406 19.77431919 106.5849192 4 121 C2.79444833 121.98258943 1.58613009 122.96179476 0.375 123.9375 C-7.33412715 130.57973902 -9.40377821 138.96066876 -11.984375 148.46484375 C-13 152 -13 152 -14 153 C-15.93306498 153.09396057 -17.86958838 153.11743517 -19.80493164 153.11352539 C-21.04614273 153.11344986 -22.28735382 153.11337433 -23.56617737 153.11329651 C-24.9308374 153.10818911 -26.29549702 153.1029731 -27.66015625 153.09765625 C-29.04878183 153.095792 -30.43740807 153.09436813 -31.82603455 153.09336853 C-35.48721115 153.08954387 -39.1483483 153.07971403 -42.80950928 153.06866455 C-46.54292263 153.05844932 -50.27634234 153.05387067 -54.00976562 153.04882812 C-61.33986177 153.03809171 -68.66992536 153.02101591 -76 153 C-76.60726929 151.13359863 -76.60726929 151.13359863 -77.22680664 149.22949219 C-77.76688363 147.58521871 -78.30717829 145.94101672 -78.84765625 144.296875 C-79.11340454 143.47815918 -79.37915283 142.65944336 -79.6529541 141.81591797 C-83.24867093 130.9157986 -88.95179674 125.01443572 -97.31787109 117.43261719 C-112.04305001 103.86641485 -119.87301813 85.93427143 -121.28125 66.0234375 C-122.00725906 45.20443203 -115.28490666 26.52026254 -101.6875 10.8125 C-90.41138424 -1.16364308 -76.2831435 -9.83237884 -60 -13 C-59.08476562 -13.18175781 -58.16953125 -13.36351562 -57.2265625 -13.55078125 C-37.00940906 -16.36551811 -16.73208681 -11.83293179 0 0 Z " fill="#F8D165" transform="translate(349,14)"/>
<path d="M0 0 C1.03936707 -0.0098568 1.03936707 -0.0098568 2.09973145 -0.01991272 C4.39754339 -0.03965523 6.69528989 -0.05131156 8.99316406 -0.0612793 C9.7781855 -0.06535482 10.56320694 -0.06943035 11.37201691 -0.07362938 C15.52860756 -0.09449614 19.68516516 -0.1087941 23.84179688 -0.11816406 C28.13034004 -0.12921805 32.41836282 -0.16360404 36.70672226 -0.20333576 C40.00792386 -0.22951544 43.30900188 -0.23785716 46.61029816 -0.24144554 C48.19071204 -0.24630959 49.77112047 -0.2579185 51.3514328 -0.27648354 C53.5680374 -0.30090072 55.78330135 -0.2999059 58 -0.29296875 C59.88957428 -0.30176811 59.88957428 -0.30176811 61.81732178 -0.31074524 C65.92996801 0.27212581 68.06087904 1.56625596 71.25878906 4.17700195 C73.47062444 7.95852696 74.27320734 10.35515988 74.19628906 14.73950195 C72.6922913 20.2541604 70.0789284 24.07834095 65.25878906 27.17700195 C66.02191406 27.56887695 66.78503906 27.96075195 67.57128906 28.36450195 C70.72320988 30.490216 71.83213834 31.64791858 73.25878906 35.17700195 C73.83749742 39.98900159 73.87504858 43.89312796 71.75878906 48.30200195 C71.26378906 48.92075195 70.76878906 49.53950195 70.25878906 50.17700195 C71.11730469 50.55405273 71.11730469 50.55405273 71.99316406 50.9387207 C84.33907936 57.68640199 91.00571058 72.28070796 95.34863281 84.9855957 C100.40080774 102.7007327 97.69848765 120.86412746 89.44628906 137.05200195 C79.19254 154.5174671 63.79252461 166.02428781 44.25878906 171.17700195 C26.81790625 175.56668361 8.31142135 171.05141794 -6.91064453 162.29614258 C-22.29428725 152.89115215 -31.74611595 138.25049093 -37.23339844 121.3371582 C-41.79126206 101.94870756 -38.37354239 82.82421887 -27.96972656 65.9831543 C-23.91223764 60.01787149 -18.74702924 54.18088082 -12.74121094 50.17700195 C-13.09183594 49.20762695 -13.44246094 48.23825195 -13.80371094 47.23950195 C-15.05605039 42.7564897 -15.02876355 38.65898888 -13.74121094 34.17700195 C-11.85062919 31.07010189 -9.30370325 28.73949427 -6.74121094 26.17700195 C-7.22332031 25.80188477 -7.70542969 25.42676758 -8.20214844 25.0402832 C-15.03703949 19.50262658 -15.03703949 19.50262658 -15.74121094 15.17700195 C-15.3634959 10.25771327 -14.42896187 7.00230307 -11.24121094 3.17700195 C-7.26675877 -0.00255978 -5.07036105 0.03972331 0 0 Z " fill="#8DC9FB" transform="translate(274.7412109375,166.822998046875)"/>
<path d="M0 0 C15.18 0 30.36 0 46 0 C46.99 2.64 47.98 5.28 49 8 C54.88020892 23.38520416 65.4114683 45.20573415 81 53 C81 102.17 81 151.34 81 202 C54.27 202 27.54 202 0 202 C0 135.34 0 68.68 0 0 Z " fill="#F8D165" transform="translate(162,295)"/>
<path d="M0 0 C26.73 0 53.46 0 81 0 C81 41.25 81 82.5 81 125 C54.27 125 27.54 125 0 125 C0 83.75 0 42.5 0 0 Z " fill="#EC596E" transform="translate(55,372)"/>
<path d="M0 0 C45.54668337 -0.18987522 45.54668337 -0.18987522 63.32177734 0.20852661 C65.25596879 0.24882227 67.19051032 0.27104584 69.125 0.29272461 C78.29890032 0.54566287 87.34376706 2.15358897 94 9 C99.86078098 17.08153275 101.00039499 24.00754894 100 34 C97.92473485 40.82138723 94.10225784 46.24746213 88 50 C81 53 81 53 57 53 C57 118.01 57 183.02 57 250 C49.41 250 41.82 250 34 250 C34 184.66 34 119.32 34 52 C22.45 52 10.9 52 -1 52 C-0.01 46.72 0.98 41.44 2 36 C2.23720856 31.66137885 2.38154171 27.50951094 2.3125 23.1875 C2.31733398 21.64545898 2.31733398 21.64545898 2.32226562 20.07226562 C2.27447366 13.19456758 1.44919186 6.72003623 0 0 Z " fill="#4F66D0" transform="translate(400,247)"/>
<path d="M0 0 C9 2 9 2 12.9375 3.0625 C20.28898414 4.88601267 27.70173385 5.10418768 35.25 5.1875 C36.23117798 5.20707764 36.23117798 5.20707764 37.23217773 5.22705078 C44.40309678 5.23910419 50.67211117 4.04684126 58 3 C58 45.9 58 88.8 58 133 C38.86 133 19.72 133 0 133 C0 89.11 0 45.22 0 0 Z " fill="#65CB98" transform="translate(269,364)"/>
<path d="M0 0 C5.57299592 4.64259694 9.17393481 9.74405986 12.44140625 16.1796875 C12.85519531 16.89125 13.26898438 17.6028125 13.6953125 18.3359375 C18.41209871 27.67090116 17.83646078 40.06860792 15.55859375 50.046875 C10.54247542 64.16508884 0.66617614 73.35894845 -12.43359375 80.015625 C-15.55859375 81.1796875 -15.55859375 81.1796875 -23.55859375 82.1796875 C-23.55859375 96.6996875 -23.55859375 111.2196875 -23.55859375 126.1796875 C-27.84859375 126.1796875 -32.13859375 126.1796875 -36.55859375 126.1796875 C-36.55859375 111.6596875 -36.55859375 97.1396875 -36.55859375 82.1796875 C-39.52859375 81.5196875 -42.49859375 80.8596875 -45.55859375 80.1796875 C-57.91014431 75.75445572 -67.26104575 66.24482781 -72.80859375 54.54296875 C-76.87349841 44.19722183 -77.51396779 31.10668547 -73.65625 20.57421875 C-66.69700989 5.39267359 -57.62706766 -2.34631063 -42.55859375 -8.8203125 C-28.44332417 -13.78204363 -11.55815518 -8.22305391 0 0 Z " fill="#F0AE42" transform="translate(333.55859375,40.8203125)"/>
<path d="M0 0 C6.57464641 3.54114665 11.46173489 8.75661811 14.43359375 15.609375 C15.05632129 18.71871802 14.67177888 21.26043124 14.24829102 24.3762207 C13.80040271 28.32001592 13.55491522 31.67411964 15 35.4375 C19.77643643 41.06778865 26.26214173 44.92412586 32.46484375 48.81005859 C36.12508482 51.15974725 39.56730191 53.77011879 43 56.4375 C41.73973202 60.21830393 40.06453466 61.21045425 36.9375 63.625 C36.01839844 64.34042969 35.09929687 65.05585938 34.15234375 65.79296875 C33.08693359 66.60701172 33.08693359 66.60701172 32 67.4375 C26.06642864 64.28826494 20.98524935 60.44249067 15.75 56.25 C14.16450484 54.98185878 12.57608805 53.71735923 10.984375 52.45703125 C10.29053711 51.90120361 9.59669922 51.34537598 8.88183594 50.77270508 C6.93499002 49.25412829 6.93499002 49.25412829 4 48.4375 C2.15207808 49.21326265 2.15207808 49.21326265 0.1875 50.375 C-6.76882877 53.69298576 -15.64686679 53.67067379 -23 51.4375 C-23.99966797 52.72720703 -23.99966797 52.72720703 -25.01953125 54.04296875 C-29.73823609 60.10394447 -34.50258892 66.10327533 -39.5 71.9375 C-43.69077348 76.83390832 -47.70836289 81.83824852 -51.6640625 86.92578125 C-55.3615864 91.66486117 -59.16501424 96.30921232 -63 100.9375 C-67.78257132 106.71046403 -72.50829607 112.51727461 -77.06689453 118.46948242 C-79.26866578 121.32566671 -81.5222527 124.04121731 -84.0078125 126.65625 C-89.04307255 131.49875454 -89.04307255 131.49875454 -90.98828125 137.796875 C-90.22527604 140.03060046 -90.22527604 140.03060046 -89.09765625 142.1640625 C-86.38120252 147.79031185 -86.48448775 154.50576478 -87.875 160.5 C-90.32362966 167.44701718 -95.19739999 173.0267013 -101.390625 176.953125 C-108.37649204 180.1531028 -116.0942352 180.7934412 -123.515625 178.7421875 C-131.68137428 175.43700327 -137.20052969 170.32870757 -141 162.4375 C-143.44895924 154.60749427 -142.90859616 146.39914776 -139.5 139 C-135.43447064 131.79983352 -130.72968643 128.15201264 -122.9375 125.5625 C-117.53718559 124.15874855 -112.95376519 123.83360894 -107.5625 125.5 C-104.07736464 125.79848716 -104.07736464 125.79848716 -102.16796875 123.9921875 C-99.97016858 121.56610259 -97.98392271 119.0418367 -96 116.4375 C-94.74363543 114.84411064 -93.48721457 113.25076507 -92.22949219 111.65844727 C-91.31270043 110.49361938 -90.39938189 109.32605086 -89.48925781 108.15600586 C-85.74484699 103.3442213 -81.89088046 98.63132776 -78 93.9375 C-73.69572826 88.74319241 -69.4532911 83.51308393 -65.3125 78.1875 C-61.80730397 73.68081939 -58.21189245 69.27548687 -54.5 64.9375 C-50.55434418 60.32050015 -46.70478559 55.63892199 -42.9375 50.875 C-42.47214844 50.29105469 -42.00679688 49.70710938 -41.52734375 49.10546875 C-38.25393259 45.06347171 -38.25393259 45.06347171 -36 40.4375 C-36.69891147 38.77342507 -37.40827859 37.11239116 -38.1875 35.484375 C-40.85611849 28.76150918 -40.53639528 21.13076532 -38 14.4375 C-34.54545979 7.41171214 -29.87349002 3.10336134 -23 -0.5625 C-16.16665285 -2.84028238 -6.71442368 -2.71829609 0 0 Z " fill="#65CB98" transform="translate(203,132.5625)"/>
<path d="M0 0 C7.59 0 15.18 0 23 0 C23 65.34 23 130.68 23 198 C15.41 198 7.82 198 0 198 C0 132.66 0 67.32 0 0 Z " fill="#498AEB" transform="translate(434,299)"/>
<path d="M0 0 C2.75094278 2.75094278 4.87622916 5.06260353 7.125 8.125 C14.0158438 17.25316092 14.0158438 17.25316092 23 24 C23 73.17 23 122.34 23 173 C15.41 173 7.82 173 0 173 C0 115.91 0 58.82 0 0 Z " fill="#F0AE42" transform="translate(220,324)"/>
<path d="M0 0 C1.03936707 -0.0098568 1.03936707 -0.0098568 2.09973145 -0.01991272 C4.39754339 -0.03965523 6.69528989 -0.05131156 8.99316406 -0.0612793 C9.7781855 -0.06535482 10.56320694 -0.06943035 11.37201691 -0.07362938 C15.52860756 -0.09449614 19.68516516 -0.1087941 23.84179688 -0.11816406 C28.13034004 -0.12921805 32.41836282 -0.16360404 36.70672226 -0.20333576 C40.00792386 -0.22951544 43.30900188 -0.23785716 46.61029816 -0.24144554 C48.19071204 -0.24630959 49.77112047 -0.2579185 51.3514328 -0.27648354 C53.5680374 -0.30090072 55.78330135 -0.2999059 58 -0.29296875 C59.88957428 -0.30176811 59.88957428 -0.30176811 61.81732178 -0.31074524 C65.92996801 0.27212581 68.06087904 1.56625596 71.25878906 4.17700195 C73.47062444 7.95852696 74.27320734 10.35515988 74.19628906 14.73950195 C72.6922913 20.2541604 70.0789284 24.07834095 65.25878906 27.17700195 C66.02191406 27.56887695 66.78503906 27.96075195 67.57128906 28.36450195 C70.72320988 30.490216 71.83213834 31.64791858 73.25878906 35.17700195 C73.99933097 39.53879377 74.26678265 43.41776787 72.01660156 47.3449707 C69.55039161 50.32037326 67.97745218 51.93744758 64.25878906 53.17700195 C62.19733799 53.24599295 60.13377505 53.26167922 58.07128906 53.23950195 C56.44126953 53.2259668 56.44126953 53.2259668 54.77832031 53.2121582 C53.946875 53.20055664 53.11542969 53.18895508 52.25878906 53.17700195 C52.31679688 53.73387695 52.37480469 54.29075195 52.43457031 54.86450195 C52.75686844 60.31594464 51.91368684 63.73125704 49.03613281 68.3527832 C44.84013796 72.65944166 40.94819965 74.37336367 35.04394531 74.7434082 C33.13649499 74.76315407 31.22871593 74.76139679 29.32128906 74.73950195 C27.89526367 74.77527344 27.89526367 74.77527344 26.44042969 74.81176758 C19.91990174 74.79828613 15.18299504 73.61365537 10.25878906 69.17700195 C6.36738596 63.76542475 6.19598538 59.69742882 6.25878906 53.17700195 C7.52996582 53.16241943 8.80114258 53.14783691 10.11083984 53.1328125 C14.84110198 53.07470388 19.57089436 52.99747147 24.30078125 52.91455078 C26.34529987 52.88136054 28.38990881 52.85331032 30.43457031 52.83056641 C33.37897112 52.79691202 36.32254861 52.74459029 39.26660156 52.6887207 C40.17620636 52.68233078 41.08581116 52.67594086 42.02297974 52.6693573 C47.14929859 52.55142779 50.84772104 52.07897491 55.25878906 49.17700195 C58.20778208 44.8518122 58.90633646 41.35738116 58.25878906 36.17700195 C56.14154123 32.16935428 54.48842277 29.80927883 50.25878906 28.17700195 C47.67616907 27.87850527 47.67616907 27.87850527 44.85107422 27.92163086 C43.22886459 27.91119247 43.22886459 27.91119247 41.57388306 27.90054321 C40.41029266 27.90154022 39.24670227 27.90253723 38.04785156 27.90356445 C35.58170119 27.88327603 33.11555538 27.86242525 30.64941406 27.84106445 C26.76298156 27.81845749 22.87672963 27.80199133 18.99023438 27.79614258 C15.23827504 27.78662226 11.48712881 27.75284874 7.73535156 27.71606445 C6.57580963 27.72110992 5.4162677 27.7261554 4.22158813 27.73135376 C-2.07859533 27.65453577 -5.94783331 27.40775299 -10.74121094 23.17700195 C-11.31871094 22.70262695 -11.89621094 22.22825195 -12.49121094 21.73950195 C-14.74202212 18.92598797 -15.84713042 16.71004705 -15.59277344 13.02856445 C-14.64739646 7.65953669 -13.11559771 4.67651137 -8.74121094 1.17700195 C-5.82756623 -0.2798204 -3.25435227 0.02549595 0 0 Z " fill="#A8D2D7" transform="translate(274.7412109375,166.822998046875)"/>
<path d="M0 0 C5.8376728 3.85506694 9.5167443 9.29676515 11.6171875 15.95703125 C13.42627845 25.61166967 11.28947811 33.43319089 6.375 41.75 C0.10083829 47.69394267 -6.76174367 51.15592961 -15.4375 51.125 C-16.51837891 51.12886719 -16.51837891 51.12886719 -17.62109375 51.1328125 C-20.462981 50.97415213 -23.20135169 50.50738085 -26 50 C-26.48726563 50.65742188 -26.97453125 51.31484375 -27.4765625 51.9921875 C-32.81132484 59.1504686 -38.24531795 66.22589417 -43.75195312 73.25292969 C-46.54203142 76.81701993 -49.30695834 80.39034975 -51.98046875 84.04296875 C-52.43107666 84.65213135 -52.88168457 85.26129395 -53.34594727 85.88891602 C-54.54442241 87.51563042 -55.72973329 89.15202042 -56.9140625 90.7890625 C-57.60242188 91.51867187 -58.29078125 92.24828125 -59 93 C-63.59151206 93 -64.33182124 92.31497074 -67.75 89.5 C-68.54921875 88.8503125 -69.3484375 88.200625 -70.171875 87.53125 C-71.07679688 86.77328125 -71.07679688 86.77328125 -72 86 C-71.46060275 81.78659507 -68.91045473 79.04901901 -66.3125 75.875 C-65.31311836 74.62945453 -64.31445663 73.3833312 -63.31640625 72.13671875 C-62.78160645 71.4720459 -62.24680664 70.80737305 -61.69580078 70.12255859 C-58.6748372 66.34135252 -55.71568567 62.51210446 -52.75 58.6875 C-51.61990751 57.2329829 -50.48970173 55.77855382 -49.359375 54.32421875 C-48.81732422 53.6185376 -48.27527344 52.91285645 -47.71679688 52.18579102 C-46.50359608 50.64116833 -45.25644221 49.12292996 -43.98632812 47.62475586 C-43.33599609 46.84366455 -42.68566406 46.06257324 -42.015625 45.2578125 C-41.11505371 44.2061792 -41.11505371 44.2061792 -40.19628906 43.13330078 C-38.75228415 41.03492206 -38.75228415 41.03492206 -39.24902344 38.46166992 C-39.99884371 36.19100159 -40.94984631 34.14543116 -42 32 C-44.52101957 23.63997381 -42.99513856 15.65170606 -39 8 C-29.47660041 -5.12210358 -13.92607909 -7.45339444 0 0 Z " fill="#65CB99" transform="translate(433,104)"/>
<path d="M0 0 C0.69738281 0.42410156 1.39476562 0.84820312 2.11328125 1.28515625 C9.23727277 6.10156483 13.73543466 12.72404302 16 21 C17.14335687 32.2208511 15.57106711 40.89643473 8.5 49.75 C1.89591059 56.60996742 -5.5039757 60.30044989 -15.0625 60.625 C-25.09113511 60.11694139 -32.75477823 57.26582116 -40.0546875 50.29296875 C-46.98666612 42.12214254 -48.67524333 33.42168003 -48 23 C-46.56632386 13.92443547 -41.84113135 6.70472884 -34.5625 1.125 C-23.96851009 -5.61875128 -10.90585678 -6.77133468 0 0 Z " fill="#F8D165" transform="translate(320,49)"/>
<path d="M0 0 C0 45.54 0 91.08 0 138 C-7.59 138 -15.18 138 -23 138 C-23 95.1 -23 52.2 -23 8 C-17.39 6.02 -11.78 4.04 -6 2 C-2 0 -2 0 0 0 Z " fill="#339966" transform="translate(350,359)"/>
<path d="M0 0 C7.92 0 15.84 0 24 0 C24 41.25 24 82.5 24 125 C16.08 125 8.16 125 0 125 C0 83.75 0 42.5 0 0 Z " fill="#D63046" transform="translate(112,372)"/>
<path d="M0 0 C14.56964294 8.21615591 22.5475047 23.3876023 27 39 C30.87141834 56.85847813 27.86165473 74.80342186 18.66015625 90.4765625 C7.48410217 107.4641647 -7.74545972 117.700508 -27.3828125 122.59375 C-30.71918132 123.11163412 -33.937876 123.09403854 -37.3125 123.0625 C-38.56675781 123.05347656 -39.82101562 123.04445313 -41.11328125 123.03515625 C-42.54220703 123.01775391 -42.54220703 123.01775391 -44 123 C-44.33 122.34 -44.66 121.68 -45 121 C-44.04480469 120.78085937 -43.08960938 120.56171875 -42.10546875 120.3359375 C-23.61684579 115.89146463 -9.25697637 106.34162337 1 90 C5.88078036 81.45690359 9.36425419 72.91082301 10 63 C10.04769531 62.27151855 10.09539062 61.54303711 10.14453125 60.79248047 C11.17751317 42.49763275 7.61349615 26.48406478 -4.44921875 12.07421875 C-6.03425549 10.31500215 -7.64161781 8.5754685 -9.27734375 6.86328125 C-11 5 -11 5 -11 4 C-10.37351562 3.87882813 -9.74703125 3.75765625 -9.1015625 3.6328125 C-8.28429687 3.46523437 -7.46703125 3.29765625 -6.625 3.125 C-5.81289063 2.96257812 -5.00078125 2.80015625 -4.1640625 2.6328125 C-1.81326077 2.13341068 -1.81326077 2.13341068 0 0 Z " fill="#4BAEF9" transform="translate(344,216)"/>
<path d="M0 0 C20.50723346 -0.84148222 39.57816338 4.67268641 55.1875 18.375 C56.80802796 19.89945922 58.41340725 21.44025315 60 23 C60.62777344 23.61488281 61.25554687 24.22976562 61.90234375 24.86328125 C76.11606206 39.91499656 81.83474545 60.03357675 81.3046875 80.3125 C80.22608547 101.8845406 69.77431919 120.5849192 54 135 C52.79444833 135.98258943 51.58613009 136.96179476 50.375 137.9375 C42.66587285 144.57973902 40.59622179 152.96066876 38.015625 162.46484375 C37 166 37 166 36 167 C33.98035801 167.07244053 31.95832876 167.08377188 29.9375 167.0625 C28.83277344 167.05347656 27.72804688 167.04445312 26.58984375 167.03515625 C25.30787109 167.01775391 25.30787109 167.01775391 24 167 C27.35052804 151.11455528 32.56248835 140.53161524 45.5 130.1875 C59.04393497 118.70593695 66.57291073 100.03283967 68.22314453 82.64941406 C69.533041 62.53695982 64.06863271 43.82737762 51.5 27.9375 C37.55317792 12.0726939 20.45505099 4.94170326 0 1 C0 0.67 0 0.34 0 0 Z " fill="#F0AF43" transform="translate(299,0)"/>
<path d="M0 0 C1.12489334 -0.00960754 2.24978668 -0.01921509 3.4087677 -0.02911377 C5.23996407 -0.03548859 5.23996407 -0.03548859 7.1081543 -0.04199219 C8.98388374 -0.0505423 8.98388374 -0.0505423 10.89750671 -0.05926514 C13.54808188 -0.06872628 16.19854352 -0.07561722 18.84912109 -0.07910156 C22.23866025 -0.0845787 25.62779615 -0.10858956 29.01720905 -0.13707352 C32.25582684 -0.16022924 35.49446532 -0.1621519 38.7331543 -0.16699219 C39.94787918 -0.17933899 41.16260406 -0.19168579 42.41413879 -0.20440674 C43.54848862 -0.20140564 44.68283844 -0.19840454 45.8515625 -0.1953125 C46.84702591 -0.19895813 47.84248932 -0.20260376 48.86811829 -0.20635986 C53.48362393 0.41003392 55.98363464 2.40452498 58.93237305 5.91113281 C60.93022592 9.75884945 61.15532256 11.87753667 60.61987305 16.16113281 C59.02080553 20.31870834 57.47299069 22.87334421 53.61987305 25.16113281 C50.58978213 26.17116312 48.49729006 26.30534927 45.32568359 26.33813477 C44.24413498 26.35097 43.16258636 26.36380524 42.04826355 26.37702942 C40.87951187 26.38441635 39.71076019 26.39180328 38.5065918 26.39941406 C36.70313042 26.41152168 36.70313042 26.41152168 34.86323547 26.4238739 C32.31704144 26.43771253 29.77082887 26.44843567 27.22460938 26.45629883 C23.33321982 26.47351844 19.44267823 26.51740928 15.55151367 26.56152344 C13.07821263 26.57164978 10.60490436 26.58016606 8.1315918 26.58691406 C6.96891281 26.60442215 5.80623383 26.62193024 4.60832214 26.63996887 C-1.68234405 26.62310023 -5.65146691 26.49002095 -10.38012695 22.16113281 C-13.47718247 17.8652171 -13.79647148 14.43052561 -13.0324707 9.34863281 C-11.95136972 5.723384 -10.07422452 3.78952068 -7.38012695 1.16113281 C-4.79203408 -0.13291362 -2.89819207 0.01992682 0 0 Z " fill="#C7EEFD" transform="translate(273.380126953125,193.8388671875)"/>
<path d="M0 0 C45.54668337 -0.18987522 45.54668337 -0.18987522 63.32177734 0.20852661 C65.25596879 0.24882227 67.19051032 0.27104584 69.125 0.29272461 C78.29890032 0.54566287 87.34376706 2.15358897 94 9 C99.86078098 17.08153275 101.00039499 24.00754894 100 34 C97.92722592 40.8131991 94.11148555 46.25514894 88 50 C85.0625 50.875 85.0625 50.875 83 51 C83.144375 50.45472656 83.28875 49.90945313 83.4375 49.34765625 C85.78690193 39.80321091 86.13064369 31.74377304 81 23 C75.81234917 16.75842463 69.39981825 13.59906199 61.34672546 12.7056427 C58.43009243 12.57693106 55.52491267 12.53284384 52.60546875 12.5234375 C51.53686111 12.50785797 50.46825348 12.49227844 49.36726379 12.47622681 C45.97401659 12.42902723 42.58096927 12.40108317 39.1875 12.375 C35.8048886 12.33823511 32.42238333 12.29732322 29.03987122 12.25234985 C26.94397724 12.22561794 24.84800787 12.20406223 22.7519989 12.18881226 C15.79079695 12.11524806 8.93261456 11.64125961 2 11 C1.34 7.37 0.68 3.74 0 0 Z " fill="#324EC9" transform="translate(400,247)"/>
<path d="M0 0 C7.45054965 -0.54185816 12.97784185 0.94379322 18.984375 5.5078125 C23.39394905 9.55934422 26.80926919 14.05455789 28 20 C27.75947201 21.98081876 27.51702415 23.96153099 27.24829102 25.9387207 C26.80040271 29.88251592 26.55491522 33.23661964 28 37 C32.77643643 42.63028865 39.26214173 46.48662586 45.46484375 50.37255859 C49.12508482 52.72224725 52.56730191 55.33261879 56 58 C54.73973202 61.78080393 53.06453466 62.77295425 49.9375 65.1875 C49.01839844 65.90292969 48.09929687 66.61835938 47.15234375 67.35546875 C46.44207031 67.89816406 45.73179687 68.44085938 45 69 C39.06642864 65.85076494 33.98524935 62.00499067 28.75 57.8125 C27.16450484 56.54435878 25.57608805 55.27985923 23.984375 54.01953125 C23.29053711 53.46370361 22.59669922 52.90787598 21.88183594 52.33520508 C19.93499002 50.81662829 19.93499002 50.81662829 17 50 C15.01494249 50.76786715 15.01494249 50.76786715 12.9375 51.9375 C7.88333649 54.35651576 3.51342441 54.4143701 -2 54 C-0.05485153 53.00801741 1.87827713 52.05069695 3.89453125 51.2109375 C10.89350581 48.16046794 15.9209687 43.12456627 18.9375 36.0625 C21.29900807 28.55261097 20.49121509 21.01983606 17 14 C12.67132292 7.32662283 7.23565202 4.02820044 0 1 C0 0.67 0 0.34 0 0 Z " fill="#66CB98" transform="translate(190,131)"/>
<path d="M0 0 C15.18 0 30.36 0 46 0 C46 10.21543408 46 10.21543408 43.9375 13.3125 C43.55464844 13.92738281 43.17179687 14.54226562 42.77734375 15.17578125 C38.58134889 19.48243971 34.68941059 21.19636172 28.78515625 21.56640625 C26.87770592 21.58615211 24.96992687 21.58439484 23.0625 21.5625 C22.11181641 21.58634766 21.16113281 21.61019531 20.18164062 21.63476562 C13.66111268 21.62128418 8.92420598 20.43665342 4 16 C-0.06736145 10.34372644 0 7.43920663 0 0 Z " fill="#38607F" transform="translate(281,220)"/>
<path d="M0 0 C8.72059162 -0.56261881 15.01612677 1.36914032 22.3125 6.1875 C29.02514429 13.2123603 31.37445192 20.50499442 31.28515625 30.046875 C30.64557086 36.67052641 27.85747023 43.39818609 23 48 C16.6974227 52.36579208 11.47286117 55.19445527 3.6875 55.0625 C1.8621875 55.0315625 1.8621875 55.0315625 0 55 C2.52297023 53.31801984 4.5995389 52.30052621 7.375 51.1875 C13.82176861 48.35593713 17.42371352 44.00305231 21 38 C23.68098846 29.90412037 22.75665523 20.51331047 19 13 C14.32573576 5.90801288 7.84311906 3.30064826 0 1 C0 0.67 0 0.34 0 0 Z " fill="#379D6A" transform="translate(414,100)"/>
<path d="M0 0 C10.85854211 -0.4432058 16.83129575 3.3657132 24.578125 10.44140625 C29.11108875 15.2337866 30.87286441 21.34358053 31.09765625 27.80859375 C30.5895928 36.74307539 27.59880838 43.33909346 21.046875 49.45703125 C14.53742357 54.36396506 7.96875608 55.5141133 0 55 C3 53 3 53 6.75 51.8125 C12.52049095 49.66978093 16.22816116 46.02101135 19.32421875 40.7421875 C22.64139238 33.50260155 23.55535223 25.88628357 21.1171875 18.2265625 C17.48876375 10.22480681 12.6248544 5.90460179 4.5625 2.625 C3.04673936 2.0692964 1.5275264 1.52249394 0 1 C0 0.67 0 0.34 0 0 Z " fill="#379C69" transform="translate(85,257)"/>
<path d="M0 0 C7.45054965 -0.54185816 12.97784185 0.94379322 18.984375 5.5078125 C24.49688072 10.57272161 27.49896868 15.92084876 28.4140625 23.37109375 C28.73738366 31.27544519 27.76660644 36.66974488 23 43 C22.55398437 43.64710938 22.10796875 44.29421875 21.6484375 44.9609375 C18.0183244 49.76728837 13.83310166 52.46985409 8 54 C4.63279834 54.28647043 1.36765584 54.25310148 -2 54 C-0.05485153 53.00801741 1.87827713 52.05069695 3.89453125 51.2109375 C10.89350581 48.16046794 15.9209687 43.12456627 18.9375 36.0625 C21.29900807 28.55261097 20.49121509 21.01983606 17 14 C12.67132292 7.32662283 7.23565202 4.02820044 0 1 C0 0.67 0 0.34 0 0 Z " fill="#379D69" transform="translate(190,131)"/>
<path d="M0 0 C2.54283234 -0.10871967 5.08095088 -0.18762401 7.625 -0.25 C8.33785156 -0.28351563 9.05070312 -0.31703125 9.78515625 -0.3515625 C14.99105198 -0.44708352 17.88975026 0.53255623 22 4 C24.21183538 7.78152501 25.01441828 10.17815792 24.9375 14.5625 C23.52824419 19.7297713 21.46398308 23.02401128 17 26 C14.39754502 26.14221065 11.90882316 26.18802932 9.3125 26.125 C8.61060547 26.11597656 7.90871094 26.10695312 7.18554688 26.09765625 C5.45688475 26.07413704 3.72839855 26.03826713 2 26 C2.63228516 25.29423828 2.63228516 25.29423828 3.27734375 24.57421875 C3.82519531 23.95160156 4.37304688 23.32898438 4.9375 22.6875 C5.48277344 22.07261719 6.02804687 21.45773438 6.58984375 20.82421875 C9.44787812 17.12698315 9.31087405 13.50767376 9 9 C7.09758344 4.34964842 4.5485649 2.92050518 0 1 C0 0.67 0 0.34 0 0 Z " fill="#90BAC5" transform="translate(324,167)"/>
<path d="M0 0 C3.3 0 6.6 0 10 0 C10.48692516 9.00811542 10.48692516 9.00811542 8.3125 13.4375 C5.2194044 16.86498432 3.20805639 18.84736937 -1.54296875 19.17578125 C-4.03687327 19.18633374 -6.50982206 19.13055302 -9 19 C-8.236875 18.278125 -7.47375 17.55625 -6.6875 16.8125 C-1.43896223 11.3198442 -0.5535217 7.4171908 0 0 Z " fill="#2B4E67" transform="translate(316,221)"/>
<path d="M0 0 C2.20826378 -0.02722517 4.41662638 -0.04649729 6.625 -0.0625 C7.85476563 -0.07410156 9.08453125 -0.08570313 10.3515625 -0.09765625 C13.67723791 -0.00863924 16.74047588 0.36313913 20 1 C18.68 1.33 17.36 1.66 16 2 C16 2.66 16 3.32 16 4 C10.72 3.01 5.44 2.02 0 1 C0 0.67 0 0.34 0 0 Z " fill="#F3B84C" transform="translate(299,0)"/>
<path d="M0 0 C1.41623216 -0.05447047 2.83308191 -0.09300508 4.25 -0.125 C5.03890625 -0.14820312 5.8278125 -0.17140625 6.640625 -0.1953125 C9.20731941 0.0171622 10.7916067 0.71345895 13 2 C12.01 2 11.02 2 10 2 C9.67 2.66 9.34 3.32 9 4 C6.03 3.01 3.06 2.02 0 1 C0 0.67 0 0.34 0 0 Z " fill="#41A875" transform="translate(414,100)"/>
<path d="M0 0 C4.16138263 -0.08159574 7.9472484 0.01751476 12 1 C11.01 1.33 10.02 1.66 9 2 C8.67 2.66 8.34 3.32 8 4 C5.36 3.01 2.72 2.02 0 1 C0 0.67 0 0.34 0 0 Z " fill="#42A976" transform="translate(85,257)"/>
<path d="M0 0 C0 0.33 0 0.66 0 1 C-4.40914783 2.10228696 -8.48382401 2.07654536 -13 2 C-8.19155649 -1.20562901 -5.57936203 -0.94743883 0 0 Z " fill="#3EAC75" transform="translate(427,153)"/>
</svg>
