<?xml version="1.0" encoding="UTF-8"?>
<svg version="1.1" xmlns="http://www.w3.org/2000/svg" width="512" height="512">
<path d="M0 0 C1.2697532 -0.00445784 2.53950639 -0.00891569 3.84773695 -0.01350862 C5.2596891 -0.01341932 6.67164125 -0.01322947 8.08359337 -0.01294994 C9.58134697 -0.01624945 11.07909967 -0.0199752 12.57685125 -0.02409142 C16.69868193 -0.03410968 20.82049805 -0.03782794 24.94233918 -0.04048073 C29.38558906 -0.04438429 33.82882741 -0.05396259 38.27206993 -0.0626936 C49.00543221 -0.08245639 59.73879544 -0.09252391 70.47217137 -0.10142139 C75.52657925 -0.10580453 80.58098609 -0.11117126 85.63539314 -0.11641026 C102.43710742 -0.13342223 119.23882104 -0.14791651 136.0405426 -0.155159 C140.40070789 -0.15706889 144.76087317 -0.15898923 149.12103844 -0.16094494 C150.2047371 -0.16142868 151.28843577 -0.16191242 152.40497379 -0.16241082 C169.96108232 -0.17071153 187.51712272 -0.1960493 205.07320149 -0.22852562 C223.09707558 -0.26159551 241.12091503 -0.27960769 259.14481962 -0.28280324 C269.26481054 -0.28496838 279.38470211 -0.29371771 289.50466347 -0.31926441 C298.12309604 -0.34097042 306.74140512 -0.3490223 315.35986193 -0.33929763 C319.7560536 -0.33475267 324.15199047 -0.33665052 328.5481472 -0.35605907 C332.57641009 -0.37368959 336.60423229 -0.3726941 340.63249986 -0.35716178 C342.08612058 -0.35478553 343.53977181 -0.35911022 344.99334593 -0.37099043 C358.08138474 -0.47129411 367.63790664 2.30173945 377.41351891 11.25922108 C388.75635704 23.05376516 388.14798007 38.75426965 388.11171532 54.06691456 C388.11473928 55.88134422 388.11862999 57.69577262 388.12330788 59.51019877 C388.13356501 64.47503193 388.13141189 69.4397927 388.12712729 74.40463173 C388.12465591 79.76740901 388.13367935 85.13016903 388.14116478 90.49293995 C388.15390241 100.99115074 388.15570663 111.48933594 388.15336452 121.98755316 C388.15158013 130.52264315 388.15333359 139.05772538 388.15758896 147.59281445 C388.15818415 148.80844088 388.15877934 150.02406732 388.15939256 151.27653092 C388.16060434 153.74623381 388.16181847 156.2159367 388.16303494 158.68563958 C388.1739069 181.83736475 388.17174963 204.98907535 388.16565009 228.14080133 C388.16048141 249.30853661 388.17173573 270.47622587 388.19074831 291.64395205 C388.21013252 313.39259091 388.21838167 335.14120801 388.21462506 356.88985556 C388.21271388 369.09458982 388.21519247 381.29928491 388.2293396 393.50401211 C388.24126178 403.89421391 388.24264886 414.28435242 388.23054943 424.6745551 C388.22466664 429.97247919 388.22354479 435.27028758 388.23555183 440.56820393 C388.24643026 445.42469811 388.24328395 450.28098025 388.22929015 455.13746461 C388.22664862 456.88770969 388.22899252 458.6379715 388.23702601 460.38820014 C388.29594811 474.1911381 388.21427421 488.07056328 378.85101891 499.13422108 C378.32508141 499.76972889 377.79914391 500.4052367 377.25726891 501.06000233 C372.130805 506.70636705 365.3613845 510.62679703 357.85101891 512.13422108 C355.80300651 512.2277867 353.7521837 512.26510505 351.70203781 512.26844215 C350.43228462 512.2729 349.16253142 512.27735784 347.85430086 512.28195077 C346.44234871 512.28186148 345.03039657 512.28167163 343.61844444 512.2813921 C342.12069085 512.2846916 340.62293814 512.28841735 339.12518656 512.29253358 C335.00335588 512.30255184 330.88153976 512.30627009 326.75969863 512.30892289 C322.31644875 512.31282645 317.8732104 512.32240474 313.42996788 512.33113575 C302.6966056 512.35089854 291.96324237 512.36096607 281.22986645 512.36986354 C276.17545856 512.37424668 271.12105172 512.37961342 266.06664467 512.38485241 C249.26493039 512.40186439 232.46321677 512.41635867 215.66149521 512.42360115 C211.30132992 512.42551105 206.94116464 512.42743138 202.58099937 512.42938709 C201.49730071 512.42987083 200.41360204 512.43035457 199.29706402 512.43085297 C181.74095549 512.43915369 164.1849151 512.46449145 146.62883632 512.49696777 C128.60496224 512.53003766 110.58112278 512.54804984 92.55721819 512.55124539 C82.43722727 512.55341053 72.3173357 512.56215986 62.19737434 512.58770657 C53.57894177 512.60941257 44.96063269 512.61746445 36.34217589 512.60773978 C31.94598422 512.60319483 27.55004734 512.60509267 23.15389061 512.62450123 C19.12562772 512.64213175 15.09780552 512.64113626 11.06953795 512.62560394 C9.61591723 512.62322769 8.162266 512.62755237 6.70869188 512.63943259 C-6.37934693 512.73973627 -15.93586882 509.96670271 -25.71148109 501.00922108 C-37.05431923 489.214677 -36.44594225 473.51417251 -36.40967751 458.2015276 C-36.41270147 456.38709793 -36.41659218 454.57266954 -36.42127007 452.75824338 C-36.4315272 447.79341022 -36.42937408 442.82864946 -36.42508948 437.86381042 C-36.4226181 432.50103315 -36.43164154 427.13827312 -36.43912697 421.7755022 C-36.4518646 411.27729141 -36.45366882 400.77910621 -36.45132671 390.280889 C-36.44954232 381.74579901 -36.45129578 373.21071677 -36.45555115 364.67562771 C-36.45614634 363.46000127 -36.45674153 362.24437484 -36.45735475 360.99191124 C-36.45856653 358.52220835 -36.45978066 356.05250546 -36.46099713 353.58280257 C-36.47186909 330.4310774 -36.46971181 307.27936681 -36.46361228 284.12764082 C-36.4584436 262.95990554 -36.46969792 241.79221628 -36.4887105 220.6244901 C-36.50809471 198.87585124 -36.51634386 177.12723415 -36.51258725 155.37858659 C-36.51067607 143.17385233 -36.51315466 130.96915725 -36.52730179 118.76443005 C-36.53922397 108.37422825 -36.54061105 97.98408973 -36.52851162 87.59388705 C-36.52262883 82.29596296 -36.52150698 76.99815457 -36.53351402 71.70023823 C-36.54439245 66.84374404 -36.54124614 61.9874619 -36.52725234 57.13097755 C-36.52461081 55.38073246 -36.52695471 53.63047065 -36.5349882 51.88024201 C-36.5939103 38.07730405 -36.5122364 24.19787887 -27.14898109 13.13422108 C-26.62304359 12.49871326 -26.09710609 11.86320545 -25.55523109 11.20843983 C-18.72961021 3.69059795 -10.03530367 0.01633486 0 0 Z " fill="#E8EBF3" transform="translate(80.14898109436035,-0.13422107696533203)"/>
<path d="M0 0 C1.2697532 -0.00445784 2.53950639 -0.00891569 3.84773695 -0.01350862 C5.2596891 -0.01341932 6.67164125 -0.01322947 8.08359337 -0.01294994 C9.58134697 -0.01624945 11.07909967 -0.0199752 12.57685125 -0.02409142 C16.69868193 -0.03410968 20.82049805 -0.03782794 24.94233918 -0.04048073 C29.38558906 -0.04438429 33.82882741 -0.05396259 38.27206993 -0.0626936 C49.00543221 -0.08245639 59.73879544 -0.09252391 70.47217137 -0.10142139 C75.52657925 -0.10580453 80.58098609 -0.11117126 85.63539314 -0.11641026 C102.43710742 -0.13342223 119.23882104 -0.14791651 136.0405426 -0.155159 C140.40070789 -0.15706889 144.76087317 -0.15898923 149.12103844 -0.16094494 C150.2047371 -0.16142868 151.28843577 -0.16191242 152.40497379 -0.16241082 C169.96108232 -0.17071153 187.51712272 -0.1960493 205.07320149 -0.22852562 C223.09707558 -0.26159551 241.12091503 -0.27960769 259.14481962 -0.28280324 C269.26481054 -0.28496838 279.38470211 -0.29371771 289.50466347 -0.31926441 C298.12309604 -0.34097042 306.74140512 -0.3490223 315.35986193 -0.33929763 C319.7560536 -0.33475267 324.15199047 -0.33665052 328.5481472 -0.35605907 C332.57641009 -0.37368959 336.60423229 -0.3726941 340.63249986 -0.35716178 C342.08612058 -0.35478553 343.53977181 -0.35911022 344.99334593 -0.37099043 C358.08138474 -0.47129411 367.63790664 2.30173945 377.41351891 11.25922108 C388.75635704 23.05376516 388.14798007 38.75426965 388.11171532 54.06691456 C388.11473928 55.88134422 388.11862999 57.69577262 388.12330788 59.51019877 C388.13356501 64.47503193 388.13141189 69.4397927 388.12712729 74.40463173 C388.12465591 79.76740901 388.13367935 85.13016903 388.14116478 90.49293995 C388.15390241 100.99115074 388.15570663 111.48933594 388.15336452 121.98755316 C388.15158013 130.52264315 388.15333359 139.05772538 388.15758896 147.59281445 C388.15818415 148.80844088 388.15877934 150.02406732 388.15939256 151.27653092 C388.16060434 153.74623381 388.16181847 156.2159367 388.16303494 158.68563958 C388.1739069 181.83736475 388.17174963 204.98907535 388.16565009 228.14080133 C388.16048141 249.30853661 388.17173573 270.47622587 388.19074831 291.64395205 C388.21013252 313.39259091 388.21838167 335.14120801 388.21462506 356.88985556 C388.21271388 369.09458982 388.21519247 381.29928491 388.2293396 393.50401211 C388.24126178 403.89421391 388.24264886 414.28435242 388.23054943 424.6745551 C388.22466664 429.97247919 388.22354479 435.27028758 388.23555183 440.56820393 C388.24643026 445.42469811 388.24328395 450.28098025 388.22929015 455.13746461 C388.22664862 456.88770969 388.22899252 458.6379715 388.23702601 460.38820014 C388.29594811 474.1911381 388.21427421 488.07056328 378.85101891 499.13422108 C378.32508141 499.76972889 377.79914391 500.4052367 377.25726891 501.06000233 C372.130805 506.70636705 365.3613845 510.62679703 357.85101891 512.13422108 C355.80300651 512.2277867 353.7521837 512.26510505 351.70203781 512.26844215 C350.43228462 512.2729 349.16253142 512.27735784 347.85430086 512.28195077 C346.44234871 512.28186148 345.03039657 512.28167163 343.61844444 512.2813921 C342.12069085 512.2846916 340.62293814 512.28841735 339.12518656 512.29253358 C335.00335588 512.30255184 330.88153976 512.30627009 326.75969863 512.30892289 C322.31644875 512.31282645 317.8732104 512.32240474 313.42996788 512.33113575 C302.6966056 512.35089854 291.96324237 512.36096607 281.22986645 512.36986354 C276.17545856 512.37424668 271.12105172 512.37961342 266.06664467 512.38485241 C249.26493039 512.40186439 232.46321677 512.41635867 215.66149521 512.42360115 C211.30132992 512.42551105 206.94116464 512.42743138 202.58099937 512.42938709 C201.49730071 512.42987083 200.41360204 512.43035457 199.29706402 512.43085297 C181.74095549 512.43915369 164.1849151 512.46449145 146.62883632 512.49696777 C128.60496224 512.53003766 110.58112278 512.54804984 92.55721819 512.55124539 C82.43722727 512.55341053 72.3173357 512.56215986 62.19737434 512.58770657 C53.57894177 512.60941257 44.96063269 512.61746445 36.34217589 512.60773978 C31.94598422 512.60319483 27.55004734 512.60509267 23.15389061 512.62450123 C19.12562772 512.64213175 15.09780552 512.64113626 11.06953795 512.62560394 C9.61591723 512.62322769 8.162266 512.62755237 6.70869188 512.63943259 C-6.37934693 512.73973627 -15.93586882 509.96670271 -25.71148109 501.00922108 C-37.05431923 489.214677 -36.44594225 473.51417251 -36.40967751 458.2015276 C-36.41270147 456.38709793 -36.41659218 454.57266954 -36.42127007 452.75824338 C-36.4315272 447.79341022 -36.42937408 442.82864946 -36.42508948 437.86381042 C-36.4226181 432.50103315 -36.43164154 427.13827312 -36.43912697 421.7755022 C-36.4518646 411.27729141 -36.45366882 400.77910621 -36.45132671 390.280889 C-36.44954232 381.74579901 -36.45129578 373.21071677 -36.45555115 364.67562771 C-36.45614634 363.46000127 -36.45674153 362.24437484 -36.45735475 360.99191124 C-36.45856653 358.52220835 -36.45978066 356.05250546 -36.46099713 353.58280257 C-36.47186909 330.4310774 -36.46971181 307.27936681 -36.46361228 284.12764082 C-36.4584436 262.95990554 -36.46969792 241.79221628 -36.4887105 220.6244901 C-36.50809471 198.87585124 -36.51634386 177.12723415 -36.51258725 155.37858659 C-36.51067607 143.17385233 -36.51315466 130.96915725 -36.52730179 118.76443005 C-36.53922397 108.37422825 -36.54061105 97.98408973 -36.52851162 87.59388705 C-36.52262883 82.29596296 -36.52150698 76.99815457 -36.53351402 71.70023823 C-36.54439245 66.84374404 -36.54124614 61.9874619 -36.52725234 57.13097755 C-36.52461081 55.38073246 -36.52695471 53.63047065 -36.5349882 51.88024201 C-36.5939103 38.07730405 -36.5122364 24.19787887 -27.14898109 13.13422108 C-26.62304359 12.49871326 -26.09710609 11.86320545 -25.55523109 11.20843983 C-18.72961021 3.69059795 -10.03530367 0.01633486 0 0 Z M3.35101891 43.13422108 C-0.26871749 48.35337588 -1.3989905 52.74473496 -1.40625 59.09900093 C-1.40975607 59.79122984 -1.41326215 60.48345876 -1.41687447 61.1966643 C-1.42619516 63.52149558 -1.42126349 65.84607672 -1.41640663 68.17091846 C-1.42014256 69.85245283 -1.42474385 71.53398545 -1.43013728 73.21551532 C-1.44238983 77.84063564 -1.44210416 82.46568376 -1.43974853 87.09081662 C-1.43934093 92.07730645 -1.45037403 97.06377296 -1.45986366 102.05025196 C-1.47648696 111.82135447 -1.48197381 121.59243285 -1.48308842 131.36354832 C-1.48403826 139.30482168 -1.48814533 147.24608706 -1.49448967 155.1873579 C-1.51210564 177.69500749 -1.52132797 200.20263799 -1.51982872 222.71029452 C-1.51974881 223.92405991 -1.5196689 225.13782531 -1.51958656 226.38837147 C-1.5195048 227.6036163 -1.51942304 228.81886114 -1.5193388 230.07093158 C-1.51852578 249.76874814 -1.53766655 269.46648826 -1.5658633 289.16428272 C-1.59457723 309.38266697 -1.60840441 329.60101392 -1.60667574 349.81941909 C-1.60601133 361.17340235 -1.61152611 372.52730548 -1.63303185 383.88127041 C-1.65122401 393.54789949 -1.65560713 403.2144121 -1.642013 412.88105086 C-1.63547346 417.81368229 -1.63540174 422.74609015 -1.6527195 427.67870045 C-1.66841163 432.19470546 -1.66562614 436.71030891 -1.64815123 441.2263039 C-1.64507282 442.85953135 -1.64874534 444.49278849 -1.65987138 446.12598095 C-1.72276702 456.01374004 -1.48768427 463.11045951 5.22601891 470.88422108 C10.12488964 475.08325314 14.38504707 478.07830369 20.90269089 478.49470043 C21.73057692 478.54911088 22.55846295 478.60352134 23.41143644 478.65958059 C24.32134576 478.71464792 25.23125508 478.76971526 26.16873741 478.8264513 C27.62008015 478.91769258 27.62008015 478.91769258 29.10074294 479.01077712 C32.36139555 479.2122821 35.62246346 479.40538521 38.88373375 479.59662342 C40.59565816 479.69841656 40.59565816 479.69841656 42.3421669 479.80226612 C64.44649639 481.10158059 86.55708279 481.93268333 108.68936797 482.55849149 C112.34198165 482.6620548 115.99447847 482.76930275 119.64691734 482.87884998 C120.37356876 482.90058087 121.10022018 482.92231175 121.84889133 482.94470115 C131.99439168 483.2559844 142.11067972 483.77120525 152.23745973 484.45755338 C208.46513244 488.2625627 267.33117648 490.8403901 312.6367321 451.39557171 C348.39716436 418.74587196 358.36314332 382.47784654 360.71924187 335.62520868 C362.19842787 302.31541621 360.85264714 268.97990705 359.25611436 235.70206976 C358.59613396 221.77365899 358.17105546 207.85152201 357.89740562 193.91034412 C357.8681489 192.42447418 357.8681489 192.42447418 357.83830114 190.90858666 C357.76065554 186.92408585 357.6844584 182.93956098 357.61015896 178.95499634 C357.04344965 148.6260927 356.28730003 118.29968266 354.97149467 87.99325275 C354.83510107 84.85157974 354.70845543 81.70977664 354.5909977 78.5673399 C354.45459187 74.94651495 354.29527078 71.32743154 354.11743216 67.70841106 C354.02801422 65.79082496 353.95989163 63.87228173 353.89270365 61.9537881 C353.44745521 53.70671233 352.00695032 46.12995258 345.83411753 40.1950658 C340.02153975 35.47126187 334.4073238 33.87936492 326.92767906 33.9071703 C326.2635601 33.90687824 325.59944115 33.90658619 324.91519737 33.90628529 C322.74002154 33.90766847 320.56519672 33.9231812 318.39008141 33.93890858 C316.87408193 33.94264232 315.35808002 33.94548759 313.84207726 33.94748402 C309.86692108 33.95509205 305.89191284 33.97471597 301.9168148 33.99689198 C297.85453861 34.0174116 293.79223833 34.02649877 289.72992516 34.03656483 C281.77022212 34.05796476 273.81063896 34.09206622 265.85101891 34.13422108 C265.83700035 35.67747059 265.83700035 35.67747059 265.82269859 37.25189686 C265.78267122 41.0877782 265.71687837 44.9228682 265.64349937 48.75824451 C265.61536329 50.41471622 265.59411221 52.07132035 265.58002281 53.72797108 C265.55849 56.11667783 265.51179136 58.50380494 265.46039391 60.89203358 C265.45916527 61.62664814 265.45793663 62.3612627 265.45667076 63.11813831 C265.31235542 68.24324914 264.04670552 71.16312148 260.85101891 75.13422108 C256.61490093 78.85687021 253.09863762 79.26079852 247.57030296 79.2813921 C246.25382774 79.2885474 244.93735252 79.29570271 243.58098412 79.30307484 C242.11850571 79.30591508 240.65602706 79.30862681 239.1935482 79.31122303 C237.65606088 79.31748829 236.11857508 79.32413514 234.58109093 79.33113575 C229.52915055 79.35216909 224.47720989 79.36253663 219.42523766 79.37250233 C217.68597269 79.37654999 215.94670788 79.38066691 214.20744324 79.38485241 C206.0371558 79.40390154 197.86687738 79.41813383 189.69657201 79.42646438 C180.26496172 79.4362398 170.83358594 79.46256837 161.4020583 79.50296527 C154.11194111 79.53311894 146.82189118 79.54793249 139.53171283 79.55124539 C135.17752384 79.55359652 130.82358545 79.56256509 126.46946335 79.58770657 C122.37279046 79.61097967 118.27653333 79.61522375 114.17981148 79.60494518 C112.67779915 79.60444954 111.1757664 79.61077845 109.67381668 79.62450123 C107.61960936 79.64221698 105.56689476 79.63511791 103.51268578 79.62196827 C101.79016861 79.6255508 101.79016861 79.6255508 100.03285313 79.6292057 C94.9063072 78.83169042 91.82488404 76.27392409 88.51410484 72.3993578 C86.52384447 68.49187948 86.24881948 65.18238121 86.24164391 60.89203358 C86.22510765 60.12366169 86.2085714 59.3552898 86.19153404 58.56363392 C86.14325955 56.12874668 86.12173019 53.69448297 86.10101891 51.25922108 C86.07284182 49.60033589 86.04291197 47.94147948 86.01117516 46.28265858 C85.93750693 42.23323081 85.88780756 38.18414499 85.85101891 34.13422108 C77.02735476 34.0178995 68.20395825 33.9292909 59.37969208 33.87516022 C55.28131537 33.84916793 51.18346676 33.81396286 47.08539391 33.75702381 C43.12366045 33.70232932 39.16243196 33.67272274 35.20034981 33.65983486 C33.69576516 33.6506615 32.19120528 33.63274915 30.68683815 33.60557079 C19.7931138 33.41675335 10.57679644 34.15770356 3.35101891 43.13422108 Z " fill="#AF5F3B" transform="translate(80.14898109436035,-0.13422107696533203)"/>
<path d="M0 0 C1.10802475 -0.00953201 2.2160495 -0.01906403 3.35765076 -0.02888489 C4.55455032 -0.02797348 5.75144989 -0.02706207 6.98461914 -0.02612305 C8.21386612 -0.03040817 9.4431131 -0.0346933 10.70960999 -0.03910828 C13.97799852 -0.04632858 17.2462034 -0.04322215 20.5145874 -0.03753662 C23.83344656 -0.03804173 27.15216479 -0.06554946 30.47094727 -0.08666992 C32.99633695 -0.08894296 35.52172864 -0.08964639 38.04711914 -0.08862305 C39.24199448 -0.09783279 40.43686981 -0.10704254 41.66795349 -0.11653137 C43.33471886 -0.10718819 43.33471886 -0.10718819 45.03515625 -0.09765625 C46.50051064 -0.09860039 46.50051064 -0.09860039 47.99546814 -0.0995636 C51.16028985 0.35827696 52.33765311 0.99757669 54.58227539 3.2746582 C55.07446671 6.25190258 55.07446671 6.25190258 55.06329346 9.97538757 C55.06671116 10.65990409 55.07012886 11.34442061 55.07365012 12.04968005 C55.0802509 14.34864717 55.05821859 16.64645257 55.03637695 18.9453125 C55.03524894 20.591054 55.03588143 22.23679751 55.03814697 23.88253784 C55.03929686 28.35553358 55.01574327 32.82810218 54.98785114 37.30099845 C54.96288317 41.97349631 54.96049913 46.64600346 54.95574951 51.31855774 C54.94330617 60.16900273 54.91046622 69.0192506 54.87035155 77.8696087 C54.82567606 87.94442853 54.80365744 98.01925766 54.78356981 108.09415185 C54.74173475 128.82109742 54.67135634 149.5478654 54.58227539 170.2746582 C56.01277222 170.25109253 56.01277222 170.25109253 57.47216797 170.22705078 C61.01114452 170.17274142 64.55008425 170.13830487 68.08935547 170.10986328 C69.62099401 170.09477884 71.15258937 170.07430842 72.68408203 170.04833984 C74.88593193 170.01193973 77.08721072 169.99492907 79.28930664 169.98168945 C79.97378372 169.9662056 80.6582608 169.95072174 81.36347961 169.93476868 C84.21623899 169.93375934 86.1268071 169.96098067 88.51464844 171.60546875 C90.19074506 174.22597473 89.96047769 176.2490398 89.58227539 179.2746582 C87.95191971 181.51657571 87.06034993 182.1958054 84.30234718 182.6507057 C82.94861535 182.65143628 82.94861535 182.65143628 81.5675354 182.65218163 C80.52536047 182.66000487 79.48318554 182.66782811 78.40942955 182.67588842 C77.26071184 182.66919625 76.11199413 182.66250409 74.9284668 182.65560913 C73.71112162 182.6602891 72.49377644 182.66496907 71.23954201 182.66979086 C67.85426732 182.67971026 64.46948957 182.67610839 61.08424473 182.66683221 C57.43592654 182.66006219 53.78765272 182.67051274 50.13934326 182.67877197 C42.98986229 182.69213346 35.84047564 182.68922085 28.69099092 182.68053405 C22.88205979 182.67376739 17.07315514 182.67283636 11.26422119 182.6761055 C10.43843618 182.6765652 9.61265117 182.6770249 8.76184237 182.67749853 C7.08443816 182.67845767 5.40703395 182.67943031 3.72962976 182.6804163 C-12.01082521 182.68897727 -27.75122781 182.67912499 -43.49167418 182.6630152 C-57.0067641 182.64961137 -70.52177672 182.65193927 -84.03686523 182.66577148 C-99.71980628 182.68181483 -115.40270139 182.68815323 -131.08564949 182.67893469 C-132.75698979 182.67797901 -134.4283301 182.6770359 -136.09967041 182.6761055 C-137.33326705 182.67541126 -137.33326705 182.67541126 -138.59178483 182.67470299 C-144.39581615 182.67210936 -150.1998184 182.67649212 -156.00384521 182.68354416 C-163.07405325 182.69194555 -170.14416132 182.68970781 -177.21435785 182.67370193 C-180.82383128 182.66580076 -184.43313786 182.66275878 -188.04261017 182.67264938 C-191.94980711 182.68319413 -195.85672899 182.67062995 -199.76391602 182.65560913 C-200.91263372 182.6623013 -202.06135143 182.66899346 -203.24487877 182.67588842 C-204.2870537 182.66806518 -205.32922863 182.66024194 -206.40298462 182.65218163 C-207.30547251 182.65169457 -208.2079604 182.65120751 -209.1377964 182.6507057 C-211.89579915 182.1958054 -212.78736893 181.51657571 -214.41772461 179.2746582 C-214.79288377 176.2733849 -215.0077146 174.23843646 -213.3985014 171.60970592 C-210.27800808 169.50648686 -206.98541785 169.87322812 -203.35029602 169.91389465 C-202.10300941 169.91004974 -202.10300941 169.91004974 -200.8305251 169.90612715 C-198.03428263 169.90117169 -195.23857584 169.91771111 -192.44238281 169.93408203 C-190.44196587 169.93492792 -188.44154799 169.9344539 -186.44113159 169.93275452 C-181.00131897 169.93189166 -175.56170368 169.94956443 -170.12193704 169.97047639 C-164.44044758 169.98919482 -158.75895389 169.99098981 -153.07743835 169.99455261 C-142.31458204 170.00388731 -131.55181683 170.02852036 -120.78900069 170.05860108 C-108.53766554 170.09210079 -96.2863261 170.10861995 -84.03495657 170.12368739 C-58.82916202 170.15506867 -33.62344841 170.20785683 -8.41772461 170.2746582 C-8.42048999 169.41067476 -8.42325537 168.54669132 -8.42610455 167.65652657 C-8.49228202 146.65932002 -8.54196499 125.66213139 -8.57316113 104.66484261 C-8.58864731 94.51081732 -8.60977018 84.35686154 -8.64404297 74.20288086 C-8.67389183 65.35537734 -8.69328686 56.50792413 -8.69999009 47.66037166 C-8.70391003 42.97319556 -8.71315854 38.28616343 -8.73491478 33.59903336 C-8.75520876 29.19140705 -8.76157287 24.78398466 -8.75704765 20.37631607 C-8.75787605 18.75491225 -8.76388382 17.13350192 -8.77534103 15.51213837 C-8.79017479 13.305537 -8.78671237 11.09971474 -8.77848816 8.89309692 C-8.78125354 7.65605074 -8.78401892 6.41900455 -8.7868681 5.14447212 C-8.66505075 4.19743353 -8.54323339 3.25039494 -8.41772461 2.2746582 C-5.05828931 0.03503467 -3.9292028 0.0185465 0 0 Z " fill="#02ABE0" transform="translate(318.417724609375,97.725341796875)"/>
<path d="M0 0 C59.4 0 118.8 0 180 0 C180 69 180 69 176 75 C171.24867818 79.28777823 168.03096452 80.1236594 161.71928406 80.14717102 C160.40280884 80.15432632 159.08633362 80.16148163 157.72996521 80.16885376 C156.26748681 80.171694 154.80500815 80.17440573 153.3425293 80.17700195 C151.80504198 80.18326721 150.26755617 80.18991407 148.73007202 80.19691467 C143.67813164 80.21794801 138.62619098 80.22831555 133.57421875 80.23828125 C131.83495378 80.24232891 130.09568897 80.24644583 128.35642433 80.25063133 C120.18613689 80.26968046 112.01585848 80.28391275 103.8455531 80.2922433 C94.41394282 80.30201873 84.98256704 80.32834729 75.5510394 80.36874419 C68.26092221 80.39889786 60.97087227 80.41371142 53.68069392 80.41702431 C49.32650493 80.41937544 44.97256655 80.42834401 40.61844444 80.45348549 C36.52177155 80.47675859 32.42551442 80.48100268 28.32879257 80.47072411 C26.82678024 80.47022846 25.3247475 80.47655737 23.82279778 80.49028015 C21.76859046 80.5079959 19.71587585 80.50089684 17.66166687 80.48774719 C15.93914971 80.49132972 15.93914971 80.49132972 14.18183422 80.49498463 C9.10969169 79.70593265 6.0212927 77.15930523 2.6875 73.375 C-11.48844028 53.42367664 0 24.47473364 0 0 Z " fill="#0B5078" transform="translate(166,0)"/>
<path d="M0 0 C1.73189575 -0.00945648 1.73189575 -0.00945648 3.4987793 -0.019104 C4.75086182 -0.01505554 6.00294434 -0.01100708 7.29296875 -0.00683594 C8.57276611 -0.00874939 9.85256348 -0.01066284 11.17114258 -0.01263428 C13.88139668 -0.01558475 16.59151902 -0.01129049 19.30175781 -0.00195312 C22.77896106 0.00944154 26.25585557 0.00288163 29.73304749 -0.00909805 C33.04471279 -0.01805519 36.35629466 -0.01178729 39.66796875 -0.00683594 C41.54609253 -0.01290863 41.54609253 -0.01290863 43.4621582 -0.019104 C44.61675537 -0.01279968 45.77135254 -0.00649536 46.9609375 0 C47.98082764 0.00159119 49.00071777 0.00318237 50.05151367 0.00482178 C52.48046875 0.25878906 52.48046875 0.25878906 54.48046875 2.25878906 C54.72656441 4.36335182 54.72656441 4.36335182 54.72097778 7.01699829 C54.72372711 8.02103195 54.72647644 9.02506561 54.72930908 10.05952454 C54.72211853 11.16507187 54.71492798 12.2706192 54.70751953 13.40966797 C54.70781158 14.57063492 54.70810364 15.73160187 54.70840454 16.92774963 C54.70700679 20.78035861 54.6914245 24.63277621 54.67578125 28.48535156 C54.6720527 31.15050586 54.66910665 33.81564943 54.66720581 36.48080444 C54.66098363 42.78835482 54.64456288 49.09583606 54.62450683 55.40335596 C54.59998064 63.2874454 54.58901609 71.17154601 54.578125 79.05566406 C54.55863175 93.12342628 54.51856979 107.1910376 54.48046875 121.25878906 C34.02046875 121.25878906 13.56046875 121.25878906 -7.51953125 121.25878906 C-7.59985859 91.60015127 -7.59985859 91.60015127 -7.62003899 76.99145889 C-7.63113861 69.07826602 -7.64524864 61.16511512 -7.67041016 53.25195312 C-7.69031632 46.9885977 -7.70324108 40.72527389 -7.70770824 34.46188772 C-7.71032035 31.14406798 -7.71751956 27.82636004 -7.73099136 24.508564 C-7.74542194 20.80887647 -7.74751273 17.10937892 -7.74658203 13.40966797 C-7.75377258 12.30412064 -7.76096313 11.1985733 -7.76837158 10.05952454 C-7.76562225 9.05549088 -7.76287292 8.05145721 -7.76004028 7.01699829 C-7.76188387 6.14129496 -7.76372746 5.26559162 -7.76562691 4.36335182 C-7.20840305 -0.40191949 -3.98824662 0.00622228 0 0 Z " fill="#FEDC65" transform="translate(232.51953125,146.7412109375)"/>
<path d="M0 0 C0.33 0 0.66 0 1 0 C2.96597019 41.98393756 4.45315401 83.96239756 5.340553 125.98360116 C5.44680323 130.99638459 5.55682632 136.00907856 5.66918945 141.02172852 C5.70263403 142.51798339 5.70263403 142.51798339 5.73675426 144.04446564 C6.05705606 158.02484517 6.58002714 171.98459365 7.26755824 185.95153943 C14.85600786 340.30339078 14.85600786 340.30339078 -25.6767571 386.01905179 C-56.86403805 419.34811764 -94.07864835 432.55606757 -138.91280556 434.13053322 C-159.9499782 434.74225324 -180.93280976 433.55077725 -201.91317862 432.12242955 C-212.08183616 431.43773294 -222.2437188 430.98102755 -232.43041992 430.66918945 C-233.15782432 430.64685796 -233.88522871 430.62452646 -234.63467566 430.60151825 C-238.28758845 430.49050826 -241.9405969 430.38311293 -245.59366953 430.27750647 C-275.43196816 429.4103169 -305.20966587 427.92073585 -335 426 C-335 425.67 -335 425.34 -335 425 C-255.14 425 -175.28 425 -93 425 C-93 400.58 -93 376.16 -93 351 C-87.23612599 339.47225199 -85.12452053 336.76765166 -74 332 C-49.58 332 -25.16 332 0 332 C0 222.44 0 112.88 0 0 Z " fill="#C0C0C6" transform="translate(432,52)"/>
<path d="M0 0 C2.46691895 -0.3742218 2.46691895 -0.3742218 5.61132812 -0.37231445 C6.78594604 -0.37854324 7.96056396 -0.38477203 9.17077637 -0.39118958 C10.44473267 -0.38197983 11.71868896 -0.37277008 13.03125 -0.36328125 C14.33324341 -0.36377975 15.63523682 -0.36427826 16.97668457 -0.36479187 C19.73408566 -0.3647021 22.49119465 -0.35426392 25.24853516 -0.33618164 C28.78629062 -0.31349394 32.32361912 -0.31294973 35.86142731 -0.31969929 C39.2305838 -0.32384069 42.59960823 -0.31186978 45.96875 -0.30078125 C47.2427063 -0.30169266 48.5166626 -0.30260406 49.82922363 -0.30354309 C51.00384155 -0.29401108 52.17845947 -0.28447906 53.38867188 -0.2746582 C54.4263269 -0.27005081 55.46398193 -0.26544342 56.53308105 -0.26069641 C59 0 59 0 61 2 C61.18799291 4.68063427 61.25181991 7.25709458 61.22705078 9.93798828 C61.22734283 10.75758026 61.22763489 11.57717224 61.22793579 12.42160034 C61.22653944 15.13794443 61.21096401 17.85401618 61.1953125 20.5703125 C61.19158345 22.45075328 61.18873597 24.33119599 61.18673706 26.2116394 C61.17909207 31.16665998 61.15943619 36.12156374 61.1373291 41.07653809 C61.11329707 47.01863694 61.10409381 52.9607748 61.09242249 58.90290833 C61.07301227 67.93535352 61.03469574 76.96754229 61 86 C40.21 86 19.42 86 -2 86 C-2.08021762 65.40635467 -2.08021762 65.40635467 -2.09765625 56.64257812 C-2.10962181 50.65759749 -2.12379224 44.67267793 -2.15087891 38.68774414 C-2.17257535 33.86373538 -2.18456188 29.03979208 -2.18975449 24.2157383 C-2.193456 22.37329897 -2.20068392 20.5308633 -2.21146011 18.68845177 C-2.22593254 16.11212738 -2.22797973 13.53607515 -2.22705078 10.9597168 C-2.23424133 10.19439133 -2.24143188 9.42906586 -2.24884033 8.64054871 C-2.23410689 4.8759112 -2.14294328 3.21441493 0 0 Z " fill="#F93D49" transform="translate(141,182)"/>
<path d="M0 0 C1.04217493 -0.00782324 2.08434986 -0.01564648 3.15810585 -0.02370679 C4.88118241 -0.01366855 4.88118241 -0.01366855 6.6390686 -0.00342751 C7.85641378 -0.00810748 9.07375896 -0.01278745 10.32799339 -0.01760924 C13.71326808 -0.02752864 17.09804583 -0.02392677 20.48329067 -0.01465058 C24.13160886 -0.00788057 27.77988268 -0.01833111 31.42819214 -0.02659035 C38.57767311 -0.03995184 45.72705976 -0.03703923 52.87654448 -0.02835242 C58.68547561 -0.02158576 64.49438026 -0.02065474 70.30331421 -0.02392387 C71.54199173 -0.02461342 71.54199173 -0.02461342 72.80569303 -0.0253169 C74.48309724 -0.02627605 76.16050145 -0.02724869 77.83790565 -0.02823468 C93.57836061 -0.03679564 109.31876321 -0.02694337 125.05920959 -0.01083358 C138.5742995 0.00257025 152.08931212 0.00024236 165.60440063 -0.01358986 C181.28734168 -0.02963321 196.97023679 -0.03597161 212.65318489 -0.02675307 C214.32452519 -0.02579739 215.9958655 -0.02485428 217.66720581 -0.02392387 C218.48960357 -0.02346105 219.31200133 -0.02299822 220.15932024 -0.02252137 C225.96335155 -0.01992774 231.7673538 -0.0243105 237.57138062 -0.03136253 C244.64158865 -0.03976392 251.71169672 -0.03752618 258.78189325 -0.0215203 C262.39136668 -0.01361914 266.00067326 -0.01057715 269.61014557 -0.02046776 C273.51734251 -0.03101251 277.42426439 -0.01844833 281.33145142 -0.00342751 C282.48016912 -0.01011967 283.62888683 -0.01681184 284.81241417 -0.02370679 C286.37567657 -0.01197193 286.37567657 -0.01197193 287.97052002 0 C288.87300791 0.00048706 289.7754958 0.00097411 290.7053318 0.00147593 C293.46333455 0.45637623 294.35490433 1.13560592 295.98526001 3.37752342 C296.62525254 8.49746365 296.62525254 8.49746365 294.77524376 11.04142821 C292.39454263 12.81845182 290.92802386 12.75345073 287.97052002 12.75504684 C286.92834509 12.76287009 285.88617016 12.77069333 284.81241417 12.77875364 C283.66369646 12.77206147 282.51497875 12.76536931 281.33145142 12.75847435 C280.11410624 12.76315432 278.89676105 12.76783429 277.64252663 12.77265608 C274.25725194 12.78257548 270.87247419 12.77897361 267.48722935 12.76969743 C263.83891116 12.76292741 260.19063734 12.77337796 256.54232788 12.78163719 C249.39284691 12.79499868 242.24346026 12.79208607 235.09397554 12.78339927 C229.28504441 12.77663261 223.47613976 12.77570158 217.66720581 12.77897072 C216.8414208 12.77943042 216.01563579 12.77989012 215.16482699 12.78036375 C213.48742278 12.78132289 211.81001857 12.78229553 210.13261437 12.78328152 C194.39215941 12.79184249 178.65175681 12.78199021 162.91131043 12.76588042 C149.39622052 12.75247659 135.8812079 12.75480449 122.36611938 12.7686367 C106.68317834 12.78468005 91.00028323 12.79101845 75.31733513 12.78179991 C73.64599483 12.78084423 71.97465452 12.77990112 70.30331421 12.77897072 C69.06971757 12.77827648 69.06971757 12.77827648 67.81119978 12.77756821 C62.00716847 12.77497458 56.20316622 12.77935734 50.3991394 12.78640938 C43.32893137 12.79481077 36.2588233 12.79257303 29.18862677 12.77656715 C25.57915334 12.76866598 21.96984676 12.76562399 18.36037445 12.7755146 C14.45317751 12.78605935 10.54625563 12.77349517 6.6390686 12.75847435 C5.49035089 12.76516652 4.34163319 12.77185868 3.15810585 12.77875364 C1.59484345 12.76701878 1.59484345 12.76701878 0 12.75504684 C-0.90248789 12.75455979 -1.80497578 12.75407273 -2.73481178 12.75357091 C-5.49281453 12.29867062 -6.38438431 11.61944093 -8.01473999 9.37752342 C-8.65473252 4.2575832 -8.65473252 4.2575832 -6.80472374 1.71361864 C-4.42402261 -0.06340497 -2.95750384 0.00159611 0 0 Z " fill="#2F5574" transform="translate(112.01473999023438,267.6224765777588)"/>
<path d="M0 0 C1.32422157 -0.00967334 1.32422157 -0.00967334 2.6751951 -0.0195421 C3.65105085 -0.01644489 4.62690661 -0.01334769 5.63233376 -0.01015663 C6.66435909 -0.01468774 7.69638442 -0.01921886 8.75968325 -0.02388728 C12.24052232 -0.03661386 15.72120657 -0.0349056 19.20206642 -0.03325844 C21.68845256 -0.03923854 24.17483684 -0.04604287 26.66121864 -0.05361366 C32.72763309 -0.06949067 38.79398596 -0.07572435 44.86041544 -0.07683842 C49.79025959 -0.07778775 54.72009088 -0.08189226 59.64993095 -0.08823967 C73.61825322 -0.10585927 87.58654471 -0.11507747 101.55487816 -0.11357872 C102.68517043 -0.11345885 102.68517043 -0.11345885 103.83829689 -0.11333656 C104.59274218 -0.1132548 105.34718748 -0.11317304 106.12449475 -0.1130888 C118.35315305 -0.11227579 130.58168821 -0.1314153 142.81031089 -0.1596133 C155.35806001 -0.18831948 167.90574905 -0.20215483 180.45353186 -0.20042574 C187.50158232 -0.19976103 194.54950371 -0.20528851 201.59752464 -0.22678185 C208.22457327 -0.24686138 214.85139534 -0.24634313 221.47847366 -0.23174858 C223.91498588 -0.22964949 226.35151484 -0.23442628 228.7879982 -0.2464695 C232.10614604 -0.26181215 235.42333864 -0.25268608 238.74146461 -0.23720741 C240.19855609 -0.2526381 240.19855609 -0.2526381 241.68508375 -0.26838052 C248.15591055 -0.20136023 248.15591055 -0.20136023 251.44731522 2.09286118 C252.81388283 4.25726891 252.81388283 4.25726891 252.75138283 7.38226891 C251.81388283 10.25726891 251.81388283 10.25726891 248.81388283 12.25726891 C246.83005863 12.51026857 246.83005863 12.51026857 244.5203352 12.51453781 C243.19835214 12.52421115 243.19835214 12.52421115 241.84966236 12.53407991 C240.8806104 12.53098271 239.91155843 12.5278855 238.91314125 12.52469444 C237.36994694 12.53149111 237.36994694 12.53149111 235.79557699 12.53842509 C232.33166319 12.55113406 228.86790532 12.54944454 225.40397072 12.54779625 C222.92728916 12.55377739 220.45060948 12.56058197 217.97393227 12.56815147 C211.93506044 12.58401859 205.89625044 12.59026162 199.85736353 12.59137623 C194.94994985 12.59232597 190.04254907 12.59643254 185.13513947 12.60277748 C171.22806286 12.620393 157.32101714 12.62961577 143.41392929 12.62811653 C142.66395351 12.62803662 141.91397773 12.62795671 141.14127541 12.62787437 C140.01494164 12.62775173 140.01494164 12.62775173 138.86585366 12.62762661 C126.69222419 12.62681343 114.51871837 12.64595832 102.34512467 12.67415111 C89.85158444 12.70285708 77.35810456 12.7166927 64.8645305 12.71496356 C57.84779384 12.7142989 50.83118683 12.71982415 43.81447983 12.74131966 C37.21778635 12.76139867 30.62132048 12.76088123 24.02459717 12.74628639 C21.59937199 12.74418733 19.17412998 12.7489639 16.74893379 12.76100731 C13.44616468 12.77635026 10.1443552 12.76722376 6.84160805 12.75174522 C5.8747868 12.76203235 4.90796556 12.77231948 3.9118467 12.78291833 C-2.52784807 12.71591111 -2.52784807 12.71591111 -5.8206625 10.42167664 C-7.18611717 8.25726891 -7.18611717 8.25726891 -7.06111717 5.13226891 C-5.72326139 0.73645705 -4.35862563 0.00802043 0 0 Z " fill="#2F5574" transform="translate(133.1861171722412,366.74273109436035)"/>
<path d="M0 0 C0.88890553 -0.00782324 1.77781105 -0.01564648 2.69365311 -0.02370679 C4.15992708 -0.01366855 4.15992708 -0.01366855 5.65582275 -0.00342751 C6.69349163 -0.00810748 7.73116051 -0.01278745 8.8002739 -0.01760924 C12.29424386 -0.02962169 15.78782611 -0.02007746 19.28179932 -0.01066017 C21.77980784 -0.01472309 24.27781457 -0.02006338 26.77581787 -0.02659035 C32.86652918 -0.03887741 38.95708704 -0.03704093 45.04779243 -0.02835242 C49.99669429 -0.02158428 54.94556506 -0.02065538 59.89447021 -0.02392387 C60.59813933 -0.02438357 61.30180845 -0.02484327 62.02680087 -0.0253169 C63.45617708 -0.02627605 64.88555329 -0.02724869 66.31492949 -0.02823468 C79.72624255 -0.03679454 93.13749415 -0.0269451 106.54879713 -0.01083358 C118.06269323 0.00257016 129.5764986 0.00024223 141.09039307 -0.01358986 C154.45287699 -0.02963516 167.81530701 -0.03597051 181.17779922 -0.02675307 C182.60199228 -0.02579739 184.02618535 -0.02485428 185.45037842 -0.02392387 C186.15115533 -0.02346105 186.85193223 -0.02299822 187.57394481 -0.02252137 C192.51836485 -0.01992832 197.46275077 -0.02430924 202.40716553 -0.03136253 C209.05883285 -0.04064244 215.71035491 -0.0340597 222.36201477 -0.01667976 C224.80861627 -0.01270046 227.25523215 -0.01387346 229.701828 -0.02046776 C233.0310918 -0.02861627 236.359798 -0.0184426 239.68902588 -0.00342751 C240.66654186 -0.01011967 241.64405785 -0.01681184 242.65119553 -0.02370679 C243.98455381 -0.01197193 243.98455381 -0.01197193 245.34484863 0 C246.11367496 0.00048706 246.8825013 0.00097411 247.6746254 0.00147593 C250.22013182 0.4806189 251.10674961 1.3486025 252.67242432 3.37752342 C253.23186454 6.49440467 253.01764553 7.8530724 251.27139282 10.50593376 C247.26743216 13.38929743 243.46983355 12.92995892 238.65142822 12.88545799 C237.62177759 12.89169796 236.59212696 12.89793792 235.5312748 12.90436697 C232.07028135 12.92036161 228.60998587 12.90766698 225.14898682 12.89510155 C222.67215564 12.90051977 220.19532768 12.90764073 217.71850586 12.91634178 C211.68303348 12.93271472 205.64783651 12.93028117 199.61237478 12.91869122 C194.70783448 12.90966241 189.80334994 12.90843048 184.89880371 12.91278648 C184.20110953 12.91339942 183.50341535 12.91401235 182.78457892 12.91464385 C181.36728396 12.91592274 179.94998902 12.91721959 178.5326941 12.91853422 C165.23864306 12.92994395 151.94470229 12.91682019 138.65066934 12.89533275 C127.24054805 12.87746138 115.83058954 12.88056538 104.42047119 12.8990078 C91.17442074 12.92040761 77.92846698 12.92884528 64.68240166 12.91655874 C63.27028276 12.91528453 61.85816385 12.91402705 60.44604492 12.91278648 C59.75123193 12.91216938 59.05641895 12.91155228 58.34055102 12.91091648 C53.44116245 12.9074609 48.54183514 12.91329638 43.64245605 12.9227047 C37.04982789 12.93508613 30.45746008 12.92628747 23.86484528 12.90312767 C21.44124107 12.89782589 19.01761106 12.89937928 16.59401703 12.90817833 C13.29346461 12.91905898 9.9939088 12.90545985 6.69342041 12.88545799 C5.72728128 12.89438088 4.76114216 12.90330377 3.76572609 12.91249704 C-2.69056142 12.83625515 -2.69056142 12.83625515 -5.92654419 10.50593376 C-7.67279689 7.8530724 -7.88701591 6.49440467 -7.32757568 3.37752342 C-5.09785904 0.48808622 -3.59376138 0.00227667 0 0 Z " fill="#335877" transform="translate(133.32757568359375,316.6224765777588)"/>
<path d="M0 0 C0.7633653 -0.00453111 1.52673061 -0.00906223 2.31322819 -0.01373065 C4.87888814 -0.02642162 7.4443371 -0.02475128 10.01002502 -0.02310181 C11.84632135 -0.02908408 13.68261516 -0.03588893 15.51890564 -0.04345703 C20.51265236 -0.06115373 25.50633058 -0.06581392 30.50010562 -0.0670886 C34.66529666 -0.0689855 38.83047167 -0.07634053 42.99565655 -0.08343279 C52.81995298 -0.0997279 62.64421273 -0.10460068 72.46852112 -0.10317993 C82.61203376 -0.10197783 92.75533385 -0.1230907 102.89879268 -0.15466726 C111.60034007 -0.18079257 120.30181788 -0.19154882 129.0034042 -0.19026911 C134.20369467 -0.18975842 139.40379627 -0.19550055 144.60404778 -0.21662521 C149.49358075 -0.2359449 154.38274348 -0.23617521 159.27228928 -0.22159195 C161.06861853 -0.21949501 162.86497058 -0.22425712 164.6612606 -0.23631287 C167.11022512 -0.2516868 169.55790037 -0.24251046 172.00683594 -0.22705078 C173.07770035 -0.24248147 173.07770035 -0.24248147 174.17019838 -0.25822389 C177.55210037 -0.21091602 179.29224141 0.05728171 182.01207066 2.13817406 C183.56690979 4.26742554 183.56690979 4.26742554 184.00440979 6.82992554 C183.46710772 9.82346564 183.043974 10.51790584 180.56690979 12.26742554 C177.98195933 12.5642152 175.63702476 12.67655336 173.05116272 12.65510559 C172.27892475 12.66049113 171.50668677 12.66587667 170.71104765 12.6714254 C168.11531502 12.68576875 165.52008779 12.67858575 162.92433167 12.67147827 C161.06670724 12.67717848 159.20908631 12.68414137 157.35147095 12.692276 C152.29990511 12.71026014 147.24851248 12.7090293 142.19692421 12.70333362 C137.98441226 12.70024968 133.77193396 12.70632526 129.55942678 12.71237236 C119.62488109 12.72643293 109.69042136 12.72484326 99.75587463 12.71347046 C89.49531666 12.70198426 79.23501991 12.7160699 68.97449636 12.74286693 C60.17444306 12.76499207 51.37447195 12.77166862 42.5743928 12.76579052 C37.31434279 12.76241251 32.0544603 12.76489196 26.79443359 12.78204155 C21.84989622 12.79745819 16.90574725 12.79361415 11.96122551 12.7747364 C10.14351923 12.77103599 8.3257845 12.774201 6.50810432 12.78462219 C4.03250126 12.79773502 1.55820261 12.78637247 -0.91734314 12.76863098 C-2.00424966 12.78303849 -2.00424966 12.78303849 -3.11311388 12.79773706 C-6.32919585 12.75009286 -8.00703196 12.66299062 -10.4106369 10.4314127 C-11.86642842 7.35028017 -11.40991226 5.47698369 -10.43309021 2.26742554 C-6.81328245 -0.14577963 -4.18169686 -0.01808524 0 0 Z " fill="#315676" transform="translate(137.43309020996094,416.7325744628906)"/>
<path d="M0 0 C0.97438522 -0.00990463 1.94877045 -0.01980927 2.9526825 -0.03001404 C4.02029816 -0.02551239 5.08791382 -0.02101074 6.18788147 -0.01637268 C7.87602211 -0.02666756 7.87602211 -0.02666756 9.5982666 -0.03717041 C13.32886777 -0.05551368 17.0590514 -0.05159002 20.78968811 -0.0459137 C23.37656797 -0.0504719 25.96344662 -0.05577638 28.55032349 -0.0617981 C33.97676586 -0.07074406 39.40304713 -0.06852203 44.82948303 -0.05836487 C51.10132646 -0.04688467 57.37274222 -0.06095558 63.64452928 -0.08776134 C69.67858613 -0.11258519 75.71242283 -0.11509723 81.74653816 -0.10864449 C84.3138303 -0.10849081 86.88113049 -0.11457273 89.44839287 -0.12693596 C93.03505863 -0.14177342 96.62077709 -0.13122099 100.20741272 -0.11402893 C101.80579987 -0.12853088 101.80579987 -0.12853088 103.43647766 -0.14332581 C110.58860648 -0.07135011 110.58860648 -0.07135011 113.95718384 2.22372437 C115.26234436 4.38768005 115.26234436 4.38768005 115.19984436 7.51268005 C114.26234436 10.38768005 114.26234436 10.38768005 111.26234436 12.38768005 C109.07434845 12.64494896 109.07434845 12.64494896 106.47999573 12.65510559 C105.49575119 12.66363556 104.51150665 12.67216553 103.49743652 12.68095398 C101.87963036 12.67959442 101.87963036 12.67959442 100.22914124 12.6782074 C98.5239608 12.68828323 98.5239608 12.68828323 96.78433228 12.69856262 C93.01654219 12.71760268 89.24892959 12.72146962 85.48109436 12.72361755 C82.86939927 12.73004038 80.25770491 12.73676834 77.64601135 12.74378967 C72.16833841 12.75658081 66.69071382 12.7595544 61.21302795 12.75828552 C54.87869978 12.75708308 48.54471178 12.7782049 42.21046972 12.80977285 C36.11876596 12.83905183 30.0272258 12.84626239 23.93545532 12.84506607 C21.34220997 12.84743251 18.74896233 12.85631417 16.15576172 12.8717308 C12.53539964 12.89124129 8.91592263 12.88561139 5.29554749 12.8735199 C4.21701004 12.88475891 3.1384726 12.89599792 2.0272522 12.90757751 C1.04300766 12.89918854 0.05876312 12.89079956 -0.95530701 12.88215637 C-2.2395116 12.88379067 -2.2395116 12.88379067 -3.54965973 12.88545799 C-5.73765564 12.38768005 -5.73765564 12.38768005 -7.54436493 10.51693153 C-8.73765564 8.38768005 -8.73765564 8.38768005 -8.61265564 5.82518005 C-6.94706367 1.18531671 -4.83327879 0.01385826 0 0 Z " fill="#F9FBFC" transform="translate(202.73765563964844,21.612319946289063)"/>
<path d="M0 0 C0.97438522 -0.00990463 1.94877045 -0.01980927 2.9526825 -0.03001404 C4.02029816 -0.02551239 5.08791382 -0.02101074 6.18788147 -0.01637268 C7.87602211 -0.02666756 7.87602211 -0.02666756 9.5982666 -0.03717041 C13.32886777 -0.05551368 17.0590514 -0.05159002 20.78968811 -0.0459137 C23.37656797 -0.0504719 25.96344662 -0.05577638 28.55032349 -0.0617981 C33.97676586 -0.07074406 39.40304713 -0.06852203 44.82948303 -0.05836487 C51.10132646 -0.04688467 57.37274222 -0.06095558 63.64452928 -0.08776134 C69.67858613 -0.11258519 75.71242283 -0.11509723 81.74653816 -0.10864449 C84.3138303 -0.10849081 86.88113049 -0.11457273 89.44839287 -0.12693596 C93.03505863 -0.14177342 96.62077709 -0.13122099 100.20741272 -0.11402893 C101.80579987 -0.12853088 101.80579987 -0.12853088 103.43647766 -0.14332581 C110.58860648 -0.07135011 110.58860648 -0.07135011 113.95718384 2.22372437 C115.26234436 4.38768005 115.26234436 4.38768005 115.19984436 7.51268005 C114.26234436 10.38768005 114.26234436 10.38768005 111.26234436 12.38768005 C109.09275913 12.64494896 109.09275913 12.64494896 106.52468872 12.65510559 C105.5503035 12.66363556 104.57591827 12.67216553 103.57200623 12.68095398 C102.50439056 12.68004761 101.4367749 12.67914124 100.33680725 12.6782074 C99.21138016 12.68492462 98.08595306 12.69164185 96.92642212 12.69856262 C93.19590372 12.71760365 89.46556461 12.7214698 85.73500061 12.72361755 C83.14812139 12.73004077 80.5612429 12.73676876 77.97436523 12.74378967 C72.54795844 12.75577742 67.1216231 12.75955441 61.69520569 12.75828552 C55.42337996 12.75708368 49.15189813 12.77819332 42.88015944 12.80977285 C36.8461211 12.83907279 30.81226957 12.84626179 24.77815056 12.84506607 C22.21085136 12.84743084 19.64354979 12.85630324 17.07629585 12.8717308 C13.48966326 12.89126713 9.90392212 12.88560084 6.317276 12.8735199 C5.25168457 12.88475891 4.18609314 12.89599792 3.08821106 12.90757751 C-4.07715475 12.84606526 -4.07715475 12.84606526 -7.43249512 10.51747131 C-8.73765564 8.38768005 -8.73765564 8.38768005 -8.67515564 5.82518005 C-6.90402705 1.22024573 -4.86394613 0.01394619 0 0 Z " fill="#FBFCFC" transform="translate(202.73765563964844,45.61231994628906)"/>
</svg>
