<svg width="142px" height="158px" viewBox="0 0 142 158" version="1.1" xmlns="http://www.w3.org/2000/svg" xmlns:xlink="http://www.w3.org/1999/xlink">
    <g id="Home" stroke="none" stroke-width="1" fill="none" fill-rule="evenodd">
        <g id="Home-Default-6" transform="translate(-34, -250)" fill-rule="nonzero">
            <g id="Group" transform="translate(105, 329) scale(1, -1) translate(-105, -329)translate(34, 250)">
                <path d="M122.432182,34.5305708 C121.275928,30.9753983 119.096573,28.5331494 117.564992,29.0753429 C117.516056,29.0943672 117.46712,29.1133916 117.421826,29.137172 C117.420005,29.137172 117.420005,29.137172 117.420005,29.137172 C116.014292,29.8363163 115.764378,33.0585629 116.882165,36.4972113 C117.863615,39.5173244 119.580242,41.7312813 121.01395,42 C121.35286,41.940549 121.661953,41.8953662 121.94305,41.8644516 C121.962397,41.8525614 121.981516,41.8430492 122.000635,41.831159 C123.312345,41.0273809 123.521746,37.8812316 122.432182,34.5305708" id="path542" fill="#0B0231"></path>
                <path d="M121.146853,41.8942632 C120.298052,41.7393127 119.353237,40.9526411 118.511513,39.7392597 C118.477071,39.6891988 118.442628,39.6415217 118.408421,39.5890769 C117.816525,38.7022835 117.277002,37.6057109 116.864397,36.3780264 C116.406497,35.0144622 116.169409,33.684272 116.142279,32.5304869 C116.136853,32.3326271 116.138505,32.1371511 116.145818,31.9488267 C116.147705,31.8868465 116.151244,31.8248663 116.15667,31.76527 C116.174835,31.4601367 116.210929,31.1740743 116.263536,30.9094666 C116.448017,29.9678445 116.839154,29.2812947 117.42185,29 C115.363779,29.1740213 111.097601,29.2741431 109.741831,29.4124066 C97.337735,30.6543943 84.8012936,34.2015682 74.404547,40.6713464 C70.424054,43.1481701 66.7570842,46.0540875 63.5315001,49.4272401 C59.5710594,53.5656096 56.2751745,58.4048321 53.8821133,64.0068877 C51.9238325,68.5910378 50.4956393,73.5875946 50.685782,78.6199092 C50.781561,81.1491777 43.5577908,87.5498242 46.2999973,88.6726191 C48.1570731,89.4330684 50.5916543,88.8084988 53.2161421,87.4210961 C57.9439949,84.91805 63.2889856,79.9381801 66.9922855,76.1049438 C68.5816046,74.460085 69.8703756,73.0250052 70.675769,72.0905346 C74.6977819,67.4205658 81.4509136,62.6361719 85.4240934,57.9542838 C91.2378353,51.1054729 113.255224,43.2077665 121.146853,41.8942632" id="path548" fill="#0E8687"></path>
                <path d="M122.19021,42.0142857 C122.174978,41.9928571 122.159746,41.9714286 122.14606,41.95 C122.127517,41.9857143 122.108974,42.0142857 122.09021,42.05 C122.124205,42.0357143 122.15798,42.0285714 122.19021,42.0142857" id="path550" fill="#B2A61C"></path>
                <path d="M114.641342,120.998178 C115.063857,120.958472 115.200588,120.416613 115.188029,119.99854 C115.151772,118.784027 114.775229,117.606884 114.402004,116.44609 C112.989909,112.062165 111.576865,107.675905 109.892256,103.385404 C109.737042,102.990687 109.569505,102.581957 109.252441,102.294678 C108.93514,102.009735 108.422103,101.885948 108.070679,102.131186 C107.835369,102.294678 107.723283,102.577286 107.638448,102.850551 C106.670432,105.947559 107.659539,109.282799 108.751016,112.340102 C109.384906,114.117495 110.065717,115.899559 111.0707,117.508788 C111.540135,118.260852 112.056727,119.019923 112.767632,119.564118 C113.208157,119.90278 114.099869,121.051896 114.641342,120.998178" id="path588" fill="#CF6B50"></path>
                <path d="M114.438548,120.594452 C114.160756,120.594452 113.640376,120.028417 113.293305,119.647849 C113.105779,119.445521 112.943752,119.26728 112.809708,119.156482 C112.135651,118.595264 111.645509,117.795589 111.238863,117.089851 C110.274602,115.418241 109.627399,113.558755 109.046992,111.798025 C108.055426,108.789608 107.07424,105.311502 107.990209,102.136888 C108.062873,101.886387 108.154492,101.633478 108.329833,101.50341 C108.587541,101.308309 108.983355,101.428742 109.216691,101.655156 C109.475302,101.908065 109.617921,102.264547 109.777465,102.705332 C111.379903,107.125223 112.746522,111.718539 114.067783,116.162517 C114.414854,117.328309 114.773659,118.535048 114.807734,119.770691 C114.816535,120.086225 114.730557,120.565548 114.458632,120.594452 L114.458407,120.594452 C114.452088,120.594452 114.445318,120.594452 114.438548,120.594452 L114.438548,120.594452 Z M108.634253,101 C108.45124,101 108.269581,101.050582 108.110262,101.171015 C107.841948,101.373342 107.719187,101.698512 107.626665,102.018863 C106.676846,105.311502 107.676536,108.861868 108.688187,111.93291 C109.275364,113.71291 109.930916,115.596482 110.91481,117.301814 C111.338832,118.038864 111.851766,118.874669 112.57592,119.476834 C112.689655,119.570772 112.851004,119.746604 113.021606,119.932071 C113.499787,120.45475 114.042734,121.049689 114.495867,120.996699 L114.495867,120.996699 C114.995938,120.946117 115.203774,120.336726 115.187977,119.758647 C115.152322,118.467605 114.785393,117.231962 114.430424,116.039676 C113.107133,111.59088 111.738934,106.990338 110.132208,102.558403 C109.992297,102.173018 109.818536,101.693694 109.473722,101.356482 C109.259793,101.146928 108.945218,101 108.634253,101" id="path590" fill="#0B0231"></path>
                <path d="M112.208942,99.0978579 C112.147502,97.7353956 108.763637,96.8118643 104.651065,97.0325984 C100.538262,97.2558697 97.254093,98.5396797 97.3155335,99.9021421 C97.376974,101.264604 100.760838,102.188136 104.87341,101.967402 C108.986214,101.74413 112.270383,100.46032 112.208942,99.0978579" id="path592" fill="#0B0231"></path>
                <path d="M99.342758,114.691656 C99.268927,115.935123 99.2218779,117.294711 99.8371359,118.29142 C99.9348533,118.448667 100.052597,118.598658 100.205567,118.671234 C100.762918,118.930088 101.219416,118.083369 101.413644,117.401156 C101.178881,119.510695 100.94653,121.683133 101.376487,123.741869 C101.517876,124.419244 101.990056,125.224836 102.526899,124.94179 C102.728607,124.837765 102.858415,124.600683 102.965059,124.368441 C103.682378,122.815317 103.879743,121.013015 104.195817,119.280871 C105.21618,113.692528 107.600003,108.288043 107.199964,102.602932 C107.142299,101.780406 106.977024,100.868369 106.40399,100.418398 C106.072957,100.159544 105.661819,100.103903 105.266848,100.057938 C104.340583,99.9563318 103.328665,99.9176246 102.562608,100.561131 C102.076434,100.969975 101.758671,101.601385 101.455144,102.213442 C100.487138,104.165733 99.8967315,105.363235 99.7630636,107.613088 C99.6233639,109.964546 99.4028361,112.335359 99.342758,114.691656" id="path594" fill="#CF6B50"></path>
                <path d="M99.8452783,98 C99.8339797,98 99.8226811,98.0023596 99.8113825,98.0047192 C99.7078873,98.0235959 99.6389658,98.1274177 99.6574955,98.2359587 C100.551215,103.422331 99.9365711,108.941405 99.5691404,112.237748 C99.4486973,113.320799 99.353563,114.174969 99.3395528,114.74127 C99.2631742,116.079156 99.2428367,117.36985 99.8312681,118.360876 C99.9160076,118.504811 100.052495,118.707736 100.257451,118.806838 C100.4023,118.877626 100.560028,118.875266 100.713915,118.802119 C100.91503,118.705376 101.098972,118.488294 101.2567,118.22874 C101.068013,120.033824 100.92068,121.978123 101.248339,123.613317 C101.351608,124.127707 101.633848,124.736481 102.031785,124.932326 C102.219115,125.02671 102.415711,125.021991 102.60033,124.920528 C102.838957,124.790751 102.979286,124.531196 103.095435,124.269282 C103.651101,123.016342 103.880914,121.593511 104.103271,120.217871 C104.155245,119.896968 104.206766,119.576064 104.262581,119.259879 C104.281563,119.151338 104.212867,119.047516 104.109598,119.02864 C104.006781,119.007403 103.906901,119.078191 103.88792,119.186732 C103.831878,119.507636 103.779905,119.82854 103.727705,120.151803 C103.509642,121.501487 103.284122,122.896003 102.749924,124.101752 C102.666088,124.290519 102.562141,124.493443 102.424072,124.56895 C102.344982,124.611422 102.274253,124.613782 102.19471,124.573669 C101.963993,124.460409 101.717231,124.012087 101.620967,123.530732 C101.25783,121.718569 101.503462,119.469882 101.720169,117.48311 L101.775984,116.96872 C101.787057,116.864898 101.720621,116.770515 101.623453,116.751638 C101.527189,116.730402 101.430699,116.791751 101.403582,116.890854 C101.231165,117.523223 100.857859,118.297168 100.555509,118.441102 C100.489073,118.471777 100.449076,118.459979 100.41857,118.445822 C100.334056,118.405709 100.247735,118.308965 100.155086,118.153233 C99.6254075,117.258949 99.6471008,116.036683 99.7200898,114.757787 C99.7338741,114.203284 99.8281045,113.356192 99.9474177,112.28494 C100.317108,108.965001 100.936046,103.410533 100.032383,98.1651711 C100.015887,98.068428 99.9356672,98 99.8452783,98" id="path596" fill="#0B0231"></path>
                <path d="M115.156669,126.719015 C114.158892,122.642532 110.342732,107.016815 109.206294,102.82496 C109.132038,102.553354 108.967424,102.337031 108.754507,102.190413 C108.465652,101.995722 108.086199,101.938036 107.730056,102.07504 L99.5808232,105.194896 L99.0242597,105.408815 C98.5044641,105.605909 98.2108024,106.158734 98.3367261,106.701945 L103.566884,129.137023 C103.703862,129.723498 104.281814,130.096054 104.872261,129.978278 L114.293227,128.077041 C114.914434,127.952055 115.307104,127.336736 115.156669,126.719015" id="path598" fill="#0B0231"></path>
                <path d="M115.158429,125.948197 C114.810856,124.546437 114.100609,121.674825 113.289525,118.415792 C113.076646,117.561118 112.855973,116.678268 112.635543,115.788373 C111.418917,110.918608 110.137014,105.835174 109.566819,103.764232 C109.497889,103.512996 109.342736,103.311067 109.142766,103.177231 C108.869969,102.996434 108.512897,102.94243 108.178477,103.069223 L105.195733,104.196266 L102.56251,105.19182 L100.501431,105.971358 L99.9762962,106.168591 C99.4864793,106.354084 99.2100286,106.868297 99.3276724,107.37077 L104.242648,128.197587 C104.369791,128.744672 104.915385,129.089829 105.470478,128.979473 L108.509243,128.373687 L111.256213,127.826602 L114.345396,127.209076 C114.930448,127.091676 115.30043,126.52111 115.158429,125.948197" id="path600" fill="#EDEDED"></path>
                <path d="M110.216122,103.763056 C110.152226,104.546556 110.093152,105.391414 109.936907,106.207954 C109.706639,107.411523 109.265152,108.551374 108.285971,109.334874 C107.73598,109.773823 106.988996,110.215132 106.364499,109.884741 C105.923012,109.651106 105.746513,109.10124 105.793049,108.612733 C105.839585,108.121865 106.061173,107.668757 106.234778,107.208568 C106.685428,106.012079 106.815149,104.707032 106.627318,103.444464 L99.6939632,106.042758 C99.7214506,104.261003 99.540612,102.479248 99.3006993,100.711653 C102.054752,98.4956688 106.448891,98.6632246 109.664203,99.9021932 C110.068558,101.511673 110.266275,103.144751 110.216122,103.763056" id="path602" fill="#CF6B50"></path>
                <path d="M40.1222691,83.4195996 C32.8906013,95.1051455 23.812691,89.8774013 19.0350423,78.2776733 C14.0547227,66.1844922 5.15019287,47.8170644 4.97067082,32.5748407 C4.8166598,19.494753 7.70696479,5.35624368 27.5566705,8.42423583 C28.1316135,8.51243763 28.7105721,9.0416484 29.1730776,9.55655617 C30.8270426,11.3992585 32.3978605,13.425516 33.7815976,15.7211465 C37.6356525,22.1193523 39.8997563,30.381715 41.4819124,38.753734 C42.8592717,46.0434932 43.7776688,53.6002415 43.686018,61.226121 C43.5943673,68.8520005 43.599564,77.8009069 40.1222691,83.4195996" id="path604" fill="#C6C6C6"></path>
                <path d="M51.941595,88.7108393 C49.6181759,89.3332226 47.5072573,90.7144347 45.9579133,92.5552529 C45.6028702,92.9765585 43.9096111,94.7915143 43.8704537,95.7394519 C45.651877,94.9183848 47.6099944,94.4067654 49.5587918,94.344527 C50.4126143,94.3158016 51.2994392,94.5153062 52.1785708,94.692446 C56.5985826,95.5877204 57.4806969,100.478671 55.8198498,104.739602 C55.1883172,106.357799 54.5181047,107.964026 53.6795632,109.481684 C53.0647441,110.592399 52.4193632,111.688751 51.7438979,112.763559 C50.3757762,114.9419 48.7643534,117.146573 46.4051195,118.161537 C45.343333,118.618749 44.1858018,118.807858 43.034956,118.913184 C39.8109165,119.205226 36.3822556,118.810252 33.7212232,116.962252 C32.9545498,116.430833 32.2599834,115.779724 31.7506983,114.996957 C30.4551611,113.002937 30.5232091,110.309933 31.5830855,108.18186 C31.8378474,107.669591 32.1451376,107.183653 32.3511915,106.64984 C32.9182576,105.182452 33.546925,104.081312 34.5399473,102.934691 C34.3895256,102.822183 34.2570112,102.707282 34.1588789,102.606743 C33.6710826,102.101655 33.3960257,101.390702 33.4459275,100.689323 C33.497262,99.9664013 33.8821506,99.2961424 34.4028964,98.7910545 C35.1094011,98.1088267 36.0783082,97.7066713 37.0591535,97.6899148 C37.6646608,97.6779459 38.2706455,97.8143915 38.8181329,98.0729199 C39.1010691,96.8592726 39.9207483,95.1381434 40.1119988,94.4750659 C41.0436586,91.269792 41.8447141,88.0262177 42.5113451,84.7563118 C42.5953902,84.3397937 42.6815843,83.9160944 42.8881157,83.5426644 C43.0600263,83.2338665 43.3100129,82.9753381 43.5652524,82.7311724 C46.1780543,80.2344579 49.8220809,78.8604272 53.429099,79.0112354 C54.5362509,79.0567173 55.9492603,79.6048933 55.8535156,80.7132143 C55.8205661,81.0866443 55.6037678,81.4193799 55.400579,81.7353591 C53.9909123,83.9256695 52.9281707,86.2955135 51.941595,88.7108393 Z" id="path606" fill="#CF6B50"></path>
                <path d="M51.941595,88.7108393 C51.1533281,90.5802755 50.0994713,92.7619519 49.2728973,94.6152324 C47.3309007,94.675239 45.4605214,95.2083745 43.6853147,96 C43.7243354,95.0860534 45.3127659,93.1127596 45.66657,92.7065612 C47.2105074,90.9317507 49.6262839,89.3109052 51.941595,88.7108393 Z" id="path608" fill="#9A4C3F"></path>
                <path d="M64.4831207,70.4735608 C64.903592,69.1745959 65.3047927,67.8564581 65.7057611,66.5239406 C65.7145838,66.4951813 65.7215491,66.4688185 65.7303718,66.4424558 C66.2666991,64.6569782 66.7900245,62.8691041 67.2905966,61.0716435 C68.6711169,56.1202386 69.8819163,51.1137117 70.7456122,46.0352863 C70.7978518,45.7333129 70.890258,45.2923359 71.0177228,44.7363215 C71.0488344,44.5997144 71.0815713,44.4583142 71.1161655,44.3097241 C71.2020708,43.9430422 71.3000492,43.5332212 71.407779,43.0898475 C72.407298,42.3636734 73.4295702,41.6638621 74.4755245,41 C73.0984868,47.7776248 69.7686143,63.9990307 67.2905966,75.9365658 C63.645893,79.7903213 58.01158,84.8350412 53.3585347,87.351486 C53.7490552,87.0974449 54.2380628,86.8227715 54.6058301,86.5351778 C56.0158368,85.4303387 57.4823087,84.4554077 58.3759553,83.254704 C61.296501,79.32905 63.01507,75.0151446 64.4831207,70.4735608 Z" id="path610" fill="#0B0231"></path>
                <path d="M61.3900443,6 L41.6822608,5.725242 C37.0752098,5.46165302 32.4491097,5.05510052 27.8041958,4.51228593 L28.041486,0 L79.4405594,2.38570365 L78.5421963,4.80491437 C72.8552281,5.43037975 67.1379225,5.82799702 61.3900443,6" id="path612" fill="#0B0231"></path>
                <path d="M61.3401299,6.11287939 C67.0925204,5.92883899 72.8143144,5.50339495 78.5057472,4.83415713 C79.1487458,4.76006295 79.7912738,4.68118849 80.4335664,4.5999239 C80.2259805,5.70177616 77.8274447,15.078276 77.1458473,17.9320972 C76.4835492,20.7022638 75.6670915,24.0197712 74.8240383,27.3396688 C74.2450571,29.6222478 73.6526604,31.9072169 73.0929785,34.0177062 C72.9922452,34.3953475 72.8915119,34.7705987 72.7945443,35.1434598 C72.7502969,35.3083791 72.7060496,35.4709083 72.6636851,35.6310473 C72.5930776,35.8963523 72.524353,36.1592672 72.4553931,36.4174018 C72.2278017,37.2802405 72.0089185,38.1120075 71.8025093,38.9031422 C71.7479062,39.1134741 71.6930678,39.3214158 71.6403475,39.5245773 C71.5610318,39.8305146 71.4833636,40.1292815 71.4075782,40.4184878 C71.4056954,40.4256582 71.4056954,40.4280484 71.4040479,40.4328286 C71.3494447,40.6455507 71.2948416,40.8558826 71.241886,41.0614342 L71.241886,41.0638243 C71.080901,41.69482 70.9335668,42.2780129 70.8012954,42.8134032 C70.6920892,43.2555781 70.592768,43.6642912 70.5056855,44.0299819 C70.4706171,44.1781703 70.4374316,44.3191882 70.4058936,44.4554259 C70.2766819,45.0099373 70.1830093,45.4497221 70.1300537,45.7508791 C69.2545211,50.8155753 68.0271279,55.8085675 66.6276879,60.7465865 C66.1202555,62.5391878 65.5897581,64.3222285 65.0460806,66.1028791 C65.037137,66.1291706 65.0300762,66.1554621 65.0211326,66.1841437 C64.6146689,67.5130588 64.2079699,68.8276331 63.7817362,70.1230863 C62.293566,74.6523922 60.5514444,78.9546353 57.5908732,82.8696765 C56.6849794,84.0671342 55.4406404,85.3769282 54.0113099,86.4787805 C53.6385024,86.7655967 53.2518088,87.0380721 52.8559363,87.2914264 C52.6808298,87.4037627 52.5045465,87.513709 52.3256742,87.6164848 C52.2129376,87.6834086 52.0980828,87.7455521 51.983228,87.8076956 C51.5842958,88.0251979 51.177126,88.2164087 50.7676027,88.381328 C50.7657198,88.3837181 50.7657198,88.3837181 50.763837,88.3837181 C50.7600712,88.3837181 50.7581884,88.3861083 50.7541873,88.3861083 C48.9007412,89.1270501 46.9531518,89.284799 45.1510139,88.3693773 C44.2910149,87.9295925 43.5176277,87.3440094 42.751772,86.7488657 L42.7498892,86.7464756 C42.716939,86.7225743 42.682106,86.6962828 42.6491558,86.6699913 C42.5427739,86.5863366 42.4385102,86.5074621 42.3321283,86.4238074 C42.2836445,86.3855652 42.2353961,86.3473231 42.1869123,86.311471 C41.2257093,85.5633588 40.2642709,84.8200268 39.3030679,84.0719145 C38.8660076,83.7325153 38.428712,83.3931161 37.9916518,83.0537169 C37.0612807,82.3342863 37.3754839,83.3500937 37.1815488,83.5436946 C37.1069402,83.6177888 36.9574877,83.5699861 36.6312812,83.2544883 C35.1647641,81.8227974 32.6226598,76.5931819 32.2303176,75.108908 C31.7162952,73.1705085 31.2404009,71.2249386 30.7983981,69.267418 C28.9385974,61.0405731 26.4626288,41.5992146 25.3402054,26.8664221 C25.2491217,25.6761348 25.1679232,24.5169193 25.0954328,23.3983361 C24.8791386,20.0234654 23.8204973,4.53539025 23.8321678,4 C25.1323841,4.18643053 26.4308554,4.35852026 27.7279146,4.52104944 C32.3764751,5.10185226 37.0062069,5.53685684 41.6168746,5.81889278 C48.2302056,6.22521574 54.8049378,6.32560141 61.3401299,6.11287939" id="path614" fill="#2E9894"></path>
                <path d="M48.5173533,103 C48.4144115,103 48.3255188,103.071031 48.3127469,103.168106 C48.2986977,103.272284 48.3794164,103.369359 48.4925757,103.381198 C49.0877478,103.449861 49.847167,103.577716 50.4425946,103.984959 C50.9228193,104.314067 51.3417387,104.922564 51.1953724,105.542898 C51.1603773,105.692062 51.0998383,105.808079 51.0150327,105.890948 C50.859726,106.040113 50.6101624,106.09457 50.3460388,106.151394 C50.2525482,106.170336 50.1590577,106.189277 50.0688878,106.215322 C48.8415049,106.542063 47.8003369,107.782732 47.0401514,108.689557 L46.9080896,108.848192 C46.0521145,109.863931 45.6393256,110.863095 45.6812176,111.814906 C45.6858155,111.921452 45.781605,112.006689 45.8957861,111.999586 C46.0097117,111.994851 46.0986044,111.904879 46.0937511,111.8007 C46.0562016,110.938861 46.439615,110.024933 47.2337739,109.082593 L47.3660911,108.923958 C48.091537,108.059751 49.084938,106.875907 50.1830689,106.582314 C50.2663419,106.561004 50.3521693,106.542063 50.4385076,106.523121 C50.7360936,106.459194 51.0730173,106.388163 51.3138959,106.153762 C51.4515774,106.021171 51.5476223,105.843595 51.5987101,105.625767 C51.7598919,104.941505 51.3938482,104.160168 50.6875603,103.677159 C50.0149902,103.217827 49.1878798,103.073398 48.5426417,103.002368 C48.5342122,103 48.5257827,103 48.5173533,103" id="path616" fill="#0B0231"></path>
                <path d="M45.0989181,111 C45.0930402,111 45.0874178,111 45.0815399,111 C44.8535795,111.00883 44.6762201,111.174402 44.6856759,111.37088 C44.700754,111.690985 44.7723111,112.006675 44.8980471,112.309119 C45.2798553,113.231905 47.1584845,115.368882 49.3284533,114.945019 C49.551047,114.900867 49.6905833,114.708804 49.6399822,114.516741 C49.5893811,114.324677 49.3680653,114.203258 49.1454716,114.247411 C47.484836,114.574139 45.9399695,112.706491 45.6762305,112.070696 C45.5786062,111.834481 45.5231494,111.589435 45.5113936,111.342181 C45.5021934,111.150118 45.3192117,111 45.0989181,111" id="path618" fill="#0B0231"></path>
                <path d="M37.1451048,106 C37.1436064,106 37.142108,106 37.1406096,106 C36.9175969,106.002325 36.7387872,106.172075 36.7412587,106.37903 C36.7565184,107.644012 37.4510292,108.943875 38.5995569,109.855406 C39.6908954,110.722756 41.1703209,111.152943 42.3675467,110.950639 C42.5870631,110.913434 42.7326582,110.718106 42.6927007,110.513476 C42.6529929,110.308847 42.4422173,110.173977 42.2234501,110.211183 C41.2549808,110.373956 40.0382757,110.011204 39.1239987,109.283374 C38.150285,108.509037 37.5614118,107.42078 37.548925,106.372054 C37.5464277,106.165099 37.3661196,106 37.1451048,106" id="path620" fill="#0B0231"></path>
                <path d="M48.767311,99.8174514 C50.3453356,100.250107 52.5936105,100.902887 52.9334861,103.858104 C52.9518402,104.017504 53.1347339,104.052926 53.2005929,103.911237 C54.7278737,100.62457 51.8464888,97.8211614 48.7394559,99.5037125 C48.616807,99.5694965 48.6360248,99.7820293 48.767311,99.8174514" id="path622" fill="#0B0231"></path>
                <path d="M38.7272727,104.382052 L52.0788229,115 C52.0788229,115 55.2352016,110.794653 52.5207679,109.084462 C50.5064145,107.817198 48.3372743,109.052473 47.3523954,109.77592 C47.0090799,110.026912 46.55109,110.021991 46.2098982,109.766078 L46.2098982,109.766078 C45.8262343,109.480636 45.6907957,108.954044 45.880976,108.503735 C46.4036177,107.268461 47.1277656,104.788069 45.3696601,103.277195 C43.0853735,101.316012 40.662345,101.559622 38.7272727,104.382052" id="path628" fill="#2C0EAE"></path>
                <path d="M26.2465424,24.0037961 C25.7676393,24.0155898 25.2934567,24.0438945 24.8251748,24.0957865 L25.1929083,27.5088666 C32.2043904,26.7540735 41.2650777,31.8583618 48.2654665,40.5148951 C55.0189688,48.8671525 60.8198574,62.0783904 56.8465425,74.1102641 C54.5721656,80.9977511 51.4329778,85.0736338 47.516546,86.227052 C42.4997462,87.703616 37.7003293,83.8966283 37.6521794,83.8588887 L35.4948729,86.5289693 C35.7474241,86.7341786 41.7600308,91.4988101 48.4870979,89.5198369 C53.5494512,88.0291205 57.4595102,83.2078796 60.1082295,75.1858443 C62.0415443,69.333839 62.0526377,62.6421265 60.1403294,55.8348363 C58.4234533,49.7257296 55.2408362,43.6803087 50.9368445,38.3590173 C43.5465355,29.2189447 34.2238559,23.8363264 26.2465424,24.0037961" id="path630" fill="#C6C6C6"></path>
                <path d="M35.0119995,103 C34.9136208,103 34.819685,103.055826 34.7773716,103.148869 C34.7198254,103.274994 34.7784294,103.423863 34.9079085,103.479689 L38.3666066,104.978718 C38.4962972,105.034544 38.6479908,104.976651 38.7051139,104.850525 C38.7626601,104.7244 38.7042676,104.575531 38.574577,104.519705 L35.1158789,103.020676 C35.0820282,103.006203 35.0466965,103 35.0119995,103" id="path632" fill="#0B0231"></path>
                <path d="M49.8202626,94 C47.8962959,94 45.909961,94.4902449 43.803142,95.4755175 C43.7074634,95.5209548 43.6656483,95.6357438 43.7100621,95.7314014 C43.7542396,95.8294503 43.8666516,95.8624391 43.9635513,95.8270589 C46.7516059,94.80908 49.3775321,94.0392667 51.941595,94.6881511 C53.6854416,95.1294643 54.7454659,95.7911873 55.4584487,97.1136528 C56.474768,98.9957147 56.4745317,101.693257 55.4582124,104.326231 C54.8685488,105.85436 54.2051772,107.482929 53.3513934,109.042147 C52.7475551,110.1446 52.1049729,111.244662 51.4416013,112.311244 C50.0876901,114.487452 48.5211599,116.639747 46.2454267,117.629802 C46.1483307,117.670457 46.1036807,117.785246 46.1452595,117.883295 C46.1870746,117.981344 46.2992902,118.026781 46.3961501,117.983735 C48.767798,116.953025 50.3780333,114.748119 51.7647824,112.516907 C52.4321701,111.443151 53.0782959,110.338307 53.6854416,109.22868 C54.5500926,107.65033 55.2196065,106.007412 55.813995,104.467326 C56.8709482,101.729129 56.8633884,98.909623 55.7939143,96.9271206 C55.0249419,95.5018233 53.7371789,94.5667709 52.0697727,94.2271866 C51.3274958,94.076526 50.578604,94 49.8202626,94" id="path634" fill="#0B0231"></path>
                <path d="M37.5246923,100 C37.4845676,100 37.4441839,100.015754 37.4084599,100.044112 C36.8513725,100.497837 36.3160302,101.005127 35.8171885,101.55653 C35.7315027,101.651056 35.7247721,101.81175 35.8021741,101.915729 C35.8795761,102.019707 36.0121173,102.02916 36.098062,101.934634 C36.5816304,101.402137 37.1011817,100.90745 37.6414425,100.466329 C37.7374832,100.387557 37.7631112,100.230013 37.6989116,100.113431 C37.6582691,100.040961 37.5922573,100 37.5246923,100" id="path636" fill="#0B0231"></path>
                <path d="M108.776275,97.6210042 C108.949024,98.1170201 109.101207,98.6529994 109.230769,99.1936803 C106.183669,97.9595174 102.019641,97.7926116 99.40944,100 C99.3955012,99.8918638 99.3820195,99.7813769 99.3676237,99.6732407 C99.2878759,99.0784917 99.2785072,98.5425124 99.3443163,98.0417949 C102.147603,96.6806896 106.040854,96.7770718 108.776275,97.6210042" id="path638" fill="#9A4C3F"></path>
                <path d="M54.9139638,42.6458238 C47.4767233,45.2323904 39.9307717,52.1495142 36.4585632,59.212559 C34.3140326,63.5737126 33.0368527,68.9563129 33.6650391,73.962343 C33.6355819,73.9764644 33.6063585,73.9905857 33.5764338,74 C32.2786806,72.0536028 32.8692273,67.7371669 33.1455638,65.4777457 C33.4974137,62.5828623 34.1999444,59.7279895 35.2300111,57.0002091 C37.8853669,49.9701142 43.063521,43.9779409 49.4365619,39.9933575 C56.0952909,35.8346103 65.0266658,33.2268617 72.8756057,34.2059442 C73.0785331,34.2318334 73.2814604,34.2600762 73.4825175,34.2906725 C72.8636826,36.5948114 72.2852929,38.7647972 71.8046263,40.6123447 C66.0812802,40.0922072 60.2094792,40.8029834 54.9139638,42.6458238" id="path640" fill="#0B0231"></path>
                <path d="M112.140901,99.5805649 C111.570266,98.9608379 110.546411,98.4306531 109.284204,98.0489201 C106.473063,97.2029808 102.472043,97.1063694 99.5911578,98.4707115 C98.7739521,98.8595137 98.0455118,99.3614219 97.462196,100 C97.9069626,99.51223 97.7559674,96.328765 97.6627402,95.6666232 C95.9576452,83.519501 87.1283011,67.3688948 73.1630071,67.4843573 C69.9761397,67.5102774 66.617847,68.6531201 64.2096733,70.7856411 C61.6044779,73.0948903 60.1290458,76.4621527 57.9380892,79.1272148 C53.8389102,84.1156643 47.894678,89.37981 41.1717522,85.9230053 C39.3818838,85.0040184 37.9630456,83.7315749 36.8678021,82.2352757 C35.1913563,79.9448775 34.2696516,77.3080919 33.9232785,74.5558439 C33.2922924,69.5438305 34.5751644,64.1547969 36.7292529,59.7884308 C40.2169365,52.7169442 47.7965194,45.7915529 55.2669067,43.2018949 C60.5860235,41.3568519 66.4839943,40.6452261 72.2328486,41.1659854 C78.9863022,41.7786433 85.5338107,44.097318 90.6934784,48.2987378 C95.8468058,52.4978011 100.140188,57.2741768 103.65793,62.8894226 C110.115969,73.1985709 112.676077,87.2119434 112.140901,99.5805649" id="path642" fill="#2E9894"></path>
                <path d="M36.2782894,81.7369523 C31.3532749,74.9948293 33.1353074,65.4369483 36.157642,59.2988814 C39.7205242,52.0620981 47.3508784,45.2224699 54.7129696,42.665933 C62.87914,39.8263933 71.7954531,39.6765683 79.8192123,42.2402398 C97.0467091,47.7457125 106.675551,65.2038872 109.94202,79.7059918 C110.987393,84.3458091 111.597254,89.2163093 111.754805,94.1771801 C111.80543,95.775313 111.802828,97.361555 111.747472,98.9002335 C110.351274,97.7468192 107.500212,96.9739127 104.551685,96.978669 C102.803244,96.9834254 99.7123061,97.2759408 97.5837082,99.0809748 C97.7651523,97.7943827 97.5929342,95.6159754 97.5607615,95.3852925 C95.8913332,83.4706411 87.1171948,66.7639693 72.8228481,66.7615912 C72.771987,66.7615912 72.7220721,66.7615912 72.671211,66.7639693 C69.2947408,66.7901292 65.8716676,68.0553178 63.514786,70.1481108 C61.8974016,71.5845279 60.696369,73.4371254 59.5348424,75.2278903 C58.7955817,76.3670356 58.0314817,77.5466099 57.1739392,78.5906282 C51.2078089,85.8630841 45.7673226,88.0866767 40.5406897,85.3945838 C38.8490244,84.5241722 37.4149768,83.2922781 36.2782894,81.7369523 L36.2782894,81.7369523 Z M67.9993193,40 C63.475753,40 58.9211968,40.7562593 54.5759993,42.2663997 C47.1185731,44.8586093 39.3902816,51.78623 35.7822158,59.1110056 C33.9812583,62.7686371 32.9162496,66.8638526 32.7835375,70.6403928 C32.6295347,75.0257455 33.721275,78.9473543 35.9407134,81.9866606 L36.1096197,81.8606174 L35.9407134,81.9866606 C37.1161972,83.5943062 38.5996866,84.8690074 40.349783,85.7703353 C45.7777314,88.5670678 51.3866509,86.3054244 57.4968483,78.8593619 C58.3695309,77.7963182 59.1402546,76.6072312 59.885666,75.456195 C61.031816,73.6892118 62.2172354,71.860396 63.7920383,70.4644079 C66.0753488,68.4382038 69.39599,67.211066 72.6745229,67.1849061 C72.7237281,67.1825279 72.7738795,67.1825279 72.8228481,67.1825279 C86.8673838,67.1825279 95.4979282,83.6799204 97.1460658,95.4447468 C97.2626916,96.2771077 97.3417038,99.2688505 96.9970308,99.6469802 L96.9970308,99.6469802 C96.9967943,99.6469802 96.9972674,99.6469802 96.9970308,99.6469802 C96.9189649,99.7325944 96.9246424,99.8657722 97.0098052,99.9442519 C97.0952046,100.022732 97.2276802,100.017975 97.3057461,99.932361 L97.3057461,99.932361 C98.7658158,98.3294718 101.407283,97.4067403 104.552631,97.3996058 C104.563986,97.3996058 104.575814,97.3996058 104.587169,97.3996058 C107.636236,97.3996058 110.659043,98.2842865 111.784849,99.5090461 C111.842334,99.5708786 111.931518,99.5946603 112.010767,99.5637441 C112.090016,99.535206 112.144189,99.4614826 112.147737,99.3758683 C112.220835,97.6849867 112.229352,95.9322725 112.173286,94.1629111 C112.015025,89.1758804 111.401616,84.2792203 110.350328,79.613243 C108.437239,71.1184058 104.836507,63.1848176 99.9375145,56.6709992 C94.4679309,49.3985433 87.5550737,44.2712004 79.9460103,41.8383284 C76.1072951,40.6111907 72.0656085,40 67.9993193,40" id="path644" fill="#0B0231"></path>
                <path d="M105.454108,102 C105.419567,102 105.384562,102.007705 105.353034,102.023114 C105.260769,102.069343 105.231096,102.169506 105.286965,102.246554 C105.714907,102.83212 105.900364,103.348343 105.854,103.824116 C105.845191,103.912721 105.925401,103.991695 106.032966,103.9994 C106.139141,104.007105 106.234651,103.939688 106.24346,103.849156 C106.296779,103.30404 106.09324,102.724253 105.621251,102.077048 C105.584624,102.026967 105.520177,102 105.454108,102" id="path646" fill="#0B0231"></path>
                <path d="M109.442835,98 C109.427004,98 109.410922,98 109.39484,98.0047568 C109.280758,98.028541 109.209897,98.1379484 109.236281,98.2449773 C109.947911,101.141893 109.987614,104.164865 109.348102,106.752586 C109.321717,106.861994 109.392327,106.969023 109.506409,106.995185 C109.62024,107.018969 109.73407,106.952374 109.760706,106.845345 C110.414541,104.195785 110.374839,101.110974 109.648886,98.1545973 C109.62627,98.0618389 109.539076,98 109.442835,98" id="path648" fill="#0B0231"></path>
                <path d="M104.927028,92 C101.940939,92 99.3120507,92.8944162 97.3931232,94.589374 C97.303648,94.6676028 97.2884629,94.8136299 97.3592488,94.9127197 C97.4300346,95.0118096 97.5601591,95.030063 97.6498679,94.9492265 C99.873198,92.9856831 103.10365,92.1408119 106.745267,92.5710704 C108.904819,92.8240102 110.585691,93.4420179 111.884366,94.4589926 C111.978047,94.5320062 112.107003,94.5059299 112.172416,94.4016248 C112.237829,94.2973197 112.215168,94.1539002 112.121721,94.0808866 C110.764174,93.0169747 109.019759,92.3728907 106.788719,92.112128 C106.155384,92.0365068 105.53373,92 104.927028,92" id="path650" fill="#0B0231"></path>
                <path d="M43.6921389,105.512191 C43.6992207,105.237019 43.4826195,105.007129 43.2084997,105.000163 C42.93438,104.993196 42.7063787,105.210895 42.6994695,105.487809 C42.6923877,105.762981 42.9089889,105.992871 43.1831087,105.999837 C43.4572284,106.006804 43.685057,105.789105 43.6921389,105.512191" id="path652" fill="#0B0231"></path>
                <path d="M49.6501808,111.513039 C49.6572627,111.236606 49.4406614,111.007115 49.1665417,111.000161 C48.8924219,110.993207 48.6645933,111.212266 48.6575115,111.48696 C48.6504296,111.763392 48.8670309,111.992883 49.1411506,111.999838 C49.4152704,112.006792 49.6432717,111.789471 49.6501808,111.513039" id="path654" fill="#0B0231"></path>
                <path d="M112.20979,119.115179 C112.012727,118.266777 111.808448,117.390405 111.604394,116.507041 L107.703255,117.485967 L104.717312,105 L102.27972,105.988249 L107.784651,129 L110.327539,128.456929 L108.326012,120.089444 L112.20979,119.115179" id="path656" fill="#9D9D9C"></path>
                <path d="M111.012208,134.566078 C110.999389,134.566078 110.986077,134.56844 110.972766,134.570801 C110.870708,134.592057 110.805382,134.688886 110.827075,134.785716 L110.842606,134.856567 C110.864546,134.953396 110.964384,135.017162 111.066934,134.995907 C111.168991,134.974652 111.234317,134.877822 111.212624,134.780992 L111.197094,134.710142 C111.178112,134.625121 111.099721,134.566078 111.012208,134.566078 Z M110.065099,130.312663 C110.052034,130.312663 110.038968,130.315024 110.025656,130.317386 C109.923353,130.338641 109.858273,130.435471 109.879966,130.532301 L110.353521,132.660189 C110.375214,132.757019 110.476039,132.820784 110.577849,132.799529 C110.680153,132.778274 110.745233,132.681444 110.723539,132.584615 L110.249985,130.456726 C110.231003,130.371705 110.152612,130.312663 110.065099,130.312663 Z M109.019877,126.082864 C109.004593,126.082864 108.989063,126.085226 108.973532,126.087588 C108.872215,126.113566 108.810833,126.210396 108.83647,126.307226 L109.392114,128.41622 C109.417998,128.51305 109.521781,128.572092 109.621866,128.548475 C109.723183,128.522497 109.784565,128.425667 109.759174,128.326476 L109.203284,126.219843 C109.181591,126.137183 109.104432,126.082864 109.019877,126.082864 L109.019877,126.082864 Z M107.908343,121.864874 C107.893059,121.864874 107.877528,121.867236 107.861998,121.87196 C107.760681,121.895577 107.699298,121.994768 107.724936,122.091597 L108.28058,124.200592 C108.306217,124.297422 108.409014,124.356464 108.510331,124.330486 C108.611649,124.306869 108.673031,124.207677 108.647393,124.110848 L108.09175,122.001853 C108.070056,121.921555 107.992897,121.864874 107.908343,121.864874 Z M106.796809,117.649246 C106.781525,117.649246 106.765994,117.651608 106.750217,117.65397 C106.649146,117.679948 106.587764,117.776778 106.613402,117.875969 L107.169046,119.982602 C107.194683,120.079432 107.29748,120.138474 107.398797,120.114857 C107.500115,120.088879 107.561497,119.992049 107.535859,119.89522 L106.980215,117.786225 C106.958522,117.703565 106.881363,117.649246 106.796809,117.649246 L106.796809,117.649246 Z M105.685274,113.433618 C105.66999,113.433618 105.65446,113.433618 105.638683,113.438341 C105.537612,113.461958 105.47623,113.56115 105.501621,113.657979 L106.057511,115.766974 C106.083149,115.863804 106.186438,115.922846 106.287263,115.896868 C106.38858,115.873251 106.449963,115.774059 106.424325,115.67723 L105.868435,113.570596 C105.846741,113.487937 105.769829,113.433618 105.685274,113.433618 L105.685274,113.433618 Z M104.57374,109.215628 C104.558456,109.215628 104.542679,109.21799 104.527395,109.222713 C104.426078,109.24633 104.364449,109.345522 104.390087,109.442351 L104.945977,111.551346 C104.971615,111.648176 105.075397,111.704856 105.175482,111.681239 C105.2768,111.657622 105.338428,111.558431 105.312791,111.461602 L104.7569,109.352607 C104.735207,109.272309 104.658295,109.215628 104.57374,109.215628 Z M103.461959,105 C103.446675,105 103.431145,105.002362 103.415615,105.004723 C103.314297,105.030702 103.252915,105.127532 103.278553,105.226723 L103.834443,107.333356 C103.86008,107.430186 103.963617,107.489228 104.063948,107.465611 C104.165265,107.439632 104.226648,107.342803 104.201257,107.245973 L103.645366,105.136978 C103.623673,105.054319 103.54676,105 103.461959,105" id="path658" fill="#0B0231"></path>
                <path d="M2.79348497,48.5306664 L0.476950681,33.2335297 C0.0792723727,30.6077754 1.80859161,28.1344842 4.33140699,27.7206556 L11.7968289,26.4961103 L11.7968289,26.4961103 C13.0189338,26.2976662 14.2428993,26.6025925 15.2433742,27.3600682 C16.2436165,28.1175438 16.9008323,29.235607 17.0933923,30.5085533 L19.4099266,45.80569 L2.79348497,48.5306664 Z M12.5284639,26 C12.2640427,26 11.997761,26.0217805 11.7314794,26.0653414 L4.26605751,27.2898867 C1.51440269,27.740016 -0.371662271,30.4383719 0.062062902,33.3012911 L2.41138821,48.8162323 C2.42929536,48.9348147 2.53766851,49.0146764 2.65139056,48.9977361 L19.6827199,46.2049982 C19.7378368,46.195318 19.7871396,46.1638574 19.8199306,46.1178764 C19.8527216,46.0694754 19.8662101,46.0113942 19.8576054,45.953313 L17.5082801,30.4407919 C17.2980455,29.0541032 16.5815268,27.834398 15.4905859,27.0067408 C14.6173216,26.3460672 13.5880092,26 12.5284639,26" id="path660" fill="#0B0231"></path>
                <path d="M20.0675503,57 C20.0588349,57 20.0501195,57 20.0411747,57.0024123 C19.9276454,57.0168862 19.8473721,57.1254405 19.8618213,57.2460564 C21.4739383,70.6199452 25.071787,78.52511 27.8061245,82.7997368 C30.7840342,87.4579221 33.3507152,88.9149619 33.4587401,88.9752699 C33.5596551,89.0307532 33.6846521,88.9897438 33.7383205,88.8836018 C33.7915302,88.7774598 33.7529991,88.6447824 33.6520841,88.5892991 C33.6263966,88.5748252 31.0491654,87.1033114 28.1269883,82.5223203 C25.4263656,78.2862906 21.8714057,70.4534953 20.2725912,57.1905731 C20.2595181,57.0796065 20.1703001,57 20.0675503,57" id="path662" fill="#0B0231"></path>
                <path d="M41.2377026,65.2828955 L50.0478791,54.4659959 L56.5914991,56.3927561 L60.0929331,62.6607631 L51.2849285,73.4752483 L41.2377026,65.2828955 Z M49.9704127,54 C49.905978,54 49.8434739,54.0265594 49.8014828,54.0796781 L40.7622856,65.1766581 C40.6862672,65.2684086 40.7002642,65.4060343 40.793417,65.4832979 L51.1785027,73.9509021 C51.2233898,73.9871194 51.2817913,74.0040208 51.3382621,73.9991918 C51.3959396,73.9919484 51.4485492,73.9629745 51.4852311,73.9195138 L60.5244283,62.8225337 C60.5808991,62.7525136 60.5893456,62.6559342 60.5456652,62.5786706 L56.9286349,56.1006033 C56.9008821,56.0523135 56.854547,56.0160962 56.8000068,55.9991948 L50.0319514,54.0072435 C50.0114385,54.0024145 49.9909256,54 49.9704127,54" id="path664" fill="#FFFFFF"></path>
                <path d="M43.9143685,61 C43.8499416,61 43.7860066,61.027096 43.7422357,61.0812879 C43.6647759,61.1773553 43.6790383,61.3177616 43.7739573,61.3941229 L54.2531585,69.9490538 C54.3483234,70.0278784 54.4882428,70.0130988 54.5654566,69.9194946 C54.6429164,69.8234271 54.628654,69.6830208 54.533735,69.6066595 L44.0545338,61.0492654 C44.0132219,61.0172429 43.9637952,61 43.9143685,61" id="path666" fill="#FFFFFF"></path>
                <path d="M112.770144,146.766049 C110.956378,146.980604 109.664496,148.606458 109.88453,150.392036 C110.104806,152.177614 111.753728,153.450643 113.567494,153.233704 C115.38126,153.016764 116.673142,151.393295 116.453108,149.607717 C116.232833,147.819755 114.58391,146.54911 112.770144,146.766049 Z M114.147716,157.942004 C109.785043,158.464089 105.819108,155.403098 105.28972,151.107221 C104.76009,146.80896 111.196987,134 111.196987,134 C111.196987,134 120.55847,144.920872 121.0881,149.219133 C121.617489,153.51501 118.510388,157.419919 114.147716,157.942004" id="path672" fill="#4594FE"></path>
                <path d="M118.323576,40 C118.292482,39.948768 118.261388,39.8999756 118.230508,39.846304 C117.696164,38.9387656 117.2091,37.8165406 116.836615,36.5601366 C116.423238,35.1646743 116.209203,33.8033667 116.184711,32.6225909 C116.179813,32.4201025 116.181304,32.2200537 116.187906,32.0273237 C116.1911,31.9638936 116.194508,31.9004635 116.197702,31.839473 C116.215592,31.5272018 116.248389,31.2344474 116.295669,30.9612101 C116.777196,30.6147841 117.287686,30.2976336 117.813298,30 C117.958544,33.1422298 118.848549,36.3259332 120.153846,39.0875823 C119.357762,39.4096121 118.724387,39.724323 118.323576,40" id="path678" fill="#9A4C3F"></path>
                <path d="M141.967818,27.742026 C141.145998,31.1286104 138.96979,34.4135972 135.800881,35.6593764 C132.628221,36.9099937 129.288432,36.7963012 126.027636,37.5147409 C124.003557,37.9598348 122.143795,38.4920123 120.743933,39 C119.307271,36.2617047 118.327696,33.1049242 118.167832,29.9892666 C120.068615,29.0192521 122.15739,28.2717846 123.954097,27.526736 C125.216598,27.0042344 129.443138,25.3810929 130.362237,26.7357267 C130.7919,27.3670827 129.353127,28.5596442 128.804622,28.7628393 C128.2526,28.9684533 127.53673,29.4619271 127.847784,29.9844287 C127.995224,30.2287465 128.293855,30.335182 128.56717,30.2674503 C130.54015,29.7884906 132.439292,28.9902242 134.17482,27.9089362 C135.158614,27.30177 137.280908,25.0303395 137.307865,27.519479 C137.444522,26.2761188 138.917518,25.6858855 140.036329,26.1672643 C140.115323,26.663157 139.985932,26.9582736 139.708866,27.3259599 C139.888654,27.100994 140.08485,26.888123 140.295111,26.6946039 C141.041688,26.007611 142.208786,26.7405646 141.967818,27.742026" id="path680" fill="#CF6B50"></path>
                <path d="M122.13986,41.95 C121.839428,41.9688773 121.509074,41.9964672 121.146853,42.0327697 C121.421256,42.0632638 121.684468,42.0530991 121.932842,42.0037277 C122.003632,41.9892067 122.072719,41.9717815 122.13986,41.95" id="path682" fill="#0B0231"></path>
                <path d="M129.165717,26 C129.064809,26 128.966923,26.004964 128.874385,26.0124099 C126.510008,26.2084863 124.136099,27.0424314 122.332068,27.7473136 C120.160906,28.5961506 118.123437,29.6708477 116.276159,30.9391393 C116.180598,31.0036708 116.153162,31.1401796 116.214544,31.2419408 C116.276159,31.3437019 116.403573,31.3734857 116.499134,31.3089542 C118.320604,30.0555546 120.33087,28.9982313 122.473433,28.1593222 C124.252819,27.4643679 126.591851,26.6428327 128.906238,26.4517203 C129.116891,26.4343464 129.358467,26.4219365 129.562842,26.5013599 C129.717692,26.5609274 129.883005,26.7048822 129.903699,26.8885487 C129.967871,27.459404 129.071319,28.1047186 128.416576,28.5738128 C128.092692,28.8071189 127.812752,29.0081592 127.631861,29.1967896 C127.284726,29.5591587 127.19707,29.9513114 127.403305,30.2218472 C127.509794,30.3608381 127.663714,30.4154416 127.800197,30.4501893 C129.438682,30.8646799 131.040431,30.0903023 132.252729,29.3680462 C132.946999,28.9560376 133.661729,28.4571597 134.438539,27.8490748 C134.556653,27.7572415 134.701273,27.6182507 134.868912,27.456922 C135.296494,27.0449134 136.012387,26.3549231 136.38254,26.483986 C136.605516,26.5609274 136.649227,27.0200936 136.608306,27.3080032 C136.418579,28.6408262 135.604568,29.9389015 134.374832,30.8671619 C133.400157,31.6018278 132.206228,32.1280075 130.504035,32.5673179 C130.393593,32.5946196 130.325701,32.7137547 130.352439,32.8328897 C130.378945,32.9495427 130.490549,33.0215201 130.600758,32.9942183 C132.355963,32.5400161 133.593372,31.9939806 134.612455,31.2245669 C135.933102,30.2292931 136.80896,28.8244927 137.015195,27.3750167 C137.089365,26.853801 136.962183,26.2233782 136.50856,26.0670134 C135.913804,25.8610091 135.181403,26.5658913 134.593622,27.1293007 C134.434121,27.2831834 134.296477,27.4147283 134.19487,27.4941517 C133.432011,28.0923088 132.731231,28.5812587 132.052307,28.9858214 C130.904879,29.6683658 129.395668,30.4030317 127.895757,30.0208069 C127.853674,30.0108789 127.754858,29.9860591 127.721841,29.9438655 C127.661854,29.8644421 127.775318,29.6609198 127.919706,29.512001 C128.073626,29.3506724 128.351939,29.149632 128.646527,28.9386638 C129.430544,28.3752544 130.406381,27.6753362 130.312448,26.8364271 C130.275712,26.5112878 130.036693,26.2159322 129.703276,26.0868693 C129.524478,26.0198558 129.340564,26 129.165717,26" id="path684" fill="#0B0231"></path>
                <path d="M139.319151,26 C139.288976,26 139.258125,26.0023121 139.226824,26.0046241 C138.701915,26.0554897 138.28014,26.4392934 137.97231,26.7167419 L137.083274,27.5236546 C137.000856,27.5999529 136.992974,27.7294289 137.065934,27.8126634 C137.13867,27.8982101 137.264774,27.9074583 137.347192,27.83116 L138.236229,27.0242473 C138.582115,26.7098057 138.898277,26.4485417 139.263755,26.4138607 C139.366891,26.4023003 139.507182,26.4207969 139.564379,26.5017193 C139.601985,26.554897 139.610317,26.6450677 139.61347,26.7074936 C139.631034,27.0681767 139.520693,27.438108 139.399092,27.7826065 C138.84671,29.3478784 137.888316,30.8091071 136.627721,32.0113838 C136.036382,32.573217 135.360146,33.0934329 134.671976,33.5165419 C133.881572,33.9997646 133.101075,34.3442632 132.215642,34.598591 C132.109579,34.6286479 132.047652,34.7419393 132.077377,34.8506067 C132.107102,34.959274 132.217218,35.024012 132.323055,34.991643 C133.243393,34.7280669 134.05474,34.369696 134.876446,33.8679766 C135.588035,33.4309953 136.287239,32.8922828 136.898621,32.309641 C138.205604,31.0657469 139.199802,29.5490285 139.773803,27.9236428 C139.909815,27.537527 140.032767,27.1213543 140.0116,26.686685 C140.00597,26.5733935 139.987054,26.4023003 139.887297,26.261264 C139.769974,26.0947949 139.561902,26 139.319151,26" id="path686" fill="#0B0231"></path>
                <path d="M140.979512,26 C140.61015,26 140.126331,26.2130923 139.544031,26.9331975 C139.469396,27.0238229 139.481557,27.1609858 139.571215,27.2369153 C139.660873,27.3152941 139.793929,27.3005981 139.868326,27.2099726 C140.233157,26.7592945 140.762282,26.2694271 141.211764,26.4874181 C141.755434,26.7519465 141.54822,27.7365801 141.501006,27.9300777 C140.869109,30.5410712 139.157501,33.0198004 136.92273,34.5604335 C135.263104,35.704274 133.157812,36.0716746 131.121672,36.4268284 L130.983608,36.4513218 C130.281129,36.576238 129.562435,36.6889075 128.867586,36.7991277 C126.25463,37.215515 123.55297,37.6465984 121.038256,38.6287826 C120.66341,38.7757428 120.24898,38.9104564 119.810467,39.0500686 C119.298988,39.2166235 118.77034,39.3856278 118.299874,39.5815748 C118.191617,39.6256628 118.139635,39.7530284 118.183271,39.8632485 C118.226908,39.975918 118.350188,40.0298035 118.458207,39.9832661 C118.912934,39.7946671 119.433475,39.6281122 119.936847,39.4640066 C120.362007,39.3268437 120.801712,39.1872315 121.188481,39.0353726 C123.661465,38.0678844 126.34095,37.6416997 128.932206,37.2277617 C129.628724,37.1175415 130.348849,37.0024227 131.054667,36.8799558 L131.192492,36.8554625 C133.272508,36.4905112 135.423106,36.1157626 137.157843,34.9204861 C139.477503,33.3210689 141.25397,30.7468155 141.910666,28.0353992 C142.087359,27.3054967 142.043961,26.4114886 141.39251,26.0955242 C141.2771,26.0391894 141.138798,26 140.979512,26" id="path688" fill="#0B0231"></path>
                <path d="M112.834711,29 C112.759597,29 112.686446,29.0354744 112.644716,29.1016932 C112.180284,29.8419248 112.183475,30.7287838 112.229869,31.6511171 C112.336649,33.7701189 112.485896,35.8394565 113.133205,37.8425753 C113.644768,39.4270967 114.70177,41.6004924 116.830501,42.9650728 C116.932126,43.0289267 117.069836,43.0029121 117.137586,42.9059489 C117.205582,42.8066207 117.177843,42.6741831 117.075727,42.6079643 C115.499553,41.5981275 114.249611,39.8622488 113.556398,37.7148676 C112.924799,35.7590479 112.778007,33.7204548 112.6727,31.6298325 C112.629742,30.7784479 112.624342,29.9601727 113.02397,29.3239991 C113.087547,29.222306 113.053918,29.0922333 112.949101,29.0307444 C112.913262,29.0094598 112.873741,29 112.834711,29" id="path694" fill="#0B0231"></path>
                <path d="M33.101333,112.30119 C33.7059545,111.742666 34.6159335,111.553295 35.385537,111.828962 C36.1551406,112.104628 36.7527317,112.830949 36.8856079,113.653153 C37.5977958,113.363104 38.3695086,113.1186 39.1217703,113.269618 C39.874032,113.420635 40.576846,114.091822 40.5229456,114.873276 C41.2421641,114.405842 42.0202043,113.952791 42.8722989,113.92882 C43.7243935,113.904849 44.6512455,114.463372 44.7609211,115.328725 C45.0554983,114.791775 45.7119111,114.494535 46.2970817,114.633566 C46.8817836,114.770201 47.3467329,115.328725 47.3844631,115.942382 C47.3551695,115.467756 48.6843995,115.812939 48.8735195,115.925602 C49.529698,116.318726 49.7127249,117.152916 49.6328118,117.929576 C49.6007059,118.241199 49.4275216,118.658294 49.2327772,118.914783 C49.1458336,119.032241 48.5398059,119.480499 48.4006024,119.269554 C48.8067299,119.888005 48.8018086,120.758152 48.3888849,121.371809 C47.9759612,121.985466 47.1810478,122.301883 46.4714377,122.134086 C46.3709018,122.004643 46.2701315,121.872803 46.1693613,121.743359 C46.3805101,122.016628 45.6533238,123.009027 45.4869357,123.203192 C45.0791676,123.680214 44.5476631,124.056559 43.9725695,124.289077 C43.4302849,124.50961 42.8139459,124.615083 42.2404928,124.464066 C41.4434703,124.255518 41.3844142,123.661038 40.8465822,123.15525 C40.2571934,124.334622 38.9420243,125.089708 37.6512275,124.991427 C36.3601964,124.893146 35.1697012,123.943895 34.7586523,122.687816 C34.7145946,122.553578 34.6728804,122.407355 34.5636735,122.32106 C34.4026755,122.191617 34.1720756,122.24675 33.973816,122.297089 C32.5344417,122.659051 30.9368815,122.467283 29.7023286,121.628299 C28.4677757,120.789314 27.6580983,119.271951 27.7900371,117.761779 C27.0037947,117.20805 26.3897991,116.402625 26.0572573,115.48933 C25.8282978,114.858894 25.7326833,114.158941 25.9103201,113.511724 C26.087957,112.866905 26.5725917,112.286807 27.2086161,112.119011 C26.7038274,111.570075 26.470884,110.810195 26.3687077,110.0623 C26.2644222,109.300023 26.2890289,108.487407 26.6506301,107.811425 C27.0122313,107.135444 27.7785539,106.646436 28.5146456,106.807041 C27.8683098,105.349606 28.4930854,103.434324 29.8654358,102.664856 C30.1168927,102.525824 30.4794313,102.441926 30.6512095,102.676841 C30.5190364,102.072773 30.8412669,101.394394 31.3887072,101.125919 C31.9359132,100.859841 32.6539599,101.027638 33.0314968,101.514249 C33.582218,101.193038 34.3743192,101.439939 34.6550698,102.022433 C34.9358205,102.602531 34.6473363,103.395971 34.0635718,103.650063 C34.9632393,104.671227 34.734983,106.497816 33.6129178,107.255299 C34.158249,107.518979 34.2013693,108.374743 33.808834,108.844575 C33.4162986,109.314406 32.761995,109.455835 32.1587795,109.443849 C32.3446186,109.448643 32.0146546,110.234891 31.9642694,110.299613 C31.7582763,110.568088 31.3052788,111.220099 31.5719685,111.102641 C32.1606543,110.843754 32.9309609,111.567678 33.101333,112.30119" id="path696" fill="#0B0231"></path>
                <path d="M35.0383456,122 C34.9578604,122 34.8841577,122.056883 34.8620016,122.145917 C34.482636,123.674341 35.1400825,125.435243 36.4253585,126.333006 C37.6165845,127.163993 39.2599744,127.223349 40.6121708,126.48387 C40.7026036,126.436879 40.7390028,126.315694 40.6940125,126.216766 C40.6487961,126.117839 40.5391463,126.078269 40.4487135,126.127732 C39.209106,126.805383 37.7070173,126.753446 36.6220499,125.996654 C35.4866661,125.202764 34.8816707,123.592726 35.2149156,122.252264 C35.2413672,122.145917 35.1839424,122.034624 35.086501,122.00742 C35.0704492,122.002473 35.0541713,122 35.0383456,122" id="path698" fill="#0B0231"></path>
                <path d="M27.3658879,106 C27.3169226,106 27.2677149,106.016273 27.2296577,106.051145 C26.4554247,106.769497 25.5776858,107.583165 25.1197878,108.624659 C24.7203087,109.531317 24.6701314,110.770417 25.3907936,111.623606 C24.6032284,111.981619 24.0057066,112.76739 23.8663252,113.660099 C23.7279135,114.545835 24.0141907,115.515261 24.6517088,116.31963 C25.1609961,116.95894 25.8821431,117.498286 26.7962423,117.921393 C26.5378415,119.304628 27.1256671,120.855246 28.2896832,121.824673 C29.4299438,122.775501 31.0593723,123.18466 32.6478349,122.921961 C33.5432691,122.773177 34.2556896,122.426787 34.7082548,121.919988 C34.7785515,121.840946 34.7688554,121.722383 34.686681,121.654965 C34.6042642,121.587547 34.480639,121.596846 34.4103423,121.675888 C33.9146295,122.231506 33.1420933,122.459333 32.5811742,122.552324 C31.107368,122.796424 29.5991406,122.417488 28.5466297,121.541051 C27.4466078,120.625094 26.9094442,119.144219 27.2100231,117.856299 C27.2301425,117.767958 27.1845709,117.679617 27.1004573,117.642421 C26.1783588,117.237912 25.459151,116.71484 24.9634382,116.091803 C24.3899143,115.368801 24.131271,114.501664 24.2539266,113.715894 C24.3877327,112.858056 25.0041618,112.11878 25.7878486,111.87468 C25.8535396,111.856082 25.9032321,111.802612 25.9185035,111.737519 C25.9340172,111.67475 25.9126858,111.607332 25.8627509,111.560837 C25.0742161,110.837835 25.1120309,109.608035 25.4807248,108.771119 C25.9075954,107.801693 26.7547915,107.015922 27.502118,106.323142 C27.5799291,106.251075 27.5821107,106.130187 27.5067236,106.055794 C27.468424,106.018598 27.4172771,106 27.3658879,106" id="path700" fill="#0B0231"></path>
            </g>
        </g>
    </g>
</svg>