
<svg width="336px" height="240px" viewBox="0 0 336 240" version="1.1" xmlns="http://www.w3.org/2000/svg" xmlns:xlink="http://www.w3.org/1999/xlink">
    <g id="Sign-Up/Log-In-Default" stroke="none" stroke-width="1" fill="none" fill-rule="evenodd">
        <g id="Login-Default" transform="translate(-27, -164)" fill-rule="nonzero">
            <g id="Login-Illustration" transform="translate(195, 284) scale(1, -1) translate(-195, -284)translate(27, 164)">
                <path d="M21.6155189,103.304348 C21.4412325,103.304348 21.2772896,103.416369 21.2123847,103.595872 C16.657925,116.231281 18.4413865,130.94515 25.8666583,141.998771 C33.2029768,152.918777 45.6363958,159.652174 58.4055877,159.652174 C58.5602216,159.652174 58.7140797,159.652174 58.8688429,159.649475 C59.106612,159.646775 59.2969306,159.442978 59.2941176,159.194643 C59.2911124,158.946308 59.0925191,158.74656 58.858241,158.750609 C58.7076151,158.753308 58.5555671,158.753308 58.4050705,158.753308 C45.9119183,158.753308 33.7493671,152.167023 26.5716906,141.481856 C19.3073881,130.668472 17.5627143,116.273121 22.0182652,103.913039 C22.1020468,103.67955 21.9895623,103.420418 21.7669205,103.33269 C21.7170136,103.313795 21.6658137,103.304348 21.6155189,103.304348" id="path14" fill="#172C4B"></path>
                <path d="M90.4495356,85.5652174 C90.4833325,85.2196766 90.5179743,84.8727647 90.5538834,84.5217391 C90.5175518,84.8713935 90.48291,85.2196766 90.4495356,85.5652174" id="path16" fill="#172C4B"></path>
                <path d="M92.530031,101.269565 C92.5644396,101.238003 92.5992222,101.203221 92.6343788,101.165217 C92.5992222,101.202576 92.5644396,101.237359 92.530031,101.269565" id="path18" fill="#172C4B"></path>
                <path d="M93.5702786,101.269565 C93.6046758,101.237919 93.6393621,101.203279 93.6746265,101.165217 C93.6393621,101.202851 93.6043868,101.237491 93.5702786,101.269565" id="path20" fill="#172C4B"></path>
                <path d="M106.349185,62.7776844 C104.417868,61.9134555 101.36535,64.4220257 98.2713545,68.9751688 C96.2946709,71.8880407 94.2998407,75.6312235 92.5681362,79.8628246 C92.4333329,80.1911502 92.3024181,80.5194758 92.1740957,80.8464446 C92.1715033,80.8518715 92.1702071,80.8572984 92.1676148,80.8627252 C92.0755856,81.0974373 91.9848525,81.3321494 91.8954157,81.5668615 C91.8500492,81.6862526 91.8046827,81.8056437 91.7606124,81.9250348 C91.7113573,82.0579931 91.6621022,82.1895947 91.6141434,82.3211963 C91.5324836,82.5423412 91.4521201,82.7634861 91.3730528,82.9832743 C91.2823198,83.2396938 91.1928829,83.4961134 91.1047423,83.7498195 C90.9919741,84.0822152 90.8817983,84.4132542 90.7742149,84.7415798 C90.7353293,84.8623277 90.6977399,84.9817188 90.6588543,85.1011099 C90.5486785,85.4484295 90.4423912,85.791679 90.3386964,86.1335717 C90.2712947,86.3601435 90.203893,86.5867153 90.1390837,86.813287 C90.1066791,86.9258946 90.0742744,87.0371454 90.043166,87.1497529 C89.9783567,87.3803949 89.9148436,87.6096801 89.8526266,87.8389653 C89.8007792,88.0343326 89.7502279,88.2269864 89.7009729,88.4196403 C89.6400521,88.6570658 89.5817238,88.8917779 89.5246916,89.1251332 C89.4987679,89.2336706 89.4728441,89.3408513 89.4482166,89.4466752 C89.3198942,89.9893621 89.2032375,90.522552 89.0982464,91.0421747 C89.0593608,91.2388987 89.0217714,91.4329093 88.9854782,91.6255631 C87.952418,97.1474023 88.3153501,101.220267 90.2570367,102.09128 C90.5110891,102.205244 90.7858805,102.26087 91.0762262,102.26087 C91.109927,102.26087 91.1436279,102.259513 91.1773287,102.258156 C91.2123257,102.256799 91.2460265,102.255443 91.2810236,102.251373 C91.3160206,102.248659 91.3497214,102.245946 91.3847184,102.240519 C91.4249002,102.236449 91.4637858,102.231022 91.5026714,102.222881 C91.5337798,102.217455 91.5661845,102.212028 91.5972929,102.205244 C91.6698794,102.191677 91.7424658,102.17404 91.8150522,102.153689 C91.8889348,102.133338 91.9628174,102.108917 92.0379962,102.08314 C92.113175,102.057362 92.1883537,102.028871 92.2648287,101.99631 C92.3024181,101.981386 92.3413037,101.965105 92.3788931,101.947468 C92.4566642,101.91355 92.5331392,101.876919 92.6122066,101.837574 C92.6122066,101.837574 92.6122066,101.836217 92.6135027,101.836217 C92.6523883,101.815866 92.6912739,101.795516 92.7314557,101.773808 C92.7716374,101.753457 92.8131154,101.730393 92.8532971,101.707329 C92.9725463,101.639493 93.0930915,101.56623 93.214933,101.487541 C93.2240063,101.480757 93.2343758,101.473974 93.2447453,101.468547 C93.3976952,101.366793 93.5545337,101.256899 93.7126684,101.137508 C93.7541464,101.104946 93.7969205,101.072385 93.8396947,101.039824 C93.8811726,101.007263 93.9239468,100.973345 93.9667209,100.939427 C94.009495,100.905509 94.0522692,100.870234 94.0950433,100.83496 C94.1378174,100.798328 94.1805916,100.763054 94.2246619,100.726422 C94.3102102,100.65316 94.3970546,100.577183 94.4851953,100.498494 C95.6621321,99.4443246 96.9233211,97.9465087 98.1948795,96.0986599 C100.215633,93.1586536 102.2662,89.3381378 104.039382,85.0061397 C105.689427,80.973976 106.871548,77.0679871 107.539084,73.676194 C108.671951,67.9359233 108.341423,63.6717611 106.349185,62.7776844" id="path22" fill="#172C4B"></path>
                <path d="M97.1802798,61.734205 C95.4522592,60.8699817 92.721059,63.3785358 89.9527469,67.9316497 C88.1841352,70.8445029 86.3992871,74.5876618 84.8498674,78.8192358 C84.7293698,79.1475592 84.6125835,79.4758827 84.4977687,79.8028495 C83.1435341,83.654545 82.1821052,87.3637862 81.6443313,90.5818989 C80.7200142,96.1037026 81.0447429,100.176542 82.7820414,101.047549 C83.8530662,101.584805 85.3084307,100.825048 86.9193169,99.085748 C87.8691484,98.0614331 88.8730239,96.6965843 89.8843219,95.0549669 C91.6923649,92.1149795 93.527082,88.2944883 95.1136136,83.9625179 C96.5899694,79.9303801 97.6476572,76.0244162 98.244926,72.6326448 C99.2585434,66.8924109 98.9628084,62.628276 97.1802798,61.734205 L97.1802798,61.734205 Z M288.690628,138.97775 C287.165289,143.657989 286.092078,148.149717 285.510261,151.991826 C284.734503,157.108762 284.827309,161.075641 285.875533,162.80615 C284.102713,162.26367 282.030061,160.426022 280.922346,159.769622 C277.339823,157.648528 273.577638,155.709165 269.801175,154.04511 C261.545071,150.411856 252.860634,148.130731 244.108379,146.735203 C232.926527,144.953159 221.557875,143.620016 210.240385,143.883118 C200.135313,144.119097 189.989788,145.674656 180.396335,149.39742 C164.907365,155.406733 151.712352,170.929776 135.134704,172.783698 C134.377983,172.867783 133.737865,172.852865 133.191741,172.749794 C125.034391,173.647597 116.307121,173.113255 112.246294,172.31581 C104.543333,170.803649 96.2905601,169.325393 88.2444577,167.304658 C82.0093678,165.73825 75.8983753,163.84771 70.2637834,161.361799 C57.8826016,155.899033 45.867049,148.891558 35.2291794,140.380059 C31.7727761,137.614771 28.4610539,134.690808 25.33054,131.60817 C12.1831194,118.661903 1.95549694,100.879435 0.213636231,81.1765897 C-0.236124536,76.0786413 -0.0886116663,70.7569202 1.76512705,66.0888865 C3.66763615,61.2987951 7.21327538,57.5895934 11.0575574,54.6819048 C13.4176681,52.8971482 15.9010433,51.3809188 18.476629,50.1115175 C29.7487872,44.5578865 42.7906715,43.7536611 55.0318125,45.9886754 C63.2676899,47.492699 71.2429986,50.2552744 79.0695807,53.5752472 C80.9730417,54.3821851 82.867698,55.2230279 84.7553345,56.0855698 C88.8287742,57.9476297 92.8692562,59.9168293 96.8929618,61.8928098 C94.5621205,56.4625929 87.1686298,49.6449853 84.9032281,47.2553644 C84.5353383,46.8661356 84.1650688,46.4809753 83.7925388,46.0985275 C81.2313498,43.4675033 78.5610552,40.9761675 75.792839,38.6313011 L73.8999674,29.0321314 L68.1756637,0 L173.231288,0 C173.231288,0 168.492268,49.2747433 164.408834,90.8028833 C164.425491,90.7974586 164.443338,90.7920338 164.459996,90.786609 C168.061556,89.7247059 171.711899,88.8933565 175.403885,88.2586558 C175.982133,88.1596534 176.561572,88.0647195 177.1422,87.9765666 C197.696199,84.7989946 219.50307,87.6239552 241.421783,91.8159633 C259.828172,95.3380096 284.920114,105.924491 300.350783,118.531708 C300.444778,118.607655 300.538774,118.684959 300.631579,118.763618 C298.962273,118.903307 296.70639,121.447534 294.396965,125.555458 C292.420688,129.063942 290.407526,133.718414 288.690628,138.97775 Z" id="path24" fill="#002081"></path>
                <path d="M89.4613003,55.2521739 C89.8082884,55.2867525 90.1550377,55.3213311 90.501548,55.3565217 C90.1550377,55.3213311 89.8082884,55.2867525 89.4613003,55.2521739" id="path26" fill="#00E4BA"></path>
                <path d="M86.3405573,53.2173913 C86.6876855,53.5610064 87.0344347,53.9096747 87.380805,54.2608696 C87.0344347,53.9096747 86.6876855,53.5610064 86.3405573,53.2173913" id="path28" fill="#00E4BA"></path>
                <path d="M85.3003096,40.6956522 C84.9550672,40.3463798 84.6078157,39.9992769 84.2600619,39.6521739 C84.6078157,39.9992769 84.9550672,40.3463798 85.3003096,40.6956522" id="path30" fill="#00E4BA"></path>
                <path d="M83.2198142,39.6521739 C82.8745841,39.3013876 82.5281312,38.9535615 82.1795666,38.6086957 C82.5281312,38.9535615 82.8745841,39.3013876 83.2198142,39.6521739" id="path32" fill="#00E4BA"></path>
                <path d="M91.5417957,56.3478261 C91.1954448,55.9984575 90.8486343,55.6514027 90.501548,55.3043478 C90.8486343,55.6514027 91.1954448,55.9984575 91.5417957,56.3478261 L91.5417957,56.3478261" id="path34" fill="#00E4BA"></path>
                <path d="M87.380805,55.2521739 C87.7278578,55.2868432 88.0746504,55.3215125 88.4210526,55.3565217 C88.0746504,55.3215125 87.7278578,55.2868432 87.380805,55.2521739" id="path36" fill="#00E4BA"></path>
                <path d="M87.380805,42.7826087 C87.035158,42.4339867 86.6883439,42.0853646 86.3405573,41.7391304 C86.6883439,42.0853646 87.035158,42.4339867 87.380805,42.7826087" id="path38" fill="#00E4BA"></path>
                <path d="M91.5417957,45.9130435 C91.1970313,45.5633891 90.8502011,45.215106 90.501548,44.8695652 C90.8502011,45.215106 91.1970313,45.5633891 91.5417957,45.9130435" id="path40" fill="#00E4BA"></path>
                <path d="M88.4210526,43.826087 C88.0752802,43.4767081 87.7289216,43.1273292 87.380805,42.7826087 C87.7289216,43.1273292 88.0752802,43.4767081 88.4210526,43.826087" id="path42" fill="#00E4BA"></path>
                <path d="M89.4613003,44.8695652 C89.1154124,44.5188881 88.76934,44.1703493 88.4210526,43.826087 C88.76934,44.1703493 89.1154124,44.5188881 89.4613003,44.8695652" id="path44" fill="#00E4BA"></path>
                <path d="M86.3405573,41.7391304 C85.9949892,41.3897411 85.6479291,41.0426966 85.3003096,40.6956522 C85.6479291,41.0426966 85.9949892,41.3897411 86.3405573,41.7391304" id="path46" fill="#00E4BA"></path>
                <path d="M91.9003978,55.8341175 C91.4141433,55.6320165 90.9272436,55.4312541 90.4399567,55.2304916 C90.344848,55.1916775 90.2497393,55.1542018 90.1545016,55.1153877 C89.7801321,54.9614698 89.4055045,54.8102287 89.0306188,54.6589877 C88.8868588,54.6000973 88.7430989,54.5425454 88.5992099,54.4849935 C88.2556829,54.3471366 87.9117689,54.2106181 87.5675967,54.0740996 C87.4286115,54.0192245 87.2896264,53.9643494 87.1505122,53.9094744 C86.6787111,53.7234345 86.2063938,53.538733 85.7335604,53.3567083 L82.1795666,38.6086957 C82.5842624,38.9205467 82.9865064,39.2350746 83.3873308,39.5522794 C83.5193474,39.6566759 83.6502025,39.7637492 83.7817028,39.8681457 C84.0497364,40.0822923 84.3173829,40.296439 84.5834808,40.5119241 C84.7397584,40.6390737 84.8951327,40.7675616 85.0507651,40.8947112 C85.2913114,41.0927969 85.5314705,41.2908825 85.7705973,41.4903066 C85.9341016,41.6268251 86.0970898,41.7633436 86.2599489,41.9012005 C86.4906875,42.0952709 86.7207809,42.2906798 86.9500999,42.4860886 C87.1141205,42.6266223 87.278012,42.7671561 87.4412583,42.9090282 C87.6712226,43.1071139 87.9000255,43.3078764 88.1284412,43.5086389 C88.2866546,43.6478342 88.445126,43.7856911 88.6025651,43.9262249 C88.8460795,44.1417099 89.0880453,44.3598718 89.3298821,44.5793722 C89.4689963,44.7038449 89.6088848,44.8296561 89.7474828,44.9554672 C90.1177228,45.2927482 90.486027,45.632706 90.8521374,45.9740023 C91.2574785,46.3527742 91.6604968,46.7342229 92.060805,47.1196869 C94.5178871,49.477977 102.536957,56.2061973 105.065015,61.5652174 C100.700856,59.6151444 96.3184999,57.6717635 91.9003978,55.8341175" id="path48" fill="#172C4B"></path>
                <path d="M302.489411,127.258436 C302.000323,131.549631 300.7069,136.94304 298.68309,142.616397 C296.853876,147.743382 294.714605,152.294239 292.609063,155.767227 C289.649889,160.64131 286.756878,163.397521 284.867988,162.665867 C284.489172,162.518454 284.168735,162.238506 283.904083,161.838193 C282.761149,160.112518 282.659958,156.156721 283.505808,151.05408 C284.140194,147.222704 285.310372,142.743524 286.973529,138.076359 C288.845554,132.831715 291.04061,128.190246 293.19545,124.691563 C295.713537,120.595115 298.173245,118.057995 299.993377,117.918697 C300.274895,117.89841 300.542142,117.932221 300.791226,118.028242 C302.536114,118.703094 303.064121,122.223416 302.489411,127.258436" id="path50" fill="#172C4B"></path>
                <path d="M127.591705,110.167562 C125.245814,126.286052 120.150467,140.415879 112.855164,151.02887 C108.74582,157.007083 103.945076,161.855127 98.5866293,165.434448 C97.5699032,166.114994 96.5314365,166.746639 95.4734425,167.336174 C95.6825157,167.385076 95.8913286,167.433977 96.1007924,167.482879 C94.5259734,169.653564 92.3240648,171.219771 89.1644028,171.731879 C77.8572623,173.568403 66.1490291,169.527235 56.9073659,162.486772 C49.2560133,156.656622 43.1451116,148.917954 38.094417,140.51504 C49.7337835,149.040208 62.8805344,156.058937 76.4273365,161.530475 C78.4684696,162.355009 80.5676641,163.112983 82.7090378,163.816622 C92.1746152,161.499233 100.19139,155.63784 106.585179,146.33704 C120.8873,125.529436 123.821616,92.262808 119.326411,70.1552386 C115.146508,49.5907844 106.439895,41.1226684 99.8720524,37.6397923 C94.2846149,34.6785327 87.8923885,34.1256736 81.9181785,36.0083828 L82.4769222,38.6028809 L86.0621512,53.570826 C77.4987394,50.2455216 68.7725992,47.4785097 59.7613591,45.9720707 C46.367782,43.7334671 32.0980759,44.538984 19.7647059,50.1015337 C21.5216503,43.6057797 24.6172626,38.3896159 29.9471989,34.0061365 C39.6761356,26.0039435 53.0501854,21.8024866 65.3890231,23.2328565 C70.3638212,23.8088079 75.2960496,25.550246 79.5014686,28.3593675 C82.6031994,27.3596028 85.7941053,26.858362 88.9765493,26.858362 C93.920364,26.858362 98.8425683,28.0632416 103.367976,30.4621336 C111.435392,34.741018 122.062849,44.8093009 126.8757,68.4844361 C129.423374,81.0208882 129.678532,95.8244698 127.591705,110.167562" id="path52" fill="#00E4BA"></path>
                <path d="M125.925153,159.842788 L145.634675,98.0869565 L142.475261,162.65992 C142.439095,163.393704 141.802304,163.930818 141.112554,163.808746 L126.806069,161.298148 C126.13957,161.216767 125.712028,160.511467 125.925153,159.842788" id="path54" fill="#FFFFFF"></path>
                <path d="M133.696133,89.8121968 C126.38704,82.4100246 117.907871,77.502936 108.458471,73.7889113 C108.32619,73.7357955 108.167505,73.6690602 107.987593,73.5887054 C106.103951,72.7456613 101.86592,70.4684889 98.7336362,68.8695652 C96.7601681,71.7936616 94.7680617,75.5512685 93.0379281,79.7991756 C91.3184079,84.0184819 90.1120905,88.1029556 89.4613003,91.6072406 C92.6359085,92.790771 95.8182827,94.1772313 98.6568823,96.097574 C99.0723629,96.3754108 99.4798186,96.6682291 99.8791201,96.9746667 C102.310393,98.8282742 104.172808,101.81502 105.119871,104.793594 C106.072369,107.791236 106.331624,111.0708 105.95575,114.118833 C105.760047,115.702775 105.445266,117.270374 105.111975,118.825716 C104.90307,119.800869 104.130483,121.590465 104.593466,122.561532 C105.630485,124.74473 110.19404,120.006522 110.815579,119.065418 C112.082859,117.150523 113.035229,113.776985 113.55102,111.50526 C115.918742,111.305054 121.321025,115.408595 123.056724,117.111027 C123.976994,118.01672 124.760065,119.166202 125.940496,119.622454 C127.137753,120.084153 128.596465,119.646969 129.384713,118.592823 C130.172962,117.537316 130.231207,115.942478 129.521913,114.828407 C130.97933,115.502569 132.76292,114.486558 133.490335,112.995228 C134.217749,111.50526 134.11938,109.718388 133.79968,108.075882 C134.912806,108.318308 136.143715,107.753101 136.731342,106.731642 C137.317674,105.707459 137.198596,102.530041 136.480242,101.606642 C141.29904,99.753035 135.508198,91.6467371 133.696133,89.8121968" id="path56" fill="#F0A258"></path>
                <path d="M301.817258,126.76059 C298.793278,125.869291 295.501074,124.956185 292.578969,124.173913 C290.437037,127.69959 288.255129,132.376869 286.394318,137.661977 C284.741123,142.36515 283.577955,146.878888 282.947368,150.739824 C285.963611,152.301643 289.244209,153.430078 291.996095,155.489334 C297.026604,159.253509 301.975872,163.317508 307.097938,164.368261 C308.537069,165.398571 315.140821,169.987265 318.868891,173.243099 C322.776208,176.657022 328.169078,181.590516 333.364649,183.527117 C335.186774,184.207176 336.756148,181.968024 335.609744,180.324434 C335.602007,180.312169 335.59427,180.301266 335.585243,180.289 C331.209822,174.078522 323.653097,167.3488 317.863047,162.582936 C318.893392,162.888213 320.068166,162.693326 320.852209,161.909691 C322.085012,160.674955 321.987007,158.332226 320.783863,157.113844 C322.17528,157.992878 324.263051,157.509069 325.130914,156.015392 C325.974275,154.569415 325.564201,152.534689 324.372662,151.417158 C325.464906,151.880524 327.494647,150.249201 327.252213,148.934057 C325.148968,137.531144 305.14557,127.739112 301.817258,126.76059" id="path58" fill="#F0A258"></path>
                <path d="M58.8607876,94.9648017 C56.9483121,94.9899148 54.7475172,95.2480213 53.0146272,96.0628009 C51.6428475,96.7073697 50.4519463,97.8514095 50.08644,99.2926207 C48.8364527,104.221758 55.4880972,104.118515 58.5432484,104.206411 C63.4621322,104.347323 68.3873513,104.4408 73.3046836,104.19804 C76.4286177,104.043176 88.1271444,104.153395 89.4613003,101.078439 C81.0922807,96.047454 68.4785016,94.8420267 58.8607876,94.9648017" id="path60" fill="#172C4B"></path>
                <path d="M148.755418,0 C149.500982,10.8704546 148.814144,67.215372 148.814144,67.826087 C148.814144,67.826087 167.591111,14.1865417 172.681115,0 L148.755418,0" id="path62" fill="#FFFFFF"></path>
                <path d="M148.145738,3.13043478 C148.139277,3.13043478 148.132816,3.13043478 148.125064,3.13043478 C147.888605,3.14262101 147.705124,3.35384894 147.715461,3.60298957 C147.882145,7.25750356 148.645789,87.0935367 144.454144,98.3820447 C143.581962,100.731278 126.302412,137.82209 119.66478,147.664499 C119.558826,147.82292 119.397311,148.062583 119.377929,148.369947 C119.358547,148.697621 119.505849,148.965718 119.602758,149.143095 L123.351205,155.980922 C121.626221,156.41421 119.81725,156.422334 118.085807,155.999879 C117.960471,155.968736 117.827382,155.999879 117.725304,156.082474 C117.623227,156.16507 117.561205,156.292348 117.558621,156.42775 C117.429409,162.056433 118.479904,167.767711 120.5964,172.94415 C120.690725,173.17298 120.943981,173.278594 121.161057,173.181104 C121.379426,173.08226 121.481504,172.816871 121.387179,172.589395 C119.388266,167.697302 118.362321,162.316406 118.410129,156.992379 C120.305673,157.36609 122.269698,157.265892 124.123894,156.698555 C124.251814,156.660643 124.353891,156.563153 124.402992,156.434521 C124.452093,156.305888 124.443048,156.161007 124.37715,156.041853 L120.349605,148.694913 C120.309549,148.620441 120.233314,148.483685 120.23719,148.426816 C120.241066,148.374009 120.319886,148.256208 120.367694,148.185799 C127.032461,138.300061 144.380493,101.067077 145.256552,98.7083647 C149.59033,87.0393757 148.747867,7.36582557 148.576014,3.55966077 C148.564385,3.31864428 148.374443,3.13043478 148.145738,3.13043478" id="path64" fill="#172C4B"></path>
                <path d="M145.5432,98.0869565 C145.519855,98.0869565 145.496511,98.0883204 145.471793,98.0924122 C145.22187,98.1319657 145.051593,98.3638309 145.091416,98.6120632 C146.754364,109.123744 147.27618,119.950488 147.780146,130.422615 C148.21957,139.554016 148.6741,148.997752 149.883891,158.216443 C149.916848,158.472859 149.955297,158.763372 149.868786,158.959776 C149.797379,159.120717 149.622982,159.265292 149.436227,159.411231 C147.861164,160.638753 146.099346,161.575761 144.197462,162.196342 C144.032678,162.250899 143.913209,162.391382 143.888491,162.561871 C143.862401,162.730996 143.93518,162.900121 144.07662,162.999687 C145.394894,163.923056 146.836756,164.635019 148.369249,165.120572 C146.464618,168.164827 144.191969,170.975853 141.611723,173.481362 C141.43046,173.657306 141.427714,173.945092 141.603483,174.123765 C141.780627,174.303801 142.070372,174.306529 142.250262,174.131948 C145.028249,171.434128 147.454697,168.392601 149.460945,165.089202 C149.535098,164.967814 149.547456,164.819148 149.495275,164.686848 C149.44172,164.554548 149.33049,164.454983 149.191797,164.416793 C147.835074,164.043081 146.548383,163.483876 145.355071,162.750091 C147.026258,162.109052 148.586215,161.229327 150.000613,160.125922 C150.271134,159.914515 150.548521,159.678558 150.705066,159.325304 C150.895941,158.898399 150.834147,158.436033 150.790204,158.099146 C149.585906,148.917281 149.132749,139.49264 148.693325,130.37897 C148.187987,119.883657 147.66617,109.030998 145.994983,98.4702162 C145.95928,98.2465344 145.764285,98.0869565 145.5432,98.0869565" id="path66" fill="#172C4B"></path>
                <path d="M158.117647,202.741021 C158.117647,213.646806 153.169762,231.037076 143.334933,236.576159 C140.77671,238.015809 137.88785,238.654157 134.670947,238.166642 C134.053758,238.072371 133.470281,238.009075 132.91144,237.968674 C132.910143,237.968674 132.910143,237.968674 132.908847,237.968674 C132.126987,238.41444 131.269924,238.720147 130.396006,238.850779 C128.5976,239.120124 126.765482,238.835965 124.989118,238.435987 C124.008877,238.213778 123.033822,237.955206 122.088589,237.607751 C121.681452,237.524254 121.262645,237.425943 120.826982,237.307431 C116.021984,236.011881 111.392029,231.020915 108.678343,226.936296 C103.690651,219.435034 104.241843,209.905602 99.2834549,202.464942 C94.5132061,195.308441 87.5034428,192.808918 83.6474377,190.079105 C81.7897765,188.763354 87.3842839,186.561457 86.8276468,184.298958 C85.9292218,180.649331 80.2605481,181.146273 82.8524827,176.591647 C85.6641936,171.65051 92.2657823,173.337957 95.0431329,172.462585 C98.1570849,171.482169 96.7975835,166.893874 102.99372,166.956522 C105.808673,166.985452 116.721897,169.890339 125.129153,172.070688 L125.560926,196.761558 C125.265298,197.127868 124.974856,197.498217 124.688304,197.87126 C124.326548,197.902235 123.967385,197.968225 123.618596,198.067882 C122.187132,198.47594 120.926822,199.375553 119.822105,200.404452 C118.835381,201.322919 117.93553,202.378752 117.394841,203.6339 C116.854152,204.890395 116.704004,206.371794 117.206832,207.644449 C117.709918,208.917105 118.937813,209.909642 120.261658,209.882708 C120.872364,209.870587 121.426019,209.768236 121.931699,209.590468 C121.642554,211.024731 121.594579,212.504783 121.847419,213.944433 C122.280488,216.418368 123.638045,218.746857 125.669842,220.113783 C127.219297,221.156149 129.065678,221.609996 130.69682,222.506915 C133.047584,223.799772 134.727998,225.992241 135.642112,228.516005 C135.758808,228.307263 135.878096,228.101214 136.003868,227.905939 C137.035974,226.301988 138.221081,224.773454 139.747197,223.650285 C141.590985,222.292786 143.801714,221.609996 145.977435,220.963567 C146.083758,220.761558 146.188784,220.558203 146.292513,220.352154 C146.309369,220.369661 146.324928,220.387169 146.343081,220.404676 C146.533683,220.591871 146.748921,220.746744 146.978422,220.870643 C147.214406,220.913738 147.434831,221.003969 147.631917,221.129215 C148.424149,221.343344 149.307144,221.253113 150.052698,220.886804 C151.249474,220.298285 152.100054,219.098352 152.514971,217.792028 C152.929888,216.485704 152.948041,215.075682 152.814489,213.707409 C152.665378,212.172141 152.316589,210.6261 151.524357,209.32247 C151.288373,208.935959 151.007007,208.572343 150.69193,208.247783 C151.074431,206.700395 151.395992,205.136846 151.647535,203.561177 C152.537014,197.984385 153.789544,188.778168 148.029978,185.449062 C145.379695,183.916488 142.254852,183.901674 139.34395,184.910372 L140.459039,176.634742 L140.549802,175.957339 C148.612158,179.123491 158.117647,186.980289 158.117647,202.741021" id="path68" fill="#00E4BA"></path>
                <path d="M126.058614,195.72791 C128.611244,192.726515 131.477378,189.949346 134.431398,187.495009 C135.859874,186.309039 137.50085,185.37296 139.213972,184.785378 C142.15881,183.773656 145.320083,183.788515 148.001263,185.325683 C153.827975,188.66477 152.560842,197.898587 151.660994,203.492097 C151.406518,205.07249 151.081209,206.640726 150.694248,208.192753 C151.012999,208.518287 151.297645,208.882993 151.53638,209.270662 C152.337848,210.578201 152.690704,212.128877 152.841553,213.668747 C152.976661,215.041123 152.958297,216.455372 152.538543,217.765612 C152.118789,219.075852 151.258293,220.279382 150.047564,220.869666 C149.293319,221.237073 148.400029,221.327574 147.598561,221.112803 C147.399178,220.987182 147.176184,220.896681 146.937448,220.853457 C146.705272,220.729186 146.487524,220.573849 146.2947,220.386092 C146.276336,220.368533 146.260595,220.350973 146.243542,220.333413 C146.138604,220.540079 146.032353,220.744045 145.924791,220.946659 C143.723706,221.595026 141.487203,222.279862 139.62192,223.641432 C138.078012,224.767968 136.879089,226.301084 135.834951,227.909843 C135.707713,228.105704 135.587034,228.312371 135.468978,228.521739 C134.544207,225.990409 132.844203,223.791366 130.466033,222.494634 C128.815874,221.595026 126.947968,221.139818 125.380449,220.094328 C123.324965,218.723303 121.951582,216.387833 121.513464,213.906481 C121.257676,212.462516 121.30621,210.978027 121.598726,209.539464 C121.087151,209.717765 120.527042,209.820423 119.909216,209.83258 C118.569938,209.859595 117.327728,208.864082 116.818776,207.587611 C116.310086,206.31114 116.461985,204.825301 117.008977,203.565038 C117.555969,202.306127 118.466311,201.247129 119.464539,200.325908 C120.582134,199.293925 121.857138,198.391615 123.305289,197.982334 C123.658145,197.882378 124.021495,197.81619 124.387468,197.785123 C124.677361,197.410961 124.971189,197.039502 125.270264,196.672094 L124.833457,171.907202 L124.679984,163.269071 C124.733765,158.603535 128.253142,154.794383 132.7209,154.458043 C132.875684,154.445886 133.035715,154.440483 133.194435,154.436431 C138.53056,154.332422 142.692684,159.166803 141.954179,164.609028 L140.433882,175.805504 L140.342061,176.484938 C133.312491,180.533175 127.971119,187.65575 126.058614,195.72791" id="path70" fill="#F0A258"></path>
                <path d="M125.869969,196.173913 C127.819968,187.857144 133.266055,180.518736 140.433437,176.347826 L139.283232,184.899792 C137.536525,185.505179 135.863378,186.469624 134.406897,187.691532 C131.394965,190.220242 128.472642,193.081567 125.869969,196.173913" id="path72" fill="#172C4B"></path>
                <path d="M142.514475,214.988552 C142.496092,214.412562 142.947009,213.930943 143.521199,213.913588 C144.095388,213.895148 144.575502,214.347478 144.593885,214.923468 C144.612267,215.499458 144.16135,215.981076 143.58716,215.999517 C143.012971,216.016872 142.532857,215.564542 142.514475,214.988552" id="path74" fill="#172C4B"></path>
                <path d="M133.152184,210.814639 C133.134883,210.238649 133.585813,209.75703 134.16002,209.739675 C134.734226,209.721234 135.214354,210.173565 135.231655,210.749555 C135.250039,211.325545 134.799108,211.807163 134.224902,211.825604 C133.650695,211.842959 133.170568,211.390628 133.152184,210.814639" id="path76" fill="#172C4B"></path>
                <path d="M142.760223,201.391304 C141.705618,201.391304 140.65226,201.631831 139.693642,202.112883 C139.485464,202.216931 139.394464,202.484482 139.49045,202.710145 C139.586437,202.935807 139.833259,203.033098 140.041437,202.92905 C141.729303,202.083155 143.747512,202.076399 145.439118,202.911484 C145.856721,203.116877 146.831544,203.692518 146.883901,204.611382 C146.918805,205.235669 146.484996,205.815364 146.067393,206.149128 C145.68594,206.454515 145.243405,206.668016 144.774692,206.893678 C144.600171,206.978808 144.42565,207.062587 144.252376,207.153122 C140.986343,208.847616 137.195501,213.933799 138.687654,218.043013 C139.12645,219.248346 140.199753,220.292878 141.562262,220.83744 C142.918538,221.3793 144.304732,221.340113 145.365569,220.729339 C145.567515,220.611778 145.644803,220.340173 145.536351,220.119916 C145.429145,219.90101 145.177336,219.818582 144.975391,219.934791 C144.136444,220.418546 142.968401,220.440167 141.848975,219.992896 C140.705863,219.536167 139.813314,218.683515 139.460532,217.713303 C138.160352,214.135138 141.699385,209.475957 144.61139,207.963885 C144.777185,207.878755 144.944226,207.797678 145.112514,207.716602 C145.601173,207.48013 146.106036,207.236901 146.561037,206.873409 C147.328929,206.258581 147.758998,205.392417 147.711628,204.55598 C147.655532,203.56685 146.952462,202.668255 145.783173,202.091263 C144.835774,201.625074 143.797375,201.391304 142.760223,201.391304" id="path78" fill="#172C4B"></path>
                <path d="M127.369227,209.73913 C127.355461,209.73913 127.340319,209.740495 127.326553,209.741861 C127.074641,209.763701 126.888804,209.984838 126.912205,210.23464 C127.001683,211.209278 127.102172,212.313595 127.571582,213.297788 C128.140106,214.492197 129.253751,215.495501 130.707408,216.122054 C132.00689,216.683085 133.405485,216.894666 134.722862,217.040726 C134.972021,217.068026 135.200532,216.889206 135.22944,216.639404 C135.256971,216.389602 135.075264,216.165735 134.824728,216.13707 C133.578933,215.999201 132.261555,215.80127 131.072199,215.288015 C129.82365,214.748825 128.873817,213.903865 128.400277,212.910117 C128.001072,212.070618 127.911595,211.09598 127.824871,210.152737 C127.802846,209.916586 127.603243,209.73913 127.369227,209.73913" id="path80" fill="#172C4B"></path>
                <path d="M148.042674,199.304348 C147.300001,197.423911 144.456626,195.603017 139.393189,196.059971 C141.269764,193.638113 143.176841,192.990068 144.805416,193.046841 C147.548001,193.141002 149.603613,196.111206 148.407379,198.635533 C148.303936,198.852932 148.183251,199.075871 148.042674,199.304348" id="path82" fill="#172C4B"></path>
                <path d="M124.354467,202.434783 C124.183121,202.434783 124.017486,202.524729 123.933241,202.680091 C123.349235,203.748545 122.953711,204.893317 122.755235,206.083063 C122.713826,206.331097 122.890884,206.562777 123.149331,206.602299 C123.410635,206.644546 123.653375,206.47283 123.694784,206.226159 C123.876125,205.133174 124.240236,204.081074 124.775694,203.098478 C124.897064,202.876338 124.807107,202.60241 124.574362,202.48657 C124.504395,202.451136 124.428717,202.434783 124.354467,202.434783" id="path86" fill="#172C4B"></path>
                <path d="M149.248752,212.869565 C149.015421,212.869565 148.798522,212.999635 148.726222,213.200395 C148.338432,214.272058 148.00158,215.373411 147.72717,216.47335 C147.664729,216.727834 147.852051,216.978077 148.147823,217.033216 C148.445238,217.08694 148.734438,216.924353 148.798522,216.671282 C149.064716,215.598205 149.391709,214.525129 149.771283,213.481742 C149.860014,213.232913 149.698983,212.968531 149.411427,212.892186 C149.357202,212.876634 149.301334,212.869565 149.248752,212.869565" id="path88" fill="#172C4B"></path>
                <path d="M127.322846,217.043478 C127.265861,217.043478 127.208875,217.056706 127.154368,217.083161 C126.946248,217.182368 126.853338,217.442951 126.946248,217.665174 C127.771294,219.626821 129.378025,220.556718 130.931489,221.45487 C132.517161,222.37154 134.013639,223.237945 134.755684,225.137423 C135.812386,227.841136 135.627804,231.517075 134.25149,235.222115 C134.167251,235.448306 134.271311,235.704921 134.483147,235.794868 C134.694982,235.884816 134.934072,235.773704 135.018311,235.547513 C135.873087,233.244595 137.075968,228.786907 135.51755,224.797474 C134.662773,222.610959 132.966848,221.629474 131.325429,220.681057 C129.826473,219.813329 128.410518,218.994543 127.699443,217.304061 C127.631308,217.140039 127.480174,217.043478 127.322846,217.043478" id="path90" fill="#172C4B"></path>
                <path d="M82.6075926,199.304348 C82.3789001,199.304348 82.189052,199.497057 82.1795666,199.741703 C82.1704016,199.993182 82.3544617,200.205026 82.5908715,200.214593 C87.0893473,200.404569 91.7341965,201.280645 95.2317248,206.352595 C96.9929653,208.905654 98.1871052,211.913836 99.3418864,214.820879 C100.044299,216.590799 100.770764,218.419489 101.619679,220.137474 C103.923581,224.799404 106.15314,228.358379 108.636087,231.340593 C111.598541,234.898201 115.06983,237.493629 118.674759,238.849429 C122.659513,240.34737 126.769032,240.382905 130.891412,238.954668 C131.745472,238.659453 132.99955,238.163329 134.032397,237.279052 C134.216328,237.121878 134.245911,236.83623 134.096708,236.63942 C133.948791,236.443977 133.678682,236.412543 133.494751,236.571084 C132.782177,237.180647 131.897248,237.64807 130.626448,238.089525 C123.00551,240.728689 115.424059,238.11686 109.27766,230.736496 C106.841533,227.811686 104.649146,224.308746 102.378171,219.713787 C101.545977,218.031337 100.826715,216.219048 100.131248,214.468262 C98.9571737,211.510649 97.7433544,208.454632 95.9226898,205.814102 C92.2107463,200.430537 87.3378478,199.503891 82.6249568,199.304348 C82.6191687,199.304348 82.6133806,199.304348 82.6075926,199.304348" id="path92" fill="#172C4B"></path>
                <path d="M89.6567615,97.0434783 C89.6214535,97.0434783 89.5852627,97.0461825 89.5493662,97.0542954 C89.2851443,97.108381 89.1191965,97.349062 89.1783375,97.5924473 C91.5766366,107.434678 90.7936806,124.823204 87.3958696,137.179064 C87.3295199,137.419745 87.4885532,137.664482 87.7507154,137.725328 C88.0143489,137.786175 88.2796006,137.640143 88.3458032,137.399462 C91.7756857,124.927319 92.5614368,107.354901 90.13445,97.3950348 C90.0834004,97.185453 89.8809676,97.0434783 89.6567615,97.0434783" id="path94" fill="#172C4B"></path>
                <path d="M309.25343,151.304348 C309.039008,151.304348 308.846678,151.325174 308.67904,151.368216 C307.942209,151.558431 307.374316,152.042995 307.083223,152.733047 C306.740148,153.548057 306.819419,154.576887 307.304142,155.552956 C309.0611,159.094852 315.30402,162.23549 318.868617,163.791925 C319.089537,163.887727 319.342944,163.775264 319.432611,163.53923 C319.523578,163.301808 319.417017,163.032451 319.196098,162.935261 C316.412515,161.720381 309.757646,158.526982 308.068263,155.119765 C307.710893,154.397779 307.639419,153.666074 307.873334,153.113478 C308.053968,152.683063 308.40354,152.390103 308.883065,152.266533 C310.944112,151.733374 319.005068,155.979206 321.79125,158.134056 C321.98358,158.284006 322.25518,158.238188 322.39423,158.031311 C322.534578,157.824435 322.491694,157.534252 322.298065,157.38569 C319.723705,155.394675 312.285222,151.304348 309.25343,151.304348" id="path96" fill="#172C4B"></path>
                <path d="M310.42578,146.086957 C309.717984,146.086957 309.021708,146.189575 308.35487,146.446753 C307.821143,146.654523 307.140226,147.053593 306.932879,147.785854 C306.794648,148.273606 306.92264,148.766426 307.048072,149.141425 C307.40389,150.19801 308.005452,151.178582 308.788763,151.979256 C308.952592,152.145218 309.222655,152.150286 309.391605,151.988124 C309.560554,151.825962 309.564394,151.558649 309.400564,151.391419 C308.706848,150.681962 308.173121,149.811609 307.856981,148.875378 C307.763547,148.59793 307.679072,148.278674 307.754588,148.012627 C307.87234,147.595821 308.376629,147.344977 308.66589,147.233491 C310.220993,146.630452 312.00392,147.030789 313.555183,147.452662 C318.0541,148.677744 321.329414,150.203078 323.861094,152.252904 C324.044123,152.399863 324.312906,152.373258 324.461377,152.19336 C324.609847,152.012195 324.582969,151.746148 324.40122,151.599189 C321.773546,149.472083 318.399678,147.896074 313.780449,146.63932 C312.678438,146.339067 311.53675,146.086957 310.42578,146.086957" id="path98" fill="#172C4B"></path>
                <path d="M315.497541,140.869565 C315.052158,140.869565 314.601409,140.920242 314.162734,141.058578 C313.190135,141.36538 312.1679,142.229633 312.080702,143.469171 C312.012284,144.42793 312.50462,145.200415 312.980858,145.946877 C313.183427,146.264637 313.373922,146.564592 313.520148,146.872764 C313.627469,147.098758 313.89443,147.194633 314.11578,147.085061 C314.338472,146.975489 314.431037,146.702927 314.325057,146.475564 C314.154684,146.115345 313.9387,145.77704 313.729424,145.449693 C313.316237,144.800476 312.924515,144.18824 312.971468,143.534914 C313.027811,142.729557 313.765645,142.139236 314.427012,141.931048 C315.245336,141.673553 316.145493,141.788604 316.994673,141.952963 C320.663717,142.658335 324.103363,144.340272 326.940668,146.817978 C327.12848,146.980967 327.410198,146.957683 327.57118,146.767301 C327.73082,146.575549 327.709356,146.287922 327.521544,146.123563 C324.564844,143.544502 320.982998,141.791343 317.16102,141.055838 C316.643195,140.955854 316.075734,140.869565 315.497541,140.869565" id="path100" fill="#172C4B"></path>
                <path d="M292.736388,155.478261 C292.586742,155.478261 292.442212,155.557561 292.364192,155.699262 C292.24908,155.907263 292.321984,156.171164 292.526628,156.288165 C295.39676,157.928773 297.572381,159.571981 299.490919,161.022788 C301.82386,162.784297 303.665656,164.176604 305.634075,164.648506 C306.712293,164.907208 307.828882,164.891607 308.873845,164.835707 C311.250274,164.709607 313.62926,164.365105 315.945574,163.812602 C316.219285,163.747602 316.633689,163.648801 316.939376,163.3498 C317.297503,163.000098 317.425406,162.350095 317.042977,161.939293 C316.88182,161.765092 316.611946,161.758592 316.441836,161.922393 C316.270446,162.086194 316.262772,162.360495 316.423929,162.533396 C316.432883,162.555496 316.417534,162.659496 316.349746,162.725797 C316.221843,162.850597 316.00313,162.910398 315.751162,162.970198 C313.483451,163.511001 311.154347,163.847702 308.82908,163.971203 C307.846788,164.023203 306.803104,164.038803 305.829766,163.806102 C304.032736,163.3745 302.252333,162.030293 299.999971,160.327285 C298.05969,158.862178 295.861046,157.200769 292.944869,155.532861 C292.87836,155.496461 292.806735,155.478261 292.736388,155.478261" id="path102" fill="#172C4B"></path>
                <path d="M304.164808,154.434783 C304.059677,154.434783 303.954545,154.476219 303.872914,154.560387 C303.712125,154.728723 303.712125,155.001944 303.872914,155.17028 L304.140072,155.451271 C305.425149,156.80961 307.183936,158.669071 309.002092,158.470953 C309.075066,158.463184 309.149276,158.454119 309.223487,158.44376 C309.677407,158.386785 310.106591,158.33499 310.392301,158.535697 C310.581538,158.667776 310.837564,158.615981 310.963722,158.417863 C311.091116,158.221039 311.040406,157.952997 310.852406,157.819624 C310.311907,157.440221 309.682355,157.517914 309.125776,157.587838 C309.055276,157.596903 308.984776,157.605967 308.915513,157.613736 C307.496857,157.769123 305.892675,156.079292 304.725097,154.845263 L304.455466,154.560387 C304.375071,154.476219 304.26994,154.434783 304.164808,154.434783" id="path104" fill="#172C4B"></path>
                <path d="M126.246483,110.608696 C126.122194,110.608696 126.000164,110.687101 125.92898,110.832296 C125.81712,111.057348 125.869095,111.35645 126.04423,111.500193 C128.04868,113.142349 128.240764,114.366343 128.243024,114.379411 C128.279181,114.636406 128.470135,114.816448 128.671258,114.777245 C128.872381,114.738042 129.013619,114.50573 128.987631,114.245831 C128.971812,114.080309 128.76278,112.581896 126.448736,110.684197 C126.385461,110.633379 126.315407,110.608696 126.246483,110.608696" id="path106" fill="#172C4B"></path>
                <path d="M130.420565,105.391304 C130.273442,105.391304 130.132156,105.480164 130.066768,105.630732 C129.97686,105.836837 130.062098,106.079966 130.257095,106.176231 C131.169026,106.620529 131.937337,107.378304 132.42191,108.308862 C132.52583,108.507562 132.761695,108.580377 132.949686,108.470537 C133.138844,108.360697 133.206568,108.110162 133.103815,107.911462 C132.539842,106.829102 131.644258,105.947911 130.582868,105.429563 C130.530324,105.403646 130.474277,105.391304 130.420565,105.391304" id="path108" fill="#172C4B"></path>
                <path d="M133.525378,98.0869565 C133.404458,98.0869565 133.285778,98.1610605 133.214123,98.2978678 C133.099921,98.5173296 133.146945,98.8108954 133.318248,98.9562532 C134.241936,99.7386201 135.023433,100.798877 135.576527,102.023018 C135.678412,102.249605 135.906816,102.327984 136.084836,102.198302 C136.263975,102.067195 136.325554,101.776479 136.222549,101.549892 C135.612355,100.19892 134.751365,99.0289321 133.731388,98.1653357 C133.66757,98.1126079 133.595914,98.0869565 133.525378,98.0869565" id="path110" fill="#172C4B"></path>
                <path d="M193.486068,88.6956522 C192.841608,88.7834581 192.198469,88.8780183 191.556651,88.9766311 C187.458786,89.6088338 183.407142,90.4369112 179.409643,91.4946349 L172.681115,134.608696 L193.486068,88.6956522" id="path112" fill="#172C4B"></path>
                <path d="M77.4103375,180.521739 C77.194767,180.521739 77.0081557,180.688646 76.981534,180.916124 C76.9527047,181.162447 77.121525,181.385887 77.3586526,181.4155 C90.5722159,183.080533 102.443268,192.933437 106.898046,205.934693 C107.221661,206.879603 107.516188,207.860855 107.800975,208.809803 C108.5095,211.172077 109.24231,213.613766 110.503658,215.782213 C110.627026,215.994885 110.892723,216.063532 111.097256,215.93566 C111.301788,215.807787 111.367628,215.531852 111.244389,215.31918 C110.037064,213.243609 109.320227,210.854415 108.627025,208.54329 C108.339511,207.586266 108.042518,206.595591 107.713058,205.634529 C103.151015,192.320995 90.9943964,182.229845 77.4630614,180.525777 C77.4452704,180.523085 77.427739,180.521739 77.4103375,180.521739" id="path114" fill="#172C4B"></path>
                <path d="M95.1029198,171.130435 C95.0141038,171.130435 94.9242288,171.156861 94.8463989,171.212356 C94.6486476,171.355057 94.6032468,171.628567 94.7452731,171.826763 C96.3283431,174.029382 98.2294831,176.221429 100.395615,178.342127 C104.799621,182.650908 109.867695,186.300357 114.768858,189.829567 C114.965948,189.972268 115.241794,189.927344 115.384217,189.730469 C115.526508,189.532273 115.482034,189.257441 115.284548,189.116061 C110.409857,185.605349 105.369182,181.977041 101.012827,177.713185 C98.8828304,175.629484 97.015046,173.475754 95.4614931,171.314096 C95.3754567,171.193858 95.240181,171.130435 95.1029198,171.130435" id="path116" fill="#172C4B"></path>
                <path d="M94.2308237,56.3478261 C94.1192163,56.3478261 94.0076089,56.3922443 93.9230932,56.4810807 C82.9925681,68.0203927 77.7737233,90.0666299 79.3279308,96.7010949 C79.3843178,96.94203 79.6176434,97.0887447 79.8494134,97.0308664 C80.0810539,96.9716422 80.2232528,96.729361 80.1667362,96.4897719 C78.6505089,90.0168276 83.7992264,68.4470767 94.5385542,57.1096657 C94.7057708,56.9333388 94.7035672,56.6493315 94.5336284,56.4756967 C94.4495016,56.3895523 94.3402274,56.3478261 94.2308237,56.3478261" id="path118" fill="#172C4B"></path>
                <path d="M290.835337,110.608696 C290.7638,110.608696 290.690963,110.627754 290.624628,110.667232 C281.378172,116.111155 276.915577,126.71993 274.800689,134.660516 C272.473792,143.394751 272.185044,152.160298 272.869196,155.1307 C272.925124,155.374376 273.157944,155.524122 273.392064,155.465585 C273.624884,155.405687 273.767958,155.16201 273.712029,154.918334 C273.160545,152.527854 273.157944,144.202015 275.635719,134.904192 C277.706384,127.128326 282.062324,116.748254 291.048647,111.456799 C291.256754,111.33428 291.330892,111.057932 291.213832,110.84012 C291.134491,110.691736 290.987515,110.608696 290.835337,110.608696" id="path120" fill="#172C4B"></path>
            </g>
        </g>
    </g>
</svg>