<svg width="142px" height="142px" viewBox="0 0 142 142" version="1.1" xmlns="http://www.w3.org/2000/svg" xmlns:xlink="http://www.w3.org/1999/xlink">
    <g id="Home" stroke="none" stroke-width="1" fill="none" fill-rule="evenodd">
        <g id="Home-Default" transform="translate(-34, -266)" fill-rule="nonzero">
            <g id="Discover-Student" transform="translate(105, 337) scale(-1, 1) translate(-105, -337)translate(34, 266)">
                <g id="g8" transform="translate(71, 71) scale(-1, 1) rotate(-180) translate(-71, -71)translate(0, 0)">
                    <g id="g10" transform="translate(-0, 0)">
                        <path d="M63.3174657,114.105235 C63.2632668,114.105235 63.2082696,114.119517 63.1584173,114.149865 C63.0120538,114.238233 62.9647739,114.429248 63.0528582,114.576527 C64.0427192,116.233189 65.0718765,118.243319 65.1977492,120.596206 C65.299494,122.50101 64.9342948,124.445981 64.5811595,126.327577 L64.4890836,126.819398 C64.148988,128.650116 64.4669073,130.562953 64.7473043,132.250855 C64.7754239,132.420449 64.9329642,132.535594 65.1034556,132.506138 C65.271818,132.478468 65.3856267,132.3178 65.3574185,132.148207 C65.0721427,130.431741 64.777198,128.655472 65.0971575,126.933651 L65.1890561,126.442722 C65.5489329,124.525422 65.9212285,122.542962 65.8151372,120.56318 C65.6821681,118.073725 64.6120289,115.977906 63.5827829,114.256084 C63.5247697,114.158791 63.4224926,114.105235 63.3174657,114.105235" id="path14" fill="#172C4B"></path>
                        <path d="M29.5310266,86.8194144 C29.5059824,85.5421069 26.2096096,84.501338 21.4552786,84.0755688 C19.5937119,83.908653 17.5081647,83.83546 15.3088087,83.8783047 C11.4061361,83.9568533 7.87859763,84.3844076 5.32894494,85.0181521 C3.10652563,85.5670997 1.62541541,86.2704667 1.28762613,87.03096 C1.23608843,87.1452125 1.21116227,87.2612502 1.21284796,87.3781806 C1.23076612,88.3279046 3.05667332,89.1473093 5.9458894,89.678405 C8.46538232,90.144341 11.7919149,90.390698 15.4350362,90.3192902 C17.7535232,90.2728751 19.9404604,90.1023889 21.8677577,89.8399652 C25.7064739,89.3169029 28.5192261,88.4260903 29.3068393,87.4120993 C29.4579929,87.2184056 29.5344568,87.0202489 29.5310266,86.8194144" id="path16" fill="#172C4B"></path>
                        <path d="M37.378425,17.424401 C37.3848728,16.9950615 37.4106641,16.5639368 37.45596,16.1354898 C37.4235597,16.1069267 37.3880967,16.0783636 37.3558577,16.0498004 C37.3687533,16.7192488 37.378425,17.2039294 37.378425,17.424401" id="path18" fill="#B08A37"></path>
                        <path d="M92.1315659,4.11130531 C91.9399627,3.916719 91.7465854,3.72481048 91.5523211,3.53915014 C91.6037701,3.84441858 91.8352906,4.02026034 92.1315659,4.11130531" id="path20" fill="#172C4B"></path>
                        <path d="M140.610715,56.0881659 C135.340741,71.6639969 119.329458,83.6622961 104.986719,90.2710899 C98.4039084,93.3041371 88.8787473,96.7451015 80.3417618,96.5424818 C72.8027095,97.4725687 59.4503638,97.0673293 52.0864155,94.7010526 C49.0400139,93.7218729 46.304169,91.8563435 44.2363628,89.4052701 C42.3186458,87.1327162 40.7991262,84.0255833 39.8699396,81.196941 C39.5854621,80.3311212 39.3293703,79.4412012 39.1018415,78.5325367 C38.7924379,77.2998592 38.5328865,76.0332629 38.3159137,74.7434592 C36.657127,64.899891 37.4660295,53.7602709 37.3700505,46.4936325 C37.3682764,46.3160055 37.3647282,46.1392711 37.3647282,45.9616442 C37.2526935,37.2132935 37.2509194,28.4613724 37.3451243,19.7121291 C37.3504466,18.9944805 37.3594059,18.2812949 37.3682764,17.5636463 L37.3682764,17.424401 C37.3718246,16.9950615 37.3860174,16.5639368 37.4109436,16.1354898 C37.3931138,16.1069267 37.3735987,16.0783636 37.3558577,16.0498004 C37.3344797,14.2056935 37.300683,10.9637784 37.3415761,8.02445392 C37.3860174,4.6745345 37.5283005,1.7173581 37.8963383,1.66023185 C50.2550973,-0.304375838 118.337734,2.49391816 123.078138,1.96639288 C122.89097,4.35319931 122.338337,6.67841649 121.618051,8.96346677 C120.991793,10.9548524 120.24046,12.9141045 119.490014,14.8563972 C119.381794,15.1366729 119.273574,15.416056 119.16624,15.6963317 C133.646472,25.262302 146.290507,39.3037575 140.610715,56.0881659" id="path22" fill="#B08A37"></path>
                        <polyline id="path24" fill="#7B88E8" points="63.2681456 88.8286519 51.7112813 87.2184056 52.6002845 0.805123185 79.7146163 0 68.0984969 62.7398044 63.6439894 86.7988846 63.2681456 88.8286519"></polyline>
                        <path d="M90.9136439,3.57842445 C90.8568726,3.54986132 90.794779,3.52665378 90.7309113,3.51415741 C89.7764436,3.30082654 88.0945936,4.7557609 86.1723526,7.28181258 C85.8237413,7.73971523 85.4662594,8.2333218 85.1052294,8.75727669 C83.8181174,10.6290542 82.4689118,12.9033933 81.1871221,15.4187338 C80.1430622,17.4672457 79.2560105,19.4586313 78.5534656,21.2866715 C78.4115373,21.6570996 78.2758184,22.0203869 78.1498571,22.3765334 C76.6436433,26.5878097 76.2329384,29.722613 77.3107062,30.2787014 C77.4047337,30.3269017 77.5085187,30.3536796 77.6220613,30.3608204 C78.7991789,30.4429394 80.9272159,28.3194493 83.2424209,24.9168667 C83.3843491,24.7106766 83.5245033,24.5000235 83.6673186,24.2831222 C84.7867779,22.5800457 85.939058,20.5975861 87.0398892,18.4383921 C88.341194,15.8855624 89.3994467,13.4184222 90.1587629,11.2494097 C90.4266525,10.4844534 90.658173,9.75430839 90.8497762,9.0723637 C91.6853789,6.10804652 91.773197,4.02204554 90.9136439,3.57842445" id="path26" fill="#172C4B"></path>
                        <path d="M47.5876441,127.215711 C50.4009286,129.113374 54.1991065,129.508795 57.3106177,128.134195 C59.7038832,127.077359 61.3654197,125.131496 62.2356175,122.843768 C62.9809183,120.884516 63.1459099,118.675336 62.6929813,116.558987 C62.6441048,116.330482 62.5907042,116.102869 62.5352635,115.876149 C62.7175526,115.932383 62.9149216,115.95202 63.1290559,115.92792 C64.5198643,117.93805 64.7416272,121.823528 64.6413904,123.495364 C64.55304,124.969043 64.054517,126.365958 63.7977155,127.809289 C63.5480104,129.213345 64.0329616,130.605798 63.7553144,131.97415 C63.6263371,132.60968 63.0372461,133.222894 62.4108102,133.07026 C61.7995428,132.922089 61.5554262,132.196407 61.4133205,131.579622 C61.6675495,132.68198 59.8744633,134.976849 58.8892149,135.269621 C58.5429987,135.37227 58.1668887,135.158939 57.9689875,134.857241 C57.7760538,134.562684 57.6979045,134.172618 57.6542616,133.828968 C56.9676836,135.065216 56.0534881,137.706413 54.3993141,137.867081 C53.4925698,137.954555 52.7677599,136.742407 53.2694763,135.978344 C52.4191486,137.273503 50.5736375,139.891492 48.8050339,139.806696 C47.9984378,139.767421 47.3613572,139.031921 47.1608836,138.244649 C46.9604099,137.458271 47.0984351,136.629048 47.2372587,135.82928 C46.4196632,137.004831 45.6020676,138.180382 44.7845608,139.355934 C44.3014724,140.051267 43.6619081,140.82515 42.8216041,140.762668 C42.4414137,140.734105 42.0951087,140.528807 41.8030026,140.28245 C40.8299069,139.46126 40.340964,138.171456 40.2342517,136.898612 C40.1275394,135.624875 40.3625194,134.350245 40.6202079,133.098823 C40.1774804,133.564759 39.7134636,134.044084 39.1136393,134.270804 C38.5138149,134.495739 37.7372012,134.385949 37.3859287,133.84682 C36.190183,132.012532 38.0389762,129.254405 39.3042667,127.959245 C39.4049471,127.855704 39.5027889,127.761981 39.5965502,127.678077 C41.2385716,126.212432 43.5648647,125.238607 45.7838245,125.563513 C46.3107332,126.195472 46.9060336,126.756024 47.5876441,127.215711" id="path28" fill="#F96247"></path>
                        <path d="M56.292992,100.499368 C56.7807818,101.599941 57.1501501,102.735325 57.3605588,103.882313 C57.4387967,104.305405 57.4845686,104.78473 57.4546749,105.181936 C56.7480496,104.186689 55.999644,103.229824 55.2227642,102.32116 C54.1460608,101.060812 52.7653649,99.6906741 51.2448696,98.7320241 L51.3467918,93.590661 C53.314095,95.4865387 55.1361879,97.891197 56.292992,100.499368" id="path30" fill="#172C4B"></path>
                        <path d="M65.6354205,112.616382 C65.6760474,113.974916 64.7517396,115.516433 63.3950827,115.87972 C63.3032729,115.90382 63.2152773,115.918102 63.1290559,115.92792 C62.9149216,115.95202 62.7175526,115.932383 62.5352635,115.876149 C62.5907042,116.102869 62.6441048,116.330482 62.6929813,116.558987 C63.1459099,118.675336 62.9809183,120.884516 62.2356175,122.843768 C61.3654197,125.131496 59.7038832,127.077359 57.3106177,128.134195 C54.1991065,129.508795 50.4009286,129.113374 47.5876441,127.215711 C46.9060336,126.756024 46.3107332,126.195472 45.7838245,125.563513 C43.3249172,122.615263 42.3877471,118.078188 41.4721323,114.590809 C40.2524363,109.94573 39.7003353,104.060833 42.9463235,100.086095 C43.2806533,99.6763926 43.6461186,99.2925755 44.0355343,98.936429 C46.3862213,96.7843758 48.9717996,97.2985121 51.2448696,98.7320241 C52.7653649,99.6906741 54.1460608,101.060812 55.2227642,102.32116 C55.999644,103.229824 56.7480496,104.186689 57.4546749,105.181936 C57.4845686,104.78473 57.4387967,104.305405 57.3605588,103.882313 C57.1501501,102.735325 56.7807818,101.599941 56.292992,100.499368 C55.1361879,97.891197 53.314095,95.4865387 51.3467918,93.590661 L51.4500446,88.3645011 C51.5214523,84.7842914 54.6452048,82.0948944 58.1094965,82.4903152 C58.2737785,82.5090597 58.4391249,82.5349451 58.6035843,82.5688638 C61.8061957,83.2061786 63.9115242,86.3043854 63.3424806,89.5382671 L59.933807,108.876398 C60.8513733,108.310491 62.5197401,109.113829 63.3289974,109.499431 C64.5971265,110.104612 65.5907131,111.120389 65.6354205,112.616382 Z" id="path32" fill="#F0A258"></path>
                        <path d="M56.9057673,116.533994 C56.9612081,116.043065 56.6106453,115.599444 56.1228555,115.544103 C55.6349771,115.487869 55.1945559,115.841338 55.1392039,116.331374 C55.0837632,116.822303 55.434326,117.265924 55.9221157,117.321265 C56.4099942,117.377499 56.8504153,117.024923 56.9057673,116.533994" id="path34" fill="#172C4B"></path>
                        <path d="M49.9050667,119.109139 C49.9050667,113.252805 45.1866613,108.505077 39.3662716,108.505077 C33.5457932,108.505077 28.8273878,113.252805 28.8273878,119.109139 C28.8273878,124.966365 33.5457932,129.714093 39.3662716,129.714093 C45.1866613,129.714093 49.9050667,124.966365 49.9050667,119.109139" id="path36" fill="#F0A258"></path>
                        <path d="M44.9008532,106.621696 C46.5205209,106.182538 50.7286055,105.788009 52.4589772,107.440208 C49.9597978,102.186378 47.2307832,103.220898 47.2307832,103.220898 C47.2307832,103.220898 45.0490796,103.674338 44.9008532,106.621696" id="path38" fill="#172C4B"></path>
                        <path d="M39.1327109,108.976369 C36.9724739,108.976369 34.9704869,109.663669 33.3293526,110.832079 C32.7195046,111.266775 32.157646,111.767522 31.6580585,112.32361 C30.0453985,114.122195 29.0621904,116.50186 29.0621904,119.110031 C29.0621904,124.697693 33.5782593,129.243694 39.1327109,129.243694 C44.6853884,129.243694 49.2032314,124.697693 49.2032314,119.110031 C49.2032314,113.520584 44.6853884,108.976369 39.1327109,108.976369 Z M39.1327109,130.893214 C32.6750633,130.893214 27.4229189,125.606358 27.4229189,119.110031 C27.4229189,116.195699 28.4808167,113.52594 30.2285747,111.466716 C30.786885,110.807087 31.4180223,110.209046 32.1096565,109.686877 C34.0672022,108.205164 36.4994979,107.326848 39.1327109,107.326848 C45.5885844,107.326848 50.8425029,112.611919 50.8425029,119.110031 C50.8425029,125.606358 45.5885844,130.893214 39.1327109,130.893214" id="path40" fill="#172C4B"></path>
                        <path d="M41.627189,117.864857 C42.2601891,118.564654 42.2104255,119.646482 41.5170171,120.283797 C41.2840774,120.497128 41.0084704,120.634588 40.7204447,120.691714 C40.7204447,120.691714 40.7204447,120.691714 40.7186706,120.691714 L40.5391314,120.722063 L40.5373573,120.722063 C40.01994,120.773833 39.490104,120.586388 39.1131958,120.17133 C38.4801957,119.473318 38.5299593,118.390597 39.2233676,117.754175 C39.91855,117.115075 40.9942776,117.165061 41.627189,117.864857" id="path42" fill="#172C4B"></path>
                        <path d="M47.2058571,118.132637 C47.1287723,118.231715 46.9866666,118.248674 46.8882926,118.171018 C46.6078955,117.949654 46.257244,117.82112 45.9010927,117.809516 C45.8913352,117.809516 45.8830856,117.804161 45.8736828,117.803268 C45.8727958,117.804161 45.8721749,117.805053 45.8712878,117.805946 C45.7219083,117.98268 45.5156688,118.215648 45.2561175,118.478965 C45.2547869,118.479857 45.2532789,118.481642 45.2519483,118.482535 C45.6560004,118.62178 46.0368116,118.816366 46.3838263,119.069864 C46.4849502,119.143057 46.5073039,119.285873 46.4339447,119.387629 C46.3606742,119.489385 46.2191895,119.5117 46.1181543,119.437615 C45.7517132,119.169835 45.3448226,118.971678 44.9089254,118.847607 C44.9014742,118.84493 44.8961519,118.839574 44.8890555,118.836896 C44.8887006,118.837789 44.8884345,118.837789 44.8880797,118.837789 C44.6053763,119.101105 44.2800058,119.382273 43.9172903,119.657194 C43.9168468,119.658086 43.916492,119.658086 43.9161372,119.658086 C44.3608162,119.792868 44.7579492,120.089211 45.007122,120.483739 C45.0741831,120.589958 45.0431363,120.730989 44.9376659,120.797934 C44.8321954,120.865771 44.6925735,120.83453 44.6254237,120.728311 C44.4003787,120.371272 44.0188577,120.118667 43.6048707,120.049937 C43.5511154,120.041903 43.507295,120.012447 43.4739419,119.974066 C43.4729661,119.974958 43.4719904,119.975851 43.4710146,119.975851 C43.2150115,120.151693 42.9447269,120.317716 42.6602494,120.471243 C42.6592736,120.472135 42.6582979,120.473028 42.6573221,120.473028 C43.0971223,120.770263 43.3845271,121.272796 43.4103403,121.807462 C43.4164609,121.932425 43.3201271,122.039537 43.1954077,122.045785 C43.074059,122.050248 42.9646855,121.95474 42.9585649,121.828884 C42.938961,121.421859 42.7019408,121.024653 42.3547488,120.814893 C42.3025014,120.783652 42.2681725,120.733666 42.2534475,120.679218 C42.2533588,120.679218 42.2531814,120.679218 42.2530926,120.679218 C41.863677,120.866664 41.4511979,121.028224 41.019115,121.147832 C41.1951948,121.603949 41.2591512,122.104697 41.198743,122.59027 C41.1826874,122.715234 41.0689673,122.802708 40.944514,122.788427 C40.8218347,122.77236 40.7328635,122.658107 40.7489191,122.533144 C40.804005,122.101126 40.7418227,121.65572 40.5747021,121.254944 C40.1746418,121.33974 39.7799038,121.386155 39.3958991,121.402222 C39.4029956,121.904755 39.2856386,122.403717 39.0580211,122.849123 C38.9815573,122.999972 38.8553298,123.016039 38.8073403,123.012469 C38.7166837,123.010683 38.6348975,122.957128 38.5940044,122.870546 C38.5531113,122.786641 38.5637559,122.684885 38.6188419,122.611692 C38.6402198,122.584914 38.6704683,122.561707 38.7024021,122.54564 C38.8659745,122.191279 38.9496234,121.801213 38.9442124,121.409363 C38.5531113,121.405793 38.1779772,121.373659 37.820584,121.320996 C37.6783009,121.824421 37.447224,122.303746 37.1395944,122.72416 C37.0666788,122.825916 36.9244844,122.847338 36.8248685,122.774145 C36.7235672,122.699167 36.7021893,122.557244 36.7751049,122.455488 C37.0400672,122.090415 37.2427586,121.678928 37.3725342,121.246018 C37.0311967,121.17818 36.7129226,121.097846 36.4231228,121.012157 C36.4245421,121.038935 36.422768,121.066605 36.4141636,121.093383 C36.2819929,121.509334 36.0263446,121.894044 35.6947647,122.175212 C35.6630969,122.20199 35.5661422,122.285001 35.4322861,122.269827 C35.3245093,122.258223 35.2296834,122.179675 35.1962416,122.074348 C35.1644851,121.974377 35.1936691,121.86548 35.2704878,121.797643 C35.3318718,121.743195 35.4143676,121.728913 35.4871946,121.751228 C35.713925,121.533434 35.8882306,121.254051 35.9834113,120.955031 C35.9921931,120.92736 36.0069181,120.90326 36.0242156,120.881838 C36.0237721,120.881838 36.0234173,120.881838 36.0230625,120.880945 L36.0211997,120.880945 C35.6104947,120.7417 35.2780278,120.598884 35.045088,120.489987 C35.0447332,120.489095 35.0444671,120.489095 35.0441122,120.489095 C34.8771691,120.710459 34.6868078,120.912186 34.4740928,121.089813 C34.3779364,121.170147 34.2352985,121.156758 34.1556413,121.060357 C34.0758953,120.963064 34.0892011,120.819356 34.1853575,120.739915 C34.3519458,120.600669 34.502922,120.444465 34.6376651,120.274871 C34.559782,120.204356 34.5402669,120.088318 34.5917159,119.993703 C34.6522128,119.884806 34.790859,119.845532 34.8993454,119.906228 C34.9028936,119.908014 34.9455608,119.933006 35.0237987,119.972281 C35.0237987,119.972281 35.0237987,119.972281 35.0255729,119.972281 C35.0262825,119.973173 35.0269921,119.973173 35.0276131,119.973173 C35.0542246,119.979421 35.0803039,119.98924 35.1042543,120.005307 C35.1099315,120.008877 35.11277,120.015125 35.1180036,120.018696 C35.1192455,120.019588 35.12031,120.020481 35.1215518,120.020481 L35.1233259,120.020481 C35.5109675,120.207034 36.3785928,120.582817 37.4791578,120.795256 C37.623215,120.822034 37.7707317,120.847026 37.9218853,120.868449 C38.6988539,120.980023 39.568342,120.997875 40.4555711,120.814893 C40.528398,120.802397 40.5995396,120.78633 40.6724552,120.768478 C40.7151224,120.757767 40.7577896,120.747055 40.8004568,120.734559 C43.6843506,119.979421 45.7663496,117.217724 45.7877275,117.188268 C45.8321688,117.127572 45.9015363,117.097223 45.9690409,117.097223 C46.0170304,117.097223 46.0633345,117.111505 46.1042276,117.141853 C46.1821994,117.198979 46.2105851,117.29538 46.1861024,117.382854 C46.5419876,117.441766 46.8831477,117.589045 47.1672703,117.813087 C47.2655557,117.890743 47.2828532,118.033558 47.2058571,118.132637" id="path44" fill="#172C4B"></path>
                        <path d="M42.8301198,116.741969 C42.8582393,116.746432 42.8863589,116.751788 42.9144784,116.757143 C43.0371576,116.780351 43.1189438,116.899066 43.0940177,117.022245 C43.0709543,117.145423 42.9535974,117.22665 42.8309181,117.204335 C41.1197067,116.875859 39.9483549,117.06509 38.7241349,117.550663 C38.7239575,117.551555 38.7239575,117.551555 38.7237801,117.551555 L38.722006,117.551555 L38.4784216,117.652419 C38.0197271,117.847005 37.5467512,118.081759 37.0328821,118.342397 C36.9209362,118.399523 36.7857495,118.354893 36.7288895,118.242426 C36.6738036,118.131744 36.7182449,117.993391 36.8284167,117.936265 C36.8959213,117.902346 36.9615632,117.868428 37.0272937,117.834509 C36.8579555,117.664915 36.7397115,117.441766 36.7038747,117.205228 C36.6849805,117.081156 36.76996,116.964226 36.8933489,116.945482 C36.9048806,116.943696 36.9164122,116.942804 36.9276778,116.942804 C37.0375835,116.942804 37.1339173,117.02403 37.1509487,117.136497 C37.1807536,117.333762 37.3057392,117.514066 37.4772063,117.614037 C37.7309031,117.490859 37.9775035,117.374821 38.2206443,117.269495 C38.1334472,116.999037 38.1121579,116.707158 38.1583733,116.426882 C38.1779772,116.315308 38.2739562,116.236759 38.3824426,116.236759 C38.3948613,116.236759 38.40728,116.238544 38.4196987,116.240329 C38.542378,116.261752 38.626027,116.377789 38.604649,116.503646 C38.5708524,116.701802 38.5851339,116.907992 38.6419939,117.099008 C39.0115396,116.956193 39.3756744,116.840155 39.7523165,116.754466 C39.7015772,116.525961 39.7186085,116.283174 39.8051848,116.06538 C39.8404894,115.97612 39.925469,115.921672 40.0153273,115.921672 C40.0431808,115.921672 40.0714777,115.927028 40.099065,115.937739 C40.2150027,115.985046 40.2715966,116.117151 40.2253812,116.233189 C40.1715371,116.369756 40.1639085,116.525068 40.1983261,116.667884 C40.4773039,116.623254 40.7651521,116.596476 41.0671932,116.589335 L41.0671932,116.589335 C41.1423265,116.404567 41.159624,116.197485 41.1148279,116.002898 C41.086531,115.880612 41.1622852,115.758327 41.2839,115.729763 C41.3011975,115.7253 41.3184063,115.723515 41.3352603,115.723515 C41.4380695,115.723515 41.5311213,115.794923 41.5553378,115.90025 C41.6079399,116.127862 41.6009322,116.367078 41.5408788,116.592905 C41.5412337,116.592905 41.5414998,116.592905 41.5418546,116.592905 C41.8064621,116.601831 42.0817143,116.626824 42.3728446,116.667884 L42.6930703,115.850264 C42.7281975,115.761004 42.8133545,115.706556 42.9035677,115.706556 C42.931155,115.706556 42.9591858,115.711911 42.9864183,115.722623 C43.1026221,115.768145 43.1596595,115.901142 43.1137989,116.018072 L42.8301198,116.741969" id="path46" fill="#172C4B"></path>
                        <path d="M83.6442553,8.14852501 C82.7572036,7.78523772 81.8648296,7.4344468 80.9689074,7.08544107 C77.7418133,5.82955601 74.5714905,4.38622542 71.2148869,3.50701662 C62.4651864,1.21750335 53.7193003,2.20293129 45.3112034,5.09941104 C44.1946714,5.48412068 42.9091561,6.2731771 41.90457,6.91584749 C40.7222188,7.67098521 39.7158587,8.81351035 39.4313812,10.1934665 C39.3727471,10.480883 39.3674248,10.8334591 39.6003646,11.0128712 C39.6910212,11.0824939 39.8030559,11.1128422 39.9132277,11.1431905 C40.4857309,11.2967173 41.058234,11.4511367 41.6289631,11.6046636 C41.4725759,11.7171309 41.3125517,11.8269204 41.1489794,11.9358173 C41.2236692,12.0804182 41.1738168,12.2598303 41.0333966,12.3437345 C39.388714,13.3273773 37.8632512,14.3422609 37.2355734,15.8650327 C37.1840357,15.986426 37.1395944,16.1113897 37.1004755,16.2399238 C37.0328821,16.4639658 36.9493219,16.8700978 37.1449168,17.0887842 C37.2036396,17.1530513 37.2836516,17.195896 37.3725342,17.2226739 C37.5325584,17.2744446 37.7227422,17.2726594 37.8792182,17.2583778 C38.8820301,17.1655476 39.8154746,16.5978555 40.6866481,16.0274855 C41.0333966,15.7980879 41.3800564,15.5660124 41.728579,15.3330444 C44.3529214,13.576412 47.0678318,11.759083 50.2291067,11.5046926 L50.2540328,11.5046926 C50.3500118,11.5046926 50.4371203,11.5493225 50.4922949,11.6189451 L50.415831,12.078633 C50.374938,12.1054109 50.3287226,12.1214777 50.2770962,12.1250481 C48.3319692,12.2812527 46.5362218,13.0810203 44.8169382,14.0896557 C44.3457363,14.3672536 43.8799455,14.6609183 43.4176141,14.9608312 C43.0851471,15.3990967 42.8397886,15.8668179 42.5802373,16.4139803 C42.1837252,17.251237 41.9454631,18.154546 41.7089751,19.0507141 C41.515243,19.7826443 41.3196481,20.5270708 41.3463484,21.2839937 C41.3587671,21.665133 41.4334569,22.0569834 41.6521151,22.3676074 C41.8708621,22.6791241 42.2566409,22.8906697 42.6282268,22.8174767 C42.9144784,23.003137 43.2718715,22.7630282 43.5207782,22.5273824 C44.5271384,21.574088 45.12989,20.2780361 45.9121809,19.1301553 C46.6944718,17.9831672 47.803996,16.9040165 49.1836275,16.79869 C49.6192586,16.7665564 50.1917618,16.9843503 50.1508687,17.4226158 C50.1188461,17.7626956 49.7383897,17.9331817 49.4361711,18.0884937 C48.5275641,18.560678 47.9194902,19.4907648 47.6084011,20.4717298 C47.2972234,21.4535873 47.2474598,22.4952489 47.2012444,23.5235215 C47.1816406,23.9296535 47.2189854,24.4348639 47.5887973,24.5973167 C48.1506558,24.8481366 48.5578126,24.0608654 48.8725385,23.5288771 C49.5570763,22.3792112 51.0078493,22.0016423 52.3128798,21.7258296 C56.2191893,20.9028545 60.1254102,20.0780942 64.031631,19.255119 C65.2815756,18.9900175 66.5368424,18.7258085 67.8116244,18.6320858 C71.2308539,18.3803732 74.5342344,19.3568752 77.6637527,20.8492986 C79.0165066,18.6463673 82.2418265,13.1042278 83.6442553,8.14852501" id="path48" fill="#F0A258"></path>
                        <path d="M50.4922949,11.6189451 C50.4371203,11.5493225 50.3500118,11.5046926 50.2540328,11.5046926 L50.2291067,11.5046926 C47.0678318,11.759083 44.3529214,13.576412 41.728579,15.3330444 C41.3800564,15.5660124 41.0333966,15.7980879 40.6866481,16.0274855 C39.8154746,16.5978555 38.8820301,17.1655476 37.8792182,17.2583778 C37.7227422,17.2726594 37.5325584,17.2744446 37.3725342,17.2226739 C37.2836516,17.195896 37.2036396,17.1530513 37.1449168,17.0887842 C36.9493219,16.8700978 37.0328821,16.4639658 37.1004755,16.2399238 C37.1395944,16.1113897 37.1840357,15.986426 37.2355734,15.8650327 C37.8632512,14.3422609 39.388714,13.3273773 41.0333966,12.3437345 C41.1738168,12.2598303 41.2236692,12.0804182 41.1489794,11.9358173 C40.4644416,12.3955052 39.726592,12.8355559 39.0758509,13.3041697 C38.4196987,13.7745687 37.7547648,14.2583567 37.2693701,14.9054901 C37.148465,15.0688355 37.0382044,15.2437847 36.9475478,15.4276598 C36.6738036,15.9775 36.5546726,16.6014259 36.7164708,17.18697 C36.798257,17.493131 37.0809603,17.8269626 37.3672119,17.7412732 C37.3831788,17.7377028 37.3991458,17.730562 37.4152014,17.7234213 C38.327268,17.2976521 39.3176612,17.360134 40.1372969,16.7754824 C40.5017865,16.5175217 40.827157,16.2095754 41.1898725,15.9507221 C42.0521754,15.329474 43.0958805,14.9965351 43.9457647,14.3601129 C43.7430734,14.5564844 43.5705418,14.7573189 43.4176141,14.9608312 C43.8799455,14.6609183 44.3457363,14.3672536 44.8169382,14.0896557 C46.5362218,13.0810203 48.3319692,12.2812527 50.2770962,12.1250481 C50.3287226,12.1214777 50.374938,12.1054109 50.415831,12.078633 L50.4922949,11.6189451" id="path50" fill="#F0A258"></path>
                        <path d="M90.8506632,9.0732563 C89.5316174,8.41808954 87.9455689,7.76560057 86.1732396,7.28270518 C85.4706947,7.09079666 84.7397641,6.92655867 83.982222,6.79891719 C83.9325471,7.03010001 83.8775499,7.26306803 83.8190045,7.49692864 C83.7675555,7.69776314 83.7143324,7.89949023 83.656674,8.10210993 C83.6531258,8.11817669 83.6478035,8.13245825 83.6442553,8.14852501 C82.2418265,13.1042278 79.0165066,18.6463673 77.6637527,20.8492986 C77.2814335,21.4714393 77.0481389,21.8275858 77.0481389,21.8275858 L78.1507441,22.377426 L83.2424209,24.9177592 C83.3852362,24.7115692 83.5253903,24.5009161 83.6673186,24.2840148 C84.7876649,22.5809383 85.9399451,20.5984787 87.0407762,18.4392847 C88.342081,15.886455 89.4003337,13.4193148 90.1587629,11.2503022 C90.4275396,10.4844534 90.6590601,9.75520099 90.8506632,9.0732563" id="path52" fill="#7B88E8"></path>
                        <path d="M6.36856953,84.1844657 C6.4247199,89.0634051 6.48078157,93.9423445 6.53693194,98.8212839 C6.5636322,101.144716 6.62687898,103.600252 7.84755082,105.572893 C8.34891244,106.38248 9.02280561,107.067995 9.69998087,107.73655 C11.935706,109.942159 14.4099593,112.118313 17.4534336,112.860062 C19.007903,113.238523 20.6271272,113.218886 22.226304,113.196571 C23.8456168,113.175149 25.5947054,113.108204 26.8663827,112.099568 C28.1338908,111.094503 28.6105037,109.396782 28.9001261,107.799925 C29.4758226,104.623169 29.6028484,101.384825 29.7285437,98.1589764 C29.7797265,96.8459651 29.7925001,95.4070975 28.9796946,94.3779322 C28.8019295,94.1529976 28.5593208,93.9441297 28.2736015,93.9441297 C27.8758475,93.9441297 27.6012163,94.3333024 27.4112098,94.6849859 C26.4576292,96.4496517 25.828,98.3910518 25.5633924,100.382437 C25.1927822,100.361015 25.0091625,99.9298903 24.9093692,99.5692808 C24.6601077,98.6704349 24.4050803,97.753737 23.8866873,96.9798547 C23.3682943,96.2059725 22.8410308,95.4115605 21.8440734,95.3214081 C21.9933642,95.1036142 21.9625835,94.8126274 21.9271901,94.5502036 C21.4026765,90.650444 20.7699425,85.7822157 20.9521429,81.8512152 C20.9734321,81.3924199 21.4557222,81.8333632 21.2636755,81.4174127 C21.0640888,80.9845028 20.6571982,80.6810195 20.2276878,80.4783998 C18.6246967,79.7232621 16.7390909,80.1686684 15.0459753,80.6890529 C12.0068475,81.6227102 9.25885006,82.8553877 6.36856953,84.1844657" id="path56" fill="#F0A258"></path>
                        <path d="M14.8454129,101.45177 C14.7850047,100.58952 14.5876357,99.7415522 14.395589,98.9078659 C14.3902667,98.8864436 14.3849444,98.8650212 14.3813962,98.8435989 L13.6435466,98.3919444 L5.38296639,93.339841 C5.18027508,93.2166625 4.95629453,93.1577511 4.73754758,93.1577511 C4.31619802,93.1577511 3.90726719,93.3719746 3.67255331,93.7602546 C3.31516019,94.3511543 3.50188457,95.1214662 4.08866926,95.4811831 L13.7163735,101.367865 C13.8799459,101.466051 14.0560256,101.524963 14.2320167,101.542815 C14.4418044,101.566022 14.6534549,101.533889 14.8454129,101.45177" id="path58" fill="#172C4B"></path>
                        <path d="M33.3293526,110.832079 C33.2493405,110.53663 33.0609308,110.26885 32.7782274,110.096579 L32.1096565,109.686877 L29.156484,107.882044 C29.1422025,107.873118 29.1297838,107.865977 29.1155022,107.858836 C28.9253184,107.750832 28.7173047,107.699061 28.5128393,107.699061 C28.4025788,108.457769 28.2496511,109.298597 27.933151,110.064445 L28.4666239,110.390244 L30.2285747,111.466716 L31.4856157,112.236136 C31.5424757,112.270054 31.5994244,112.301295 31.6580585,112.32361 C32.157646,111.767522 32.7195046,111.266775 33.3293526,110.832079" id="path60" fill="#172C4B"></path>
                        <path d="M48.2576343,108.719301 C48.1247539,108.719301 47.9930267,108.729119 47.8631624,108.747864 C47.341576,108.823734 46.923952,109.056703 46.6871092,109.405708 C46.4312835,109.783277 46.3779717,110.297413 46.532851,110.892776 C46.6814321,111.463146 46.9667079,111.99692 47.3578977,112.436078 C47.4719726,112.563719 47.6674788,112.57443 47.7945933,112.460178 C47.9217078,112.345033 47.9325298,112.148661 47.8185437,112.020127 C47.4926409,111.654162 47.254911,111.209648 47.1311673,110.734786 C47.0557679,110.444692 47.006093,110.040345 47.198051,109.756499 C47.3839771,109.482472 47.7497085,109.393212 47.9511579,109.363756 C48.869079,109.230759 49.6817958,109.723473 50.0842511,110.029634 C50.7315327,110.520563 51.24895,111.188226 51.7492471,111.834467 C51.8543628,111.970142 52.0487158,111.994242 52.1832815,111.888915 C52.3180247,111.782696 52.3421525,111.587217 52.2372143,111.451542 C51.7120797,110.774061 51.1691153,110.072479 50.4565467,109.532457 C49.7562194,109.000469 48.9890084,108.719301 48.2576343,108.719301" id="path62" fill="#172C4B"></path>
                        <path d="M60.7925618,111.763059 C60.7529993,111.763059 60.7129045,111.771092 60.6740517,111.787159 C60.5163339,111.853211 60.4416441,112.035301 60.5070198,112.194184 C60.7203557,112.710998 60.8825088,113.251912 60.9890437,113.80086 C61.0216872,113.969561 61.1835741,114.081135 61.3517591,114.047217 C61.5194119,114.014191 61.6287854,113.850845 61.5960532,113.682144 C61.4816235,113.092137 61.3074953,112.511056 61.0782811,111.954967 C61.0288723,111.835359 60.9138217,111.763059 60.7925618,111.763059" id="path64" fill="#172C4B"></path>
                        <path d="M29.8178698,96.3943106 C29.7787508,95.6927287 29.6755867,95.1759146 29.4817659,94.7153342 C29.2328592,94.1235419 28.8203801,93.7709658 28.3510411,93.7477582 C27.780312,93.7209803 27.323303,94.1378234 26.9784173,94.9822209 C26.3400949,96.5424818 25.833411,98.1616542 25.4635991,99.8076045 C25.3586609,99.4211096 25.2395299,99.0292592 25.106206,98.6338384 C24.7292977,97.5082726 24.1478353,96.1077867 22.9939585,95.27053 C22.7379554,95.0839771 22.4818636,94.9518726 22.2276345,94.8697536 C21.9217791,93.8780775 21.8045109,92.8498049 21.6907021,91.6206977 C21.6569055,91.2538401 21.6231088,90.8869824 21.5910862,90.5183395 C21.5893121,90.5183395 21.5893121,90.5183395 21.5893121,90.5183395 C21.4009024,88.3680715 21.23733,86.1999515 21.1039175,84.0452205 C20.8976779,84.0291537 20.6896643,84.013087 20.4798766,83.9988054 C20.6114263,86.0973028 20.7696764,88.2163299 20.9528525,90.3148272 C20.9918828,90.7709447 21.0328646,91.2252769 21.0755318,91.677824 C21.1608662,92.5989849 21.2639416,93.7156247 21.5555155,94.782279 C21.0861764,94.8108422 20.6648269,95.0571991 20.4389835,95.4187012 C20.351875,95.2419669 20.2629924,95.0643399 20.170473,94.8840352 C19.918018,94.3922138 19.6370888,93.8762923 19.2281579,93.448738 C18.7498597,92.951561 18.1702601,92.6686075 17.5924346,92.6507556 L17.5444451,92.6507556 C17.0429948,92.6507556 16.5451814,92.8765828 16.1718213,93.275574 C15.8624177,93.6031574 15.6775561,94.0110746 15.6384371,94.4243473 C15.377023,94.2788539 15.1103753,94.2038757 14.8418647,94.2038757 C14.7583045,94.2038757 14.6729701,94.2110165 14.5876357,94.225298 C13.1385481,94.4796884 13.2399381,95.4972498 13.3376912,96.4835704 L13.3590691,96.7067198 C13.4123809,97.2726268 13.5208673,97.8376412 13.6435466,98.3919444 C13.6915361,98.612416 13.7430738,98.8319951 13.7928374,99.0488964 C13.9902064,99.9004346 14.1787049,100.72341 14.2320167,101.542815 C14.2675875,102.09444 14.2408872,102.641602 14.1128856,103.19412 C14.0702185,103.373533 14.0169066,103.559193 13.904872,103.700223 C13.6648358,103.999244 13.1546037,104.113496 12.6531534,104.207219 C12.4842587,104.237567 12.3739982,104.40002 12.4042467,104.568721 C12.4344951,104.738315 12.5962934,104.850782 12.765188,104.818648 C13.3803583,104.706181 14.0115843,104.556225 14.3849444,104.090289 C14.5769911,103.852858 14.6587773,103.57526 14.7156373,103.335151 C14.8632427,102.700514 14.8880801,102.072125 14.8454129,101.45177 C14.7850047,100.58952 14.5876357,99.7415522 14.395589,98.9078659 C14.3902667,98.8864436 14.3849444,98.8650212 14.3813962,98.8435989 C14.2125015,98.1205947 14.0436069,97.3761681 13.9760136,96.6495936 L13.9528615,96.4210885 C13.8426897,95.3133747 13.848012,94.9857913 14.694348,94.8394053 C15.3308076,94.7260454 16.0438198,95.3776417 16.6483455,96.6246008 C18.0813775,99.5835624 18.445867,104.659766 16.8119178,106.145941 C16.6856904,106.261086 16.6767311,106.457458 16.7905399,106.586884 C16.9061227,106.713633 17.1017176,106.722559 17.2279451,106.608307 C19.2175133,104.795441 18.5952466,99.2247381 17.2030189,96.3505733 C16.8990263,95.7230771 16.5630111,95.2259001 16.2073921,94.8697536 C16.2394147,94.8161977 16.2553816,94.7519307 16.2500593,94.6849859 C16.2198108,94.3440135 16.3549088,93.9860818 16.6216452,93.7031283 C16.8866076,93.4201748 17.2368156,93.266648 17.5746049,93.2737888 C17.9835357,93.2862852 18.4244891,93.5076494 18.7836563,93.8816479 C19.133953,94.2467204 19.3899562,94.7189046 19.6211218,95.1705591 C20.8870333,97.6376993 21.587538,99.830812 21.7582068,101.873968 C21.9663091,104.344679 21.390169,106.6333 20.1331281,108.338161 C20.1207094,108.341732 20.1082906,108.343517 20.0958719,108.347087 C19.9535888,108.389932 19.861158,108.50954 19.8576098,108.650571 C19.8540616,108.794279 19.9411701,108.917457 20.0833645,108.969228 C20.2203253,109.017428 20.408735,108.999576 20.526092,108.847835 C21.9449312,107.007298 22.6009946,104.510702 22.3752399,101.822198 C22.2240863,100.021828 21.6836057,98.1223799 20.7305574,96.0417345 C20.8105695,96.0078158 20.8781628,95.9426561 20.9084113,95.8551815 C21.0079385,95.5624095 21.3475018,95.4026345 21.6319793,95.3972789 C21.6977986,95.3954937 21.7636178,95.4026345 21.8311224,95.4115605 C21.886297,95.4472644 21.9520276,95.4633311 22.021395,95.4561903 C22.2169899,95.516887 22.4214553,95.6231061 22.6330172,95.7748477 C23.6429255,96.5103483 24.1727615,97.7947965 24.5211954,98.8319951 C25.2395299,100.972445 25.534652,102.976327 25.3977799,104.7883 C25.2395299,106.913575 24.4643354,108.84962 23.217939,110.235824 C23.1023562,110.363466 23.1130895,110.559837 23.239317,110.674982 C23.3655444,110.79102 23.5611393,110.780309 23.6767222,110.652667 C25.0136865,109.164707 25.8458297,107.098343 26.0147243,104.834715 C26.1071551,103.621675 26.0129502,102.328301 25.7391174,100.97423 C25.8155812,100.931385 25.8743041,100.858192 25.8920451,100.762684 C26.263631,98.8703768 26.8219414,97.0039549 27.5509205,95.2187593 C27.7091705,94.8304793 27.9687218,94.3707915 28.304737,94.3707915 L28.3207926,94.3707915 C28.5803439,94.3832878 28.7973168,94.6814155 28.9128996,94.9590134 C29.076472,95.3490786 29.1653545,95.8016257 29.2009253,96.4282293 C29.2364074,97.0664367 29.213344,97.7233887 29.1884179,98.3580257 C29.0782461,101.353584 28.9644373,104.44822 28.546636,107.459845 C28.5359027,107.538394 28.525258,107.618728 28.5128393,107.699061 C28.4025788,108.457769 28.2496511,109.298597 27.933151,110.064445 C27.9136359,110.114431 27.8922579,110.164416 27.8691946,110.214402 C27.481553,111.077544 26.9001793,111.738959 26.2174156,112.09332 C26.110792,112.062972 26.0005315,112.086179 25.9187453,112.154017 C24.8928701,112.649409 23.634055,112.880591 21.9698573,112.880591 L21.9093604,112.880591 C20.1029683,112.875236 18.2325311,112.86988 16.4918696,112.326288 C13.5083599,111.391738 11.1898729,108.958517 9.25193106,106.752908 C8.75048074,106.180753 8.30775324,105.65769 7.98779369,105.067683 C7.502399,104.175085 7.31567462,103.158416 7.19476948,102.283671 C6.85343198,99.7772561 6.94586277,97.1869374 7.03474535,94.6796303 C7.08628305,93.2595072 7.13790946,91.8099285 7.11120921,90.3612423 C7.09337947,89.3195807 7.03474535,88.2770265 6.90674379,87.2442909 C6.90142148,87.2050166 6.88891405,87.1693127 6.87294712,87.1371792 L6.60807349,85.6429705 C6.55644708,85.355554 6.50490937,85.0618894 6.45691988,84.7664395 L5.86836108,84.8914032 C5.86303877,84.8914032 5.85594235,84.8931884 5.85062004,84.8949736 C5.89683544,85.1832826 5.94837314,85.4698065 5.99822545,85.75276 L6.29334754,87.4129919 C6.29689575,87.4344142 6.30221806,87.4540514 6.31108858,87.4736885 C6.43376783,88.5233835 6.48539424,89.5864674 6.49781296,90.6513366 C6.51200579,91.992911 6.46401629,93.3380558 6.4178009,94.6582079 C6.32714421,97.1896152 6.23285062,99.8093896 6.58314733,102.367575 C6.70227838,103.245891 6.90851789,104.378598 7.44545029,105.365811 C7.7975211,106.013837 8.26153784,106.562784 8.78959972,107.164395 C10.7827162,109.434271 13.1723447,111.939793 16.3086934,112.919866 C18.1382375,113.490236 20.0549788,113.497376 21.9075863,113.502732 C23.6571183,113.500947 25.0012678,113.270657 26.1125661,112.752057 C26.1853931,112.766339 26.2618569,112.759198 26.3329985,112.72885 C27.2113571,112.332536 27.9580772,111.530091 28.4328273,110.470577 C28.445246,110.443799 28.4558906,110.417022 28.4666239,110.390244 C28.8257024,109.558342 28.9964599,108.665745 29.1155022,107.858836 C29.1297838,107.752617 29.1457507,107.647291 29.1600322,107.545534 C29.5796077,104.503561 29.6951905,101.392858 29.8072251,98.3830184 C29.8302885,97.7323146 29.8552146,97.0610811 29.8178698,96.3943106" id="path66" fill="#172C4B"></path>
                        <path d="M59.5788976,35.880645 C59.3797545,36.6679162 59.1610076,37.4498319 58.9228342,38.2263919 C56.4549677,46.3927689 52.1469124,54.0075205 46.3915436,60.2780198 C43.2231724,63.7314805 39.3613928,67.3973796 39.4734275,72.0951216 C39.4858462,72.6163987 39.5587618,73.1617759 39.8627544,73.5839747 C40.7375648,74.8023706 42.6542174,74.1739818 43.8774617,73.3099472 C52.1469124,67.4687874 55.1356557,56.7308362 57.4452722,46.831927 C58.0533461,44.2264341 58.4409877,41.559352 58.937027,38.925296 L58.937027,38.9199404 C59.128985,37.9005938 59.3370873,36.8857101 59.5788976,35.880645" id="path68" fill="#D8D93B"></path>
                        <path d="M59.5788976,35.880645 C59.3797545,36.6679162 59.1610076,37.4498319 58.9228342,38.2263919 C58.9299306,38.4691785 58.9352529,38.7003614 58.937027,38.9199404 C59.128985,37.9005938 59.3370873,36.8857101 59.5788976,35.880645" id="path70" fill="#D8D93B"></path>
                        <path d="M61.8368877,32.114775 C61.5097431,30.4108059 61.0545968,28.8228745 60.3576403,27.4786222 C59.3797545,28.2748194 58.9956611,30.0876855 58.8694337,32.132627 C59.7477923,32.1219158 60.6545365,32.114775 61.5791105,32.114775 L61.8368877,32.114775" id="path72" fill="#D8D93B"></path>
                        <polyline id="path74" fill="#FCECEF" points="76.4564754 33.1028808 72.6084451 9.11967138 50.9171927 9.06075993 50.4922949 11.6189451 50.415831 12.078633 49.6886261 16.4675362 49.5854619 17.086999 49.5019017 17.5877464 49.3507481 18.5071221 48.5169195 23.5306623 48.3177764 24.7276359 46.9416044 33.0243322 76.4564754 33.1028808"></polyline>
                        <path d="M83.8190045,7.49692864 L76.0617374,4.61651565 C73.8795902,3.80603688 71.6220437,2.96699498 69.2979682,2.46089204 C67.0221484,1.96371509 64.6859203,1.79144372 62.4171969,1.79144372 C60.3227792,1.79144372 58.2851327,1.93872235 56.4040509,2.11367151 C50.8904924,2.62334484 44.6657845,3.6775028 40.2884506,7.60939596 C39.8119264,8.03695029 39.2909609,8.56715336 39.0456024,9.24820546 C38.7611249,10.0354767 38.9478493,10.9066521 39.4972004,11.3690178 C40.0075213,11.7965721 40.7542414,11.8751207 41.7143862,11.6046636 C42.6637976,11.3368842 43.5528008,10.8995113 44.4151037,10.4755274 C44.7209592,10.325571 45.0373705,10.170259 45.3503223,10.0247655 C49.7188745,8.00303157 54.6989601,7.52013618 59.373279,8.66533912 C59.5386255,8.70639861 59.705746,8.60285727 59.7466391,8.43594149 C59.7875322,8.26991831 59.6844568,8.10210993 59.5191103,8.06015783 C54.7113789,6.88192878 49.5872361,7.37910574 45.090771,9.45975113 C44.7724969,9.60613716 44.4524486,9.76412697 44.143045,9.91586859 C43.3074423,10.3273562 42.4433652,10.7531253 41.5472656,11.0057305 C40.7951345,11.2163835 40.2385982,11.1788944 39.8937125,10.8888002 C39.4989745,10.5603242 39.4598556,9.92122417 39.625202,9.46153632 C39.8243451,8.9108035 40.2599762,8.46807501 40.6991555,8.0735468 C44.9431656,4.26215433 51.0487424,3.2356669 56.4591368,2.73224176 C60.3351979,2.37341746 64.8744188,2.13152347 69.1666846,3.06875112 C71.4490686,3.56592808 73.6844388,4.3969366 75.8461838,5.19938199 L83.656674,8.10210993 C83.7143324,7.89949023 83.7675555,7.69776314 83.8190045,7.49692864" id="path76" fill="#172C4B"></path>
                        <path d="M50.4922949,11.6189451 C50.4371203,11.5493225 50.3500118,11.5046926 50.2540328,11.5046926 L50.2291067,11.5046926 C47.0678318,11.759083 44.3529214,13.576412 41.728579,15.3330444 C41.3800564,15.5660124 41.0333966,15.7980879 40.6866481,16.0274855 C39.8154746,16.5978555 38.8820301,17.1655476 37.8792182,17.2583778 C37.7227422,17.2726594 37.5325584,17.2744446 37.3725342,17.2226739 C37.2836516,17.195896 37.2036396,17.1530513 37.1449168,17.0887842 C36.9493219,16.8700978 37.0328821,16.4639658 37.1004755,16.2399238 C37.1395944,16.1113897 37.1840357,15.986426 37.2355734,15.8650327 C37.8632512,14.3422609 39.388714,13.3273773 41.0333966,12.3437345 C41.1738168,12.2598303 41.2236692,12.0804182 41.1489794,11.9358173 C41.1472053,11.9304617 41.1436571,11.923321 41.1400202,11.9179654 C41.0529117,11.7697941 40.8627278,11.7207013 40.7168965,11.8090685 C39.1700558,12.7355849 37.6161186,13.7620724 36.8356018,15.2580662 C36.7021893,15.5124566 36.5920174,15.7784507 36.5083685,16.0614042 C36.325281,16.6719411 36.3856892,17.1709032 36.6862223,17.5056274 C36.8515688,17.6877173 37.0809603,17.8091106 37.3654378,17.8590961 C37.5361066,17.8921222 37.7280645,17.899263 37.9361669,17.8796259 C39.0793991,17.7698363 40.0893074,17.1619773 41.024526,16.54787 C41.37296,16.319365 41.7214826,16.0846118 42.0716906,15.8507511 C42.4308578,15.6106423 42.7935732,15.3687483 43.1562887,15.1313173 C43.2433972,15.0741911 43.3305056,15.0161722 43.4176141,14.9608312 C43.8799455,14.6609183 44.3457363,14.3672536 44.8169382,14.0896557 C46.5362218,13.0810203 48.3319692,12.2812527 50.2770962,12.1250481 C50.3287226,12.1214777 50.374938,12.1054109 50.415831,12.078633 L50.4922949,11.6189451" id="path78" fill="#172C4B"></path>
                        <path d="M49.6886261,16.4675362 C48.5987056,16.4336175 47.4412806,16.8968757 46.4793617,17.75734 C45.5352726,18.5999523 44.8880797,19.6755326 44.3279953,20.710946 L44.2817799,20.7993132 C44.0132693,21.2982753 43.7358883,21.8150894 43.319861,22.153384 C42.9518233,22.4524042 42.3472975,22.6184274 41.9472372,22.3372591 C41.4991874,22.0230647 41.4636166,21.2929197 41.515243,20.7359387 C41.7339013,18.3107506 42.9020597,15.9971372 44.7209592,14.3904612 C44.8080676,14.3119126 44.8418643,14.1967675 44.8169382,14.0896557 C44.8080676,14.0396703 44.7849156,13.99147 44.7493448,13.9504105 C44.6889366,13.8807879 44.6036022,13.845084 44.5164937,13.845084 C44.4453522,13.845084 44.3724366,13.8700767 44.3138024,13.9218474 C43.8941383,14.2922754 43.5083595,14.6966222 43.1562887,15.1313173 C41.8850549,16.7058598 41.0813861,18.6552933 40.8982099,20.6788125 C40.804005,21.7276148 41.0369448,22.4577598 41.5917069,22.847825 C42.2779301,23.3289352 43.1704815,23.0763301 43.7092767,22.6362794 C44.2195088,22.2194362 44.5289125,21.6490662 44.8258087,21.0956556 L44.8720241,21.008181 C45.4054083,20.0227531 46.0170304,19.0025139 46.8900667,18.2223834 C47.7097024,17.4913458 48.6769436,17.086999 49.5854619,17.086999 L49.6886261,16.4675362" id="path80" fill="#172C4B"></path>
                        <path d="M49.5019017,17.5877464 C47.6510683,18.8311351 46.7193979,21.6329995 46.918541,23.651163 C46.952249,23.988565 47.0429944,24.4669974 47.4448288,24.7044284 C47.7257581,24.8731294 48.0457176,24.851707 48.3177764,24.7276359 L48.5169195,23.5306623 C48.4528743,23.7172153 48.3710882,23.8993052 48.2484089,24.0305171 C48.1239556,24.1626215 47.9017491,24.2554517 47.759466,24.1697623 C47.640335,24.0983545 47.5657339,23.9082312 47.5354855,23.5895738 C47.3719132,21.9454087 48.058225,19.7326588 49.3507481,18.5071221 L49.5019017,17.5877464" id="path82" fill="#172C4B"></path>
                        <path d="M66.2606145,15.3205481 C65.7420441,15.8837773 65.2778499,16.5193069 64.62977,16.9254388 C63.9817787,17.3306782 63.0679381,17.4413604 62.4943704,16.9343648 C62.0407322,16.534481 61.9231091,15.8659253 61.9691471,15.2598514 C62.053417,14.1503524 62.5899059,13.110476 63.3163125,12.2714341 C64.0427192,11.4323922 64.9524794,10.7754402 65.8868996,10.1800775 C66.5141339,9.78019373 67.2007119,9.35353199 67.4590214,8.65284275 C67.6703171,8.08068758 67.5543794,7.41034666 67.8366393,6.86943241 C68.1768236,6.21694344 68.9768555,5.96790867 69.7051249,5.89293045 C71.2388373,5.73672585 72.8781089,6.12143548 74.0046645,7.17916384 C75.0646913,8.17441035 76.0457705,10.9289671 74.5085099,12.0018696 C73.8991054,12.4276387 72.8062577,12.2053819 72.1045998,12.2999972 C71.0658622,12.4410277 70.0510751,12.7516517 69.1081392,13.2113395 C68.041903,13.731724 67.0666784,14.4449097 66.2606145,15.3205481" id="path84" fill="#F0A258"></path>
                        <path d="M29.5401428,86.7471139 C29.5275519,86.6578542 29.496335,86.5677018 29.4462838,86.4802272 C29.5088218,86.7221212 29.5463861,86.8488701 29.5463861,86.820307 C29.544305,86.7953142 29.5422239,86.7703215 29.5401428,86.7471139" id="path86" fill="#B08A37"></path>
                        <path d="M39.8705605,81.196941 C39.586083,80.3311212 39.3300799,79.4420938 39.1024624,78.5334293 C38.7931475,77.3007518 38.5335075,76.0341555 38.3166233,74.7443518 C36.657748,64.9007836 37.4667391,53.7611635 37.3707601,46.4936325 C37.368986,46.3168981 37.3654378,46.1401637 37.3654378,45.9625368 C37.2534032,37.2141861 37.2516291,28.4613724 37.345834,19.7130217 C37.3511563,18.9953731 37.3600268,18.2812949 37.368986,17.5645388 L37.368986,17.424401 C37.368986,17.3565636 37.3707601,17.2905113 37.3725342,17.2226739 C37.2836516,17.195896 37.2036396,17.1530513 37.1449168,17.0887842 C36.9493219,16.8700978 37.0328821,16.4639658 37.1004755,16.2399238 C37.1395944,16.1113897 37.1840357,15.986426 37.2355734,15.8650327 C35.1286483,12.6338288 32.202176,8.80993996 28.6888304,6.54541942 C28.5376768,6.44901886 28.3866119,6.3535109 28.2336841,6.26246593 C25.7854215,4.80128339 23.0633259,4.12112389 20.1438614,4.9155359 C16.3745126,5.94380853 12.4362692,9.64898186 10.446701,13.03282 C0.660657993,29.6601312 -0.886182752,55.2571573 0.379728721,75.8618842 C0.564678999,78.8681534 0.980706244,85.3912579 1.28833577,87.0318526 C2.01545204,85.4001839 8.00376062,84.0255833 15.3095184,83.8791973 C22.6223725,83.7345965 28.6639042,84.8771216 29.4462838,86.4802272 C29.1191391,85.0654597 27.9847774,79.7196917 27.8353979,78.8860054 C26.6192501,72.0531695 26.2423418,65.1453554 27.2949173,58.2589636 C27.3553256,57.8492612 27.442434,57.4913295 27.5455981,57.1914167 C27.5455981,57.1914167 27.5455981,57.1914167 27.5455981,57.1896315 C27.7660305,56.5612427 28.0718859,56.1818886 28.4399237,56.0926288 C28.9412853,55.9676652 29.5617779,56.3702267 30.2498639,57.394929 C31.9105134,59.8709952 32.9951115,62.6728596 33.9143632,65.5586282 C34.0992248,66.1370315 34.8815157,68.328359 35.912802,71.0945195 C35.9145761,71.0963047 35.9145761,71.0963047 35.9145761,71.0963047 C37.0827344,74.2266451 38.5690783,78.0951638 39.8705605,81.196941" id="path88" fill="#B08A37"></path>
                        <path d="M35.6474848,41.9030021 C35.5687146,41.9030021 35.4900331,41.9333505 35.4297136,41.9931545 C31.0064303,46.4070505 28.0175984,52.2455325 27.013722,58.431235 C26.9862233,58.6008286 27.1005643,58.7614962 27.2691928,58.7891667 C27.4379101,58.8168372 27.5966036,58.7016921 27.6241909,58.5320985 C28.6070442,52.4740375 31.5337826,46.7578414 35.865256,42.435883 C35.986516,42.3144897 35.987403,42.1172256 35.8670301,41.9958323 C35.8066219,41.9342431 35.7270533,41.9030021 35.6474848,41.9030021" id="path90" fill="#172C4B"></path>
                        <path d="M39.8705605,81.196941 C39.586083,80.3311212 39.3300799,79.4420938 39.1024624,78.5334293 C38.7931475,77.3007518 38.5335075,76.0341555 38.3166233,74.7443518 C36.657748,64.9007836 37.4667391,53.7611635 37.3707601,46.4936325 C37.368986,46.3168981 37.3654378,46.1401637 37.3654378,45.9625368 C37.2534032,37.2141861 37.2516291,28.4613724 37.345834,19.7130217 C37.3511563,19.0935588 37.3582527,18.478559 37.3654378,17.8590961 C37.3654378,17.8198218 37.3654378,17.7805475 37.3672119,17.7412732 C37.3672119,17.6823618 37.368986,17.6234503 37.368986,17.5645388 L37.368986,17.424401 C37.368986,17.3565636 37.3707601,17.2905113 37.3725342,17.2226739 C37.2836516,17.195896 37.2036396,17.1530513 37.1449168,17.0887842 C36.9493219,16.8700978 37.0328821,16.4639658 37.1004755,16.2399238 C37.1395944,16.1113897 37.1840357,15.986426 37.2355734,15.8650327 C37.1413686,15.7195393 37.0453896,15.5749384 36.9475478,15.4276598 C36.911977,15.3723187 36.872858,15.3151925 36.8356018,15.2580662 C34.7642474,12.1670002 31.9852032,8.66890951 28.6888304,6.54541942 C28.5376768,6.44901886 28.3866119,6.3535109 28.2336841,6.26246593 C29.821418,19.7772887 33.7116719,52.8632101 35.912802,71.0945195 C35.9145761,71.0963047 35.9145761,71.0963047 35.9145761,71.0963047 C37.0827344,74.2266451 38.5690783,78.0951638 39.8705605,81.196941" id="path92" fill="#172C4B"></path>
                        <path d="M67.8969588,6.34279973 C67.8581059,6.34279973 67.8187208,6.34994051 67.7803115,6.36600727 C67.6223276,6.43027431 67.5462185,6.61236425 67.6108846,6.77124666 C67.9888573,7.70401132 67.3710258,8.78316202 66.59113,9.43922138 C66.1813121,9.78376412 65.7267868,10.0604694 65.2452951,10.3541341 C64.7405627,10.6611877 64.2186215,10.9798451 63.7554918,11.3815141 C62.5298525,12.4463833 61.8114293,14.0548444 61.833783,15.6838354 C61.8444277,16.4595028 62.0612231,17.027195 62.4783148,17.3726303 C63.1263061,17.908189 64.061436,17.730562 64.6561154,17.3387116 C65.1322848,17.0254098 65.483025,16.5889295 65.8220562,16.1667307 C65.9010925,16.0676524 65.9801288,15.9694666 66.0604957,15.8730661 C68.1713239,13.3398736 71.6380106,11.9982992 74.8908292,12.457987 L74.9609062,12.4678056 C75.6031317,12.5588506 76.4023652,12.6722105 76.964756,12.1661076 C77.0924915,12.0509624 77.1031361,11.8545909 76.9887064,11.7260569 C76.8751638,11.5984154 76.6800124,11.5877042 76.552277,11.7019567 C76.2045527,12.0152585 75.6155504,11.9313543 75.0469503,11.8510205 L74.9768732,11.841202 C71.5173716,11.3538436 67.8309621,12.7793222 65.5864552,15.4731823 C65.5038707,15.5722606 65.4223507,15.6740168 65.3409193,15.7748803 C65.0176777,16.1783345 64.7122658,16.5585812 64.3176165,16.8183271 C63.893251,17.0977102 63.2599847,17.2128553 62.8709239,16.8915201 C62.6010828,16.6683707 62.4602189,16.2586683 62.4522355,15.6749094 C62.4324542,14.2271158 63.0706879,12.7989594 64.1597213,11.8528057 C64.5833772,11.4850555 65.0605223,11.1940686 65.5656095,10.8861224 C66.0457706,10.5942429 66.5419873,10.2916522 66.9876421,9.91676119 C67.9402469,9.11610099 68.6793384,7.76024498 68.1834765,6.53649344 C68.1346886,6.41599275 68.0190171,6.34279973 67.8969588,6.34279973" id="path94" fill="#172C4B"></path>
                        <path d="M21.4559883,84.0755688 C21.3386313,84.0648576 21.2212744,84.0541465 21.1039175,84.0452205 C20.8976779,84.0291537 20.6896643,84.013087 20.4798766,83.9988054 C18.8761758,83.8881233 17.1319661,83.8434934 15.3095184,83.8791973 C11.9526486,83.9470347 8.87493409,84.2728329 6.45691988,84.7664395 L5.86836108,84.8914032 C5.86303877,84.8914032 5.85594235,84.8931884 5.85062004,84.8949736 C5.67285488,84.9342479 5.49854923,84.9762 5.32965458,85.0190447 L5.94659904,89.6792976 L6.10662316,90.8869824 C6.22930241,90.8030782 6.35907808,90.7245296 6.49781296,90.6513366 C6.68808555,90.5451174 6.89432507,90.4487169 7.11120921,90.3612423 C10.8734616,88.8277593 18.2520463,89.591823 20.9528525,90.3148272 C21.2088557,90.3844498 21.4239657,90.4522873 21.5893121,90.5183395 C21.5893121,90.5183395 21.5893121,90.5183395 21.5910862,90.5183395 C21.7564327,90.5843917 21.8720155,90.6495514 21.9307383,90.7084628 C22.0196209,90.0818592 21.4559883,84.0755688 21.4559883,84.0755688" id="path96" fill="#7B88E8"></path>
                        <path d="M58.7220057,116.882107 C58.5662394,116.882107 58.4322059,117.000823 58.4149971,117.159705 C58.2900115,118.314727 57.4425223,119.391199 56.3539325,119.777694 C56.1929326,119.834821 56.1083966,120.012447 56.1652566,120.174008 C56.2221166,120.33646 56.3986399,120.421257 56.5597285,120.364131 C57.8851611,119.893732 58.877772,118.633384 59.0298126,117.227542 C59.0482633,117.056164 58.9255841,116.902637 58.7558024,116.883892 C58.7445368,116.883 58.7331825,116.882107 58.7220057,116.882107" id="path98" fill="#172C4B"></path>
                        <path d="M50.1184026,130.470123 C50.0391889,130.470123 49.9597978,130.500471 49.8993895,130.56206 C48.8773286,131.593011 47.9008621,132.618606 47.1886483,133.824505 C46.3648434,135.218743 46.0219092,136.712059 46.2228264,138.027748 C46.3951805,139.155992 46.9568617,140.194976 47.8045283,140.953684 C47.9320863,141.067936 48.1277699,141.056332 48.2411351,140.927798 C48.354589,140.799264 48.3431461,140.602893 48.2154993,140.48864 C47.485988,139.836151 46.9824975,138.904279 46.8341824,137.933133 C46.6548206,136.759367 46.9695465,135.413329 47.7203471,134.14227 C48.3971675,132.997067 49.3060407,132.041988 50.3375044,131.001219 C50.4580547,130.878933 50.4576999,130.682561 50.3367947,130.561168 C50.2764752,130.500471 50.1974389,130.470123 50.1184026,130.470123" id="path100" fill="#172C4B"></path>
                        <path d="M39.5467866,134.674258 C39.4123983,134.674258 39.2887433,134.762626 39.2498017,134.899193 C38.6125438,137.129795 38.9405755,139.649598 40.1270071,141.640091 C40.2409046,141.831107 40.4817391,142.015875 40.7247026,141.998916 C40.8859686,141.987312 41.0207117,141.890019 41.0852004,141.738277 C41.1520841,141.579395 41.0790797,141.397305 40.9219829,141.329467 C40.837092,141.292871 40.7452822,141.298226 40.6682861,141.334823 C40.6640282,141.329467 40.6603026,141.324112 40.6573754,141.319649 C39.5576087,139.474649 39.2535273,137.138721 39.8441264,135.071464 C39.8914062,134.906334 39.7965804,134.734062 39.6323871,134.686755 C39.6038241,134.677829 39.5750836,134.674258 39.5467866,134.674258" id="path102" fill="#172C4B"></path>
                        <path d="M54.0876928,132.789985 C53.9649249,132.789985 53.8487211,132.86407 53.8003768,132.986356 C53.3076196,134.22796 52.9414446,135.28301 52.7555186,136.39965 C52.5313606,137.74658 52.6203319,138.965868 53.0201261,140.024489 C53.0793812,140.181587 53.2520014,140.262813 53.4098079,140.208365 C53.5677031,140.153916 53.6540132,139.982537 53.6047819,139.82187 L53.5869521,139.764743 C53.5810976,139.745999 53.573469,139.727254 53.5643323,139.710295 C53.2332846,138.77753 53.1664009,137.69838 53.365544,136.503191 C53.5422447,135.441 53.8967993,134.421653 54.3747428,133.216646 C54.4381669,133.056871 54.360816,132.876567 54.2022112,132.812299 C54.1646889,132.797125 54.125836,132.789985 54.0876928,132.789985" id="path104" fill="#172C4B"></path>
                        <path d="M70.8476475,57.0405677 C69.7973783,55.3901544 68.1665338,54.2029994 66.9361931,52.6820128 C65.0568854,50.355903 64.2051383,47.3737339 63.517141,44.4540466 C62.8272809,41.5325741 62.6636199,37.8791714 62.2084737,34.438207 C62.1036242,33.6491506 61.982719,32.8690202 61.8368877,32.114775 L61.5791105,32.114775 C60.6545365,32.114775 59.7477923,32.1219158 58.8694337,32.132627 C58.8249924,32.8761609 58.8125737,33.652721 58.817896,34.4203551 C58.8285406,35.7779963 58.8925857,37.1168929 58.9228342,38.2263919 C59.1610076,37.4498319 59.3797545,36.6679162 59.5788976,35.880645 C59.3370873,36.8857101 59.128985,37.9005938 58.937027,38.9199404 L58.937027,38.925296 C58.9405752,39.2332422 58.9388011,39.5161957 58.9281565,39.7661231 C58.7378839,44.4433354 58.5493854,49.1196551 58.3592016,53.7986526 C58.2737785,55.8989351 58.1974033,58.0581291 58.8783042,60.0459443 C59.7299625,62.5345069 61.6840487,64.4866182 63.7855629,66.0522347 C64.950173,66.9198397 66.3085153,67.7321037 67.7468696,67.5687583 C69.1285413,67.4098759 70.271951,66.3592884 70.9807053,65.1569592 C72.4283736,62.7076709 72.3751505,59.4389779 70.8476475,57.0405677" id="path106" fill="#D8D93B"></path>
                        <path d="M58.8701433,32.132627 C58.4771794,32.1379826 58.0896265,32.1451234 57.7090814,32.1522641 C57.5188975,32.1576197 57.3286249,32.1611901 57.1419005,32.1665457 C51.0096234,32.3138243 46.5558256,32.7556602 46.5558256,33.2778299 C46.5558256,33.7839329 50.7429757,34.2150576 56.5836789,34.3748326 C56.7934666,34.3801882 57.0068025,34.3855438 57.2201385,34.3908993 C57.5615647,34.3998253 57.9082245,34.4069661 58.2602953,34.4123217 C58.4451569,34.4158921 58.6318812,34.4176773 58.8186056,34.4212477 C58.8149687,33.7964292 58.8221538,33.1653626 58.8487654,32.5512553 C58.8540877,32.4102249 58.8612728,32.2709796 58.8701433,32.132627" id="path108" fill="#172C4B"></path>
                        <path d="M76.6028389,33.2769373 C76.6028389,32.6423003 70.015593,32.1254862 61.8368877,32.114775 C61.982719,32.8690202 62.1036242,33.6491506 62.2084737,34.438207 C70.2151797,34.4132143 76.6028389,33.903541 76.6028389,33.2769373" id="path110" fill="#172C4B"></path>
                        <path d="M59.0621013,32.5244774 C58.9875003,32.5066255 58.9110364,32.5173366 58.8487654,32.5512553 C58.7705274,32.5905296 58.7118933,32.6628301 58.6887413,32.753875 C58.5554174,33.3046079 58.413223,33.8580185 58.2602953,34.4123217 C56.8076594,39.7116746 54.5033652,45.1895471 51.2461114,51.1083629 C50.527777,52.4124482 49.7401638,53.7808006 48.7071921,54.911722 C47.9230384,55.7686159 46.6393859,56.8620481 44.9734141,57.1949871 C44.2995209,57.3306619 43.7270177,57.294958 43.2771938,57.0869828 C42.1784029,56.582665 41.8565805,55.135764 41.9135293,54.0476874 C41.9686152,52.972107 42.2868893,51.9117009 42.829144,50.9825066 C43.8355042,49.2633633 45.5227652,48.096738 47.0412203,47.1827179 C47.4412806,46.9435017 47.8537596,46.7051781 48.2519571,46.4757805 C49.5392466,45.7340318 50.8709773,44.9663977 52.0177577,43.9640104 C54.814543,41.5182925 56.2387045,38.0157389 57.2201385,34.3908993 C57.4033146,33.7143102 57.5704352,33.0332581 57.7286852,32.3530986 C57.7446521,32.283476 57.7357816,32.2138534 57.7090814,32.1522641 C57.5188975,32.1576197 57.3286249,32.1611901 57.1419005,32.1665457 C57.1348041,32.1808273 57.1312559,32.1960014 57.1277077,32.210283 C56.958813,32.9323946 56.7809592,33.6553988 56.5836789,34.3748326 C55.6306305,37.8488231 54.2544585,41.1862461 51.6123751,43.4936114 C50.51181,44.4567244 49.2067796,45.2073991 47.9444163,45.9357589 C47.5425819,46.1669417 47.1283288,46.4061579 46.7247202,46.6498371 C45.2311913,47.5477904 43.3803579,48.8161718 42.2975339,50.666527 C41.7036528,51.6805181 41.356993,52.8400026 41.294722,54.0155538 C41.2272174,55.2982168 41.6396964,57.0191453 43.0194166,57.6546749 C43.5919198,57.9153135 44.2888763,57.9679767 45.0943192,57.8046314 C46.9238633,57.4377737 48.3160023,56.258652 49.1623383,55.3321355 C50.2415254,54.1512287 51.0505165,52.7471724 51.786592,51.4091684 C55.4119723,44.8244746 57.8655573,38.7708766 59.2897188,32.9002611 C59.3288378,32.7342379 59.2275365,32.5655369 59.0621013,32.5244774" id="path112" fill="#172C4B"></path>
                        <path d="M63.2332845,32.1219158 C63.2937814,32.1772569 63.3329004,32.2566981 63.3346745,32.3459579 C63.3506414,33.0118358 63.3737935,33.7107398 63.4129125,34.4319588 C63.5106656,36.1796653 63.7080346,38.0567984 64.1543103,39.8848386 C64.8103737,42.5849468 65.916261,44.8262598 67.4400384,46.5516513 C68.3788053,47.6120575 69.29442,48.2225943 70.2435653,48.4153955 C71.2344021,48.6180151 72.5250623,48.2315203 72.9730234,47.2398442 C73.3482463,46.4061579 73.0404393,45.4171596 72.6261862,44.7673484 C72.1799992,44.0702295 71.5226939,43.4971818 70.8875649,42.9464489 L70.6702372,42.7563256 C69.4257037,41.6673563 68.5014845,40.7113841 67.7600867,39.7473785 C66.5368424,38.1585545 65.6549356,36.3412255 65.1588963,34.4069661 C64.995324,33.7732217 64.8744188,33.1278735 64.797955,32.4744919 C64.7801252,32.3281059 64.8690965,32.192431 65.0024204,32.1451234 C65.0237096,32.1361974 65.0450876,32.1308418 65.0681509,32.1290566 C65.1197773,32.123701 65.1695409,32.1308418 65.2157563,32.1486938 C65.2157563,32.1486938 65.2157563,32.1486938 65.2175304,32.1486938 C65.3206945,32.1906458 65.3989325,32.283476 65.4113512,32.4012989 C65.4913633,33.0761028 65.6193648,33.7410882 65.7953559,34.3926845 C66.2754283,36.1903764 67.1075715,37.8827418 68.2490296,39.3662393 C68.9653238,40.2963262 69.8630202,41.2255204 71.0756198,42.2859266 L71.2911734,42.4742647 C71.9617845,43.0553459 72.6510236,43.6569568 73.1459985,44.430839 C73.7962074,45.4492931 73.9416838,46.5962812 73.5345271,47.4960198 C72.9393154,48.817957 71.3302037,49.2705041 70.1211522,49.0259323 C69.036288,48.8054607 68.0089934,48.1306568 66.9777071,46.9649241 C65.3864251,45.1645544 64.2343223,42.8321964 63.5533327,40.0339024 C63.0946383,38.1478433 62.891947,36.22251 62.7941052,34.4355292 C62.7549862,33.7178806 62.7319229,33.022547 62.71773,32.3602394 C62.7140931,32.2638389 62.7567603,32.1754717 62.8243537,32.1183454 L63.2332845,32.1219158" id="path114" fill="#172C4B"></path>
                        <path d="M60.0892185,32.2799056 C60.08363,32.2799056 60.0780416,32.2799056 60.0723645,32.2799056 C59.9017844,32.2888316 59.7709443,32.4352176 59.7801697,32.607489 C60.1138785,38.852103 61.0697654,45.0886836 62.6212188,51.1440668 C63.7993122,55.7418379 65.6462425,61.6231646 69.5028772,66.3217992 C69.6110975,66.4539037 69.8062488,66.4726483 69.9384195,66.3628587 C70.0697032,66.2539618 70.0883313,66.0575903 69.9792239,65.9254858 C66.2008272,61.3214666 64.3823713,55.5249367 63.2202448,50.9887548 C61.6789038,44.9726459 60.729315,38.7771248 60.397735,32.5735703 C60.3888645,32.4084397 60.252436,32.2799056 60.0892185,32.2799056" id="path116" fill="#172C4B"></path>
                        <path d="M51.9695908,57.9751175 C51.8584432,57.9751175 51.75111,58.0358142 51.6956692,58.1411407 C50.887299,59.68712 50.0512528,61.28487 49.0903097,62.7674749 C47.5031081,65.2158706 45.5569167,67.3938092 43.3054908,69.2423791 C43.1731427,69.3503835 43.1533614,69.546755 43.2614043,69.679752 C43.3692698,69.8127491 43.564155,69.8332789 43.6965032,69.7243819 C45.9973378,67.8356451 47.9863739,65.6095062 49.6083479,63.1075547 C50.5850805,61.5999571 51.4278683,59.9897107 52.2429801,58.431235 C52.3225487,58.2794934 52.2645355,58.0911552 52.1133819,58.0108214 C52.0674326,57.9867213 52.0181125,57.9751175 51.9695908,57.9751175" id="path118" fill="#172C4B"></path>
                        <path d="M107.895362,49.2901413 C108.044386,56.9102484 95.2495526,56.5389277 86.900622,57.2619319 C87.1534318,55.939102 88.7563342,55.3535579 89.9618374,54.6716132 C93.2244136,52.8248284 94.5141867,48.4992996 93.7025344,44.8226894 C92.8908821,41.1460792 90.3814129,38.0692947 87.5561532,35.5976915 C86.4730631,34.6497527 85.3145736,33.7580475 83.9866572,33.2090999 C82.5868897,32.629804 80.7799653,31.9059072 79.5567211,30.9258348 C94.1034818,35.4307757 107.822623,45.5189157 107.895362,49.2901413" id="path120" fill="#172C4B"></path>
                        <path d="M95.1404452,3.99973059 C104.264659,3.3177859 113.768531,4.50047794 121.618051,8.96346677 C120.991793,10.9548524 120.24046,12.9141045 119.490014,14.8563972 C119.381794,15.1366729 119.273574,15.416056 119.16624,15.6963317 C112.572785,11.3404546 105.597898,7.9128792 99.7983537,5.57695084 C98.895335,5.21277096 97.0555898,4.50047794 95.1404452,3.99973059" id="path122" fill="#172C4B"></path>
                        <path d="M93.6191516,52.985496 C93.5455263,52.985496 93.4710139,53.0122739 93.4124685,53.0649372 C91.2853186,54.9902706 88.4653812,55.8909017 85.4795652,56.8441962 C82.8618757,57.6796677 80.155481,58.5437023 77.9387388,60.1673376 C72.8541585,63.8903629 69.4168331,69.0567188 68.5071616,74.3408976 C68.4779776,74.5104912 68.5908106,74.6720513 68.7590843,74.7006145 C68.9271806,74.7309628 69.087737,74.6167103 69.1170097,74.4480093 C69.9987391,69.3209277 73.3473592,64.2991727 78.30243,60.6707628 C80.4384504,59.1069315 83.0960573,58.258071 85.6667331,57.4368811 C88.5833591,56.5059016 91.5993349,55.5427886 93.8258346,53.5281955 C93.952683,53.4130503 93.9633276,53.2166788 93.848898,53.0890374 C93.7876914,53.0203073 93.7034215,52.985496 93.6191516,52.985496" id="path124" fill="#172C4B"></path>
                    </g>
                </g>
            </g>
        </g>
    </g>
</svg>