<svg width="154px" height="142px" viewBox="0 0 154 142" version="1.1" xmlns="http://www.w3.org/2000/svg" xmlns:xlink="http://www.w3.org/1999/xlink">
    <g id="Home" stroke="none" stroke-width="1" fill="none" fill-rule="evenodd">
        <g id="Home-Default-4" transform="translate(-34, -266)" fill-rule="nonzero">
            <g id="Access-Student" transform="translate(111, 337) scale(-1, 1) translate(-111, -337)translate(34, 266)">
                <g id="g8" transform="translate(77, 71) scale(-1, 1) rotate(-180) translate(-77, -71)translate(0, 0)">
                    <g id="g10" transform="translate(-0, 0)">
                        <path d="M71.2052024,8.5975671e-12 L53.5509915,8.5975671e-12 C53.5100476,0.172371612 53.466647,0.34999312 53.4224276,0.535489474 C53.3978612,0.636987479 53.3732948,0.742860397 53.3470907,0.849608299 C53.3389019,0.888982525 53.3290754,0.927481768 53.3192488,0.967730977 C53.2856748,1.10860321 53.2529196,1.24947544 53.2201645,1.39559757 C53.2054246,1.46034629 53.1890471,1.52684499 53.1743072,1.59421866 C53.1456465,1.70971639 53.1194424,1.8260891 53.0932382,1.94421178 C53.0604831,2.08333405 53.0293657,2.22420628 52.9957916,2.36770346 C52.9695875,2.47882627 52.9433834,2.59344902 52.918817,2.70719678 C52.8827863,2.86381871 52.8483934,3.02219059 52.8115439,3.18056248 C52.7673244,3.37568364 52.7231049,3.57517972 52.6780666,3.77555078 C52.4545127,4.77478114 52.2260454,5.81601067 52.0016726,6.83974055 C51.9738307,6.96311312 51.9476266,7.08561072 51.9214225,7.20723333 C51.8419912,7.5747261 51.7617411,7.93871895 51.6839476,8.29571193 C51.6151618,8.6124557 51.5455571,8.92569954 51.4800467,9.23019356 C57.4013603,10.2906727 63.1621735,12.3013832 68.7346446,14.8467082 C68.7821396,14.4564658 68.833729,14.0583487 68.8861372,13.6541066 C68.9123414,13.4519856 68.9385455,13.2498645 68.9647496,13.0433686 C69.0048747,12.7379996 69.0458186,12.4282557 69.0884003,12.1150119 C69.1293443,11.8087679 69.1727449,11.5007739 69.2153266,11.193655 C69.2153266,11.1884051 69.2153266,11.1822802 69.2169643,11.1770303 C69.2398929,11.0029087 69.2644593,10.8287871 69.2890257,10.6564155 C69.3537171,10.2014245 69.4175897,9.74555843 69.4855566,9.28969239 C69.5150363,9.0805715 69.5461537,8.87320058 69.5772711,8.66582965 C69.6550646,8.14521489 69.7336769,7.630725 69.8131082,7.12410996 C69.827848,7.02436192 69.8442256,6.92198893 69.8606032,6.82224089 C69.9940804,5.97788249 70.1308332,5.15977357 70.2659482,4.39241366 C70.2905146,4.2629162 70.3134432,4.13254377 70.3363718,4.00392129 C70.3543872,3.90154831 70.3724025,3.80180027 70.3904178,3.70117724 C70.4223541,3.52705567 70.4551093,3.35468406 70.4862267,3.18581238 C70.504242,3.0930642 70.5222573,2.99769107 70.5402727,2.90669286 C70.5820355,2.69494702 70.6213417,2.49107603 70.6622856,2.2942049 C70.7564567,1.831339 70.8481711,1.40434739 70.9407045,1.02022995 C70.9734596,0.876732766 71.0078525,0.737610501 71.0406077,0.605488098 C71.085646,0.429616555 71.1282277,0.264244806 71.1724472,0.112872781 C71.1839115,0.074373538 71.1937381,0.0376242604 71.2052024,8.5975671e-12" id="path14" fill="#F9EBD1"></path>
                        <path d="M80.2947585,7.10542736e-15 L71.2052024,7.10542736e-15 C71.1937381,0.0376242604 71.1839115,0.074373538 71.1724472,0.112872781 C71.1282277,0.264244806 71.085646,0.429616555 71.0406077,0.605488098 C71.0078525,0.737610501 70.9734596,0.876732766 70.9407045,1.02022995 C70.8481711,1.40434739 70.7564567,1.831339 70.6622856,2.2942049 C70.6213417,2.49107603 70.5820355,2.69494702 70.5402727,2.90669286 C70.5222573,2.99769107 70.504242,3.0930642 70.4862267,3.18581238 C70.4551093,3.35468406 70.4223541,3.52705567 70.3904178,3.70117724 C70.3724025,3.80180027 70.3543872,3.90154831 70.3363718,4.00392129 C70.3134432,4.13254377 70.2905146,4.2629162 70.2659482,4.39241366 C70.1308332,5.15977357 69.9940804,5.97788249 69.8606032,6.82224089 C69.8442256,6.92198893 69.827848,7.02436192 69.8131082,7.12410996 C69.7336769,7.630725 69.6550646,8.14521489 69.5772711,8.66582965 C69.5461537,8.87320058 69.5150363,9.0805715 69.4855566,9.28969239 C69.4175897,9.74555843 69.3537171,10.2014245 69.2890257,10.6564155 C69.2644593,10.8287871 69.2398929,11.0029087 69.2169643,11.1770303 C69.2153266,11.1822802 69.2153266,11.1884051 69.2153266,11.193655 C69.1727449,11.5007739 69.1293443,11.8087679 69.0884003,12.1150119 C69.0458186,12.4282557 69.0048747,12.7379996 68.9647496,13.0433686 C68.9385455,13.2498645 68.9123414,13.4519856 68.8861372,13.6541066 C68.833729,14.0583487 68.7821396,14.4564658 68.7346446,14.8467082 C71.2502407,15.9955606 73.7257117,17.2529109 76.1626954,18.5811347 C77.660425,11.7632688 79.9107042,2.44557693 80.2947585,7.10542736e-15" id="path16" fill="#B3A98E"></path>
                        <path d="M55.056091,81.292902 C53.9571555,84.8575819 52.2317776,88.1973913 50.0093402,91.1023342 C47.34479,94.5838907 45.8437031,94.8210111 41.7767409,93.8182808 C41.0785647,93.6467842 40.3679416,93.5356613 39.6533878,93.4822874 C39.4584127,92.9704225 39.2952102,92.4498077 39.1564921,91.923068 C39.4188609,91.0647099 39.7170147,90.1652276 39.9385215,89.129248 C41.1153324,83.631731 42.1847882,80.0390516 42.9937587,70.7353595 C43.484431,65.0925955 44.2483631,57.8442379 45.1120347,50.415634 C45.2947266,50.3027612 45.4787287,50.1925134 45.6642048,50.0866404 C50.7193082,47.1965722 56.5964023,46.5245855 62.3588533,46.9743266 C62.3236415,47.1265736 62.2876108,47.2796956 62.252399,47.4328176 C61.6726328,49.9300185 61.0928665,52.4280944 60.5253834,54.9287952 C60.4918093,54.9699194 60.467243,55.0189185 60.4631486,55.0766673 C60.4582353,55.1396661 60.4525032,55.2070398 60.4459521,55.2787884 C59.1873352,60.841929 57.9942286,66.4216943 57.0091173,72.0460838 C56.4653817,75.1548977 55.9814242,78.289086 55.056091,81.292902" id="path18" fill="#F9EBD1"></path>
                        <path d="M97.051478,34.8514399 C96.6887146,34.8698146 96.4078391,35.1996831 96.4258545,35.5881754 C96.4430509,35.9757928 96.7517683,36.2759119 97.1153505,36.2566623 C97.4781139,36.2382877 97.7581705,35.9084191 97.740974,35.5208018 C97.7237776,35.1323094 97.4150602,34.8330653 97.051478,34.8514399 L97.051478,34.8514399 Z M94.8617957,33.3980935 C94.4990324,33.4173431 94.2181569,33.7472116 94.2361722,34.134829 C94.2533687,34.5233214 94.562086,34.8225655 94.9256683,34.8041908 C95.2884316,34.7858162 95.5693071,34.4559477 95.5512918,34.0674553 C95.5340953,33.678963 95.225378,33.3797188 94.8617957,33.3980935 Z M92.8882975,32.2667407 C92.5247153,32.2859903 92.2446587,32.6158589 92.2618551,33.0034762 C92.2798705,33.3919686 92.5885878,33.6912127 92.9513512,33.6728381 C93.3149334,33.6544634 93.59499,33.3245949 93.5777936,32.9361026 C93.5597782,32.5476102 93.2518797,32.2483661 92.8882975,32.2667407 Z M121.356623,28.0020746 C120.609806,29.3661727 119.92768,31.0986387 119.42325,33.0358506 C118.764872,35.5671758 118.530672,37.9620038 118.688716,39.780218 L118.565884,39.7110944 L104.698988,31.8896231 C104.576156,31.8204995 104.442679,31.7907501 104.313296,31.7977499 C104.056987,31.8108747 103.81378,31.9639967 103.686035,32.2238666 C103.491961,32.6158589 103.632808,33.1005993 103.998847,33.3070953 L104.219125,33.4313428 L109.170067,43.0946529 C107.026242,43.4017718 104.914353,43.8550129 102.90073,44.3870025 C103.089891,43.2705244 103.206991,42.2319198 103.250391,41.309688 C103.35357,38.9936085 102.991626,37.4002648 102.143267,37.1062706 C101.316199,36.8192762 100.185328,37.8158816 99.0307083,39.6594704 C97.8867345,41.4811846 96.7181943,44.1262576 95.7920422,47.1746977 C95.1819774,49.1836582 94.7528848,51.1147452 94.5088589,52.8262116 C94.0650265,55.9341505 94.2345345,58.3123537 95.042768,59.0858385 C91.3872924,56.7846338 88.8888928,55.1816653 85.607645,53.2252037 C83.8126623,54.6085515 82.070088,56.0802726 80.3660009,57.6036177 C77.0651,60.5558096 73.0419478,66.1023256 70.6729311,70.100122 C70.686852,70.0029989 70.7007729,69.9041259 70.7146939,69.8035029 C71.471338,64.35236 72.6488859,53.7939426 73.4047112,50.6238799 C73.534094,50.0822655 73.6454616,49.5424011 73.7429082,49.0042867 C76.4386576,49.6648987 79.1253994,50.3823846 81.8268809,51.0211221 C74.3234933,46.8168297 66.0659182,44.1813815 57.5651361,43.3895221 C50.4589047,42.7280351 41.1153324,43.9810105 36.7263051,50.7936265 C35.2997361,53.008208 34.8375608,55.8029031 34.9609659,58.4873503 C35.0993564,61.4999161 35.9597525,64.4179837 36.4929246,67.355301 C37.0391168,70.3634918 37.5833438,73.3734327 37.917692,76.4061231 C37.4700928,78.1000898 36.9416702,79.8019313 36.2759217,81.4320243 C35.7880336,82.6263758 35.1401366,83.9344751 34.0339949,84.5758375 C33.9765096,84.6099618 33.9336823,84.6659607 33.9150937,84.7333344 C33.8964233,84.800708 33.9036294,84.8724566 33.9349925,84.9345804 C34.8163519,86.6652964 35.8246375,88.3391385 36.9349554,89.9158575 C35.9859566,90.1048538 34.9869244,90.0138556 34.0833733,89.6516127 C34.0164709,89.6253632 33.9418711,89.6306131 33.8788993,89.6673624 C33.8160094,89.7032367 33.7710529,89.7671104 33.7555761,89.8423589 C33.1578764,92.7289272 33.1403524,95.2016286 33.7021852,97.4022103 C34.3013589,99.7489142 35.6356402,101.729 37.3431666,102.860353 C37.0613903,102.821854 36.7801054,102.778105 36.4998032,102.727356 C36.4763013,102.722981 36.4526357,102.718606 36.4291339,102.714231 C33.8415584,102.603983 30.0060114,101.288884 26.7567817,99.8722868 C23.2453469,99.7016651 19.6105891,97.9945737 16.861203,95.5481218 C11.0330779,90.3612237 7.80661307,82.5686269 5.67417046,74.7909048 C3.12590112,65.4968375 1.94204785,55.3741615 3.656289,45.986471 C4.32686896,42.3141682 5.44095374,38.7547382 7.09042156,35.4009291 C10.9507806,27.5505834 17.5577415,21.3968294 25.1548088,17.8277746 C35.3060415,13.0582433 49.2289486,12.414256 59.8440761,15.3935724 C69.0802115,17.9870214 91.8475024,28.9059318 99.8635082,34.8496899 C99.6514186,34.2232023 99.1027697,33.4768419 98.1111073,32.6053591 C94.1174348,29.0931781 89.4629269,26.5189787 85.0049501,23.758408 C84.9222433,23.706784 84.8387176,23.656035 84.7560109,23.604411 C85.5093795,23.14767 86.276669,22.7329281 87.0529663,22.3663103 C87.7809496,22.0206921 88.515484,21.7188231 89.2541128,21.4607031 C100.950161,17.3745335 114.573849,17.5609048 124.764798,24.874011 C123.72564,24.7471385 122.467023,25.9677395 121.356623,28.0020746" id="path20" fill="#B3A98E"></path>
                        <path d="M38.2671077,102.795604 C36.3498664,101.848873 34.8215108,99.7804136 34.1786908,97.2630881 C33.6572287,95.2208782 33.6572287,92.9222984 34.1795097,90.245726 C35.2243992,90.600969 36.3664897,90.6359683 37.4270198,90.3393492 C37.5071061,90.3165996 37.5713881,90.2527259 37.5980836,90.1696025 C37.6249428,90.0856042 37.6107762,89.992856 37.5603333,89.9228574 C36.4216002,88.3400135 35.3873561,86.6539216 34.4835595,84.905706 C35.5892917,84.1567207 36.2380076,82.8442465 36.7286798,81.6428951 C38.1640108,78.1289642 38.9694601,74.3070393 39.6800833,70.9357306 C40.8984932,65.1547192 42.0949572,59.2844596 43.2362288,53.4876986 C43.2643982,53.3450764 43.1789073,53.2059541 43.04543,53.1753297 C43.0283973,53.1718298 43.0112009,53.1700798 42.994332,53.1700798 C42.8800165,53.1700798 42.7774109,53.2549532 42.7530083,53.3792007 C41.6121462,59.1733368 40.4162554,65.0418465 39.1984187,70.8202329 C38.9995949,71.7625893 38.7926642,72.7416951 38.5673906,73.7383005 C38.5967883,72.5675735 38.5574003,71.4099713 38.6012922,70.5752377 C38.7407472,67.9275397 38.9772395,65.2868416 39.2328116,62.6496435 C39.561919,59.2538352 40.0059152,55.6454062 42.0596635,53.0300826 C42.9025356,51.9573537 43.9736293,51.1182452 45.1120347,50.415634 C44.2483631,57.8442379 43.484431,65.0925955 42.9937587,70.7353595 C42.1847882,80.0390516 41.1153324,83.631731 39.9385215,89.129248 C39.7170147,90.1652276 39.4188609,91.0647099 39.1564921,91.923068 C38.9991035,92.4375579 38.8555541,92.9380481 38.7483628,93.4437881 C39.0503654,93.4455381 39.3522041,93.4595378 39.6533878,93.4822874 C40.3679416,93.5356613 41.0785647,93.6467842 41.7767409,93.8182808 C45.8437031,94.8210111 47.34479,94.5838907 50.0093402,91.1023342 C52.2317776,88.1973913 53.9571555,84.8575819 55.056091,81.292902 C55.9814242,78.289086 56.4653817,75.1548977 57.0091173,72.0460838 C57.9942286,66.4216943 59.1873352,60.841929 60.4459521,55.2787884 C60.2502401,57.4994947 59.4010626,64.3488601 58.5789082,70.9803547 C57.5626794,79.1693187 56.6029533,86.9050417 56.6422595,87.6706516 L56.6438973,87.7065259 C56.6537238,87.8876474 56.6635504,88.0748937 56.5947645,88.1842665 C56.543994,88.264765 56.4375398,88.3251388 56.3147079,88.3898875 C54.8636545,89.1528725 53.3413585,89.7854851 51.7904018,90.2711005 C51.7117895,90.2956 51.6495547,90.3612237 51.6241694,90.4452221 C51.5996031,90.5292204 51.6159806,90.6210936 51.66757,90.6893423 C52.3406885,91.5870746 53.1505597,92.3395599 54.0734363,92.9292983 C53.4912134,93.7185327 52.9147226,94.519142 52.39801,95.3775001 C52.0925682,95.9217394 51.951721,96.4572289 51.8108738,96.9927184 C50.8388645,98.3296921 49.8742252,99.8574121 48.7834784,101.158511 C45.5248316,102.635482 41.9310177,103.268095 38.4026321,102.974101 C38.3856813,102.898852 38.3385139,102.830604 38.2671077,102.795604" id="path22" fill="#B3A98E"></path>
                        <path d="M62.3588533,46.9743266 C63.5634242,47.0679498 64.762263,47.209697 65.9479996,47.3908184 C66.8151924,47.5238158 67.6799286,47.6769378 68.5413892,47.8440595 C65.3567691,61.5576649 62.8763848,75.1190234 57.1794441,88.0871434 C57.1548777,88.1431423 57.1278547,88.1965163 57.1024695,88.2516402 C57.1556966,88.0556441 57.1466889,87.8517731 57.1376813,87.6776515 L57.1352246,87.6417772 C57.0991939,86.9260413 58.099864,78.8551999 59.0677789,71.0494784 C59.9177752,64.1966131 60.7972512,57.1101274 60.9552948,55.1212915 C60.9667591,54.9760443 60.866037,54.8482968 60.7301031,54.8360471 C60.7227332,54.8360471 60.7161822,54.8351721 60.7088123,54.8351721 C60.6351132,54.8351721 60.5712406,54.8727963 60.5253834,54.9287952 C61.0928665,52.4280944 61.6726328,49.9300185 62.252399,47.4328176 C62.2876108,47.2796956 62.3236415,47.1265736 62.3588533,46.9743266" id="path24" fill="#B3A98E"></path>
                        <path d="M54.3813348,92.5136814 C54.3772404,92.5110565 54.373146,92.5066816 54.3690516,92.5040566 C53.5845656,92.0096913 52.8868807,91.3910785 52.289918,90.6622178 C53.7434281,90.1844772 55.1690963,89.5807391 56.5325297,88.8641282 C56.7028565,88.7740049 56.8649946,88.6760069 56.9820943,88.5071352 C56.2754017,89.9596066 55.3328721,91.2309566 54.3813348,92.5136814" id="path26" fill="#B3A98E"></path>
                        <path d="M53.5509915,0 L0.471914513,0 C-0.120708167,9.71230908 -0.346309312,17.701777 0.955953848,28.284694 C1.79882593,26.9844696 2.81783887,25.6667455 3.99825284,24.3612711 C4.27478826,24.0559021 4.55959435,23.7496581 4.85430887,23.4469141 C4.95142791,23.3445411 5.05018471,23.2447931 5.15066116,23.1424201 C5.31034255,22.9805483 5.4716617,22.8186764 5.63625636,22.6585546 C5.74000832,22.5588066 5.8436784,22.4581835 5.94906811,22.3584355 C6.05445783,22.2578125 6.15976566,22.1571894 6.26679314,22.0591914 C6.40510179,21.9288189 6.5450482,21.7984465 6.68663236,21.669824 C6.82985429,21.5403266 6.97143846,21.4117041 7.11629814,21.2848316 C7.22660113,21.1868335 7.33854188,21.0879605 7.45212039,20.9890874 C7.63325641,20.8324655 7.81594829,20.6767186 8.00199759,20.5218466 C9.50668762,19.2601214 11.1578751,18.0482702 12.9391824,16.9204174 C20.4757346,12.1535111 29.8595139,9.12957054 39.3766067,8.50745777 C43.4791083,8.23971303 47.515772,8.52145749 51.4800467,9.23019356 C51.5455571,8.92569954 51.6151618,8.6124557 51.6839476,8.29571193 C51.7617411,7.93871895 51.8403535,7.5747261 51.9214225,7.20723333 C51.9476266,7.08561072 51.9738307,6.96311312 52.0016726,6.83974055 C52.2260454,5.81601067 52.4545127,4.77478114 52.6780666,3.77555078 C52.7231049,3.57517972 52.7673244,3.37568364 52.8115439,3.18056248 C52.8483934,3.02219059 52.8827863,2.86381871 52.918817,2.70719678 C52.9433834,2.59344902 52.9695875,2.47882627 52.9957916,2.36770346 C53.0293657,2.22420628 53.0604831,2.08333405 53.0932382,1.94421178 C53.1194424,1.8260891 53.1456465,1.70971639 53.1743072,1.59421866 C53.1890471,1.52684499 53.2054246,1.46034629 53.2201645,1.39559757 C53.2529196,1.24947544 53.2856748,1.10860321 53.3192488,0.967730977 C53.3290754,0.927481768 53.3389019,0.888982525 53.3470907,0.849608299 C53.3732948,0.742860397 53.3978612,0.636987479 53.4224276,0.535489474 C53.466647,0.34999312 53.5100476,0.172371612 53.5509915,0" id="path28" fill="#B3A98E"></path>
                        <path d="M98.1111073,32.6053591 C99.1027697,33.4768419 99.6514186,34.2232023 99.8635082,34.8496899 C91.8475024,28.9059318 69.0802115,17.9870214 59.8440761,15.3935724 C49.2289486,12.414256 35.3060415,13.0582433 25.1548088,17.8277746 C17.5577415,21.3968294 10.9507806,27.5505834 7.09042156,35.4009291 C5.44095374,38.7547382 4.32686896,42.3141682 3.656289,45.986471 C2.61983394,40.1949599 1.68917804,34.2555766 0.95587196,28.284694 L0.95587196,28.284694 C2.64218934,25.6868701 5.03356147,23.0085477 8.00216136,20.5209716 C9.50627818,19.2601214 11.1576294,18.0482702 12.9396737,16.9212924 C20.4750795,12.1543861 29.8588588,9.12957054 39.37718,8.50745777 C43.4787807,8.23883805 47.5154444,8.52145749 51.4792279,9.23106854 C57.4013603,10.2897977 63.1621735,12.3013832 68.7346446,14.8467082 C71.2494218,15.9955606 73.7265306,17.2537858 76.1626954,18.5820097 C79.086912,20.1762284 81.9529883,21.87282 84.7560109,23.604411 C84.8387176,23.656035 84.9222433,23.706784 85.0049501,23.758408 C89.4629269,26.5189787 94.1174348,29.0931781 98.1111073,32.6053591" id="path30" fill="#172C4B"></path>
                        <path d="M94.5088589,52.8262116 C94.7528848,51.1147452 95.1819774,49.1836582 95.7920422,47.1746977 C96.7181943,44.1262576 97.8867345,41.4811846 99.0307083,39.6594704 C100.185328,37.8158816 101.316199,36.8192762 102.143267,37.1062706 C102.991626,37.4002648 103.35357,38.9936085 103.250391,41.309688 C103.206991,42.2319198 103.089891,43.2705244 102.90073,44.3870025 C102.646059,45.8919729 102.259548,47.5386905 101.742835,49.2396571 C100.969814,51.7797322 100.03056,54.0415627 99.0749278,55.7792785 C97.727872,58.2336053 96.354612,59.6405776 95.3932481,59.3063342 C95.265503,59.2617101 95.1492222,59.1864616 95.042768,59.0858385 C94.2345345,58.3123537 94.0650265,55.9341505 94.5088589,52.8262116" id="path32" fill="#172C4B"></path>
                        <path d="M153.378065,113.508894 C152.980909,113.581517 152.604224,113.305023 152.51988,112.887656 L143.265729,107.749757 L143.001231,105.998916 L150.647104,109.235478 L142.585241,58.2257304 L136.342927,61.9715318 L136.14312,60.6494328 L112.084457,48.7811661 L109.170067,43.0946529 L104.219125,33.4313428 L103.998847,33.3070953 C103.632808,33.1005993 103.491961,32.6158589 103.686035,32.2238666 C103.81378,31.9639967 104.056987,31.8108747 104.313296,31.7977499 C104.442679,31.7907501 104.576156,31.8204995 104.698988,31.8896231 L118.565884,39.7110944 L118.688716,39.780218 C118.530672,37.9620038 118.764872,35.5671758 119.42325,33.0358506 C119.92768,31.0986387 120.609806,29.3661727 121.356623,28.0020746 C122.467023,25.9677395 123.72564,24.7471385 124.764798,24.874011 C124.831127,24.8827609 124.895818,24.8950106 124.96051,24.9142603 C126.189647,25.280878 126.734201,27.6022074 126.495908,30.6891467 C126.396004,31.9946211 126.156073,33.4365927 125.767924,34.9249385 C124.971155,37.9838783 123.735467,40.5283283 122.496503,41.9283008 L144.569384,54.3784311 L144.692216,55.1387911 L153.988949,112.582287 C154.059372,113.018028 153.785867,113.43277 153.378065,113.508894" id="path34" fill="#172C4B"></path>
                        <path d="M56.5325297,88.8641282 C55.1690963,89.5807391 53.7434281,90.1844772 52.289918,90.6622178 C52.8868807,91.3910785 53.5845656,92.0096913 54.3690516,92.5040566 C54.373146,92.5066816 54.3772404,92.5110565 54.3813348,92.5136814 C55.3328721,91.2309566 56.2754017,89.9596066 56.9820943,88.5071352 C56.8649946,88.6760069 56.7028565,88.7740049 56.5325297,88.8641282 Z M33.7021852,97.4022103 C33.1403524,95.2016286 33.1578764,92.7289272 33.7555761,89.8423589 C33.7710529,89.7671104 33.8160094,89.7032367 33.8788993,89.6673624 C33.9418711,89.6306131 34.0164709,89.6253632 34.0833733,89.6516127 C34.9869244,90.0138556 35.9859566,90.1048538 36.9349554,89.9158575 C35.8246375,88.3391385 34.8163519,86.6652964 33.9349925,84.9345804 C33.9036294,84.8724566 33.8964233,84.800708 33.9150937,84.7333344 C33.9336823,84.6659607 33.9765096,84.6099618 34.0339949,84.5758375 C35.1401366,83.9344751 35.7880336,82.6263758 36.2759217,81.4320243 C36.9416702,79.8019313 37.4700928,78.1000898 37.917692,76.4061231 C37.5833438,73.3734327 37.0391168,70.3634918 36.4929246,67.355301 C35.9597525,64.4179837 35.0993564,61.4999161 34.9609659,58.4873503 C34.8375608,55.8029031 35.2997361,53.008208 36.7263051,50.7936265 C41.1153324,43.9810105 50.4589047,42.7280351 57.5651361,43.3895221 C66.0659182,44.1813815 74.3234933,46.8168297 81.8268809,51.0211221 C79.1253994,50.3823846 76.4386576,49.6648987 73.7429082,49.0042867 C73.6454616,49.5424011 73.534094,50.0822655 73.4047112,50.6238799 C72.6488859,53.7939426 71.471338,64.35236 70.7146939,69.8035029 C70.7007729,69.9023759 70.686852,70.001249 70.6729311,70.100122 C65.9963135,77.9985918 62.9418951,86.5174243 60.7194577,90.0374801 C53.7123107,101.133137 49.5090052,103.601463 49.6981662,100.71577 C49.3959999,100.870642 49.0913769,101.019389 48.7834784,101.158511 C49.8742252,99.8574121 50.8388645,98.3296921 51.8108738,96.9927184 C51.951721,96.4572289 52.0925682,95.9217394 52.39801,95.3775001 C52.9147226,94.519142 53.4912134,93.7185327 54.0734363,92.9292983 C53.1505597,92.3395599 52.3406885,91.5870746 51.66757,90.6893423 C51.6159806,90.6210936 51.5996031,90.5292204 51.6241694,90.4452221 C51.6495547,90.3612237 51.7117895,90.2956 51.7904018,90.2711005 C53.3413585,89.7854851 54.8636545,89.1528725 56.3147079,88.3898875 C56.4375398,88.3251388 56.543994,88.264765 56.5947645,88.1842665 C56.6635504,88.0748937 56.6537238,87.8876474 56.6438973,87.7065259 L56.6422595,87.6706516 C56.6029533,86.9050417 57.5626794,79.1693187 58.5789082,70.9803547 C59.4010626,64.3488601 60.2502401,57.4994947 60.4459521,55.2787884 C60.4525032,55.2070398 60.4582353,55.1396661 60.4631486,55.0766673 C60.467243,55.0189185 60.4918093,54.9699194 60.5253834,54.9287952 C60.5712406,54.8727963 60.6351132,54.8351721 60.7088123,54.8351721 C60.7161822,54.8351721 60.7227332,54.8360471 60.7301031,54.8360471 C60.866037,54.8482968 60.9667591,54.9760443 60.9552948,55.1212915 C60.7972512,57.1101274 59.9177752,64.1966131 59.0677789,71.0494784 C58.099864,78.8551999 57.0991939,86.9260413 57.1352246,87.6417772 L57.1376813,87.6776515 C57.1466889,87.8517731 57.1556966,88.0556441 57.1024695,88.2516402 C57.1278547,88.1965163 57.1548777,88.1431423 57.1794441,88.0871434 C62.8763848,75.1190234 65.3567691,61.5576649 68.5413892,47.8440595 C67.6799286,47.6769378 66.8151924,47.5238158 65.9479996,47.3908184 C64.762263,47.209697 63.5634242,47.0679498 62.3588533,46.9743266 C56.5964023,46.5245855 50.7193082,47.1965722 45.6642048,50.0866404 C45.4787287,50.1925134 45.2947266,50.3027612 45.1120347,50.415634 C43.9736293,51.1182452 42.9025356,51.9573537 42.0596635,53.0300826 C40.0059152,55.6454062 39.561919,59.2538352 39.2328116,62.6496435 C38.9772395,65.2868416 38.7407472,67.9275397 38.6012922,70.5752377 C38.5574003,71.4099713 38.5967883,72.5675735 38.5673906,73.7383005 C38.7926642,72.7416951 38.9995949,71.7625893 39.1984187,70.8202329 C40.4162554,65.0418465 41.6121462,59.1733368 42.7530083,53.3792007 C42.7774109,53.2549532 42.8800165,53.1700798 42.994332,53.1700798 C43.0112009,53.1700798 43.0283973,53.1718298 43.04543,53.1753297 C43.1789073,53.2059541 43.2643982,53.3450764 43.2362288,53.4876986 C42.0949572,59.2844596 40.8984932,65.1547192 39.6800833,70.9357306 C38.9694601,74.3070393 38.1640108,78.1289642 36.7286798,81.6428951 C36.2380076,82.8442465 35.5892917,84.1567207 34.4835595,84.905706 C35.3873561,86.6539216 36.4216002,88.3400135 37.5603333,89.9228574 C37.6107762,89.992856 37.6249428,90.0856042 37.5980836,90.1696025 C37.5713881,90.2527259 37.5071061,90.3165996 37.4270198,90.3393492 C36.3664897,90.6359683 35.2243992,90.600969 34.1795097,90.245726 C33.6572287,92.9222984 33.6572287,95.2208782 34.1786908,97.2630881 C34.8215108,99.7804136 36.3498664,101.848873 38.2671077,102.795604 C38.3385139,102.830604 38.3856813,102.898852 38.4026321,102.974101 C38.4149972,103.0301 38.4116398,103.089599 38.3874829,103.145597 C38.3302432,103.278595 38.182845,103.335469 38.0598494,103.27422 C37.8145133,103.153472 37.5755644,103.01435 37.3431666,102.860353 C35.6356402,101.729 34.3013589,99.7489142 33.7021852,97.4022103" id="path36" fill="#172C4B"></path>
                        <path d="M97.1153505,36.2566623 C96.7517683,36.2759119 96.4430509,35.9757928 96.4258545,35.5881754 C96.4078391,35.1996831 96.6887146,34.8698146 97.051478,34.8514399 C97.4150602,34.8330653 97.7237776,35.1323094 97.740974,35.5208018 C97.7581705,35.9084191 97.4781139,36.2382877 97.1153505,36.2566623" id="path38" fill="#172C4B"></path>
                        <path d="M94.9256683,34.8041908 C94.562086,34.8225655 94.2533687,34.5233214 94.2361722,34.134829 C94.2181569,33.7472116 94.4990324,33.4173431 94.8617957,33.3980935 C95.225378,33.3797188 95.5340953,33.678963 95.5512918,34.0674553 C95.5693071,34.4559477 95.2884316,34.7858162 94.9256683,34.8041908" id="path40" fill="#172C4B"></path>
                        <path d="M92.9513512,33.6728381 C92.5885878,33.6912127 92.2798705,33.3919686 92.2618551,33.0034762 C92.2446587,32.6158589 92.5247153,32.2859903 92.8882975,32.2667407 C93.2518797,32.2483661 93.5597782,32.5476102 93.5777936,32.9361026 C93.59499,33.3245949 93.3149334,33.6544634 92.9513512,33.6728381" id="path42" fill="#172C4B"></path>
                        <polyline id="path44" fill="#ADD9E6" points="150.647104 109.235478 143.001231 105.998916 141.742614 105.466052 134.882047 62.8482646 136.342927 61.9715318 142.585241 58.2257304 150.647104 109.235478"></polyline>
                        <path d="M145.9754,56.2552692 C145.597896,56.3305177 145.182725,56.1931454 144.786387,55.9385254 C143.965871,55.4117858 143.21414,54.2008096 143.059372,53.5270728 L142.371513,53.1385804 C142.623728,53.7589432 142.850558,54.4659293 142.443575,55.0539178 C142.256051,55.3242875 141.964531,55.4940341 141.652538,55.5456581 C141.284042,55.6069069 140.9352,55.5211586 140.623207,55.346162 C140.203122,55.1107917 139.888672,54.7056746 139.708519,54.2366839 L138.739785,51.7167334 C138.647252,51.4866129 138.520326,51.1593693 138.382754,50.8811248 L137.573702,50.3386355 C137.8816,50.8872497 138.085501,51.5548616 138.152649,52.1813493 C138.218978,52.8008371 138.117437,53.5410725 137.490995,53.7598182 C137.208482,53.8586913 136.898946,53.8018174 136.640999,53.6443205 C136.058776,53.2890775 135.809837,52.6310904 135.548614,52.0133526 C134.787876,50.210888 133.737254,48.4731721 132.181384,47.4030682 C132.151085,47.3820686 132.119968,47.361069 132.088851,47.3391944 L118.565884,39.7110944 C118.475807,37.952379 118.721471,35.7307976 119.329898,33.3928436 C119.834328,31.4556317 120.250318,29.5980432 120.996317,28.23307 C121.288656,28.3188183 121.868423,28.5655635 122.20662,28.7274353 C123.631469,29.4064219 125.031752,30.1904065 126.401737,31.0461397 C129.057361,32.7042321 131.596704,34.6344442 133.97391,36.6171552 C138.924033,40.7453241 142.972571,45.9287222 146.267739,53.9391897 C146.304589,54.0021885 146.342257,54.0651872 146.377469,54.128186 C146.745965,54.7817981 147.106271,56.0303986 145.9754,56.2552692" id="path46" fill="#F0A258"></path>
                        <path d="M130.019544,42.4244161 C129.928648,42.4244161 129.841028,42.47779 129.798446,42.5714132 C129.737849,42.7017856 129.787801,42.8601575 129.909814,42.9249062 C133.441639,44.7921195 136.622983,48.0479305 138.015896,51.2206181 C138.074037,51.3527405 138.220616,51.4096144 138.344267,51.3474906 C138.467918,51.2853669 138.521145,51.1287449 138.463004,50.9966225 C137.025872,47.7224369 133.75445,44.3686278 130.129273,42.4515405 C130.094062,42.4331659 130.056393,42.4244161 130.019544,42.4244161" id="path48" fill="#172C4B"></path>
                        <path d="M132.075749,39.6769701 C131.988129,39.6769701 131.902965,39.7268441 131.857927,39.8152173 C131.793235,39.9429648 131.837455,40.1030867 131.95783,40.1730853 C137.52375,43.4052718 140.994978,49.9667678 142.568863,53.5909465 C142.626185,53.723069 142.772764,53.7808178 142.897234,53.718694 C143.020884,53.6574452 143.074112,53.5008233 143.01679,53.3687009 C141.417519,49.6858983 137.884057,43.0141545 132.192848,39.7093444 C132.155999,39.6874699 132.115055,39.6769701 132.075749,39.6769701" id="path50" fill="#172C4B"></path>
                        <path d="M133.812591,55.7617789 C133.897754,53.8481915 130.97927,54.1509355 129.908176,54.481679 C130.310246,54.3583065 130.666458,54.0975616 130.937507,53.7580683 C131.503352,53.0493322 131.223296,51.9337291 130.40196,51.6204853 C129.431589,51.2503676 128.771572,51.7674824 127.866711,51.5802361 C127.84542,51.5758612 127.844601,51.5443618 127.865073,51.5373619 C127.894553,51.5268621 127.923214,51.5154873 127.951874,51.5023626 C128.594694,51.2039935 128.667575,50.2502622 128.113193,49.7908962 C126.827554,48.7277921 125.618069,49.7322724 124.573999,49.8748946 C120.244586,51.2319929 116.871624,52.1769743 113.451166,51.6248602 C112.112299,51.4087394 111.630798,49.5581508 112.693703,48.6621684 C112.847653,48.531796 118.811548,48.9990368 119.926042,48.7444168 C120.247043,48.6700433 120.571319,48.5387959 120.786684,48.275426 C121.292751,47.6576882 120.933263,46.6164586 120.282254,46.1798422 C119.631246,45.7449758 118.816461,45.7371009 118.049171,45.7082265 C112.873038,45.5174802 108.112895,43.3352731 103.250391,41.309688 C101.855841,40.7295744 100.45392,40.1617105 99.0307083,39.6594704 C97.8867345,41.4811846 96.7181943,44.1262576 95.7920422,47.1746977 C95.1819774,49.1836582 94.7528848,51.1147452 94.5088589,52.8262116 C96.0647289,53.7519434 97.5886626,54.7275492 99.0749278,55.7792785 C99.9822457,56.418016 100.874005,57.0873778 101.751024,57.792614 C105.462183,60.7719304 110.766062,62.2751508 115.405011,62.1211539 C116.869986,62.0721548 118.294016,61.6381634 119.701669,61.2067968 C124.255455,59.8129492 128.001826,58.9160919 132.603926,57.0156292 C133.05349,56.8301329 133.682389,56.5973874 133.783111,56.0216488 C133.799489,55.9306506 133.808496,55.8440273 133.812591,55.7617789" id="path52" fill="#F0A258"></path>
                        <path d="M128.267962,51.12437 C128.21801,51.12437 128.168058,51.1401197 128.124658,51.1733691 C125.606605,53.1000812 115.533575,54.8264223 114.659013,54.7599236 C114.524717,54.7502988 114.40516,54.8587966 114.395334,55.0049188 C114.386326,55.1501659 114.488686,55.2761634 114.62462,55.2857882 C115.519654,55.3540369 125.740901,53.6460705 128.412084,51.6029856 C128.522633,51.5181123 128.548018,51.3527405 128.469406,51.2346179 C128.421092,51.1628693 128.344936,51.12437 128.267962,51.12437" id="path54" fill="#172C4B"></path>
                        <path d="M131.446031,53.3678259 C131.371513,53.3678259 131.298633,53.4028252 131.250319,53.4701989 C130.695938,54.2384338 127.707848,55.3724115 123.25806,56.5046393 C119.180862,57.5414939 115.930732,58.0647336 115.568787,57.9544858 C115.438585,57.9142366 115.301014,57.994735 115.263345,58.1347322 C115.225677,58.2738545 115.299376,58.4199766 115.429578,58.4602258 C116.483475,58.7909693 130.162847,55.8387774 131.640924,53.7930676 C131.72445,53.6775698 131.704796,53.5121981 131.596704,53.4229498 C131.551666,53.3862006 131.498439,53.3678259 131.446031,53.3678259" id="path56" fill="#172C4B"></path>
                        <path d="M129.427494,62.8316399 C129.961403,62.8316399 130.650899,62.6461435 130.712315,61.963657 C130.777007,61.2461711 130.082597,60.8471789 129.532311,60.6958069 C126.843931,59.9538215 124.131804,59.3640831 121.407394,58.9274666 C120.744921,58.8207187 120.066889,58.7244706 119.419156,58.909092 C118.673157,59.1208378 118.025424,59.6869517 117.398163,60.2416908 C116.232898,61.2724206 113.560077,62.2987754 117.775666,62.1500283 C119.067038,62.1045292 120.360867,62.1430284 121.652239,62.2427765 C124.243991,62.4431475 126.830829,62.8307649 129.427494,62.8316399" id="path58" fill="#F0A258"></path>
                        <path d="M125.340469,59.316834 C125.311809,59.316834 125.283148,59.3220839 125.255306,59.3325837 C121.703009,60.7264313 116.232079,61.657413 116.177214,61.6670378 C116.042918,61.6897873 115.951204,61.8245347 115.972494,61.9689069 C115.992966,62.112404 116.120712,62.2112771 116.254189,62.1885275 C116.309873,62.1789027 121.827479,61.2391712 125.425633,59.8286989 C125.553378,59.7779499 125.618888,59.6265779 125.572212,59.4900806 C125.535363,59.3833327 125.441192,59.316834 125.340469,59.316834" id="path60" fill="#172C4B"></path>
                        <g id="Group-6" transform="translate(37.4714, 93.6851)">
                            <path d="M35.8010241,43.0292193 C36.3032183,43.5312732 36.0833781,44.386239 35.4144805,44.7261442 C34.7445409,45.0669166 33.7912055,44.8839574 33.3025559,44.3732324 C33.3838239,44.9117047 33.4463377,45.5117415 33.0545845,45.9461613 C32.6826274,46.3580362 31.9866405,46.4907033 31.3750471,46.4039928 C30.7644957,46.3164152 30.2154161,46.0493468 29.681965,45.7866139 C29.7465626,46.3736441 29.6632109,47.1488362 28.976601,47.2945099 C28.5598423,47.3829546 28.1462094,47.1679125 27.7930064,46.9632757 C27.2074605,46.6251047 26.6219146,46.2860665 26.0363686,45.9470284 C26.1145109,46.3918533 25.5404258,46.7707783 25.0007234,46.7577718 C24.4610209,46.7438981 23.9890417,46.4560191 23.6035399,46.1412599 C23.2169963,45.8265007 22.8690028,45.4675192 22.4001493,45.2455402 C22.0427787,45.5655021 21.4332692,45.61406 20.9373264,45.4718547 C20.4413836,45.3287823 20.0350439,45.0304981 19.6578773,44.7278784 C17.7157819,43.1705574 16.1508531,41.3218891 14.6724018,39.4454734 C12.4917121,36.6768064 10.4350081,33.7373196 9.74631438,30.477004 C9.50459436,29.3306909 9.4608347,28.1522949 9.63170575,26.9964436 C9.86092301,25.4495279 10.5391977,23.6355437 11.7352951,22.3149425 C12.3270924,22.8421424 12.8956077,23.5602682 13.3165339,23.9357248 C12.8664346,24.1212853 12.4704639,24.3840419 12.1442915,24.7022567 C11.5344003,25.2972687 11.1871807,25.8489994 10.9662986,26.6224573 C10.6724838,27.6525783 10.5433653,28.7349896 11.2247657,29.628108 C12.199981,30.9062211 14.7797171,31.251329 15.3954781,29.5908224 C15.4100646,29.5500685 15.4225674,29.5101817 15.4371539,29.4694277 C15.6236534,30.2558922 15.87996,31.0284829 16.2269116,31.7785289 C17.281311,34.0572815 19.2463281,36.121859 21.9302539,37.110359 C23.1013458,37.5413103 24.3745435,37.7580866 25.649825,37.8569366 C27.1095222,37.9705274 28.6244399,37.9245708 29.9736961,37.44853 C31.4177649,36.9395393 32.5753121,35.9588432 33.3411061,34.8177328 C34.0339674,35.5027459 34.6914042,36.2103038 35.2634054,36.9672866 C36.1604785,38.1560879 36.8397951,39.4558786 37.3086486,40.8042273 C37.4941062,41.337497 37.6451812,41.9201917 37.4034612,42.4369864 C37.1606993,42.9546482 36.366774,43.3231679 35.8010241,43.0292193 Z" id="path62" fill="#D45B4F"></path>
                            <path d="M25.5000676,38.2624259 C24.2458501,38.1625577 22.9936821,37.9435486 21.8419334,37.5081585 C19.2023386,36.5094768 17.2697781,34.4236339 16.2327944,32.12141 C15.8915735,31.3636384 15.6395004,30.5830898 15.4560813,29.7885247 C15.4417357,29.8296984 15.4294394,29.8699961 15.4150938,29.9111698 C14.8095035,31.5887798 12.2723774,31.2401172 11.31327,29.9488394 C10.6431244,29.0465218 10.6267294,27.8857734 10.9156913,26.845042 C11.132925,26.0636175 11.5182075,25.3023418 12.1442915,24.7022567 C12.4732162,24.3877596 12.873869,24.1231966 13.3165339,23.9357248 C12.9025602,23.556401 12.3973893,23.0929777 11.8153668,22.5603475 C7.53524742,18.6418362 6.0765335,16.8149425 1.68509628,11.2752451 C-0.819871327,8.11528598 -0.497789631,3.32382166 2.42297944,0.649282198 C4.82226761,-0.409022154 7.23381647,0 8.70171577,0.649282198 L12.8748937,5.41193278 C12.7498818,6.70759078 12.8000915,8.01901743 12.8984615,9.32518787 C12.9476465,9.97695904 13.0091277,10.6287302 13.0665102,11.2752451 C13.1597568,12.3361254 13.9836055,20.5524718 14.6414548,22.3939005 C14.6281339,22.6190419 14.6158376,22.8424312 14.6066154,23.0631924 C14.5943192,23.3277555 14.6773189,24.6558268 14.7008867,25.6799135 C14.7090842,26.0259479 15.2747116,26.1047912 15.4109951,25.7780296 C15.4929701,25.5835495 15.5708463,25.3995818 15.6589694,25.259416 C15.902845,24.8713318 16.178486,24.4981402 16.4664231,24.132833 C17.8692202,22.3536029 20.7537154,19.982172 22.9403983,18.9291761 C25.4150185,17.7386425 28.1273662,17.1043921 30.7761832,17.965536 C31.720945,18.2730248 32.6605834,18.7653573 33.1483346,19.501228 C33.5264443,21.1954826 33.8277024,22.9020017 34.0490349,24.6164052 C34.333898,26.8213891 34.7816864,29.2751673 34.3482436,31.4678867 C34.1023186,32.7136106 33.8625417,33.8997641 33.1647296,35.0351074 C33.1319396,35.0876696 33.0981249,35.1402318 33.0643102,35.1919179 C32.311165,36.344782 31.1727372,37.3355793 29.7525204,37.8498127 C28.4255502,38.3307567 26.9356547,38.3771867 25.5000676,38.2624259 Z" id="path64" fill="#F0A258"></path>
                            <path d="M12.8615125,11.5297477 C12.7896472,10.8444756 12.7126487,10.1536322 12.6510499,9.46278874 C12.5278523,8.07831621 12.4649701,6.68827236 12.6215338,5.31494247 L18.5286042,11.4526778 C16.0248687,15.0823915 15.1060196,19.5208749 14.8339582,23.3149425 C14.0100739,21.3631241 12.9782936,12.6542254 12.8615125,11.5297477 Z" id="path66" fill="#172C4B"></path>
                            <path d="M22.9766291,19.3028212 C20.7602989,20.3492068 17.8366956,22.7057506 16.4148792,24.4738115 C16.1230382,24.8368254 15.8436601,25.2076742 15.596478,25.5933221 C15.5071601,25.7326081 15.428228,25.9154209 15.3451416,26.1086801 C15.2070104,26.4333904 14.6337141,26.3550421 14.6254055,26.0111799 C14.6015181,24.9935221 14.5173931,23.6737879 14.5298561,23.4108857 C14.5392033,23.1915103 14.5516663,22.9695234 14.5651678,22.7457953 C14.7853468,19.1887808 15.5289703,15.0276136 17.5552403,11.6246841 C18.6530196,9.78262767 20.1246878,8.16255816 22.0948745,6.98298042 C23.8739624,5.91918411 26.2990472,6.20994349 27.9888173,7.26329336 C29.5290317,8.22262522 30.5364546,9.67119893 31.2551521,11.1624289 C32.6426953,14.0412951 33.0913619,17.1665232 33.5286042,20.2499655 C33.474598,20.1167734 33.4039746,19.991416 33.3229653,19.8712819 C32.8286011,19.1400308 31.8762231,18.6507889 30.9186521,18.3452304 C28.2339222,17.4894925 25.4848003,18.1197613 22.9766291,19.3028212 Z" id="path68" fill="#D45B4F"></path>
                            <path d="M23.4801241,26.3161294 C22.9292616,26.3427786 22.504128,26.8107391 22.5296999,27.3629111 C22.5563373,27.9150831 23.0251564,28.3404048 23.5760189,28.3137555 C24.1279468,28.2871063 24.5530805,27.8191459 24.5275085,27.2669739 C24.5008711,26.7148019 24.032052,26.2894802 23.4801241,26.3161294 Z" id="path70" fill="#172C4B"></path>
                            <path d="M32.4806369,26.3161267 C31.9284641,26.3427759 31.5031419,26.811803 31.5297911,27.3629098 C31.5553744,27.9150825 32.0244015,28.3404048 32.5765742,28.3137555 C33.127681,28.2881722 33.5540693,27.8191452 33.52742,27.2669724 C33.5007707,26.7158656 33.0317437,26.2894774 32.4806369,26.3161267 Z" id="path72" fill="#172C4B"></path>
                            <path d="M29.837465,19.4066516 C28.8927954,19.6710945 28.1804057,20.3647006 27.607967,20.9220785 C27.4971724,21.0298145 27.5030037,21.1998771 27.6215734,21.3013804 C27.7381992,21.4028837 27.9248006,21.3984318 28.0355952,21.2898055 C28.5876244,20.7520159 29.2135166,20.1429959 30.0085163,19.9204009 C30.7043841,19.7254077 31.6422505,19.9675911 31.8580084,20.5828437 C31.976578,20.9229689 31.8706429,21.3200784 31.7647077,21.6281499 C31.4702273,22.4909282 30.9755392,23.3091874 30.4973731,24.0998449 C30.2806434,24.4595585 30.0551667,24.8317374 29.8500995,25.2065874 C28.9899837,26.7745467 28.7071659,28.101213 28.9860961,29.2649397 C29.3204237,30.6610556 30.9172263,32.585167 33.2759847,32.2833281 C33.4363453,32.2628494 33.5481118,32.1275116 33.5257585,31.9805989 C33.5034052,31.8336862 33.3556791,31.7312925 33.1953185,31.7517712 C31.2865416,31.9957354 29.8569027,30.3975031 29.5585348,29.1491903 C29.3097329,28.1118975 29.5760287,26.9009806 30.3739441,25.4478804 C30.5741518,25.0828245 30.795741,24.7150976 31.010527,24.3598359 C31.5022995,23.5451382 32.0115658,22.7028386 32.3245119,21.7893087 C32.455716,21.4046645 32.5849764,20.9024901 32.4158688,20.4190138 C32.1592919,19.6844502 31.3351357,19.3149425 30.5216702,19.3149425 C30.2884184,19.3149425 30.0551667,19.3452154 29.837465,19.4066516 Z" id="path74" fill="#172C4B"></path>
                            <path d="M19.5921197,30.3857719 C19.4896915,30.4650766 19.5137923,30.5794934 19.6453422,30.6418475 C21.2490458,31.3925184 23.5456459,31.5293343 25.3612352,30.9814656 C25.5108607,30.9366675 25.5711126,30.8270937 25.4968019,30.7368922 C25.4214871,30.6466906 25.2397273,30.6097624 25.0901019,30.6551659 C23.4793688,31.1412858 21.4398434,31.0196045 20.0178995,30.3530814 C19.9616644,30.3276554 19.8963916,30.3149425 19.8321229,30.3149425 C19.7417451,30.3149425 19.6523715,30.3391577 19.5921197,30.3857719 Z" id="path76" fill="#172C4B"></path>
                            <path d="M34.4417846,24.2606887 C32.3217826,24.3423061 30.6782325,25.7987976 30.7806278,27.5068726 C30.8819784,29.2149475 32.6906149,30.5376539 34.8116617,30.4560365 C36.9327085,30.3735777 38.5752138,28.9170862 38.4738632,27.2090112 C38.3714679,25.5009362 36.5628314,24.1782299 34.4417846,24.2606887 Z M23.3715918,23.1643233 C21.250545,23.2467821 19.6069949,24.7032736 19.7093903,26.4113486 C19.8117856,28.1194236 21.6193773,29.4421299 23.741469,29.3596711 C25.8614709,29.2780537 27.505021,27.8215622 27.4026257,26.1134873 C27.3012752,24.4054123 25.4926387,23.082706 23.3715918,23.1643233 Z M34.8618145,31.3008184 C32.7094222,31.3841186 30.8119734,30.329824 30.0649051,28.7976051 C29.6699516,28.843883 29.2938054,28.8548214 28.8560129,28.7706797 C28.4892704,28.7008422 28.0922271,28.506475 27.7892204,28.2481603 C26.9794611,29.3630368 25.5093563,30.1379811 23.7916218,30.204453 C21.8367062,30.2801805 20.0907608,29.4177288 19.2266693,28.1110094 L14.3806519,31.2225667 C14.1539193,31.3681317 13.8237465,31.3386821 13.6429873,31.1552534 C13.4622282,30.972666 13.4998428,30.7067785 13.7265754,30.5612135 L18.8244018,27.2889457 C18.7345446,27.020534 18.6770778,26.7403424 18.6603602,26.4517366 C18.5307987,24.277517 20.6215449,22.423877 23.321439,22.3195414 C26.0202882,22.2152058 28.3220942,23.8988797 28.4516557,26.0730993 C28.4756873,26.4786619 28.4223999,26.8724447 28.3032869,27.2460335 C28.3241839,27.2872629 28.3388119,27.331858 28.3429913,27.3789773 C28.3576192,27.572503 28.7745146,27.8863513 29.0994631,27.9477747 C29.3366442,27.9932111 29.5487489,27.9957354 29.78593,27.9747 C29.7587639,27.8341835 29.7399566,27.6919841 29.7315978,27.5472605 C29.6020363,25.3738824 31.6927825,23.5202424 34.3916317,23.4159068 C37.0915258,23.3115712 39.3933318,24.9944037 39.5228933,27.1686232 C39.6524548,29.3428428 37.5617086,31.1964828 34.8618145,31.3008184" id="path78" fill="#ADD9E6"></path>
                            <path d="M30.7034114,18.004119 C30.4427141,18.0010674 30.1869543,17.915622 29.9657566,17.7721959 C29.0424538,17.1740783 27.8831409,16.9869122 26.8255395,17.251386 C26.1609589,17.4182079 25.5418029,17.7620238 25.0352207,18.2350249 C24.8061231,18.4486384 24.4348269,18.1984055 24.5503632,17.9034155 C24.5503632,17.9003639 24.5513507,17.8983295 24.5523382,17.8962951 C24.7113241,17.5178942 25.0026335,17.1893364 25.2653058,16.8851915 C26.4927554,15.4631364 30.5335632,14.2994518 31.4252664,16.6919222 C31.6800387,17.3775196 31.4726659,18.0122567 30.7034114,18.004119" id="path80" fill="#172C4B"></path>
                            <path d="M14.9552315,26.3149425 C14.9481765,26.3149425 14.9411214,26.3149425 14.9340664,26.3156709 C14.6984273,26.3214983 14.5178176,26.4242064 14.5291057,26.5458536 L14.6772621,28.105414 C14.6885502,28.2270612 14.8762148,28.322485 15.123142,28.3144724 C15.3587811,28.3086449 15.5393908,28.2052084 15.5281027,28.0842897 L15.3799463,26.5240008 C15.3686582,26.4067242 15.1795825,26.3149425 14.9552315,26.3149425" id="path82" fill="#172C4B"></path>
                            <path d="M33.8433043,40.3149425 C33.7733954,40.3149425 33.7024431,40.3332837 33.6440117,40.3699663 C33.5094109,40.4536981 33.489586,40.6052129 33.6001882,40.7080835 C34.2742355,41.3380662 34.9722814,41.9895798 35.4240809,42.7280152 C35.9134434,43.5270564 36.0292627,44.3340722 35.7527572,45.0015348 C35.7005864,45.1283287 35.7924071,45.2630972 35.9572669,45.3037669 C36.1242136,45.3436393 36.3005511,45.273464 36.3527219,45.14667 C36.6772246,44.3643751 36.5499277,43.4329578 35.9937865,42.5238689 C35.5085977,41.7312072 34.7855098,41.0557701 34.0874639,40.403459 C34.0248589,40.3452454 33.9340816,40.3149425 33.8433043,40.3149425" id="path84" fill="#172C4B"></path>
                            <path d="M31.7954524,43.3149425 C31.7087014,43.3149425 31.6237209,43.3532305 31.5723785,43.4234252 C31.491824,43.5343009 31.5254621,43.6834646 31.6485069,43.7568499 C32.5930304,44.3176098 33.1338963,45.4128065 32.9621647,46.4202598 L32.9488865,46.4968359 C32.9108223,46.7018363 32.868332,46.934755 32.9745577,47.1660784 C33.0312114,47.2889191 33.1870091,47.3471488 33.3233321,47.2968958 C33.4596551,47.2458451 33.5242758,47.1054557 33.4685073,46.982615 C33.4198205,46.877323 33.4463769,46.7305523 33.475589,46.5758049 L33.4897524,46.4936452 C33.6951221,45.2875728 33.0728165,44.0256637 31.942398,43.3548258 C31.8972521,43.3285028 31.8459096,43.3149425 31.7954524,43.3149425" id="path86" fill="#172C4B"></path>
                            <path d="M22.8117138,42.3149425 C22.7179559,42.3149425 22.6260732,42.3594998 22.5716936,42.440594 C22.4891866,42.5662456 22.5286042,42.7319987 22.6607636,42.8113107 C23.7492928,43.4609561 24.701873,44.0696087 25.3413019,44.9473874 C25.9254136,45.751201 26.245128,46.9774177 25.6403896,47.9051006 C25.5578826,48.0307521 25.5981985,48.1965053 25.7313348,48.2749261 C25.8635334,48.3524558 26.0379231,48.3141365 26.12043,48.1875938 C26.8611174,47.0540563 26.4954616,45.5899036 25.8054035,44.6417244 C25.1059696,43.680178 24.1036976,43.0376618 22.9617264,42.3559352 C22.9148475,42.3283097 22.8632806,42.3149425 22.8117138,42.3149425" id="path88" fill="#172C4B"></path>
                            <path d="M13.0366781,34.3149425 C12.9047429,34.3149425 12.7870452,34.3986897 12.7576208,34.5229882 C12.0571301,37.4373913 12.9901686,40.6003915 15.1922532,42.776056 C15.327036,42.90917 15.4665646,43.0396393 15.6060933,43.1692271 C15.9867122,43.5227285 16.3455002,43.8568359 16.6093706,44.2552963 C16.9112081,44.7110575 17.1181281,45.387206 16.7925613,45.9178989 C16.714729,46.0457236 16.7631369,46.2079288 16.899818,46.2802158 C17.0374483,46.3525029 17.2120964,46.3084254 17.2908779,46.1806007 C17.7388882,45.4489145 17.4845095,44.5620756 17.0972463,43.9767266 C16.7973072,43.5244916 16.3977048,43.1533592 16.0113908,42.793687 C15.8756588,42.6676254 15.740876,42.5415638 15.60989,42.411976 C13.5349947,40.3623731 12.6560592,37.3836168 13.3157354,34.6384712 C13.3499057,34.4947786 13.2530899,34.3528491 13.0993236,34.3211133 C13.0774926,34.3167056 13.0566108,34.3149425 13.0366781,34.3149425" id="path90" fill="#172C4B"></path>
                        </g>
                    </g>
                </g>
            </g>
        </g>
    </g>
</svg>