<svg width="168px" height="142px" viewBox="0 0 168 142" version="1.1" xmlns="http://www.w3.org/2000/svg" xmlns:xlink="http://www.w3.org/1999/xlink">
    <g id="Home" stroke="none" stroke-width="1" fill="none" fill-rule="evenodd">
        <g id="Home-Default-2" transform="translate(-34, -266)" fill-rule="nonzero">
            <g id="Explore-Student" transform="translate(34, 266)">
                <g id="g8" transform="translate(84, 71) scale(-1, 1) rotate(-180) translate(-84, -71)translate(0, 0)">
                    <g id="g10" transform="translate(-0, 0)">
                        <path d="M86.9057232,3.74774947 C86.8643014,3.44316205 86.8211538,3.12444885 86.7762802,2.79778989 C87.7212137,2.60179451 88.7118837,2.5320484 89.6680355,2.49585106 C100.787184,2.0782573 110.196823,2.87106744 117.640655,4.85309277 C120.834444,5.7041718 123.250712,6.66825718 125.048243,7.56701076 C125.008547,7.63145969 124.968852,7.69502576 124.929156,7.75859183 C124.613315,8.27153469 124.301789,8.78712614 123.991989,9.30271758 C117.375729,6.5490708 110.567893,4.89370443 103.493405,4.2147835 C97.9834501,3.68506626 92.4294849,3.35929016 86.9057232,3.74774947" id="path14" fill="#F9EBD1"></path>
                        <path d="M128.279139,2.56824575 C126.635214,1.8292902 124.57103,1.07267741 122.003745,0.389342171 C121.7509,0.323127516 121.498918,0.257795723 121.242621,0.19246393 C121.231402,0.190698206 121.217595,0.187166758 121.206377,0.184518172 C120.965613,0.123600689 120.721397,0.0644489308 120.477181,0.00794575859 C120.4651,0.00353144826 120.455608,0.00176572413 120.444389,0 L108.791936,0 C108.928282,0.0158915172 109.062903,0.0335487585 109.198387,0.0512059998 C109.767935,0.121834965 110.32454,0.198643965 110.867338,0.278984413 C111.094294,0.312533171 111.319525,0.34608193 111.54303,0.381396412 C111.92014,0.438782446 112.29121,0.499699929 112.657102,0.565031722 C112.778778,0.584454687 112.899592,0.606526239 113.021268,0.627714928 C113.154163,0.64978648 113.284469,0.673623756 113.415638,0.699226756 C113.640868,0.738072687 113.864373,0.779567204 114.083563,0.822827445 C114.314835,0.866087686 114.543517,0.911996514 114.771337,0.958788203 C114.884383,0.982625479 114.996567,1.00381417 115.109614,1.02765144 C115.44444,1.09651469 115.774088,1.16802651 116.097695,1.2404212 C116.205564,1.2660242 116.312571,1.28986148 116.418714,1.31369875 C116.551609,1.34459893 116.684503,1.37461624 116.815672,1.40551641 C117.077147,1.46908248 117.33517,1.53176568 117.588878,1.59533175 C117.716595,1.62623192 117.841723,1.65978068 117.966851,1.69156372 C118.078172,1.71893244 118.187767,1.74630117 118.297362,1.77631848 C118.482897,1.82575875 118.667569,1.87431616 118.847926,1.92552216 C119.327728,2.05618575 119.791134,2.19214651 120.239869,2.32987299 C120.419364,2.38461044 120.596269,2.44023075 120.771448,2.4949682 C121.120081,2.60532595 121.458359,2.71744944 121.788007,2.82957292 C121.936435,2.88077892 122.082274,2.93198492 122.226387,2.98319092 C122.60436,3.11562023 122.967664,3.25158099 123.318023,3.38754174 C123.35513,3.40078468 123.393099,3.41667619 123.430206,3.43080199 C123.502694,3.45817071 123.576045,3.48730516 123.649396,3.51732247 C123.940212,3.63121167 124.22326,3.74774947 124.495953,3.8634044 C125.318347,4.21036919 126.059624,4.56086543 126.725824,4.90341591 C127.234103,4.11766867 127.753601,3.33986719 128.279139,2.56824575" id="path16" fill="#F9EBD1"></path>
                        <path d="M126.725824,4.90341591 C126.059624,4.56086543 125.318347,4.21036919 124.495953,3.8634044 C124.22326,3.74774947 123.940212,3.63121167 123.649396,3.51732247 C123.576045,3.48730516 123.502694,3.45817071 123.430206,3.43080199 C123.393099,3.41667619 123.35513,3.40078468 123.318023,3.38754174 C122.967664,3.25158099 122.60436,3.11562023 122.226387,2.98319092 C122.082274,2.93198492 121.936435,2.88077892 121.788007,2.82957292 C121.458359,2.71568371 121.120081,2.60532595 120.771448,2.4949682 C120.596269,2.44023075 120.419364,2.38461044 120.239869,2.32987299 C119.791134,2.19214651 119.327728,2.05618575 118.847926,1.92552216 C118.667569,1.87431616 118.482897,1.82575875 118.297362,1.77631848 C118.187767,1.74630117 118.078172,1.71893244 117.966851,1.69156372 C117.841723,1.65978068 117.716595,1.62623192 117.588878,1.59533175 C117.33517,1.53176568 117.077147,1.46908248 116.815672,1.40551641 C116.684503,1.37461624 116.551609,1.34459893 116.418714,1.31369875 C116.312571,1.28986148 116.205564,1.2660242 116.097695,1.2404212 C115.774088,1.16802651 115.44444,1.09651469 115.109614,1.02765144 C114.996567,1.00381417 114.884383,0.982625479 114.771337,0.958788203 C114.543517,0.911996514 114.314835,0.866087686 114.083563,0.822827445 C113.864373,0.779567204 113.640868,0.738072687 113.415638,0.699226756 C113.284469,0.673623756 113.154163,0.64978648 113.021268,0.627714928 C112.899592,0.606526239 112.778778,0.584454687 112.657102,0.565031722 C112.29121,0.499699929 111.92014,0.438782446 111.54303,0.381396412 C111.319525,0.34608193 111.094294,0.312533171 110.867338,0.278984413 C110.32454,0.198643965 109.767935,0.121834965 109.198387,0.0512059998 C109.062903,0.0335487585 108.928282,0.0158915172 108.791936,1.49213975e-13 L86.3862255,1.49213975e-13 C86.5173943,0.931419479 86.652015,1.89815344 86.7754173,2.79867275 C87.7203507,2.60179451 88.7118837,2.5320484 89.6688985,2.49673392 C100.787184,2.07737444 110.196823,2.87106744 117.641518,4.85220991 C120.835307,5.70328894 123.250712,6.66825718 125.049106,7.5661279 C125.597081,6.67443721 126.155412,5.78362939 126.725824,4.90341591" id="path18" fill="#ADD9E6"></path>
                        <path d="M130.088751,1.47437618e-13 L120.444389,1.47437618e-13 C120.455608,0.00176572413 120.4651,0.00353144826 120.477181,0.00794575859 C120.721397,0.0644489308 120.965613,0.123600689 121.206377,0.184518172 C121.217595,0.187166758 121.231402,0.190698206 121.242621,0.19246393 C121.498918,0.257795723 121.7509,0.323127516 122.003745,0.389342171 C124.57103,1.07267741 126.635214,1.8292902 128.279139,2.56824575 C128.579447,2.12858044 128.883206,1.69156372 129.189554,1.25631272 C129.48641,0.835187514 129.786718,0.414945171 130.088751,1.47437618e-13" id="path20" fill="#ADD9E6"></path>
                        <path d="M86.9057232,3.74774947 C86.8634385,3.44227919 86.8211538,3.12533171 86.7754173,2.79867275 C86.652015,1.89815344 86.5173943,0.931419479 86.3862255,1.49213975e-13 L70.3508339,1.49213975e-13 C71.2766961,2.17007496 72.3874029,4.7895267 73.3271586,7.01080766 C76.62105,5.49493349 80.361088,4.47611067 83.5876691,4.0682284 C84.6922489,3.92873619 85.7994175,3.82632419 86.9057232,3.74774947" id="path22" fill="#518D51"></path>
                        <path d="M96.5345521,68.3502982 C99.5022473,68.6257512 102.2706,70.1910656 104.787834,73.0003327 C104.640269,73.7101538 104.497882,74.3979034 104.360672,75.0618157 C101.902982,72.9341181 99.2243764,71.7290114 96.3585097,71.4694499 C95.7363206,71.4129467 95.1262129,71.4032353 94.5333642,71.4323697 C91.4137893,71.5859877 88.7498536,72.8105174 86.9488708,73.9123293 C86.9428301,73.1548336 86.9376524,72.3893922 86.9342006,71.6177707 C88.1259386,70.662514 91.9755717,67.9274073 96.5345521,68.3502982" id="path24" fill="#F9EBD1"></path>
                        <path d="M96.1591676,74.0218041 C98.8740175,74.2734198 101.422318,75.6065416 103.764372,77.9823234 C103.605589,78.7671877 103.458024,79.5034947 103.321677,80.1850642 C101.047796,78.3972685 98.5926949,77.37668 95.9822622,77.140073 C95.3600731,77.0835698 94.7499654,77.0738583 94.1579797,77.1029928 C91.29125,77.2442507 88.8085344,78.2895594 87.0273995,79.3127965 C87.0110034,78.5429408 86.9963332,77.7580764 86.9851148,76.9599691 C88.5151304,75.8254913 92.0497857,73.6412906 96.1591676,74.0218041" id="path26" fill="#F9EBD1"></path>
                        <path d="M95.4066726,85.3630502 C97.636543,85.56964 99.7550925,86.5072395 101.739021,88.1511286 C101.592319,88.9766047 101.457699,89.8056122 101.328256,90.6390339 C99.4090483,89.3986127 97.3724794,88.6755487 95.2306302,88.4813191 C94.6075782,88.4248159 93.9983334,88.4151044 93.4054847,88.4442388 C91.1523146,88.5554795 89.1373195,89.2255718 87.513242,90.0033733 C87.4485206,89.2388147 87.3898398,88.4186358 87.3371996,87.5507824 C89.1537156,86.4171875 92.0929333,85.0558142 95.4066726,85.3630502" id="path28" fill="#F9EBD1"></path>
                        <path d="M96.9107996,62.6796752 C100.139969,62.9789654 103.134416,64.8029585 105.824241,68.0995654 C105.685305,68.7475862 105.548959,69.3841297 105.416927,70.0091961 C102.775428,67.4956878 99.8672764,66.0822256 96.7347572,65.7988269 C96.1125681,65.7423237 95.5024604,65.7326122 94.9096117,65.7617467 C91.5527248,65.9268419 88.7205132,67.3323583 86.927297,68.4906733 C86.9281599,67.7526006 86.9290229,67.0101136 86.9307488,66.264978 C87.0420697,66.1643318 91.474196,62.1746781 96.9107996,62.6796752" id="path30" fill="#F9EBD1"></path>
                        <path d="M95.7829201,79.6924272 C98.2544173,79.9210885 100.588705,81.0476205 102.754717,83.0402401 C102.533801,84.1570607 102.377606,84.9525194 102.292174,85.3665817 C100.203828,83.8807248 97.9687799,83.0252315 95.6060147,82.810696 C94.9838257,82.7541928 94.3737179,82.7444814 93.7817322,82.7736158 C91.1937363,82.9007479 88.9207183,83.7659528 87.1922235,84.6850122 C87.1594313,83.9089764 87.1300909,83.1055719 87.1042023,82.2774473 C88.8240676,81.1005922 92.0679077,79.3472281 95.7829201,79.6924272" id="path32" fill="#F9EBD1"></path>
                        <path d="M97.6632945,51.3384291 C101.134091,51.6606738 104.334784,53.7406968 107.177351,57.521995 C107.399993,57.8195195 107.725326,57.9872633 108.063603,58.0163978 C107.899642,58.7306332 107.737407,59.4395714 107.578624,60.1423296 C104.575548,56.7035819 101.187594,54.7921855 97.4872521,54.4566979 C96.8642001,54.4001947 96.2549553,54.3904833 95.6621067,54.4196177 C91.8357733,54.6076673 88.6937617,56.4078231 86.9928814,57.6146955 C87.000648,56.8210025 87.0101405,56.030841 87.019633,55.2450937 C87.257808,55.2097793 87.4882164,55.1047187 87.679792,54.9263805 C87.7238026,54.8857689 92.1835434,50.8307834 97.6632945,51.3384291" id="path34" fill="#F9EBD1"></path>
                        <path d="M97.8626367,48.7860749 C97.2404476,48.7295717 96.6303399,48.7198602 96.0383542,48.7489947 C91.9678051,48.9494044 88.669599,50.9729242 87.0593288,52.1683194 C87.0722731,51.1901083 87.0860803,50.2242572 87.1007505,49.2742976 C88.1863453,48.5847823 91.0211457,46.9585504 94.5161052,46.3105296 C100.32723,45.2334379 105.211544,47.2640207 109.0327,52.3484233 C109.118132,52.4614296 109.218234,52.555013 109.327829,52.6309392 C109.110365,53.54117 108.89549,54.4469864 108.684067,55.3475057 C105.503222,51.3560863 101.865875,49.1489312 97.8626367,48.7860749" id="path36" fill="#F9EBD1"></path>
                        <path d="M89.3789463,98.9405859 C89.3366616,97.8396569 88.8767077,96.8093569 88.4711198,95.7887684 C88.2096451,95.1301533 87.9895921,94.0857274 87.8049201,92.7287685 C89.6240249,91.7337829 92.1887211,90.7705804 95.0304251,91.0336733 C97.0877049,91.2243715 99.0500599,92.0383703 100.899368,93.4535982 C100.50845,95.9980067 100.075248,98.5847925 99.3728043,101.221019 C95.9969324,102.058855 92.1861322,101.530903 89.2986917,99.6751272 C89.6197102,99.6256869 89.4108756,99.766062 89.3789463,98.9405859" id="path38" fill="#F9EBD1"></path>
                        <path d="M95.9693179,38.2023244 C95.6474365,38.2182159 95.3238291,38.2411704 94.9976329,38.2703048 C91.7382596,38.5642979 88.9638659,39.4701144 87.238823,40.1631611 C87.256945,38.8671196 87.2742041,37.6461213 87.2871484,36.5160579 C88.5720853,36.3712685 89.9018958,36.2794509 91.2601837,36.2600279 C94.9165153,36.2070562 98.5469584,37.1243498 101.889175,38.7391046 C100.022608,38.2826649 98.0438568,38.0999124 95.9693179,38.2023244" id="path40" fill="#F9EBD1"></path>
                        <path d="M97.2870471,57.0090521 C100.757844,57.3312968 103.958536,59.4113198 106.801103,63.1926181 C106.824403,63.2244011 106.849429,63.2535355 106.875317,63.2817871 C106.745011,63.8724218 106.616431,64.4559937 106.489577,65.0325026 C103.665995,62.0837433 100.521395,60.4372055 97.1110047,60.127321 C96.4879526,60.0717007 95.8787079,60.0619892 95.2858592,60.0911236 C91.695112,60.267696 88.705843,61.8630278 86.946282,63.0575402 C86.9505967,62.3124046 86.9557744,61.5663861 86.9618151,60.8221334 C87.0843544,60.7682788 87.1999901,60.6941184 87.3035445,60.5978864 C87.348418,60.5563919 91.8064329,56.5014065 97.2870471,57.0090521" id="path42" fill="#F9EBD1"></path>
                        <path d="M96.5595777,43.4977311 C95.6508883,43.5427571 94.7862094,43.6548805 93.9819373,43.8076157 C91.1341926,44.3488101 88.7231021,45.4373791 87.1456241,46.2946381 C87.1628831,45.1486832 87.1801422,44.0336284 87.1965383,42.9574195 C88.504775,42.3641362 91.5898317,41.1343094 95.2962146,40.8138304 C101.617345,40.2673388 106.760544,42.5045113 110.595507,47.4608989 C110.416876,48.1751343 110.239108,48.8893697 110.063928,49.6018394 C105.674087,44.4830052 100.667234,43.2955557 96.5595777,43.4977311" id="path44" fill="#F9EBD1"></path>
                        <path d="M95.2306302,88.4813191 C97.3724794,88.6755487 99.4090483,89.3986127 101.328256,90.6390339 C101.18328,91.5722191 101.044344,92.5098187 100.899368,93.4535982 C99.0500599,92.0383703 97.0877049,91.2243715 95.0304251,91.0336733 C92.1887211,90.7705804 89.6240249,91.7337829 87.8049201,92.7287685 C87.6953251,91.925364 87.5986744,91.0116017 87.513242,90.0033733 C89.1373195,89.2255718 91.1523146,88.5554795 93.4054847,88.4442388 C93.9983334,88.4151044 94.6075782,88.4248159 95.2306302,88.4813191" id="path46" fill="#ADD9E6"></path>
                        <path d="M95.6060147,82.810696 C97.9687799,83.0252315 100.203828,83.8807248 102.292174,85.3665817 C102.271463,85.4663451 102.255067,85.5449198 102.242986,85.5996573 C102.054862,86.4454391 101.890901,87.2965182 101.739021,88.1511286 C99.7550925,86.5072395 97.636543,85.56964 95.4066726,85.3630502 C92.0929333,85.0558142 89.1537156,86.4171875 87.3371996,87.5507824 C87.2828336,86.644966 87.2345082,85.6888263 87.1922235,84.6850122 C88.9207183,83.7659528 91.1937363,82.9007479 93.7817322,82.7736158 C94.3737179,82.7444814 94.9838257,82.7541928 95.6060147,82.810696" id="path48" fill="#ADD9E6"></path>
                        <path d="M95.9822622,77.140073 C98.5926949,77.37668 101.047796,78.3972685 103.321677,80.1850642 C103.101624,81.2859932 102.911774,82.2438986 102.754717,83.0402401 C100.588705,81.0476205 98.2544173,79.9210885 95.7829201,79.6924272 C92.0679077,79.3472281 88.8240676,81.1005922 87.1042023,82.2774473 C87.073999,81.3204248 87.0489734,80.3298536 87.0273995,79.3127965 C88.8085344,78.2895594 91.29125,77.2442507 94.1579797,77.1029928 C94.7499654,77.0738583 95.3600731,77.0835698 95.9822622,77.140073" id="path50" fill="#ADD9E6"></path>
                        <path d="M96.3585097,71.4694499 C99.2243764,71.7290114 101.902982,72.9341181 104.360672,75.0618157 C104.148386,76.0956471 103.949044,77.0720926 103.764372,77.9823234 C101.422318,75.6065416 98.8740175,74.2734198 96.1591676,74.0218041 C92.0497857,73.6412906 88.5151304,75.8254913 86.9851148,76.9599691 C86.9695817,75.962335 86.9583633,74.9452779 86.9488708,73.9123293 C88.7498536,72.8105174 91.4137893,71.5859877 94.5333642,71.4323697 C95.1262129,71.4032353 95.7363206,71.4129467 96.3585097,71.4694499" id="path52" fill="#ADD9E6"></path>
                        <path d="M96.7347572,65.7988269 C99.8672764,66.0822256 102.775428,67.4956878 105.416927,70.0091961 C105.197737,71.0421447 104.988039,72.0406617 104.787834,73.0003327 C102.2706,70.1910656 99.5022473,68.6257512 96.5345521,68.3502982 C91.9755717,67.9274073 88.1259386,70.662514 86.9342006,71.6177707 C86.9298858,70.585705 86.927297,69.542162 86.927297,68.4906733 C88.7205132,67.3323583 91.5527248,65.9268419 94.9096117,65.7617467 C95.5024604,65.7326122 96.1125681,65.7423237 96.7347572,65.7988269" id="path54" fill="#ADD9E6"></path>
                        <path d="M97.1110047,60.127321 C100.521395,60.4372055 103.665995,62.0837433 106.489577,65.0325026 C106.260895,66.0786941 106.038253,67.1019313 105.824241,68.0995654 C103.134416,64.8029585 100.139969,62.9789654 96.9107996,62.6796752 C91.474196,62.1746781 87.0420697,66.1643318 86.9307488,66.264978 C86.9342006,65.1993635 86.9393783,64.1284518 86.946282,63.0575402 C88.705843,61.8630278 91.695112,60.267696 95.2858592,60.0911236 C95.8787079,60.0619892 96.4879526,60.0717007 97.1110047,60.127321" id="path56" fill="#ADD9E6"></path>
                        <path d="M97.4872521,54.4566979 C101.187594,54.7921855 104.575548,56.7035819 107.578624,60.1423296 C107.33786,61.2052955 107.103137,62.25237 106.875317,63.2817871 C106.849429,63.2535355 106.824403,63.2244011 106.801103,63.1926181 C103.958536,59.4113198 100.757844,57.3312968 97.2870471,57.0090521 C91.8064329,56.5014065 87.348418,60.5563919 87.3035445,60.5978864 C87.1999901,60.6941184 87.0843544,60.7682788 86.9618151,60.8221334 C86.9713076,59.749456 86.9808001,58.6794272 86.9928814,57.6146955 C88.6937617,56.4078231 91.8357733,54.6076673 95.6621067,54.4196177 C96.2549553,54.3904833 96.8642001,54.4001947 97.4872521,54.4566979" id="path58" fill="#ADD9E6"></path>
                        <path d="M108.420003,55.9275461 C108.420003,56.1032357 108.420003,56.2904024 108.41914,56.4811006 C108.29919,56.9949264 108.180965,57.5069864 108.063603,58.0163978 C107.725326,57.9872633 107.399993,57.8195195 107.177351,57.521995 C104.334784,53.7406968 101.134091,51.6606738 97.6632945,51.3384291 C92.1835434,50.8307834 87.7238026,54.8857689 87.679792,54.9263805 C87.4882164,55.1047187 87.257808,55.2097793 87.019633,55.2450937 C87.0317143,54.2086137 87.0455215,53.1818451 87.0593288,52.1683194 C88.669599,50.9729242 91.9678051,48.9494044 96.0383542,48.7489947 C96.6303399,48.7198602 97.2404476,48.7295717 97.8626367,48.7860749 C101.865875,49.1489312 105.503222,51.3560863 108.684067,55.3475057 C108.659904,55.448152 108.636604,55.5487983 108.613304,55.6494446 C108.501121,55.6900562 108.420003,55.7986483 108.420003,55.9275461" id="path60" fill="#ADD9E6"></path>
                        <path d="M109.0327,52.3484233 C105.211544,47.2640207 100.32723,45.2334379 94.5161052,46.3105296 C91.0211457,46.9585504 88.1863453,48.5847823 87.1007505,49.2742976 C87.1154207,48.2616548 87.1300909,47.2666693 87.1456241,46.2946381 C88.7231021,45.4373791 91.1341926,44.3488101 93.9819373,43.8076157 C94.7862094,43.6548805 95.6508883,43.5427571 96.5595777,43.4977311 C100.667234,43.2955557 105.674087,44.4830052 110.063928,49.6018394 C109.814535,50.6144822 109.569456,51.6253593 109.327829,52.6309392 C109.218234,52.555013 109.118132,52.4614296 109.0327,52.3484233" id="path62" fill="#ADD9E6"></path>
                        <path d="M95.2962146,40.8138304 C91.5898317,41.1343094 88.504775,42.3641362 87.1965383,42.9574195 C87.2112085,41.9933341 87.2250158,41.0601489 87.238823,40.1631611 C88.9638659,39.4701144 91.7382596,38.5642979 94.9976329,38.2703048 C95.3238291,38.2411704 95.6474365,38.2182159 95.9693179,38.2023244 C98.0438568,38.0999124 100.022608,38.2826649 101.889175,38.7391046 C105.34789,40.4103625 108.495943,42.8294045 111.040791,45.700472 C110.8915,46.2866924 110.743072,46.8737956 110.595507,47.4608989 C106.760544,42.5045113 101.617345,40.2673388 95.2962146,40.8138304" id="path64" fill="#ADD9E6"></path>
                        <path d="M168,1.49213975e-13 L130.088751,1.49213975e-13 C129.786718,0.414945171 129.48641,0.835187514 129.189554,1.25631272 C128.883206,1.69156372 128.579447,2.12858044 128.279139,2.56824575 C127.753601,3.33986719 127.234103,4.11766867 126.725824,4.90341591 C126.155412,5.78362939 125.597081,6.67443721 125.049106,7.5661279 C125.008547,7.63145969 124.967989,7.6941429 124.929156,7.75947469 C124.613315,8.27153469 124.301789,8.78712614 123.991989,9.30360044 C124.540827,9.53226172 125.087076,9.76445444 125.632462,10.0063586 C126.076883,10.2076512 126.533385,10.4239524 126.993339,10.6640909 C135.457182,15.0289609 146.257038,25.7539693 150.94805,35.2570966 C153.83549,29.2615803 163.695591,6.4025157 168,1.49213975e-13" id="path66" fill="#518D51"></path>
                        <path d="M150.867795,35.4239575 C150.956414,35.3639229 151.039662,35.3083026 151.114854,35.2570966 C151.031606,35.3127169 150.951043,35.3683372 150.867795,35.4239575" id="path68" fill="#518D51"></path>
                        <path d="M101.328256,90.6390339 C101.457699,89.8056122 101.592319,88.9766047 101.739021,88.1511286 C101.890901,87.2965182 102.054862,86.4454391 102.242986,85.5996573 C102.255067,85.5449198 102.271463,85.4663451 102.292174,85.3665817 C102.377606,84.9525194 102.533801,84.1570607 102.754717,83.0402401 C102.911774,82.2438986 103.101624,81.2859932 103.321677,80.1850642 C103.458024,79.5034947 103.605589,78.7671877 103.764372,77.9823234 C103.949044,77.0720926 104.148386,76.0956471 104.360672,75.0618157 C104.497882,74.3979034 104.640269,73.7101538 104.787834,73.0003327 C104.988039,72.0406617 105.197737,71.0421447 105.416927,70.0091961 C105.548959,69.3841297 105.685305,68.7475862 105.824241,68.0995654 C106.038253,67.1019313 106.260895,66.0786941 106.489577,65.0325026 C106.616431,64.4559937 106.745011,63.8724218 106.875317,63.2817871 C107.103137,62.25237 107.33786,61.2052955 107.578624,60.1423296 C107.737407,59.4395714 107.899642,58.7306332 108.063603,58.0163978 C108.180965,57.5069864 108.29919,56.9949264 108.41914,56.4811006 C108.375992,65.1728777 107.112629,88.8715441 106.961612,89.6987858 C106.889987,89.9830674 106.655264,90.235566 106.412774,90.4642273 C105.422967,91.3974125 104.221737,92.1134136 102.939389,92.5345388 C102.850505,92.5636732 102.781468,92.6351851 102.752991,92.7261199 C102.724514,92.8179375 102.74091,92.9168181 102.797002,92.9936271 C103.92747,94.5289242 105.403119,95.7940655 107.078111,96.6654504 C105.743123,99.6495242 103.464927,102.136547 100.635304,103.688618 C100.495506,103.765427 100.442003,103.943765 100.51708,104.087672 C99.928546,103.892559 99.3866116,103.648889 99.0215825,103.346068 C98.2535544,102.708641 99.0759485,102.333425 99.341738,101.341971 C99.3529564,101.302242 99.3624489,101.26163 99.3728043,101.221019 C100.075248,98.5847925 100.50845,95.9980067 100.899368,93.4535982 C101.044344,92.5098187 101.18328,91.5722191 101.328256,90.6390339" id="path70" fill="#518D51"></path>
                        <path d="M86.9057232,3.74774947 C92.4294849,3.35929016 97.9834501,3.68506626 103.493405,4.2147835 C110.567893,4.89370443 117.375729,6.5490708 123.991989,9.30271758 C124.539964,9.53137886 125.087076,9.76445444 125.632462,10.0072415 C126.076883,10.2067683 126.532522,10.4248353 126.992476,10.6640909 C135.458045,15.0298438 146.257038,25.7530864 150.947187,35.2570966 C150.923024,35.3083026 150.896273,35.3639229 150.867795,35.4239575 C150.268906,36.7005761 148.931329,39.862988 148.006243,42.0560173 C143.466248,29.5211417 134.192956,20.8364276 122.074507,14.759688 C109.327829,8.36953238 94.3055446,6.57379094 80.3421031,8.74651448 C77.3114124,9.21796282 74.3204175,9.94720689 71.4167534,10.9536696 C69.9398957,11.4657296 68.4865104,12.0475357 67.0625517,12.6973222 C66.5503029,12.9312807 65.9892109,13.280894 65.4156923,13.6296246 C66.687685,10.9183552 69.7388277,8.66617403 73.3280216,7.01169052 C76.620187,5.49405063 80.361951,4.47699353 83.5876691,4.06911126 C84.6922489,3.92961905 85.7985545,3.82544133 86.9057232,3.74774947" id="path72" fill="#172C4B"></path>
                        <path d="M80.7261171,88.8053294 C82.1275527,88.981019 83.5678212,88.7196918 84.8251436,88.0540138 C84.9002205,88.0151679 84.9545866,87.9436561 84.9735715,87.860667 C84.9934194,87.7767951 84.9761604,87.6885089 84.9269721,87.6187628 L82.4382158,84.0943775 C82.2578586,83.8392303 82.0982123,83.5911461 82.1249639,83.3624848 C82.1327304,83.3050988 82.2423255,82.6641409 82.3942052,81.7777474 C83.3581236,76.1565646 86.2913007,59.0511121 86.891053,53.0997389 C86.9074491,52.9381752 86.7926763,52.7925029 86.633893,52.7757285 C86.6235376,52.7748457 86.6131821,52.7739628 86.6036896,52.7739628 C86.4578506,52.7739628 86.3318595,52.887852 86.3163263,53.0397043 C85.8900276,57.2756765 84.2719908,67.2078747 83.0319274,74.5833044 L78.2779196,38.4557058 C80.7727166,37.6593643 83.8724436,36.9001029 87.2871484,36.5160579 C87.2742041,37.6461213 87.256945,38.8671196 87.238823,40.1631611 C87.2250158,41.0601489 87.2112085,41.9933341 87.1965383,42.9574195 C87.1801422,44.0336284 87.1628831,45.1486832 87.1456241,46.2946381 C87.1300909,47.2666693 87.1154207,48.2616548 87.1007505,49.2742976 C87.0860803,50.2242572 87.0722731,51.1901083 87.0593288,52.1683194 C87.0455215,53.1818451 87.0317143,54.2086137 87.019633,55.2450937 C87.0101405,56.030841 87.000648,56.8210025 86.9928814,57.6146955 C86.9808001,58.6794272 86.9713076,59.749456 86.9618151,60.8221334 C86.9557744,61.5663861 86.9505967,62.3124046 86.946282,63.0575402 C86.9393783,64.1284518 86.9342006,65.1993635 86.9307488,66.264978 C86.9290229,67.0101136 86.9281599,67.7526006 86.927297,68.4906733 C86.927297,69.542162 86.9298858,70.585705 86.9342006,71.6177707 C86.9376524,72.3893922 86.9428301,73.1548336 86.9488708,73.9123293 C86.9583633,74.9452779 86.9695817,75.962335 86.9851148,76.9599691 C86.9963332,77.7580764 87.0110034,78.5429408 87.0273995,79.3127965 C87.0489734,80.3298536 87.073999,81.3204248 87.1042023,82.2774473 C87.1300909,83.1055719 87.1594313,83.9089764 87.1922235,84.6850122 C87.2345082,85.6888263 87.2828336,86.644966 87.3371996,87.5507824 C87.3898398,88.4186358 87.4485206,89.2388147 87.513242,90.0033733 C87.5986744,91.0116017 87.6953251,91.925364 87.8049201,92.7287685 C87.9895921,94.0857274 88.2096451,95.1301533 88.4711198,95.7887684 C88.8767077,96.8093569 89.3366616,97.8396569 89.3789463,98.9405859 C89.4108756,99.766062 89.6197102,99.6256869 89.2986917,99.6751272 C89.1916855,99.6919016 89.0268615,99.7298646 88.7774681,99.8305109 C87.7427875,100.24987 86.6822184,99.6998473 85.8140877,98.8990914 C85.8054582,98.882317 85.7951027,98.8664255 85.7830214,98.850534 C83.4349264,95.925612 81.6917615,92.4612612 80.7261171,88.8053294" id="path74" fill="#518D51"></path>
                        <path d="M65.0893235,63.3065073 C62.8175136,68.1207541 58.7047662,79.1300441 57.1285826,82.4222367 C57.327407,81.050269 56.3534783,78.8060337 54.5469726,76.2775167 C53.5463787,74.8755318 52.2912136,73.3852606 50.8381735,71.9108809 C50.4069559,71.4703328 49.9606366,71.0350818 49.4950735,70.6024794 C47.9351135,69.1492884 46.3673006,67.89739 44.8882855,66.8953416 C44.4304027,66.5845741 43.9814083,66.2976439 43.5432008,66.0371996 C40.7531876,64.3677075 38.4413367,63.7320468 37.3693765,64.4815967 C38.8426961,62.232947 44.1445927,54.4090234 47.8550314,49.1586427 C50.4615808,47.4917991 52.8454883,45.9662134 54.8887883,44.6595776 C58.3846107,50.8890523 61.8355595,57.0328894 65.0893235,63.3065073" id="path76" fill="#518D51"></path>
                        <path d="M54.8887883,44.6595776 C52.8454883,45.9662134 50.4615808,47.4917991 47.8550314,49.1586427 C29.8884375,60.6499753 1.37034531,78.8828427 1.28258299,78.887257 L0.501092807,78.6621272 L0.00437709299,68.0845568 C-0.0615525118,66.6808061 0.621215856,65.3503329 1.78844601,64.6087288 L57.2872797,29.3383893 L60.2688684,35.8724514 L62.1568368,40.0095431 C62.1568368,40.0095431 59.3266964,41.8202932 54.8887883,44.6595776" id="path78" fill="#ADD9E6"></path>
                        <path d="M71.4167534,10.9536696 C74.3204175,9.94720689 77.3114124,9.21796282 80.3421031,8.74651448 C94.3055446,6.57379094 109.327829,8.36953238 122.074507,14.759688 C134.192956,20.8364276 143.466248,29.5211417 148.006243,42.0560173 C148.561985,43.5886659 149.050416,45.175169 149.460319,46.8252382 C156.302673,74.3599403 132.909745,103.949945 114.881795,104.379899 C111.008862,105.043811 106.750189,105.210672 102.919541,104.635046 C102.370703,104.552057 101.6277,104.415214 100.908861,104.208624 C103.932648,102.549726 106.351505,99.8631768 107.719285,96.6442617 C107.781418,96.4985895 107.719285,96.32908 107.579487,96.2602167 C106.003735,95.4868295 104.602299,94.3505861 103.504623,92.9600783 C104.718798,92.5018729 105.852718,91.7947004 106.804555,90.8985954 C107.111766,90.6081338 107.412074,90.2788262 107.523395,89.8373952 C107.688219,89.1814287 109.0094,63.8556475 108.997318,55.9257804 C108.997318,55.7633338 108.867876,55.6309045 108.709092,55.6309045 L108.708229,55.6309045 C108.674574,55.6309045 108.643508,55.6379674 108.613304,55.6494446 C108.636604,55.5487983 108.659904,55.448152 108.684067,55.3475057 C108.89549,54.4469864 109.110365,53.54117 109.327829,52.6309392 C109.569456,51.6253593 109.814535,50.6144822 110.063928,49.6018394 C110.239108,48.8893697 110.416876,48.1751343 110.595507,47.4608989 C110.743072,46.8737956 110.8915,46.2866924 111.040791,45.700472 C111.098609,45.7658037 111.158153,45.8302527 111.215108,45.8955845 C114.762707,49.9717586 117.602685,54.2350995 118.183453,59.8139049 C118.695184,64.7323295 116.287545,69.2569976 116.763895,74.1259819 C116.901967,75.5403269 117.612178,76.8504942 118.767672,77.6380072 C119.302703,78.0017463 120.352916,78.2780822 121.332368,78.3734313 C122.314408,76.5308981 123.208428,74.6495191 123.88412,72.6727909 C126.850089,63.999554 125.154386,53.9155035 119.870526,46.4853363 C114.587528,39.0551692 105.949369,34.3477487 97.0014096,33.5531728 C93.2484273,33.2194509 89.4479825,33.5567042 85.7916509,34.4757637 C82.5728364,35.2844653 79.462754,36.5416609 76.565821,38.1873158 C75.4344897,38.8300394 74.0183839,40.2461501 72.752432,40.6972926 C73.2572594,39.3094335 73.3237068,37.0104606 72.9681702,34.2320937 C72.9621295,34.1711762 72.9535,34.1102588 72.9448705,34.0493413 C72.9146671,33.8162657 72.880149,33.5796587 72.8421791,33.3412859 C72.6091818,31.829826 72.2588229,30.1991798 71.7940364,28.5102647 C71.6199788,27.8825497 71.4322003,27.2486548 71.2286297,26.6076969 C70.4359211,24.1312688 69.5098,21.8932135 68.5459678,20.0418517 C68.4592411,19.8785223 68.3746717,19.7187242 68.2882901,19.5615748 C68.2417769,19.4750543 68.1934516,19.3885338 68.1469384,19.3020133 C68.0649579,19.1563411 67.9830636,19.0124346 67.8992709,18.8711766 C66.3014272,16.1237099 64.6607811,14.503658 63.4255503,14.6466817 C64.0682776,14.4321462 64.7500967,14.0330925 65.4156923,13.6296246 C65.9892109,13.280894 66.5503029,12.9312807 67.0625517,12.6973222 C68.4865104,12.0475357 69.9398957,11.4657296 71.4167534,10.9536696" id="path80" fill="#518D51"></path>
                        <path d="M43.5432008,66.0371996 C43.9814083,66.2976439 44.4304027,66.5845741 44.8882855,66.8953416 C46.3673006,67.89739 47.9351135,69.1492884 49.4950735,70.6024794 C49.9606366,71.0350818 50.4069559,71.4703328 50.8381735,71.9108809 C52.2912136,73.3852606 53.5463787,74.8755318 54.5469726,76.2775167 C56.3534783,78.8060337 57.327407,81.050269 57.1285826,82.4222367 C57.0853487,82.7206441 56.9892157,82.9793227 56.8315542,83.188561 C55.9859467,84.3062643 53.6384558,83.8109787 50.7130453,82.1326579 C49.8217875,81.6223637 48.8752144,81.0008288 47.9029253,80.2812962 C46.7568375,79.4346315 45.5736427,78.452006 44.3965749,77.3537256 C42.7095882,75.7804654 41.230228,74.1559992 40.03383,72.6056934 C40.0174339,72.5845047 40.0010378,72.5641989 39.9846417,72.5430102 C37.3408991,69.1060282 36.0948813,66.047794 37.0619927,64.7685268 C37.1478565,64.6546376 37.2535683,64.5619371 37.3693765,64.4815967 C38.4413367,63.7320468 40.7531876,64.3677075 43.5432008,66.0371996" id="path82" fill="#172C4B"></path>
                        <path d="M67.8992709,18.8711766 C67.9830636,19.0124346 68.0649579,19.1563411 68.1469384,19.3020133 C68.1934516,19.3885338 68.2417769,19.4750543 68.2882901,19.5615748 C68.3746717,19.7187242 68.4592411,19.8785223 68.5459678,20.0418517 C69.5098,21.8932135 70.4359211,24.1312688 71.2286297,26.6076969 C71.4322003,27.2486548 71.6199788,27.8825497 71.7940364,28.5102647 C72.2588229,30.1991798 72.6091818,31.829826 72.8421791,33.3412859 C72.880149,33.5796587 72.9146671,33.8162657 72.9448705,34.0493413 C72.9535,34.1102588 72.9621295,34.1711762 72.9681702,34.2320937 C73.3237068,37.0104606 73.2572594,39.3094335 72.752432,40.6972926 C74.0183839,40.2461501 75.4344897,38.8300394 76.565821,38.1873158 C79.462754,36.5416609 82.5728364,35.2844653 85.7916509,34.4757637 C89.4479825,33.5567042 93.2484273,33.2194509 97.0014096,33.5531728 C105.949369,34.3477487 114.587528,39.0551692 119.870526,46.4853363 C125.154386,53.9155035 126.850089,63.999554 123.88412,72.6727909 C123.208428,74.6495191 122.314408,76.5308981 121.332368,78.3734313 C120.352916,78.2780822 119.302703,78.0017463 118.767672,77.6380072 C117.612178,76.8504942 116.901967,75.5403269 116.763895,74.1259819 C116.287545,69.2569976 118.695184,64.7323295 118.183453,59.8139049 C117.602685,54.2350995 114.762707,49.9717586 111.215108,45.8955845 C111.158153,45.8302527 111.098609,45.7658037 111.040791,45.700472 C108.495943,42.8294045 105.34789,40.4103625 101.889175,38.7391046 C98.5469584,37.1243498 94.9165153,36.2070562 91.2601837,36.2600279 C89.9018958,36.2794509 88.5720853,36.3712685 87.2871484,36.5160579 C83.8724436,36.9001029 80.7727166,37.6593643 78.2779196,38.4557058 L83.0319274,74.5833044 C84.2719908,67.2078747 85.8900276,57.2756765 86.3163263,53.0397043 C86.3318595,52.887852 86.4578506,52.7739628 86.6036896,52.7739628 C86.6131821,52.7739628 86.6235376,52.7748457 86.633893,52.7757285 C86.7926763,52.7925029 86.9074491,52.9381752 86.891053,53.0997389 C86.2913007,59.0511121 83.3581236,76.1565646 82.3942052,81.7777474 C82.2423255,82.6641409 82.1327304,83.3050988 82.1249639,83.3624848 C82.0982123,83.5911461 82.2578586,83.8392303 82.4382158,84.0943775 L84.9269721,87.6187628 C84.9761604,87.6885089 84.9934194,87.7767951 84.9735715,87.860667 C84.9545866,87.9436561 84.9002205,88.0151679 84.8251436,88.0540138 C83.5678212,88.7196918 82.1275527,88.981019 80.7261171,88.8053294 C81.6917615,92.4612612 83.4349264,95.925612 85.7830214,98.850534 C85.7951027,98.8664255 85.8054582,98.882317 85.8140877,98.8990914 C85.8779462,99.0209264 85.8511947,99.1754273 85.7433256,99.266362 C85.6199233,99.3705398 85.4378402,99.3519997 85.3368747,99.2257504 C83.1328929,96.4800494 81.4509976,93.2681972 80.4266725,89.8674125 C79.242701,86.9239504 78.3547225,83.8295188 77.5866943,80.7465645 C76.0644454,74.6345104 74.9167179,68.3750184 72.4383171,62.5993347 C71.7627975,61.0243088 70.6451009,59.2638819 68.9639822,59.2930163 C67.5145665,59.3177364 66.4668553,60.6879384 65.7557821,61.9804484 C65.5589425,62.3380076 65.3346611,62.7873844 65.0893235,63.3065073 C61.8355595,57.0328894 58.3846107,50.8890523 54.8887883,44.6595776 C59.3266964,41.8202932 62.1568368,40.0095431 62.1568368,40.0095431 L60.2688684,35.8724514 C60.3130516,35.8309569 60.35758,35.7912281 60.4017632,35.7497336 C61.646918,34.5861214 62.960246,33.4481122 64.3569354,32.4646039 C64.0779427,31.7229997 63.8099095,30.9522612 63.5571506,30.1559196 C62.8093156,27.8163351 62.2724725,25.5359024 61.9522307,23.477068 C61.9495556,23.4620594 61.9467941,23.4444021 61.9441189,23.4285106 C61.9191796,23.266064 61.8942403,23.1036174 61.8731842,22.9429365 C61.8531637,22.8043271 61.8350417,22.6648349 61.8170923,22.5279913 C61.2913813,18.4350428 61.6857508,15.3812229 63.0419677,14.7543908 C63.1647659,14.6970048 63.2929144,14.6616903 63.4255503,14.6466817 C64.6607811,14.503658 66.3014272,16.1237099 67.8992709,18.8711766" id="path84" fill="#172C4B"></path>
                        <path d="M100.635304,103.688618 C103.464927,102.136547 105.743123,99.6495242 107.078111,96.6654504 C105.403119,95.7940655 103.92747,94.5289242 102.797002,92.9936271 C102.74091,92.9168181 102.724514,92.8179375 102.752991,92.7261199 C102.781468,92.6351851 102.850505,92.5636732 102.939389,92.5345388 C104.221737,92.1134136 105.422967,91.3974125 106.412774,90.4642273 C106.655264,90.235566 106.889987,89.9830674 106.961612,89.6987858 C107.112629,88.8715441 108.375992,65.1728777 108.41914,56.4811006 C108.420003,56.2904024 108.420003,56.1032357 108.420003,55.9275461 C108.420003,55.7986483 108.501121,55.6900562 108.613304,55.6494446 C108.643508,55.6379674 108.674574,55.6309045 108.708229,55.6309045 L108.709092,55.6309045 C108.867876,55.6309045 108.997401,55.7633338 108.997401,55.9257804 C109.0094,63.8556475 107.688219,89.1814287 107.523395,89.8373952 C107.412074,90.2788262 107.111766,90.6081338 106.804555,90.8985954 C105.852718,91.7947004 104.718798,92.5018729 103.504623,92.9600783 C104.602299,94.3505861 106.003735,95.4868295 107.579487,96.2602167 C107.719285,96.32908 107.781418,96.4985895 107.719285,96.6442617 C106.351505,99.8631768 103.932648,102.549726 100.908861,104.208624 C100.908861,104.208624 100.908861,104.209507 100.907998,104.209507 C100.767336,104.286316 100.59302,104.232461 100.51708,104.088555 C100.51708,104.088555 100.51708,104.087672 100.51708,104.087672 C100.442003,103.943765 100.495506,103.765427 100.635304,103.688618" id="path86" fill="#172C4B"></path>
                        <path d="M72.9448705,34.0493413 C72.9146671,33.8162657 72.880149,33.5796587 72.8421791,33.3412859 C72.6091818,31.829826 72.2588229,30.1991798 71.7940364,28.5102647 C71.6199788,27.8825497 71.4322003,27.2486548 71.2287159,26.6076969 C70.4359211,24.1312688 69.5098,21.8932135 68.5459678,20.0418517 C68.4592411,19.8785223 68.3746717,19.7187242 68.2882901,19.5615748 C68.2417769,19.4750543 68.1934516,19.3885338 68.1469384,19.3020133 C68.0649579,19.1563411 67.9830636,19.0124346 67.8992709,18.8711766 C65.8634786,20.0065373 63.7312082,21.3034616 61.8170923,22.5279913 C61.7496957,22.5703687 61.682299,22.6136289 61.6149024,22.6560063 C58.6195064,24.5735827 56.193832,26.2722093 55.5779425,26.7833865 C54.5168556,27.6618342 47.9349409,31.8819149 45.8978542,33.4013205 C42.1740396,36.1849846 38.599516,39.1920128 35.0269771,42.199041 C34.5948965,42.5618973 34.1484047,42.9441766 33.9034123,43.473011 C33.65842,44.0018453 33.6787857,44.7222608 34.10146,45.1036572 C33.7555022,45.6589774 33.2365223,46.0571482 32.7696648,46.4985793 C32.3008224,46.9391274 31.8576098,47.4741418 31.753624,48.1318741 C31.6515366,48.791372 32.2146997,49.7016028 32.8330918,49.7784118 C32.2903807,49.7121972 31.5423731,51.7189427 32.4828192,52.5382386 C33.0334695,53.0193985 35.0156724,52.0544302 35.4916772,51.6447822 C35.18507,52.5020413 36.0309365,53.1544764 36.981997,52.7227568 C39.1954713,51.7171769 38.4794792,52.0659074 40.657745,50.7221914 C46.2091213,47.2931551 51.3955548,43.6442862 57.0826735,40.5216031 C58.0728258,39.97776 59.4217938,39.5230861 60.1240649,40.4845229 C60.7894879,41.3982851 60.2176953,42.8461789 59.384169,43.5657115 C58.5506428,44.2843612 57.4979265,44.6436861 56.7468123,45.4753421 C55.9976828,46.3087639 55.7713303,47.972076 56.68304,48.5503507 C60.0558053,48.7163288 63.1173035,47.0547824 64.7941936,43.6937265 C65.4143116,42.4524224 65.942784,41.1466694 66.6607608,39.9795258 C66.7056344,39.9088968 66.7504217,39.837385 66.7953815,39.7685217 C67.0017136,39.4427456 67.2198681,39.1222667 67.4500176,38.8114993 C68.8009704,36.9627861 70.5043532,35.3957059 72.4374541,34.2956598 C72.5634453,34.2223822 72.6911623,34.1526361 72.8188793,34.0837729 C72.861164,34.0731786 72.9025858,34.0617013 72.9448705,34.0493413" id="path88" fill="#F0A258"></path>
                        <path d="M46.9607533,34.8712859 C46.9237326,34.8712859 46.8861079,34.8783488 46.8496913,34.8942403 C45.6316332,35.4133632 39.3123151,40.5525032 35.9173719,43.3132129 C35.0401803,44.0265655 34.3474016,44.5898315 34.0438148,44.8282042 C33.9172196,44.9270848 33.8933158,45.1124858 33.9903117,45.2422665 C34.0872213,45.3720473 34.268614,45.3967674 34.3951229,45.297004 C34.7028519,45.0550998 35.3629247,44.5183196 36.2767055,43.7758326 C39.4093973,41.2278927 45.9279712,35.9271889 47.0719016,35.439849 C47.2191214,35.3771658 47.2886754,35.203242 47.2274058,35.0531554 C47.1811515,34.9392662 47.0738001,34.8712859 46.9607533,34.8712859" id="path90" fill="#172C4B"></path>
                        <path d="M48.0734448,37.0440094 C48.0309875,37.0440094 47.9879262,37.0537209 47.9471085,37.0740267 C44.6229275,38.7311588 33.2368675,48.2113317 32.0471143,50.6409681 C31.9755755,50.7866403 32.033307,50.9640956 32.1759531,51.0373731 C32.3181678,51.1097678 32.4919665,51.0514989 32.5633327,50.9049438 C33.5971503,48.7949035 44.7036136,39.3482794 48.2001263,37.6055097 C48.3434628,37.533115 48.4030929,37.3565426 48.33328,37.2099875 C48.2832287,37.1049269 48.180451,37.0440094 48.0734448,37.0440094" id="path92" fill="#172C4B"></path>
                        <path d="M49.5740337,40.1154865 C49.5328708,40.1154865 49.4910176,40.1243151 49.4512355,40.1437381 C43.8309093,42.8497103 36.2969849,49.8040148 35.4684638,51.447904 C35.395458,51.5926934 35.4511184,51.7710315 35.5928153,51.8451919 C35.7352026,51.9202352 35.908915,51.8628492 35.9819208,51.7180598 C36.7857615,50.122728 44.1679787,43.3405817 49.6971771,40.6778697 C49.8414628,40.6090064 49.9033365,40.432434 49.8355084,40.284996 C49.7862338,40.1781697 49.6824206,40.1154865 49.5740337,40.1154865" id="path94" fill="#172C4B"></path>
                        <path d="M35.8602444,77.095047 C35.6515824,75.2171994 36.2647105,72.3258261 34.685334,71.526836 C34.226243,71.3670379 33.4044529,71.8305405 33.1827603,72.2719715 C33.085937,72.4653183 33.0320025,72.6727909 33.0003321,72.8864435 C32.9870426,72.7504828 32.9054073,72.6604308 32.6345263,72.0883362 C32.6135566,72.0433103 32.5860284,71.9991672 32.5540128,71.9550241 C31.6480848,69.248169 30.769081,66.6269515 29.9476361,64.1823064 C29.7233546,63.5148627 30.1924558,61.7491386 30.3774729,61.1072979 C30.4124225,60.9854629 30.5544646,60.9360226 30.6534453,61.0119488 C31.2078062,61.4383711 32.7033037,62.6902695 32.8604474,63.1581864 C32.8855593,63.2323468 34.519043,68.0951511 36.7031769,74.6327447 C36.6119627,74.6680592 36.5292056,74.7227966 36.464743,74.8057857 C36.1563236,75.2030736 35.9691491,76.064747 35.8602444,77.095047" id="path96" fill="#172C4B"></path>
                        <path d="M41.0236371,94.4017921 C41.0432261,94.2578855 41.0600537,94.1130962 41.0778305,93.9683068 C41.4199051,93.9577124 41.7636192,93.9126865 42.095252,93.8482375 C42.4052247,93.7873201 42.7107101,93.7078625 43.0119669,93.615162 C44.1558111,97.0821613 45.1225772,100.032686 45.898976,102.426125 C48.2112584,109.554354 48.3767728,110.239455 48.3381988,110.681769 C48.2728733,111.430436 47.7346495,112.057268 47.0047639,112.145554 C46.0858053,112.255912 45.3514324,111.580522 45.2670356,110.744452 C45.047414,109.772421 43.1255315,103.825462 40.5387438,95.9724037 C40.5456474,95.9618093 40.5541044,95.9520979 40.5607491,95.9423864 C40.852945,95.490361 40.9507175,94.9385722 41.0236371,94.4017921" id="path98" fill="#172C4B"></path>
                        <path d="M52.0435461,79.6023753 C51.449403,80.3298536 51.0130077,81.2144814 50.7130453,82.1326579 C50.5797191,82.535243 50.4737484,82.9466568 50.3925446,83.3510076 C50.231949,84.1597092 50.1705068,84.9843024 50.0137945,85.7930041 C49.3091071,89.4392244 46.4804337,92.5477817 43.0119669,93.615162 C42.7107101,93.7078625 42.4052247,93.7873201 42.095252,93.8482375 C41.7636192,93.9126865 41.4199051,93.9577124 41.0778305,93.9683068 C41.0600537,94.1130962 41.0432261,94.2578855 41.0236371,94.4017921 C40.9507175,94.9385722 40.852945,95.490361 40.5607491,95.9423864 C40.5541044,95.9520979 40.5456474,95.9618093 40.5387438,95.9724037 C40.2424921,96.4085375 39.7216137,96.7210707 39.2155781,96.6098301 C38.6324808,96.4818151 38.2815178,95.8646945 38.1257548,95.2758255 C37.9700781,94.6869565 37.9297782,94.0521787 37.6308513,93.5242272 C37.8286401,93.9912612 37.7313853,94.5739502 37.3932803,94.9474008 C37.0550891,95.3208515 36.4949463,95.4638751 36.0248096,95.2978971 C35.4100419,95.080713 35.045962,94.4265122 34.8742344,93.7846715 C34.7025068,93.1428308 34.6653998,92.463027 34.4255852,91.8450235 C34.6698008,92.4745042 33.7499793,92.975087 33.2673297,92.7755601 C32.7084814,92.5442503 32.5018042,91.5757506 31.9307019,91.2022999 C30.3502036,90.1684685 29.8457213,89.3032636 29.6440492,87.310644 C29.0815765,81.7556758 29.0698403,77.9152259 30.50286,72.5262358 C30.6546534,71.9550241 31.0050123,71.2602116 31.5777542,71.3405521 C31.8986001,71.3864609 32.3384472,71.6592653 32.5540128,71.9550241 C32.5860284,71.9991672 32.6135566,72.0433103 32.6345263,72.0883362 C32.9054073,72.6604308 32.9870426,72.7504828 33.0003321,72.8864435 C33.0320025,72.6727909 33.085937,72.4653183 33.1827603,72.2719715 C33.4044529,71.8305405 34.226243,71.3670379 34.685334,71.526836 C36.2647105,72.3258261 35.6515824,75.2171994 35.8602444,77.095047 C35.9691491,76.064747 36.1563236,75.2030736 36.464743,74.8057857 C36.5292056,74.7227966 36.6119627,74.6680592 36.7031769,74.6327447 C37.0029667,74.5179726 37.4034632,74.643339 37.6243791,74.9081977 C37.8335589,75.1580476 38.0631044,75.5641642 38.1942733,75.9402634 C38.3640161,75.5721099 38.5423022,75.2083708 38.7285274,74.8508116 C39.127902,74.0818388 39.5630029,73.3322889 40.03383,72.6056934 C41.3628639,70.5371476 42.9584639,68.6469399 44.7680762,67.0021679 C44.8068228,66.9668534 44.8475541,66.930656 44.8882855,66.8953416 C46.3673006,67.89739 47.9351135,69.1492884 49.4950735,70.6024794 C49.9606366,71.0350818 50.4069559,71.4703328 50.8381735,71.9108809 C52.2912136,73.3852606 53.5463787,74.8755318 54.5469726,76.2775167 C53.6804816,77.5250008 52.468119,79.0823695 52.0435461,79.6023753" id="path100" fill="#F0A258"></path>
                        <path d="M46.1353388,86.8727444 C45.5755412,88.0495995 44.4750174,88.7126289 43.6503795,89.0604766 C42.8567217,89.3959642 42.0141345,89.5848966 41.199248,89.7667662 C40.9904997,89.8135579 40.7818377,89.8594667 40.5739523,89.908907 C39.9724741,90.0510478 39.2893605,90.2373317 38.794457,90.6558083 C38.3743715,91.0107189 38.0552515,91.6587396 38.2578729,92.2078798 C38.4446159,92.7155255 38.9950073,93.0536617 39.9900783,93.2734943 C40.1460139,93.307926 40.2450809,93.4650754 40.2114258,93.6248734 C40.1777706,93.7846715 40.0238198,93.8853178 39.8682294,93.851769 C39.1101252,93.6840252 38.0623277,93.3529519 37.7173192,92.4171181 C37.4778497,91.7664488 37.6945372,91.0884107 38.0613785,90.594008 C38.0073576,90.6284396 37.9426362,90.6460968 37.8744629,90.6372682 C37.716111,90.6178453 37.6032368,90.4712901 37.622308,90.3088435 C38.1371458,85.9439735 38.1122064,81.4678628 38.08813,77.1383072 C38.0859727,76.7392536 38.083729,76.326957 37.9647278,75.9632178 C37.8370107,75.5712271 37.5640587,75.2277937 37.2157709,75.0194383 C37.0782162,74.9364492 37.0318756,74.7554625 37.1123029,74.6150875 C37.1660648,74.5206212 37.2626293,74.4685324 37.3618688,74.4685324 C37.4114023,74.4685324 37.4615399,74.4817753 37.5073627,74.509144 C37.974738,74.7890113 38.3411478,75.2507481 38.5125303,75.7760511 C38.6606993,76.2298422 38.6632882,76.711002 38.6657044,77.1347758 C38.6898671,81.4819886 38.7148065,85.9775222 38.1957403,90.3794725 C38.1928925,90.4033098 38.1866793,90.4262642 38.1788264,90.4474529 C38.257614,90.3565181 38.3405438,90.273529 38.4264939,90.2002515 C39.0184796,89.6996687 39.778396,89.4904304 40.4442505,89.3332809 C40.6542932,89.2838407 40.8651989,89.2361661 41.0761046,89.1893744 C41.0992317,89.1840773 41.1226178,89.1787801 41.1458312,89.1734829 C41.1420342,89.1505285 41.1400494,89.1258084 41.1420342,89.1019711 C41.3846103,86.0437369 41.2056338,82.9678455 40.6102826,79.9608173 C40.5255406,79.533512 40.4067983,79.1159183 40.1136532,78.957886 C39.9345905,78.861654 39.684593,78.8916713 39.532627,79.0293978 C39.4131943,79.137107 39.2305934,79.1256297 39.1250543,79.0037948 C39.0195152,78.881077 39.0308198,78.6947931 39.1504251,78.586201 C39.351148,78.4052143 39.6153842,78.3107481 39.8797066,78.3107481 C40.0532465,78.3107481 40.2268726,78.3513597 40.382463,78.4352316 C40.8902245,78.708036 41.0686832,79.3004364 41.1762934,79.8442795 C41.775528,82.8698478 41.9586466,85.9633964 41.7243549,89.0410536 C42.3052085,88.9033271 42.886321,88.7444119 43.429895,88.5148678 C44.1620243,88.2049832 45.1356078,87.62406 45.6161,86.6140658 C45.6661513,86.5090052 45.768929,86.4480877 45.8759352,86.4480877 C45.9183062,86.4480877 45.9614538,86.4577992 46.0020989,86.478105 C46.1455217,86.5496169 46.2051517,86.7261893 46.1353388,86.8727444" id="path102" fill="#172C4B"></path>
                        <path d="M32.338965,88.366547 C32.3349091,88.5289936 32.2082276,88.6623058 32.0428858,88.6534772 C31.8834984,88.6499457 31.7575073,88.513985 31.7616494,88.3506555 C31.8075585,86.529311 31.9791136,82.8804421 32.1304755,79.6606442 C32.2833045,76.409946 32.4275902,73.3402346 32.4117982,72.8166974 C32.3954884,72.2746201 32.2696698,71.9029352 32.0478046,71.7422543 C31.8687419,71.6124736 31.5985513,71.6045278 31.2456899,71.7192999 C31.0937239,71.7678573 30.9313161,71.6822197 30.8831633,71.526836 C30.8350969,71.3714522 30.9193211,71.2054742 31.0712871,71.1560339 C31.2939289,71.0836392 31.5001747,71.0474418 31.689334,71.0474418 C31.9547783,71.0474418 32.1864812,71.1189537 32.3817674,71.2602116 C32.7622434,71.5365474 32.9665906,72.0539046 32.9891137,72.7981573 C33.0055098,73.3455318 32.867351,76.2845796 32.7072733,79.6888957 C32.5561702,82.9051622 32.3847015,86.5513826 32.338965,88.366547" id="path104" fill="#172C4B"></path>
                        <path d="M34.9322248,90.395364 C34.9065088,90.5560449 34.7581672,90.6655198 34.6004194,90.6390339 C34.4431031,90.6125481 34.3365284,90.4606958 34.362417,90.299132 C34.8215943,87.4430733 35.1284603,84.5296284 35.2742131,81.6400209 C35.3896762,79.3525253 35.4159963,76.8549085 35.354554,74.0050298 C35.3455793,73.5892017 35.3353965,73.1186363 35.2119079,72.7019254 C35.0876427,72.2825659 34.8473103,71.9523755 34.5525255,71.7961089 C34.4108287,71.7210656 34.3555134,71.5436103 34.4287781,71.3979381 C34.4801238,71.296409 34.581003,71.2390229 34.6855066,71.2390229 C34.7301213,71.2390229 34.7755989,71.2496173 34.8179699,71.2716888 C35.2566088,71.5038815 35.5928153,71.9514926 35.7646292,72.5306501 C35.9110724,73.0250529 35.9221182,73.5388786 35.9318695,73.9917868 C35.993657,76.8566742 35.9671643,79.3684168 35.8510108,81.6709211 C35.7040499,84.5826002 35.3950265,87.5172337 34.9322248,90.395364" id="path106" fill="#172C4B"></path>
                        <path d="M88.2027414,123.284625 C88.2027414,122.545669 88.1716751,121.807596 88.1052278,121.073938 C88.0215213,120.151347 87.8679157,119.229639 87.6452738,118.327354 C87.6866956,118.149016 87.716036,118.002461 87.716036,117.960083 C87.7307062,114.851526 87.4536983,111.539028 86.4802874,108.577908 C86.3266817,108.114406 86.1532282,107.657083 85.9573379,107.209472 C85.93749,107.163563 85.9038348,107.103529 85.8624131,107.034665 L86.9859778,103.498803 L88.9604141,97.2878682 C89.7154979,94.9103206 91.8012552,93.4456524 94.024222,93.3361776 C95.1167204,93.282323 96.2411481,93.5568931 97.2585696,94.2084453 C99.7343816,95.7967141 100.59906,99.0659524 99.2433614,101.715421 L96.1358678,107.78863 L88.2053303,123.285507 C88.2044673,123.285507 88.2036044,123.285507 88.2027414,123.284625" id="path108" fill="#F0A258"></path>
                        <path d="M88.2027414,123.284625 C88.2036044,123.285507 88.2044673,123.285507 88.2053303,123.285507 C88.5159934,123.415288 88.8033567,123.597158 89.0518871,123.812576 C89.548948,124.241647 89.9044846,124.795202 90.1754519,125.37171 C90.3126614,125.663938 90.4308859,125.965877 90.5016481,126.27841 C90.7536303,127.384636 90.3661645,128.593274 89.5058004,129.384319 C88.9863027,129.883136 88.046547,130.219506 87.3604994,129.752472 C87.3397885,129.830164 87.3182147,129.907856 87.2966408,129.984665 C86.3102856,129.851353 85.3058084,129.839875 84.2944276,129.882253 C84.0553896,130.91785 83.5945727,131.983464 82.8757329,132.597054 C82.8248187,132.544965 83.3538089,131.01055 83.6014763,129.91845 C81.7167871,130.034105 79.8157018,130.270712 77.9698454,130.163003 C77.3303973,130.12504 76.6883603,130.071185 76.0471863,129.996142 C76.3241942,131.016731 76.6279536,133.463141 76.7522188,133.886032 C76.8083108,134.074082 76.8635398,134.70886 76.9299872,134.797146 C76.0765267,133.675028 75.5829176,131.789235 75.2524066,130.334278 C75.2204774,130.187723 75.1928629,130.032339 75.1816445,129.878721 C74.2272185,129.733932 73.283148,129.529991 72.3684179,129.247475 C72.5841561,130.336044 73.2184265,132.129137 73.1631976,132.18564 C72.330448,131.481116 71.8381333,130.173597 71.634649,129.003805 C71.1306845,128.82017 70.6383698,128.6074 70.1591721,128.365496 C69.5744352,121.561278 71.8657478,114.068427 77.4218703,110.198843 C77.9940081,109.799789 78.6058418,109.437816 79.2789451,109.280666 C81.7547571,108.699743 84.0553896,111.243269 85.3532708,113.122882 C86.4302361,114.682899 87.1870458,116.466281 87.6452738,118.327354 C87.8679157,119.229639 88.0215213,120.151347 88.1052278,121.073938 C88.1716751,121.807596 88.2027414,122.545669 88.2027414,123.284625" id="path110" fill="#F0A258"></path>
                        <path d="M112.478471,127.720124 C105.75693,127.83313 99.9086981,131.76628 94.2520416,135.568767 C92.3466415,136.8498 90.5465216,138.060204 88.7170614,139.128467 C85.936627,140.752933 82.2768436,142.529252 78.6239638,141.852097 C78.4444696,141.818548 78.2295943,141.744387 78.0380187,141.628733 C76.7375486,141.926257 75.4129159,141.491006 74.3980832,141.073412 C70.3744788,139.41628 66.9388043,136.403072 64.7242081,132.588225 C64.3852402,132.00377 64.0717294,131.396361 63.7685741,130.809258 L63.5964149,130.475536 C61.1087805,125.673649 58.2381675,121.028912 55.0643992,116.671105 C54.350996,115.691128 53.49417,114.630811 52.35093,114.441878 C52.1934411,114.415392 52.0864349,114.264423 52.1118057,114.102859 C52.1347603,113.95807 52.2572996,113.854775 52.3964939,113.854775 C52.4118545,113.854775 52.4273876,113.855658 52.4428345,113.858306 C53.7994828,114.082553 54.746401,115.245283 55.5274598,116.31796 C58.7188323,120.700487 61.6053236,125.369945 64.1065927,130.198317 L64.2793559,130.532922 C64.5791458,131.113845 64.8891185,131.715074 65.220665,132.286286 C67.3709711,135.990775 70.7068883,138.91658 74.6138215,140.525155 C75.3576869,140.831508 76.2793206,141.148456 77.2009544,141.135213 C74.1210753,140.551641 71.2516705,138.735594 69.1203493,136.271526 C67.4119614,134.296563 66.1234863,131.986113 64.8476104,129.694203 C61.8822452,124.367013 58.91688,119.039824 55.9514285,113.712634 C55.7721069,113.390389 55.5893335,113.058433 55.5375563,112.692045 C55.4705049,112.217066 55.63041,111.74032 55.8223308,111.302421 C56.9987945,108.619403 59.3980626,106.695646 61.926601,105.297193 C68.3707884,101.731313 76.1110448,100.964106 83.2813208,102.49852 C84.5343285,102.76691 85.7692141,103.103281 86.9859778,103.498803 L85.8624131,107.034665 C85.9038348,107.103529 85.93749,107.163563 85.9573379,107.209472 C86.1532282,107.657083 86.3266817,108.114406 86.4802874,108.577908 C87.4536983,111.539028 87.7307062,114.851526 87.716036,117.960083 C87.716036,118.002461 87.6866956,118.149016 87.6452738,118.327354 C87.1870458,116.466281 86.4302361,114.682899 85.3532708,113.122882 C84.0553896,111.243269 81.7547571,108.699743 79.2789451,109.280666 C78.6058418,109.437816 77.9940081,109.799789 77.4218703,110.198843 C71.8657478,114.068427 69.5744352,121.561278 70.1591721,128.365496 C70.6383698,128.6074 71.1306845,128.82017 71.634649,129.003805 C71.8381333,130.173597 72.330448,131.481116 73.1631976,132.18564 C73.2184265,132.129137 72.5841561,130.336044 72.3684179,129.247475 C73.283148,129.529991 74.2272185,129.733932 75.1816445,129.878721 C75.1928629,130.032339 75.2204774,130.187723 75.2524066,130.334278 C75.5829176,131.789235 76.0765267,133.675028 76.9299872,134.797146 C76.8635398,134.70886 76.8083108,134.074082 76.7522188,133.886032 C76.6279536,133.463141 76.3241942,131.016731 76.0471863,129.996142 C76.6883603,130.071185 77.3303973,130.12504 77.9698454,130.163003 C79.8157018,130.270712 81.7167871,130.034105 83.6014763,129.91845 C83.3538089,131.01055 82.8248187,132.544965 82.8757329,132.597054 C83.5945727,131.983464 84.0553896,130.91785 84.2944276,129.882253 C85.3058084,129.839875 86.3102856,129.851353 87.2966408,129.984665 C87.3182147,129.907856 87.3397885,129.830164 87.3604994,129.752472 C88.046547,130.219506 88.9863027,129.883136 89.5058004,129.384319 C90.3661645,128.593274 90.7536303,127.384636 90.5016481,126.27841 C90.4308859,125.965877 90.3126614,125.663938 90.1754519,125.37171 C89.9044846,124.795202 89.548948,124.241647 89.0518871,123.812576 C88.8033567,123.597158 88.5159934,123.415288 88.2053303,123.285507 L96.1358678,107.78863 C98.4339115,109.209155 100.618908,110.829207 102.667559,112.598462 C106.02272,115.496898 109.130213,118.942709 110.533375,123.200753 C103.509801,127.836661 96.4862267,132.473453 89.4635157,137.109362 C87.3199406,138.52459 85.1470251,139.953943 82.7247162,140.773239 C81.5269375,141.178473 80.3153515,141.352397 79.1184358,141.332091 C82.4597896,141.784116 85.8365245,140.130516 88.430561,138.615524 C90.2444881,137.55609 92.0377043,136.350983 93.9353378,135.075247 C99.6601676,131.225969 105.580025,127.245144 112.468978,127.129489 C112.470704,127.129489 112.47243,127.129489 112.473293,127.129489 C112.631213,127.129489 112.759793,127.258387 112.762421,127.41995 C112.764971,127.58328 112.638117,127.717475 112.478471,127.720124" id="path112" fill="#172C4B"></path>
                        <path d="M74.6673245,123.784324 C74.6466137,123.331416 74.2703662,122.981803 73.8276713,123.003874 C73.3849765,123.025946 73.0441101,123.409991 73.0648209,123.862899 C73.0863947,124.315807 73.4626422,124.664538 73.9044741,124.643349 C74.347169,124.621278 74.6888984,124.237233 74.6673245,123.784324" id="path114" fill="#172C4B"></path>
                        <path d="M80.9064743,125.317856 C80.8857634,124.864948 80.509516,124.515334 80.0668211,124.537406 C79.6249892,124.559477 79.2832598,124.943522 79.3039707,125.396431 C79.3255445,125.849339 79.701792,126.198069 80.1436239,126.176881 C80.5863188,126.154809 80.9280481,125.770764 80.9064743,125.317856" id="path116" fill="#172C4B"></path>
                        <path d="M75.3835755,118.510989 C75.1937258,118.510989 75.0012873,118.54189 74.8252449,118.618699 C74.5801663,118.725525 74.4006721,118.908277 74.3066102,119.148416 C74.199604,119.420337 74.2298074,119.701087 74.2781328,119.962415 C74.3575244,120.392368 74.5568666,120.958283 74.786412,121.61425 C75.3404278,123.191924 76.0998264,125.35317 75.4336267,126.598889 C75.1678372,127.09594 74.694939,127.419068 73.9873176,127.584163 C73.136446,127.78369 72.2027309,127.152443 71.7572746,126.457631 C71.6698575,126.320787 71.4906222,126.282824 71.3573822,126.372876 C71.2239697,126.462045 71.1868627,126.64568 71.2742799,126.781641 C71.8406359,127.664503 72.9983735,128.421116 74.1158976,128.159789 C74.9814394,127.957613 75.5958619,127.52766 75.9401801,126.882287 C76.730645,125.403493 75.9211952,123.097458 75.3300724,121.41384 C75.1082935,120.782593 74.9167179,120.236985 74.8459558,119.85294 C74.8131636,119.679016 74.7907268,119.499795 74.842504,119.368248 C74.879611,119.275548 74.9477842,119.207568 75.0513386,119.162542 C75.2713916,119.067192 75.6217505,119.085733 75.9229211,119.211099 C76.5261252,119.459183 77.0516635,119.905029 77.4028854,120.465646 C77.4891807,120.603372 77.6678119,120.643101 77.8024326,120.554815 C77.9361903,120.466529 77.9750232,120.283776 77.8895908,120.146933 C77.4736475,119.483903 76.8523214,118.956835 76.1386593,118.662842 C75.9306876,118.577204 75.6597204,118.510989 75.3835755,118.510989" id="path118" fill="#172C4B"></path>
                        <path d="M82.5460849,126.831081 C82.4252715,126.831081 82.3122247,126.909656 82.2725288,127.03414 C82.0800903,127.629189 81.5640445,128.13242 80.8926671,128.380504 C80.3153515,128.593274 79.6232633,128.631237 78.8345243,128.492628 C78.6774669,128.465259 78.527313,128.572968 78.5005615,128.733649 C78.47381,128.89433 78.5790902,129.047065 78.7361477,129.075317 C79.6249892,129.231583 80.416317,129.184792 81.0894203,128.935825 C81.9256217,128.626823 82.5728364,127.984982 82.8205039,127.219541 C82.8705552,127.06504 82.7885747,126.897296 82.636695,126.84609 C82.6064916,126.836379 82.5762883,126.831081 82.5460849,126.831081" id="path120" fill="#172C4B"></path>
                        <path d="M76.218051,115.707019 C75.850433,115.650516 76.1947512,114.801203 76.4674444,114.508976 C76.7410005,114.215865 77.1224257,114.104625 77.4917695,114.099328 C78.0250744,114.092265 78.5549275,114.285612 79.0278258,114.591965 C79.8433163,115.120799 80.4827644,116.008075 80.8434787,117.029547 C81.0454097,117.602524 80.4939828,118.113701 80.0702729,117.754377 C79.5965117,117.352674 78.9622413,116.785877 78.7456401,116.655213 C78.1571062,116.298537 77.1215627,115.846512 76.218051,115.707019" id="path122" fill="#172C4B"></path>
                        <path d="M87.2362341,125.369062 C87.2267417,125.369062 87.2172492,125.369945 87.2077567,125.370828 C87.0489734,125.386719 86.9333377,125.531508 86.9488708,125.693955 L87.1154207,127.393465 C87.1318168,127.555911 87.2742041,127.673332 87.4321245,127.658323 C87.5909078,127.641549 87.7065435,127.496759 87.6901474,127.334313 L87.5235975,125.634803 C87.5089273,125.482951 87.3829361,125.369062 87.2362341,125.369062" id="path124" fill="#172C4B"></path>
                    </g>
                </g>
            </g>
        </g>
    </g>
</svg>