
<svg width="230px" height="258px" viewBox="0 0 230 258" version="1.1" xmlns="http://www.w3.org/2000/svg" xmlns:xlink="http://www.w3.org/1999/xlink">
    <g id="Splash-Screens" stroke="none" stroke-width="1" fill="none" fill-rule="evenodd">
        <g id="Reslocate-Splash-Screen-3" transform="translate(-80, -308)" fill-rule="nonzero">
            <g id="Student-1" transform="translate(195, 437) scale(1, -1) translate(-195, -437)translate(80, 308)">
                <path d="M153.984242,44.4901221 C153.984242,28.5375305 141.033827,15.6060244 125.058786,15.6060244 C109.08392,15.6060244 96.1336804,28.5375305 96.1336804,44.4901221 C96.1336804,60.4409634 109.08392,73.3724695 125.058786,73.3724695 C141.033827,73.3724695 153.984242,60.4409634 153.984242,44.4901221" id="path110" fill="#01B4AD"></path>
                <path d="M125.058786,44.4901221 L151.402222,32.5615604 C146.721983,22.2573134 136.390399,15.6060244 125.058786,15.6060244 C109.191022,15.6060244 96.1336804,28.6443012 96.1336804,44.4901221 C96.1336804,60.3341927 109.191022,73.3724695 125.058786,73.3724695 C140.9269,73.3724695 153.984242,60.3341927 153.984242,44.4901221 L125.058786,44.4901221" id="path112" fill="#00E4BA"></path>
                <path d="M125.058786,44.4901221 L130.519941,16.1258752 C128.719715,15.7810583 126.891266,15.6060244 125.058786,15.6060244 C109.191022,15.6060244 96.1336804,28.6443012 96.1336804,44.4901221 C96.1336804,60.3341927 109.191022,73.3724695 125.058786,73.3724695 C140.9269,73.3724695 153.984242,60.3341927 153.984242,44.4901221 L125.058786,44.4901221" id="path114" fill="#01B4AD"></path>
                <path d="M125.058786,44.4901221 L98.8238539,32.3252646 C97.0518487,36.1375034 96.1336804,40.2875577 96.1336804,44.4901221 C96.1336804,60.3341927 109.191022,73.3724695 125.058786,73.3724695 C140.9269,73.3724695 153.984242,60.3341927 153.984242,44.4901221 L125.058786,44.4901221" id="path116" fill="#00E4BA"></path>
                <path d="M146.893767,243.890516 C147.530069,244.742931 147.628232,245.961167 147.140926,246.9046 C146.651867,247.849783 145.600128,248.472904 144.536118,248.448399 C144.348558,248.444898 144.152234,248.423894 143.982202,248.50441 C143.820936,248.581425 143.714009,248.738955 143.612341,248.885984 C142.399335,250.611818 140.252034,251.898318 138.206402,251.373216 C137.894386,251.2927 137.554323,251.175427 137.265095,251.318955 C136.991643,251.453731 136.874199,251.770543 136.698909,252.019091 C136.267696,252.622958 135.452598,252.825997 134.709369,252.801493 C132.91966,252.743731 131.222854,251.518494 130.605833,249.839919 C129.263113,249.818915 127.877973,249.684138 126.68828,249.059267 C125.498413,248.434396 124.53835,247.221411 124.561138,245.878901 C123.431395,245.453569 122.50306,244.525889 122.081137,243.39692 C121.65939,242.267951 121.751241,240.958697 122.326718,239.899742 C121.311264,238.205414 121.997699,235.726934 123.74008,234.794003 C123.977072,234.667978 124.230717,234.564708 124.43826,234.394925 C124.58971,234.270651 124.711186,234.113121 124.854398,233.980095 C125.021274,233.824315 125.206205,233.710543 125.402529,233.626526 C125.22163,234.26365 125.204627,234.951533 125.285961,235.613161 C125.358882,236.208277 125.520324,236.822646 125.932956,237.25848 C126.508082,237.8746 127.571741,237.963867 128.272199,237.491275 C128.307783,237.640054 128.347574,237.788833 128.38754,237.935862 C129.01946,237.636554 129.803006,237.729322 130.493648,237.923609 C131.925766,238.327938 133.394695,239.308128 133.580502,240.783664 C134.123901,240.596377 134.732157,240.652388 135.268544,240.858928 C136.707673,241.412035 137.538547,243.209634 137.417597,244.727178 C137.443891,244.728928 137.468431,244.728928 137.492972,244.728928 C138.027606,243.410923 139.883926,242.740543 141.191588,243.073107 C141.34409,243.111615 141.515874,243.160624 141.656106,243.08711 C141.752515,243.0346 141.812114,242.93483 141.871713,242.840312 C142.125883,242.430733 142.451922,242.063161 142.830548,241.763853 C143.119776,241.532809 143.489638,241.342022 143.848982,241.307015 C144.35557,240.412592 144.686868,239.418399 144.767501,238.401452 C144.872675,237.078195 144.841123,235.76194 144.693879,234.463189 C145.005895,234.424681 145.309147,234.433433 145.587858,234.517449 C147.091845,234.972537 147.719382,236.964423 146.970895,238.254423 C147.591421,239.1681 148.229476,240.129037 148.364449,241.226499 C148.501175,242.322212 147.957776,243.587707 146.893767,243.890516" id="path586" fill="#172C4B"></path>
                <path d="M129.454179,223.962904 C128.623305,225.511954 128.125307,227.274545 127.898482,229.040638 C127.830995,228.970624 127.763333,228.886608 127.695671,228.788589 C126.965063,227.733134 126.968569,225.665984 126.959278,224.430244 C126.950514,223.215509 127.089519,221.997273 127.380325,220.815794 L129.210526,223.27152 L129.56987,223.754613 C129.529554,223.822877 129.49099,223.89289 129.454179,223.962904" id="path588" fill="#172C4B"></path>
                <path d="M144.767501,238.401452 C144.686868,239.418399 144.35557,240.412592 143.848982,241.307015 C143.489638,241.342022 143.119776,241.532809 142.830548,241.763853 C142.451922,242.063161 142.125883,242.430733 141.871713,242.840312 C141.812114,242.93483 141.752515,243.0346 141.656106,243.08711 C141.515874,243.160624 141.34409,243.111615 141.191588,243.073107 C139.883926,242.740543 138.027606,243.410923 137.492972,244.728928 C137.468431,244.728928 137.443891,244.728928 137.417597,244.727178 C137.538547,243.209634 136.707673,241.412035 135.268544,240.858928 C134.732157,240.652388 134.123901,240.596377 133.580502,240.783664 C133.394695,239.308128 131.925766,238.327938 130.493648,237.923609 C129.803006,237.729322 129.01946,237.636554 128.38754,237.935862 C128.347574,237.788833 128.307783,237.640054 128.272199,237.491275 C127.571741,237.963867 126.508082,237.8746 125.932956,237.25848 C125.520324,236.822646 125.358882,236.208277 125.285961,235.613161 C125.204627,234.951533 125.22163,234.26365 125.402529,233.626526 C125.470717,233.38498 125.56029,233.152185 125.679487,232.929891 C125.907013,232.506309 126.248653,232.135237 126.653924,231.877938 L113.052132,218.722388 L121.27866,212.629457 L127.380325,220.815794 L129.210526,223.27152 L127.380325,220.815794 C127.089519,221.997273 126.950514,223.215509 126.959278,224.430244 C126.968569,225.665984 126.965063,227.733134 127.695671,228.788589 C127.763333,228.886608 127.830995,228.970624 127.898482,229.040638 C128.125307,227.274545 128.623305,225.511954 129.454179,223.962904 C129.49099,223.89289 129.529554,223.822877 129.56987,223.754613 C130.376204,222.331588 131.717171,220.747531 133.315815,220.267938 C137.342223,219.063704 140.329162,222.781425 141.997921,225.918033 C143.380958,228.515536 144.353817,231.433351 144.693879,234.463189 C144.841123,235.76194 144.872675,237.078195 144.767501,238.401452" id="path590" fill="#F0A258"></path>
                <path d="M137.393057,227.19403 C136.63931,227.19403 135.885564,227.468833 135.321131,227.976431 C135.236991,228.051696 135.22998,228.179471 135.305354,228.263487 C135.380729,228.345753 135.510444,228.352754 135.59283,228.27749 C136.288731,227.652619 137.314176,227.437327 138.202896,227.727883 C138.467584,227.8154 138.637615,227.934423 138.707731,228.079701 C138.805893,228.286242 138.723507,228.562795 138.642873,228.830597 L138.637615,228.849851 C138.080193,230.706961 136.921527,234.57346 138.776094,236.89441 C139.145955,237.356499 139.808551,237.629552 140.641178,237.661058 C141.689411,237.701316 142.758679,237.340746 143.296819,236.764885 C143.373947,236.682619 143.368688,236.553094 143.286302,236.476079 C143.203915,236.400814 143.075954,236.404315 142.998826,236.486581 C142.537814,236.981927 141.596507,237.291737 140.656954,237.25498 C139.954042,237.226974 139.384349,237.002931 139.095121,236.640611 C137.372022,234.487693 138.490371,230.75772 139.028511,228.967123 L139.03377,228.94787 C139.126673,228.63806 139.242365,228.252985 139.075839,227.904668 C138.953136,227.650868 138.709484,227.467083 138.329105,227.342809 C138.025853,227.243039 137.710331,227.19403 137.393057,227.19403" id="path592" fill="#172C4B"></path>
                <path d="M131.2509,236.694871 C131.198313,236.694871 131.145726,236.714125 131.103657,236.752632 C131.014259,236.834898 131.009,236.973175 131.091386,237.062442 C132.013411,238.060136 133.580502,238.375197 134.818049,237.811588 C134.926728,237.762578 134.97581,237.633053 134.924975,237.522782 C134.875894,237.41251 134.74618,237.363501 134.635747,237.414261 C133.566479,237.900855 132.209736,237.629552 131.412167,236.764885 C131.368344,236.719376 131.310499,236.694871 131.2509,236.694871" id="path594" fill="#172C4B"></path>
                <path d="M135.328142,225.711493 C134.809284,225.856771 134.311461,226.11057 133.908294,226.464138 C133.72424,226.62692 133.435012,226.47289 133.468317,226.229593 C133.552456,225.623976 133.876742,225.044613 134.34126,224.638535 C134.912705,224.137938 135.759355,223.794871 136.539395,223.83863 C137.240555,223.877137 138.611321,224.743555 137.811999,225.511954 C137.482455,225.828765 135.848753,225.564464 135.328142,225.711493" id="path596" fill="#172C4B"></path>
                <path d="M133.36139,231.550624 C132.621667,231.821927 131.766252,231.797422 131.815333,231.16905 C131.846886,230.759471 132.08528,230.379647 132.409566,230.129349 C132.735605,229.8773 133.142278,229.744274 133.552456,229.700516 C134.046773,229.648005 134.481492,229.98057 134.413129,230.523175 C134.344766,231.06228 133.827661,231.377341 133.36139,231.550624" id="path598" fill="#D45B4F"></path>
                <path d="M127.836254,233.84882 C127.825736,233.84882 127.815044,233.84882 127.804351,233.85057 C127.693217,233.868073 127.617317,233.973094 127.63467,234.083365 C127.704786,234.529701 127.712148,234.983039 127.656932,235.431126 C127.643259,235.543148 127.722666,235.644668 127.834325,235.65692 C127.945109,235.670923 128.047653,235.592157 128.061326,235.480136 C128.1211,234.995292 128.113036,234.503446 128.037136,234.020353 C128.02136,233.920583 127.934767,233.84882 127.836254,233.84882" id="path600" fill="#172C4B"></path>
                <path d="M124.067697,246.255224 C123.969359,246.255224 123.882766,246.326988 123.866639,246.426757 C123.660849,247.709756 124.218446,249.076771 125.32137,249.995699 C126.544192,251.014396 128.201207,251.285699 129.894157,250.751845 C130.572528,252.63171 132.661983,253.907707 134.751439,253.680163 C137.116099,253.422863 137.927691,251.140421 137.897891,249.089023 C137.897891,248.977001 137.804988,248.884233 137.692802,248.887734 C137.578864,248.889484 137.489466,248.982252 137.491219,249.094274 C137.503489,250.0027 137.34047,252.990529 134.707616,253.275834 C132.733852,253.489376 130.761841,252.243134 130.218443,250.436784 C130.202667,250.382524 130.165856,250.338765 130.116775,250.314261 C130.067694,250.288005 130.009848,250.284505 129.957261,250.303758 C128.333726,250.874369 126.73964,250.648575 125.582552,249.684138 C124.589184,248.856228 124.085752,247.632741 124.26893,246.49152 C124.286809,246.381248 124.211084,246.276228 124.100126,246.258725 C124.089258,246.256974 124.078214,246.255224 124.067697,246.255224" id="path602" fill="#172C4B"></path>
                <path d="M148.378472,245.019484 C148.369708,245.019484 148.362696,245.019484 148.353932,245.019484 C148.243499,245.033487 148.162866,245.133256 148.175136,245.245278 C148.299592,246.342741 147.885908,247.504966 147.09535,248.278616 C146.304793,249.050516 145.133857,249.439091 144.036542,249.292062 C143.934874,249.27806 143.840218,249.342822 143.812171,249.440841 C143.628117,250.118223 143.105753,250.729091 142.3783,251.117666 C141.775303,251.439729 141.03558,251.621764 140.117061,251.672524 C138.893538,251.740787 137.960996,251.502741 137.343976,250.968887 C137.259836,250.895373 137.130122,250.904125 137.0565,250.989891 C136.982878,251.073908 136.991643,251.203433 137.077535,251.276947 C137.776941,251.882564 138.807646,252.152117 140.139849,252.078602 C141.119719,252.024342 141.913782,251.828304 142.571119,251.476486 C143.337136,251.066906 143.905075,250.431533 144.153987,249.713894 C145.321417,249.818915 146.543187,249.388331 147.381073,248.569172 C148.259275,247.709756 148.718534,246.418005 148.580055,245.199769 C148.567785,245.094749 148.48014,245.019484 148.378472,245.019484" id="path604" fill="#172C4B"></path>
                <path d="M134.719886,239.792972 C134.61296,239.792972 134.523562,239.876988 134.51655,239.983758 C134.511291,240.097531 134.597183,240.192049 134.709369,240.19905 C136.150252,240.283066 137.450902,241.466296 137.668262,242.891072 C137.83654,243.993786 137.415844,245.108752 136.982878,246.053935 C136.93555,246.157205 136.979373,246.277978 137.082794,246.325237 C137.184462,246.370746 137.305412,246.326988 137.35274,246.223718 C137.810247,245.224274 138.255483,244.039294 138.069676,242.82981 C137.826023,241.221248 136.358847,239.88749 134.732157,239.792972 C134.728651,239.792972 134.725145,239.792972 134.719886,239.792972" id="path606" fill="#172C4B"></path>
                <path d="M134.413129,234.890271 C134.427152,234.536703 134.151947,234.235645 133.796109,234.221642 C133.44027,234.205889 133.140525,234.482442 133.124749,234.837761 C133.110725,235.19133 133.385931,235.492388 133.741769,235.506391 C134.097607,235.522144 134.397353,235.24559 134.413129,234.890271" id="path608" fill="#172C4B"></path>
                <path d="M67.3637066,156.564342 C68.5616375,158.174654 73.3218089,156.849647 74.6084364,156.24228 C75.0848743,156.016486 75.5416796,155.72943 75.8850725,155.332103 C76.4027034,154.728236 76.6146289,153.914328 76.6212899,153.117924 C76.6212899,153.065414 76.6212899,153.012904 76.6197123,152.962144 C76.596574,152.11673 76.3681713,151.29232 76.1415215,150.476662 C75.9935769,149.94806 75.8407241,149.407205 75.5253777,148.957368 C75.2098559,148.50578 74.6938026,148.155712 74.1433925,148.188969 C73.8969349,148.204722 73.6602936,148.293989 73.4318909,148.390258 C70.9490854,149.447463 68.9723416,151.488358 67.611917,153.816309 C67.3062115,154.341411 67.0778088,155.080054 67.0876251,155.685672 L67.3637066,156.564342" id="path610" fill="#172C4B"></path>
                <path d="M127.664645,91.1156581 C127.647116,91.0631479 127.632392,91.0123881 127.61644,90.9616282 C126.820799,89.0292537 119.753463,90.2177341 113.352053,92.8449932 C106.950642,95.4722524 102.407304,99.1707191 103.20277,101.103094 C103.246592,101.208114 103.304964,101.306133 103.377709,101.397151 C104.636816,102.967205 110.181234,102.328331 116.234519,99.8445997 C122.471157,97.2838535 128.114789,93.1145455 127.664645,91.1156581" id="path612" fill="#172C4B"></path>
                <path d="M39.9976292,41.8418589 C39.9874624,41.8208548 39.9758933,41.7998507 39.9641489,41.780597 C38.9178437,39.9707463 33.2100553,41.3062551 27.2167198,44.7596744 C21.2452955,48.2025916 17.2407987,52.4506649 18.2462613,54.272768 C18.2506436,54.2797693 18.2536235,54.2867707 18.2580057,54.293772 C19.3043109,56.1036228 25.0120993,54.768114 31.0054348,51.3129444 C36.9318096,47.8962822 40.9200045,43.6867164 39.9976292,41.8418589" id="path614" fill="#172C4B"></path>
                <path d="M205.691244,199.365387 C204.022485,198.241669 200.434301,200.597626 197.713803,204.625156 C195.275521,208.234355 194.472693,212.113107 195.536703,213.686662 C195.685699,213.83194 195.832943,213.980719 195.97668,214.134749 C197.643687,215.256716 201.033793,212.718725 203.754291,208.692944 C206.47479,204.667164 207.360004,200.489104 205.691244,199.365387" id="path616" fill="#172C4B"></path>
                <path d="M195.97668,214.134749 C195.832943,213.980719 195.685699,213.83194 195.536703,213.686662 C195.657653,213.866947 195.804896,214.017476 195.97668,214.134749" id="path618" fill="#172C4B"></path>
                <path d="M161.086149,231.976989 C161.053883,231.976989 161.021618,231.987068 160.985319,231.987068 C161.029684,232.037458 161.06195,232.02738 161.086149,231.976989" id="path620" fill="#646E9F"></path>
                <path d="M177.597539,232.683094 C177.40472,232.672592 173.97605,218.298806 164.6629,205.615848 C164.012575,204.730176 163.334203,203.853256 162.624279,202.988589 C162.506835,202.846811 162.387638,202.701533 162.26844,202.559756 C162.14749,202.416228 162.028293,202.27445 161.90559,202.130923 C160.934485,200.991452 159.909039,199.883487 158.831006,198.81228 C150.222521,198.45521 141.966369,200.938942 134.826813,206.006174 C134.956528,206.074437 135.087995,206.1427 135.221215,206.214464 C135.354436,206.282727 135.489409,206.354491 135.626135,206.429756 C135.761108,206.499769 135.897834,206.573284 136.036313,206.652049 C136.399163,206.848087 136.769025,207.054627 137.149404,207.271669 C137.491219,207.465957 137.841799,207.668996 138.19939,207.880787 C139.810304,208.82772 141.563202,209.932185 143.472109,211.206431 C149.991139,215.556024 155.532051,221.993772 159.551448,228.473528 C159.959873,229.129905 160.340252,229.803786 160.676809,230.500421 C160.824052,230.80498 161.14308,231.856934 161.030894,231.953202 C165.351789,231.772917 173.301184,232.453799 177.597539,232.683094" id="path622" fill="#002081"></path>
                <path d="M228.897868,221.920258 C229.216896,222.265075 229.546441,222.622144 229.70946,223.063229 C229.87248,223.504315 229.832163,224.053921 229.486842,224.374233 C228.89261,224.920339 227.939033,224.468752 227.316754,223.954152 C226.694475,223.439552 224.810109,221.479172 221.749548,219.877612 C222.519071,220.579498 226.617347,224.643786 227.181781,225.517205 C227.506067,226.017802 227.783025,226.710936 227.39914,227.167775 C226.918846,227.734885 226.00208,227.325305 225.400836,226.88772 C224.278981,226.075563 223.062469,224.09768 220.147399,222.352592 C222.042282,224.389986 222.261394,225.527707 222.012483,226.00555 C221.263995,226.509647 220.03346,225.923284 219.418193,225.261655 C217.980816,223.716106 216.82215,222.041031 215.046464,220.896309 C212.271625,219.105712 208.876261,219.065455 205.792912,217.876974 C203.03385,216.814518 200.80241,214.714111 198.891751,212.461425 C198.528901,212.032592 198.08717,211.602008 197.596358,211.173175 C198.197603,207.985807 200.187143,205.288535 202.818243,203.333406 C203.316067,204.051045 203.850701,204.74943 204.462462,205.397056 C206.234643,207.273419 208.693959,207.978806 211.074396,208.757707 C217.121896,210.73384 222.624244,211.584505 228.452632,216.677992 C228.943444,217.105075 229.581499,218.066011 229.61831,218.713636 C229.655121,219.363012 229.506124,219.779593 228.869822,219.91787 C227.954809,220.115658 226.121277,217.549661 223.644431,216.968548 C226.559502,219.151221 228.012655,220.969824 228.897868,221.920258" id="path624" fill="#F0A258"></path>
                <path d="M154.136744,231.664396 C154.136744,227.887164 151.070924,224.825821 147.288169,224.825821 C143.505414,224.825821 140.439594,227.887164 140.439594,231.664396 C140.439594,235.441628 143.505414,238.502972 147.288169,238.502972 C151.070924,238.502972 154.136744,235.441628 154.136744,231.664396" id="path626" fill="#F0A258"></path>
                <path d="M146.914802,238.102144 C143.331877,238.102144 140.415054,235.19133 140.415054,231.611886 C140.415054,228.032442 143.331877,225.119878 146.914802,225.119878 C150.499479,225.119878 153.416303,228.032442 153.416303,231.611886 C153.416303,235.19133 150.499479,238.102144 146.914802,238.102144 Z M146.914802,223.835129 C142.6202,223.835129 139.126673,227.323555 139.126673,231.611886 C139.126673,235.900217 142.6202,239.388643 146.914802,239.388643 C151.209403,239.388643 154.704683,235.900217 154.704683,231.611886 C154.704683,227.323555 151.209403,223.835129 146.914802,223.835129" id="path628" fill="#172C4B"></path>
                <path d="M154.587239,230.675455 C154.236659,230.675455 153.950937,230.955509 153.942044,231.305577 C153.935161,231.660896 154.217377,231.954953 154.573216,231.961954 L181.276873,232.546567 C181.627452,232.55882 181.927198,232.273514 181.934408,231.918195 C181.942974,231.562877 181.660757,231.26882 181.304919,231.261818 L154.601262,230.675455 C154.596003,230.675455 154.590745,230.675455 154.587239,230.675455" id="path630" fill="#172C4B"></path>
                <path d="M156.944887,231.967205 C156.955405,231.795672 156.997474,231.617137 157.111413,231.489362 C157.239374,231.344084 157.439205,231.284573 157.628518,231.239064 C158.827501,230.96076 160.110622,231.043026 161.265782,231.473609 C161.712772,231.641642 162.158008,231.863935 162.636549,231.858684 C162.888967,231.856934 163.134372,231.792171 163.379778,231.73791 C164.228181,231.550624 165.102877,231.491113 165.967056,231.561126 C165.730415,231.058779 165.486762,230.538928 165.456963,229.984071 C165.427164,229.429213 165.662052,228.821845 166.159875,228.575047 C166.832988,228.240733 167.618287,228.669566 168.244072,229.082646 C168.482466,229.240176 168.72086,229.397707 168.959254,229.555237 C169.194143,228.981126 168.361516,228.401764 168.535053,227.806649 C168.629709,227.482836 169.00483,227.309552 169.341386,227.332307 C169.677943,227.353311 169.9847,227.524844 170.277434,227.691126 C170.957559,228.077951 171.683259,228.513786 171.997028,229.231425 C172.000533,228.667815 172.254704,228.027191 172.798102,227.878412 C173.343254,227.731384 173.874382,228.144464 174.251255,228.564545 C174.920862,229.313691 175.453744,230.18536 175.816594,231.121791 C175.709667,230.801479 175.599234,230.472415 175.600987,230.1346 C175.60274,229.796784 175.734207,229.439715 176.016424,229.254179 C176.363498,229.026635 176.847298,229.117653 177.180349,229.366201 C177.511647,229.614749 177.723747,229.987571 177.91306,230.356893 C178.46347,231.429851 178.906954,232.576323 179.020892,233.777056 C179.161124,235.252592 178.794768,236.736879 178.258381,238.119647 C178.018234,238.735767 177.730759,239.358887 177.236441,239.798223 C176.913908,240.085278 176.519506,240.277815 176.119845,240.442347 C173.856853,241.373528 171.264316,241.440041 168.927702,240.7119 C166.589335,239.985509 164.515656,238.481967 163.025693,236.542592 C162.689136,236.105007 162.378873,235.642917 162.005506,235.236839 C161.425296,234.604966 160.687326,234.121872 159.884498,233.824315 C159.47432,233.672035 159.046613,233.568765 158.613647,233.518005 C158.164905,233.465495 157.807314,233.547761 157.456734,233.218697 C157.118424,232.900136 156.918594,232.432795 156.944887,231.967205" id="path632" fill="#F0A258"></path>
                <path d="M211.479315,208.178345 C212.806259,208.293867 214.143721,208.449647 215.405808,208.880231 C216.666142,209.309064 217.859866,210.037205 218.643412,211.111913 C218.780138,211.299199 218.909852,211.519742 218.8783,211.749037 C218.837983,212.043094 218.538238,212.246133 218.241998,212.277639 C217.947511,212.307395 217.654777,212.205875 217.376066,212.107856 C215.496959,211.440977 213.617852,210.775848 211.738744,210.108969 C210.956951,209.830665 210.008633,209.499851 209.481011,208.817218 C208.564245,207.635739 210.802696,208.120583 211.479315,208.178345" id="path634" fill="#F0A258"></path>
                <path d="M118.622142,171.510488 C116.502362,169.718141 112.371481,167.827775 110.899222,166.663799 C109.487788,165.547083 108.135426,164.3481 106.883331,163.05635 C105.514668,161.647327 104.26415,160.128033 103.179632,158.484464 C102.001508,156.699118 101.025495,154.782497 99.7832153,153.04441 C97.6175091,150.016323 94.695953,147.789891 91.3850782,146.247843 C90.1527905,145.670231 88.86441,145.190638 87.5434257,144.796811 C83.9382391,143.727354 72.9685998,144.68829 70.6237474,147.616608 C70.7634534,148.131208 70.9031594,148.647558 71.0426901,149.162157 C71.2153507,149.79578 71.3862583,150.429403 71.5587435,151.063026 C71.6015142,151.220556 71.6441097,151.378087 71.6868804,151.537368 C71.9563009,152.52806 72.2241438,153.517001 72.4953172,154.504193 C77.0123616,152.981398 83.3499664,150.623691 88.9680063,150.847734 C89.0025384,150.849484 89.0370705,150.851235 89.0698497,150.852985 C89.4263893,150.866988 89.7813513,150.894993 90.1329827,150.93175 C90.1757535,150.937001 90.2183489,150.942252 90.2611196,150.947503 C90.3449082,150.958005 90.4271191,150.966757 90.5093301,150.979009 C90.607843,150.991262 90.7065311,151.007015 90.805044,151.021018 C90.8395762,151.026269 90.8723554,151.03152 90.9053098,151.036771 C91.0218776,151.056024 91.137043,151.075278 91.2520332,151.096282 C91.375262,151.119037 91.4967378,151.143541 91.618389,151.169796 C91.861516,151.222307 92.1030654,151.281818 92.3414597,151.348331 C92.4597803,151.379837 92.5779257,151.414844 92.6962463,151.451601 C92.8080813,151.484858 92.9181633,151.519864 93.0282453,151.558372 C93.0447226,151.563623 93.0627774,151.568874 93.0808323,151.575875 C93.1860062,151.612632 93.2911801,151.649389 93.3946011,151.689647 C93.4028397,151.693148 93.4095008,151.694898 93.4177394,151.696649 C93.5244909,151.740407 93.6312424,151.780665 93.7364163,151.824423 C93.7413245,151.826174 93.7462326,151.829674 93.7495631,151.829674 C93.8596451,151.876934 93.9681495,151.924193 94.0749011,151.973202 L94.076654,151.973202 C94.1784974,152.018711 94.2803408,152.06772 94.3821842,152.11848 C94.3870923,152.120231 94.3937533,152.123731 94.400239,152.127232 C94.5005048,152.176242 94.5990177,152.228752 94.6977059,152.281262 C94.7041917,152.286513 94.7108527,152.290014 94.7173384,152.291764 C94.8126961,152.344274 94.9080538,152.396784 95.0016585,152.452795 C95.0114748,152.456296 95.0214663,152.463297 95.0312825,152.468548 C95.0970162,152.507056 95.1627499,152.545563 95.2267307,152.584071 C95.300703,152.63133 95.376253,152.678589 95.4486477,152.725848 C95.52262,152.773107 95.596417,152.822117 95.6688117,152.872877 C95.7410312,152.921886 95.8134259,152.974396 95.8856453,153.026906 C95.9333241,153.060163 95.981003,153.09517 96.0286818,153.131927 C96.0763607,153.166934 96.1222866,153.203691 96.1699654,153.238697 C96.2176443,153.275455 96.2635702,153.313962 96.3096715,153.350719 C96.3573503,153.389227 96.4032762,153.425984 96.4493775,153.466242 C96.5412294,153.543256 96.6332565,153.622022 96.7237061,153.704288 C96.7698073,153.742795 96.8141557,153.784803 96.858504,153.826811 C96.9142462,153.879322 96.9717413,153.931832 97.0260811,153.986092 C97.1820891,154.136621 97.3349418,154.294152 97.4844641,154.458684 C97.5254819,154.504193 97.566675,154.549701 97.6076929,154.596961 C97.6832428,154.680977 97.758968,154.770244 97.832765,154.861262 C97.885352,154.922524 97.9363613,154.987286 97.9873707,155.050299 C98.0382048,155.115061 98.0892141,155.179824 98.1384706,155.246336 C98.1400482,155.248087 98.1418011,155.251588 98.1433787,155.253338 C98.2157734,155.347856 98.2864152,155.442374 98.3553041,155.542144 C98.3947443,155.596404 98.4341845,155.652415 98.4736248,155.710176 C98.572313,155.855455 98.6724035,155.998982 98.7726693,156.14076 C98.8729351,156.282537 98.9732009,156.424315 99.0750443,156.564342 C99.1753101,156.704369 99.2771535,156.842646 99.3789969,156.980923 C99.4480611,157.075441 99.5187029,157.169959 99.5910976,157.264478 C99.7027572,157.415007 99.8161698,157.563786 99.9311599,157.710814 C100.013371,157.819335 100.095407,157.924355 100.179195,158.029376 C100.261406,158.134396 100.345195,158.239417 100.427406,158.342687 C100.511194,158.445957 100.593405,158.549227 100.678771,158.652497 C100.76256,158.754016 100.846348,158.855536 100.930137,158.957056 C101.013925,159.056825 101.097714,159.158345 101.183255,159.258114 C101.245659,159.333379 101.309815,159.406893 101.373795,159.480407 C101.478969,159.604681 101.585896,159.725455 101.692648,159.846228 C101.776436,159.944247 101.861802,160.038765 101.947344,160.133284 C102.119829,160.325821 102.290737,160.513107 102.463222,160.698643 C102.635707,160.884179 102.808368,161.066214 102.98243,161.246499 C103.06955,161.337517 103.155091,161.425034 103.242035,161.514301 C103.329154,161.601818 103.416273,161.691085 103.503392,161.778602 C104.269058,162.545251 105.044716,163.26289 105.821951,163.93152 C105.892593,163.991031 105.964812,164.054043 106.035454,164.115305 C106.249132,164.29559 106.462635,164.474125 106.677891,164.647408 C106.811112,164.755929 106.944157,164.86445 107.077202,164.969471 C107.211999,165.076242 107.345044,165.179512 107.478265,165.282782 C107.703337,165.457815 107.926832,165.629349 108.151904,165.793881 C108.248839,165.867395 108.347352,165.939159 108.444287,166.009172 C109.200137,166.56228 109.952832,167.075129 110.697112,167.54772 C110.813855,167.621235 110.932176,167.694749 111.048744,167.766513 C112.049474,168.389634 113.033726,168.944491 113.988355,169.438087 C114.091951,169.492347 114.195372,169.544858 114.297216,169.597368 C114.709673,169.807408 115.113891,170.005197 115.513201,170.192483 C115.613467,170.239742 115.71198,170.285251 115.810668,170.33076 C115.909181,170.376269 116.007869,170.421777 116.106382,170.465536 C116.203317,170.509294 116.300253,170.553053 116.397188,170.595061 C116.52217,170.651072 116.643646,170.703582 116.765297,170.756092 C116.931296,170.827856 117.093965,170.89787 117.256634,170.966133 C117.725009,171.162171 118.181814,171.344206 118.622142,171.510488" id="path636" fill="#00E4BA"></path>
                <path d="M114.297216,169.597368 C114.708095,169.807408 115.113891,170.006947 115.513201,170.192483 C115.113891,170.005197 114.709673,169.807408 114.297216,169.597368" id="path638" fill="#D85C45"></path>
                <path d="M94.6977059,152.281262 C94.4940191,152.170991 94.2868265,152.06772 94.076654,151.973202 L94.076654,151.974953 C94.2868265,152.069471 94.4940191,152.172741 94.6977059,152.281262" id="path640" fill="#00E4BA"></path>
                <path d="M95.8856453,153.026906 C95.5981699,152.816866 95.3040335,152.626079 95.0016585,152.452795 C95.3040335,152.627829 95.5981699,152.818616 95.8856453,153.026906" id="path642" fill="#00E4BA"></path>
                <path d="M96.4493775,153.466242 C96.2653231,153.310461 96.0763607,153.163433 95.8856453,153.026906 C96.0763607,153.165183 96.2653231,153.312212 96.4493775,153.466242" id="path644" fill="#00E4BA"></path>
                <path d="M110.270632,101.748969 C109.843801,100.788033 109.402772,99.7955902 108.958763,98.7943962 C112.740992,97.7984532 116.1928,95.8993351 119.747678,94.3082768 C120.056013,94.1542469 120.357161,94.0072185 120.655154,93.8619403 L122.237496,96.7832564 C120.456025,97.8912212 118.380418,98.9624288 116.234519,99.8445997 C114.132268,100.707517 112.091894,101.348141 110.270632,101.748969" id="path646" fill="#002081"></path>
                <path d="M23.3549089,54.6298372 L20.8806926,51.7347761 C23.8830573,50.7160787 26.9686847,50.0894573 29.5482502,48.328616 C31.4049204,46.9983582 33.1273185,45.5788331 34.7776726,44.1102985 L37.0427681,46.9931072 C35.4772544,48.4231343 33.3998943,49.9336771 31.0056101,51.3129444 C28.2530335,52.900502 25.5626847,54.0382225 23.3549089,54.6298372" id="path648" fill="#002081"></path>
                <path d="M157.342795,167.206404 C156.522439,161.150231 143.517684,129.504098 141.167047,123.845251 C138.788364,118.116391 136.206344,112.429539 133.882001,106.674423 C131.12995,99.8603528 129.827546,98.1660244 127.66447,91.1156581 C127.960184,92.4266621 125.633386,94.670597 122.237145,96.7832564 C120.455849,97.8912212 118.380593,98.9624288 116.234519,99.8445997 C114.132969,100.707517 112.092244,101.346391 110.269931,101.748969 C106.847221,102.505115 104.199994,102.421099 103.378586,101.397151 C107.156082,109.826784 108.549461,111.937693 112.315564,120.351574 C114.349803,124.895455 124.2663,145.939783 121.933017,148.726323 C119.576771,151.544369 110.67748,148.234478 108.235692,146.979484 C106.505406,146.090312 104.839276,145.089118 103.214164,144.023161 C98.2995619,131.711275 91.8091044,117.773324 86.2320822,103.910638 C80.1014947,88.6704342 42.228368,43.8512483 39.9969281,41.8436092 C40.5473382,42.9410719 39.3527378,44.8821981 37.0424175,46.9913569 C35.4765532,48.4248847 33.3995437,49.9336771 31.0056101,51.3129444 C28.2532087,52.900502 25.5633859,54.0382225 23.3549089,54.6315875 C20.7537827,55.3282225 18.8247178,55.2722117 18.2578304,54.293772 C18.2529223,54.2867707 18.2513447,54.2797693 18.2464366,54.2745183 C18.2250512,54.2797693 18.2036659,54.2867707 18.1822805,54.293772 C23.1364978,61.7152103 39.1867384,83.5261872 44.8047783,90.8741113 C48.5298631,95.7470556 52.060902,100.777531 55.1551186,106.077558 C55.3291814,106.375115 55.500089,106.672673 55.6709966,106.970231 C59.3484026,113.442985 62.1861701,120.276309 64.5883423,127.284668 C66.8756996,133.95521 68.7702324,140.788535 70.6237474,147.616608 C72.9685998,144.68829 83.9382391,143.727354 87.5434257,144.796811 C88.86441,145.190638 90.1527905,145.670231 91.3850782,146.247843 C94.695953,147.789891 97.6175091,150.016323 99.7832153,153.04441 C101.025495,154.782497 102.001508,156.699118 103.179632,158.484464 C104.26415,160.128033 105.514668,161.647327 106.883331,163.05635 C108.135426,164.3481 109.487788,165.547083 110.899222,166.663799 C111.686273,167.28692 113.232505,168.11483 114.824663,169.026757 C116.211556,169.819661 117.634559,170.677327 118.622142,171.510488 C122.550914,173.005278 123.407555,173.27483 125.304893,173.747422 C130.011601,175.361235 138.716495,178.095265 145.899874,178.268548 C145.987518,178.268548 146.075163,178.270299 146.161055,178.272049 C147.943753,178.340312 149.440729,178.231791 150.944716,177.822212 C155.370785,176.772008 158.228009,173.747422 157.342795,167.206404" id="path650" fill="#00E4BA"></path>
                <path d="M125.743468,173.784179 C125.541359,173.966214 124.866142,174.671601 124.621262,174.92365 C119.900531,179.805346 115.80576,189.328942 113.976961,195.911967 C113.398504,197.250977 112.989378,198.693256 112.7757,200.242307 C112.760975,200.345577 112.747828,200.448847 112.736259,200.553867 C112.723113,200.665889 112.711719,200.779661 112.70015,200.889932 C112.157978,206.308982 114.663747,212.981275 120.720362,213.788182 C123.579515,214.171506 125.791147,213.074043 127.776129,211.484735 C127.322654,212.662714 126.721235,213.908955 125.991678,215.116689 C123.655065,218.986689 120.000622,222.468114 115.667632,222.062035 C111.329734,221.654206 107.349953,218.535102 104.446627,215.659294 C99.2245665,210.483541 93.935195,204.189322 89.8372687,198.028128 C84.0467436,189.323691 70.5843072,167.327178 67.0876251,155.685672 C68.0357679,155.941221 69.9846406,155.353107 72.4953172,154.504193 C78.4632357,152.491303 87.610737,149.023881 94.076654,151.974953 C95.7575084,152.741601 97.2578143,153.938833 98.4736248,155.710176 C103.316007,162.771045 109.206798,166.999864 114.229904,169.564111 C115.797521,170.364016 117.28135,171.00114 118.622142,171.510488 C122.550914,173.005278 125.717525,173.754423 125.907364,173.819186 C125.995009,173.848942 126.054432,173.876947 126.093347,173.901452 C125.976604,173.861194 125.861438,173.822687 125.743468,173.784179" id="path652" fill="#002081"></path>
                <path d="M125.743468,173.784179 C125.861438,173.822687 125.976604,173.861194 126.093347,173.901452 C141.139001,178.944179 145.512483,177.965739 145.945449,178.301805 C144.94805,178.440081 143.53346,178.541601 142.539567,178.706133 C137.207249,179.579552 132.616408,181.125102 127.861671,183.225509 C124.790592,184.585522 121.911632,186.496893 119.387808,188.774084 C118.618812,189.442714 117.899072,190.1481 117.237002,190.890244 C116.913241,191.238562 116.59772,191.59213 116.290437,191.95095 C115.459037,192.925889 114.92002,193.921832 114.394151,195.019294 C114.246381,195.313351 114.106675,195.610909 113.976961,195.911967 C115.80576,189.328942 119.900531,179.805346 124.621262,174.92365 C124.866142,174.671601 125.541359,173.966214 125.743468,173.784179" id="path654" fill="#172C4B"></path>
                <path d="M166.762872,228.296744 C166.685745,228.296744 166.608617,228.300244 166.53149,228.307246 C166.205451,228.340502 165.935504,228.438521 165.726909,228.601303 C165.095866,229.091398 165.1467,230.040081 165.462222,230.712212 C165.584925,230.978263 165.740933,231.226811 165.893435,231.466608 C166.103783,231.800923 166.30186,232.117734 166.415799,232.469552 C166.51922,232.795115 166.55603,233.164437 166.534996,233.670285 C166.524478,233.931085 166.499938,234.142877 166.415799,234.326662 C166.201945,234.788752 165.64277,235.005794 165.087101,235.187829 C164.980175,235.222836 164.922329,235.338358 164.957387,235.445129 C164.992445,235.5519 165.108136,235.609661 165.215063,235.574654 C165.826825,235.373365 166.505196,235.107313 166.78566,234.496445 C166.904857,234.237395 166.931151,233.95384 166.941668,233.686038 C166.966209,233.13118 166.922386,232.7181 166.803189,232.347028 C166.675227,231.94445 166.452609,231.590882 166.237003,231.249566 C166.086254,231.009769 165.944269,230.783976 165.83033,230.540678 C165.574407,229.992822 165.542855,229.25943 165.977574,228.921615 C166.124817,228.807843 166.324648,228.737829 166.571806,228.711574 C167.181815,228.650312 167.840905,228.886608 168.382551,229.355699 C168.834799,229.747775 169.211672,230.295631 169.539464,231.030773 C169.70073,231.394844 169.818175,231.730909 169.898808,232.056472 C170.254646,233.498752 169.902314,235.119566 168.978536,236.285292 C168.90842,236.372809 168.922443,236.500583 169.010088,236.570597 C169.099486,236.640611 169.227448,236.626608 169.297564,236.537341 C170.298469,235.277096 170.680601,233.521506 170.294963,231.958453 C170.207318,231.610136 170.082862,231.253066 169.911078,230.866242 C169.560499,230.075088 169.146814,229.479973 168.650744,229.049389 C168.089817,228.562795 167.414951,228.296744 166.762872,228.296744" id="path656" fill="#172C4B"></path>
                <path d="M169.416761,227.129267 C169.381703,227.129267 169.346645,227.131018 169.311587,227.132768 C168.887386,227.167775 168.407091,227.470583 168.347493,227.96943 C168.308929,228.300244 168.470196,228.58555 168.610428,228.837598 C168.726119,229.042388 168.833046,229.234925 168.831293,229.427463 C168.82954,229.539484 168.918938,229.632252 169.031123,229.634003 C169.15032,229.632252 169.236212,229.546486 169.237965,229.432714 C169.243224,229.131655 169.09598,228.869104 168.966266,228.63806 C168.843563,228.421018 168.729625,228.216228 168.752412,228.016689 C168.783964,227.748887 169.08371,227.559851 169.343139,227.538847 C169.60958,227.517843 169.907572,227.614111 170.256399,227.831153 C171.145119,228.38251 171.855043,229.325943 172.254704,230.486418 C172.582496,231.438602 172.720975,232.522062 172.68767,233.896079 C172.666635,234.741493 172.563214,235.803948 171.939182,236.507585 C171.863807,236.591601 171.872572,236.721126 171.956711,236.79464 C172.04085,236.869905 172.168812,236.861153 172.244186,236.777137 C172.955863,235.973731 173.071554,234.822008 173.094342,233.906581 C173.1294,232.481805 172.985662,231.352836 172.640341,230.353392 C172.209128,229.1054 171.439606,228.086703 170.470253,227.484586 C170.086368,227.24654 169.741047,227.129267 169.416761,227.129267" id="path658" fill="#172C4B"></path>
                <path d="M173.092589,227.656119 C172.770056,227.656119 172.447523,227.8119 172.212634,228.086703 C171.874325,228.48403 171.774409,229.038887 171.937429,229.611248 C171.968981,229.718019 172.081167,229.781031 172.189846,229.749525 C172.296773,229.719769 172.359878,229.605997 172.328325,229.499227 C172.20387,229.059891 172.273986,228.64156 172.522897,228.351004 C172.698187,228.146214 172.936581,228.039444 173.160952,228.065699 C173.451933,228.100706 173.74642,228.294993 174.061942,228.659064 C174.971696,229.705767 175.395898,231.092035 175.688632,232.310271 C175.895474,233.167938 176.077775,234.086866 176.00766,235.012795 C175.934038,235.991235 175.569435,236.834898 174.982214,237.388005 C174.901581,237.46502 174.896322,237.592795 174.975202,237.675061 C175.05233,237.757327 175.180291,237.760828 175.262678,237.683813 C175.92352,237.060692 176.331946,236.124261 176.414332,235.044301 C176.487954,234.062361 176.300394,233.104925 176.084787,232.215753 C175.779783,230.948507 175.336299,229.504478 174.370452,228.391262 C173.984815,227.948426 173.604436,227.70863 173.208281,227.66137 C173.169717,227.65787 173.131153,227.656119 173.092589,227.656119" id="path660" fill="#172C4B"></path>
                <path d="M176.586116,228.799091 C176.554564,228.799091 176.523012,228.800841 176.49146,228.802592 C175.904239,228.858602 175.530871,229.434464 175.476531,229.947313 C175.423944,230.432157 175.557165,231.482361 175.730702,231.953202 C175.769265,232.058223 175.88671,232.112483 175.991883,232.073976 C176.097057,232.035468 176.151397,231.918195 176.112833,231.813175 C175.962084,231.401845 175.835875,230.412904 175.881451,229.991072 C175.920015,229.632252 176.172432,229.241927 176.530023,229.20867 C176.957731,229.166662 177.315322,229.614749 177.541446,229.996323 C178.721147,231.989959 179.099773,234.426431 178.580915,236.684369 C178.356544,237.664559 177.855215,239.00882 176.74563,239.847232 C176.203984,240.256811 175.497566,240.556119 174.586059,240.76441 C170.617496,241.669335 166.165134,240.085278 163.505987,236.826147 C163.32018,236.596852 163.132619,236.351805 162.952071,236.115509 C162.152749,235.067056 161.325381,233.981845 160.051024,233.59152 C159.751278,233.500502 159.439262,233.453243 159.139516,233.409484 C158.706551,233.344722 158.298125,233.28346 157.937028,233.097924 C157.537367,232.891384 157.200811,232.485305 157.120177,232.108982 C157.06759,231.858684 157.12193,231.629389 157.283197,231.4281 C157.353313,231.340583 157.33929,231.211058 157.251645,231.141045 C157.164,231.071031 157.036038,231.086784 156.965922,231.174301 C156.727528,231.471859 156.643389,231.823677 156.722269,232.192999 C156.844972,232.76711 157.327019,233.241452 157.751221,233.458494 C158.171916,233.675536 158.632929,233.743799 159.078165,233.810312 C159.377911,233.855821 159.660127,233.897829 159.931827,233.981845 C161.081728,234.333664 161.867027,235.364613 162.627785,236.362307 C162.810086,236.600353 162.999399,236.848901 163.190465,237.083446 C165.944269,240.459851 170.559651,242.099919 174.67721,241.159986 C175.646562,240.939444 176.403815,240.615631 176.992789,240.171045 C178.198783,239.260868 178.736923,237.82209 178.978823,236.775387 C179.520468,234.41768 179.124313,231.870936 177.892026,229.789783 C177.508141,229.138657 177.057646,228.799091 176.586116,228.799091" id="path662" fill="#172C4B"></path>
                <path d="M200.811174,199.84848 C200.776117,199.84848 200.742811,199.857232 200.711259,199.872985 C200.613097,199.928996 200.578039,200.05152 200.632379,200.149539 C203.486098,205.279783 205.752596,207.474708 208.991952,208.243107 C209.864896,208.449647 210.767638,208.495156 211.640582,208.540665 C212.313695,208.575672 213.009596,208.612429 213.67745,208.72095 C216.348868,209.160285 218.816949,210.852863 220.280619,213.249077 C220.489214,213.592144 220.69255,213.994722 220.617176,214.372795 C220.519013,214.866391 219.965097,215.151696 219.481297,215.144695 C218.894076,215.135943 218.341913,214.789376 217.97731,214.530326 C217.482993,214.178507 217.030745,213.788182 216.59252,213.411859 C215.432102,212.410665 214.334787,211.465482 212.664275,211.397218 C212.550336,211.397218 212.45568,211.481235 212.452174,211.593256 C212.446915,211.705278 212.53456,211.799796 212.646746,211.805047 C214.175273,211.866309 215.172673,212.725726 216.327833,213.719919 C216.771316,214.103243 217.230575,214.49882 217.740669,214.86114 C218.149094,215.151696 218.774879,215.540271 219.476039,215.552662 C220.122858,215.561275 220.876605,215.153446 221.016836,214.453311 C221.120257,213.936961 220.878357,213.448616 220.627693,213.037286 C219.104424,210.541303 216.531169,208.778711 213.74406,208.320122 C213.053418,208.20635 212.345247,208.169593 211.661617,208.134586 C210.806202,208.090828 209.922741,208.045319 209.086609,207.84578 C205.934897,207.098385 203.815643,205.032985 200.988217,199.953501 C200.951406,199.885237 200.88129,199.84848 200.811174,199.84848" id="path664" fill="#172C4B"></path>
                <path d="M38.6713862,5.26677069 C31.0823871,5.97740841 24.6958764,10.918616 20.0450858,16.661479 C17.5280988,19.7700814 16.116139,23.5928223 13.6147527,26.6524152 C12.8059653,27.6431072 11.8204857,28.4692673 10.8874178,29.3426866 C8.78376419,31.3118182 6.92534112,33.5417503 5.36859189,35.9659701 C4.73982717,36.9444098 4.80748905,37.9771099 5.25184884,38.9678019 C5.50303921,39.5279104 5.82574784,40.088019 6.20367277,40.6393758 C4.54788477,40.474844 0.835070285,36.2810312 0.413498176,35.2728358 C0.368448682,35.1660651 0.319192232,35.0557938 0.287114188,34.943772 C0.405785422,34.9262687 0.500091366,34.8317503 0.5064018,34.7074763 C0.634713977,32.2009905 4.38276172,29.0241248 6.39631632,27.3175441 C7.03700076,26.7749389 7.54306258,26.3461058 7.78426142,26.0730529 C10.2646129,23.2690095 11.4306411,20.6014925 12.5582807,18.0232429 C13.6235172,15.5867707 14.7248634,13.0680326 16.944033,10.3987653 C21.2947272,5.16525102 27.5771158,1.64356852 34.1802847,0.73339213 C37.6885359,0.250298507 40.8181611,0.537354138 43.4822163,1.58930801 C43.6103532,1.64006784 43.7553179,1.57880597 43.808606,1.45103121 C47.5494669,3.02458616 50.4461318,6.58652646 51.4358184,10.5615468 C48.8225971,6.67579376 43.070811,4.85544098 38.6713862,5.26677069" id="path666" fill="#F9EDED"></path>
                <path d="M43.4822163,1.58930801 C40.8181611,0.537354138 37.6885359,0.250298507 34.1802847,0.73339213 C27.5771158,1.64356852 21.2947272,5.16525102 16.944033,10.3987653 C14.7248634,13.0680326 13.6235172,15.5867707 12.5582807,18.0232429 C11.4306411,20.6014925 10.2646129,23.2690095 7.78426142,26.0730529 C7.54306258,26.3461058 7.03700076,26.7749389 6.39631632,27.3175441 C4.38276172,29.0241248 0.634713977,32.2009905 0.5064018,34.7074763 C0.500091366,34.8317503 0.405785422,34.9262687 0.287114188,34.943772 C0.27186397,34.9472727 0.256438463,34.9490231 0.240487086,34.9472727 C0.100781069,34.9402714 -0.00684690425,34.8212483 0,34.6829715 C0.139695417,31.955943 3.85093229,28.8105834 6.06817371,26.9324695 C6.69343263,26.4021167 7.18722416,25.9837856 7.4044083,25.7387381 C9.83199755,22.9924559 10.9305391,20.4807191 12.0937626,17.8202035 C13.1730222,15.3522252 14.2889175,12.8002307 16.554013,10.0749525 C20.9846395,4.74691995 27.3839463,1.15872456 34.1110452,0.231044776 C35.2348285,0.0770149254 36.3214503,0 37.3682814,0 C39.6707137,0 41.7806777,0.372822252 43.6685494,1.11846676 C43.7987898,1.16922659 43.8625953,1.31625509 43.8110601,1.44753053 C43.8105342,1.44928087 43.8093072,1.44928087 43.808606,1.45103121 C43.7553179,1.57880597 43.6103532,1.64006784 43.4822163,1.58930801" id="path668" fill="#172C4B"></path>
                <path d="M30.9232239,39.3598779 C30.9432069,39.3318725 30.9607359,39.303867 30.9805436,39.2758616 L34.7776726,44.1102985 C33.1273185,45.5788331 31.4049204,46.9983582 29.5482502,48.328616 C26.9686847,50.0894573 23.8830573,50.7160787 20.8806926,51.7347761 L17.4614886,47.7335007 C20.1630559,43.5904478 25.0313811,39.4911533 30.9232239,39.3598779" id="path670" fill="#002081"></path>
                <path d="M49.4396174,21.6289417 C46.8351607,23.2392537 43.5341021,23.1289824 40.6591732,23.9323881 C39.2440581,24.3279647 37.8750443,24.9108277 36.7791322,25.913772 C32.4894387,29.8362822 34.1974631,34.7442334 30.9805436,39.2758616 C30.9607359,39.303867 30.9432069,39.3318725 30.9232239,39.3598779 C25.0313811,39.4911533 20.1630559,43.5904478 17.4614886,47.7335007 C17.4448361,47.7580054 17.4271318,47.7842605 17.4106546,47.8105156 C13.6135257,47.4937042 8.68279723,44.257327 6.20367277,40.6393758 C5.82574784,40.088019 5.50303921,39.5279104 5.25184884,38.9678019 C4.80748905,37.9771099 4.73982717,36.9444098 5.36859189,35.9659701 C6.92534112,33.5417503 8.78376419,31.3118182 10.8874178,29.3426866 C11.8204857,28.4692673 12.8059653,27.6431072 13.6147527,26.6524152 C16.116139,23.5928223 17.5280988,19.7700814 20.0450858,16.661479 C24.6958764,10.918616 31.0823871,5.97740841 38.6713862,5.26677069 C43.070811,4.85544098 48.8225971,6.67579376 51.4358184,10.5615468 C52.0477552,11.4699729 52.4880834,12.4939213 52.6980806,13.6281411 C53.2411286,16.5599593 52.0289992,20.0273813 49.4396174,21.6289417" id="path672" fill="#B08A37"></path>
                <path d="M118.973248,90.7550882 L120.655154,93.8619403 C120.357161,94.0072185 120.056013,94.1542469 119.747678,94.3082768 C116.1928,95.8993351 112.740992,97.7984532 108.958763,98.7943962 C107.800973,96.1881411 106.626005,93.5416282 105.647362,91.3397015 C105.649115,91.3397015 105.650868,91.3414518 105.652621,91.3432022 C109.364033,89.4913433 114.593455,88.5601628 118.973248,90.7550882" id="path674" fill="#002081"></path>
                <path d="M99.0887169,74.2756445 C99.6073996,73.4459837 100.501553,72.8368657 101.822538,72.4097829 C102.989092,72.03346 104.202798,71.7849118 105.376715,71.5451153 C107.632345,71.0830258 109.964927,70.6051832 111.994608,69.2014111 C112.846341,68.669308 113.708242,68.0951967 114.541745,67.5420896 C116.973191,65.9247761 119.487373,64.2514518 122.28535,63.2555088 C127.829242,61.2793758 134.053785,61.424654 139.365068,63.6545862 C142.185481,64.8395658 144.383616,66.4288738 145.898121,68.3822524 C145.98226,68.4907734 146.138268,68.5117775 146.2487,68.4295115 C148.585314,71.6063772 149.01828,76.1765129 147.414378,79.8084668 C147.903437,75.3538535 144.083871,70.8344776 140.285339,69.0403799 C134.320225,66.2240841 127.382779,67.0887517 121.381555,69.3151832 C118.133609,70.5194166 115.392952,72.7423474 112.177961,73.9185753 C111.138668,74.2983989 110.039425,74.4804342 108.958763,74.7202307 C106.522234,75.2593351 104.081848,75.9682225 101.922628,77.2179647 C100.804279,77.8655902 100.328717,79.4058887 100.22144,80.3388195 C100.119071,81.2314925 100.180247,82.1644233 100.36991,83.1008548 C99.238765,81.7268385 98.6967688,79.4636499 98.482214,78.0406242 C98.3011395,76.8381411 98.3495195,75.2558345 98.7568932,74.3649118 C98.8732856,74.4261737 99.0182504,74.3894166 99.0887169,74.2756445" id="path676" fill="#F9EDED"></path>
                <path d="M146.253959,68.4260109 C146.252206,68.4277612 146.250453,68.4277612 146.2487,68.4295115 C146.138268,68.5117775 145.98226,68.4907734 145.898121,68.3822524 C144.383616,66.4288738 142.185481,64.8395658 139.365068,63.6545862 C134.053785,61.424654 127.829242,61.2793758 122.28535,63.2555088 C119.487373,64.2514518 116.973191,65.9247761 114.541745,67.5420896 C113.708242,68.0951967 112.846341,68.669308 111.994608,69.2014111 C109.964927,70.6051832 107.632345,71.0830258 105.376715,71.5451153 C104.202798,71.7849118 102.989092,72.03346 101.822538,72.4097829 C100.501553,72.8368657 99.6073996,73.4459837 99.0887169,74.2756445 C99.0182504,74.3894166 98.8732856,74.4261737 98.7568932,74.3649118 C98.7511086,74.3631615 98.7451488,74.3596608 98.7395395,74.3579104 C98.6208682,74.2826459 98.5847585,74.1268657 98.6587309,74.0078426 C99.2433225,73.0731615 100.227225,72.3922795 101.666705,71.9284396 C102.859728,71.543365 104.087458,71.2913161 105.274871,71.0497693 C107.582036,70.5771777 109.761415,70.1308412 111.715897,68.777829 C112.571312,68.2439756 113.430232,67.6716147 114.260755,67.1202578 C116.717793,65.485441 119.258444,63.7963636 122.114968,62.7794166 C124.76167,61.8359837 127.560523,61.3651425 130.344651,61.3651425 C133.517398,61.3651425 136.672615,61.9760109 139.561392,63.1889959 C142.462439,64.407232 144.728937,66.0490502 146.297781,68.070692 C146.383674,68.1809634 146.364392,68.3402442 146.253959,68.4260109" id="path678" fill="#172C4B"></path>
                <path d="M100.22144,80.3388195 C100.328717,79.4058887 100.804279,77.8655902 101.922628,77.2179647 C104.081848,75.9682225 106.522234,75.2593351 108.958763,74.7202307 C110.039425,74.4804342 111.138668,74.2983989 112.177961,73.9185753 C115.392952,72.7423474 118.133609,70.5194166 121.381555,69.3151832 C127.382779,67.0887517 134.320225,66.2240841 140.285339,69.0403799 C144.083871,70.8344776 147.903437,75.3538535 147.414378,79.8084668 C147.353026,80.3580733 147.232076,80.9041791 147.032246,81.4467843 C146.140021,83.8692537 143.705244,85.9171506 141.068885,85.9679104 C138.418502,86.0186703 136.01002,84.4818725 133.513892,83.8132429 C132.28511,83.4841791 131.009,83.3143962 129.750419,83.5769471 C124.792521,84.6131479 123.916247,89.0677612 119.447582,91.007137 C119.290698,90.9178697 119.132411,90.8356038 118.973248,90.7550882 C114.593455,88.5601628 109.364033,89.4913433 105.652621,91.3432022 C105.650868,91.3414518 105.649115,91.3397015 105.647362,91.3397015 C103.24519,89.6296201 101.028124,86.3494844 100.36991,83.1008548 C100.180247,82.1644233 100.119071,81.2314925 100.22144,80.3388195" id="path680" fill="#B08A37"></path>
                <path d="M201.142472,200.772659 C201.699894,201.625075 202.234528,202.493243 202.818243,203.333406 C200.187143,205.288535 198.197603,207.985807 197.596358,211.173175 C196.939022,210.600814 196.19404,210.028453 195.428023,209.459593 C195.839954,207.952551 196.607724,206.261723 197.713803,204.625156 C198.779565,203.0481 199.978548,201.728345 201.142472,200.772659" id="path682" fill="#D17F49"></path>
                <path d="M164.6629,205.615848 C164.012575,204.730176 163.334203,203.853256 162.624279,202.988589 C162.506835,202.846811 162.387638,202.701533 162.26844,202.559756 C162.14749,202.416228 162.028293,202.27445 161.90559,202.130923 C160.934485,200.991452 159.909039,199.883487 158.831006,198.81228 C150.222521,198.45521 141.966369,200.938942 134.826813,206.006174 C134.826813,206.007924 134.82506,206.007924 134.82506,206.007924 C134.956528,206.076187 135.087995,206.14445 135.221215,206.214464 C135.356189,206.286228 135.489409,206.356242 135.626135,206.429756 C135.761108,206.50152 135.897834,206.575034 136.036313,206.652049 C136.39741,206.848087 136.769025,207.054627 137.149404,207.271669 C137.491219,207.465957 137.841799,207.668996 138.19939,207.880787 C138.204649,207.877286 138.215166,207.873786 138.222178,207.872035 C142.900664,206.223216 147.51254,204.5954 152.492525,204.12981 C156.590802,203.744735 160.850346,204.143813 164.6629,205.615848" id="path684" fill="#172C4B"></path>
                <path d="M205.689491,199.363636 C201.855902,194.860014 195.11776,190.678453 189.985273,188.012687 C177.630844,181.597693 165.220322,177.046811 150.944716,177.822212 C149.493316,178.165278 147.873637,178.296554 146.161055,178.272049 C146.089187,178.282551 146.019071,178.293053 145.945449,178.301805 C144.94805,178.440081 143.53346,178.541601 142.539567,178.706133 C137.207249,179.579552 132.616408,181.125102 127.861671,183.225509 C124.790592,184.585522 121.911632,186.496893 119.387808,188.774084 C118.638444,189.447965 117.920457,190.155102 117.237002,190.890244 C116.913241,191.238562 116.59772,191.59213 116.290437,191.95095 C115.459037,192.925889 114.92002,193.921832 114.394151,195.019294 C114.256198,195.3081 114.118245,195.605658 113.976961,195.911967 C113.398504,197.250977 112.989378,198.693256 112.7757,200.242307 C112.760975,200.345577 112.747828,200.448847 112.736259,200.553867 C112.723113,200.665889 112.711719,200.779661 112.70015,200.889932 C112.157978,206.308982 114.663747,212.981275 120.720362,213.788182 C123.579515,214.171506 125.791147,213.074043 127.776129,211.484735 C127.322654,212.662714 126.721235,213.908955 125.991678,215.116689 C128.389118,212.494681 131.785534,208.173094 134.756697,206.055183 C134.779485,206.03943 134.802273,206.023677 134.82506,206.007924 C141.964616,200.938942 150.222521,198.45521 158.831006,198.81228 C159.342853,198.833284 159.854699,198.863039 160.370051,198.903297 C170.077604,199.683948 178.805286,203.842754 187.220952,208.281615 C190.227173,209.867422 193.136984,211.330706 195.536703,213.684912 C194.95474,212.825495 194.931953,211.276445 195.428023,209.459593 C195.839954,207.952551 196.607724,206.261723 197.713803,204.625156 C198.779565,203.0481 199.978548,201.726594 201.142472,200.772659 C202.951464,199.288372 204.676316,198.682754 205.689491,199.363636" id="path686" fill="#002081"></path>
                <path d="M112.7757,200.242307 C112.989378,198.693256 113.398504,197.250977 113.976961,195.911967 C113.362395,197.235224 112.979562,198.689756 112.7757,200.242307" id="path688" fill="#002081"></path>
                <path d="M125.991678,215.116689 C126.721235,213.908955 127.322654,212.662714 127.776129,211.484735 C125.791147,213.074043 123.579515,214.171506 120.720362,213.788182 C123.579515,214.171506 122.278163,218.414328 124.264723,216.82152 C124.744491,216.438195 125.329433,215.84308 125.991678,215.116689" id="path690" fill="#002081"></path>
                <path d="M105.613005,145.670231 C101.139433,143.375536 97.0025923,142.213311 93.3726899,142.761167 L86.2326081,103.910638 L105.613005,145.670231" id="path692" fill="#172C4B"></path>
                <path d="M45.577456,48.3653731 C45.4922651,48.3653731 45.4090024,48.4091316 45.3611483,48.4861465 C41.3391225,55.0306649 35.5549078,58.1830258 31.4108802,59.6760651 C26.9101378,61.2951289 23.3145923,61.3633921 23.2788331,61.3633921 C23.1389518,61.3668928 23.0271169,61.4806649 23.0288495,61.620692 C23.030798,61.7589688 23.14386,61.8709905 23.2823389,61.8709905 C23.2833907,61.8709905 23.2846177,61.8709905 23.2856694,61.8709905 C23.322305,61.8692402 26.987616,61.8027273 31.5647847,60.1574084 C35.7910232,58.6398643 41.6900528,55.4279919 45.7932378,48.7504478 C45.8663337,48.6314247 45.8289969,48.4756445 45.7097998,48.4038806 C45.6684314,48.3776255 45.6226808,48.3653731 45.577456,48.3653731" id="path694" fill="#172C4B"></path>
                <path d="M131.114174,100.359199 C131.040552,100.359199 130.96693,100.390706 130.916096,100.453718 C126.338928,106.08981 120.172581,108.342497 115.805935,109.240421 C111.060839,110.21536 107.351881,109.846038 107.31507,109.842537 C107.175714,109.828535 107.051259,109.930054 107.03671,110.068331 C107.022161,110.206608 107.123128,110.332632 107.262483,110.346635 C107.29982,110.350136 111.072934,110.726459 115.891477,109.739267 C120.344365,108.827341 126.634116,106.530896 131.310499,100.77228 C131.398144,100.663758 131.382367,100.504478 131.273688,100.416961 C131.226359,100.378453 131.170267,100.359199 131.114174,100.359199" id="path696" fill="#172C4B"></path>
                <path d="M219.05359,211.017395 C218.965945,211.017395 218.885312,211.075156 218.859018,211.162673 C218.827466,211.271194 218.888818,211.383216 218.995744,211.416472 C221.777594,212.242632 223.835497,213.436364 226.070443,214.971411 C226.771602,215.454505 227.576183,216.05137 228.228261,216.818019 C228.918903,217.631927 229.243189,218.293555 229.344858,219.103962 C229.369398,219.30175 229.278247,219.510041 229.106463,219.648318 C228.948703,219.777843 228.761142,219.81635 228.592864,219.758589 C228.23352,219.636065 227.726932,219.259742 227.087124,218.643623 C225.949493,217.54791 223.295605,216.081126 221.728513,215.680299 C221.618081,215.652293 221.507648,215.718806 221.479602,215.827327 C221.451555,215.935848 221.518165,216.046119 221.626845,216.074125 C223.115056,216.453948 225.726875,217.897978 226.803155,218.935929 C227.49555,219.602809 228.037195,219.998385 228.459644,220.143664 C228.759389,220.246934 229.097699,220.180421 229.362387,219.965129 C229.64285,219.737585 229.790094,219.389267 229.748024,219.053202 C229.609545,217.945237 229.085429,217.197843 228.538524,216.555468 C227.856647,215.752062 227.02402,215.134193 226.301826,214.637096 C224.035328,213.079294 221.945873,211.86806 219.113189,211.026147 C219.093907,211.020896 219.072872,211.017395 219.05359,211.017395" id="path698" fill="#172C4B"></path>
                <path d="M220.766172,215.449254 C220.675021,215.449254 220.592635,215.510516 220.568094,215.601533 C220.540048,215.710054 220.604905,215.822076 220.713585,215.850081 C221.679432,216.103881 222.540105,216.641235 223.409543,217.217096 C225.595408,218.666377 227.811071,220.320448 229.202873,222.60464 C229.586758,223.234763 229.68492,223.716106 229.504371,224.074925 C229.26773,224.544016 228.46315,224.267463 228.223002,224.171194 C227.753226,223.985658 227.355318,223.619837 226.96968,223.268019 L226.873271,223.178752 C225.118619,221.582442 223.146608,220.246934 221.013331,219.210733 C220.911663,219.159973 220.78896,219.203731 220.739878,219.303501 C220.690797,219.40502 220.732867,219.527544 220.834535,219.576554 C222.934507,220.595251 224.873213,221.908005 226.598066,223.47981 L226.694475,223.567327 C227.106406,223.9454 227.53236,224.335726 228.072253,224.549267 C228.932926,224.892334 229.602534,224.783813 229.867221,224.258711 C230.117886,223.763365 230.014465,223.154247 229.549947,222.392849 C228.117829,220.040393 225.860095,218.353066 223.635667,216.879281 C222.734677,216.282415 221.842452,215.725807 220.817006,215.456255 C220.799477,215.451004 220.781948,215.449254 220.766172,215.449254" id="path700" fill="#172C4B"></path>
                <path d="M218.688987,218.057259 C218.606601,218.057259 218.52772,218.109769 218.497921,218.192035 C218.459357,218.298806 218.513697,218.414328 218.620624,218.452836 C220.077283,218.979688 221.493625,219.896866 223.074739,221.337395 C224.263205,222.420855 225.136148,223.280271 225.907423,224.123935 C225.96001,224.179946 226.01435,224.239457 226.070443,224.300719 C226.787379,225.074369 227.677851,226.037056 227.32026,227.034749 C227.281696,227.14502 227.218592,227.211533 227.123935,227.24829 C226.8908,227.335807 226.505162,227.222035 226.226451,227.068005 C225.111608,226.455387 224.212371,225.483948 223.344686,224.544016 L223.071234,224.248209 C222.075587,223.178752 219.774031,221.395156 218.424299,220.646011 C218.326137,220.59175 218.201681,220.626757 218.147341,220.724776 C218.093002,220.822795 218.12806,220.947069 218.226222,221.00133 C219.523367,221.720719 221.817911,223.499064 222.773241,224.526513 L223.04494,224.81882 C223.935413,225.783256 224.857437,226.779199 226.030126,227.425075 C226.378953,227.617612 226.889047,227.771642 227.267673,227.628114 C227.474515,227.551099 227.625264,227.393569 227.704145,227.173026 C228.145875,225.940787 227.118676,224.832822 226.370189,224.024166 C226.314096,223.964654 226.259756,223.905142 226.208922,223.849132 C225.428882,222.996716 224.547174,222.128548 223.348192,221.038087 C221.72676,219.55905 220.268349,218.615617 218.759103,218.069512 C218.736315,218.06251 218.711775,218.057259 218.688987,218.057259" id="path702" fill="#172C4B"></path>
                <path d="M196.614735,210.550054 C196.539361,210.550054 196.465739,210.592062 196.430681,210.665577 C196.3816,210.767096 196.425422,210.88787 196.52709,210.936879 C197.435092,211.367463 198.120475,212.174369 198.784824,212.95327 C198.951349,213.147558 199.116122,213.341845 199.286153,213.530882 C200.670943,215.081682 202.404559,216.35943 204.29769,217.225848 C205.722796,217.878725 207.251324,218.309308 208.73077,218.724138 C209.74044,219.009444 210.78692,219.303501 211.78432,219.664071 C213.789636,220.390461 215.337445,221.298887 216.518899,222.438358 C216.869478,222.776174 217.228823,223.124491 217.58992,223.474559 C218.035156,223.905142 218.480392,224.337476 218.913358,224.754057 L219.016779,224.853826 C219.612765,225.429688 220.289384,226.084315 221.146551,226.378372 C221.449802,226.481642 221.777594,226.42213 222.026506,226.217341 C222.271912,226.014301 222.391109,225.706242 222.347286,225.394681 C222.294699,225.030611 222.150962,224.61578 221.959896,224.286716 C221.432273,223.369539 219.092154,220.838548 217.404112,219.91787 C217.30595,219.863609 217.181494,219.900366 217.127154,220.000136 C217.072815,220.098155 217.109625,220.222429 217.207788,220.274939 C218.781891,221.132605 221.092211,223.595332 221.607563,224.489756 C221.735525,224.710299 221.88978,225.07962 221.94412,225.452442 C221.96866,225.622225 221.90205,225.792008 221.767077,225.90403 C221.628598,226.017802 221.446297,226.051058 221.279771,225.993297 C220.506743,225.728996 219.865182,225.107626 219.298996,224.56152 L219.195575,224.46175 C218.764362,224.04517 218.317373,223.612836 217.873889,223.182252 C217.512792,222.832185 217.153448,222.483867 216.802868,222.146052 C215.579345,220.964573 213.982454,220.028141 211.922799,219.282497 C210.911376,218.914925 209.859637,218.619118 208.841203,218.333813 C207.377533,217.920733 205.864781,217.4954 204.467721,216.856526 C202.625425,216.012863 200.939136,214.770122 199.589404,213.259579 C199.422879,213.074043 199.259859,212.881506 199.095087,212.690719 C198.404445,211.878562 197.687509,211.038399 196.70238,210.569308 C196.674334,210.557056 196.644535,210.550054 196.614735,210.550054" id="path704" fill="#172C4B"></path>
                <path d="M145.700043,231.419349 C145.985766,230.724464 146.779829,230.39365 147.475729,230.678955 C148.169877,230.964261 148.501175,231.758915 148.215453,232.452049 C147.92973,233.145183 147.135667,233.475997 146.439766,233.190692 C145.745618,232.905387 145.414321,232.112483 145.700043,231.419349" id="path706" fill="#172C4B"></path>
                <path d="M151.444292,231.043026 C151.393458,231.043026 151.342624,231.06403 151.307566,231.104288 C151.290037,231.123541 149.605501,233.045414 147.205783,233.321967 C144.799053,233.600271 142.416864,232.065224 142.392323,232.049471 C142.308184,231.99346 142.195999,232.017965 142.141659,232.100231 C142.087319,232.184247 142.110107,232.296269 142.194246,232.350529 C142.295914,232.417042 144.707902,233.974844 147.2461,233.680787 C149.789555,233.38673 151.509149,231.4246 151.581018,231.340583 C151.645875,231.265319 151.637111,231.151547 151.561736,231.086784 C151.526678,231.057028 151.486361,231.043026 151.444292,231.043026" id="path708" fill="#172C4B"></path>
                <path d="M147.596679,230.03133 C146.555458,230.03133 145.610645,230.244871 144.432697,230.943256 C144.346805,230.995767 144.318759,231.106038 144.369593,231.191805 C144.420427,231.277571 144.532613,231.305577 144.618505,231.254817 C146.336345,230.232619 147.509034,230.309634 149.279462,230.521425 C149.377624,230.533677 149.468775,230.463664 149.481045,230.363894 C149.493316,230.265875 149.421447,230.174858 149.323284,230.164355 C148.692241,230.087341 148.131313,230.03133 147.596679,230.03133" id="path710" fill="#172C4B"></path>
                <path d="M142.4081,232.194749 C142.387065,232.194749 142.364277,232.19825 142.341489,232.208752 C142.006686,232.341777 141.717457,232.585075 141.526392,232.891384 C141.473805,232.9754 141.500098,233.085672 141.584237,233.139932 C141.668376,233.192442 141.780562,233.166187 141.833149,233.082171 C141.983898,232.840624 142.211775,232.648087 142.476463,232.543066 C142.569366,232.506309 142.613189,232.401289 142.576378,232.308521 C142.548331,232.236757 142.479968,232.194749 142.4081,232.194749" id="path712" fill="#172C4B"></path>
                <path d="M143.396734,232.7181 C143.359923,232.7181 143.323113,232.730353 143.29156,232.753107 C142.963768,232.989403 142.681552,233.278209 142.455428,233.612524 C142.399335,233.69654 142.422123,233.808562 142.504509,233.864573 C142.586895,233.918833 142.699081,233.897829 142.755173,233.815563 C142.95851,233.516255 143.209174,233.257205 143.503661,233.045414 C143.584294,232.987653 143.601823,232.873881 143.543978,232.793365 C143.50892,232.744355 143.452827,232.7181 143.396734,232.7181" id="path714" fill="#172C4B"></path>
                <path d="M144.720173,233.248453 C144.690373,233.248453 144.660574,233.255455 144.632528,233.271208 C144.250396,233.484749 143.968179,233.866323 143.873523,234.291655 C143.852488,234.389674 143.913839,234.485943 144.010249,234.506947 C144.108411,234.527951 144.204821,234.466689 144.225855,234.370421 C144.297724,234.043107 144.516837,233.74905 144.809571,233.586269 C144.895463,233.537259 144.927015,233.426988 144.877934,233.341221 C144.844629,233.28171 144.783277,233.248453 144.720173,233.248453" id="path716" fill="#172C4B"></path>
                <path d="M145.815734,233.521506 C145.763147,233.521506 145.71056,233.544261 145.67375,233.588019 C145.391533,233.934586 145.298629,234.415929 145.43185,234.843012 C145.461649,234.937531 145.561564,234.990041 145.657973,234.962035 C145.75263,234.93228 145.80697,234.83076 145.777171,234.736242 C145.680761,234.426431 145.750877,234.065862 145.954213,233.815563 C146.017318,233.738548 146.0068,233.624776 145.929673,233.561764 C145.894615,233.533758 145.854298,233.521506 145.815734,233.521506" id="path718" fill="#172C4B"></path>
                <path d="M147.253111,233.244953 C147.165466,233.244953 147.088339,233.307965 147.076068,233.397232 C146.998941,233.882076 147.081327,234.387924 147.305698,234.822008 C147.351274,234.911275 147.459953,234.946282 147.549351,234.900773 C147.636996,234.855265 147.672054,234.746744 147.626479,234.657476 C147.437166,234.289905 147.368803,233.862822 147.431907,233.453243 C147.447683,233.355224 147.381073,233.262456 147.281158,233.246703 C147.272393,233.246703 147.263629,233.244953 147.253111,233.244953" id="path720" fill="#172C4B"></path>
                <path d="M148.502928,233.197693 C148.483646,233.197693 148.464364,233.201194 148.445082,233.206445 C148.350426,233.239701 148.299592,233.342972 148.332897,233.435739 C148.462611,233.815563 148.688735,234.16038 148.983222,234.431682 C149.081384,234.5227 149.177794,234.499946 149.214605,234.484193 C149.284721,234.457938 149.330296,234.394925 149.337308,234.321411 C149.344319,234.246147 149.309261,234.174383 149.24791,234.135875 C149.223369,234.120122 149.197076,234.11137 149.167276,234.10787 C148.946411,233.887327 148.77638,233.616024 148.674712,233.318467 C148.648418,233.244953 148.578303,233.197693 148.502928,233.197693" id="path722" fill="#172C4B"></path>
                <path d="M149.467022,232.401289 C149.43547,232.401289 149.405671,232.40829 149.375871,232.425794 C149.289979,232.476554 149.26018,232.586825 149.311014,232.672592 C149.577455,233.12768 149.950822,233.523256 150.389047,233.815563 C150.471433,233.871574 150.583619,233.84882 150.639711,233.766554 C150.695804,233.684288 150.673016,233.570516 150.59063,233.516255 C150.196228,233.253704 149.863177,232.898385 149.62303,232.490556 C149.589725,232.432795 149.530126,232.401289 149.467022,232.401289" id="path724" fill="#172C4B"></path>
                <path d="M150.634453,232.112483 C150.595889,232.112483 150.557325,232.124735 150.52402,232.14924 C150.44514,232.210502 150.431116,232.322524 150.492468,232.403039 C150.704569,232.676092 151.000808,232.893134 151.325095,233.012157 C151.360153,233.02441 151.451303,233.057666 151.547713,233.012157 C151.626593,232.97365 151.675674,232.889634 151.672169,232.800366 C151.668663,232.7181 151.617829,232.644586 151.542454,232.61483 C151.481103,232.592076 151.414492,232.602578 151.367164,232.639335 C151.134029,232.536065 150.92894,232.376784 150.77819,232.182497 C150.741379,232.135237 150.688792,232.112483 150.634453,232.112483" id="path726" fill="#172C4B"></path>
                <path d="M151.326848,231.160299 C151.270755,231.160299 151.214662,231.184803 151.179604,231.233813 C151.121758,231.314328 151.139287,231.4281 151.219921,231.485862 C151.442539,231.648643 151.687945,231.778168 151.947374,231.870936 C152.040277,231.904193 152.145451,231.855183 152.178756,231.760665 C152.212061,231.667897 152.16298,231.564627 152.070077,231.53137 C151.8422,231.449104 151.626593,231.337083 151.432021,231.193555 C151.400469,231.170801 151.363658,231.160299 151.326848,231.160299" id="path728" fill="#172C4B"></path>
                <path d="M149.041068,229.439715 C149.03055,229.439715 149.01828,229.439715 149.00601,229.443216 C148.907847,229.462469 148.844743,229.556988 148.864025,229.655007 C148.895577,229.814288 148.850002,229.989322 148.741322,230.110095 C148.674712,230.18536 148.681724,230.299132 148.757098,230.365645 C148.83072,230.430407 148.946411,230.423406 149.011268,230.349891 C149.19357,230.145102 149.27245,229.851045 149.218111,229.583243 C149.200582,229.497476 149.125207,229.439715 149.041068,229.439715" id="path730" fill="#172C4B"></path>
                <path d="M147.757946,229.31019 C147.726394,229.31019 147.696595,229.317191 147.668548,229.332944 C147.580903,229.381954 147.551104,229.492225 147.600185,229.579742 C147.712371,229.77403 147.757946,230.005075 147.728147,230.227368 C147.715876,230.327137 147.785992,230.416404 147.885908,230.430407 C147.98407,230.440909 148.075221,230.372646 148.087491,230.272877 C148.126055,229.973569 148.064703,229.663758 147.913954,229.401208 C147.880649,229.341696 147.819297,229.31019 147.757946,229.31019" id="path732" fill="#172C4B"></path>
                <path d="M146.445025,229.520231 C146.402955,229.520231 146.359133,229.534233 146.325828,229.565739 C146.250453,229.632252 146.243442,229.746024 146.310052,229.819539 C146.408214,229.92981 146.460801,230.080339 146.453789,230.225617 C146.448531,230.325387 146.523905,230.409403 146.623821,230.414654 C146.721983,230.421655 146.809628,230.34464 146.814887,230.244871 C146.827157,230.003324 146.741265,229.760027 146.579998,229.579742 C146.54494,229.539484 146.495859,229.520231 146.445025,229.520231" id="path734" fill="#172C4B"></path>
                <path d="M145.400297,229.732022 C145.393286,229.732022 145.386274,229.732022 145.379263,229.733772 C145.279347,229.746024 145.209231,229.835292 145.221502,229.935061 C145.249548,230.167856 145.352969,230.3919 145.514236,230.565183 C145.580846,230.638697 145.696537,230.642198 145.768406,230.575685 C145.842028,230.507422 145.847287,230.39365 145.778923,230.320136 C145.670244,230.202863 145.600128,230.050583 145.579093,229.891303 C145.568576,229.800285 145.491448,229.732022 145.400297,229.732022" id="path736" fill="#172C4B"></path>
                <path d="M144.218844,230.146852 C144.175021,230.146852 144.132952,230.162605 144.097894,230.192361 C144.024272,230.258874 144.01726,230.372646 144.082118,230.44791 L144.600976,231.030773 C144.667586,231.106038 144.781524,231.113039 144.855146,231.046526 C144.930521,230.980014 144.937532,230.866242 144.870922,230.792727 L144.353817,230.208114 C144.317006,230.167856 144.267925,230.146852 144.218844,230.146852" id="path738" fill="#172C4B"></path>
                <path d="M90.5563077,227.383066 C89.4961547,225.827015 90.0381509,223.801872 91.4856946,222.452361 C92.9332382,221.102849 95.1259391,220.355455 97.3384476,220.038643 C101.551014,219.436526 105.861041,220.239932 110.020318,221.038087 C111.469965,221.316391 115.309514,222.700909 116.431895,221.557938 C116.531811,221.456418 116.605432,221.346147 116.656617,221.227123 C116.683787,221.274383 116.711833,221.319891 116.733569,221.367151 C117.852795,223.775617 111.193709,225.909281 108.968579,226.948982 C107.510518,227.631615 104.385275,228.559294 101.874423,229.135156 C98.3481172,229.563989 92.1099018,229.662008 90.5563077,227.383066" id="path740" fill="#172C4B"></path>
                <path d="M108.67304,210.129973 C105.320972,208.278114 100.308559,206.930353 95.5553992,206.666052 C94.6943754,205.323541 93.8333516,203.981031 92.9723279,202.638521 C92.9437556,202.594763 92.9141316,202.545753 92.916443,202.493243 C92.9207926,202.402225 93.013521,202.346214 93.0960825,202.307707 C94.4526507,201.677585 96.0276301,201.796608 97.5097058,201.999647 C103.037296,202.757544 108.372068,205.514328 111.120262,210.539552 C111.288716,210.847612 111.448755,211.160923 111.601258,211.475984 C111.717825,211.717531 111.829836,211.960828 111.937989,212.205875 C111.997938,212.342402 112.182343,212.944518 112.341331,213.341845 C111.500992,212.169118 110.47169,211.122415 108.67304,210.129973" id="path742" fill="#172C4B"></path>
                <path d="M116.656617,221.227123 C116.605432,221.346147 116.531811,221.456418 116.431895,221.557938 C115.309514,222.700909 111.469965,221.316391 110.020318,221.038087 C105.861041,220.239932 101.551014,219.436526 97.3384476,220.038643 C95.1259391,220.355455 92.9332382,221.102849 91.4856946,222.452361 C90.0381509,223.801872 89.4961547,225.827015 90.5563077,227.383066 C92.1099018,229.662008 98.3481172,229.563989 101.874423,229.135156 C102.046733,229.114152 102.214661,229.093148 102.373123,229.070393 C98.3307635,231.363338 89.804139,231.151547 85.9984208,228.622307 C82.192878,226.093066 80.3542627,222.109294 80.0203355,218.206038 C79.8169993,215.829077 80.1504006,213.336594 81.7313398,211.3027 C83.1354116,209.4946 85.4355651,208.187096 87.943963,207.406445 C90.1470059,206.722062 92.8080813,206.513772 95.5553992,206.666052 C100.308559,206.930353 105.320972,208.278114 108.67304,210.129973 C110.47169,211.122415 111.500992,212.169118 112.341331,213.341845 C113.189208,214.525075 113.844968,215.836079 114.904244,217.357123 C115.494796,218.202537 117.158647,220.068399 116.656617,221.227123" id="path744" fill="#002081"></path>
                <path d="M99.3647984,216.285916 C99.1681232,216.285916 98.972675,216.287666 98.7777527,216.292917 C97.1088179,216.334925 95.393782,216.648236 93.8181014,217.199593 C91.4455532,218.027503 89.5937911,219.338507 88.462821,220.987327 C87.0938072,222.982714 86.8545365,225.496201 87.8531628,227.386567 C88.5713254,228.748331 89.9664574,229.844043 91.6807922,230.397151 C93.0271936,230.829484 94.5732501,230.967761 96.5473645,230.827734 C96.65955,230.820733 96.7440397,230.722714 96.7361517,230.610692 C96.7282636,230.49867 96.6295755,230.414654 96.518617,230.421655 C94.5986672,230.558182 93.1011659,230.426906 91.8059491,230.008575 C90.1918801,229.488725 88.8824649,228.464776 88.2137341,227.197531 C87.2845225,225.43844 87.5143275,223.089484 88.7990269,221.216621 C90.1654114,219.224735 92.3556581,218.141275 93.952724,217.582917 C95.4889643,217.045563 97.160879,216.741004 98.7880948,216.698996 C102.968057,216.593976 107.563105,217.637178 112.835473,219.888114 C113.358012,220.112157 113.88581,220.38171 114.396079,220.64251 C115.523368,221.220122 116.689046,221.816988 117.966733,222.009525 C118.077867,222.027028 118.181639,221.950014 118.198467,221.839742 C118.215294,221.72772 118.138693,221.62445 118.027384,221.606947 C116.81578,221.424912 115.680253,220.843799 114.582062,220.28194 C114.065482,220.017639 113.531199,219.742836 112.995688,219.515292 C107.913159,217.344871 103.446247,216.285916 99.3647984,216.285916" id="path746" fill="#172C4B"></path>
                <path d="M200.986464,195.157571 C200.967182,195.157571 200.947901,195.159322 200.930372,195.164573 C191.094858,197.972117 190.698703,209.785156 190.686406,210.285753 C190.684679,210.399525 190.772324,210.492293 190.886263,210.494043 C190.998448,210.499294 191.091352,210.408277 191.094858,210.296255 C191.105375,209.80616 191.491013,198.281927 201.040804,195.556649 C201.149484,195.525142 201.212588,195.413121 201.181036,195.3046 C201.156495,195.215332 201.074109,195.157571 200.986464,195.157571" id="path748" fill="#172C4B"></path>
                <polyline id="path750" fill="#01B4AD" points="217.086838 215.368738 203.389688 215.368738 203.389688 258 217.086838 258 217.086838 215.368738"></polyline>
            </g>
        </g>
    </g>
</svg>